%TF.GenerationSoftware,KiCad,Pcbnew,7.0.1-3b83917a11~172~ubuntu22.04.1*%
%TF.CreationDate,2023-04-16T23:39:10+09:00*%
%TF.ProjectId,pcb,7063622e-6b69-4636-9164-5f7063625858,rev?*%
%TF.SameCoordinates,Original*%
%TF.FileFunction,Legend,Top*%
%TF.FilePolarity,Positive*%
%FSLAX46Y46*%
G04 Gerber Fmt 4.6, Leading zero omitted, Abs format (unit mm)*
G04 Created by KiCad (PCBNEW 7.0.1-3b83917a11~172~ubuntu22.04.1) date 2023-04-16 23:39:10*
%MOMM*%
%LPD*%
G01*
G04 APERTURE LIST*
%ADD10C,0.150000*%
%ADD11C,0.120000*%
%ADD12C,0.200000*%
%ADD13C,0.127000*%
G04 APERTURE END LIST*
D10*
%TO.C,U3*%
X91172295Y-67227419D02*
X91172295Y-68036942D01*
X91172295Y-68036942D02*
X91219914Y-68132180D01*
X91219914Y-68132180D02*
X91267533Y-68179800D01*
X91267533Y-68179800D02*
X91362771Y-68227419D01*
X91362771Y-68227419D02*
X91553247Y-68227419D01*
X91553247Y-68227419D02*
X91648485Y-68179800D01*
X91648485Y-68179800D02*
X91696104Y-68132180D01*
X91696104Y-68132180D02*
X91743723Y-68036942D01*
X91743723Y-68036942D02*
X91743723Y-67227419D01*
X92124676Y-67227419D02*
X92743723Y-67227419D01*
X92743723Y-67227419D02*
X92410390Y-67608371D01*
X92410390Y-67608371D02*
X92553247Y-67608371D01*
X92553247Y-67608371D02*
X92648485Y-67655990D01*
X92648485Y-67655990D02*
X92696104Y-67703609D01*
X92696104Y-67703609D02*
X92743723Y-67798847D01*
X92743723Y-67798847D02*
X92743723Y-68036942D01*
X92743723Y-68036942D02*
X92696104Y-68132180D01*
X92696104Y-68132180D02*
X92648485Y-68179800D01*
X92648485Y-68179800D02*
X92553247Y-68227419D01*
X92553247Y-68227419D02*
X92267533Y-68227419D01*
X92267533Y-68227419D02*
X92172295Y-68179800D01*
X92172295Y-68179800D02*
X92124676Y-68132180D01*
%TO.C,R7*%
X67371933Y-79150819D02*
X67038600Y-78674628D01*
X66800505Y-79150819D02*
X66800505Y-78150819D01*
X66800505Y-78150819D02*
X67181457Y-78150819D01*
X67181457Y-78150819D02*
X67276695Y-78198438D01*
X67276695Y-78198438D02*
X67324314Y-78246057D01*
X67324314Y-78246057D02*
X67371933Y-78341295D01*
X67371933Y-78341295D02*
X67371933Y-78484152D01*
X67371933Y-78484152D02*
X67324314Y-78579390D01*
X67324314Y-78579390D02*
X67276695Y-78627009D01*
X67276695Y-78627009D02*
X67181457Y-78674628D01*
X67181457Y-78674628D02*
X66800505Y-78674628D01*
X67705267Y-78150819D02*
X68371933Y-78150819D01*
X68371933Y-78150819D02*
X67943362Y-79150819D01*
%TO.C,J4*%
X95126666Y-86776519D02*
X95126666Y-87490804D01*
X95126666Y-87490804D02*
X95079047Y-87633661D01*
X95079047Y-87633661D02*
X94983809Y-87728900D01*
X94983809Y-87728900D02*
X94840952Y-87776519D01*
X94840952Y-87776519D02*
X94745714Y-87776519D01*
X96031428Y-87109852D02*
X96031428Y-87776519D01*
X95793333Y-86728900D02*
X95555238Y-87443185D01*
X95555238Y-87443185D02*
X96174285Y-87443185D01*
%TO.C,J5*%
X60448866Y-88235619D02*
X60448866Y-88949904D01*
X60448866Y-88949904D02*
X60401247Y-89092761D01*
X60401247Y-89092761D02*
X60306009Y-89188000D01*
X60306009Y-89188000D02*
X60163152Y-89235619D01*
X60163152Y-89235619D02*
X60067914Y-89235619D01*
X61401247Y-88235619D02*
X60925057Y-88235619D01*
X60925057Y-88235619D02*
X60877438Y-88711809D01*
X60877438Y-88711809D02*
X60925057Y-88664190D01*
X60925057Y-88664190D02*
X61020295Y-88616571D01*
X61020295Y-88616571D02*
X61258390Y-88616571D01*
X61258390Y-88616571D02*
X61353628Y-88664190D01*
X61353628Y-88664190D02*
X61401247Y-88711809D01*
X61401247Y-88711809D02*
X61448866Y-88807047D01*
X61448866Y-88807047D02*
X61448866Y-89045142D01*
X61448866Y-89045142D02*
X61401247Y-89140380D01*
X61401247Y-89140380D02*
X61353628Y-89188000D01*
X61353628Y-89188000D02*
X61258390Y-89235619D01*
X61258390Y-89235619D02*
X61020295Y-89235619D01*
X61020295Y-89235619D02*
X60925057Y-89188000D01*
X60925057Y-89188000D02*
X60877438Y-89140380D01*
%TO.C,R8*%
X64781133Y-79100019D02*
X64447800Y-78623828D01*
X64209705Y-79100019D02*
X64209705Y-78100019D01*
X64209705Y-78100019D02*
X64590657Y-78100019D01*
X64590657Y-78100019D02*
X64685895Y-78147638D01*
X64685895Y-78147638D02*
X64733514Y-78195257D01*
X64733514Y-78195257D02*
X64781133Y-78290495D01*
X64781133Y-78290495D02*
X64781133Y-78433352D01*
X64781133Y-78433352D02*
X64733514Y-78528590D01*
X64733514Y-78528590D02*
X64685895Y-78576209D01*
X64685895Y-78576209D02*
X64590657Y-78623828D01*
X64590657Y-78623828D02*
X64209705Y-78623828D01*
X65352562Y-78528590D02*
X65257324Y-78480971D01*
X65257324Y-78480971D02*
X65209705Y-78433352D01*
X65209705Y-78433352D02*
X65162086Y-78338114D01*
X65162086Y-78338114D02*
X65162086Y-78290495D01*
X65162086Y-78290495D02*
X65209705Y-78195257D01*
X65209705Y-78195257D02*
X65257324Y-78147638D01*
X65257324Y-78147638D02*
X65352562Y-78100019D01*
X65352562Y-78100019D02*
X65543038Y-78100019D01*
X65543038Y-78100019D02*
X65638276Y-78147638D01*
X65638276Y-78147638D02*
X65685895Y-78195257D01*
X65685895Y-78195257D02*
X65733514Y-78290495D01*
X65733514Y-78290495D02*
X65733514Y-78338114D01*
X65733514Y-78338114D02*
X65685895Y-78433352D01*
X65685895Y-78433352D02*
X65638276Y-78480971D01*
X65638276Y-78480971D02*
X65543038Y-78528590D01*
X65543038Y-78528590D02*
X65352562Y-78528590D01*
X65352562Y-78528590D02*
X65257324Y-78576209D01*
X65257324Y-78576209D02*
X65209705Y-78623828D01*
X65209705Y-78623828D02*
X65162086Y-78719066D01*
X65162086Y-78719066D02*
X65162086Y-78909542D01*
X65162086Y-78909542D02*
X65209705Y-79004780D01*
X65209705Y-79004780D02*
X65257324Y-79052400D01*
X65257324Y-79052400D02*
X65352562Y-79100019D01*
X65352562Y-79100019D02*
X65543038Y-79100019D01*
X65543038Y-79100019D02*
X65638276Y-79052400D01*
X65638276Y-79052400D02*
X65685895Y-79004780D01*
X65685895Y-79004780D02*
X65733514Y-78909542D01*
X65733514Y-78909542D02*
X65733514Y-78719066D01*
X65733514Y-78719066D02*
X65685895Y-78623828D01*
X65685895Y-78623828D02*
X65638276Y-78576209D01*
X65638276Y-78576209D02*
X65543038Y-78528590D01*
%TO.C,C8*%
X106207133Y-70664580D02*
X106159514Y-70712200D01*
X106159514Y-70712200D02*
X106016657Y-70759819D01*
X106016657Y-70759819D02*
X105921419Y-70759819D01*
X105921419Y-70759819D02*
X105778562Y-70712200D01*
X105778562Y-70712200D02*
X105683324Y-70616961D01*
X105683324Y-70616961D02*
X105635705Y-70521723D01*
X105635705Y-70521723D02*
X105588086Y-70331247D01*
X105588086Y-70331247D02*
X105588086Y-70188390D01*
X105588086Y-70188390D02*
X105635705Y-69997914D01*
X105635705Y-69997914D02*
X105683324Y-69902676D01*
X105683324Y-69902676D02*
X105778562Y-69807438D01*
X105778562Y-69807438D02*
X105921419Y-69759819D01*
X105921419Y-69759819D02*
X106016657Y-69759819D01*
X106016657Y-69759819D02*
X106159514Y-69807438D01*
X106159514Y-69807438D02*
X106207133Y-69855057D01*
X106778562Y-70188390D02*
X106683324Y-70140771D01*
X106683324Y-70140771D02*
X106635705Y-70093152D01*
X106635705Y-70093152D02*
X106588086Y-69997914D01*
X106588086Y-69997914D02*
X106588086Y-69950295D01*
X106588086Y-69950295D02*
X106635705Y-69855057D01*
X106635705Y-69855057D02*
X106683324Y-69807438D01*
X106683324Y-69807438D02*
X106778562Y-69759819D01*
X106778562Y-69759819D02*
X106969038Y-69759819D01*
X106969038Y-69759819D02*
X107064276Y-69807438D01*
X107064276Y-69807438D02*
X107111895Y-69855057D01*
X107111895Y-69855057D02*
X107159514Y-69950295D01*
X107159514Y-69950295D02*
X107159514Y-69997914D01*
X107159514Y-69997914D02*
X107111895Y-70093152D01*
X107111895Y-70093152D02*
X107064276Y-70140771D01*
X107064276Y-70140771D02*
X106969038Y-70188390D01*
X106969038Y-70188390D02*
X106778562Y-70188390D01*
X106778562Y-70188390D02*
X106683324Y-70236009D01*
X106683324Y-70236009D02*
X106635705Y-70283628D01*
X106635705Y-70283628D02*
X106588086Y-70378866D01*
X106588086Y-70378866D02*
X106588086Y-70569342D01*
X106588086Y-70569342D02*
X106635705Y-70664580D01*
X106635705Y-70664580D02*
X106683324Y-70712200D01*
X106683324Y-70712200D02*
X106778562Y-70759819D01*
X106778562Y-70759819D02*
X106969038Y-70759819D01*
X106969038Y-70759819D02*
X107064276Y-70712200D01*
X107064276Y-70712200D02*
X107111895Y-70664580D01*
X107111895Y-70664580D02*
X107159514Y-70569342D01*
X107159514Y-70569342D02*
X107159514Y-70378866D01*
X107159514Y-70378866D02*
X107111895Y-70283628D01*
X107111895Y-70283628D02*
X107064276Y-70236009D01*
X107064276Y-70236009D02*
X106969038Y-70188390D01*
%TO.C,C9*%
X26096933Y-73976580D02*
X26049314Y-74024200D01*
X26049314Y-74024200D02*
X25906457Y-74071819D01*
X25906457Y-74071819D02*
X25811219Y-74071819D01*
X25811219Y-74071819D02*
X25668362Y-74024200D01*
X25668362Y-74024200D02*
X25573124Y-73928961D01*
X25573124Y-73928961D02*
X25525505Y-73833723D01*
X25525505Y-73833723D02*
X25477886Y-73643247D01*
X25477886Y-73643247D02*
X25477886Y-73500390D01*
X25477886Y-73500390D02*
X25525505Y-73309914D01*
X25525505Y-73309914D02*
X25573124Y-73214676D01*
X25573124Y-73214676D02*
X25668362Y-73119438D01*
X25668362Y-73119438D02*
X25811219Y-73071819D01*
X25811219Y-73071819D02*
X25906457Y-73071819D01*
X25906457Y-73071819D02*
X26049314Y-73119438D01*
X26049314Y-73119438D02*
X26096933Y-73167057D01*
X26573124Y-74071819D02*
X26763600Y-74071819D01*
X26763600Y-74071819D02*
X26858838Y-74024200D01*
X26858838Y-74024200D02*
X26906457Y-73976580D01*
X26906457Y-73976580D02*
X27001695Y-73833723D01*
X27001695Y-73833723D02*
X27049314Y-73643247D01*
X27049314Y-73643247D02*
X27049314Y-73262295D01*
X27049314Y-73262295D02*
X27001695Y-73167057D01*
X27001695Y-73167057D02*
X26954076Y-73119438D01*
X26954076Y-73119438D02*
X26858838Y-73071819D01*
X26858838Y-73071819D02*
X26668362Y-73071819D01*
X26668362Y-73071819D02*
X26573124Y-73119438D01*
X26573124Y-73119438D02*
X26525505Y-73167057D01*
X26525505Y-73167057D02*
X26477886Y-73262295D01*
X26477886Y-73262295D02*
X26477886Y-73500390D01*
X26477886Y-73500390D02*
X26525505Y-73595628D01*
X26525505Y-73595628D02*
X26573124Y-73643247D01*
X26573124Y-73643247D02*
X26668362Y-73690866D01*
X26668362Y-73690866D02*
X26858838Y-73690866D01*
X26858838Y-73690866D02*
X26954076Y-73643247D01*
X26954076Y-73643247D02*
X27001695Y-73595628D01*
X27001695Y-73595628D02*
X27049314Y-73500390D01*
%TO.C,C5*%
X96207133Y-70664580D02*
X96159514Y-70712200D01*
X96159514Y-70712200D02*
X96016657Y-70759819D01*
X96016657Y-70759819D02*
X95921419Y-70759819D01*
X95921419Y-70759819D02*
X95778562Y-70712200D01*
X95778562Y-70712200D02*
X95683324Y-70616961D01*
X95683324Y-70616961D02*
X95635705Y-70521723D01*
X95635705Y-70521723D02*
X95588086Y-70331247D01*
X95588086Y-70331247D02*
X95588086Y-70188390D01*
X95588086Y-70188390D02*
X95635705Y-69997914D01*
X95635705Y-69997914D02*
X95683324Y-69902676D01*
X95683324Y-69902676D02*
X95778562Y-69807438D01*
X95778562Y-69807438D02*
X95921419Y-69759819D01*
X95921419Y-69759819D02*
X96016657Y-69759819D01*
X96016657Y-69759819D02*
X96159514Y-69807438D01*
X96159514Y-69807438D02*
X96207133Y-69855057D01*
X97111895Y-69759819D02*
X96635705Y-69759819D01*
X96635705Y-69759819D02*
X96588086Y-70236009D01*
X96588086Y-70236009D02*
X96635705Y-70188390D01*
X96635705Y-70188390D02*
X96730943Y-70140771D01*
X96730943Y-70140771D02*
X96969038Y-70140771D01*
X96969038Y-70140771D02*
X97064276Y-70188390D01*
X97064276Y-70188390D02*
X97111895Y-70236009D01*
X97111895Y-70236009D02*
X97159514Y-70331247D01*
X97159514Y-70331247D02*
X97159514Y-70569342D01*
X97159514Y-70569342D02*
X97111895Y-70664580D01*
X97111895Y-70664580D02*
X97064276Y-70712200D01*
X97064276Y-70712200D02*
X96969038Y-70759819D01*
X96969038Y-70759819D02*
X96730943Y-70759819D01*
X96730943Y-70759819D02*
X96635705Y-70712200D01*
X96635705Y-70712200D02*
X96588086Y-70664580D01*
%TO.C,R2*%
X93799533Y-48466219D02*
X93466200Y-47990028D01*
X93228105Y-48466219D02*
X93228105Y-47466219D01*
X93228105Y-47466219D02*
X93609057Y-47466219D01*
X93609057Y-47466219D02*
X93704295Y-47513838D01*
X93704295Y-47513838D02*
X93751914Y-47561457D01*
X93751914Y-47561457D02*
X93799533Y-47656695D01*
X93799533Y-47656695D02*
X93799533Y-47799552D01*
X93799533Y-47799552D02*
X93751914Y-47894790D01*
X93751914Y-47894790D02*
X93704295Y-47942409D01*
X93704295Y-47942409D02*
X93609057Y-47990028D01*
X93609057Y-47990028D02*
X93228105Y-47990028D01*
X94180486Y-47561457D02*
X94228105Y-47513838D01*
X94228105Y-47513838D02*
X94323343Y-47466219D01*
X94323343Y-47466219D02*
X94561438Y-47466219D01*
X94561438Y-47466219D02*
X94656676Y-47513838D01*
X94656676Y-47513838D02*
X94704295Y-47561457D01*
X94704295Y-47561457D02*
X94751914Y-47656695D01*
X94751914Y-47656695D02*
X94751914Y-47751933D01*
X94751914Y-47751933D02*
X94704295Y-47894790D01*
X94704295Y-47894790D02*
X94132867Y-48466219D01*
X94132867Y-48466219D02*
X94751914Y-48466219D01*
%TO.C,R6*%
X100124133Y-59185019D02*
X99790800Y-58708828D01*
X99552705Y-59185019D02*
X99552705Y-58185019D01*
X99552705Y-58185019D02*
X99933657Y-58185019D01*
X99933657Y-58185019D02*
X100028895Y-58232638D01*
X100028895Y-58232638D02*
X100076514Y-58280257D01*
X100076514Y-58280257D02*
X100124133Y-58375495D01*
X100124133Y-58375495D02*
X100124133Y-58518352D01*
X100124133Y-58518352D02*
X100076514Y-58613590D01*
X100076514Y-58613590D02*
X100028895Y-58661209D01*
X100028895Y-58661209D02*
X99933657Y-58708828D01*
X99933657Y-58708828D02*
X99552705Y-58708828D01*
X100981276Y-58185019D02*
X100790800Y-58185019D01*
X100790800Y-58185019D02*
X100695562Y-58232638D01*
X100695562Y-58232638D02*
X100647943Y-58280257D01*
X100647943Y-58280257D02*
X100552705Y-58423114D01*
X100552705Y-58423114D02*
X100505086Y-58613590D01*
X100505086Y-58613590D02*
X100505086Y-58994542D01*
X100505086Y-58994542D02*
X100552705Y-59089780D01*
X100552705Y-59089780D02*
X100600324Y-59137400D01*
X100600324Y-59137400D02*
X100695562Y-59185019D01*
X100695562Y-59185019D02*
X100886038Y-59185019D01*
X100886038Y-59185019D02*
X100981276Y-59137400D01*
X100981276Y-59137400D02*
X101028895Y-59089780D01*
X101028895Y-59089780D02*
X101076514Y-58994542D01*
X101076514Y-58994542D02*
X101076514Y-58756447D01*
X101076514Y-58756447D02*
X101028895Y-58661209D01*
X101028895Y-58661209D02*
X100981276Y-58613590D01*
X100981276Y-58613590D02*
X100886038Y-58565971D01*
X100886038Y-58565971D02*
X100695562Y-58565971D01*
X100695562Y-58565971D02*
X100600324Y-58613590D01*
X100600324Y-58613590D02*
X100552705Y-58661209D01*
X100552705Y-58661209D02*
X100505086Y-58756447D01*
%TO.C,C3*%
X104111933Y-52200980D02*
X104064314Y-52248600D01*
X104064314Y-52248600D02*
X103921457Y-52296219D01*
X103921457Y-52296219D02*
X103826219Y-52296219D01*
X103826219Y-52296219D02*
X103683362Y-52248600D01*
X103683362Y-52248600D02*
X103588124Y-52153361D01*
X103588124Y-52153361D02*
X103540505Y-52058123D01*
X103540505Y-52058123D02*
X103492886Y-51867647D01*
X103492886Y-51867647D02*
X103492886Y-51724790D01*
X103492886Y-51724790D02*
X103540505Y-51534314D01*
X103540505Y-51534314D02*
X103588124Y-51439076D01*
X103588124Y-51439076D02*
X103683362Y-51343838D01*
X103683362Y-51343838D02*
X103826219Y-51296219D01*
X103826219Y-51296219D02*
X103921457Y-51296219D01*
X103921457Y-51296219D02*
X104064314Y-51343838D01*
X104064314Y-51343838D02*
X104111933Y-51391457D01*
X104445267Y-51296219D02*
X105064314Y-51296219D01*
X105064314Y-51296219D02*
X104730981Y-51677171D01*
X104730981Y-51677171D02*
X104873838Y-51677171D01*
X104873838Y-51677171D02*
X104969076Y-51724790D01*
X104969076Y-51724790D02*
X105016695Y-51772409D01*
X105016695Y-51772409D02*
X105064314Y-51867647D01*
X105064314Y-51867647D02*
X105064314Y-52105742D01*
X105064314Y-52105742D02*
X105016695Y-52200980D01*
X105016695Y-52200980D02*
X104969076Y-52248600D01*
X104969076Y-52248600D02*
X104873838Y-52296219D01*
X104873838Y-52296219D02*
X104588124Y-52296219D01*
X104588124Y-52296219D02*
X104492886Y-52248600D01*
X104492886Y-52248600D02*
X104445267Y-52200980D01*
%TO.C,R3*%
X109369733Y-46943219D02*
X109036400Y-46467028D01*
X108798305Y-46943219D02*
X108798305Y-45943219D01*
X108798305Y-45943219D02*
X109179257Y-45943219D01*
X109179257Y-45943219D02*
X109274495Y-45990838D01*
X109274495Y-45990838D02*
X109322114Y-46038457D01*
X109322114Y-46038457D02*
X109369733Y-46133695D01*
X109369733Y-46133695D02*
X109369733Y-46276552D01*
X109369733Y-46276552D02*
X109322114Y-46371790D01*
X109322114Y-46371790D02*
X109274495Y-46419409D01*
X109274495Y-46419409D02*
X109179257Y-46467028D01*
X109179257Y-46467028D02*
X108798305Y-46467028D01*
X109703067Y-45943219D02*
X110322114Y-45943219D01*
X110322114Y-45943219D02*
X109988781Y-46324171D01*
X109988781Y-46324171D02*
X110131638Y-46324171D01*
X110131638Y-46324171D02*
X110226876Y-46371790D01*
X110226876Y-46371790D02*
X110274495Y-46419409D01*
X110274495Y-46419409D02*
X110322114Y-46514647D01*
X110322114Y-46514647D02*
X110322114Y-46752742D01*
X110322114Y-46752742D02*
X110274495Y-46847980D01*
X110274495Y-46847980D02*
X110226876Y-46895600D01*
X110226876Y-46895600D02*
X110131638Y-46943219D01*
X110131638Y-46943219D02*
X109845924Y-46943219D01*
X109845924Y-46943219D02*
X109750686Y-46895600D01*
X109750686Y-46895600D02*
X109703067Y-46847980D01*
%TO.C,C1*%
X113713133Y-45348380D02*
X113665514Y-45396000D01*
X113665514Y-45396000D02*
X113522657Y-45443619D01*
X113522657Y-45443619D02*
X113427419Y-45443619D01*
X113427419Y-45443619D02*
X113284562Y-45396000D01*
X113284562Y-45396000D02*
X113189324Y-45300761D01*
X113189324Y-45300761D02*
X113141705Y-45205523D01*
X113141705Y-45205523D02*
X113094086Y-45015047D01*
X113094086Y-45015047D02*
X113094086Y-44872190D01*
X113094086Y-44872190D02*
X113141705Y-44681714D01*
X113141705Y-44681714D02*
X113189324Y-44586476D01*
X113189324Y-44586476D02*
X113284562Y-44491238D01*
X113284562Y-44491238D02*
X113427419Y-44443619D01*
X113427419Y-44443619D02*
X113522657Y-44443619D01*
X113522657Y-44443619D02*
X113665514Y-44491238D01*
X113665514Y-44491238D02*
X113713133Y-44538857D01*
X114665514Y-45443619D02*
X114094086Y-45443619D01*
X114379800Y-45443619D02*
X114379800Y-44443619D01*
X114379800Y-44443619D02*
X114284562Y-44586476D01*
X114284562Y-44586476D02*
X114189324Y-44681714D01*
X114189324Y-44681714D02*
X114094086Y-44729333D01*
%TO.C,R9*%
X26173133Y-77094419D02*
X25839800Y-76618228D01*
X25601705Y-77094419D02*
X25601705Y-76094419D01*
X25601705Y-76094419D02*
X25982657Y-76094419D01*
X25982657Y-76094419D02*
X26077895Y-76142038D01*
X26077895Y-76142038D02*
X26125514Y-76189657D01*
X26125514Y-76189657D02*
X26173133Y-76284895D01*
X26173133Y-76284895D02*
X26173133Y-76427752D01*
X26173133Y-76427752D02*
X26125514Y-76522990D01*
X26125514Y-76522990D02*
X26077895Y-76570609D01*
X26077895Y-76570609D02*
X25982657Y-76618228D01*
X25982657Y-76618228D02*
X25601705Y-76618228D01*
X26649324Y-77094419D02*
X26839800Y-77094419D01*
X26839800Y-77094419D02*
X26935038Y-77046800D01*
X26935038Y-77046800D02*
X26982657Y-76999180D01*
X26982657Y-76999180D02*
X27077895Y-76856323D01*
X27077895Y-76856323D02*
X27125514Y-76665847D01*
X27125514Y-76665847D02*
X27125514Y-76284895D01*
X27125514Y-76284895D02*
X27077895Y-76189657D01*
X27077895Y-76189657D02*
X27030276Y-76142038D01*
X27030276Y-76142038D02*
X26935038Y-76094419D01*
X26935038Y-76094419D02*
X26744562Y-76094419D01*
X26744562Y-76094419D02*
X26649324Y-76142038D01*
X26649324Y-76142038D02*
X26601705Y-76189657D01*
X26601705Y-76189657D02*
X26554086Y-76284895D01*
X26554086Y-76284895D02*
X26554086Y-76522990D01*
X26554086Y-76522990D02*
X26601705Y-76618228D01*
X26601705Y-76618228D02*
X26649324Y-76665847D01*
X26649324Y-76665847D02*
X26744562Y-76713466D01*
X26744562Y-76713466D02*
X26935038Y-76713466D01*
X26935038Y-76713466D02*
X27030276Y-76665847D01*
X27030276Y-76665847D02*
X27077895Y-76618228D01*
X27077895Y-76618228D02*
X27125514Y-76522990D01*
%TO.C,J6*%
X70354866Y-88311819D02*
X70354866Y-89026104D01*
X70354866Y-89026104D02*
X70307247Y-89168961D01*
X70307247Y-89168961D02*
X70212009Y-89264200D01*
X70212009Y-89264200D02*
X70069152Y-89311819D01*
X70069152Y-89311819D02*
X69973914Y-89311819D01*
X71259628Y-88311819D02*
X71069152Y-88311819D01*
X71069152Y-88311819D02*
X70973914Y-88359438D01*
X70973914Y-88359438D02*
X70926295Y-88407057D01*
X70926295Y-88407057D02*
X70831057Y-88549914D01*
X70831057Y-88549914D02*
X70783438Y-88740390D01*
X70783438Y-88740390D02*
X70783438Y-89121342D01*
X70783438Y-89121342D02*
X70831057Y-89216580D01*
X70831057Y-89216580D02*
X70878676Y-89264200D01*
X70878676Y-89264200D02*
X70973914Y-89311819D01*
X70973914Y-89311819D02*
X71164390Y-89311819D01*
X71164390Y-89311819D02*
X71259628Y-89264200D01*
X71259628Y-89264200D02*
X71307247Y-89216580D01*
X71307247Y-89216580D02*
X71354866Y-89121342D01*
X71354866Y-89121342D02*
X71354866Y-88883247D01*
X71354866Y-88883247D02*
X71307247Y-88788009D01*
X71307247Y-88788009D02*
X71259628Y-88740390D01*
X71259628Y-88740390D02*
X71164390Y-88692771D01*
X71164390Y-88692771D02*
X70973914Y-88692771D01*
X70973914Y-88692771D02*
X70878676Y-88740390D01*
X70878676Y-88740390D02*
X70831057Y-88788009D01*
X70831057Y-88788009D02*
X70783438Y-88883247D01*
%TO.C,R4*%
X104188133Y-59133219D02*
X103854800Y-58657028D01*
X103616705Y-59133219D02*
X103616705Y-58133219D01*
X103616705Y-58133219D02*
X103997657Y-58133219D01*
X103997657Y-58133219D02*
X104092895Y-58180838D01*
X104092895Y-58180838D02*
X104140514Y-58228457D01*
X104140514Y-58228457D02*
X104188133Y-58323695D01*
X104188133Y-58323695D02*
X104188133Y-58466552D01*
X104188133Y-58466552D02*
X104140514Y-58561790D01*
X104140514Y-58561790D02*
X104092895Y-58609409D01*
X104092895Y-58609409D02*
X103997657Y-58657028D01*
X103997657Y-58657028D02*
X103616705Y-58657028D01*
X105045276Y-58466552D02*
X105045276Y-59133219D01*
X104807181Y-58085600D02*
X104569086Y-58799885D01*
X104569086Y-58799885D02*
X105188133Y-58799885D01*
%TO.C,C6*%
X101207133Y-70664580D02*
X101159514Y-70712200D01*
X101159514Y-70712200D02*
X101016657Y-70759819D01*
X101016657Y-70759819D02*
X100921419Y-70759819D01*
X100921419Y-70759819D02*
X100778562Y-70712200D01*
X100778562Y-70712200D02*
X100683324Y-70616961D01*
X100683324Y-70616961D02*
X100635705Y-70521723D01*
X100635705Y-70521723D02*
X100588086Y-70331247D01*
X100588086Y-70331247D02*
X100588086Y-70188390D01*
X100588086Y-70188390D02*
X100635705Y-69997914D01*
X100635705Y-69997914D02*
X100683324Y-69902676D01*
X100683324Y-69902676D02*
X100778562Y-69807438D01*
X100778562Y-69807438D02*
X100921419Y-69759819D01*
X100921419Y-69759819D02*
X101016657Y-69759819D01*
X101016657Y-69759819D02*
X101159514Y-69807438D01*
X101159514Y-69807438D02*
X101207133Y-69855057D01*
X102064276Y-69759819D02*
X101873800Y-69759819D01*
X101873800Y-69759819D02*
X101778562Y-69807438D01*
X101778562Y-69807438D02*
X101730943Y-69855057D01*
X101730943Y-69855057D02*
X101635705Y-69997914D01*
X101635705Y-69997914D02*
X101588086Y-70188390D01*
X101588086Y-70188390D02*
X101588086Y-70569342D01*
X101588086Y-70569342D02*
X101635705Y-70664580D01*
X101635705Y-70664580D02*
X101683324Y-70712200D01*
X101683324Y-70712200D02*
X101778562Y-70759819D01*
X101778562Y-70759819D02*
X101969038Y-70759819D01*
X101969038Y-70759819D02*
X102064276Y-70712200D01*
X102064276Y-70712200D02*
X102111895Y-70664580D01*
X102111895Y-70664580D02*
X102159514Y-70569342D01*
X102159514Y-70569342D02*
X102159514Y-70331247D01*
X102159514Y-70331247D02*
X102111895Y-70236009D01*
X102111895Y-70236009D02*
X102064276Y-70188390D01*
X102064276Y-70188390D02*
X101969038Y-70140771D01*
X101969038Y-70140771D02*
X101778562Y-70140771D01*
X101778562Y-70140771D02*
X101683324Y-70188390D01*
X101683324Y-70188390D02*
X101635705Y-70236009D01*
X101635705Y-70236009D02*
X101588086Y-70331247D01*
%TO.C,R5*%
X95679133Y-59210419D02*
X95345800Y-58734228D01*
X95107705Y-59210419D02*
X95107705Y-58210419D01*
X95107705Y-58210419D02*
X95488657Y-58210419D01*
X95488657Y-58210419D02*
X95583895Y-58258038D01*
X95583895Y-58258038D02*
X95631514Y-58305657D01*
X95631514Y-58305657D02*
X95679133Y-58400895D01*
X95679133Y-58400895D02*
X95679133Y-58543752D01*
X95679133Y-58543752D02*
X95631514Y-58638990D01*
X95631514Y-58638990D02*
X95583895Y-58686609D01*
X95583895Y-58686609D02*
X95488657Y-58734228D01*
X95488657Y-58734228D02*
X95107705Y-58734228D01*
X96583895Y-58210419D02*
X96107705Y-58210419D01*
X96107705Y-58210419D02*
X96060086Y-58686609D01*
X96060086Y-58686609D02*
X96107705Y-58638990D01*
X96107705Y-58638990D02*
X96202943Y-58591371D01*
X96202943Y-58591371D02*
X96441038Y-58591371D01*
X96441038Y-58591371D02*
X96536276Y-58638990D01*
X96536276Y-58638990D02*
X96583895Y-58686609D01*
X96583895Y-58686609D02*
X96631514Y-58781847D01*
X96631514Y-58781847D02*
X96631514Y-59019942D01*
X96631514Y-59019942D02*
X96583895Y-59115180D01*
X96583895Y-59115180D02*
X96536276Y-59162800D01*
X96536276Y-59162800D02*
X96441038Y-59210419D01*
X96441038Y-59210419D02*
X96202943Y-59210419D01*
X96202943Y-59210419D02*
X96107705Y-59162800D01*
X96107705Y-59162800D02*
X96060086Y-59115180D01*
%TO.C,L1*%
X102410115Y-34369270D02*
X101933872Y-34369270D01*
X101933872Y-34369270D02*
X101933872Y-33369160D01*
X103267352Y-34369270D02*
X102695861Y-34369270D01*
X102981606Y-34369270D02*
X102981606Y-33369160D01*
X102981606Y-33369160D02*
X102886358Y-33512033D01*
X102886358Y-33512033D02*
X102791109Y-33607281D01*
X102791109Y-33607281D02*
X102695861Y-33654906D01*
%TO.C,C7*%
X91234133Y-70672180D02*
X91186514Y-70719800D01*
X91186514Y-70719800D02*
X91043657Y-70767419D01*
X91043657Y-70767419D02*
X90948419Y-70767419D01*
X90948419Y-70767419D02*
X90805562Y-70719800D01*
X90805562Y-70719800D02*
X90710324Y-70624561D01*
X90710324Y-70624561D02*
X90662705Y-70529323D01*
X90662705Y-70529323D02*
X90615086Y-70338847D01*
X90615086Y-70338847D02*
X90615086Y-70195990D01*
X90615086Y-70195990D02*
X90662705Y-70005514D01*
X90662705Y-70005514D02*
X90710324Y-69910276D01*
X90710324Y-69910276D02*
X90805562Y-69815038D01*
X90805562Y-69815038D02*
X90948419Y-69767419D01*
X90948419Y-69767419D02*
X91043657Y-69767419D01*
X91043657Y-69767419D02*
X91186514Y-69815038D01*
X91186514Y-69815038D02*
X91234133Y-69862657D01*
X91567467Y-69767419D02*
X92234133Y-69767419D01*
X92234133Y-69767419D02*
X91805562Y-70767419D01*
%TO.C,U2*%
X69666895Y-45487419D02*
X69666895Y-46296942D01*
X69666895Y-46296942D02*
X69714514Y-46392180D01*
X69714514Y-46392180D02*
X69762133Y-46439800D01*
X69762133Y-46439800D02*
X69857371Y-46487419D01*
X69857371Y-46487419D02*
X70047847Y-46487419D01*
X70047847Y-46487419D02*
X70143085Y-46439800D01*
X70143085Y-46439800D02*
X70190704Y-46392180D01*
X70190704Y-46392180D02*
X70238323Y-46296942D01*
X70238323Y-46296942D02*
X70238323Y-45487419D01*
X70666895Y-45582657D02*
X70714514Y-45535038D01*
X70714514Y-45535038D02*
X70809752Y-45487419D01*
X70809752Y-45487419D02*
X71047847Y-45487419D01*
X71047847Y-45487419D02*
X71143085Y-45535038D01*
X71143085Y-45535038D02*
X71190704Y-45582657D01*
X71190704Y-45582657D02*
X71238323Y-45677895D01*
X71238323Y-45677895D02*
X71238323Y-45773133D01*
X71238323Y-45773133D02*
X71190704Y-45915990D01*
X71190704Y-45915990D02*
X70619276Y-46487419D01*
X70619276Y-46487419D02*
X71238323Y-46487419D01*
%TO.C,D1*%
X112049505Y-36365019D02*
X112049505Y-35365019D01*
X112049505Y-35365019D02*
X112287600Y-35365019D01*
X112287600Y-35365019D02*
X112430457Y-35412638D01*
X112430457Y-35412638D02*
X112525695Y-35507876D01*
X112525695Y-35507876D02*
X112573314Y-35603114D01*
X112573314Y-35603114D02*
X112620933Y-35793590D01*
X112620933Y-35793590D02*
X112620933Y-35936447D01*
X112620933Y-35936447D02*
X112573314Y-36126923D01*
X112573314Y-36126923D02*
X112525695Y-36222161D01*
X112525695Y-36222161D02*
X112430457Y-36317400D01*
X112430457Y-36317400D02*
X112287600Y-36365019D01*
X112287600Y-36365019D02*
X112049505Y-36365019D01*
X113573314Y-36365019D02*
X113001886Y-36365019D01*
X113287600Y-36365019D02*
X113287600Y-35365019D01*
X113287600Y-35365019D02*
X113192362Y-35507876D01*
X113192362Y-35507876D02*
X113097124Y-35603114D01*
X113097124Y-35603114D02*
X113001886Y-35650733D01*
%TO.C,J1*%
X108150066Y-34108219D02*
X108150066Y-34822504D01*
X108150066Y-34822504D02*
X108102447Y-34965361D01*
X108102447Y-34965361D02*
X108007209Y-35060600D01*
X108007209Y-35060600D02*
X107864352Y-35108219D01*
X107864352Y-35108219D02*
X107769114Y-35108219D01*
X109150066Y-35108219D02*
X108578638Y-35108219D01*
X108864352Y-35108219D02*
X108864352Y-34108219D01*
X108864352Y-34108219D02*
X108769114Y-34251076D01*
X108769114Y-34251076D02*
X108673876Y-34346314D01*
X108673876Y-34346314D02*
X108578638Y-34393933D01*
%TO.C,J3*%
X94530266Y-27544619D02*
X94530266Y-28258904D01*
X94530266Y-28258904D02*
X94482647Y-28401761D01*
X94482647Y-28401761D02*
X94387409Y-28497000D01*
X94387409Y-28497000D02*
X94244552Y-28544619D01*
X94244552Y-28544619D02*
X94149314Y-28544619D01*
X94911219Y-27544619D02*
X95530266Y-27544619D01*
X95530266Y-27544619D02*
X95196933Y-27925571D01*
X95196933Y-27925571D02*
X95339790Y-27925571D01*
X95339790Y-27925571D02*
X95435028Y-27973190D01*
X95435028Y-27973190D02*
X95482647Y-28020809D01*
X95482647Y-28020809D02*
X95530266Y-28116047D01*
X95530266Y-28116047D02*
X95530266Y-28354142D01*
X95530266Y-28354142D02*
X95482647Y-28449380D01*
X95482647Y-28449380D02*
X95435028Y-28497000D01*
X95435028Y-28497000D02*
X95339790Y-28544619D01*
X95339790Y-28544619D02*
X95054076Y-28544619D01*
X95054076Y-28544619D02*
X94958838Y-28497000D01*
X94958838Y-28497000D02*
X94911219Y-28449380D01*
%TO.C,SW1*%
X20840867Y-60943200D02*
X20983724Y-60990819D01*
X20983724Y-60990819D02*
X21221819Y-60990819D01*
X21221819Y-60990819D02*
X21317057Y-60943200D01*
X21317057Y-60943200D02*
X21364676Y-60895580D01*
X21364676Y-60895580D02*
X21412295Y-60800342D01*
X21412295Y-60800342D02*
X21412295Y-60705104D01*
X21412295Y-60705104D02*
X21364676Y-60609866D01*
X21364676Y-60609866D02*
X21317057Y-60562247D01*
X21317057Y-60562247D02*
X21221819Y-60514628D01*
X21221819Y-60514628D02*
X21031343Y-60467009D01*
X21031343Y-60467009D02*
X20936105Y-60419390D01*
X20936105Y-60419390D02*
X20888486Y-60371771D01*
X20888486Y-60371771D02*
X20840867Y-60276533D01*
X20840867Y-60276533D02*
X20840867Y-60181295D01*
X20840867Y-60181295D02*
X20888486Y-60086057D01*
X20888486Y-60086057D02*
X20936105Y-60038438D01*
X20936105Y-60038438D02*
X21031343Y-59990819D01*
X21031343Y-59990819D02*
X21269438Y-59990819D01*
X21269438Y-59990819D02*
X21412295Y-60038438D01*
X21745629Y-59990819D02*
X21983724Y-60990819D01*
X21983724Y-60990819D02*
X22174200Y-60276533D01*
X22174200Y-60276533D02*
X22364676Y-60990819D01*
X22364676Y-60990819D02*
X22602772Y-59990819D01*
X23507533Y-60990819D02*
X22936105Y-60990819D01*
X23221819Y-60990819D02*
X23221819Y-59990819D01*
X23221819Y-59990819D02*
X23126581Y-60133676D01*
X23126581Y-60133676D02*
X23031343Y-60228914D01*
X23031343Y-60228914D02*
X22936105Y-60276533D01*
%TO.C,Q2*%
X85654809Y-21418085D02*
X85578619Y-21379990D01*
X85578619Y-21379990D02*
X85502428Y-21303800D01*
X85502428Y-21303800D02*
X85388142Y-21189514D01*
X85388142Y-21189514D02*
X85311952Y-21151419D01*
X85311952Y-21151419D02*
X85235761Y-21151419D01*
X85273857Y-21341895D02*
X85197666Y-21303800D01*
X85197666Y-21303800D02*
X85121476Y-21227609D01*
X85121476Y-21227609D02*
X85083380Y-21075228D01*
X85083380Y-21075228D02*
X85083380Y-20808561D01*
X85083380Y-20808561D02*
X85121476Y-20656180D01*
X85121476Y-20656180D02*
X85197666Y-20579990D01*
X85197666Y-20579990D02*
X85273857Y-20541895D01*
X85273857Y-20541895D02*
X85426238Y-20541895D01*
X85426238Y-20541895D02*
X85502428Y-20579990D01*
X85502428Y-20579990D02*
X85578619Y-20656180D01*
X85578619Y-20656180D02*
X85616714Y-20808561D01*
X85616714Y-20808561D02*
X85616714Y-21075228D01*
X85616714Y-21075228D02*
X85578619Y-21227609D01*
X85578619Y-21227609D02*
X85502428Y-21303800D01*
X85502428Y-21303800D02*
X85426238Y-21341895D01*
X85426238Y-21341895D02*
X85273857Y-21341895D01*
X85921475Y-20618085D02*
X85959571Y-20579990D01*
X85959571Y-20579990D02*
X86035761Y-20541895D01*
X86035761Y-20541895D02*
X86226237Y-20541895D01*
X86226237Y-20541895D02*
X86302428Y-20579990D01*
X86302428Y-20579990D02*
X86340523Y-20618085D01*
X86340523Y-20618085D02*
X86378618Y-20694276D01*
X86378618Y-20694276D02*
X86378618Y-20770466D01*
X86378618Y-20770466D02*
X86340523Y-20884752D01*
X86340523Y-20884752D02*
X85883380Y-21341895D01*
X85883380Y-21341895D02*
X86378618Y-21341895D01*
%TO.C,Q1*%
X54810209Y-21418685D02*
X54734019Y-21380590D01*
X54734019Y-21380590D02*
X54657828Y-21304400D01*
X54657828Y-21304400D02*
X54543542Y-21190114D01*
X54543542Y-21190114D02*
X54467352Y-21152019D01*
X54467352Y-21152019D02*
X54391161Y-21152019D01*
X54429257Y-21342495D02*
X54353066Y-21304400D01*
X54353066Y-21304400D02*
X54276876Y-21228209D01*
X54276876Y-21228209D02*
X54238780Y-21075828D01*
X54238780Y-21075828D02*
X54238780Y-20809161D01*
X54238780Y-20809161D02*
X54276876Y-20656780D01*
X54276876Y-20656780D02*
X54353066Y-20580590D01*
X54353066Y-20580590D02*
X54429257Y-20542495D01*
X54429257Y-20542495D02*
X54581638Y-20542495D01*
X54581638Y-20542495D02*
X54657828Y-20580590D01*
X54657828Y-20580590D02*
X54734019Y-20656780D01*
X54734019Y-20656780D02*
X54772114Y-20809161D01*
X54772114Y-20809161D02*
X54772114Y-21075828D01*
X54772114Y-21075828D02*
X54734019Y-21228209D01*
X54734019Y-21228209D02*
X54657828Y-21304400D01*
X54657828Y-21304400D02*
X54581638Y-21342495D01*
X54581638Y-21342495D02*
X54429257Y-21342495D01*
X55534018Y-21342495D02*
X55076875Y-21342495D01*
X55305447Y-21342495D02*
X55305447Y-20542495D01*
X55305447Y-20542495D02*
X55229256Y-20656780D01*
X55229256Y-20656780D02*
X55153066Y-20732971D01*
X55153066Y-20732971D02*
X55076875Y-20771066D01*
%TO.C,C2*%
X106601133Y-44002180D02*
X106553514Y-44049800D01*
X106553514Y-44049800D02*
X106410657Y-44097419D01*
X106410657Y-44097419D02*
X106315419Y-44097419D01*
X106315419Y-44097419D02*
X106172562Y-44049800D01*
X106172562Y-44049800D02*
X106077324Y-43954561D01*
X106077324Y-43954561D02*
X106029705Y-43859323D01*
X106029705Y-43859323D02*
X105982086Y-43668847D01*
X105982086Y-43668847D02*
X105982086Y-43525990D01*
X105982086Y-43525990D02*
X106029705Y-43335514D01*
X106029705Y-43335514D02*
X106077324Y-43240276D01*
X106077324Y-43240276D02*
X106172562Y-43145038D01*
X106172562Y-43145038D02*
X106315419Y-43097419D01*
X106315419Y-43097419D02*
X106410657Y-43097419D01*
X106410657Y-43097419D02*
X106553514Y-43145038D01*
X106553514Y-43145038D02*
X106601133Y-43192657D01*
X106982086Y-43192657D02*
X107029705Y-43145038D01*
X107029705Y-43145038D02*
X107124943Y-43097419D01*
X107124943Y-43097419D02*
X107363038Y-43097419D01*
X107363038Y-43097419D02*
X107458276Y-43145038D01*
X107458276Y-43145038D02*
X107505895Y-43192657D01*
X107505895Y-43192657D02*
X107553514Y-43287895D01*
X107553514Y-43287895D02*
X107553514Y-43383133D01*
X107553514Y-43383133D02*
X107505895Y-43525990D01*
X107505895Y-43525990D02*
X106934467Y-44097419D01*
X106934467Y-44097419D02*
X107553514Y-44097419D01*
%TO.C,R1*%
X93699833Y-44682619D02*
X93366500Y-44206428D01*
X93128405Y-44682619D02*
X93128405Y-43682619D01*
X93128405Y-43682619D02*
X93509357Y-43682619D01*
X93509357Y-43682619D02*
X93604595Y-43730238D01*
X93604595Y-43730238D02*
X93652214Y-43777857D01*
X93652214Y-43777857D02*
X93699833Y-43873095D01*
X93699833Y-43873095D02*
X93699833Y-44015952D01*
X93699833Y-44015952D02*
X93652214Y-44111190D01*
X93652214Y-44111190D02*
X93604595Y-44158809D01*
X93604595Y-44158809D02*
X93509357Y-44206428D01*
X93509357Y-44206428D02*
X93128405Y-44206428D01*
X94652214Y-44682619D02*
X94080786Y-44682619D01*
X94366500Y-44682619D02*
X94366500Y-43682619D01*
X94366500Y-43682619D02*
X94271262Y-43825476D01*
X94271262Y-43825476D02*
X94176024Y-43920714D01*
X94176024Y-43920714D02*
X94080786Y-43968333D01*
%TO.C,U4*%
X39644095Y-45487419D02*
X39644095Y-46296942D01*
X39644095Y-46296942D02*
X39691714Y-46392180D01*
X39691714Y-46392180D02*
X39739333Y-46439800D01*
X39739333Y-46439800D02*
X39834571Y-46487419D01*
X39834571Y-46487419D02*
X40025047Y-46487419D01*
X40025047Y-46487419D02*
X40120285Y-46439800D01*
X40120285Y-46439800D02*
X40167904Y-46392180D01*
X40167904Y-46392180D02*
X40215523Y-46296942D01*
X40215523Y-46296942D02*
X40215523Y-45487419D01*
X41120285Y-45820752D02*
X41120285Y-46487419D01*
X40882190Y-45439800D02*
X40644095Y-46154085D01*
X40644095Y-46154085D02*
X41263142Y-46154085D01*
%TO.C,U1*%
X101329199Y-43247636D02*
X101329199Y-44060449D01*
X101329199Y-44060449D02*
X101377012Y-44156074D01*
X101377012Y-44156074D02*
X101424824Y-44203887D01*
X101424824Y-44203887D02*
X101520449Y-44251699D01*
X101520449Y-44251699D02*
X101711699Y-44251699D01*
X101711699Y-44251699D02*
X101807324Y-44203887D01*
X101807324Y-44203887D02*
X101855137Y-44156074D01*
X101855137Y-44156074D02*
X101902949Y-44060449D01*
X101902949Y-44060449D02*
X101902949Y-43247636D01*
X102907013Y-44251699D02*
X102333263Y-44251699D01*
X102620138Y-44251699D02*
X102620138Y-43247636D01*
X102620138Y-43247636D02*
X102524513Y-43391074D01*
X102524513Y-43391074D02*
X102428888Y-43486699D01*
X102428888Y-43486699D02*
X102333263Y-43534511D01*
%TO.C,C4*%
X93697933Y-41069780D02*
X93650314Y-41117400D01*
X93650314Y-41117400D02*
X93507457Y-41165019D01*
X93507457Y-41165019D02*
X93412219Y-41165019D01*
X93412219Y-41165019D02*
X93269362Y-41117400D01*
X93269362Y-41117400D02*
X93174124Y-41022161D01*
X93174124Y-41022161D02*
X93126505Y-40926923D01*
X93126505Y-40926923D02*
X93078886Y-40736447D01*
X93078886Y-40736447D02*
X93078886Y-40593590D01*
X93078886Y-40593590D02*
X93126505Y-40403114D01*
X93126505Y-40403114D02*
X93174124Y-40307876D01*
X93174124Y-40307876D02*
X93269362Y-40212638D01*
X93269362Y-40212638D02*
X93412219Y-40165019D01*
X93412219Y-40165019D02*
X93507457Y-40165019D01*
X93507457Y-40165019D02*
X93650314Y-40212638D01*
X93650314Y-40212638D02*
X93697933Y-40260257D01*
X94555076Y-40498352D02*
X94555076Y-41165019D01*
X94316981Y-40117400D02*
X94078886Y-40831685D01*
X94078886Y-40831685D02*
X94697933Y-40831685D01*
D11*
%TO.C,U3*%
X93554400Y-65031200D02*
X93554400Y-68481200D01*
X93554400Y-65031200D02*
X93554400Y-63081200D01*
X103674400Y-65031200D02*
X103674400Y-66981200D01*
X103674400Y-65031200D02*
X103674400Y-63081200D01*
%TO.C,R7*%
X68086500Y-80750142D02*
X68086500Y-81224658D01*
X67041500Y-80750142D02*
X67041500Y-81224658D01*
%TO.C,J4*%
X79975000Y-88253900D02*
X110945000Y-88253900D01*
X79975000Y-100593900D02*
X79975000Y-88253900D01*
X100750000Y-87359562D02*
X101250000Y-87359562D01*
X101000000Y-87792575D02*
X100750000Y-87359562D01*
X101250000Y-87359562D02*
X101000000Y-87792575D01*
X110945000Y-88253900D02*
X110945000Y-100593900D01*
%TO.C,J5*%
X64632800Y-92351200D02*
X64632800Y-89941200D01*
X64632800Y-89941200D02*
X62222800Y-89941200D01*
X64332800Y-95361200D02*
X64332800Y-90241200D01*
X64332800Y-90241200D02*
X57712800Y-90241200D01*
X57712800Y-90241200D02*
X56712800Y-91241200D01*
X56712800Y-95361200D02*
X64332800Y-95361200D01*
X56712800Y-91241200D02*
X56712800Y-95361200D01*
%TO.C,R8*%
X65521100Y-80750142D02*
X65521100Y-81224658D01*
X64476100Y-80750142D02*
X64476100Y-81224658D01*
%TO.C,C8*%
X106233220Y-71217200D02*
X106514380Y-71217200D01*
X106233220Y-72237200D02*
X106514380Y-72237200D01*
%TO.C,C9*%
X23379820Y-73048400D02*
X23660980Y-73048400D01*
X23379820Y-74068400D02*
X23660980Y-74068400D01*
%TO.C,C5*%
X96233220Y-71217200D02*
X96514380Y-71217200D01*
X96233220Y-72237200D02*
X96514380Y-72237200D01*
%TO.C,R2*%
X94093564Y-50389600D02*
X93639436Y-50389600D01*
X94093564Y-48919600D02*
X93639436Y-48919600D01*
%TO.C,R6*%
X99913236Y-56285600D02*
X100367364Y-56285600D01*
X99913236Y-57755600D02*
X100367364Y-57755600D01*
%TO.C,C3*%
X104017348Y-52778600D02*
X104539852Y-52778600D01*
X104017348Y-54248600D02*
X104539852Y-54248600D01*
%TO.C,R3*%
X109309336Y-47395600D02*
X109763464Y-47395600D01*
X109309336Y-48865600D02*
X109763464Y-48865600D01*
%TO.C,C1*%
X115366800Y-47419348D02*
X115366800Y-48841852D01*
X112646800Y-47419348D02*
X112646800Y-48841852D01*
%TO.C,R9*%
X23808458Y-77052700D02*
X23333942Y-77052700D01*
X23808458Y-76007700D02*
X23333942Y-76007700D01*
%TO.C,J6*%
X74640400Y-92351200D02*
X74640400Y-89941200D01*
X74640400Y-89941200D02*
X72230400Y-89941200D01*
X74340400Y-95361200D02*
X74340400Y-90241200D01*
X74340400Y-90241200D02*
X67720400Y-90241200D01*
X67720400Y-90241200D02*
X66720400Y-91241200D01*
X66720400Y-95361200D02*
X74340400Y-95361200D01*
X66720400Y-91241200D02*
X66720400Y-95361200D01*
%TO.C,R4*%
X104581864Y-57755600D02*
X104127736Y-57755600D01*
X104581864Y-56285600D02*
X104127736Y-56285600D01*
%TO.C,C6*%
X101233220Y-71217200D02*
X101514380Y-71217200D01*
X101233220Y-72237200D02*
X101514380Y-72237200D01*
%TO.C,R5*%
X95519036Y-56285600D02*
X95973164Y-56285600D01*
X95519036Y-57755600D02*
X95973164Y-57755600D01*
D12*
%TO.C,L1*%
X106023600Y-41827800D02*
X98723600Y-41827800D01*
X106023600Y-39827800D02*
X106023600Y-41827800D01*
X106023600Y-37027800D02*
X106023600Y-35027800D01*
X106023600Y-35027800D02*
X98723600Y-35027800D01*
X98723600Y-41827800D02*
X98723600Y-39827800D01*
X98723600Y-35027800D02*
X98723600Y-37027800D01*
X106573600Y-40127800D02*
G75*
G03*
X106573600Y-40127800I-100000J0D01*
G01*
D11*
%TO.C,C7*%
X91514380Y-72237200D02*
X91233220Y-72237200D01*
X91514380Y-71217200D02*
X91233220Y-71217200D01*
%TO.C,U2*%
X59848800Y-22954800D02*
X59848800Y-23374800D01*
X59848800Y-25494800D02*
X59848800Y-25914800D01*
X59848800Y-28034800D02*
X59848800Y-28454800D01*
X59848800Y-30574800D02*
X59848800Y-30994800D01*
X59848800Y-33114800D02*
X59848800Y-33534800D01*
X59848800Y-35654800D02*
X59848800Y-36074800D01*
X59848800Y-38194800D02*
X59848800Y-38614800D01*
X59848800Y-40734800D02*
X59848800Y-41154800D01*
X59848800Y-43274800D02*
X59848800Y-43694800D01*
X59848800Y-45814800D02*
X59848800Y-46234800D01*
X59848800Y-48354800D02*
X59848800Y-48774800D01*
X59848800Y-50894800D02*
X59848800Y-51314800D01*
X59848800Y-53434800D02*
X59848800Y-53854800D01*
X59848800Y-55974800D02*
X59848800Y-56394800D01*
X59848800Y-58514800D02*
X59848800Y-58934800D01*
X59848800Y-61054800D02*
X59848800Y-61474800D01*
X59848800Y-63594800D02*
X59848800Y-64014800D01*
X59848800Y-66134800D02*
X59848800Y-66554800D01*
X59848800Y-68674800D02*
X59848800Y-69094800D01*
X60408800Y-20464800D02*
X66598800Y-20464800D01*
X60408800Y-71584800D02*
X66808800Y-71584800D01*
X66598800Y-20464800D02*
X60408800Y-20464800D01*
X68928800Y-71584800D02*
X69348800Y-71584800D01*
X71468800Y-71584800D02*
X71888800Y-71584800D01*
X74008800Y-71584800D02*
X80408800Y-71584800D01*
X80408800Y-20464800D02*
X74218800Y-20464800D01*
X80968800Y-22954800D02*
X80968800Y-23374800D01*
X80968800Y-25494800D02*
X80968800Y-25914800D01*
X80968800Y-28034800D02*
X80968800Y-28454800D01*
X80968800Y-30574800D02*
X80968800Y-30994800D01*
X80968800Y-33114800D02*
X80968800Y-33534800D01*
X80968800Y-35654800D02*
X80968800Y-36074800D01*
X80968800Y-38194800D02*
X80968800Y-38614800D01*
X80968800Y-40734800D02*
X80968800Y-41154800D01*
X80968800Y-43274800D02*
X80968800Y-43694800D01*
X80968800Y-45814800D02*
X80968800Y-46234800D01*
X80968800Y-48354800D02*
X80968800Y-48774800D01*
X80968800Y-50894800D02*
X80968800Y-51314800D01*
X80968800Y-53434800D02*
X80968800Y-53854800D01*
X80968800Y-55974800D02*
X80968800Y-56394800D01*
X80968800Y-58514800D02*
X80968800Y-58934800D01*
X80968800Y-61054800D02*
X80968800Y-61474800D01*
X80968800Y-63594800D02*
X80968800Y-64014800D01*
X80968800Y-66134800D02*
X80968800Y-66554800D01*
X80968800Y-68674800D02*
X80968800Y-69094800D01*
X60408800Y-20464801D02*
G75*
G03*
X59878801Y-20834800I-1771J-562057D01*
G01*
X59878801Y-71214800D02*
G75*
G03*
X60408800Y-71584799I528226J192055D01*
G01*
X80938763Y-20834814D02*
G75*
G03*
X80408800Y-20464801I-528263J-192086D01*
G01*
X80408800Y-71584772D02*
G75*
G03*
X80938799Y-71214800I1700J562172D01*
G01*
X65748800Y-69524800D02*
G75*
G03*
X65748800Y-69524800I-1050000J0D01*
G01*
X65778800Y-22514800D02*
G75*
G03*
X65778800Y-22514800I-1050000J0D01*
G01*
X77158800Y-22554800D02*
G75*
G03*
X77158800Y-22554800I-1050000J0D01*
G01*
X77208800Y-69504800D02*
G75*
G03*
X77208800Y-69504800I-1050000J0D01*
G01*
%TO.C,D1*%
X109277600Y-36752400D02*
X109277600Y-40052400D01*
X109277600Y-36752400D02*
X114787600Y-36752400D01*
X109277600Y-40052400D02*
X114787600Y-40052400D01*
%TO.C,J1*%
X113281800Y-32979400D02*
X113281800Y-31679400D01*
X112981800Y-32679400D02*
X110981800Y-32679400D01*
X112981800Y-18179400D02*
X112981800Y-32679400D01*
X111581800Y-32979400D02*
X113281800Y-32979400D01*
X105781800Y-32679400D02*
X103781800Y-32679400D01*
X103781800Y-32679400D02*
X103781800Y-31379400D01*
X103781800Y-26779400D02*
X103781800Y-18179400D01*
X103781800Y-18179400D02*
X112981800Y-18179400D01*
%TO.C,J3*%
X91114600Y-23818000D02*
X91114600Y-26228000D01*
X91114600Y-26228000D02*
X93524600Y-26228000D01*
X91414600Y-20808000D02*
X91414600Y-25928000D01*
X91414600Y-25928000D02*
X98034600Y-25928000D01*
X98034600Y-25928000D02*
X99034600Y-24928000D01*
X99034600Y-20808000D02*
X91414600Y-20808000D01*
X99034600Y-24928000D02*
X99034600Y-20808000D01*
%TO.C,SW1*%
X20352200Y-69739000D02*
X23802200Y-69739000D01*
X26642200Y-69739000D02*
X26842200Y-69739000D01*
X26842200Y-68949000D02*
X26842200Y-69739000D01*
X26842200Y-68949000D02*
X26592200Y-68949000D01*
X24292200Y-68359000D02*
X24292200Y-63579000D01*
X26842200Y-62989000D02*
X26592200Y-62989000D01*
X20352200Y-62199000D02*
X20352200Y-69739000D01*
X23802200Y-62199000D02*
X20352200Y-62199000D01*
X26642200Y-62199000D02*
X26842200Y-62199000D01*
X26842200Y-62199000D02*
X26842200Y-62989000D01*
D13*
%TO.C,Q2*%
X85161000Y-21969800D02*
X86561000Y-21969800D01*
X86561000Y-21969800D02*
X86561000Y-22889800D01*
X86561000Y-24149800D02*
X86561000Y-25069800D01*
X86561000Y-25069800D02*
X85161000Y-25069800D01*
D12*
X83861000Y-22604800D02*
G75*
G03*
X83861000Y-22604800I-100000J0D01*
G01*
D13*
%TO.C,Q1*%
X54316400Y-21970400D02*
X55716400Y-21970400D01*
X55716400Y-21970400D02*
X55716400Y-22890400D01*
X55716400Y-24150400D02*
X55716400Y-25070400D01*
X55716400Y-25070400D02*
X54316400Y-25070400D01*
D12*
X53016400Y-22605400D02*
G75*
G03*
X53016400Y-22605400I-100000J0D01*
G01*
D11*
%TO.C,C2*%
X109351348Y-42696600D02*
X109873852Y-42696600D01*
X109351348Y-44166600D02*
X109873852Y-44166600D01*
%TO.C,R1*%
X93639436Y-45135000D02*
X94093564Y-45135000D01*
X93639436Y-46605000D02*
X94093564Y-46605000D01*
%TO.C,U4*%
X29826000Y-22954800D02*
X29826000Y-23374800D01*
X29826000Y-25494800D02*
X29826000Y-25914800D01*
X29826000Y-28034800D02*
X29826000Y-28454800D01*
X29826000Y-30574800D02*
X29826000Y-30994800D01*
X29826000Y-33114800D02*
X29826000Y-33534800D01*
X29826000Y-35654800D02*
X29826000Y-36074800D01*
X29826000Y-38194800D02*
X29826000Y-38614800D01*
X29826000Y-40734800D02*
X29826000Y-41154800D01*
X29826000Y-43274800D02*
X29826000Y-43694800D01*
X29826000Y-45814800D02*
X29826000Y-46234800D01*
X29826000Y-48354800D02*
X29826000Y-48774800D01*
X29826000Y-50894800D02*
X29826000Y-51314800D01*
X29826000Y-53434800D02*
X29826000Y-53854800D01*
X29826000Y-55974800D02*
X29826000Y-56394800D01*
X29826000Y-58514800D02*
X29826000Y-58934800D01*
X29826000Y-61054800D02*
X29826000Y-61474800D01*
X29826000Y-63594800D02*
X29826000Y-64014800D01*
X29826000Y-66134800D02*
X29826000Y-66554800D01*
X29826000Y-68674800D02*
X29826000Y-69094800D01*
X29856000Y-71564800D02*
X29856000Y-95294800D01*
X30386000Y-20464800D02*
X36576000Y-20464800D01*
X30386000Y-95664800D02*
X36786000Y-95664800D01*
X36576000Y-20464800D02*
X30386000Y-20464800D01*
X38906000Y-95664800D02*
X39326000Y-95664800D01*
X41446000Y-95664800D02*
X41866000Y-95664800D01*
X43986000Y-95664800D02*
X50386000Y-95664800D01*
X50386000Y-20464800D02*
X44196000Y-20464800D01*
X50916000Y-71564800D02*
X50916000Y-95294800D01*
X50946000Y-22954800D02*
X50946000Y-23374800D01*
X50946000Y-25494800D02*
X50946000Y-25914800D01*
X50946000Y-28034800D02*
X50946000Y-28454800D01*
X50946000Y-30574800D02*
X50946000Y-30994800D01*
X50946000Y-33114800D02*
X50946000Y-33534800D01*
X50946000Y-35654800D02*
X50946000Y-36074800D01*
X50946000Y-38194800D02*
X50946000Y-38614800D01*
X50946000Y-40734800D02*
X50946000Y-41154800D01*
X50946000Y-43274800D02*
X50946000Y-43694800D01*
X50946000Y-45814800D02*
X50946000Y-46234800D01*
X50946000Y-48354800D02*
X50946000Y-48774800D01*
X50946000Y-50894800D02*
X50946000Y-51314800D01*
X50946000Y-53434800D02*
X50946000Y-53854800D01*
X50946000Y-55974800D02*
X50946000Y-56394800D01*
X50946000Y-58514800D02*
X50946000Y-58934800D01*
X50946000Y-61054800D02*
X50946000Y-61474800D01*
X50946000Y-63594800D02*
X50946000Y-64014800D01*
X50946000Y-66134800D02*
X50946000Y-66554800D01*
X50946000Y-68674800D02*
X50946000Y-69094800D01*
X30386000Y-20464801D02*
G75*
G03*
X29856000Y-20834800I-1770J-562059D01*
G01*
X29856001Y-95294800D02*
G75*
G03*
X30386000Y-95664799I528226J192055D01*
G01*
X50916025Y-20834791D02*
G75*
G03*
X50386000Y-20464801I-528325J-192209D01*
G01*
X50386000Y-95664867D02*
G75*
G03*
X50915999Y-95294800I1600J562267D01*
G01*
X35756000Y-22514800D02*
G75*
G03*
X35756000Y-22514800I-1050000J0D01*
G01*
X47136000Y-22554800D02*
G75*
G03*
X47136000Y-22554800I-1050000J0D01*
G01*
D13*
%TO.C,U1*%
X100322800Y-45120800D02*
X100322800Y-45220800D01*
X100322800Y-45120800D02*
X104322800Y-45120800D01*
X100322800Y-50020800D02*
X100322800Y-50120800D01*
X100322800Y-50120800D02*
X104322800Y-50120800D01*
X104322800Y-45120800D02*
X104322800Y-45220800D01*
X104322800Y-50020800D02*
X104322800Y-50120800D01*
D12*
X99755800Y-44880800D02*
G75*
G03*
X99755800Y-44880800I-100000J0D01*
G01*
D11*
%TO.C,C4*%
X94575852Y-39762400D02*
X93153348Y-39762400D01*
X94575852Y-37042400D02*
X93153348Y-37042400D01*
%TD*%
M02*
