%TF.GenerationSoftware,KiCad,Pcbnew,7.0.2*%
%TF.CreationDate,2023-05-08T05:26:30+09:00*%
%TF.ProjectId,pcb,7063622e-6b69-4636-9164-5f7063625858,rev?*%
%TF.SameCoordinates,Original*%
%TF.FileFunction,Legend,Top*%
%TF.FilePolarity,Positive*%
%FSLAX46Y46*%
G04 Gerber Fmt 4.6, Leading zero omitted, Abs format (unit mm)*
G04 Created by KiCad (PCBNEW 7.0.2) date 2023-05-08 05:26:30*
%MOMM*%
%LPD*%
G01*
G04 APERTURE LIST*
G04 Aperture macros list*
%AMRoundRect*
0 Rectangle with rounded corners*
0 $1 Rounding radius*
0 $2 $3 $4 $5 $6 $7 $8 $9 X,Y pos of 4 corners*
0 Add a 4 corners polygon primitive as box body*
4,1,4,$2,$3,$4,$5,$6,$7,$8,$9,$2,$3,0*
0 Add four circle primitives for the rounded corners*
1,1,$1+$1,$2,$3*
1,1,$1+$1,$4,$5*
1,1,$1+$1,$6,$7*
1,1,$1+$1,$8,$9*
0 Add four rect primitives between the rounded corners*
20,1,$1+$1,$2,$3,$4,$5,0*
20,1,$1+$1,$4,$5,$6,$7,0*
20,1,$1+$1,$6,$7,$8,$9,0*
20,1,$1+$1,$8,$9,$2,$3,0*%
%AMFreePoly0*
4,1,58,1.881242,0.792533,1.914585,0.788777,1.924216,0.782725,1.935306,0.780194,1.961541,0.759271,1.989950,0.741421,2.341421,0.389950,2.359271,0.361541,2.380194,0.335306,2.382725,0.324216,2.388777,0.314585,2.392533,0.281242,2.400000,0.248529,2.400000,-0.248529,2.392533,-0.281242,2.388777,-0.314585,2.382725,-0.324216,2.380194,-0.335306,2.359271,-0.361541,2.341421,-0.389950,
1.989950,-0.741421,1.961541,-0.759271,1.935306,-0.780194,1.924216,-0.782725,1.914585,-0.788777,1.881242,-0.792533,1.848529,-0.800000,0.000000,-0.800000,-0.248529,-0.800000,-0.281242,-0.792533,-0.314585,-0.788777,-0.324216,-0.782725,-0.335306,-0.780194,-0.361541,-0.759271,-0.389950,-0.741421,-0.741421,-0.389950,-0.759271,-0.361541,-0.780194,-0.335306,-0.782725,-0.324216,-0.788777,-0.314585,
-0.792533,-0.281242,-0.800000,-0.248529,-0.800000,0.248529,-0.792533,0.281242,-0.788777,0.314585,-0.782725,0.324216,-0.780194,0.335306,-0.759271,0.361541,-0.741421,0.389950,-0.389950,0.741421,-0.361541,0.759271,-0.335306,0.780194,-0.324216,0.782725,-0.314585,0.788777,-0.281242,0.792533,-0.248529,0.800000,1.848529,0.800000,1.881242,0.792533,1.881242,0.792533,$1*%
%AMFreePoly1*
4,1,58,0.281242,0.792533,0.314585,0.788777,0.324216,0.782725,0.335306,0.780194,0.361541,0.759271,0.389950,0.741421,0.741421,0.389950,0.759271,0.361541,0.780194,0.335306,0.782725,0.324216,0.788777,0.314585,0.792533,0.281242,0.800000,0.248529,0.800000,-0.248529,0.792533,-0.281242,0.788777,-0.314585,0.782725,-0.324216,0.780194,-0.335306,0.759271,-0.361541,0.741421,-0.389950,
0.389950,-0.741421,0.361541,-0.759271,0.335306,-0.780194,0.324216,-0.782725,0.314585,-0.788777,0.281242,-0.792533,0.248529,-0.800000,0.000000,-0.800000,-0.248529,-0.800000,-0.281242,-0.792533,-0.314585,-0.788777,-0.324216,-0.782725,-0.335306,-0.780194,-0.361541,-0.759271,-0.389950,-0.741421,-0.741421,-0.389950,-0.759271,-0.361541,-0.780194,-0.335306,-0.782725,-0.324216,-0.788777,-0.314585,
-0.792533,-0.281242,-0.800000,-0.248529,-0.800000,0.248529,-0.792533,0.281242,-0.788777,0.314585,-0.782725,0.324216,-0.780194,0.335306,-0.759271,0.361541,-0.741421,0.389950,-0.389950,0.741421,-0.361541,0.759271,-0.335306,0.780194,-0.324216,0.782725,-0.314585,0.788777,-0.281242,0.792533,-0.248529,0.800000,0.248529,0.800000,0.281242,0.792533,0.281242,0.792533,$1*%
G04 Aperture macros list end*
%ADD10C,0.150000*%
%ADD11C,0.127000*%
%ADD12C,0.200000*%
%ADD13C,0.120000*%
%ADD14RoundRect,0.096000X-0.889000X-0.204000X0.889000X-0.204000X0.889000X0.204000X-0.889000X0.204000X0*%
%ADD15RoundRect,0.096000X-1.126000X-0.204000X1.126000X-0.204000X1.126000X0.204000X-1.126000X0.204000X0*%
%ADD16R,2.410000X4.698000*%
%ADD17RoundRect,0.150000X0.150000X-0.725000X0.150000X0.725000X-0.150000X0.725000X-0.150000X-0.725000X0*%
%ADD18RoundRect,0.200000X-0.275000X0.200000X-0.275000X-0.200000X0.275000X-0.200000X0.275000X0.200000X0*%
%ADD19C,1.600000*%
%ADD20R,1.600000X1.600000*%
%ADD21C,4.000000*%
%ADD22R,1.800000X1.800000*%
%ADD23C,1.800000*%
%ADD24RoundRect,0.225000X-0.225000X-0.250000X0.225000X-0.250000X0.225000X0.250000X-0.225000X0.250000X0*%
%ADD25RoundRect,0.250000X0.262500X0.450000X-0.262500X0.450000X-0.262500X-0.450000X0.262500X-0.450000X0*%
%ADD26RoundRect,0.250000X-0.262500X-0.450000X0.262500X-0.450000X0.262500X0.450000X-0.262500X0.450000X0*%
%ADD27RoundRect,0.250000X-0.250000X-0.475000X0.250000X-0.475000X0.250000X0.475000X-0.250000X0.475000X0*%
%ADD28RoundRect,0.250000X-1.100000X0.325000X-1.100000X-0.325000X1.100000X-0.325000X1.100000X0.325000X0*%
%ADD29RoundRect,0.200000X0.200000X0.275000X-0.200000X0.275000X-0.200000X-0.275000X0.200000X-0.275000X0*%
%ADD30R,2.450000X2.100000*%
%ADD31RoundRect,0.225000X0.225000X0.250000X-0.225000X0.250000X-0.225000X-0.250000X0.225000X-0.250000X0*%
%ADD32FreePoly0,0.000000*%
%ADD33FreePoly1,0.000000*%
%ADD34O,3.200000X1.600000*%
%ADD35RoundRect,0.200000X-1.400000X-0.600000X1.400000X-0.600000X1.400000X0.600000X-1.400000X0.600000X0*%
%ADD36RoundRect,0.200000X-0.600000X-0.600000X0.600000X-0.600000X0.600000X0.600000X-0.600000X0.600000X0*%
%ADD37RoundRect,0.250000X-1.000000X-0.650000X1.000000X-0.650000X1.000000X0.650000X-1.000000X0.650000X0*%
%ADD38R,4.600000X2.000000*%
%ADD39O,4.200000X2.000000*%
%ADD40O,2.000000X4.200000*%
%ADD41RoundRect,0.250000X-0.600000X-0.675000X0.600000X-0.675000X0.600000X0.675000X-0.600000X0.675000X0*%
%ADD42O,1.700000X1.850000*%
%ADD43C,2.400000*%
%ADD44C,1.700000*%
%ADD45RoundRect,0.048800X-0.541200X-0.256200X0.541200X-0.256200X0.541200X0.256200X-0.541200X0.256200X0*%
%ADD46RoundRect,0.250000X0.325000X1.100000X-0.325000X1.100000X-0.325000X-1.100000X0.325000X-1.100000X0*%
G04 APERTURE END LIST*
D10*
X59889523Y-92857619D02*
X59556190Y-92381428D01*
X59318095Y-92857619D02*
X59318095Y-91857619D01*
X59318095Y-91857619D02*
X59699047Y-91857619D01*
X59699047Y-91857619D02*
X59794285Y-91905238D01*
X59794285Y-91905238D02*
X59841904Y-91952857D01*
X59841904Y-91952857D02*
X59889523Y-92048095D01*
X59889523Y-92048095D02*
X59889523Y-92190952D01*
X59889523Y-92190952D02*
X59841904Y-92286190D01*
X59841904Y-92286190D02*
X59794285Y-92333809D01*
X59794285Y-92333809D02*
X59699047Y-92381428D01*
X59699047Y-92381428D02*
X59318095Y-92381428D01*
X60460952Y-92857619D02*
X60365714Y-92810000D01*
X60365714Y-92810000D02*
X60318095Y-92762380D01*
X60318095Y-92762380D02*
X60270476Y-92667142D01*
X60270476Y-92667142D02*
X60270476Y-92381428D01*
X60270476Y-92381428D02*
X60318095Y-92286190D01*
X60318095Y-92286190D02*
X60365714Y-92238571D01*
X60365714Y-92238571D02*
X60460952Y-92190952D01*
X60460952Y-92190952D02*
X60603809Y-92190952D01*
X60603809Y-92190952D02*
X60699047Y-92238571D01*
X60699047Y-92238571D02*
X60746666Y-92286190D01*
X60746666Y-92286190D02*
X60794285Y-92381428D01*
X60794285Y-92381428D02*
X60794285Y-92667142D01*
X60794285Y-92667142D02*
X60746666Y-92762380D01*
X60746666Y-92762380D02*
X60699047Y-92810000D01*
X60699047Y-92810000D02*
X60603809Y-92857619D01*
X60603809Y-92857619D02*
X60460952Y-92857619D01*
X61222857Y-92857619D02*
X61222857Y-91857619D01*
X61222857Y-92238571D02*
X61318095Y-92190952D01*
X61318095Y-92190952D02*
X61508571Y-92190952D01*
X61508571Y-92190952D02*
X61603809Y-92238571D01*
X61603809Y-92238571D02*
X61651428Y-92286190D01*
X61651428Y-92286190D02*
X61699047Y-92381428D01*
X61699047Y-92381428D02*
X61699047Y-92667142D01*
X61699047Y-92667142D02*
X61651428Y-92762380D01*
X61651428Y-92762380D02*
X61603809Y-92810000D01*
X61603809Y-92810000D02*
X61508571Y-92857619D01*
X61508571Y-92857619D02*
X61318095Y-92857619D01*
X61318095Y-92857619D02*
X61222857Y-92810000D01*
X62270476Y-92857619D02*
X62175238Y-92810000D01*
X62175238Y-92810000D02*
X62127619Y-92762380D01*
X62127619Y-92762380D02*
X62080000Y-92667142D01*
X62080000Y-92667142D02*
X62080000Y-92381428D01*
X62080000Y-92381428D02*
X62127619Y-92286190D01*
X62127619Y-92286190D02*
X62175238Y-92238571D01*
X62175238Y-92238571D02*
X62270476Y-92190952D01*
X62270476Y-92190952D02*
X62413333Y-92190952D01*
X62413333Y-92190952D02*
X62508571Y-92238571D01*
X62508571Y-92238571D02*
X62556190Y-92286190D01*
X62556190Y-92286190D02*
X62603809Y-92381428D01*
X62603809Y-92381428D02*
X62603809Y-92667142D01*
X62603809Y-92667142D02*
X62556190Y-92762380D01*
X62556190Y-92762380D02*
X62508571Y-92810000D01*
X62508571Y-92810000D02*
X62413333Y-92857619D01*
X62413333Y-92857619D02*
X62270476Y-92857619D01*
X62889524Y-92190952D02*
X63270476Y-92190952D01*
X63032381Y-91857619D02*
X63032381Y-92714761D01*
X63032381Y-92714761D02*
X63080000Y-92810000D01*
X63080000Y-92810000D02*
X63175238Y-92857619D01*
X63175238Y-92857619D02*
X63270476Y-92857619D01*
X64032381Y-92190952D02*
X64032381Y-92857619D01*
X63603810Y-92190952D02*
X63603810Y-92714761D01*
X63603810Y-92714761D02*
X63651429Y-92810000D01*
X63651429Y-92810000D02*
X63746667Y-92857619D01*
X63746667Y-92857619D02*
X63889524Y-92857619D01*
X63889524Y-92857619D02*
X63984762Y-92810000D01*
X63984762Y-92810000D02*
X64032381Y-92762380D01*
X64460953Y-92810000D02*
X64556191Y-92857619D01*
X64556191Y-92857619D02*
X64746667Y-92857619D01*
X64746667Y-92857619D02*
X64841905Y-92810000D01*
X64841905Y-92810000D02*
X64889524Y-92714761D01*
X64889524Y-92714761D02*
X64889524Y-92667142D01*
X64889524Y-92667142D02*
X64841905Y-92571904D01*
X64841905Y-92571904D02*
X64746667Y-92524285D01*
X64746667Y-92524285D02*
X64603810Y-92524285D01*
X64603810Y-92524285D02*
X64508572Y-92476666D01*
X64508572Y-92476666D02*
X64460953Y-92381428D01*
X64460953Y-92381428D02*
X64460953Y-92333809D01*
X64460953Y-92333809D02*
X64508572Y-92238571D01*
X64508572Y-92238571D02*
X64603810Y-92190952D01*
X64603810Y-92190952D02*
X64746667Y-92190952D01*
X64746667Y-92190952D02*
X64841905Y-92238571D01*
X65984763Y-92190952D02*
X66222858Y-92857619D01*
X66222858Y-92857619D02*
X66460953Y-92190952D01*
X67365715Y-92857619D02*
X66794287Y-92857619D01*
X67080001Y-92857619D02*
X67080001Y-91857619D01*
X67080001Y-91857619D02*
X66984763Y-92000476D01*
X66984763Y-92000476D02*
X66889525Y-92095714D01*
X66889525Y-92095714D02*
X66794287Y-92143333D01*
X67794287Y-92762380D02*
X67841906Y-92810000D01*
X67841906Y-92810000D02*
X67794287Y-92857619D01*
X67794287Y-92857619D02*
X67746668Y-92810000D01*
X67746668Y-92810000D02*
X67794287Y-92762380D01*
X67794287Y-92762380D02*
X67794287Y-92857619D01*
X68460953Y-91857619D02*
X68556191Y-91857619D01*
X68556191Y-91857619D02*
X68651429Y-91905238D01*
X68651429Y-91905238D02*
X68699048Y-91952857D01*
X68699048Y-91952857D02*
X68746667Y-92048095D01*
X68746667Y-92048095D02*
X68794286Y-92238571D01*
X68794286Y-92238571D02*
X68794286Y-92476666D01*
X68794286Y-92476666D02*
X68746667Y-92667142D01*
X68746667Y-92667142D02*
X68699048Y-92762380D01*
X68699048Y-92762380D02*
X68651429Y-92810000D01*
X68651429Y-92810000D02*
X68556191Y-92857619D01*
X68556191Y-92857619D02*
X68460953Y-92857619D01*
X68460953Y-92857619D02*
X68365715Y-92810000D01*
X68365715Y-92810000D02*
X68318096Y-92762380D01*
X68318096Y-92762380D02*
X68270477Y-92667142D01*
X68270477Y-92667142D02*
X68222858Y-92476666D01*
X68222858Y-92476666D02*
X68222858Y-92238571D01*
X68222858Y-92238571D02*
X68270477Y-92048095D01*
X68270477Y-92048095D02*
X68318096Y-91952857D01*
X68318096Y-91952857D02*
X68365715Y-91905238D01*
X68365715Y-91905238D02*
X68460953Y-91857619D01*
%TO.C,U1*%
X101329199Y-43247636D02*
X101329199Y-44060449D01*
X101329199Y-44060449D02*
X101377012Y-44156074D01*
X101377012Y-44156074D02*
X101424824Y-44203887D01*
X101424824Y-44203887D02*
X101520449Y-44251699D01*
X101520449Y-44251699D02*
X101711699Y-44251699D01*
X101711699Y-44251699D02*
X101807324Y-44203887D01*
X101807324Y-44203887D02*
X101855137Y-44156074D01*
X101855137Y-44156074D02*
X101902949Y-44060449D01*
X101902949Y-44060449D02*
X101902949Y-43247636D01*
X102907013Y-44251699D02*
X102333263Y-44251699D01*
X102620138Y-44251699D02*
X102620138Y-43247636D01*
X102620138Y-43247636D02*
X102524513Y-43391074D01*
X102524513Y-43391074D02*
X102428888Y-43486699D01*
X102428888Y-43486699D02*
X102333263Y-43534511D01*
%TO.C,U3*%
X91172295Y-67227419D02*
X91172295Y-68036942D01*
X91172295Y-68036942D02*
X91219914Y-68132180D01*
X91219914Y-68132180D02*
X91267533Y-68179800D01*
X91267533Y-68179800D02*
X91362771Y-68227419D01*
X91362771Y-68227419D02*
X91553247Y-68227419D01*
X91553247Y-68227419D02*
X91648485Y-68179800D01*
X91648485Y-68179800D02*
X91696104Y-68132180D01*
X91696104Y-68132180D02*
X91743723Y-68036942D01*
X91743723Y-68036942D02*
X91743723Y-67227419D01*
X92124676Y-67227419D02*
X92743723Y-67227419D01*
X92743723Y-67227419D02*
X92410390Y-67608371D01*
X92410390Y-67608371D02*
X92553247Y-67608371D01*
X92553247Y-67608371D02*
X92648485Y-67655990D01*
X92648485Y-67655990D02*
X92696104Y-67703609D01*
X92696104Y-67703609D02*
X92743723Y-67798847D01*
X92743723Y-67798847D02*
X92743723Y-68036942D01*
X92743723Y-68036942D02*
X92696104Y-68132180D01*
X92696104Y-68132180D02*
X92648485Y-68179800D01*
X92648485Y-68179800D02*
X92553247Y-68227419D01*
X92553247Y-68227419D02*
X92267533Y-68227419D01*
X92267533Y-68227419D02*
X92172295Y-68179800D01*
X92172295Y-68179800D02*
X92124676Y-68132180D01*
%TO.C,R7*%
X115543333Y-61592619D02*
X115210000Y-61116428D01*
X114971905Y-61592619D02*
X114971905Y-60592619D01*
X114971905Y-60592619D02*
X115352857Y-60592619D01*
X115352857Y-60592619D02*
X115448095Y-60640238D01*
X115448095Y-60640238D02*
X115495714Y-60687857D01*
X115495714Y-60687857D02*
X115543333Y-60783095D01*
X115543333Y-60783095D02*
X115543333Y-60925952D01*
X115543333Y-60925952D02*
X115495714Y-61021190D01*
X115495714Y-61021190D02*
X115448095Y-61068809D01*
X115448095Y-61068809D02*
X115352857Y-61116428D01*
X115352857Y-61116428D02*
X114971905Y-61116428D01*
X115876667Y-60592619D02*
X116543333Y-60592619D01*
X116543333Y-60592619D02*
X116114762Y-61592619D01*
%TO.C,J4*%
X95126666Y-86176519D02*
X95126666Y-86890804D01*
X95126666Y-86890804D02*
X95079047Y-87033661D01*
X95079047Y-87033661D02*
X94983809Y-87128900D01*
X94983809Y-87128900D02*
X94840952Y-87176519D01*
X94840952Y-87176519D02*
X94745714Y-87176519D01*
X96031428Y-86509852D02*
X96031428Y-87176519D01*
X95793333Y-86128900D02*
X95555238Y-86843185D01*
X95555238Y-86843185D02*
X96174285Y-86843185D01*
%TO.C,R8*%
X114473333Y-65492619D02*
X114140000Y-65016428D01*
X113901905Y-65492619D02*
X113901905Y-64492619D01*
X113901905Y-64492619D02*
X114282857Y-64492619D01*
X114282857Y-64492619D02*
X114378095Y-64540238D01*
X114378095Y-64540238D02*
X114425714Y-64587857D01*
X114425714Y-64587857D02*
X114473333Y-64683095D01*
X114473333Y-64683095D02*
X114473333Y-64825952D01*
X114473333Y-64825952D02*
X114425714Y-64921190D01*
X114425714Y-64921190D02*
X114378095Y-64968809D01*
X114378095Y-64968809D02*
X114282857Y-65016428D01*
X114282857Y-65016428D02*
X113901905Y-65016428D01*
X115044762Y-64921190D02*
X114949524Y-64873571D01*
X114949524Y-64873571D02*
X114901905Y-64825952D01*
X114901905Y-64825952D02*
X114854286Y-64730714D01*
X114854286Y-64730714D02*
X114854286Y-64683095D01*
X114854286Y-64683095D02*
X114901905Y-64587857D01*
X114901905Y-64587857D02*
X114949524Y-64540238D01*
X114949524Y-64540238D02*
X115044762Y-64492619D01*
X115044762Y-64492619D02*
X115235238Y-64492619D01*
X115235238Y-64492619D02*
X115330476Y-64540238D01*
X115330476Y-64540238D02*
X115378095Y-64587857D01*
X115378095Y-64587857D02*
X115425714Y-64683095D01*
X115425714Y-64683095D02*
X115425714Y-64730714D01*
X115425714Y-64730714D02*
X115378095Y-64825952D01*
X115378095Y-64825952D02*
X115330476Y-64873571D01*
X115330476Y-64873571D02*
X115235238Y-64921190D01*
X115235238Y-64921190D02*
X115044762Y-64921190D01*
X115044762Y-64921190D02*
X114949524Y-64968809D01*
X114949524Y-64968809D02*
X114901905Y-65016428D01*
X114901905Y-65016428D02*
X114854286Y-65111666D01*
X114854286Y-65111666D02*
X114854286Y-65302142D01*
X114854286Y-65302142D02*
X114901905Y-65397380D01*
X114901905Y-65397380D02*
X114949524Y-65445000D01*
X114949524Y-65445000D02*
X115044762Y-65492619D01*
X115044762Y-65492619D02*
X115235238Y-65492619D01*
X115235238Y-65492619D02*
X115330476Y-65445000D01*
X115330476Y-65445000D02*
X115378095Y-65397380D01*
X115378095Y-65397380D02*
X115425714Y-65302142D01*
X115425714Y-65302142D02*
X115425714Y-65111666D01*
X115425714Y-65111666D02*
X115378095Y-65016428D01*
X115378095Y-65016428D02*
X115330476Y-64968809D01*
X115330476Y-64968809D02*
X115235238Y-64921190D01*
%TO.C,D3*%
X113642619Y-64438094D02*
X112642619Y-64438094D01*
X112642619Y-64438094D02*
X112642619Y-64199999D01*
X112642619Y-64199999D02*
X112690238Y-64057142D01*
X112690238Y-64057142D02*
X112785476Y-63961904D01*
X112785476Y-63961904D02*
X112880714Y-63914285D01*
X112880714Y-63914285D02*
X113071190Y-63866666D01*
X113071190Y-63866666D02*
X113214047Y-63866666D01*
X113214047Y-63866666D02*
X113404523Y-63914285D01*
X113404523Y-63914285D02*
X113499761Y-63961904D01*
X113499761Y-63961904D02*
X113595000Y-64057142D01*
X113595000Y-64057142D02*
X113642619Y-64199999D01*
X113642619Y-64199999D02*
X113642619Y-64438094D01*
X112642619Y-63533332D02*
X112642619Y-62914285D01*
X112642619Y-62914285D02*
X113023571Y-63247618D01*
X113023571Y-63247618D02*
X113023571Y-63104761D01*
X113023571Y-63104761D02*
X113071190Y-63009523D01*
X113071190Y-63009523D02*
X113118809Y-62961904D01*
X113118809Y-62961904D02*
X113214047Y-62914285D01*
X113214047Y-62914285D02*
X113452142Y-62914285D01*
X113452142Y-62914285D02*
X113547380Y-62961904D01*
X113547380Y-62961904D02*
X113595000Y-63009523D01*
X113595000Y-63009523D02*
X113642619Y-63104761D01*
X113642619Y-63104761D02*
X113642619Y-63390475D01*
X113642619Y-63390475D02*
X113595000Y-63485713D01*
X113595000Y-63485713D02*
X113547380Y-63533332D01*
%TO.C,C8*%
X105543333Y-70387380D02*
X105495714Y-70435000D01*
X105495714Y-70435000D02*
X105352857Y-70482619D01*
X105352857Y-70482619D02*
X105257619Y-70482619D01*
X105257619Y-70482619D02*
X105114762Y-70435000D01*
X105114762Y-70435000D02*
X105019524Y-70339761D01*
X105019524Y-70339761D02*
X104971905Y-70244523D01*
X104971905Y-70244523D02*
X104924286Y-70054047D01*
X104924286Y-70054047D02*
X104924286Y-69911190D01*
X104924286Y-69911190D02*
X104971905Y-69720714D01*
X104971905Y-69720714D02*
X105019524Y-69625476D01*
X105019524Y-69625476D02*
X105114762Y-69530238D01*
X105114762Y-69530238D02*
X105257619Y-69482619D01*
X105257619Y-69482619D02*
X105352857Y-69482619D01*
X105352857Y-69482619D02*
X105495714Y-69530238D01*
X105495714Y-69530238D02*
X105543333Y-69577857D01*
X106114762Y-69911190D02*
X106019524Y-69863571D01*
X106019524Y-69863571D02*
X105971905Y-69815952D01*
X105971905Y-69815952D02*
X105924286Y-69720714D01*
X105924286Y-69720714D02*
X105924286Y-69673095D01*
X105924286Y-69673095D02*
X105971905Y-69577857D01*
X105971905Y-69577857D02*
X106019524Y-69530238D01*
X106019524Y-69530238D02*
X106114762Y-69482619D01*
X106114762Y-69482619D02*
X106305238Y-69482619D01*
X106305238Y-69482619D02*
X106400476Y-69530238D01*
X106400476Y-69530238D02*
X106448095Y-69577857D01*
X106448095Y-69577857D02*
X106495714Y-69673095D01*
X106495714Y-69673095D02*
X106495714Y-69720714D01*
X106495714Y-69720714D02*
X106448095Y-69815952D01*
X106448095Y-69815952D02*
X106400476Y-69863571D01*
X106400476Y-69863571D02*
X106305238Y-69911190D01*
X106305238Y-69911190D02*
X106114762Y-69911190D01*
X106114762Y-69911190D02*
X106019524Y-69958809D01*
X106019524Y-69958809D02*
X105971905Y-70006428D01*
X105971905Y-70006428D02*
X105924286Y-70101666D01*
X105924286Y-70101666D02*
X105924286Y-70292142D01*
X105924286Y-70292142D02*
X105971905Y-70387380D01*
X105971905Y-70387380D02*
X106019524Y-70435000D01*
X106019524Y-70435000D02*
X106114762Y-70482619D01*
X106114762Y-70482619D02*
X106305238Y-70482619D01*
X106305238Y-70482619D02*
X106400476Y-70435000D01*
X106400476Y-70435000D02*
X106448095Y-70387380D01*
X106448095Y-70387380D02*
X106495714Y-70292142D01*
X106495714Y-70292142D02*
X106495714Y-70101666D01*
X106495714Y-70101666D02*
X106448095Y-70006428D01*
X106448095Y-70006428D02*
X106400476Y-69958809D01*
X106400476Y-69958809D02*
X106305238Y-69911190D01*
%TO.C,C9*%
X26465533Y-59346180D02*
X26417914Y-59393800D01*
X26417914Y-59393800D02*
X26275057Y-59441419D01*
X26275057Y-59441419D02*
X26179819Y-59441419D01*
X26179819Y-59441419D02*
X26036962Y-59393800D01*
X26036962Y-59393800D02*
X25941724Y-59298561D01*
X25941724Y-59298561D02*
X25894105Y-59203323D01*
X25894105Y-59203323D02*
X25846486Y-59012847D01*
X25846486Y-59012847D02*
X25846486Y-58869990D01*
X25846486Y-58869990D02*
X25894105Y-58679514D01*
X25894105Y-58679514D02*
X25941724Y-58584276D01*
X25941724Y-58584276D02*
X26036962Y-58489038D01*
X26036962Y-58489038D02*
X26179819Y-58441419D01*
X26179819Y-58441419D02*
X26275057Y-58441419D01*
X26275057Y-58441419D02*
X26417914Y-58489038D01*
X26417914Y-58489038D02*
X26465533Y-58536657D01*
X26941724Y-59441419D02*
X27132200Y-59441419D01*
X27132200Y-59441419D02*
X27227438Y-59393800D01*
X27227438Y-59393800D02*
X27275057Y-59346180D01*
X27275057Y-59346180D02*
X27370295Y-59203323D01*
X27370295Y-59203323D02*
X27417914Y-59012847D01*
X27417914Y-59012847D02*
X27417914Y-58631895D01*
X27417914Y-58631895D02*
X27370295Y-58536657D01*
X27370295Y-58536657D02*
X27322676Y-58489038D01*
X27322676Y-58489038D02*
X27227438Y-58441419D01*
X27227438Y-58441419D02*
X27036962Y-58441419D01*
X27036962Y-58441419D02*
X26941724Y-58489038D01*
X26941724Y-58489038D02*
X26894105Y-58536657D01*
X26894105Y-58536657D02*
X26846486Y-58631895D01*
X26846486Y-58631895D02*
X26846486Y-58869990D01*
X26846486Y-58869990D02*
X26894105Y-58965228D01*
X26894105Y-58965228D02*
X26941724Y-59012847D01*
X26941724Y-59012847D02*
X27036962Y-59060466D01*
X27036962Y-59060466D02*
X27227438Y-59060466D01*
X27227438Y-59060466D02*
X27322676Y-59012847D01*
X27322676Y-59012847D02*
X27370295Y-58965228D01*
X27370295Y-58965228D02*
X27417914Y-58869990D01*
%TO.C,C5*%
X96133333Y-73577380D02*
X96085714Y-73625000D01*
X96085714Y-73625000D02*
X95942857Y-73672619D01*
X95942857Y-73672619D02*
X95847619Y-73672619D01*
X95847619Y-73672619D02*
X95704762Y-73625000D01*
X95704762Y-73625000D02*
X95609524Y-73529761D01*
X95609524Y-73529761D02*
X95561905Y-73434523D01*
X95561905Y-73434523D02*
X95514286Y-73244047D01*
X95514286Y-73244047D02*
X95514286Y-73101190D01*
X95514286Y-73101190D02*
X95561905Y-72910714D01*
X95561905Y-72910714D02*
X95609524Y-72815476D01*
X95609524Y-72815476D02*
X95704762Y-72720238D01*
X95704762Y-72720238D02*
X95847619Y-72672619D01*
X95847619Y-72672619D02*
X95942857Y-72672619D01*
X95942857Y-72672619D02*
X96085714Y-72720238D01*
X96085714Y-72720238D02*
X96133333Y-72767857D01*
X97038095Y-72672619D02*
X96561905Y-72672619D01*
X96561905Y-72672619D02*
X96514286Y-73148809D01*
X96514286Y-73148809D02*
X96561905Y-73101190D01*
X96561905Y-73101190D02*
X96657143Y-73053571D01*
X96657143Y-73053571D02*
X96895238Y-73053571D01*
X96895238Y-73053571D02*
X96990476Y-73101190D01*
X96990476Y-73101190D02*
X97038095Y-73148809D01*
X97038095Y-73148809D02*
X97085714Y-73244047D01*
X97085714Y-73244047D02*
X97085714Y-73482142D01*
X97085714Y-73482142D02*
X97038095Y-73577380D01*
X97038095Y-73577380D02*
X96990476Y-73625000D01*
X96990476Y-73625000D02*
X96895238Y-73672619D01*
X96895238Y-73672619D02*
X96657143Y-73672619D01*
X96657143Y-73672619D02*
X96561905Y-73625000D01*
X96561905Y-73625000D02*
X96514286Y-73577380D01*
%TO.C,R2*%
X93799533Y-48466219D02*
X93466200Y-47990028D01*
X93228105Y-48466219D02*
X93228105Y-47466219D01*
X93228105Y-47466219D02*
X93609057Y-47466219D01*
X93609057Y-47466219D02*
X93704295Y-47513838D01*
X93704295Y-47513838D02*
X93751914Y-47561457D01*
X93751914Y-47561457D02*
X93799533Y-47656695D01*
X93799533Y-47656695D02*
X93799533Y-47799552D01*
X93799533Y-47799552D02*
X93751914Y-47894790D01*
X93751914Y-47894790D02*
X93704295Y-47942409D01*
X93704295Y-47942409D02*
X93609057Y-47990028D01*
X93609057Y-47990028D02*
X93228105Y-47990028D01*
X94180486Y-47561457D02*
X94228105Y-47513838D01*
X94228105Y-47513838D02*
X94323343Y-47466219D01*
X94323343Y-47466219D02*
X94561438Y-47466219D01*
X94561438Y-47466219D02*
X94656676Y-47513838D01*
X94656676Y-47513838D02*
X94704295Y-47561457D01*
X94704295Y-47561457D02*
X94751914Y-47656695D01*
X94751914Y-47656695D02*
X94751914Y-47751933D01*
X94751914Y-47751933D02*
X94704295Y-47894790D01*
X94704295Y-47894790D02*
X94132867Y-48466219D01*
X94132867Y-48466219D02*
X94751914Y-48466219D01*
%TO.C,R6*%
X100124133Y-59185019D02*
X99790800Y-58708828D01*
X99552705Y-59185019D02*
X99552705Y-58185019D01*
X99552705Y-58185019D02*
X99933657Y-58185019D01*
X99933657Y-58185019D02*
X100028895Y-58232638D01*
X100028895Y-58232638D02*
X100076514Y-58280257D01*
X100076514Y-58280257D02*
X100124133Y-58375495D01*
X100124133Y-58375495D02*
X100124133Y-58518352D01*
X100124133Y-58518352D02*
X100076514Y-58613590D01*
X100076514Y-58613590D02*
X100028895Y-58661209D01*
X100028895Y-58661209D02*
X99933657Y-58708828D01*
X99933657Y-58708828D02*
X99552705Y-58708828D01*
X100981276Y-58185019D02*
X100790800Y-58185019D01*
X100790800Y-58185019D02*
X100695562Y-58232638D01*
X100695562Y-58232638D02*
X100647943Y-58280257D01*
X100647943Y-58280257D02*
X100552705Y-58423114D01*
X100552705Y-58423114D02*
X100505086Y-58613590D01*
X100505086Y-58613590D02*
X100505086Y-58994542D01*
X100505086Y-58994542D02*
X100552705Y-59089780D01*
X100552705Y-59089780D02*
X100600324Y-59137400D01*
X100600324Y-59137400D02*
X100695562Y-59185019D01*
X100695562Y-59185019D02*
X100886038Y-59185019D01*
X100886038Y-59185019D02*
X100981276Y-59137400D01*
X100981276Y-59137400D02*
X101028895Y-59089780D01*
X101028895Y-59089780D02*
X101076514Y-58994542D01*
X101076514Y-58994542D02*
X101076514Y-58756447D01*
X101076514Y-58756447D02*
X101028895Y-58661209D01*
X101028895Y-58661209D02*
X100981276Y-58613590D01*
X100981276Y-58613590D02*
X100886038Y-58565971D01*
X100886038Y-58565971D02*
X100695562Y-58565971D01*
X100695562Y-58565971D02*
X100600324Y-58613590D01*
X100600324Y-58613590D02*
X100552705Y-58661209D01*
X100552705Y-58661209D02*
X100505086Y-58756447D01*
%TO.C,C3*%
X104111933Y-52200980D02*
X104064314Y-52248600D01*
X104064314Y-52248600D02*
X103921457Y-52296219D01*
X103921457Y-52296219D02*
X103826219Y-52296219D01*
X103826219Y-52296219D02*
X103683362Y-52248600D01*
X103683362Y-52248600D02*
X103588124Y-52153361D01*
X103588124Y-52153361D02*
X103540505Y-52058123D01*
X103540505Y-52058123D02*
X103492886Y-51867647D01*
X103492886Y-51867647D02*
X103492886Y-51724790D01*
X103492886Y-51724790D02*
X103540505Y-51534314D01*
X103540505Y-51534314D02*
X103588124Y-51439076D01*
X103588124Y-51439076D02*
X103683362Y-51343838D01*
X103683362Y-51343838D02*
X103826219Y-51296219D01*
X103826219Y-51296219D02*
X103921457Y-51296219D01*
X103921457Y-51296219D02*
X104064314Y-51343838D01*
X104064314Y-51343838D02*
X104111933Y-51391457D01*
X104445267Y-51296219D02*
X105064314Y-51296219D01*
X105064314Y-51296219D02*
X104730981Y-51677171D01*
X104730981Y-51677171D02*
X104873838Y-51677171D01*
X104873838Y-51677171D02*
X104969076Y-51724790D01*
X104969076Y-51724790D02*
X105016695Y-51772409D01*
X105016695Y-51772409D02*
X105064314Y-51867647D01*
X105064314Y-51867647D02*
X105064314Y-52105742D01*
X105064314Y-52105742D02*
X105016695Y-52200980D01*
X105016695Y-52200980D02*
X104969076Y-52248600D01*
X104969076Y-52248600D02*
X104873838Y-52296219D01*
X104873838Y-52296219D02*
X104588124Y-52296219D01*
X104588124Y-52296219D02*
X104492886Y-52248600D01*
X104492886Y-52248600D02*
X104445267Y-52200980D01*
%TO.C,R3*%
X109369733Y-46943219D02*
X109036400Y-46467028D01*
X108798305Y-46943219D02*
X108798305Y-45943219D01*
X108798305Y-45943219D02*
X109179257Y-45943219D01*
X109179257Y-45943219D02*
X109274495Y-45990838D01*
X109274495Y-45990838D02*
X109322114Y-46038457D01*
X109322114Y-46038457D02*
X109369733Y-46133695D01*
X109369733Y-46133695D02*
X109369733Y-46276552D01*
X109369733Y-46276552D02*
X109322114Y-46371790D01*
X109322114Y-46371790D02*
X109274495Y-46419409D01*
X109274495Y-46419409D02*
X109179257Y-46467028D01*
X109179257Y-46467028D02*
X108798305Y-46467028D01*
X109703067Y-45943219D02*
X110322114Y-45943219D01*
X110322114Y-45943219D02*
X109988781Y-46324171D01*
X109988781Y-46324171D02*
X110131638Y-46324171D01*
X110131638Y-46324171D02*
X110226876Y-46371790D01*
X110226876Y-46371790D02*
X110274495Y-46419409D01*
X110274495Y-46419409D02*
X110322114Y-46514647D01*
X110322114Y-46514647D02*
X110322114Y-46752742D01*
X110322114Y-46752742D02*
X110274495Y-46847980D01*
X110274495Y-46847980D02*
X110226876Y-46895600D01*
X110226876Y-46895600D02*
X110131638Y-46943219D01*
X110131638Y-46943219D02*
X109845924Y-46943219D01*
X109845924Y-46943219D02*
X109750686Y-46895600D01*
X109750686Y-46895600D02*
X109703067Y-46847980D01*
%TO.C,R10*%
X112332619Y-75512857D02*
X111856428Y-75846190D01*
X112332619Y-76084285D02*
X111332619Y-76084285D01*
X111332619Y-76084285D02*
X111332619Y-75703333D01*
X111332619Y-75703333D02*
X111380238Y-75608095D01*
X111380238Y-75608095D02*
X111427857Y-75560476D01*
X111427857Y-75560476D02*
X111523095Y-75512857D01*
X111523095Y-75512857D02*
X111665952Y-75512857D01*
X111665952Y-75512857D02*
X111761190Y-75560476D01*
X111761190Y-75560476D02*
X111808809Y-75608095D01*
X111808809Y-75608095D02*
X111856428Y-75703333D01*
X111856428Y-75703333D02*
X111856428Y-76084285D01*
X112332619Y-74560476D02*
X112332619Y-75131904D01*
X112332619Y-74846190D02*
X111332619Y-74846190D01*
X111332619Y-74846190D02*
X111475476Y-74941428D01*
X111475476Y-74941428D02*
X111570714Y-75036666D01*
X111570714Y-75036666D02*
X111618333Y-75131904D01*
X111332619Y-73941428D02*
X111332619Y-73846190D01*
X111332619Y-73846190D02*
X111380238Y-73750952D01*
X111380238Y-73750952D02*
X111427857Y-73703333D01*
X111427857Y-73703333D02*
X111523095Y-73655714D01*
X111523095Y-73655714D02*
X111713571Y-73608095D01*
X111713571Y-73608095D02*
X111951666Y-73608095D01*
X111951666Y-73608095D02*
X112142142Y-73655714D01*
X112142142Y-73655714D02*
X112237380Y-73703333D01*
X112237380Y-73703333D02*
X112285000Y-73750952D01*
X112285000Y-73750952D02*
X112332619Y-73846190D01*
X112332619Y-73846190D02*
X112332619Y-73941428D01*
X112332619Y-73941428D02*
X112285000Y-74036666D01*
X112285000Y-74036666D02*
X112237380Y-74084285D01*
X112237380Y-74084285D02*
X112142142Y-74131904D01*
X112142142Y-74131904D02*
X111951666Y-74179523D01*
X111951666Y-74179523D02*
X111713571Y-74179523D01*
X111713571Y-74179523D02*
X111523095Y-74131904D01*
X111523095Y-74131904D02*
X111427857Y-74084285D01*
X111427857Y-74084285D02*
X111380238Y-74036666D01*
X111380238Y-74036666D02*
X111332619Y-73941428D01*
%TO.C,C1*%
X113713133Y-45348380D02*
X113665514Y-45396000D01*
X113665514Y-45396000D02*
X113522657Y-45443619D01*
X113522657Y-45443619D02*
X113427419Y-45443619D01*
X113427419Y-45443619D02*
X113284562Y-45396000D01*
X113284562Y-45396000D02*
X113189324Y-45300761D01*
X113189324Y-45300761D02*
X113141705Y-45205523D01*
X113141705Y-45205523D02*
X113094086Y-45015047D01*
X113094086Y-45015047D02*
X113094086Y-44872190D01*
X113094086Y-44872190D02*
X113141705Y-44681714D01*
X113141705Y-44681714D02*
X113189324Y-44586476D01*
X113189324Y-44586476D02*
X113284562Y-44491238D01*
X113284562Y-44491238D02*
X113427419Y-44443619D01*
X113427419Y-44443619D02*
X113522657Y-44443619D01*
X113522657Y-44443619D02*
X113665514Y-44491238D01*
X113665514Y-44491238D02*
X113713133Y-44538857D01*
X114665514Y-45443619D02*
X114094086Y-45443619D01*
X114379800Y-45443619D02*
X114379800Y-44443619D01*
X114379800Y-44443619D02*
X114284562Y-44586476D01*
X114284562Y-44586476D02*
X114189324Y-44681714D01*
X114189324Y-44681714D02*
X114094086Y-44729333D01*
%TO.C,R9*%
X26541733Y-62464019D02*
X26208400Y-61987828D01*
X25970305Y-62464019D02*
X25970305Y-61464019D01*
X25970305Y-61464019D02*
X26351257Y-61464019D01*
X26351257Y-61464019D02*
X26446495Y-61511638D01*
X26446495Y-61511638D02*
X26494114Y-61559257D01*
X26494114Y-61559257D02*
X26541733Y-61654495D01*
X26541733Y-61654495D02*
X26541733Y-61797352D01*
X26541733Y-61797352D02*
X26494114Y-61892590D01*
X26494114Y-61892590D02*
X26446495Y-61940209D01*
X26446495Y-61940209D02*
X26351257Y-61987828D01*
X26351257Y-61987828D02*
X25970305Y-61987828D01*
X27017924Y-62464019D02*
X27208400Y-62464019D01*
X27208400Y-62464019D02*
X27303638Y-62416400D01*
X27303638Y-62416400D02*
X27351257Y-62368780D01*
X27351257Y-62368780D02*
X27446495Y-62225923D01*
X27446495Y-62225923D02*
X27494114Y-62035447D01*
X27494114Y-62035447D02*
X27494114Y-61654495D01*
X27494114Y-61654495D02*
X27446495Y-61559257D01*
X27446495Y-61559257D02*
X27398876Y-61511638D01*
X27398876Y-61511638D02*
X27303638Y-61464019D01*
X27303638Y-61464019D02*
X27113162Y-61464019D01*
X27113162Y-61464019D02*
X27017924Y-61511638D01*
X27017924Y-61511638D02*
X26970305Y-61559257D01*
X26970305Y-61559257D02*
X26922686Y-61654495D01*
X26922686Y-61654495D02*
X26922686Y-61892590D01*
X26922686Y-61892590D02*
X26970305Y-61987828D01*
X26970305Y-61987828D02*
X27017924Y-62035447D01*
X27017924Y-62035447D02*
X27113162Y-62083066D01*
X27113162Y-62083066D02*
X27303638Y-62083066D01*
X27303638Y-62083066D02*
X27398876Y-62035447D01*
X27398876Y-62035447D02*
X27446495Y-61987828D01*
X27446495Y-61987828D02*
X27494114Y-61892590D01*
%TO.C,D2*%
X113662619Y-58558094D02*
X112662619Y-58558094D01*
X112662619Y-58558094D02*
X112662619Y-58319999D01*
X112662619Y-58319999D02*
X112710238Y-58177142D01*
X112710238Y-58177142D02*
X112805476Y-58081904D01*
X112805476Y-58081904D02*
X112900714Y-58034285D01*
X112900714Y-58034285D02*
X113091190Y-57986666D01*
X113091190Y-57986666D02*
X113234047Y-57986666D01*
X113234047Y-57986666D02*
X113424523Y-58034285D01*
X113424523Y-58034285D02*
X113519761Y-58081904D01*
X113519761Y-58081904D02*
X113615000Y-58177142D01*
X113615000Y-58177142D02*
X113662619Y-58319999D01*
X113662619Y-58319999D02*
X113662619Y-58558094D01*
X112757857Y-57605713D02*
X112710238Y-57558094D01*
X112710238Y-57558094D02*
X112662619Y-57462856D01*
X112662619Y-57462856D02*
X112662619Y-57224761D01*
X112662619Y-57224761D02*
X112710238Y-57129523D01*
X112710238Y-57129523D02*
X112757857Y-57081904D01*
X112757857Y-57081904D02*
X112853095Y-57034285D01*
X112853095Y-57034285D02*
X112948333Y-57034285D01*
X112948333Y-57034285D02*
X113091190Y-57081904D01*
X113091190Y-57081904D02*
X113662619Y-57653332D01*
X113662619Y-57653332D02*
X113662619Y-57034285D01*
%TO.C,R4*%
X104188133Y-59133219D02*
X103854800Y-58657028D01*
X103616705Y-59133219D02*
X103616705Y-58133219D01*
X103616705Y-58133219D02*
X103997657Y-58133219D01*
X103997657Y-58133219D02*
X104092895Y-58180838D01*
X104092895Y-58180838D02*
X104140514Y-58228457D01*
X104140514Y-58228457D02*
X104188133Y-58323695D01*
X104188133Y-58323695D02*
X104188133Y-58466552D01*
X104188133Y-58466552D02*
X104140514Y-58561790D01*
X104140514Y-58561790D02*
X104092895Y-58609409D01*
X104092895Y-58609409D02*
X103997657Y-58657028D01*
X103997657Y-58657028D02*
X103616705Y-58657028D01*
X105045276Y-58466552D02*
X105045276Y-59133219D01*
X104807181Y-58085600D02*
X104569086Y-58799885D01*
X104569086Y-58799885D02*
X105188133Y-58799885D01*
%TO.C,C6*%
X101233333Y-73647380D02*
X101185714Y-73695000D01*
X101185714Y-73695000D02*
X101042857Y-73742619D01*
X101042857Y-73742619D02*
X100947619Y-73742619D01*
X100947619Y-73742619D02*
X100804762Y-73695000D01*
X100804762Y-73695000D02*
X100709524Y-73599761D01*
X100709524Y-73599761D02*
X100661905Y-73504523D01*
X100661905Y-73504523D02*
X100614286Y-73314047D01*
X100614286Y-73314047D02*
X100614286Y-73171190D01*
X100614286Y-73171190D02*
X100661905Y-72980714D01*
X100661905Y-72980714D02*
X100709524Y-72885476D01*
X100709524Y-72885476D02*
X100804762Y-72790238D01*
X100804762Y-72790238D02*
X100947619Y-72742619D01*
X100947619Y-72742619D02*
X101042857Y-72742619D01*
X101042857Y-72742619D02*
X101185714Y-72790238D01*
X101185714Y-72790238D02*
X101233333Y-72837857D01*
X102090476Y-72742619D02*
X101900000Y-72742619D01*
X101900000Y-72742619D02*
X101804762Y-72790238D01*
X101804762Y-72790238D02*
X101757143Y-72837857D01*
X101757143Y-72837857D02*
X101661905Y-72980714D01*
X101661905Y-72980714D02*
X101614286Y-73171190D01*
X101614286Y-73171190D02*
X101614286Y-73552142D01*
X101614286Y-73552142D02*
X101661905Y-73647380D01*
X101661905Y-73647380D02*
X101709524Y-73695000D01*
X101709524Y-73695000D02*
X101804762Y-73742619D01*
X101804762Y-73742619D02*
X101995238Y-73742619D01*
X101995238Y-73742619D02*
X102090476Y-73695000D01*
X102090476Y-73695000D02*
X102138095Y-73647380D01*
X102138095Y-73647380D02*
X102185714Y-73552142D01*
X102185714Y-73552142D02*
X102185714Y-73314047D01*
X102185714Y-73314047D02*
X102138095Y-73218809D01*
X102138095Y-73218809D02*
X102090476Y-73171190D01*
X102090476Y-73171190D02*
X101995238Y-73123571D01*
X101995238Y-73123571D02*
X101804762Y-73123571D01*
X101804762Y-73123571D02*
X101709524Y-73171190D01*
X101709524Y-73171190D02*
X101661905Y-73218809D01*
X101661905Y-73218809D02*
X101614286Y-73314047D01*
%TO.C,R5*%
X95679133Y-59210419D02*
X95345800Y-58734228D01*
X95107705Y-59210419D02*
X95107705Y-58210419D01*
X95107705Y-58210419D02*
X95488657Y-58210419D01*
X95488657Y-58210419D02*
X95583895Y-58258038D01*
X95583895Y-58258038D02*
X95631514Y-58305657D01*
X95631514Y-58305657D02*
X95679133Y-58400895D01*
X95679133Y-58400895D02*
X95679133Y-58543752D01*
X95679133Y-58543752D02*
X95631514Y-58638990D01*
X95631514Y-58638990D02*
X95583895Y-58686609D01*
X95583895Y-58686609D02*
X95488657Y-58734228D01*
X95488657Y-58734228D02*
X95107705Y-58734228D01*
X96583895Y-58210419D02*
X96107705Y-58210419D01*
X96107705Y-58210419D02*
X96060086Y-58686609D01*
X96060086Y-58686609D02*
X96107705Y-58638990D01*
X96107705Y-58638990D02*
X96202943Y-58591371D01*
X96202943Y-58591371D02*
X96441038Y-58591371D01*
X96441038Y-58591371D02*
X96536276Y-58638990D01*
X96536276Y-58638990D02*
X96583895Y-58686609D01*
X96583895Y-58686609D02*
X96631514Y-58781847D01*
X96631514Y-58781847D02*
X96631514Y-59019942D01*
X96631514Y-59019942D02*
X96583895Y-59115180D01*
X96583895Y-59115180D02*
X96536276Y-59162800D01*
X96536276Y-59162800D02*
X96441038Y-59210419D01*
X96441038Y-59210419D02*
X96202943Y-59210419D01*
X96202943Y-59210419D02*
X96107705Y-59162800D01*
X96107705Y-59162800D02*
X96060086Y-59115180D01*
%TO.C,L1*%
X102410115Y-34369270D02*
X101933872Y-34369270D01*
X101933872Y-34369270D02*
X101933872Y-33369160D01*
X103267352Y-34369270D02*
X102695861Y-34369270D01*
X102981606Y-34369270D02*
X102981606Y-33369160D01*
X102981606Y-33369160D02*
X102886358Y-33512033D01*
X102886358Y-33512033D02*
X102791109Y-33607281D01*
X102791109Y-33607281D02*
X102695861Y-33654906D01*
%TO.C,C7*%
X92403333Y-73737380D02*
X92355714Y-73785000D01*
X92355714Y-73785000D02*
X92212857Y-73832619D01*
X92212857Y-73832619D02*
X92117619Y-73832619D01*
X92117619Y-73832619D02*
X91974762Y-73785000D01*
X91974762Y-73785000D02*
X91879524Y-73689761D01*
X91879524Y-73689761D02*
X91831905Y-73594523D01*
X91831905Y-73594523D02*
X91784286Y-73404047D01*
X91784286Y-73404047D02*
X91784286Y-73261190D01*
X91784286Y-73261190D02*
X91831905Y-73070714D01*
X91831905Y-73070714D02*
X91879524Y-72975476D01*
X91879524Y-72975476D02*
X91974762Y-72880238D01*
X91974762Y-72880238D02*
X92117619Y-72832619D01*
X92117619Y-72832619D02*
X92212857Y-72832619D01*
X92212857Y-72832619D02*
X92355714Y-72880238D01*
X92355714Y-72880238D02*
X92403333Y-72927857D01*
X92736667Y-72832619D02*
X93403333Y-72832619D01*
X93403333Y-72832619D02*
X92974762Y-73832619D01*
%TO.C,U2*%
X69666895Y-45487419D02*
X69666895Y-46296942D01*
X69666895Y-46296942D02*
X69714514Y-46392180D01*
X69714514Y-46392180D02*
X69762133Y-46439800D01*
X69762133Y-46439800D02*
X69857371Y-46487419D01*
X69857371Y-46487419D02*
X70047847Y-46487419D01*
X70047847Y-46487419D02*
X70143085Y-46439800D01*
X70143085Y-46439800D02*
X70190704Y-46392180D01*
X70190704Y-46392180D02*
X70238323Y-46296942D01*
X70238323Y-46296942D02*
X70238323Y-45487419D01*
X70666895Y-45582657D02*
X70714514Y-45535038D01*
X70714514Y-45535038D02*
X70809752Y-45487419D01*
X70809752Y-45487419D02*
X71047847Y-45487419D01*
X71047847Y-45487419D02*
X71143085Y-45535038D01*
X71143085Y-45535038D02*
X71190704Y-45582657D01*
X71190704Y-45582657D02*
X71238323Y-45677895D01*
X71238323Y-45677895D02*
X71238323Y-45773133D01*
X71238323Y-45773133D02*
X71190704Y-45915990D01*
X71190704Y-45915990D02*
X70619276Y-46487419D01*
X70619276Y-46487419D02*
X71238323Y-46487419D01*
%TO.C,D1*%
X112049505Y-36365019D02*
X112049505Y-35365019D01*
X112049505Y-35365019D02*
X112287600Y-35365019D01*
X112287600Y-35365019D02*
X112430457Y-35412638D01*
X112430457Y-35412638D02*
X112525695Y-35507876D01*
X112525695Y-35507876D02*
X112573314Y-35603114D01*
X112573314Y-35603114D02*
X112620933Y-35793590D01*
X112620933Y-35793590D02*
X112620933Y-35936447D01*
X112620933Y-35936447D02*
X112573314Y-36126923D01*
X112573314Y-36126923D02*
X112525695Y-36222161D01*
X112525695Y-36222161D02*
X112430457Y-36317400D01*
X112430457Y-36317400D02*
X112287600Y-36365019D01*
X112287600Y-36365019D02*
X112049505Y-36365019D01*
X113573314Y-36365019D02*
X113001886Y-36365019D01*
X113287600Y-36365019D02*
X113287600Y-35365019D01*
X113287600Y-35365019D02*
X113192362Y-35507876D01*
X113192362Y-35507876D02*
X113097124Y-35603114D01*
X113097124Y-35603114D02*
X113001886Y-35650733D01*
%TO.C,J1*%
X108150066Y-34108219D02*
X108150066Y-34822504D01*
X108150066Y-34822504D02*
X108102447Y-34965361D01*
X108102447Y-34965361D02*
X108007209Y-35060600D01*
X108007209Y-35060600D02*
X107864352Y-35108219D01*
X107864352Y-35108219D02*
X107769114Y-35108219D01*
X109150066Y-35108219D02*
X108578638Y-35108219D01*
X108864352Y-35108219D02*
X108864352Y-34108219D01*
X108864352Y-34108219D02*
X108769114Y-34251076D01*
X108769114Y-34251076D02*
X108673876Y-34346314D01*
X108673876Y-34346314D02*
X108578638Y-34393933D01*
%TO.C,J3*%
X94530266Y-27544619D02*
X94530266Y-28258904D01*
X94530266Y-28258904D02*
X94482647Y-28401761D01*
X94482647Y-28401761D02*
X94387409Y-28497000D01*
X94387409Y-28497000D02*
X94244552Y-28544619D01*
X94244552Y-28544619D02*
X94149314Y-28544619D01*
X94911219Y-27544619D02*
X95530266Y-27544619D01*
X95530266Y-27544619D02*
X95196933Y-27925571D01*
X95196933Y-27925571D02*
X95339790Y-27925571D01*
X95339790Y-27925571D02*
X95435028Y-27973190D01*
X95435028Y-27973190D02*
X95482647Y-28020809D01*
X95482647Y-28020809D02*
X95530266Y-28116047D01*
X95530266Y-28116047D02*
X95530266Y-28354142D01*
X95530266Y-28354142D02*
X95482647Y-28449380D01*
X95482647Y-28449380D02*
X95435028Y-28497000D01*
X95435028Y-28497000D02*
X95339790Y-28544619D01*
X95339790Y-28544619D02*
X95054076Y-28544619D01*
X95054076Y-28544619D02*
X94958838Y-28497000D01*
X94958838Y-28497000D02*
X94911219Y-28449380D01*
%TO.C,SW1*%
X21232667Y-46246200D02*
X21375524Y-46293819D01*
X21375524Y-46293819D02*
X21613619Y-46293819D01*
X21613619Y-46293819D02*
X21708857Y-46246200D01*
X21708857Y-46246200D02*
X21756476Y-46198580D01*
X21756476Y-46198580D02*
X21804095Y-46103342D01*
X21804095Y-46103342D02*
X21804095Y-46008104D01*
X21804095Y-46008104D02*
X21756476Y-45912866D01*
X21756476Y-45912866D02*
X21708857Y-45865247D01*
X21708857Y-45865247D02*
X21613619Y-45817628D01*
X21613619Y-45817628D02*
X21423143Y-45770009D01*
X21423143Y-45770009D02*
X21327905Y-45722390D01*
X21327905Y-45722390D02*
X21280286Y-45674771D01*
X21280286Y-45674771D02*
X21232667Y-45579533D01*
X21232667Y-45579533D02*
X21232667Y-45484295D01*
X21232667Y-45484295D02*
X21280286Y-45389057D01*
X21280286Y-45389057D02*
X21327905Y-45341438D01*
X21327905Y-45341438D02*
X21423143Y-45293819D01*
X21423143Y-45293819D02*
X21661238Y-45293819D01*
X21661238Y-45293819D02*
X21804095Y-45341438D01*
X22137429Y-45293819D02*
X22375524Y-46293819D01*
X22375524Y-46293819D02*
X22566000Y-45579533D01*
X22566000Y-45579533D02*
X22756476Y-46293819D01*
X22756476Y-46293819D02*
X22994572Y-45293819D01*
X23899333Y-46293819D02*
X23327905Y-46293819D01*
X23613619Y-46293819D02*
X23613619Y-45293819D01*
X23613619Y-45293819D02*
X23518381Y-45436676D01*
X23518381Y-45436676D02*
X23423143Y-45531914D01*
X23423143Y-45531914D02*
X23327905Y-45579533D01*
%TO.C,Q2*%
X85654809Y-21418085D02*
X85578619Y-21379990D01*
X85578619Y-21379990D02*
X85502428Y-21303800D01*
X85502428Y-21303800D02*
X85388142Y-21189514D01*
X85388142Y-21189514D02*
X85311952Y-21151419D01*
X85311952Y-21151419D02*
X85235761Y-21151419D01*
X85273857Y-21341895D02*
X85197666Y-21303800D01*
X85197666Y-21303800D02*
X85121476Y-21227609D01*
X85121476Y-21227609D02*
X85083380Y-21075228D01*
X85083380Y-21075228D02*
X85083380Y-20808561D01*
X85083380Y-20808561D02*
X85121476Y-20656180D01*
X85121476Y-20656180D02*
X85197666Y-20579990D01*
X85197666Y-20579990D02*
X85273857Y-20541895D01*
X85273857Y-20541895D02*
X85426238Y-20541895D01*
X85426238Y-20541895D02*
X85502428Y-20579990D01*
X85502428Y-20579990D02*
X85578619Y-20656180D01*
X85578619Y-20656180D02*
X85616714Y-20808561D01*
X85616714Y-20808561D02*
X85616714Y-21075228D01*
X85616714Y-21075228D02*
X85578619Y-21227609D01*
X85578619Y-21227609D02*
X85502428Y-21303800D01*
X85502428Y-21303800D02*
X85426238Y-21341895D01*
X85426238Y-21341895D02*
X85273857Y-21341895D01*
X85921475Y-20618085D02*
X85959571Y-20579990D01*
X85959571Y-20579990D02*
X86035761Y-20541895D01*
X86035761Y-20541895D02*
X86226237Y-20541895D01*
X86226237Y-20541895D02*
X86302428Y-20579990D01*
X86302428Y-20579990D02*
X86340523Y-20618085D01*
X86340523Y-20618085D02*
X86378618Y-20694276D01*
X86378618Y-20694276D02*
X86378618Y-20770466D01*
X86378618Y-20770466D02*
X86340523Y-20884752D01*
X86340523Y-20884752D02*
X85883380Y-21341895D01*
X85883380Y-21341895D02*
X86378618Y-21341895D01*
%TO.C,Q1*%
X54810209Y-21418685D02*
X54734019Y-21380590D01*
X54734019Y-21380590D02*
X54657828Y-21304400D01*
X54657828Y-21304400D02*
X54543542Y-21190114D01*
X54543542Y-21190114D02*
X54467352Y-21152019D01*
X54467352Y-21152019D02*
X54391161Y-21152019D01*
X54429257Y-21342495D02*
X54353066Y-21304400D01*
X54353066Y-21304400D02*
X54276876Y-21228209D01*
X54276876Y-21228209D02*
X54238780Y-21075828D01*
X54238780Y-21075828D02*
X54238780Y-20809161D01*
X54238780Y-20809161D02*
X54276876Y-20656780D01*
X54276876Y-20656780D02*
X54353066Y-20580590D01*
X54353066Y-20580590D02*
X54429257Y-20542495D01*
X54429257Y-20542495D02*
X54581638Y-20542495D01*
X54581638Y-20542495D02*
X54657828Y-20580590D01*
X54657828Y-20580590D02*
X54734019Y-20656780D01*
X54734019Y-20656780D02*
X54772114Y-20809161D01*
X54772114Y-20809161D02*
X54772114Y-21075828D01*
X54772114Y-21075828D02*
X54734019Y-21228209D01*
X54734019Y-21228209D02*
X54657828Y-21304400D01*
X54657828Y-21304400D02*
X54581638Y-21342495D01*
X54581638Y-21342495D02*
X54429257Y-21342495D01*
X55534018Y-21342495D02*
X55076875Y-21342495D01*
X55305447Y-21342495D02*
X55305447Y-20542495D01*
X55305447Y-20542495D02*
X55229256Y-20656780D01*
X55229256Y-20656780D02*
X55153066Y-20732971D01*
X55153066Y-20732971D02*
X55076875Y-20771066D01*
%TO.C,C2*%
X106601133Y-44002180D02*
X106553514Y-44049800D01*
X106553514Y-44049800D02*
X106410657Y-44097419D01*
X106410657Y-44097419D02*
X106315419Y-44097419D01*
X106315419Y-44097419D02*
X106172562Y-44049800D01*
X106172562Y-44049800D02*
X106077324Y-43954561D01*
X106077324Y-43954561D02*
X106029705Y-43859323D01*
X106029705Y-43859323D02*
X105982086Y-43668847D01*
X105982086Y-43668847D02*
X105982086Y-43525990D01*
X105982086Y-43525990D02*
X106029705Y-43335514D01*
X106029705Y-43335514D02*
X106077324Y-43240276D01*
X106077324Y-43240276D02*
X106172562Y-43145038D01*
X106172562Y-43145038D02*
X106315419Y-43097419D01*
X106315419Y-43097419D02*
X106410657Y-43097419D01*
X106410657Y-43097419D02*
X106553514Y-43145038D01*
X106553514Y-43145038D02*
X106601133Y-43192657D01*
X106982086Y-43192657D02*
X107029705Y-43145038D01*
X107029705Y-43145038D02*
X107124943Y-43097419D01*
X107124943Y-43097419D02*
X107363038Y-43097419D01*
X107363038Y-43097419D02*
X107458276Y-43145038D01*
X107458276Y-43145038D02*
X107505895Y-43192657D01*
X107505895Y-43192657D02*
X107553514Y-43287895D01*
X107553514Y-43287895D02*
X107553514Y-43383133D01*
X107553514Y-43383133D02*
X107505895Y-43525990D01*
X107505895Y-43525990D02*
X106934467Y-44097419D01*
X106934467Y-44097419D02*
X107553514Y-44097419D01*
%TO.C,D4*%
X113662619Y-70928094D02*
X112662619Y-70928094D01*
X112662619Y-70928094D02*
X112662619Y-70689999D01*
X112662619Y-70689999D02*
X112710238Y-70547142D01*
X112710238Y-70547142D02*
X112805476Y-70451904D01*
X112805476Y-70451904D02*
X112900714Y-70404285D01*
X112900714Y-70404285D02*
X113091190Y-70356666D01*
X113091190Y-70356666D02*
X113234047Y-70356666D01*
X113234047Y-70356666D02*
X113424523Y-70404285D01*
X113424523Y-70404285D02*
X113519761Y-70451904D01*
X113519761Y-70451904D02*
X113615000Y-70547142D01*
X113615000Y-70547142D02*
X113662619Y-70689999D01*
X113662619Y-70689999D02*
X113662619Y-70928094D01*
X112995952Y-69499523D02*
X113662619Y-69499523D01*
X112615000Y-69737618D02*
X113329285Y-69975713D01*
X113329285Y-69975713D02*
X113329285Y-69356666D01*
%TO.C,R1*%
X93699833Y-44682619D02*
X93366500Y-44206428D01*
X93128405Y-44682619D02*
X93128405Y-43682619D01*
X93128405Y-43682619D02*
X93509357Y-43682619D01*
X93509357Y-43682619D02*
X93604595Y-43730238D01*
X93604595Y-43730238D02*
X93652214Y-43777857D01*
X93652214Y-43777857D02*
X93699833Y-43873095D01*
X93699833Y-43873095D02*
X93699833Y-44015952D01*
X93699833Y-44015952D02*
X93652214Y-44111190D01*
X93652214Y-44111190D02*
X93604595Y-44158809D01*
X93604595Y-44158809D02*
X93509357Y-44206428D01*
X93509357Y-44206428D02*
X93128405Y-44206428D01*
X94652214Y-44682619D02*
X94080786Y-44682619D01*
X94366500Y-44682619D02*
X94366500Y-43682619D01*
X94366500Y-43682619D02*
X94271262Y-43825476D01*
X94271262Y-43825476D02*
X94176024Y-43920714D01*
X94176024Y-43920714D02*
X94080786Y-43968333D01*
%TO.C,U4*%
X39644095Y-45487419D02*
X39644095Y-46296942D01*
X39644095Y-46296942D02*
X39691714Y-46392180D01*
X39691714Y-46392180D02*
X39739333Y-46439800D01*
X39739333Y-46439800D02*
X39834571Y-46487419D01*
X39834571Y-46487419D02*
X40025047Y-46487419D01*
X40025047Y-46487419D02*
X40120285Y-46439800D01*
X40120285Y-46439800D02*
X40167904Y-46392180D01*
X40167904Y-46392180D02*
X40215523Y-46296942D01*
X40215523Y-46296942D02*
X40215523Y-45487419D01*
X41120285Y-45820752D02*
X41120285Y-46487419D01*
X40882190Y-45439800D02*
X40644095Y-46154085D01*
X40644095Y-46154085D02*
X41263142Y-46154085D01*
%TO.C,C4*%
X93697933Y-41069780D02*
X93650314Y-41117400D01*
X93650314Y-41117400D02*
X93507457Y-41165019D01*
X93507457Y-41165019D02*
X93412219Y-41165019D01*
X93412219Y-41165019D02*
X93269362Y-41117400D01*
X93269362Y-41117400D02*
X93174124Y-41022161D01*
X93174124Y-41022161D02*
X93126505Y-40926923D01*
X93126505Y-40926923D02*
X93078886Y-40736447D01*
X93078886Y-40736447D02*
X93078886Y-40593590D01*
X93078886Y-40593590D02*
X93126505Y-40403114D01*
X93126505Y-40403114D02*
X93174124Y-40307876D01*
X93174124Y-40307876D02*
X93269362Y-40212638D01*
X93269362Y-40212638D02*
X93412219Y-40165019D01*
X93412219Y-40165019D02*
X93507457Y-40165019D01*
X93507457Y-40165019D02*
X93650314Y-40212638D01*
X93650314Y-40212638D02*
X93697933Y-40260257D01*
X94555076Y-40498352D02*
X94555076Y-41165019D01*
X94316981Y-40117400D02*
X94078886Y-40831685D01*
X94078886Y-40831685D02*
X94697933Y-40831685D01*
D11*
%TO.C,U1*%
X100322800Y-45120800D02*
X100322800Y-45220800D01*
X100322800Y-45120800D02*
X104322800Y-45120800D01*
X100322800Y-50020800D02*
X100322800Y-50120800D01*
X100322800Y-50120800D02*
X104322800Y-50120800D01*
X104322800Y-45120800D02*
X104322800Y-45220800D01*
X104322800Y-50020800D02*
X104322800Y-50120800D01*
D12*
X99755800Y-44880800D02*
G75*
G03*
X99755800Y-44880800I-100000J0D01*
G01*
D13*
%TO.C,U3*%
X93554400Y-65031200D02*
X93554400Y-68481200D01*
X93554400Y-65031200D02*
X93554400Y-63081200D01*
X103674400Y-65031200D02*
X103674400Y-66981200D01*
X103674400Y-65031200D02*
X103674400Y-63081200D01*
%TO.C,R7*%
X114082500Y-60817742D02*
X114082500Y-61292258D01*
X113037500Y-60817742D02*
X113037500Y-61292258D01*
%TO.C,J4*%
X110945000Y-87653900D02*
X110945000Y-99993900D01*
X101250000Y-86759562D02*
X101000000Y-87192575D01*
X101000000Y-87192575D02*
X100750000Y-86759562D01*
X100750000Y-86759562D02*
X101250000Y-86759562D01*
X79975000Y-99993900D02*
X79975000Y-87653900D01*
X79975000Y-87653900D02*
X110945000Y-87653900D01*
%TO.C,R8*%
X114082500Y-66827742D02*
X114082500Y-67302258D01*
X113037500Y-66827742D02*
X113037500Y-67302258D01*
%TO.C,D3*%
X111456000Y-63380000D02*
X111300000Y-63380000D01*
X109140000Y-63380000D02*
X108984000Y-63380000D01*
X111298608Y-66612334D02*
G75*
G03*
X111455515Y-63380001I-1078608J1672334D01*
G01*
X111299836Y-65981129D02*
G75*
G03*
X111299999Y-63899040I-1079836J1041129D01*
G01*
X109140001Y-63899040D02*
G75*
G03*
X109140164Y-65981129I1079999J-1040960D01*
G01*
X108984485Y-63380001D02*
G75*
G03*
X109141392Y-66612334I1235515J-1559999D01*
G01*
%TO.C,C8*%
X106233220Y-71217200D02*
X106514380Y-71217200D01*
X106233220Y-72237200D02*
X106514380Y-72237200D01*
%TO.C,C9*%
X23748420Y-58418000D02*
X24029580Y-58418000D01*
X23748420Y-59438000D02*
X24029580Y-59438000D01*
%TO.C,C5*%
X96233220Y-71217200D02*
X96514380Y-71217200D01*
X96233220Y-72237200D02*
X96514380Y-72237200D01*
%TO.C,R2*%
X94093564Y-50389600D02*
X93639436Y-50389600D01*
X94093564Y-48919600D02*
X93639436Y-48919600D01*
%TO.C,R6*%
X99913236Y-56285600D02*
X100367364Y-56285600D01*
X99913236Y-57755600D02*
X100367364Y-57755600D01*
%TO.C,C3*%
X104017348Y-52778600D02*
X104539852Y-52778600D01*
X104017348Y-54248600D02*
X104539852Y-54248600D01*
%TO.C,R3*%
X109309336Y-47395600D02*
X109763464Y-47395600D01*
X109309336Y-48865600D02*
X109763464Y-48865600D01*
%TO.C,R10*%
X114042500Y-72792742D02*
X114042500Y-73267258D01*
X112997500Y-72792742D02*
X112997500Y-73267258D01*
%TO.C,C1*%
X115366800Y-47419348D02*
X115366800Y-48841852D01*
X112646800Y-47419348D02*
X112646800Y-48841852D01*
%TO.C,R9*%
X24177058Y-62422300D02*
X23702542Y-62422300D01*
X24177058Y-61377300D02*
X23702542Y-61377300D01*
%TO.C,D2*%
X108984485Y-57380001D02*
G75*
G03*
X109141392Y-60612334I1235515J-1559999D01*
G01*
X109140001Y-57899040D02*
G75*
G03*
X109140164Y-59981129I1079999J-1040960D01*
G01*
X111299836Y-59981129D02*
G75*
G03*
X111299999Y-57899040I-1079836J1041129D01*
G01*
X111298608Y-60612334D02*
G75*
G03*
X111455515Y-57380001I-1078608J1672334D01*
G01*
X109140000Y-57380000D02*
X108984000Y-57380000D01*
X111456000Y-57380000D02*
X111300000Y-57380000D01*
%TO.C,R4*%
X104581864Y-57755600D02*
X104127736Y-57755600D01*
X104581864Y-56285600D02*
X104127736Y-56285600D01*
%TO.C,C6*%
X101233220Y-71217200D02*
X101514380Y-71217200D01*
X101233220Y-72237200D02*
X101514380Y-72237200D01*
%TO.C,R5*%
X95519036Y-56285600D02*
X95973164Y-56285600D01*
X95519036Y-57755600D02*
X95973164Y-57755600D01*
D12*
%TO.C,L1*%
X106023600Y-41827800D02*
X98723600Y-41827800D01*
X106023600Y-39827800D02*
X106023600Y-41827800D01*
X106023600Y-37027800D02*
X106023600Y-35027800D01*
X106023600Y-35027800D02*
X98723600Y-35027800D01*
X98723600Y-41827800D02*
X98723600Y-39827800D01*
X98723600Y-35027800D02*
X98723600Y-37027800D01*
X106573600Y-40127800D02*
G75*
G03*
X106573600Y-40127800I-100000J0D01*
G01*
D13*
%TO.C,C7*%
X91514380Y-72237200D02*
X91233220Y-72237200D01*
X91514380Y-71217200D02*
X91233220Y-71217200D01*
%TO.C,U2*%
X59848800Y-22954800D02*
X59848800Y-23374800D01*
X59848800Y-25494800D02*
X59848800Y-25914800D01*
X59848800Y-28034800D02*
X59848800Y-28454800D01*
X59848800Y-30574800D02*
X59848800Y-30994800D01*
X59848800Y-33114800D02*
X59848800Y-33534800D01*
X59848800Y-35654800D02*
X59848800Y-36074800D01*
X59848800Y-38194800D02*
X59848800Y-38614800D01*
X59848800Y-40734800D02*
X59848800Y-41154800D01*
X59848800Y-43274800D02*
X59848800Y-43694800D01*
X59848800Y-45814800D02*
X59848800Y-46234800D01*
X59848800Y-48354800D02*
X59848800Y-48774800D01*
X59848800Y-50894800D02*
X59848800Y-51314800D01*
X59848800Y-53434800D02*
X59848800Y-53854800D01*
X59848800Y-55974800D02*
X59848800Y-56394800D01*
X59848800Y-58514800D02*
X59848800Y-58934800D01*
X59848800Y-61054800D02*
X59848800Y-61474800D01*
X59848800Y-63594800D02*
X59848800Y-64014800D01*
X59848800Y-66134800D02*
X59848800Y-66554800D01*
X59848800Y-68674800D02*
X59848800Y-69094800D01*
X60408800Y-20464800D02*
X66598800Y-20464800D01*
X60408800Y-71584800D02*
X66808800Y-71584800D01*
X66598800Y-20464800D02*
X60408800Y-20464800D01*
X68928800Y-71584800D02*
X69348800Y-71584800D01*
X71468800Y-71584800D02*
X71888800Y-71584800D01*
X74008800Y-71584800D02*
X80408800Y-71584800D01*
X80408800Y-20464800D02*
X74218800Y-20464800D01*
X80968800Y-22954800D02*
X80968800Y-23374800D01*
X80968800Y-25494800D02*
X80968800Y-25914800D01*
X80968800Y-28034800D02*
X80968800Y-28454800D01*
X80968800Y-30574800D02*
X80968800Y-30994800D01*
X80968800Y-33114800D02*
X80968800Y-33534800D01*
X80968800Y-35654800D02*
X80968800Y-36074800D01*
X80968800Y-38194800D02*
X80968800Y-38614800D01*
X80968800Y-40734800D02*
X80968800Y-41154800D01*
X80968800Y-43274800D02*
X80968800Y-43694800D01*
X80968800Y-45814800D02*
X80968800Y-46234800D01*
X80968800Y-48354800D02*
X80968800Y-48774800D01*
X80968800Y-50894800D02*
X80968800Y-51314800D01*
X80968800Y-53434800D02*
X80968800Y-53854800D01*
X80968800Y-55974800D02*
X80968800Y-56394800D01*
X80968800Y-58514800D02*
X80968800Y-58934800D01*
X80968800Y-61054800D02*
X80968800Y-61474800D01*
X80968800Y-63594800D02*
X80968800Y-64014800D01*
X80968800Y-66134800D02*
X80968800Y-66554800D01*
X80968800Y-68674800D02*
X80968800Y-69094800D01*
X60408800Y-20464801D02*
G75*
G03*
X59878801Y-20834800I-1771J-562057D01*
G01*
X59878801Y-71214800D02*
G75*
G03*
X60408800Y-71584799I528226J192055D01*
G01*
X80938825Y-20834791D02*
G75*
G03*
X80408800Y-20464801I-528325J-192209D01*
G01*
X80408800Y-71584772D02*
G75*
G03*
X80938799Y-71214800I1700J562172D01*
G01*
X65748800Y-69524800D02*
G75*
G03*
X65748800Y-69524800I-1050000J0D01*
G01*
X65778800Y-22514800D02*
G75*
G03*
X65778800Y-22514800I-1050000J0D01*
G01*
X77158800Y-22554800D02*
G75*
G03*
X77158800Y-22554800I-1050000J0D01*
G01*
X77208800Y-69504800D02*
G75*
G03*
X77208800Y-69504800I-1050000J0D01*
G01*
%TO.C,D1*%
X109277600Y-36752400D02*
X109277600Y-40052400D01*
X109277600Y-36752400D02*
X114787600Y-36752400D01*
X109277600Y-40052400D02*
X114787600Y-40052400D01*
%TO.C,J1*%
X113281800Y-32979400D02*
X113281800Y-31679400D01*
X112981800Y-32679400D02*
X110981800Y-32679400D01*
X112981800Y-18179400D02*
X112981800Y-32679400D01*
X111581800Y-32979400D02*
X113281800Y-32979400D01*
X105781800Y-32679400D02*
X103781800Y-32679400D01*
X103781800Y-32679400D02*
X103781800Y-31379400D01*
X103781800Y-26779400D02*
X103781800Y-18179400D01*
X103781800Y-18179400D02*
X112981800Y-18179400D01*
%TO.C,J3*%
X91114600Y-23818000D02*
X91114600Y-26228000D01*
X91114600Y-26228000D02*
X93524600Y-26228000D01*
X91414600Y-20808000D02*
X91414600Y-25928000D01*
X91414600Y-25928000D02*
X98034600Y-25928000D01*
X98034600Y-25928000D02*
X99034600Y-24928000D01*
X99034600Y-20808000D02*
X91414600Y-20808000D01*
X99034600Y-24928000D02*
X99034600Y-20808000D01*
%TO.C,SW1*%
X20744000Y-55042000D02*
X24194000Y-55042000D01*
X27034000Y-55042000D02*
X27234000Y-55042000D01*
X27234000Y-54252000D02*
X27234000Y-55042000D01*
X27234000Y-54252000D02*
X26984000Y-54252000D01*
X24684000Y-53662000D02*
X24684000Y-48882000D01*
X27234000Y-48292000D02*
X26984000Y-48292000D01*
X20744000Y-47502000D02*
X20744000Y-55042000D01*
X24194000Y-47502000D02*
X20744000Y-47502000D01*
X27034000Y-47502000D02*
X27234000Y-47502000D01*
X27234000Y-47502000D02*
X27234000Y-48292000D01*
D11*
%TO.C,Q2*%
X85161000Y-21969800D02*
X86561000Y-21969800D01*
X86561000Y-21969800D02*
X86561000Y-22889800D01*
X86561000Y-24149800D02*
X86561000Y-25069800D01*
X86561000Y-25069800D02*
X85161000Y-25069800D01*
D12*
X83861000Y-22604800D02*
G75*
G03*
X83861000Y-22604800I-100000J0D01*
G01*
D11*
%TO.C,Q1*%
X54316400Y-21970400D02*
X55716400Y-21970400D01*
X55716400Y-21970400D02*
X55716400Y-22890400D01*
X55716400Y-24150400D02*
X55716400Y-25070400D01*
X55716400Y-25070400D02*
X54316400Y-25070400D01*
D12*
X53016400Y-22605400D02*
G75*
G03*
X53016400Y-22605400I-100000J0D01*
G01*
D13*
%TO.C,C2*%
X109351348Y-42696600D02*
X109873852Y-42696600D01*
X109351348Y-44166600D02*
X109873852Y-44166600D01*
%TO.C,D4*%
X111456000Y-69380000D02*
X111300000Y-69380000D01*
X109140000Y-69380000D02*
X108984000Y-69380000D01*
X111298608Y-72612334D02*
G75*
G03*
X111455515Y-69380001I-1078608J1672334D01*
G01*
X111299836Y-71981129D02*
G75*
G03*
X111299999Y-69899040I-1079836J1041129D01*
G01*
X109140001Y-69899040D02*
G75*
G03*
X109140164Y-71981129I1079999J-1040960D01*
G01*
X108984485Y-69380001D02*
G75*
G03*
X109141392Y-72612334I1235515J-1559999D01*
G01*
%TO.C,R1*%
X93639436Y-45135000D02*
X94093564Y-45135000D01*
X93639436Y-46605000D02*
X94093564Y-46605000D01*
%TO.C,U4*%
X47136000Y-22554800D02*
G75*
G03*
X47136000Y-22554800I-1050000J0D01*
G01*
X35756000Y-22514800D02*
G75*
G03*
X35756000Y-22514800I-1050000J0D01*
G01*
X50386000Y-95664867D02*
G75*
G03*
X50915999Y-95294800I1600J562267D01*
G01*
X50915963Y-20834814D02*
G75*
G03*
X50386000Y-20464801I-528263J-192086D01*
G01*
X29856001Y-95294800D02*
G75*
G03*
X30386000Y-95664799I528226J192055D01*
G01*
X30386000Y-20464801D02*
G75*
G03*
X29856000Y-20834800I-1770J-562059D01*
G01*
X50946000Y-68674800D02*
X50946000Y-69094800D01*
X50946000Y-66134800D02*
X50946000Y-66554800D01*
X50946000Y-63594800D02*
X50946000Y-64014800D01*
X50946000Y-61054800D02*
X50946000Y-61474800D01*
X50946000Y-58514800D02*
X50946000Y-58934800D01*
X50946000Y-55974800D02*
X50946000Y-56394800D01*
X50946000Y-53434800D02*
X50946000Y-53854800D01*
X50946000Y-50894800D02*
X50946000Y-51314800D01*
X50946000Y-48354800D02*
X50946000Y-48774800D01*
X50946000Y-45814800D02*
X50946000Y-46234800D01*
X50946000Y-43274800D02*
X50946000Y-43694800D01*
X50946000Y-40734800D02*
X50946000Y-41154800D01*
X50946000Y-38194800D02*
X50946000Y-38614800D01*
X50946000Y-35654800D02*
X50946000Y-36074800D01*
X50946000Y-33114800D02*
X50946000Y-33534800D01*
X50946000Y-30574800D02*
X50946000Y-30994800D01*
X50946000Y-28034800D02*
X50946000Y-28454800D01*
X50946000Y-25494800D02*
X50946000Y-25914800D01*
X50946000Y-22954800D02*
X50946000Y-23374800D01*
X50916000Y-71564800D02*
X50916000Y-95294800D01*
X50386000Y-20464800D02*
X44196000Y-20464800D01*
X43986000Y-95664800D02*
X50386000Y-95664800D01*
X41446000Y-95664800D02*
X41866000Y-95664800D01*
X38906000Y-95664800D02*
X39326000Y-95664800D01*
X36576000Y-20464800D02*
X30386000Y-20464800D01*
X30386000Y-95664800D02*
X36786000Y-95664800D01*
X30386000Y-20464800D02*
X36576000Y-20464800D01*
X29856000Y-71564800D02*
X29856000Y-95294800D01*
X29826000Y-68674800D02*
X29826000Y-69094800D01*
X29826000Y-66134800D02*
X29826000Y-66554800D01*
X29826000Y-63594800D02*
X29826000Y-64014800D01*
X29826000Y-61054800D02*
X29826000Y-61474800D01*
X29826000Y-58514800D02*
X29826000Y-58934800D01*
X29826000Y-55974800D02*
X29826000Y-56394800D01*
X29826000Y-53434800D02*
X29826000Y-53854800D01*
X29826000Y-50894800D02*
X29826000Y-51314800D01*
X29826000Y-48354800D02*
X29826000Y-48774800D01*
X29826000Y-45814800D02*
X29826000Y-46234800D01*
X29826000Y-43274800D02*
X29826000Y-43694800D01*
X29826000Y-40734800D02*
X29826000Y-41154800D01*
X29826000Y-38194800D02*
X29826000Y-38614800D01*
X29826000Y-35654800D02*
X29826000Y-36074800D01*
X29826000Y-33114800D02*
X29826000Y-33534800D01*
X29826000Y-30574800D02*
X29826000Y-30994800D01*
X29826000Y-28034800D02*
X29826000Y-28454800D01*
X29826000Y-25494800D02*
X29826000Y-25914800D01*
X29826000Y-22954800D02*
X29826000Y-23374800D01*
%TO.C,C4*%
X94575852Y-39762400D02*
X93153348Y-39762400D01*
X94575852Y-37042400D02*
X93153348Y-37042400D01*
%TD*%
%LPC*%
D14*
%TO.C,U1*%
X99847800Y-45715800D03*
X99847800Y-46985800D03*
X99847800Y-48255800D03*
X99847800Y-49525800D03*
D15*
X104560800Y-49525800D03*
D14*
X104797800Y-48255800D03*
X104797800Y-46985800D03*
X104797800Y-45715800D03*
D16*
X102322800Y-48319800D03*
%TD*%
D17*
%TO.C,U3*%
X94169400Y-67606200D03*
X95439400Y-67606200D03*
X96709400Y-67606200D03*
X97979400Y-67606200D03*
X99249400Y-67606200D03*
X100519400Y-67606200D03*
X101789400Y-67606200D03*
X103059400Y-67606200D03*
X103059400Y-62456200D03*
X101789400Y-62456200D03*
X100519400Y-62456200D03*
X99249400Y-62456200D03*
X97979400Y-62456200D03*
X96709400Y-62456200D03*
X95439400Y-62456200D03*
X94169400Y-62456200D03*
%TD*%
D18*
%TO.C,R7*%
X113560000Y-60230000D03*
X113560000Y-61880000D03*
%TD*%
D19*
%TO.C,J4*%
X91305000Y-92353900D03*
X94075000Y-92353900D03*
X96845000Y-92353900D03*
X99615000Y-92353900D03*
X89920000Y-89513900D03*
X92690000Y-89513900D03*
X95460000Y-89513900D03*
X98230000Y-89513900D03*
D20*
X101000000Y-89513900D03*
D21*
X107960000Y-90933900D03*
X82960000Y-90933900D03*
%TD*%
D18*
%TO.C,R8*%
X113560000Y-66240000D03*
X113560000Y-67890000D03*
%TD*%
D22*
%TO.C,D3*%
X110220000Y-63670000D03*
D23*
X110220000Y-66210000D03*
%TD*%
D24*
%TO.C,C8*%
X105598800Y-71727200D03*
X107148800Y-71727200D03*
%TD*%
%TO.C,C9*%
X23114000Y-58928000D03*
X24664000Y-58928000D03*
%TD*%
%TO.C,C5*%
X95598800Y-71727200D03*
X97148800Y-71727200D03*
%TD*%
D25*
%TO.C,R2*%
X94779000Y-49654600D03*
X92954000Y-49654600D03*
%TD*%
D26*
%TO.C,R6*%
X99227800Y-57020600D03*
X101052800Y-57020600D03*
%TD*%
D27*
%TO.C,C3*%
X103328600Y-53513600D03*
X105228600Y-53513600D03*
%TD*%
D26*
%TO.C,R3*%
X108623900Y-48130600D03*
X110448900Y-48130600D03*
%TD*%
D18*
%TO.C,R10*%
X113520000Y-72205000D03*
X113520000Y-73855000D03*
%TD*%
D28*
%TO.C,C1*%
X114006800Y-46655600D03*
X114006800Y-49605600D03*
%TD*%
D29*
%TO.C,R9*%
X24764800Y-61899800D03*
X23114800Y-61899800D03*
%TD*%
D23*
%TO.C,D2*%
X110220000Y-60210000D03*
D22*
X110220000Y-57670000D03*
%TD*%
D25*
%TO.C,R4*%
X105267300Y-57020600D03*
X103442300Y-57020600D03*
%TD*%
D24*
%TO.C,C6*%
X100598800Y-71727200D03*
X102148800Y-71727200D03*
%TD*%
D26*
%TO.C,R5*%
X94833600Y-57020600D03*
X96658600Y-57020600D03*
%TD*%
D30*
%TO.C,L1*%
X105373600Y-38427800D03*
X99373600Y-38427800D03*
%TD*%
D31*
%TO.C,C7*%
X92148800Y-71727200D03*
X90598800Y-71727200D03*
%TD*%
D32*
%TO.C,U2*%
X59918800Y-21894800D03*
D33*
X61518800Y-21894800D03*
D34*
X60718800Y-24434800D03*
D19*
X61518800Y-24434800D03*
D35*
X60718800Y-26974800D03*
D36*
X61518800Y-26974800D03*
D34*
X60718800Y-29514800D03*
D19*
X61518800Y-29514800D03*
D34*
X60718800Y-32054800D03*
D19*
X61518800Y-32054800D03*
D34*
X60718800Y-34594800D03*
D19*
X61518800Y-34594800D03*
D34*
X60718800Y-37134800D03*
D19*
X61518800Y-37134800D03*
D35*
X60718800Y-39674800D03*
D36*
X61518800Y-39674800D03*
D34*
X60718800Y-42214800D03*
D19*
X61518800Y-42214800D03*
D34*
X60718800Y-44754800D03*
D19*
X61518800Y-44754800D03*
D34*
X60718800Y-47294800D03*
D19*
X61518800Y-47294800D03*
D34*
X60718800Y-49834800D03*
D19*
X61518800Y-49834800D03*
D35*
X60718800Y-52374800D03*
D36*
X61518800Y-52374800D03*
D34*
X60718800Y-54914800D03*
D19*
X61518800Y-54914800D03*
D34*
X60718800Y-57454800D03*
D19*
X61518800Y-57454800D03*
D34*
X60718800Y-59994800D03*
D19*
X61518800Y-59994800D03*
D34*
X60718800Y-62534800D03*
D19*
X61518800Y-62534800D03*
D35*
X60718800Y-65074800D03*
D36*
X61518800Y-65074800D03*
D34*
X60718800Y-67614800D03*
D19*
X61518800Y-67614800D03*
D34*
X60718800Y-70154800D03*
D19*
X61518800Y-70154800D03*
X79298800Y-70154800D03*
D34*
X80098800Y-70154800D03*
D19*
X79298800Y-67614800D03*
D34*
X80098800Y-67614800D03*
D36*
X79298800Y-65074800D03*
D35*
X80098800Y-65074800D03*
D19*
X79298800Y-62534800D03*
D34*
X80098800Y-62534800D03*
D19*
X79298800Y-59994800D03*
D34*
X80098800Y-59994800D03*
D19*
X79298800Y-57454800D03*
D34*
X80098800Y-57454800D03*
D19*
X79298800Y-54914800D03*
D34*
X80098800Y-54914800D03*
D36*
X79298800Y-52374800D03*
D35*
X80098800Y-52374800D03*
D19*
X79298800Y-49834800D03*
D34*
X80098800Y-49834800D03*
D19*
X79298800Y-47294800D03*
D34*
X80098800Y-47294800D03*
D19*
X79298800Y-44754800D03*
D34*
X80098800Y-44754800D03*
D19*
X79298800Y-42214800D03*
D34*
X80098800Y-42214800D03*
D36*
X79298800Y-39674800D03*
D35*
X80098800Y-39674800D03*
D19*
X79298800Y-37134800D03*
D34*
X80098800Y-37134800D03*
D19*
X79298800Y-34594800D03*
D34*
X80098800Y-34594800D03*
D19*
X79298800Y-32054800D03*
D34*
X80098800Y-32054800D03*
D19*
X79298800Y-29514800D03*
D34*
X80098800Y-29514800D03*
D36*
X79298800Y-26974800D03*
D35*
X80098800Y-26974800D03*
D19*
X79298800Y-24434800D03*
D34*
X80098800Y-24434800D03*
D19*
X79298800Y-21894800D03*
D34*
X80098800Y-21894800D03*
%TD*%
D37*
%TO.C,D1*%
X110787600Y-38402400D03*
X114787600Y-38402400D03*
%TD*%
D38*
%TO.C,J1*%
X108381800Y-31979400D03*
D39*
X108381800Y-25679400D03*
D40*
X103581800Y-29079400D03*
%TD*%
D41*
%TO.C,J3*%
X93974600Y-24018000D03*
D42*
X96474600Y-24018000D03*
%TD*%
D43*
%TO.C,SW1*%
X25614000Y-54772000D03*
X25614000Y-47772000D03*
D44*
X23114000Y-53522000D03*
X23114000Y-49022000D03*
%TD*%
D45*
%TO.C,Q2*%
X84836000Y-22604800D03*
X84836000Y-24434800D03*
X86886000Y-23519800D03*
%TD*%
%TO.C,Q1*%
X53991400Y-22605400D03*
X53991400Y-24435400D03*
X56041400Y-23520400D03*
%TD*%
D27*
%TO.C,C2*%
X108662600Y-43431600D03*
X110562600Y-43431600D03*
%TD*%
D22*
%TO.C,D4*%
X110220000Y-69670000D03*
D23*
X110220000Y-72210000D03*
%TD*%
D26*
%TO.C,R1*%
X92954000Y-45870000D03*
X94779000Y-45870000D03*
%TD*%
D34*
%TO.C,U4*%
X50076000Y-21894800D03*
D19*
X49276000Y-21894800D03*
D34*
X50076000Y-24434800D03*
D19*
X49276000Y-24434800D03*
D35*
X50076000Y-26974800D03*
D36*
X49276000Y-26974800D03*
D34*
X50076000Y-29514800D03*
D19*
X49276000Y-29514800D03*
D34*
X50076000Y-32054800D03*
D19*
X49276000Y-32054800D03*
D34*
X50076000Y-34594800D03*
D19*
X49276000Y-34594800D03*
D34*
X50076000Y-37134800D03*
D19*
X49276000Y-37134800D03*
D35*
X50076000Y-39674800D03*
D36*
X49276000Y-39674800D03*
D34*
X50076000Y-42214800D03*
D19*
X49276000Y-42214800D03*
D34*
X50076000Y-44754800D03*
D19*
X49276000Y-44754800D03*
D34*
X50076000Y-47294800D03*
D19*
X49276000Y-47294800D03*
D34*
X50076000Y-49834800D03*
D19*
X49276000Y-49834800D03*
D35*
X50076000Y-52374800D03*
D36*
X49276000Y-52374800D03*
D34*
X50076000Y-54914800D03*
D19*
X49276000Y-54914800D03*
D34*
X50076000Y-57454800D03*
D19*
X49276000Y-57454800D03*
D34*
X50076000Y-59994800D03*
D19*
X49276000Y-59994800D03*
D34*
X50076000Y-62534800D03*
D19*
X49276000Y-62534800D03*
D35*
X50076000Y-65074800D03*
D36*
X49276000Y-65074800D03*
D34*
X50076000Y-67614800D03*
D19*
X49276000Y-67614800D03*
D34*
X50076000Y-70154800D03*
D19*
X49276000Y-70154800D03*
X31496000Y-70154800D03*
D34*
X30696000Y-70154800D03*
D19*
X31496000Y-67614800D03*
D34*
X30696000Y-67614800D03*
D36*
X31496000Y-65074800D03*
D35*
X30696000Y-65074800D03*
D19*
X31496000Y-62534800D03*
D34*
X30696000Y-62534800D03*
D19*
X31496000Y-59994800D03*
D34*
X30696000Y-59994800D03*
D19*
X31496000Y-57454800D03*
D34*
X30696000Y-57454800D03*
D19*
X31496000Y-54914800D03*
D34*
X30696000Y-54914800D03*
D36*
X31496000Y-52374800D03*
D35*
X30696000Y-52374800D03*
D19*
X31496000Y-49834800D03*
D34*
X30696000Y-49834800D03*
D19*
X31496000Y-47294800D03*
D34*
X30696000Y-47294800D03*
D19*
X31496000Y-44754800D03*
D34*
X30696000Y-44754800D03*
D19*
X31496000Y-42214800D03*
D34*
X30696000Y-42214800D03*
D36*
X31496000Y-39674800D03*
D35*
X30696000Y-39674800D03*
D19*
X31496000Y-37134800D03*
D34*
X30696000Y-37134800D03*
D19*
X31496000Y-34594800D03*
D34*
X30696000Y-34594800D03*
D19*
X31496000Y-32054800D03*
D34*
X30696000Y-32054800D03*
D19*
X31496000Y-29514800D03*
D34*
X30696000Y-29514800D03*
D36*
X31496000Y-26974800D03*
D35*
X30696000Y-26974800D03*
D19*
X31496000Y-24434800D03*
D34*
X30696000Y-24434800D03*
D33*
X31496000Y-21894800D03*
D32*
X29896000Y-21894800D03*
%TD*%
D46*
%TO.C,C4*%
X95339600Y-38402400D03*
X92389600Y-38402400D03*
%TD*%
%LPD*%
M02*
