M48
; DRILL file {KiCad 7.0.2} date Mon May  8 05:29:36 2023
; FORMAT={-:-/ absolute / metric / decimal}
; #@! TF.CreationDate,2023-05-08T05:29:36+09:00
; #@! TF.GenerationSoftware,Kicad,Pcbnew,7.0.2
; #@! TF.FileFunction,Plated,1,2,PTH
FMAT,2
METRIC
; #@! TA.AperFunction,Plated,PTH,ViaDrill
T1C0.400
; #@! TA.AperFunction,Plated,PTH,ComponentDrill
T2C0.850
; #@! TA.AperFunction,Plated,PTH,ComponentDrill
T3C0.900
; #@! TA.AperFunction,Plated,PTH,ComponentDrill
T4C1.000
; #@! TA.AperFunction,Plated,PTH,ComponentDrill
T5C1.500
; #@! TA.AperFunction,Plated,PTH,ComponentDrill
T6C3.200
%
G90
G05
T1
X44.552Y-75.082
X56.134Y-30.632
X59.588Y-78.537
X71.882Y-83.82
X71.882Y-85.344
X71.882Y-86.868
X88.697Y-55.016
X91.223Y-41.527
X91.223Y-47.978
X92.772Y-62.456
X97.7Y-53.515
X99.224Y-60.221
X100.533Y-64.059
X101.281Y-53.515
X111.506Y-83.82
X113.538Y-85.344
X115.062Y-86.868
T2
X93.975Y-24.018
X96.475Y-24.018
T3
X110.22Y-57.67
X110.22Y-60.21
X110.22Y-63.67
X110.22Y-66.21
X110.22Y-69.67
X110.22Y-72.21
T4
X23.114Y-49.022
X23.114Y-53.522
X31.496Y-21.895
X31.496Y-24.435
X31.496Y-26.975
X31.496Y-29.515
X31.496Y-32.055
X31.496Y-34.595
X31.496Y-37.135
X31.496Y-39.675
X31.496Y-42.215
X31.496Y-44.755
X31.496Y-47.295
X31.496Y-49.835
X31.496Y-52.375
X31.496Y-54.915
X31.496Y-57.455
X31.496Y-59.995
X31.496Y-62.535
X31.496Y-65.075
X31.496Y-67.615
X31.496Y-70.155
X49.276Y-21.895
X49.276Y-24.435
X49.276Y-26.975
X49.276Y-29.515
X49.276Y-32.055
X49.276Y-34.595
X49.276Y-37.135
X49.276Y-39.675
X49.276Y-42.215
X49.276Y-44.755
X49.276Y-47.295
X49.276Y-49.835
X49.276Y-52.375
X49.276Y-54.915
X49.276Y-57.455
X49.276Y-59.995
X49.276Y-62.535
X49.276Y-65.075
X49.276Y-67.615
X49.276Y-70.155
X61.519Y-21.895
X61.519Y-24.435
X61.519Y-26.975
X61.519Y-29.515
X61.519Y-32.055
X61.519Y-34.595
X61.519Y-37.135
X61.519Y-39.675
X61.519Y-42.215
X61.519Y-44.755
X61.519Y-47.295
X61.519Y-49.835
X61.519Y-52.375
X61.519Y-54.915
X61.519Y-57.455
X61.519Y-59.995
X61.519Y-62.535
X61.519Y-65.075
X61.519Y-67.615
X61.519Y-70.155
X79.299Y-21.895
X79.299Y-24.435
X79.299Y-26.975
X79.299Y-29.515
X79.299Y-32.055
X79.299Y-34.595
X79.299Y-37.135
X79.299Y-39.675
X79.299Y-42.215
X79.299Y-44.755
X79.299Y-47.295
X79.299Y-49.835
X79.299Y-52.375
X79.299Y-54.915
X79.299Y-57.455
X79.299Y-59.995
X79.299Y-62.535
X79.299Y-65.075
X79.299Y-67.615
X79.299Y-70.155
X89.92Y-89.514
X91.305Y-92.354
X92.69Y-89.514
X94.075Y-92.354
X95.46Y-89.514
X96.845Y-92.354
X98.23Y-89.514
X99.615Y-92.354
X101.0Y-89.514
T5
X25.614Y-47.772
X25.614Y-54.772
T6
X82.96Y-90.934
X107.96Y-90.934
T4
X103.582Y-30.179G85X103.582Y-27.979
G05
X109.482Y-25.679G85X107.282Y-25.679
G05
X109.682Y-31.979G85X107.082Y-31.979
G05
T0
M30
