%TF.GenerationSoftware,KiCad,Pcbnew,7.0.2*%
%TF.CreationDate,2023-05-08T05:29:39+09:00*%
%TF.ProjectId,pcb,7063622e-6b69-4636-9164-5f7063625858,rev?*%
%TF.SameCoordinates,Original*%
%TF.FileFunction,Drillmap*%
%TF.FilePolarity,Positive*%
%FSLAX45Y45*%
G04 Gerber Fmt 4.5, Leading zero omitted, Abs format (unit mm)*
G04 Created by KiCad (PCBNEW 7.0.2) date 2023-05-08 05:29:39*
%MOMM*%
%LPD*%
G01*
G04 APERTURE LIST*
%ADD10C,0.100000*%
%ADD11C,0.200000*%
%ADD12C,0.040000*%
%ADD13C,0.085000*%
%ADD14C,0.090000*%
%ADD15C,0.150000*%
%ADD16C,0.320000*%
G04 APERTURE END LIST*
D10*
X11860000Y-9100000D02*
G75*
G03*
X11860000Y-9100000I-160000J0D01*
G01*
X2460000Y-9100000D02*
G75*
G03*
X2460000Y-9100000I-160000J0D01*
G01*
X2460000Y-2600000D02*
G75*
G03*
X2460000Y-2600000I-160000J0D01*
G01*
X11860000Y-2600000D02*
G75*
G03*
X11860000Y-2600000I-160000J0D01*
G01*
X2000000Y-2000000D02*
X12000000Y-2000000D01*
X12000000Y-9600000D01*
X2000000Y-9600000D01*
X2000000Y-2000000D01*
D11*
D12*
X4435160Y-7488240D02*
X4475160Y-7528240D01*
X4475160Y-7488240D02*
X4435160Y-7528240D01*
X5593400Y-3043240D02*
X5633400Y-3083240D01*
X5633400Y-3043240D02*
X5593400Y-3083240D01*
X5938840Y-7833680D02*
X5978840Y-7873680D01*
X5978840Y-7833680D02*
X5938840Y-7873680D01*
X7168200Y-8362000D02*
X7208200Y-8402000D01*
X7208200Y-8362000D02*
X7168200Y-8402000D01*
X7168200Y-8514400D02*
X7208200Y-8554400D01*
X7208200Y-8514400D02*
X7168200Y-8554400D01*
X7168200Y-8666800D02*
X7208200Y-8706800D01*
X7208200Y-8666800D02*
X7168200Y-8706800D01*
X8849680Y-5481640D02*
X8889680Y-5521640D01*
X8889680Y-5481640D02*
X8849680Y-5521640D01*
X9102300Y-4132660D02*
X9142300Y-4172660D01*
X9142300Y-4132660D02*
X9102300Y-4172660D01*
X9102300Y-4777820D02*
X9142300Y-4817820D01*
X9142300Y-4777820D02*
X9102300Y-4817820D01*
X9257240Y-6225620D02*
X9297240Y-6265620D01*
X9297240Y-6225620D02*
X9257240Y-6265620D01*
X9750000Y-5331540D02*
X9790000Y-5371540D01*
X9790000Y-5331540D02*
X9750000Y-5371540D01*
X9902400Y-6002100D02*
X9942400Y-6042100D01*
X9942400Y-6002100D02*
X9902400Y-6042100D01*
X10033320Y-6385880D02*
X10073320Y-6425880D01*
X10073320Y-6385880D02*
X10033320Y-6425880D01*
X10108140Y-5331540D02*
X10148140Y-5371540D01*
X10148140Y-5331540D02*
X10108140Y-5371540D01*
X11130600Y-8362000D02*
X11170600Y-8402000D01*
X11170600Y-8362000D02*
X11130600Y-8402000D01*
X11333800Y-8514400D02*
X11373800Y-8554400D01*
X11373800Y-8514400D02*
X11333800Y-8554400D01*
X11486200Y-8666800D02*
X11526200Y-8706800D01*
X11526200Y-8666800D02*
X11486200Y-8706800D01*
D13*
X9439960Y-2401800D02*
G75*
G03*
X9439960Y-2401800I-42500J0D01*
G01*
X9689960Y-2401800D02*
G75*
G03*
X9689960Y-2401800I-42500J0D01*
G01*
D14*
X11022000Y-5722000D02*
X11022000Y-5812000D01*
X10977000Y-5767000D02*
X11067000Y-5767000D01*
X11022000Y-5976000D02*
X11022000Y-6066000D01*
X10977000Y-6021000D02*
X11067000Y-6021000D01*
X11022000Y-6322000D02*
X11022000Y-6412000D01*
X10977000Y-6367000D02*
X11067000Y-6367000D01*
X11022000Y-6576000D02*
X11022000Y-6666000D01*
X10977000Y-6621000D02*
X11067000Y-6621000D01*
X11022000Y-6922000D02*
X11022000Y-7012000D01*
X10977000Y-6967000D02*
X11067000Y-6967000D01*
X11022000Y-7176000D02*
X11022000Y-7266000D01*
X10977000Y-7221000D02*
X11067000Y-7221000D01*
D10*
X2346756Y-4937556D02*
X2346756Y-4866844D01*
X2276044Y-4866844D01*
X2276044Y-4937556D01*
X2346756Y-4937556D01*
X2346756Y-5387556D02*
X2346756Y-5316844D01*
X2276044Y-5316844D01*
X2276044Y-5387556D01*
X2346756Y-5387556D01*
X3184956Y-2224836D02*
X3184956Y-2154124D01*
X3114244Y-2154124D01*
X3114244Y-2224836D01*
X3184956Y-2224836D01*
X3184956Y-2478836D02*
X3184956Y-2408124D01*
X3114244Y-2408124D01*
X3114244Y-2478836D01*
X3184956Y-2478836D01*
X3184956Y-2732836D02*
X3184956Y-2662124D01*
X3114244Y-2662124D01*
X3114244Y-2732836D01*
X3184956Y-2732836D01*
X3184956Y-2986836D02*
X3184956Y-2916124D01*
X3114244Y-2916124D01*
X3114244Y-2986836D01*
X3184956Y-2986836D01*
X3184956Y-3240836D02*
X3184956Y-3170124D01*
X3114244Y-3170124D01*
X3114244Y-3240836D01*
X3184956Y-3240836D01*
X3184956Y-3494836D02*
X3184956Y-3424124D01*
X3114244Y-3424124D01*
X3114244Y-3494836D01*
X3184956Y-3494836D01*
X3184956Y-3748836D02*
X3184956Y-3678124D01*
X3114244Y-3678124D01*
X3114244Y-3748836D01*
X3184956Y-3748836D01*
X3184956Y-4002836D02*
X3184956Y-3932124D01*
X3114244Y-3932124D01*
X3114244Y-4002836D01*
X3184956Y-4002836D01*
X3184956Y-4256836D02*
X3184956Y-4186124D01*
X3114244Y-4186124D01*
X3114244Y-4256836D01*
X3184956Y-4256836D01*
X3184956Y-4510836D02*
X3184956Y-4440124D01*
X3114244Y-4440124D01*
X3114244Y-4510836D01*
X3184956Y-4510836D01*
X3184956Y-4764836D02*
X3184956Y-4694124D01*
X3114244Y-4694124D01*
X3114244Y-4764836D01*
X3184956Y-4764836D01*
X3184956Y-5018836D02*
X3184956Y-4948124D01*
X3114244Y-4948124D01*
X3114244Y-5018836D01*
X3184956Y-5018836D01*
X3184956Y-5272836D02*
X3184956Y-5202124D01*
X3114244Y-5202124D01*
X3114244Y-5272836D01*
X3184956Y-5272836D01*
X3184956Y-5526836D02*
X3184956Y-5456124D01*
X3114244Y-5456124D01*
X3114244Y-5526836D01*
X3184956Y-5526836D01*
X3184956Y-5780836D02*
X3184956Y-5710124D01*
X3114244Y-5710124D01*
X3114244Y-5780836D01*
X3184956Y-5780836D01*
X3184956Y-6034836D02*
X3184956Y-5964124D01*
X3114244Y-5964124D01*
X3114244Y-6034836D01*
X3184956Y-6034836D01*
X3184956Y-6288836D02*
X3184956Y-6218124D01*
X3114244Y-6218124D01*
X3114244Y-6288836D01*
X3184956Y-6288836D01*
X3184956Y-6542836D02*
X3184956Y-6472124D01*
X3114244Y-6472124D01*
X3114244Y-6542836D01*
X3184956Y-6542836D01*
X3184956Y-6796836D02*
X3184956Y-6726124D01*
X3114244Y-6726124D01*
X3114244Y-6796836D01*
X3184956Y-6796836D01*
X3184956Y-7050836D02*
X3184956Y-6980124D01*
X3114244Y-6980124D01*
X3114244Y-7050836D01*
X3184956Y-7050836D01*
X4962956Y-2224836D02*
X4962956Y-2154124D01*
X4892244Y-2154124D01*
X4892244Y-2224836D01*
X4962956Y-2224836D01*
X4962956Y-2478836D02*
X4962956Y-2408124D01*
X4892244Y-2408124D01*
X4892244Y-2478836D01*
X4962956Y-2478836D01*
X4962956Y-2732836D02*
X4962956Y-2662124D01*
X4892244Y-2662124D01*
X4892244Y-2732836D01*
X4962956Y-2732836D01*
X4962956Y-2986836D02*
X4962956Y-2916124D01*
X4892244Y-2916124D01*
X4892244Y-2986836D01*
X4962956Y-2986836D01*
X4962956Y-3240836D02*
X4962956Y-3170124D01*
X4892244Y-3170124D01*
X4892244Y-3240836D01*
X4962956Y-3240836D01*
X4962956Y-3494836D02*
X4962956Y-3424124D01*
X4892244Y-3424124D01*
X4892244Y-3494836D01*
X4962956Y-3494836D01*
X4962956Y-3748836D02*
X4962956Y-3678124D01*
X4892244Y-3678124D01*
X4892244Y-3748836D01*
X4962956Y-3748836D01*
X4962956Y-4002836D02*
X4962956Y-3932124D01*
X4892244Y-3932124D01*
X4892244Y-4002836D01*
X4962956Y-4002836D01*
X4962956Y-4256836D02*
X4962956Y-4186124D01*
X4892244Y-4186124D01*
X4892244Y-4256836D01*
X4962956Y-4256836D01*
X4962956Y-4510836D02*
X4962956Y-4440124D01*
X4892244Y-4440124D01*
X4892244Y-4510836D01*
X4962956Y-4510836D01*
X4962956Y-4764836D02*
X4962956Y-4694124D01*
X4892244Y-4694124D01*
X4892244Y-4764836D01*
X4962956Y-4764836D01*
X4962956Y-5018836D02*
X4962956Y-4948124D01*
X4892244Y-4948124D01*
X4892244Y-5018836D01*
X4962956Y-5018836D01*
X4962956Y-5272836D02*
X4962956Y-5202124D01*
X4892244Y-5202124D01*
X4892244Y-5272836D01*
X4962956Y-5272836D01*
X4962956Y-5526836D02*
X4962956Y-5456124D01*
X4892244Y-5456124D01*
X4892244Y-5526836D01*
X4962956Y-5526836D01*
X4962956Y-5780836D02*
X4962956Y-5710124D01*
X4892244Y-5710124D01*
X4892244Y-5780836D01*
X4962956Y-5780836D01*
X4962956Y-6034836D02*
X4962956Y-5964124D01*
X4892244Y-5964124D01*
X4892244Y-6034836D01*
X4962956Y-6034836D01*
X4962956Y-6288836D02*
X4962956Y-6218124D01*
X4892244Y-6218124D01*
X4892244Y-6288836D01*
X4962956Y-6288836D01*
X4962956Y-6542836D02*
X4962956Y-6472124D01*
X4892244Y-6472124D01*
X4892244Y-6542836D01*
X4962956Y-6542836D01*
X4962956Y-6796836D02*
X4962956Y-6726124D01*
X4892244Y-6726124D01*
X4892244Y-6796836D01*
X4962956Y-6796836D01*
X4962956Y-7050836D02*
X4962956Y-6980124D01*
X4892244Y-6980124D01*
X4892244Y-7050836D01*
X4962956Y-7050836D01*
X6187236Y-2224836D02*
X6187236Y-2154124D01*
X6116524Y-2154124D01*
X6116524Y-2224836D01*
X6187236Y-2224836D01*
X6187236Y-2478836D02*
X6187236Y-2408124D01*
X6116524Y-2408124D01*
X6116524Y-2478836D01*
X6187236Y-2478836D01*
X6187236Y-2732836D02*
X6187236Y-2662124D01*
X6116524Y-2662124D01*
X6116524Y-2732836D01*
X6187236Y-2732836D01*
X6187236Y-2986836D02*
X6187236Y-2916124D01*
X6116524Y-2916124D01*
X6116524Y-2986836D01*
X6187236Y-2986836D01*
X6187236Y-3240836D02*
X6187236Y-3170124D01*
X6116524Y-3170124D01*
X6116524Y-3240836D01*
X6187236Y-3240836D01*
X6187236Y-3494836D02*
X6187236Y-3424124D01*
X6116524Y-3424124D01*
X6116524Y-3494836D01*
X6187236Y-3494836D01*
X6187236Y-3748836D02*
X6187236Y-3678124D01*
X6116524Y-3678124D01*
X6116524Y-3748836D01*
X6187236Y-3748836D01*
X6187236Y-4002836D02*
X6187236Y-3932124D01*
X6116524Y-3932124D01*
X6116524Y-4002836D01*
X6187236Y-4002836D01*
X6187236Y-4256836D02*
X6187236Y-4186124D01*
X6116524Y-4186124D01*
X6116524Y-4256836D01*
X6187236Y-4256836D01*
X6187236Y-4510836D02*
X6187236Y-4440124D01*
X6116524Y-4440124D01*
X6116524Y-4510836D01*
X6187236Y-4510836D01*
X6187236Y-4764836D02*
X6187236Y-4694124D01*
X6116524Y-4694124D01*
X6116524Y-4764836D01*
X6187236Y-4764836D01*
X6187236Y-5018836D02*
X6187236Y-4948124D01*
X6116524Y-4948124D01*
X6116524Y-5018836D01*
X6187236Y-5018836D01*
X6187236Y-5272836D02*
X6187236Y-5202124D01*
X6116524Y-5202124D01*
X6116524Y-5272836D01*
X6187236Y-5272836D01*
X6187236Y-5526836D02*
X6187236Y-5456124D01*
X6116524Y-5456124D01*
X6116524Y-5526836D01*
X6187236Y-5526836D01*
X6187236Y-5780836D02*
X6187236Y-5710124D01*
X6116524Y-5710124D01*
X6116524Y-5780836D01*
X6187236Y-5780836D01*
X6187236Y-6034836D02*
X6187236Y-5964124D01*
X6116524Y-5964124D01*
X6116524Y-6034836D01*
X6187236Y-6034836D01*
X6187236Y-6288836D02*
X6187236Y-6218124D01*
X6116524Y-6218124D01*
X6116524Y-6288836D01*
X6187236Y-6288836D01*
X6187236Y-6542836D02*
X6187236Y-6472124D01*
X6116524Y-6472124D01*
X6116524Y-6542836D01*
X6187236Y-6542836D01*
X6187236Y-6796836D02*
X6187236Y-6726124D01*
X6116524Y-6726124D01*
X6116524Y-6796836D01*
X6187236Y-6796836D01*
X6187236Y-7050836D02*
X6187236Y-6980124D01*
X6116524Y-6980124D01*
X6116524Y-7050836D01*
X6187236Y-7050836D01*
X7965236Y-2224836D02*
X7965236Y-2154124D01*
X7894524Y-2154124D01*
X7894524Y-2224836D01*
X7965236Y-2224836D01*
X7965236Y-2478836D02*
X7965236Y-2408124D01*
X7894524Y-2408124D01*
X7894524Y-2478836D01*
X7965236Y-2478836D01*
X7965236Y-2732836D02*
X7965236Y-2662124D01*
X7894524Y-2662124D01*
X7894524Y-2732836D01*
X7965236Y-2732836D01*
X7965236Y-2986836D02*
X7965236Y-2916124D01*
X7894524Y-2916124D01*
X7894524Y-2986836D01*
X7965236Y-2986836D01*
X7965236Y-3240836D02*
X7965236Y-3170124D01*
X7894524Y-3170124D01*
X7894524Y-3240836D01*
X7965236Y-3240836D01*
X7965236Y-3494836D02*
X7965236Y-3424124D01*
X7894524Y-3424124D01*
X7894524Y-3494836D01*
X7965236Y-3494836D01*
X7965236Y-3748836D02*
X7965236Y-3678124D01*
X7894524Y-3678124D01*
X7894524Y-3748836D01*
X7965236Y-3748836D01*
X7965236Y-4002836D02*
X7965236Y-3932124D01*
X7894524Y-3932124D01*
X7894524Y-4002836D01*
X7965236Y-4002836D01*
X7965236Y-4256836D02*
X7965236Y-4186124D01*
X7894524Y-4186124D01*
X7894524Y-4256836D01*
X7965236Y-4256836D01*
X7965236Y-4510836D02*
X7965236Y-4440124D01*
X7894524Y-4440124D01*
X7894524Y-4510836D01*
X7965236Y-4510836D01*
X7965236Y-4764836D02*
X7965236Y-4694124D01*
X7894524Y-4694124D01*
X7894524Y-4764836D01*
X7965236Y-4764836D01*
X7965236Y-5018836D02*
X7965236Y-4948124D01*
X7894524Y-4948124D01*
X7894524Y-5018836D01*
X7965236Y-5018836D01*
X7965236Y-5272836D02*
X7965236Y-5202124D01*
X7894524Y-5202124D01*
X7894524Y-5272836D01*
X7965236Y-5272836D01*
X7965236Y-5526836D02*
X7965236Y-5456124D01*
X7894524Y-5456124D01*
X7894524Y-5526836D01*
X7965236Y-5526836D01*
X7965236Y-5780836D02*
X7965236Y-5710124D01*
X7894524Y-5710124D01*
X7894524Y-5780836D01*
X7965236Y-5780836D01*
X7965236Y-6034836D02*
X7965236Y-5964124D01*
X7894524Y-5964124D01*
X7894524Y-6034836D01*
X7965236Y-6034836D01*
X7965236Y-6288836D02*
X7965236Y-6218124D01*
X7894524Y-6218124D01*
X7894524Y-6288836D01*
X7965236Y-6288836D01*
X7965236Y-6542836D02*
X7965236Y-6472124D01*
X7894524Y-6472124D01*
X7894524Y-6542836D01*
X7965236Y-6542836D01*
X7965236Y-6796836D02*
X7965236Y-6726124D01*
X7894524Y-6726124D01*
X7894524Y-6796836D01*
X7965236Y-6796836D01*
X7965236Y-7050836D02*
X7965236Y-6980124D01*
X7894524Y-6980124D01*
X7894524Y-7050836D01*
X7965236Y-7050836D01*
X9027356Y-8986746D02*
X9027356Y-8916034D01*
X8956644Y-8916034D01*
X8956644Y-8986746D01*
X9027356Y-8986746D01*
X9165856Y-9270746D02*
X9165856Y-9200034D01*
X9095144Y-9200034D01*
X9095144Y-9270746D01*
X9165856Y-9270746D01*
X9304356Y-8986746D02*
X9304356Y-8916034D01*
X9233644Y-8916034D01*
X9233644Y-8986746D01*
X9304356Y-8986746D01*
X9442856Y-9270746D02*
X9442856Y-9200034D01*
X9372144Y-9200034D01*
X9372144Y-9270746D01*
X9442856Y-9270746D01*
X9581356Y-8986746D02*
X9581356Y-8916034D01*
X9510644Y-8916034D01*
X9510644Y-8986746D01*
X9581356Y-8986746D01*
X9719856Y-9270746D02*
X9719856Y-9200034D01*
X9649144Y-9200034D01*
X9649144Y-9270746D01*
X9719856Y-9270746D01*
X9858356Y-8986746D02*
X9858356Y-8916034D01*
X9787644Y-8916034D01*
X9787644Y-8986746D01*
X9858356Y-8986746D01*
X9996856Y-9270746D02*
X9996856Y-9200034D01*
X9926144Y-9200034D01*
X9926144Y-9270746D01*
X9996856Y-9270746D01*
X10135356Y-8986746D02*
X10135356Y-8916034D01*
X10064644Y-8916034D01*
X10064644Y-8986746D01*
X10135356Y-8986746D01*
X10393536Y-2943296D02*
X10393536Y-2872584D01*
X10322824Y-2872584D01*
X10322824Y-2943296D01*
X10393536Y-2943296D01*
D11*
X10408180Y-3017940D02*
X10408180Y-2797940D01*
X10408180Y-2797940D02*
G75*
G03*
X10308180Y-2797940I-50000J0D01*
G01*
X10308180Y-2797940D02*
X10308180Y-3017940D01*
X10308180Y-3017940D02*
G75*
G03*
X10408180Y-3017940I50000J0D01*
G01*
D10*
X10873536Y-2603296D02*
X10873536Y-2532584D01*
X10802824Y-2532584D01*
X10802824Y-2603296D01*
X10873536Y-2603296D01*
D11*
X10948180Y-2517940D02*
X10728180Y-2517940D01*
X10728180Y-2517940D02*
G75*
G03*
X10728180Y-2617940I0J-50000D01*
G01*
X10728180Y-2617940D02*
X10948180Y-2617940D01*
X10948180Y-2617940D02*
G75*
G03*
X10948180Y-2517940I0J50000D01*
G01*
D10*
X10873536Y-3233296D02*
X10873536Y-3162584D01*
X10802824Y-3162584D01*
X10802824Y-3233296D01*
X10873536Y-3233296D01*
D11*
X10968180Y-3147940D02*
X10708180Y-3147940D01*
X10708180Y-3147940D02*
G75*
G03*
X10708180Y-3247940I0J-50000D01*
G01*
X10708180Y-3247940D02*
X10968180Y-3247940D01*
X10968180Y-3247940D02*
G75*
G03*
X10968180Y-3147940I0J50000D01*
G01*
D15*
X2561400Y-4852200D02*
X2636400Y-4777200D01*
X2561400Y-4702200D01*
X2486400Y-4777200D01*
X2561400Y-4852200D01*
X2561400Y-5552200D02*
X2636400Y-5477200D01*
X2561400Y-5402200D01*
X2486400Y-5477200D01*
X2561400Y-5552200D01*
D16*
X8136000Y-8933390D02*
X8456000Y-9253390D01*
X8456000Y-8933390D02*
X8136000Y-9253390D01*
X8456000Y-9093390D02*
G75*
G03*
X8456000Y-9093390I-160000J0D01*
G01*
X10636000Y-8933390D02*
X10956000Y-9253390D01*
X10956000Y-8933390D02*
X10636000Y-9253390D01*
X10956000Y-9093390D02*
G75*
G03*
X10956000Y-9093390I-160000J0D01*
G01*
D11*
X2242619Y-9917524D02*
X2242619Y-9717524D01*
X2242619Y-9717524D02*
X2290238Y-9717524D01*
X2290238Y-9717524D02*
X2318810Y-9727048D01*
X2318810Y-9727048D02*
X2337857Y-9746095D01*
X2337857Y-9746095D02*
X2347381Y-9765143D01*
X2347381Y-9765143D02*
X2356905Y-9803238D01*
X2356905Y-9803238D02*
X2356905Y-9831810D01*
X2356905Y-9831810D02*
X2347381Y-9869905D01*
X2347381Y-9869905D02*
X2337857Y-9888952D01*
X2337857Y-9888952D02*
X2318810Y-9908000D01*
X2318810Y-9908000D02*
X2290238Y-9917524D01*
X2290238Y-9917524D02*
X2242619Y-9917524D01*
X2442619Y-9917524D02*
X2442619Y-9784190D01*
X2442619Y-9822286D02*
X2452143Y-9803238D01*
X2452143Y-9803238D02*
X2461667Y-9793714D01*
X2461667Y-9793714D02*
X2480714Y-9784190D01*
X2480714Y-9784190D02*
X2499762Y-9784190D01*
X2566429Y-9917524D02*
X2566429Y-9784190D01*
X2566429Y-9717524D02*
X2556905Y-9727048D01*
X2556905Y-9727048D02*
X2566429Y-9736571D01*
X2566429Y-9736571D02*
X2575952Y-9727048D01*
X2575952Y-9727048D02*
X2566429Y-9717524D01*
X2566429Y-9717524D02*
X2566429Y-9736571D01*
X2690238Y-9917524D02*
X2671190Y-9908000D01*
X2671190Y-9908000D02*
X2661667Y-9888952D01*
X2661667Y-9888952D02*
X2661667Y-9717524D01*
X2795000Y-9917524D02*
X2775952Y-9908000D01*
X2775952Y-9908000D02*
X2766429Y-9888952D01*
X2766429Y-9888952D02*
X2766429Y-9717524D01*
X3023571Y-9917524D02*
X3023571Y-9717524D01*
X3023571Y-9717524D02*
X3090238Y-9860381D01*
X3090238Y-9860381D02*
X3156905Y-9717524D01*
X3156905Y-9717524D02*
X3156905Y-9917524D01*
X3337857Y-9917524D02*
X3337857Y-9812762D01*
X3337857Y-9812762D02*
X3328333Y-9793714D01*
X3328333Y-9793714D02*
X3309286Y-9784190D01*
X3309286Y-9784190D02*
X3271190Y-9784190D01*
X3271190Y-9784190D02*
X3252143Y-9793714D01*
X3337857Y-9908000D02*
X3318809Y-9917524D01*
X3318809Y-9917524D02*
X3271190Y-9917524D01*
X3271190Y-9917524D02*
X3252143Y-9908000D01*
X3252143Y-9908000D02*
X3242619Y-9888952D01*
X3242619Y-9888952D02*
X3242619Y-9869905D01*
X3242619Y-9869905D02*
X3252143Y-9850857D01*
X3252143Y-9850857D02*
X3271190Y-9841333D01*
X3271190Y-9841333D02*
X3318809Y-9841333D01*
X3318809Y-9841333D02*
X3337857Y-9831810D01*
X3433095Y-9784190D02*
X3433095Y-9984190D01*
X3433095Y-9793714D02*
X3452143Y-9784190D01*
X3452143Y-9784190D02*
X3490238Y-9784190D01*
X3490238Y-9784190D02*
X3509286Y-9793714D01*
X3509286Y-9793714D02*
X3518809Y-9803238D01*
X3518809Y-9803238D02*
X3528333Y-9822286D01*
X3528333Y-9822286D02*
X3528333Y-9879429D01*
X3528333Y-9879429D02*
X3518809Y-9898476D01*
X3518809Y-9898476D02*
X3509286Y-9908000D01*
X3509286Y-9908000D02*
X3490238Y-9917524D01*
X3490238Y-9917524D02*
X3452143Y-9917524D01*
X3452143Y-9917524D02*
X3433095Y-9908000D01*
X3614048Y-9898476D02*
X3623571Y-9908000D01*
X3623571Y-9908000D02*
X3614048Y-9917524D01*
X3614048Y-9917524D02*
X3604524Y-9908000D01*
X3604524Y-9908000D02*
X3614048Y-9898476D01*
X3614048Y-9898476D02*
X3614048Y-9917524D01*
X3614048Y-9793714D02*
X3623571Y-9803238D01*
X3623571Y-9803238D02*
X3614048Y-9812762D01*
X3614048Y-9812762D02*
X3604524Y-9803238D01*
X3604524Y-9803238D02*
X3614048Y-9793714D01*
X3614048Y-9793714D02*
X3614048Y-9812762D01*
D12*
X1955000Y-10225000D02*
X1995000Y-10265000D01*
X1995000Y-10225000D02*
X1955000Y-10265000D01*
D11*
X2280714Y-10137524D02*
X2299762Y-10137524D01*
X2299762Y-10137524D02*
X2318810Y-10147048D01*
X2318810Y-10147048D02*
X2328333Y-10156571D01*
X2328333Y-10156571D02*
X2337857Y-10175619D01*
X2337857Y-10175619D02*
X2347381Y-10213714D01*
X2347381Y-10213714D02*
X2347381Y-10261333D01*
X2347381Y-10261333D02*
X2337857Y-10299429D01*
X2337857Y-10299429D02*
X2328333Y-10318476D01*
X2328333Y-10318476D02*
X2318810Y-10328000D01*
X2318810Y-10328000D02*
X2299762Y-10337524D01*
X2299762Y-10337524D02*
X2280714Y-10337524D01*
X2280714Y-10337524D02*
X2261667Y-10328000D01*
X2261667Y-10328000D02*
X2252143Y-10318476D01*
X2252143Y-10318476D02*
X2242619Y-10299429D01*
X2242619Y-10299429D02*
X2233095Y-10261333D01*
X2233095Y-10261333D02*
X2233095Y-10213714D01*
X2233095Y-10213714D02*
X2242619Y-10175619D01*
X2242619Y-10175619D02*
X2252143Y-10156571D01*
X2252143Y-10156571D02*
X2261667Y-10147048D01*
X2261667Y-10147048D02*
X2280714Y-10137524D01*
X2433095Y-10318476D02*
X2442619Y-10328000D01*
X2442619Y-10328000D02*
X2433095Y-10337524D01*
X2433095Y-10337524D02*
X2423571Y-10328000D01*
X2423571Y-10328000D02*
X2433095Y-10318476D01*
X2433095Y-10318476D02*
X2433095Y-10337524D01*
X2614048Y-10204190D02*
X2614048Y-10337524D01*
X2566429Y-10128000D02*
X2518810Y-10270857D01*
X2518810Y-10270857D02*
X2642619Y-10270857D01*
X2756905Y-10137524D02*
X2775952Y-10137524D01*
X2775952Y-10137524D02*
X2795000Y-10147048D01*
X2795000Y-10147048D02*
X2804524Y-10156571D01*
X2804524Y-10156571D02*
X2814048Y-10175619D01*
X2814048Y-10175619D02*
X2823571Y-10213714D01*
X2823571Y-10213714D02*
X2823571Y-10261333D01*
X2823571Y-10261333D02*
X2814048Y-10299429D01*
X2814048Y-10299429D02*
X2804524Y-10318476D01*
X2804524Y-10318476D02*
X2795000Y-10328000D01*
X2795000Y-10328000D02*
X2775952Y-10337524D01*
X2775952Y-10337524D02*
X2756905Y-10337524D01*
X2756905Y-10337524D02*
X2737857Y-10328000D01*
X2737857Y-10328000D02*
X2728333Y-10318476D01*
X2728333Y-10318476D02*
X2718810Y-10299429D01*
X2718810Y-10299429D02*
X2709286Y-10261333D01*
X2709286Y-10261333D02*
X2709286Y-10213714D01*
X2709286Y-10213714D02*
X2718810Y-10175619D01*
X2718810Y-10175619D02*
X2728333Y-10156571D01*
X2728333Y-10156571D02*
X2737857Y-10147048D01*
X2737857Y-10147048D02*
X2756905Y-10137524D01*
X2947381Y-10137524D02*
X2966429Y-10137524D01*
X2966429Y-10137524D02*
X2985476Y-10147048D01*
X2985476Y-10147048D02*
X2995000Y-10156571D01*
X2995000Y-10156571D02*
X3004524Y-10175619D01*
X3004524Y-10175619D02*
X3014048Y-10213714D01*
X3014048Y-10213714D02*
X3014048Y-10261333D01*
X3014048Y-10261333D02*
X3004524Y-10299429D01*
X3004524Y-10299429D02*
X2995000Y-10318476D01*
X2995000Y-10318476D02*
X2985476Y-10328000D01*
X2985476Y-10328000D02*
X2966429Y-10337524D01*
X2966429Y-10337524D02*
X2947381Y-10337524D01*
X2947381Y-10337524D02*
X2928333Y-10328000D01*
X2928333Y-10328000D02*
X2918809Y-10318476D01*
X2918809Y-10318476D02*
X2909286Y-10299429D01*
X2909286Y-10299429D02*
X2899762Y-10261333D01*
X2899762Y-10261333D02*
X2899762Y-10213714D01*
X2899762Y-10213714D02*
X2909286Y-10175619D01*
X2909286Y-10175619D02*
X2918809Y-10156571D01*
X2918809Y-10156571D02*
X2928333Y-10147048D01*
X2928333Y-10147048D02*
X2947381Y-10137524D01*
X3099762Y-10337524D02*
X3099762Y-10204190D01*
X3099762Y-10223238D02*
X3109286Y-10213714D01*
X3109286Y-10213714D02*
X3128333Y-10204190D01*
X3128333Y-10204190D02*
X3156905Y-10204190D01*
X3156905Y-10204190D02*
X3175952Y-10213714D01*
X3175952Y-10213714D02*
X3185476Y-10232762D01*
X3185476Y-10232762D02*
X3185476Y-10337524D01*
X3185476Y-10232762D02*
X3195000Y-10213714D01*
X3195000Y-10213714D02*
X3214048Y-10204190D01*
X3214048Y-10204190D02*
X3242619Y-10204190D01*
X3242619Y-10204190D02*
X3261667Y-10213714D01*
X3261667Y-10213714D02*
X3271190Y-10232762D01*
X3271190Y-10232762D02*
X3271190Y-10337524D01*
X3366429Y-10337524D02*
X3366429Y-10204190D01*
X3366429Y-10223238D02*
X3375952Y-10213714D01*
X3375952Y-10213714D02*
X3395000Y-10204190D01*
X3395000Y-10204190D02*
X3423571Y-10204190D01*
X3423571Y-10204190D02*
X3442619Y-10213714D01*
X3442619Y-10213714D02*
X3452143Y-10232762D01*
X3452143Y-10232762D02*
X3452143Y-10337524D01*
X3452143Y-10232762D02*
X3461667Y-10213714D01*
X3461667Y-10213714D02*
X3480714Y-10204190D01*
X3480714Y-10204190D02*
X3509286Y-10204190D01*
X3509286Y-10204190D02*
X3528333Y-10213714D01*
X3528333Y-10213714D02*
X3537857Y-10232762D01*
X3537857Y-10232762D02*
X3537857Y-10337524D01*
X3928333Y-10128000D02*
X3756905Y-10385143D01*
X4185476Y-10137524D02*
X4204524Y-10137524D01*
X4204524Y-10137524D02*
X4223572Y-10147048D01*
X4223572Y-10147048D02*
X4233095Y-10156571D01*
X4233095Y-10156571D02*
X4242619Y-10175619D01*
X4242619Y-10175619D02*
X4252143Y-10213714D01*
X4252143Y-10213714D02*
X4252143Y-10261333D01*
X4252143Y-10261333D02*
X4242619Y-10299429D01*
X4242619Y-10299429D02*
X4233095Y-10318476D01*
X4233095Y-10318476D02*
X4223572Y-10328000D01*
X4223572Y-10328000D02*
X4204524Y-10337524D01*
X4204524Y-10337524D02*
X4185476Y-10337524D01*
X4185476Y-10337524D02*
X4166429Y-10328000D01*
X4166429Y-10328000D02*
X4156905Y-10318476D01*
X4156905Y-10318476D02*
X4147381Y-10299429D01*
X4147381Y-10299429D02*
X4137857Y-10261333D01*
X4137857Y-10261333D02*
X4137857Y-10213714D01*
X4137857Y-10213714D02*
X4147381Y-10175619D01*
X4147381Y-10175619D02*
X4156905Y-10156571D01*
X4156905Y-10156571D02*
X4166429Y-10147048D01*
X4166429Y-10147048D02*
X4185476Y-10137524D01*
X4337857Y-10318476D02*
X4347381Y-10328000D01*
X4347381Y-10328000D02*
X4337857Y-10337524D01*
X4337857Y-10337524D02*
X4328334Y-10328000D01*
X4328334Y-10328000D02*
X4337857Y-10318476D01*
X4337857Y-10318476D02*
X4337857Y-10337524D01*
X4471191Y-10137524D02*
X4490238Y-10137524D01*
X4490238Y-10137524D02*
X4509286Y-10147048D01*
X4509286Y-10147048D02*
X4518810Y-10156571D01*
X4518810Y-10156571D02*
X4528334Y-10175619D01*
X4528334Y-10175619D02*
X4537857Y-10213714D01*
X4537857Y-10213714D02*
X4537857Y-10261333D01*
X4537857Y-10261333D02*
X4528334Y-10299429D01*
X4528334Y-10299429D02*
X4518810Y-10318476D01*
X4518810Y-10318476D02*
X4509286Y-10328000D01*
X4509286Y-10328000D02*
X4490238Y-10337524D01*
X4490238Y-10337524D02*
X4471191Y-10337524D01*
X4471191Y-10337524D02*
X4452143Y-10328000D01*
X4452143Y-10328000D02*
X4442619Y-10318476D01*
X4442619Y-10318476D02*
X4433095Y-10299429D01*
X4433095Y-10299429D02*
X4423572Y-10261333D01*
X4423572Y-10261333D02*
X4423572Y-10213714D01*
X4423572Y-10213714D02*
X4433095Y-10175619D01*
X4433095Y-10175619D02*
X4442619Y-10156571D01*
X4442619Y-10156571D02*
X4452143Y-10147048D01*
X4452143Y-10147048D02*
X4471191Y-10137524D01*
X4728334Y-10337524D02*
X4614048Y-10337524D01*
X4671191Y-10337524D02*
X4671191Y-10137524D01*
X4671191Y-10137524D02*
X4652143Y-10166095D01*
X4652143Y-10166095D02*
X4633095Y-10185143D01*
X4633095Y-10185143D02*
X4614048Y-10194667D01*
X4909286Y-10137524D02*
X4814048Y-10137524D01*
X4814048Y-10137524D02*
X4804524Y-10232762D01*
X4804524Y-10232762D02*
X4814048Y-10223238D01*
X4814048Y-10223238D02*
X4833095Y-10213714D01*
X4833095Y-10213714D02*
X4880715Y-10213714D01*
X4880715Y-10213714D02*
X4899762Y-10223238D01*
X4899762Y-10223238D02*
X4909286Y-10232762D01*
X4909286Y-10232762D02*
X4918810Y-10251810D01*
X4918810Y-10251810D02*
X4918810Y-10299429D01*
X4918810Y-10299429D02*
X4909286Y-10318476D01*
X4909286Y-10318476D02*
X4899762Y-10328000D01*
X4899762Y-10328000D02*
X4880715Y-10337524D01*
X4880715Y-10337524D02*
X4833095Y-10337524D01*
X4833095Y-10337524D02*
X4814048Y-10328000D01*
X4814048Y-10328000D02*
X4804524Y-10318476D01*
X4985476Y-10137524D02*
X5118810Y-10137524D01*
X5118810Y-10137524D02*
X5033095Y-10337524D01*
X5185476Y-10137524D02*
X5185476Y-10175619D01*
X5261667Y-10137524D02*
X5261667Y-10175619D01*
X5556905Y-10413714D02*
X5547381Y-10404190D01*
X5547381Y-10404190D02*
X5528334Y-10375619D01*
X5528334Y-10375619D02*
X5518810Y-10356571D01*
X5518810Y-10356571D02*
X5509286Y-10328000D01*
X5509286Y-10328000D02*
X5499762Y-10280381D01*
X5499762Y-10280381D02*
X5499762Y-10242286D01*
X5499762Y-10242286D02*
X5509286Y-10194667D01*
X5509286Y-10194667D02*
X5518810Y-10166095D01*
X5518810Y-10166095D02*
X5528334Y-10147048D01*
X5528334Y-10147048D02*
X5547381Y-10118476D01*
X5547381Y-10118476D02*
X5556905Y-10108952D01*
X5737857Y-10337524D02*
X5623572Y-10337524D01*
X5680714Y-10337524D02*
X5680714Y-10137524D01*
X5680714Y-10137524D02*
X5661667Y-10166095D01*
X5661667Y-10166095D02*
X5642619Y-10185143D01*
X5642619Y-10185143D02*
X5623572Y-10194667D01*
X5804524Y-10137524D02*
X5937857Y-10137524D01*
X5937857Y-10137524D02*
X5852143Y-10337524D01*
X6166429Y-10337524D02*
X6166429Y-10137524D01*
X6252143Y-10337524D02*
X6252143Y-10232762D01*
X6252143Y-10232762D02*
X6242619Y-10213714D01*
X6242619Y-10213714D02*
X6223572Y-10204190D01*
X6223572Y-10204190D02*
X6195000Y-10204190D01*
X6195000Y-10204190D02*
X6175953Y-10213714D01*
X6175953Y-10213714D02*
X6166429Y-10223238D01*
X6375953Y-10337524D02*
X6356905Y-10328000D01*
X6356905Y-10328000D02*
X6347381Y-10318476D01*
X6347381Y-10318476D02*
X6337857Y-10299429D01*
X6337857Y-10299429D02*
X6337857Y-10242286D01*
X6337857Y-10242286D02*
X6347381Y-10223238D01*
X6347381Y-10223238D02*
X6356905Y-10213714D01*
X6356905Y-10213714D02*
X6375953Y-10204190D01*
X6375953Y-10204190D02*
X6404524Y-10204190D01*
X6404524Y-10204190D02*
X6423572Y-10213714D01*
X6423572Y-10213714D02*
X6433096Y-10223238D01*
X6433096Y-10223238D02*
X6442619Y-10242286D01*
X6442619Y-10242286D02*
X6442619Y-10299429D01*
X6442619Y-10299429D02*
X6433096Y-10318476D01*
X6433096Y-10318476D02*
X6423572Y-10328000D01*
X6423572Y-10328000D02*
X6404524Y-10337524D01*
X6404524Y-10337524D02*
X6375953Y-10337524D01*
X6556905Y-10337524D02*
X6537857Y-10328000D01*
X6537857Y-10328000D02*
X6528334Y-10308952D01*
X6528334Y-10308952D02*
X6528334Y-10137524D01*
X6709286Y-10328000D02*
X6690238Y-10337524D01*
X6690238Y-10337524D02*
X6652143Y-10337524D01*
X6652143Y-10337524D02*
X6633096Y-10328000D01*
X6633096Y-10328000D02*
X6623572Y-10308952D01*
X6623572Y-10308952D02*
X6623572Y-10232762D01*
X6623572Y-10232762D02*
X6633096Y-10213714D01*
X6633096Y-10213714D02*
X6652143Y-10204190D01*
X6652143Y-10204190D02*
X6690238Y-10204190D01*
X6690238Y-10204190D02*
X6709286Y-10213714D01*
X6709286Y-10213714D02*
X6718810Y-10232762D01*
X6718810Y-10232762D02*
X6718810Y-10251810D01*
X6718810Y-10251810D02*
X6623572Y-10270857D01*
X6795000Y-10328000D02*
X6814048Y-10337524D01*
X6814048Y-10337524D02*
X6852143Y-10337524D01*
X6852143Y-10337524D02*
X6871191Y-10328000D01*
X6871191Y-10328000D02*
X6880715Y-10308952D01*
X6880715Y-10308952D02*
X6880715Y-10299429D01*
X6880715Y-10299429D02*
X6871191Y-10280381D01*
X6871191Y-10280381D02*
X6852143Y-10270857D01*
X6852143Y-10270857D02*
X6823572Y-10270857D01*
X6823572Y-10270857D02*
X6804524Y-10261333D01*
X6804524Y-10261333D02*
X6795000Y-10242286D01*
X6795000Y-10242286D02*
X6795000Y-10232762D01*
X6795000Y-10232762D02*
X6804524Y-10213714D01*
X6804524Y-10213714D02*
X6823572Y-10204190D01*
X6823572Y-10204190D02*
X6852143Y-10204190D01*
X6852143Y-10204190D02*
X6871191Y-10213714D01*
X6947381Y-10413714D02*
X6956905Y-10404190D01*
X6956905Y-10404190D02*
X6975953Y-10375619D01*
X6975953Y-10375619D02*
X6985477Y-10356571D01*
X6985477Y-10356571D02*
X6995000Y-10328000D01*
X6995000Y-10328000D02*
X7004524Y-10280381D01*
X7004524Y-10280381D02*
X7004524Y-10242286D01*
X7004524Y-10242286D02*
X6995000Y-10194667D01*
X6995000Y-10194667D02*
X6985477Y-10166095D01*
X6985477Y-10166095D02*
X6975953Y-10147048D01*
X6975953Y-10147048D02*
X6956905Y-10118476D01*
X6956905Y-10118476D02*
X6947381Y-10108952D01*
D13*
X1995000Y-10509000D02*
G75*
G03*
X1995000Y-10509000I-42500J0D01*
G01*
D11*
X2280714Y-10401524D02*
X2299762Y-10401524D01*
X2299762Y-10401524D02*
X2318810Y-10411048D01*
X2318810Y-10411048D02*
X2328333Y-10420571D01*
X2328333Y-10420571D02*
X2337857Y-10439619D01*
X2337857Y-10439619D02*
X2347381Y-10477714D01*
X2347381Y-10477714D02*
X2347381Y-10525333D01*
X2347381Y-10525333D02*
X2337857Y-10563429D01*
X2337857Y-10563429D02*
X2328333Y-10582476D01*
X2328333Y-10582476D02*
X2318810Y-10592000D01*
X2318810Y-10592000D02*
X2299762Y-10601524D01*
X2299762Y-10601524D02*
X2280714Y-10601524D01*
X2280714Y-10601524D02*
X2261667Y-10592000D01*
X2261667Y-10592000D02*
X2252143Y-10582476D01*
X2252143Y-10582476D02*
X2242619Y-10563429D01*
X2242619Y-10563429D02*
X2233095Y-10525333D01*
X2233095Y-10525333D02*
X2233095Y-10477714D01*
X2233095Y-10477714D02*
X2242619Y-10439619D01*
X2242619Y-10439619D02*
X2252143Y-10420571D01*
X2252143Y-10420571D02*
X2261667Y-10411048D01*
X2261667Y-10411048D02*
X2280714Y-10401524D01*
X2433095Y-10582476D02*
X2442619Y-10592000D01*
X2442619Y-10592000D02*
X2433095Y-10601524D01*
X2433095Y-10601524D02*
X2423571Y-10592000D01*
X2423571Y-10592000D02*
X2433095Y-10582476D01*
X2433095Y-10582476D02*
X2433095Y-10601524D01*
X2556905Y-10487238D02*
X2537857Y-10477714D01*
X2537857Y-10477714D02*
X2528333Y-10468190D01*
X2528333Y-10468190D02*
X2518810Y-10449143D01*
X2518810Y-10449143D02*
X2518810Y-10439619D01*
X2518810Y-10439619D02*
X2528333Y-10420571D01*
X2528333Y-10420571D02*
X2537857Y-10411048D01*
X2537857Y-10411048D02*
X2556905Y-10401524D01*
X2556905Y-10401524D02*
X2595000Y-10401524D01*
X2595000Y-10401524D02*
X2614048Y-10411048D01*
X2614048Y-10411048D02*
X2623571Y-10420571D01*
X2623571Y-10420571D02*
X2633095Y-10439619D01*
X2633095Y-10439619D02*
X2633095Y-10449143D01*
X2633095Y-10449143D02*
X2623571Y-10468190D01*
X2623571Y-10468190D02*
X2614048Y-10477714D01*
X2614048Y-10477714D02*
X2595000Y-10487238D01*
X2595000Y-10487238D02*
X2556905Y-10487238D01*
X2556905Y-10487238D02*
X2537857Y-10496762D01*
X2537857Y-10496762D02*
X2528333Y-10506286D01*
X2528333Y-10506286D02*
X2518810Y-10525333D01*
X2518810Y-10525333D02*
X2518810Y-10563429D01*
X2518810Y-10563429D02*
X2528333Y-10582476D01*
X2528333Y-10582476D02*
X2537857Y-10592000D01*
X2537857Y-10592000D02*
X2556905Y-10601524D01*
X2556905Y-10601524D02*
X2595000Y-10601524D01*
X2595000Y-10601524D02*
X2614048Y-10592000D01*
X2614048Y-10592000D02*
X2623571Y-10582476D01*
X2623571Y-10582476D02*
X2633095Y-10563429D01*
X2633095Y-10563429D02*
X2633095Y-10525333D01*
X2633095Y-10525333D02*
X2623571Y-10506286D01*
X2623571Y-10506286D02*
X2614048Y-10496762D01*
X2614048Y-10496762D02*
X2595000Y-10487238D01*
X2814048Y-10401524D02*
X2718810Y-10401524D01*
X2718810Y-10401524D02*
X2709286Y-10496762D01*
X2709286Y-10496762D02*
X2718810Y-10487238D01*
X2718810Y-10487238D02*
X2737857Y-10477714D01*
X2737857Y-10477714D02*
X2785476Y-10477714D01*
X2785476Y-10477714D02*
X2804524Y-10487238D01*
X2804524Y-10487238D02*
X2814048Y-10496762D01*
X2814048Y-10496762D02*
X2823571Y-10515810D01*
X2823571Y-10515810D02*
X2823571Y-10563429D01*
X2823571Y-10563429D02*
X2814048Y-10582476D01*
X2814048Y-10582476D02*
X2804524Y-10592000D01*
X2804524Y-10592000D02*
X2785476Y-10601524D01*
X2785476Y-10601524D02*
X2737857Y-10601524D01*
X2737857Y-10601524D02*
X2718810Y-10592000D01*
X2718810Y-10592000D02*
X2709286Y-10582476D01*
X2947381Y-10401524D02*
X2966429Y-10401524D01*
X2966429Y-10401524D02*
X2985476Y-10411048D01*
X2985476Y-10411048D02*
X2995000Y-10420571D01*
X2995000Y-10420571D02*
X3004524Y-10439619D01*
X3004524Y-10439619D02*
X3014048Y-10477714D01*
X3014048Y-10477714D02*
X3014048Y-10525333D01*
X3014048Y-10525333D02*
X3004524Y-10563429D01*
X3004524Y-10563429D02*
X2995000Y-10582476D01*
X2995000Y-10582476D02*
X2985476Y-10592000D01*
X2985476Y-10592000D02*
X2966429Y-10601524D01*
X2966429Y-10601524D02*
X2947381Y-10601524D01*
X2947381Y-10601524D02*
X2928333Y-10592000D01*
X2928333Y-10592000D02*
X2918809Y-10582476D01*
X2918809Y-10582476D02*
X2909286Y-10563429D01*
X2909286Y-10563429D02*
X2899762Y-10525333D01*
X2899762Y-10525333D02*
X2899762Y-10477714D01*
X2899762Y-10477714D02*
X2909286Y-10439619D01*
X2909286Y-10439619D02*
X2918809Y-10420571D01*
X2918809Y-10420571D02*
X2928333Y-10411048D01*
X2928333Y-10411048D02*
X2947381Y-10401524D01*
X3099762Y-10601524D02*
X3099762Y-10468190D01*
X3099762Y-10487238D02*
X3109286Y-10477714D01*
X3109286Y-10477714D02*
X3128333Y-10468190D01*
X3128333Y-10468190D02*
X3156905Y-10468190D01*
X3156905Y-10468190D02*
X3175952Y-10477714D01*
X3175952Y-10477714D02*
X3185476Y-10496762D01*
X3185476Y-10496762D02*
X3185476Y-10601524D01*
X3185476Y-10496762D02*
X3195000Y-10477714D01*
X3195000Y-10477714D02*
X3214048Y-10468190D01*
X3214048Y-10468190D02*
X3242619Y-10468190D01*
X3242619Y-10468190D02*
X3261667Y-10477714D01*
X3261667Y-10477714D02*
X3271190Y-10496762D01*
X3271190Y-10496762D02*
X3271190Y-10601524D01*
X3366429Y-10601524D02*
X3366429Y-10468190D01*
X3366429Y-10487238D02*
X3375952Y-10477714D01*
X3375952Y-10477714D02*
X3395000Y-10468190D01*
X3395000Y-10468190D02*
X3423571Y-10468190D01*
X3423571Y-10468190D02*
X3442619Y-10477714D01*
X3442619Y-10477714D02*
X3452143Y-10496762D01*
X3452143Y-10496762D02*
X3452143Y-10601524D01*
X3452143Y-10496762D02*
X3461667Y-10477714D01*
X3461667Y-10477714D02*
X3480714Y-10468190D01*
X3480714Y-10468190D02*
X3509286Y-10468190D01*
X3509286Y-10468190D02*
X3528333Y-10477714D01*
X3528333Y-10477714D02*
X3537857Y-10496762D01*
X3537857Y-10496762D02*
X3537857Y-10601524D01*
X3928333Y-10392000D02*
X3756905Y-10649143D01*
X4185476Y-10401524D02*
X4204524Y-10401524D01*
X4204524Y-10401524D02*
X4223572Y-10411048D01*
X4223572Y-10411048D02*
X4233095Y-10420571D01*
X4233095Y-10420571D02*
X4242619Y-10439619D01*
X4242619Y-10439619D02*
X4252143Y-10477714D01*
X4252143Y-10477714D02*
X4252143Y-10525333D01*
X4252143Y-10525333D02*
X4242619Y-10563429D01*
X4242619Y-10563429D02*
X4233095Y-10582476D01*
X4233095Y-10582476D02*
X4223572Y-10592000D01*
X4223572Y-10592000D02*
X4204524Y-10601524D01*
X4204524Y-10601524D02*
X4185476Y-10601524D01*
X4185476Y-10601524D02*
X4166429Y-10592000D01*
X4166429Y-10592000D02*
X4156905Y-10582476D01*
X4156905Y-10582476D02*
X4147381Y-10563429D01*
X4147381Y-10563429D02*
X4137857Y-10525333D01*
X4137857Y-10525333D02*
X4137857Y-10477714D01*
X4137857Y-10477714D02*
X4147381Y-10439619D01*
X4147381Y-10439619D02*
X4156905Y-10420571D01*
X4156905Y-10420571D02*
X4166429Y-10411048D01*
X4166429Y-10411048D02*
X4185476Y-10401524D01*
X4337857Y-10582476D02*
X4347381Y-10592000D01*
X4347381Y-10592000D02*
X4337857Y-10601524D01*
X4337857Y-10601524D02*
X4328334Y-10592000D01*
X4328334Y-10592000D02*
X4337857Y-10582476D01*
X4337857Y-10582476D02*
X4337857Y-10601524D01*
X4471191Y-10401524D02*
X4490238Y-10401524D01*
X4490238Y-10401524D02*
X4509286Y-10411048D01*
X4509286Y-10411048D02*
X4518810Y-10420571D01*
X4518810Y-10420571D02*
X4528334Y-10439619D01*
X4528334Y-10439619D02*
X4537857Y-10477714D01*
X4537857Y-10477714D02*
X4537857Y-10525333D01*
X4537857Y-10525333D02*
X4528334Y-10563429D01*
X4528334Y-10563429D02*
X4518810Y-10582476D01*
X4518810Y-10582476D02*
X4509286Y-10592000D01*
X4509286Y-10592000D02*
X4490238Y-10601524D01*
X4490238Y-10601524D02*
X4471191Y-10601524D01*
X4471191Y-10601524D02*
X4452143Y-10592000D01*
X4452143Y-10592000D02*
X4442619Y-10582476D01*
X4442619Y-10582476D02*
X4433095Y-10563429D01*
X4433095Y-10563429D02*
X4423572Y-10525333D01*
X4423572Y-10525333D02*
X4423572Y-10477714D01*
X4423572Y-10477714D02*
X4433095Y-10439619D01*
X4433095Y-10439619D02*
X4442619Y-10420571D01*
X4442619Y-10420571D02*
X4452143Y-10411048D01*
X4452143Y-10411048D02*
X4471191Y-10401524D01*
X4604524Y-10401524D02*
X4728334Y-10401524D01*
X4728334Y-10401524D02*
X4661667Y-10477714D01*
X4661667Y-10477714D02*
X4690238Y-10477714D01*
X4690238Y-10477714D02*
X4709286Y-10487238D01*
X4709286Y-10487238D02*
X4718810Y-10496762D01*
X4718810Y-10496762D02*
X4728334Y-10515810D01*
X4728334Y-10515810D02*
X4728334Y-10563429D01*
X4728334Y-10563429D02*
X4718810Y-10582476D01*
X4718810Y-10582476D02*
X4709286Y-10592000D01*
X4709286Y-10592000D02*
X4690238Y-10601524D01*
X4690238Y-10601524D02*
X4633095Y-10601524D01*
X4633095Y-10601524D02*
X4614048Y-10592000D01*
X4614048Y-10592000D02*
X4604524Y-10582476D01*
X4795000Y-10401524D02*
X4918810Y-10401524D01*
X4918810Y-10401524D02*
X4852143Y-10477714D01*
X4852143Y-10477714D02*
X4880715Y-10477714D01*
X4880715Y-10477714D02*
X4899762Y-10487238D01*
X4899762Y-10487238D02*
X4909286Y-10496762D01*
X4909286Y-10496762D02*
X4918810Y-10515810D01*
X4918810Y-10515810D02*
X4918810Y-10563429D01*
X4918810Y-10563429D02*
X4909286Y-10582476D01*
X4909286Y-10582476D02*
X4899762Y-10592000D01*
X4899762Y-10592000D02*
X4880715Y-10601524D01*
X4880715Y-10601524D02*
X4823572Y-10601524D01*
X4823572Y-10601524D02*
X4804524Y-10592000D01*
X4804524Y-10592000D02*
X4795000Y-10582476D01*
X5099762Y-10401524D02*
X5004524Y-10401524D01*
X5004524Y-10401524D02*
X4995000Y-10496762D01*
X4995000Y-10496762D02*
X5004524Y-10487238D01*
X5004524Y-10487238D02*
X5023572Y-10477714D01*
X5023572Y-10477714D02*
X5071191Y-10477714D01*
X5071191Y-10477714D02*
X5090238Y-10487238D01*
X5090238Y-10487238D02*
X5099762Y-10496762D01*
X5099762Y-10496762D02*
X5109286Y-10515810D01*
X5109286Y-10515810D02*
X5109286Y-10563429D01*
X5109286Y-10563429D02*
X5099762Y-10582476D01*
X5099762Y-10582476D02*
X5090238Y-10592000D01*
X5090238Y-10592000D02*
X5071191Y-10601524D01*
X5071191Y-10601524D02*
X5023572Y-10601524D01*
X5023572Y-10601524D02*
X5004524Y-10592000D01*
X5004524Y-10592000D02*
X4995000Y-10582476D01*
X5185476Y-10401524D02*
X5185476Y-10439619D01*
X5261667Y-10401524D02*
X5261667Y-10439619D01*
X5556905Y-10677714D02*
X5547381Y-10668190D01*
X5547381Y-10668190D02*
X5528334Y-10639619D01*
X5528334Y-10639619D02*
X5518810Y-10620571D01*
X5518810Y-10620571D02*
X5509286Y-10592000D01*
X5509286Y-10592000D02*
X5499762Y-10544381D01*
X5499762Y-10544381D02*
X5499762Y-10506286D01*
X5499762Y-10506286D02*
X5509286Y-10458667D01*
X5509286Y-10458667D02*
X5518810Y-10430095D01*
X5518810Y-10430095D02*
X5528334Y-10411048D01*
X5528334Y-10411048D02*
X5547381Y-10382476D01*
X5547381Y-10382476D02*
X5556905Y-10372952D01*
X5623572Y-10420571D02*
X5633095Y-10411048D01*
X5633095Y-10411048D02*
X5652143Y-10401524D01*
X5652143Y-10401524D02*
X5699762Y-10401524D01*
X5699762Y-10401524D02*
X5718810Y-10411048D01*
X5718810Y-10411048D02*
X5728334Y-10420571D01*
X5728334Y-10420571D02*
X5737857Y-10439619D01*
X5737857Y-10439619D02*
X5737857Y-10458667D01*
X5737857Y-10458667D02*
X5728334Y-10487238D01*
X5728334Y-10487238D02*
X5614048Y-10601524D01*
X5614048Y-10601524D02*
X5737857Y-10601524D01*
X5975953Y-10601524D02*
X5975953Y-10401524D01*
X6061667Y-10601524D02*
X6061667Y-10496762D01*
X6061667Y-10496762D02*
X6052143Y-10477714D01*
X6052143Y-10477714D02*
X6033096Y-10468190D01*
X6033096Y-10468190D02*
X6004524Y-10468190D01*
X6004524Y-10468190D02*
X5985476Y-10477714D01*
X5985476Y-10477714D02*
X5975953Y-10487238D01*
X6185476Y-10601524D02*
X6166429Y-10592000D01*
X6166429Y-10592000D02*
X6156905Y-10582476D01*
X6156905Y-10582476D02*
X6147381Y-10563429D01*
X6147381Y-10563429D02*
X6147381Y-10506286D01*
X6147381Y-10506286D02*
X6156905Y-10487238D01*
X6156905Y-10487238D02*
X6166429Y-10477714D01*
X6166429Y-10477714D02*
X6185476Y-10468190D01*
X6185476Y-10468190D02*
X6214048Y-10468190D01*
X6214048Y-10468190D02*
X6233096Y-10477714D01*
X6233096Y-10477714D02*
X6242619Y-10487238D01*
X6242619Y-10487238D02*
X6252143Y-10506286D01*
X6252143Y-10506286D02*
X6252143Y-10563429D01*
X6252143Y-10563429D02*
X6242619Y-10582476D01*
X6242619Y-10582476D02*
X6233096Y-10592000D01*
X6233096Y-10592000D02*
X6214048Y-10601524D01*
X6214048Y-10601524D02*
X6185476Y-10601524D01*
X6366429Y-10601524D02*
X6347381Y-10592000D01*
X6347381Y-10592000D02*
X6337857Y-10572952D01*
X6337857Y-10572952D02*
X6337857Y-10401524D01*
X6518810Y-10592000D02*
X6499762Y-10601524D01*
X6499762Y-10601524D02*
X6461667Y-10601524D01*
X6461667Y-10601524D02*
X6442619Y-10592000D01*
X6442619Y-10592000D02*
X6433096Y-10572952D01*
X6433096Y-10572952D02*
X6433096Y-10496762D01*
X6433096Y-10496762D02*
X6442619Y-10477714D01*
X6442619Y-10477714D02*
X6461667Y-10468190D01*
X6461667Y-10468190D02*
X6499762Y-10468190D01*
X6499762Y-10468190D02*
X6518810Y-10477714D01*
X6518810Y-10477714D02*
X6528334Y-10496762D01*
X6528334Y-10496762D02*
X6528334Y-10515810D01*
X6528334Y-10515810D02*
X6433096Y-10534857D01*
X6604524Y-10592000D02*
X6623572Y-10601524D01*
X6623572Y-10601524D02*
X6661667Y-10601524D01*
X6661667Y-10601524D02*
X6680715Y-10592000D01*
X6680715Y-10592000D02*
X6690238Y-10572952D01*
X6690238Y-10572952D02*
X6690238Y-10563429D01*
X6690238Y-10563429D02*
X6680715Y-10544381D01*
X6680715Y-10544381D02*
X6661667Y-10534857D01*
X6661667Y-10534857D02*
X6633096Y-10534857D01*
X6633096Y-10534857D02*
X6614048Y-10525333D01*
X6614048Y-10525333D02*
X6604524Y-10506286D01*
X6604524Y-10506286D02*
X6604524Y-10496762D01*
X6604524Y-10496762D02*
X6614048Y-10477714D01*
X6614048Y-10477714D02*
X6633096Y-10468190D01*
X6633096Y-10468190D02*
X6661667Y-10468190D01*
X6661667Y-10468190D02*
X6680715Y-10477714D01*
X6756905Y-10677714D02*
X6766429Y-10668190D01*
X6766429Y-10668190D02*
X6785477Y-10639619D01*
X6785477Y-10639619D02*
X6795000Y-10620571D01*
X6795000Y-10620571D02*
X6804524Y-10592000D01*
X6804524Y-10592000D02*
X6814048Y-10544381D01*
X6814048Y-10544381D02*
X6814048Y-10506286D01*
X6814048Y-10506286D02*
X6804524Y-10458667D01*
X6804524Y-10458667D02*
X6795000Y-10430095D01*
X6795000Y-10430095D02*
X6785477Y-10411048D01*
X6785477Y-10411048D02*
X6766429Y-10382476D01*
X6766429Y-10382476D02*
X6756905Y-10372952D01*
D14*
X1950000Y-10728000D02*
X1950000Y-10818000D01*
X1905000Y-10773000D02*
X1995000Y-10773000D01*
D11*
X2280714Y-10665524D02*
X2299762Y-10665524D01*
X2299762Y-10665524D02*
X2318810Y-10675048D01*
X2318810Y-10675048D02*
X2328333Y-10684571D01*
X2328333Y-10684571D02*
X2337857Y-10703619D01*
X2337857Y-10703619D02*
X2347381Y-10741714D01*
X2347381Y-10741714D02*
X2347381Y-10789333D01*
X2347381Y-10789333D02*
X2337857Y-10827429D01*
X2337857Y-10827429D02*
X2328333Y-10846476D01*
X2328333Y-10846476D02*
X2318810Y-10856000D01*
X2318810Y-10856000D02*
X2299762Y-10865524D01*
X2299762Y-10865524D02*
X2280714Y-10865524D01*
X2280714Y-10865524D02*
X2261667Y-10856000D01*
X2261667Y-10856000D02*
X2252143Y-10846476D01*
X2252143Y-10846476D02*
X2242619Y-10827429D01*
X2242619Y-10827429D02*
X2233095Y-10789333D01*
X2233095Y-10789333D02*
X2233095Y-10741714D01*
X2233095Y-10741714D02*
X2242619Y-10703619D01*
X2242619Y-10703619D02*
X2252143Y-10684571D01*
X2252143Y-10684571D02*
X2261667Y-10675048D01*
X2261667Y-10675048D02*
X2280714Y-10665524D01*
X2433095Y-10846476D02*
X2442619Y-10856000D01*
X2442619Y-10856000D02*
X2433095Y-10865524D01*
X2433095Y-10865524D02*
X2423571Y-10856000D01*
X2423571Y-10856000D02*
X2433095Y-10846476D01*
X2433095Y-10846476D02*
X2433095Y-10865524D01*
X2537857Y-10865524D02*
X2575952Y-10865524D01*
X2575952Y-10865524D02*
X2595000Y-10856000D01*
X2595000Y-10856000D02*
X2604524Y-10846476D01*
X2604524Y-10846476D02*
X2623571Y-10817905D01*
X2623571Y-10817905D02*
X2633095Y-10779810D01*
X2633095Y-10779810D02*
X2633095Y-10703619D01*
X2633095Y-10703619D02*
X2623571Y-10684571D01*
X2623571Y-10684571D02*
X2614048Y-10675048D01*
X2614048Y-10675048D02*
X2595000Y-10665524D01*
X2595000Y-10665524D02*
X2556905Y-10665524D01*
X2556905Y-10665524D02*
X2537857Y-10675048D01*
X2537857Y-10675048D02*
X2528333Y-10684571D01*
X2528333Y-10684571D02*
X2518810Y-10703619D01*
X2518810Y-10703619D02*
X2518810Y-10751238D01*
X2518810Y-10751238D02*
X2528333Y-10770286D01*
X2528333Y-10770286D02*
X2537857Y-10779810D01*
X2537857Y-10779810D02*
X2556905Y-10789333D01*
X2556905Y-10789333D02*
X2595000Y-10789333D01*
X2595000Y-10789333D02*
X2614048Y-10779810D01*
X2614048Y-10779810D02*
X2623571Y-10770286D01*
X2623571Y-10770286D02*
X2633095Y-10751238D01*
X2756905Y-10665524D02*
X2775952Y-10665524D01*
X2775952Y-10665524D02*
X2795000Y-10675048D01*
X2795000Y-10675048D02*
X2804524Y-10684571D01*
X2804524Y-10684571D02*
X2814048Y-10703619D01*
X2814048Y-10703619D02*
X2823571Y-10741714D01*
X2823571Y-10741714D02*
X2823571Y-10789333D01*
X2823571Y-10789333D02*
X2814048Y-10827429D01*
X2814048Y-10827429D02*
X2804524Y-10846476D01*
X2804524Y-10846476D02*
X2795000Y-10856000D01*
X2795000Y-10856000D02*
X2775952Y-10865524D01*
X2775952Y-10865524D02*
X2756905Y-10865524D01*
X2756905Y-10865524D02*
X2737857Y-10856000D01*
X2737857Y-10856000D02*
X2728333Y-10846476D01*
X2728333Y-10846476D02*
X2718810Y-10827429D01*
X2718810Y-10827429D02*
X2709286Y-10789333D01*
X2709286Y-10789333D02*
X2709286Y-10741714D01*
X2709286Y-10741714D02*
X2718810Y-10703619D01*
X2718810Y-10703619D02*
X2728333Y-10684571D01*
X2728333Y-10684571D02*
X2737857Y-10675048D01*
X2737857Y-10675048D02*
X2756905Y-10665524D01*
X2947381Y-10665524D02*
X2966429Y-10665524D01*
X2966429Y-10665524D02*
X2985476Y-10675048D01*
X2985476Y-10675048D02*
X2995000Y-10684571D01*
X2995000Y-10684571D02*
X3004524Y-10703619D01*
X3004524Y-10703619D02*
X3014048Y-10741714D01*
X3014048Y-10741714D02*
X3014048Y-10789333D01*
X3014048Y-10789333D02*
X3004524Y-10827429D01*
X3004524Y-10827429D02*
X2995000Y-10846476D01*
X2995000Y-10846476D02*
X2985476Y-10856000D01*
X2985476Y-10856000D02*
X2966429Y-10865524D01*
X2966429Y-10865524D02*
X2947381Y-10865524D01*
X2947381Y-10865524D02*
X2928333Y-10856000D01*
X2928333Y-10856000D02*
X2918809Y-10846476D01*
X2918809Y-10846476D02*
X2909286Y-10827429D01*
X2909286Y-10827429D02*
X2899762Y-10789333D01*
X2899762Y-10789333D02*
X2899762Y-10741714D01*
X2899762Y-10741714D02*
X2909286Y-10703619D01*
X2909286Y-10703619D02*
X2918809Y-10684571D01*
X2918809Y-10684571D02*
X2928333Y-10675048D01*
X2928333Y-10675048D02*
X2947381Y-10665524D01*
X3099762Y-10865524D02*
X3099762Y-10732190D01*
X3099762Y-10751238D02*
X3109286Y-10741714D01*
X3109286Y-10741714D02*
X3128333Y-10732190D01*
X3128333Y-10732190D02*
X3156905Y-10732190D01*
X3156905Y-10732190D02*
X3175952Y-10741714D01*
X3175952Y-10741714D02*
X3185476Y-10760762D01*
X3185476Y-10760762D02*
X3185476Y-10865524D01*
X3185476Y-10760762D02*
X3195000Y-10741714D01*
X3195000Y-10741714D02*
X3214048Y-10732190D01*
X3214048Y-10732190D02*
X3242619Y-10732190D01*
X3242619Y-10732190D02*
X3261667Y-10741714D01*
X3261667Y-10741714D02*
X3271190Y-10760762D01*
X3271190Y-10760762D02*
X3271190Y-10865524D01*
X3366429Y-10865524D02*
X3366429Y-10732190D01*
X3366429Y-10751238D02*
X3375952Y-10741714D01*
X3375952Y-10741714D02*
X3395000Y-10732190D01*
X3395000Y-10732190D02*
X3423571Y-10732190D01*
X3423571Y-10732190D02*
X3442619Y-10741714D01*
X3442619Y-10741714D02*
X3452143Y-10760762D01*
X3452143Y-10760762D02*
X3452143Y-10865524D01*
X3452143Y-10760762D02*
X3461667Y-10741714D01*
X3461667Y-10741714D02*
X3480714Y-10732190D01*
X3480714Y-10732190D02*
X3509286Y-10732190D01*
X3509286Y-10732190D02*
X3528333Y-10741714D01*
X3528333Y-10741714D02*
X3537857Y-10760762D01*
X3537857Y-10760762D02*
X3537857Y-10865524D01*
X3928333Y-10656000D02*
X3756905Y-10913143D01*
X4185476Y-10665524D02*
X4204524Y-10665524D01*
X4204524Y-10665524D02*
X4223572Y-10675048D01*
X4223572Y-10675048D02*
X4233095Y-10684571D01*
X4233095Y-10684571D02*
X4242619Y-10703619D01*
X4242619Y-10703619D02*
X4252143Y-10741714D01*
X4252143Y-10741714D02*
X4252143Y-10789333D01*
X4252143Y-10789333D02*
X4242619Y-10827429D01*
X4242619Y-10827429D02*
X4233095Y-10846476D01*
X4233095Y-10846476D02*
X4223572Y-10856000D01*
X4223572Y-10856000D02*
X4204524Y-10865524D01*
X4204524Y-10865524D02*
X4185476Y-10865524D01*
X4185476Y-10865524D02*
X4166429Y-10856000D01*
X4166429Y-10856000D02*
X4156905Y-10846476D01*
X4156905Y-10846476D02*
X4147381Y-10827429D01*
X4147381Y-10827429D02*
X4137857Y-10789333D01*
X4137857Y-10789333D02*
X4137857Y-10741714D01*
X4137857Y-10741714D02*
X4147381Y-10703619D01*
X4147381Y-10703619D02*
X4156905Y-10684571D01*
X4156905Y-10684571D02*
X4166429Y-10675048D01*
X4166429Y-10675048D02*
X4185476Y-10665524D01*
X4337857Y-10846476D02*
X4347381Y-10856000D01*
X4347381Y-10856000D02*
X4337857Y-10865524D01*
X4337857Y-10865524D02*
X4328334Y-10856000D01*
X4328334Y-10856000D02*
X4337857Y-10846476D01*
X4337857Y-10846476D02*
X4337857Y-10865524D01*
X4471191Y-10665524D02*
X4490238Y-10665524D01*
X4490238Y-10665524D02*
X4509286Y-10675048D01*
X4509286Y-10675048D02*
X4518810Y-10684571D01*
X4518810Y-10684571D02*
X4528334Y-10703619D01*
X4528334Y-10703619D02*
X4537857Y-10741714D01*
X4537857Y-10741714D02*
X4537857Y-10789333D01*
X4537857Y-10789333D02*
X4528334Y-10827429D01*
X4528334Y-10827429D02*
X4518810Y-10846476D01*
X4518810Y-10846476D02*
X4509286Y-10856000D01*
X4509286Y-10856000D02*
X4490238Y-10865524D01*
X4490238Y-10865524D02*
X4471191Y-10865524D01*
X4471191Y-10865524D02*
X4452143Y-10856000D01*
X4452143Y-10856000D02*
X4442619Y-10846476D01*
X4442619Y-10846476D02*
X4433095Y-10827429D01*
X4433095Y-10827429D02*
X4423572Y-10789333D01*
X4423572Y-10789333D02*
X4423572Y-10741714D01*
X4423572Y-10741714D02*
X4433095Y-10703619D01*
X4433095Y-10703619D02*
X4442619Y-10684571D01*
X4442619Y-10684571D02*
X4452143Y-10675048D01*
X4452143Y-10675048D02*
X4471191Y-10665524D01*
X4604524Y-10665524D02*
X4728334Y-10665524D01*
X4728334Y-10665524D02*
X4661667Y-10741714D01*
X4661667Y-10741714D02*
X4690238Y-10741714D01*
X4690238Y-10741714D02*
X4709286Y-10751238D01*
X4709286Y-10751238D02*
X4718810Y-10760762D01*
X4718810Y-10760762D02*
X4728334Y-10779810D01*
X4728334Y-10779810D02*
X4728334Y-10827429D01*
X4728334Y-10827429D02*
X4718810Y-10846476D01*
X4718810Y-10846476D02*
X4709286Y-10856000D01*
X4709286Y-10856000D02*
X4690238Y-10865524D01*
X4690238Y-10865524D02*
X4633095Y-10865524D01*
X4633095Y-10865524D02*
X4614048Y-10856000D01*
X4614048Y-10856000D02*
X4604524Y-10846476D01*
X4909286Y-10665524D02*
X4814048Y-10665524D01*
X4814048Y-10665524D02*
X4804524Y-10760762D01*
X4804524Y-10760762D02*
X4814048Y-10751238D01*
X4814048Y-10751238D02*
X4833095Y-10741714D01*
X4833095Y-10741714D02*
X4880715Y-10741714D01*
X4880715Y-10741714D02*
X4899762Y-10751238D01*
X4899762Y-10751238D02*
X4909286Y-10760762D01*
X4909286Y-10760762D02*
X4918810Y-10779810D01*
X4918810Y-10779810D02*
X4918810Y-10827429D01*
X4918810Y-10827429D02*
X4909286Y-10846476D01*
X4909286Y-10846476D02*
X4899762Y-10856000D01*
X4899762Y-10856000D02*
X4880715Y-10865524D01*
X4880715Y-10865524D02*
X4833095Y-10865524D01*
X4833095Y-10865524D02*
X4814048Y-10856000D01*
X4814048Y-10856000D02*
X4804524Y-10846476D01*
X5090238Y-10732190D02*
X5090238Y-10865524D01*
X5042619Y-10656000D02*
X4995000Y-10798857D01*
X4995000Y-10798857D02*
X5118810Y-10798857D01*
X5185476Y-10665524D02*
X5185476Y-10703619D01*
X5261667Y-10665524D02*
X5261667Y-10703619D01*
X5556905Y-10941714D02*
X5547381Y-10932190D01*
X5547381Y-10932190D02*
X5528334Y-10903619D01*
X5528334Y-10903619D02*
X5518810Y-10884571D01*
X5518810Y-10884571D02*
X5509286Y-10856000D01*
X5509286Y-10856000D02*
X5499762Y-10808381D01*
X5499762Y-10808381D02*
X5499762Y-10770286D01*
X5499762Y-10770286D02*
X5509286Y-10722667D01*
X5509286Y-10722667D02*
X5518810Y-10694095D01*
X5518810Y-10694095D02*
X5528334Y-10675048D01*
X5528334Y-10675048D02*
X5547381Y-10646476D01*
X5547381Y-10646476D02*
X5556905Y-10636952D01*
X5718810Y-10665524D02*
X5680714Y-10665524D01*
X5680714Y-10665524D02*
X5661667Y-10675048D01*
X5661667Y-10675048D02*
X5652143Y-10684571D01*
X5652143Y-10684571D02*
X5633095Y-10713143D01*
X5633095Y-10713143D02*
X5623572Y-10751238D01*
X5623572Y-10751238D02*
X5623572Y-10827429D01*
X5623572Y-10827429D02*
X5633095Y-10846476D01*
X5633095Y-10846476D02*
X5642619Y-10856000D01*
X5642619Y-10856000D02*
X5661667Y-10865524D01*
X5661667Y-10865524D02*
X5699762Y-10865524D01*
X5699762Y-10865524D02*
X5718810Y-10856000D01*
X5718810Y-10856000D02*
X5728334Y-10846476D01*
X5728334Y-10846476D02*
X5737857Y-10827429D01*
X5737857Y-10827429D02*
X5737857Y-10779810D01*
X5737857Y-10779810D02*
X5728334Y-10760762D01*
X5728334Y-10760762D02*
X5718810Y-10751238D01*
X5718810Y-10751238D02*
X5699762Y-10741714D01*
X5699762Y-10741714D02*
X5661667Y-10741714D01*
X5661667Y-10741714D02*
X5642619Y-10751238D01*
X5642619Y-10751238D02*
X5633095Y-10760762D01*
X5633095Y-10760762D02*
X5623572Y-10779810D01*
X5975953Y-10865524D02*
X5975953Y-10665524D01*
X6061667Y-10865524D02*
X6061667Y-10760762D01*
X6061667Y-10760762D02*
X6052143Y-10741714D01*
X6052143Y-10741714D02*
X6033096Y-10732190D01*
X6033096Y-10732190D02*
X6004524Y-10732190D01*
X6004524Y-10732190D02*
X5985476Y-10741714D01*
X5985476Y-10741714D02*
X5975953Y-10751238D01*
X6185476Y-10865524D02*
X6166429Y-10856000D01*
X6166429Y-10856000D02*
X6156905Y-10846476D01*
X6156905Y-10846476D02*
X6147381Y-10827429D01*
X6147381Y-10827429D02*
X6147381Y-10770286D01*
X6147381Y-10770286D02*
X6156905Y-10751238D01*
X6156905Y-10751238D02*
X6166429Y-10741714D01*
X6166429Y-10741714D02*
X6185476Y-10732190D01*
X6185476Y-10732190D02*
X6214048Y-10732190D01*
X6214048Y-10732190D02*
X6233096Y-10741714D01*
X6233096Y-10741714D02*
X6242619Y-10751238D01*
X6242619Y-10751238D02*
X6252143Y-10770286D01*
X6252143Y-10770286D02*
X6252143Y-10827429D01*
X6252143Y-10827429D02*
X6242619Y-10846476D01*
X6242619Y-10846476D02*
X6233096Y-10856000D01*
X6233096Y-10856000D02*
X6214048Y-10865524D01*
X6214048Y-10865524D02*
X6185476Y-10865524D01*
X6366429Y-10865524D02*
X6347381Y-10856000D01*
X6347381Y-10856000D02*
X6337857Y-10836952D01*
X6337857Y-10836952D02*
X6337857Y-10665524D01*
X6518810Y-10856000D02*
X6499762Y-10865524D01*
X6499762Y-10865524D02*
X6461667Y-10865524D01*
X6461667Y-10865524D02*
X6442619Y-10856000D01*
X6442619Y-10856000D02*
X6433096Y-10836952D01*
X6433096Y-10836952D02*
X6433096Y-10760762D01*
X6433096Y-10760762D02*
X6442619Y-10741714D01*
X6442619Y-10741714D02*
X6461667Y-10732190D01*
X6461667Y-10732190D02*
X6499762Y-10732190D01*
X6499762Y-10732190D02*
X6518810Y-10741714D01*
X6518810Y-10741714D02*
X6528334Y-10760762D01*
X6528334Y-10760762D02*
X6528334Y-10779810D01*
X6528334Y-10779810D02*
X6433096Y-10798857D01*
X6604524Y-10856000D02*
X6623572Y-10865524D01*
X6623572Y-10865524D02*
X6661667Y-10865524D01*
X6661667Y-10865524D02*
X6680715Y-10856000D01*
X6680715Y-10856000D02*
X6690238Y-10836952D01*
X6690238Y-10836952D02*
X6690238Y-10827429D01*
X6690238Y-10827429D02*
X6680715Y-10808381D01*
X6680715Y-10808381D02*
X6661667Y-10798857D01*
X6661667Y-10798857D02*
X6633096Y-10798857D01*
X6633096Y-10798857D02*
X6614048Y-10789333D01*
X6614048Y-10789333D02*
X6604524Y-10770286D01*
X6604524Y-10770286D02*
X6604524Y-10760762D01*
X6604524Y-10760762D02*
X6614048Y-10741714D01*
X6614048Y-10741714D02*
X6633096Y-10732190D01*
X6633096Y-10732190D02*
X6661667Y-10732190D01*
X6661667Y-10732190D02*
X6680715Y-10741714D01*
X6756905Y-10941714D02*
X6766429Y-10932190D01*
X6766429Y-10932190D02*
X6785477Y-10903619D01*
X6785477Y-10903619D02*
X6795000Y-10884571D01*
X6795000Y-10884571D02*
X6804524Y-10856000D01*
X6804524Y-10856000D02*
X6814048Y-10808381D01*
X6814048Y-10808381D02*
X6814048Y-10770286D01*
X6814048Y-10770286D02*
X6804524Y-10722667D01*
X6804524Y-10722667D02*
X6795000Y-10694095D01*
X6795000Y-10694095D02*
X6785477Y-10675048D01*
X6785477Y-10675048D02*
X6766429Y-10646476D01*
X6766429Y-10646476D02*
X6756905Y-10636952D01*
D10*
X1980356Y-11072356D02*
X1980356Y-11001644D01*
X1909644Y-11001644D01*
X1909644Y-11072356D01*
X1980356Y-11072356D01*
D11*
X2347381Y-11129524D02*
X2233095Y-11129524D01*
X2290238Y-11129524D02*
X2290238Y-10929524D01*
X2290238Y-10929524D02*
X2271190Y-10958095D01*
X2271190Y-10958095D02*
X2252143Y-10977143D01*
X2252143Y-10977143D02*
X2233095Y-10986667D01*
X2433095Y-11110476D02*
X2442619Y-11120000D01*
X2442619Y-11120000D02*
X2433095Y-11129524D01*
X2433095Y-11129524D02*
X2423571Y-11120000D01*
X2423571Y-11120000D02*
X2433095Y-11110476D01*
X2433095Y-11110476D02*
X2433095Y-11129524D01*
X2566429Y-10929524D02*
X2585476Y-10929524D01*
X2585476Y-10929524D02*
X2604524Y-10939048D01*
X2604524Y-10939048D02*
X2614048Y-10948571D01*
X2614048Y-10948571D02*
X2623571Y-10967619D01*
X2623571Y-10967619D02*
X2633095Y-11005714D01*
X2633095Y-11005714D02*
X2633095Y-11053333D01*
X2633095Y-11053333D02*
X2623571Y-11091429D01*
X2623571Y-11091429D02*
X2614048Y-11110476D01*
X2614048Y-11110476D02*
X2604524Y-11120000D01*
X2604524Y-11120000D02*
X2585476Y-11129524D01*
X2585476Y-11129524D02*
X2566429Y-11129524D01*
X2566429Y-11129524D02*
X2547381Y-11120000D01*
X2547381Y-11120000D02*
X2537857Y-11110476D01*
X2537857Y-11110476D02*
X2528333Y-11091429D01*
X2528333Y-11091429D02*
X2518810Y-11053333D01*
X2518810Y-11053333D02*
X2518810Y-11005714D01*
X2518810Y-11005714D02*
X2528333Y-10967619D01*
X2528333Y-10967619D02*
X2537857Y-10948571D01*
X2537857Y-10948571D02*
X2547381Y-10939048D01*
X2547381Y-10939048D02*
X2566429Y-10929524D01*
X2756905Y-10929524D02*
X2775952Y-10929524D01*
X2775952Y-10929524D02*
X2795000Y-10939048D01*
X2795000Y-10939048D02*
X2804524Y-10948571D01*
X2804524Y-10948571D02*
X2814048Y-10967619D01*
X2814048Y-10967619D02*
X2823571Y-11005714D01*
X2823571Y-11005714D02*
X2823571Y-11053333D01*
X2823571Y-11053333D02*
X2814048Y-11091429D01*
X2814048Y-11091429D02*
X2804524Y-11110476D01*
X2804524Y-11110476D02*
X2795000Y-11120000D01*
X2795000Y-11120000D02*
X2775952Y-11129524D01*
X2775952Y-11129524D02*
X2756905Y-11129524D01*
X2756905Y-11129524D02*
X2737857Y-11120000D01*
X2737857Y-11120000D02*
X2728333Y-11110476D01*
X2728333Y-11110476D02*
X2718810Y-11091429D01*
X2718810Y-11091429D02*
X2709286Y-11053333D01*
X2709286Y-11053333D02*
X2709286Y-11005714D01*
X2709286Y-11005714D02*
X2718810Y-10967619D01*
X2718810Y-10967619D02*
X2728333Y-10948571D01*
X2728333Y-10948571D02*
X2737857Y-10939048D01*
X2737857Y-10939048D02*
X2756905Y-10929524D01*
X2947381Y-10929524D02*
X2966429Y-10929524D01*
X2966429Y-10929524D02*
X2985476Y-10939048D01*
X2985476Y-10939048D02*
X2995000Y-10948571D01*
X2995000Y-10948571D02*
X3004524Y-10967619D01*
X3004524Y-10967619D02*
X3014048Y-11005714D01*
X3014048Y-11005714D02*
X3014048Y-11053333D01*
X3014048Y-11053333D02*
X3004524Y-11091429D01*
X3004524Y-11091429D02*
X2995000Y-11110476D01*
X2995000Y-11110476D02*
X2985476Y-11120000D01*
X2985476Y-11120000D02*
X2966429Y-11129524D01*
X2966429Y-11129524D02*
X2947381Y-11129524D01*
X2947381Y-11129524D02*
X2928333Y-11120000D01*
X2928333Y-11120000D02*
X2918809Y-11110476D01*
X2918809Y-11110476D02*
X2909286Y-11091429D01*
X2909286Y-11091429D02*
X2899762Y-11053333D01*
X2899762Y-11053333D02*
X2899762Y-11005714D01*
X2899762Y-11005714D02*
X2909286Y-10967619D01*
X2909286Y-10967619D02*
X2918809Y-10948571D01*
X2918809Y-10948571D02*
X2928333Y-10939048D01*
X2928333Y-10939048D02*
X2947381Y-10929524D01*
X3099762Y-11129524D02*
X3099762Y-10996190D01*
X3099762Y-11015238D02*
X3109286Y-11005714D01*
X3109286Y-11005714D02*
X3128333Y-10996190D01*
X3128333Y-10996190D02*
X3156905Y-10996190D01*
X3156905Y-10996190D02*
X3175952Y-11005714D01*
X3175952Y-11005714D02*
X3185476Y-11024762D01*
X3185476Y-11024762D02*
X3185476Y-11129524D01*
X3185476Y-11024762D02*
X3195000Y-11005714D01*
X3195000Y-11005714D02*
X3214048Y-10996190D01*
X3214048Y-10996190D02*
X3242619Y-10996190D01*
X3242619Y-10996190D02*
X3261667Y-11005714D01*
X3261667Y-11005714D02*
X3271190Y-11024762D01*
X3271190Y-11024762D02*
X3271190Y-11129524D01*
X3366429Y-11129524D02*
X3366429Y-10996190D01*
X3366429Y-11015238D02*
X3375952Y-11005714D01*
X3375952Y-11005714D02*
X3395000Y-10996190D01*
X3395000Y-10996190D02*
X3423571Y-10996190D01*
X3423571Y-10996190D02*
X3442619Y-11005714D01*
X3442619Y-11005714D02*
X3452143Y-11024762D01*
X3452143Y-11024762D02*
X3452143Y-11129524D01*
X3452143Y-11024762D02*
X3461667Y-11005714D01*
X3461667Y-11005714D02*
X3480714Y-10996190D01*
X3480714Y-10996190D02*
X3509286Y-10996190D01*
X3509286Y-10996190D02*
X3528333Y-11005714D01*
X3528333Y-11005714D02*
X3537857Y-11024762D01*
X3537857Y-11024762D02*
X3537857Y-11129524D01*
X3928333Y-10920000D02*
X3756905Y-11177143D01*
X4185476Y-10929524D02*
X4204524Y-10929524D01*
X4204524Y-10929524D02*
X4223572Y-10939048D01*
X4223572Y-10939048D02*
X4233095Y-10948571D01*
X4233095Y-10948571D02*
X4242619Y-10967619D01*
X4242619Y-10967619D02*
X4252143Y-11005714D01*
X4252143Y-11005714D02*
X4252143Y-11053333D01*
X4252143Y-11053333D02*
X4242619Y-11091429D01*
X4242619Y-11091429D02*
X4233095Y-11110476D01*
X4233095Y-11110476D02*
X4223572Y-11120000D01*
X4223572Y-11120000D02*
X4204524Y-11129524D01*
X4204524Y-11129524D02*
X4185476Y-11129524D01*
X4185476Y-11129524D02*
X4166429Y-11120000D01*
X4166429Y-11120000D02*
X4156905Y-11110476D01*
X4156905Y-11110476D02*
X4147381Y-11091429D01*
X4147381Y-11091429D02*
X4137857Y-11053333D01*
X4137857Y-11053333D02*
X4137857Y-11005714D01*
X4137857Y-11005714D02*
X4147381Y-10967619D01*
X4147381Y-10967619D02*
X4156905Y-10948571D01*
X4156905Y-10948571D02*
X4166429Y-10939048D01*
X4166429Y-10939048D02*
X4185476Y-10929524D01*
X4337857Y-11110476D02*
X4347381Y-11120000D01*
X4347381Y-11120000D02*
X4337857Y-11129524D01*
X4337857Y-11129524D02*
X4328334Y-11120000D01*
X4328334Y-11120000D02*
X4337857Y-11110476D01*
X4337857Y-11110476D02*
X4337857Y-11129524D01*
X4471191Y-10929524D02*
X4490238Y-10929524D01*
X4490238Y-10929524D02*
X4509286Y-10939048D01*
X4509286Y-10939048D02*
X4518810Y-10948571D01*
X4518810Y-10948571D02*
X4528334Y-10967619D01*
X4528334Y-10967619D02*
X4537857Y-11005714D01*
X4537857Y-11005714D02*
X4537857Y-11053333D01*
X4537857Y-11053333D02*
X4528334Y-11091429D01*
X4528334Y-11091429D02*
X4518810Y-11110476D01*
X4518810Y-11110476D02*
X4509286Y-11120000D01*
X4509286Y-11120000D02*
X4490238Y-11129524D01*
X4490238Y-11129524D02*
X4471191Y-11129524D01*
X4471191Y-11129524D02*
X4452143Y-11120000D01*
X4452143Y-11120000D02*
X4442619Y-11110476D01*
X4442619Y-11110476D02*
X4433095Y-11091429D01*
X4433095Y-11091429D02*
X4423572Y-11053333D01*
X4423572Y-11053333D02*
X4423572Y-11005714D01*
X4423572Y-11005714D02*
X4433095Y-10967619D01*
X4433095Y-10967619D02*
X4442619Y-10948571D01*
X4442619Y-10948571D02*
X4452143Y-10939048D01*
X4452143Y-10939048D02*
X4471191Y-10929524D01*
X4604524Y-10929524D02*
X4728334Y-10929524D01*
X4728334Y-10929524D02*
X4661667Y-11005714D01*
X4661667Y-11005714D02*
X4690238Y-11005714D01*
X4690238Y-11005714D02*
X4709286Y-11015238D01*
X4709286Y-11015238D02*
X4718810Y-11024762D01*
X4718810Y-11024762D02*
X4728334Y-11043810D01*
X4728334Y-11043810D02*
X4728334Y-11091429D01*
X4728334Y-11091429D02*
X4718810Y-11110476D01*
X4718810Y-11110476D02*
X4709286Y-11120000D01*
X4709286Y-11120000D02*
X4690238Y-11129524D01*
X4690238Y-11129524D02*
X4633095Y-11129524D01*
X4633095Y-11129524D02*
X4614048Y-11120000D01*
X4614048Y-11120000D02*
X4604524Y-11110476D01*
X4823572Y-11129524D02*
X4861667Y-11129524D01*
X4861667Y-11129524D02*
X4880715Y-11120000D01*
X4880715Y-11120000D02*
X4890238Y-11110476D01*
X4890238Y-11110476D02*
X4909286Y-11081905D01*
X4909286Y-11081905D02*
X4918810Y-11043810D01*
X4918810Y-11043810D02*
X4918810Y-10967619D01*
X4918810Y-10967619D02*
X4909286Y-10948571D01*
X4909286Y-10948571D02*
X4899762Y-10939048D01*
X4899762Y-10939048D02*
X4880715Y-10929524D01*
X4880715Y-10929524D02*
X4842619Y-10929524D01*
X4842619Y-10929524D02*
X4823572Y-10939048D01*
X4823572Y-10939048D02*
X4814048Y-10948571D01*
X4814048Y-10948571D02*
X4804524Y-10967619D01*
X4804524Y-10967619D02*
X4804524Y-11015238D01*
X4804524Y-11015238D02*
X4814048Y-11034286D01*
X4814048Y-11034286D02*
X4823572Y-11043810D01*
X4823572Y-11043810D02*
X4842619Y-11053333D01*
X4842619Y-11053333D02*
X4880715Y-11053333D01*
X4880715Y-11053333D02*
X4899762Y-11043810D01*
X4899762Y-11043810D02*
X4909286Y-11034286D01*
X4909286Y-11034286D02*
X4918810Y-11015238D01*
X5090238Y-10996190D02*
X5090238Y-11129524D01*
X5042619Y-10920000D02*
X4995000Y-11062857D01*
X4995000Y-11062857D02*
X5118810Y-11062857D01*
X5185476Y-10929524D02*
X5185476Y-10967619D01*
X5261667Y-10929524D02*
X5261667Y-10967619D01*
X5556905Y-11205714D02*
X5547381Y-11196190D01*
X5547381Y-11196190D02*
X5528334Y-11167619D01*
X5528334Y-11167619D02*
X5518810Y-11148571D01*
X5518810Y-11148571D02*
X5509286Y-11120000D01*
X5509286Y-11120000D02*
X5499762Y-11072381D01*
X5499762Y-11072381D02*
X5499762Y-11034286D01*
X5499762Y-11034286D02*
X5509286Y-10986667D01*
X5509286Y-10986667D02*
X5518810Y-10958095D01*
X5518810Y-10958095D02*
X5528334Y-10939048D01*
X5528334Y-10939048D02*
X5547381Y-10910476D01*
X5547381Y-10910476D02*
X5556905Y-10900952D01*
X5642619Y-11129524D02*
X5680714Y-11129524D01*
X5680714Y-11129524D02*
X5699762Y-11120000D01*
X5699762Y-11120000D02*
X5709286Y-11110476D01*
X5709286Y-11110476D02*
X5728334Y-11081905D01*
X5728334Y-11081905D02*
X5737857Y-11043810D01*
X5737857Y-11043810D02*
X5737857Y-10967619D01*
X5737857Y-10967619D02*
X5728334Y-10948571D01*
X5728334Y-10948571D02*
X5718810Y-10939048D01*
X5718810Y-10939048D02*
X5699762Y-10929524D01*
X5699762Y-10929524D02*
X5661667Y-10929524D01*
X5661667Y-10929524D02*
X5642619Y-10939048D01*
X5642619Y-10939048D02*
X5633095Y-10948571D01*
X5633095Y-10948571D02*
X5623572Y-10967619D01*
X5623572Y-10967619D02*
X5623572Y-11015238D01*
X5623572Y-11015238D02*
X5633095Y-11034286D01*
X5633095Y-11034286D02*
X5642619Y-11043810D01*
X5642619Y-11043810D02*
X5661667Y-11053333D01*
X5661667Y-11053333D02*
X5699762Y-11053333D01*
X5699762Y-11053333D02*
X5718810Y-11043810D01*
X5718810Y-11043810D02*
X5728334Y-11034286D01*
X5728334Y-11034286D02*
X5737857Y-11015238D01*
X5928334Y-11129524D02*
X5814048Y-11129524D01*
X5871191Y-11129524D02*
X5871191Y-10929524D01*
X5871191Y-10929524D02*
X5852143Y-10958095D01*
X5852143Y-10958095D02*
X5833095Y-10977143D01*
X5833095Y-10977143D02*
X5814048Y-10986667D01*
X6166429Y-11129524D02*
X6166429Y-10929524D01*
X6252143Y-11129524D02*
X6252143Y-11024762D01*
X6252143Y-11024762D02*
X6242619Y-11005714D01*
X6242619Y-11005714D02*
X6223572Y-10996190D01*
X6223572Y-10996190D02*
X6195000Y-10996190D01*
X6195000Y-10996190D02*
X6175953Y-11005714D01*
X6175953Y-11005714D02*
X6166429Y-11015238D01*
X6375953Y-11129524D02*
X6356905Y-11120000D01*
X6356905Y-11120000D02*
X6347381Y-11110476D01*
X6347381Y-11110476D02*
X6337857Y-11091429D01*
X6337857Y-11091429D02*
X6337857Y-11034286D01*
X6337857Y-11034286D02*
X6347381Y-11015238D01*
X6347381Y-11015238D02*
X6356905Y-11005714D01*
X6356905Y-11005714D02*
X6375953Y-10996190D01*
X6375953Y-10996190D02*
X6404524Y-10996190D01*
X6404524Y-10996190D02*
X6423572Y-11005714D01*
X6423572Y-11005714D02*
X6433096Y-11015238D01*
X6433096Y-11015238D02*
X6442619Y-11034286D01*
X6442619Y-11034286D02*
X6442619Y-11091429D01*
X6442619Y-11091429D02*
X6433096Y-11110476D01*
X6433096Y-11110476D02*
X6423572Y-11120000D01*
X6423572Y-11120000D02*
X6404524Y-11129524D01*
X6404524Y-11129524D02*
X6375953Y-11129524D01*
X6556905Y-11129524D02*
X6537857Y-11120000D01*
X6537857Y-11120000D02*
X6528334Y-11100952D01*
X6528334Y-11100952D02*
X6528334Y-10929524D01*
X6709286Y-11120000D02*
X6690238Y-11129524D01*
X6690238Y-11129524D02*
X6652143Y-11129524D01*
X6652143Y-11129524D02*
X6633096Y-11120000D01*
X6633096Y-11120000D02*
X6623572Y-11100952D01*
X6623572Y-11100952D02*
X6623572Y-11024762D01*
X6623572Y-11024762D02*
X6633096Y-11005714D01*
X6633096Y-11005714D02*
X6652143Y-10996190D01*
X6652143Y-10996190D02*
X6690238Y-10996190D01*
X6690238Y-10996190D02*
X6709286Y-11005714D01*
X6709286Y-11005714D02*
X6718810Y-11024762D01*
X6718810Y-11024762D02*
X6718810Y-11043810D01*
X6718810Y-11043810D02*
X6623572Y-11062857D01*
X6795000Y-11120000D02*
X6814048Y-11129524D01*
X6814048Y-11129524D02*
X6852143Y-11129524D01*
X6852143Y-11129524D02*
X6871191Y-11120000D01*
X6871191Y-11120000D02*
X6880715Y-11100952D01*
X6880715Y-11100952D02*
X6880715Y-11091429D01*
X6880715Y-11091429D02*
X6871191Y-11072381D01*
X6871191Y-11072381D02*
X6852143Y-11062857D01*
X6852143Y-11062857D02*
X6823572Y-11062857D01*
X6823572Y-11062857D02*
X6804524Y-11053333D01*
X6804524Y-11053333D02*
X6795000Y-11034286D01*
X6795000Y-11034286D02*
X6795000Y-11024762D01*
X6795000Y-11024762D02*
X6804524Y-11005714D01*
X6804524Y-11005714D02*
X6823572Y-10996190D01*
X6823572Y-10996190D02*
X6852143Y-10996190D01*
X6852143Y-10996190D02*
X6871191Y-11005714D01*
X7118810Y-11053333D02*
X7271191Y-11053333D01*
X7195000Y-11129524D02*
X7195000Y-10977143D01*
X7499762Y-10929524D02*
X7623572Y-10929524D01*
X7623572Y-10929524D02*
X7556905Y-11005714D01*
X7556905Y-11005714D02*
X7585477Y-11005714D01*
X7585477Y-11005714D02*
X7604524Y-11015238D01*
X7604524Y-11015238D02*
X7614048Y-11024762D01*
X7614048Y-11024762D02*
X7623572Y-11043810D01*
X7623572Y-11043810D02*
X7623572Y-11091429D01*
X7623572Y-11091429D02*
X7614048Y-11110476D01*
X7614048Y-11110476D02*
X7604524Y-11120000D01*
X7604524Y-11120000D02*
X7585477Y-11129524D01*
X7585477Y-11129524D02*
X7528334Y-11129524D01*
X7528334Y-11129524D02*
X7509286Y-11120000D01*
X7509286Y-11120000D02*
X7499762Y-11110476D01*
X7852143Y-11120000D02*
X7871191Y-11129524D01*
X7871191Y-11129524D02*
X7909286Y-11129524D01*
X7909286Y-11129524D02*
X7928334Y-11120000D01*
X7928334Y-11120000D02*
X7937858Y-11100952D01*
X7937858Y-11100952D02*
X7937858Y-11091429D01*
X7937858Y-11091429D02*
X7928334Y-11072381D01*
X7928334Y-11072381D02*
X7909286Y-11062857D01*
X7909286Y-11062857D02*
X7880715Y-11062857D01*
X7880715Y-11062857D02*
X7861667Y-11053333D01*
X7861667Y-11053333D02*
X7852143Y-11034286D01*
X7852143Y-11034286D02*
X7852143Y-11024762D01*
X7852143Y-11024762D02*
X7861667Y-11005714D01*
X7861667Y-11005714D02*
X7880715Y-10996190D01*
X7880715Y-10996190D02*
X7909286Y-10996190D01*
X7909286Y-10996190D02*
X7928334Y-11005714D01*
X8052143Y-11129524D02*
X8033096Y-11120000D01*
X8033096Y-11120000D02*
X8023572Y-11100952D01*
X8023572Y-11100952D02*
X8023572Y-10929524D01*
X8156905Y-11129524D02*
X8137858Y-11120000D01*
X8137858Y-11120000D02*
X8128334Y-11110476D01*
X8128334Y-11110476D02*
X8118810Y-11091429D01*
X8118810Y-11091429D02*
X8118810Y-11034286D01*
X8118810Y-11034286D02*
X8128334Y-11015238D01*
X8128334Y-11015238D02*
X8137858Y-11005714D01*
X8137858Y-11005714D02*
X8156905Y-10996190D01*
X8156905Y-10996190D02*
X8185477Y-10996190D01*
X8185477Y-10996190D02*
X8204524Y-11005714D01*
X8204524Y-11005714D02*
X8214048Y-11015238D01*
X8214048Y-11015238D02*
X8223572Y-11034286D01*
X8223572Y-11034286D02*
X8223572Y-11091429D01*
X8223572Y-11091429D02*
X8214048Y-11110476D01*
X8214048Y-11110476D02*
X8204524Y-11120000D01*
X8204524Y-11120000D02*
X8185477Y-11129524D01*
X8185477Y-11129524D02*
X8156905Y-11129524D01*
X8280715Y-10996190D02*
X8356905Y-10996190D01*
X8309286Y-10929524D02*
X8309286Y-11100952D01*
X8309286Y-11100952D02*
X8318810Y-11120000D01*
X8318810Y-11120000D02*
X8337858Y-11129524D01*
X8337858Y-11129524D02*
X8356905Y-11129524D01*
X8414048Y-11120000D02*
X8433096Y-11129524D01*
X8433096Y-11129524D02*
X8471191Y-11129524D01*
X8471191Y-11129524D02*
X8490239Y-11120000D01*
X8490239Y-11120000D02*
X8499763Y-11100952D01*
X8499763Y-11100952D02*
X8499763Y-11091429D01*
X8499763Y-11091429D02*
X8490239Y-11072381D01*
X8490239Y-11072381D02*
X8471191Y-11062857D01*
X8471191Y-11062857D02*
X8442620Y-11062857D01*
X8442620Y-11062857D02*
X8423572Y-11053333D01*
X8423572Y-11053333D02*
X8414048Y-11034286D01*
X8414048Y-11034286D02*
X8414048Y-11024762D01*
X8414048Y-11024762D02*
X8423572Y-11005714D01*
X8423572Y-11005714D02*
X8442620Y-10996190D01*
X8442620Y-10996190D02*
X8471191Y-10996190D01*
X8471191Y-10996190D02*
X8490239Y-11005714D01*
X8566429Y-11205714D02*
X8575953Y-11196190D01*
X8575953Y-11196190D02*
X8595001Y-11167619D01*
X8595001Y-11167619D02*
X8604524Y-11148571D01*
X8604524Y-11148571D02*
X8614048Y-11120000D01*
X8614048Y-11120000D02*
X8623572Y-11072381D01*
X8623572Y-11072381D02*
X8623572Y-11034286D01*
X8623572Y-11034286D02*
X8614048Y-10986667D01*
X8614048Y-10986667D02*
X8604524Y-10958095D01*
X8604524Y-10958095D02*
X8595001Y-10939048D01*
X8595001Y-10939048D02*
X8575953Y-10910476D01*
X8575953Y-10910476D02*
X8566429Y-10900952D01*
D15*
X1920000Y-11376000D02*
X1995000Y-11301000D01*
X1920000Y-11226000D01*
X1845000Y-11301000D01*
X1920000Y-11376000D01*
D11*
X2347381Y-11393524D02*
X2233095Y-11393524D01*
X2290238Y-11393524D02*
X2290238Y-11193524D01*
X2290238Y-11193524D02*
X2271190Y-11222095D01*
X2271190Y-11222095D02*
X2252143Y-11241143D01*
X2252143Y-11241143D02*
X2233095Y-11250667D01*
X2433095Y-11374476D02*
X2442619Y-11384000D01*
X2442619Y-11384000D02*
X2433095Y-11393524D01*
X2433095Y-11393524D02*
X2423571Y-11384000D01*
X2423571Y-11384000D02*
X2433095Y-11374476D01*
X2433095Y-11374476D02*
X2433095Y-11393524D01*
X2623571Y-11193524D02*
X2528333Y-11193524D01*
X2528333Y-11193524D02*
X2518810Y-11288762D01*
X2518810Y-11288762D02*
X2528333Y-11279238D01*
X2528333Y-11279238D02*
X2547381Y-11269714D01*
X2547381Y-11269714D02*
X2595000Y-11269714D01*
X2595000Y-11269714D02*
X2614048Y-11279238D01*
X2614048Y-11279238D02*
X2623571Y-11288762D01*
X2623571Y-11288762D02*
X2633095Y-11307809D01*
X2633095Y-11307809D02*
X2633095Y-11355428D01*
X2633095Y-11355428D02*
X2623571Y-11374476D01*
X2623571Y-11374476D02*
X2614048Y-11384000D01*
X2614048Y-11384000D02*
X2595000Y-11393524D01*
X2595000Y-11393524D02*
X2547381Y-11393524D01*
X2547381Y-11393524D02*
X2528333Y-11384000D01*
X2528333Y-11384000D02*
X2518810Y-11374476D01*
X2756905Y-11193524D02*
X2775952Y-11193524D01*
X2775952Y-11193524D02*
X2795000Y-11203048D01*
X2795000Y-11203048D02*
X2804524Y-11212571D01*
X2804524Y-11212571D02*
X2814048Y-11231619D01*
X2814048Y-11231619D02*
X2823571Y-11269714D01*
X2823571Y-11269714D02*
X2823571Y-11317333D01*
X2823571Y-11317333D02*
X2814048Y-11355428D01*
X2814048Y-11355428D02*
X2804524Y-11374476D01*
X2804524Y-11374476D02*
X2795000Y-11384000D01*
X2795000Y-11384000D02*
X2775952Y-11393524D01*
X2775952Y-11393524D02*
X2756905Y-11393524D01*
X2756905Y-11393524D02*
X2737857Y-11384000D01*
X2737857Y-11384000D02*
X2728333Y-11374476D01*
X2728333Y-11374476D02*
X2718810Y-11355428D01*
X2718810Y-11355428D02*
X2709286Y-11317333D01*
X2709286Y-11317333D02*
X2709286Y-11269714D01*
X2709286Y-11269714D02*
X2718810Y-11231619D01*
X2718810Y-11231619D02*
X2728333Y-11212571D01*
X2728333Y-11212571D02*
X2737857Y-11203048D01*
X2737857Y-11203048D02*
X2756905Y-11193524D01*
X2947381Y-11193524D02*
X2966429Y-11193524D01*
X2966429Y-11193524D02*
X2985476Y-11203048D01*
X2985476Y-11203048D02*
X2995000Y-11212571D01*
X2995000Y-11212571D02*
X3004524Y-11231619D01*
X3004524Y-11231619D02*
X3014048Y-11269714D01*
X3014048Y-11269714D02*
X3014048Y-11317333D01*
X3014048Y-11317333D02*
X3004524Y-11355428D01*
X3004524Y-11355428D02*
X2995000Y-11374476D01*
X2995000Y-11374476D02*
X2985476Y-11384000D01*
X2985476Y-11384000D02*
X2966429Y-11393524D01*
X2966429Y-11393524D02*
X2947381Y-11393524D01*
X2947381Y-11393524D02*
X2928333Y-11384000D01*
X2928333Y-11384000D02*
X2918809Y-11374476D01*
X2918809Y-11374476D02*
X2909286Y-11355428D01*
X2909286Y-11355428D02*
X2899762Y-11317333D01*
X2899762Y-11317333D02*
X2899762Y-11269714D01*
X2899762Y-11269714D02*
X2909286Y-11231619D01*
X2909286Y-11231619D02*
X2918809Y-11212571D01*
X2918809Y-11212571D02*
X2928333Y-11203048D01*
X2928333Y-11203048D02*
X2947381Y-11193524D01*
X3099762Y-11393524D02*
X3099762Y-11260190D01*
X3099762Y-11279238D02*
X3109286Y-11269714D01*
X3109286Y-11269714D02*
X3128333Y-11260190D01*
X3128333Y-11260190D02*
X3156905Y-11260190D01*
X3156905Y-11260190D02*
X3175952Y-11269714D01*
X3175952Y-11269714D02*
X3185476Y-11288762D01*
X3185476Y-11288762D02*
X3185476Y-11393524D01*
X3185476Y-11288762D02*
X3195000Y-11269714D01*
X3195000Y-11269714D02*
X3214048Y-11260190D01*
X3214048Y-11260190D02*
X3242619Y-11260190D01*
X3242619Y-11260190D02*
X3261667Y-11269714D01*
X3261667Y-11269714D02*
X3271190Y-11288762D01*
X3271190Y-11288762D02*
X3271190Y-11393524D01*
X3366429Y-11393524D02*
X3366429Y-11260190D01*
X3366429Y-11279238D02*
X3375952Y-11269714D01*
X3375952Y-11269714D02*
X3395000Y-11260190D01*
X3395000Y-11260190D02*
X3423571Y-11260190D01*
X3423571Y-11260190D02*
X3442619Y-11269714D01*
X3442619Y-11269714D02*
X3452143Y-11288762D01*
X3452143Y-11288762D02*
X3452143Y-11393524D01*
X3452143Y-11288762D02*
X3461667Y-11269714D01*
X3461667Y-11269714D02*
X3480714Y-11260190D01*
X3480714Y-11260190D02*
X3509286Y-11260190D01*
X3509286Y-11260190D02*
X3528333Y-11269714D01*
X3528333Y-11269714D02*
X3537857Y-11288762D01*
X3537857Y-11288762D02*
X3537857Y-11393524D01*
X3928333Y-11184000D02*
X3756905Y-11441143D01*
X4185476Y-11193524D02*
X4204524Y-11193524D01*
X4204524Y-11193524D02*
X4223572Y-11203048D01*
X4223572Y-11203048D02*
X4233095Y-11212571D01*
X4233095Y-11212571D02*
X4242619Y-11231619D01*
X4242619Y-11231619D02*
X4252143Y-11269714D01*
X4252143Y-11269714D02*
X4252143Y-11317333D01*
X4252143Y-11317333D02*
X4242619Y-11355428D01*
X4242619Y-11355428D02*
X4233095Y-11374476D01*
X4233095Y-11374476D02*
X4223572Y-11384000D01*
X4223572Y-11384000D02*
X4204524Y-11393524D01*
X4204524Y-11393524D02*
X4185476Y-11393524D01*
X4185476Y-11393524D02*
X4166429Y-11384000D01*
X4166429Y-11384000D02*
X4156905Y-11374476D01*
X4156905Y-11374476D02*
X4147381Y-11355428D01*
X4147381Y-11355428D02*
X4137857Y-11317333D01*
X4137857Y-11317333D02*
X4137857Y-11269714D01*
X4137857Y-11269714D02*
X4147381Y-11231619D01*
X4147381Y-11231619D02*
X4156905Y-11212571D01*
X4156905Y-11212571D02*
X4166429Y-11203048D01*
X4166429Y-11203048D02*
X4185476Y-11193524D01*
X4337857Y-11374476D02*
X4347381Y-11384000D01*
X4347381Y-11384000D02*
X4337857Y-11393524D01*
X4337857Y-11393524D02*
X4328334Y-11384000D01*
X4328334Y-11384000D02*
X4337857Y-11374476D01*
X4337857Y-11374476D02*
X4337857Y-11393524D01*
X4471191Y-11193524D02*
X4490238Y-11193524D01*
X4490238Y-11193524D02*
X4509286Y-11203048D01*
X4509286Y-11203048D02*
X4518810Y-11212571D01*
X4518810Y-11212571D02*
X4528334Y-11231619D01*
X4528334Y-11231619D02*
X4537857Y-11269714D01*
X4537857Y-11269714D02*
X4537857Y-11317333D01*
X4537857Y-11317333D02*
X4528334Y-11355428D01*
X4528334Y-11355428D02*
X4518810Y-11374476D01*
X4518810Y-11374476D02*
X4509286Y-11384000D01*
X4509286Y-11384000D02*
X4490238Y-11393524D01*
X4490238Y-11393524D02*
X4471191Y-11393524D01*
X4471191Y-11393524D02*
X4452143Y-11384000D01*
X4452143Y-11384000D02*
X4442619Y-11374476D01*
X4442619Y-11374476D02*
X4433095Y-11355428D01*
X4433095Y-11355428D02*
X4423572Y-11317333D01*
X4423572Y-11317333D02*
X4423572Y-11269714D01*
X4423572Y-11269714D02*
X4433095Y-11231619D01*
X4433095Y-11231619D02*
X4442619Y-11212571D01*
X4442619Y-11212571D02*
X4452143Y-11203048D01*
X4452143Y-11203048D02*
X4471191Y-11193524D01*
X4718810Y-11193524D02*
X4623572Y-11193524D01*
X4623572Y-11193524D02*
X4614048Y-11288762D01*
X4614048Y-11288762D02*
X4623572Y-11279238D01*
X4623572Y-11279238D02*
X4642619Y-11269714D01*
X4642619Y-11269714D02*
X4690238Y-11269714D01*
X4690238Y-11269714D02*
X4709286Y-11279238D01*
X4709286Y-11279238D02*
X4718810Y-11288762D01*
X4718810Y-11288762D02*
X4728334Y-11307809D01*
X4728334Y-11307809D02*
X4728334Y-11355428D01*
X4728334Y-11355428D02*
X4718810Y-11374476D01*
X4718810Y-11374476D02*
X4709286Y-11384000D01*
X4709286Y-11384000D02*
X4690238Y-11393524D01*
X4690238Y-11393524D02*
X4642619Y-11393524D01*
X4642619Y-11393524D02*
X4623572Y-11384000D01*
X4623572Y-11384000D02*
X4614048Y-11374476D01*
X4823572Y-11393524D02*
X4861667Y-11393524D01*
X4861667Y-11393524D02*
X4880715Y-11384000D01*
X4880715Y-11384000D02*
X4890238Y-11374476D01*
X4890238Y-11374476D02*
X4909286Y-11345905D01*
X4909286Y-11345905D02*
X4918810Y-11307809D01*
X4918810Y-11307809D02*
X4918810Y-11231619D01*
X4918810Y-11231619D02*
X4909286Y-11212571D01*
X4909286Y-11212571D02*
X4899762Y-11203048D01*
X4899762Y-11203048D02*
X4880715Y-11193524D01*
X4880715Y-11193524D02*
X4842619Y-11193524D01*
X4842619Y-11193524D02*
X4823572Y-11203048D01*
X4823572Y-11203048D02*
X4814048Y-11212571D01*
X4814048Y-11212571D02*
X4804524Y-11231619D01*
X4804524Y-11231619D02*
X4804524Y-11279238D01*
X4804524Y-11279238D02*
X4814048Y-11298286D01*
X4814048Y-11298286D02*
X4823572Y-11307809D01*
X4823572Y-11307809D02*
X4842619Y-11317333D01*
X4842619Y-11317333D02*
X4880715Y-11317333D01*
X4880715Y-11317333D02*
X4899762Y-11307809D01*
X4899762Y-11307809D02*
X4909286Y-11298286D01*
X4909286Y-11298286D02*
X4918810Y-11279238D01*
X5109286Y-11393524D02*
X4995000Y-11393524D01*
X5052143Y-11393524D02*
X5052143Y-11193524D01*
X5052143Y-11193524D02*
X5033095Y-11222095D01*
X5033095Y-11222095D02*
X5014048Y-11241143D01*
X5014048Y-11241143D02*
X4995000Y-11250667D01*
X5185476Y-11193524D02*
X5185476Y-11231619D01*
X5261667Y-11193524D02*
X5261667Y-11231619D01*
X5556905Y-11469714D02*
X5547381Y-11460190D01*
X5547381Y-11460190D02*
X5528334Y-11431619D01*
X5528334Y-11431619D02*
X5518810Y-11412571D01*
X5518810Y-11412571D02*
X5509286Y-11384000D01*
X5509286Y-11384000D02*
X5499762Y-11336381D01*
X5499762Y-11336381D02*
X5499762Y-11298286D01*
X5499762Y-11298286D02*
X5509286Y-11250667D01*
X5509286Y-11250667D02*
X5518810Y-11222095D01*
X5518810Y-11222095D02*
X5528334Y-11203048D01*
X5528334Y-11203048D02*
X5547381Y-11174476D01*
X5547381Y-11174476D02*
X5556905Y-11164952D01*
X5623572Y-11212571D02*
X5633095Y-11203048D01*
X5633095Y-11203048D02*
X5652143Y-11193524D01*
X5652143Y-11193524D02*
X5699762Y-11193524D01*
X5699762Y-11193524D02*
X5718810Y-11203048D01*
X5718810Y-11203048D02*
X5728334Y-11212571D01*
X5728334Y-11212571D02*
X5737857Y-11231619D01*
X5737857Y-11231619D02*
X5737857Y-11250667D01*
X5737857Y-11250667D02*
X5728334Y-11279238D01*
X5728334Y-11279238D02*
X5614048Y-11393524D01*
X5614048Y-11393524D02*
X5737857Y-11393524D01*
X5975953Y-11393524D02*
X5975953Y-11193524D01*
X6061667Y-11393524D02*
X6061667Y-11288762D01*
X6061667Y-11288762D02*
X6052143Y-11269714D01*
X6052143Y-11269714D02*
X6033096Y-11260190D01*
X6033096Y-11260190D02*
X6004524Y-11260190D01*
X6004524Y-11260190D02*
X5985476Y-11269714D01*
X5985476Y-11269714D02*
X5975953Y-11279238D01*
X6185476Y-11393524D02*
X6166429Y-11384000D01*
X6166429Y-11384000D02*
X6156905Y-11374476D01*
X6156905Y-11374476D02*
X6147381Y-11355428D01*
X6147381Y-11355428D02*
X6147381Y-11298286D01*
X6147381Y-11298286D02*
X6156905Y-11279238D01*
X6156905Y-11279238D02*
X6166429Y-11269714D01*
X6166429Y-11269714D02*
X6185476Y-11260190D01*
X6185476Y-11260190D02*
X6214048Y-11260190D01*
X6214048Y-11260190D02*
X6233096Y-11269714D01*
X6233096Y-11269714D02*
X6242619Y-11279238D01*
X6242619Y-11279238D02*
X6252143Y-11298286D01*
X6252143Y-11298286D02*
X6252143Y-11355428D01*
X6252143Y-11355428D02*
X6242619Y-11374476D01*
X6242619Y-11374476D02*
X6233096Y-11384000D01*
X6233096Y-11384000D02*
X6214048Y-11393524D01*
X6214048Y-11393524D02*
X6185476Y-11393524D01*
X6366429Y-11393524D02*
X6347381Y-11384000D01*
X6347381Y-11384000D02*
X6337857Y-11364952D01*
X6337857Y-11364952D02*
X6337857Y-11193524D01*
X6518810Y-11384000D02*
X6499762Y-11393524D01*
X6499762Y-11393524D02*
X6461667Y-11393524D01*
X6461667Y-11393524D02*
X6442619Y-11384000D01*
X6442619Y-11384000D02*
X6433096Y-11364952D01*
X6433096Y-11364952D02*
X6433096Y-11288762D01*
X6433096Y-11288762D02*
X6442619Y-11269714D01*
X6442619Y-11269714D02*
X6461667Y-11260190D01*
X6461667Y-11260190D02*
X6499762Y-11260190D01*
X6499762Y-11260190D02*
X6518810Y-11269714D01*
X6518810Y-11269714D02*
X6528334Y-11288762D01*
X6528334Y-11288762D02*
X6528334Y-11307809D01*
X6528334Y-11307809D02*
X6433096Y-11326857D01*
X6604524Y-11384000D02*
X6623572Y-11393524D01*
X6623572Y-11393524D02*
X6661667Y-11393524D01*
X6661667Y-11393524D02*
X6680715Y-11384000D01*
X6680715Y-11384000D02*
X6690238Y-11364952D01*
X6690238Y-11364952D02*
X6690238Y-11355428D01*
X6690238Y-11355428D02*
X6680715Y-11336381D01*
X6680715Y-11336381D02*
X6661667Y-11326857D01*
X6661667Y-11326857D02*
X6633096Y-11326857D01*
X6633096Y-11326857D02*
X6614048Y-11317333D01*
X6614048Y-11317333D02*
X6604524Y-11298286D01*
X6604524Y-11298286D02*
X6604524Y-11288762D01*
X6604524Y-11288762D02*
X6614048Y-11269714D01*
X6614048Y-11269714D02*
X6633096Y-11260190D01*
X6633096Y-11260190D02*
X6661667Y-11260190D01*
X6661667Y-11260190D02*
X6680715Y-11269714D01*
X6756905Y-11469714D02*
X6766429Y-11460190D01*
X6766429Y-11460190D02*
X6785477Y-11431619D01*
X6785477Y-11431619D02*
X6795000Y-11412571D01*
X6795000Y-11412571D02*
X6804524Y-11384000D01*
X6804524Y-11384000D02*
X6814048Y-11336381D01*
X6814048Y-11336381D02*
X6814048Y-11298286D01*
X6814048Y-11298286D02*
X6804524Y-11250667D01*
X6804524Y-11250667D02*
X6795000Y-11222095D01*
X6795000Y-11222095D02*
X6785477Y-11203048D01*
X6785477Y-11203048D02*
X6766429Y-11174476D01*
X6766429Y-11174476D02*
X6756905Y-11164952D01*
X1795000Y-11471000D02*
X1995000Y-11671000D01*
X1995000Y-11471000D02*
X1795000Y-11671000D01*
X1995000Y-11571000D02*
G75*
G03*
X1995000Y-11571000I-100000J0D01*
G01*
X2223571Y-11463524D02*
X2347381Y-11463524D01*
X2347381Y-11463524D02*
X2280714Y-11539714D01*
X2280714Y-11539714D02*
X2309286Y-11539714D01*
X2309286Y-11539714D02*
X2328333Y-11549238D01*
X2328333Y-11549238D02*
X2337857Y-11558762D01*
X2337857Y-11558762D02*
X2347381Y-11577809D01*
X2347381Y-11577809D02*
X2347381Y-11625428D01*
X2347381Y-11625428D02*
X2337857Y-11644476D01*
X2337857Y-11644476D02*
X2328333Y-11654000D01*
X2328333Y-11654000D02*
X2309286Y-11663524D01*
X2309286Y-11663524D02*
X2252143Y-11663524D01*
X2252143Y-11663524D02*
X2233095Y-11654000D01*
X2233095Y-11654000D02*
X2223571Y-11644476D01*
X2433095Y-11644476D02*
X2442619Y-11654000D01*
X2442619Y-11654000D02*
X2433095Y-11663524D01*
X2433095Y-11663524D02*
X2423571Y-11654000D01*
X2423571Y-11654000D02*
X2433095Y-11644476D01*
X2433095Y-11644476D02*
X2433095Y-11663524D01*
X2518810Y-11482571D02*
X2528333Y-11473048D01*
X2528333Y-11473048D02*
X2547381Y-11463524D01*
X2547381Y-11463524D02*
X2595000Y-11463524D01*
X2595000Y-11463524D02*
X2614048Y-11473048D01*
X2614048Y-11473048D02*
X2623571Y-11482571D01*
X2623571Y-11482571D02*
X2633095Y-11501619D01*
X2633095Y-11501619D02*
X2633095Y-11520667D01*
X2633095Y-11520667D02*
X2623571Y-11549238D01*
X2623571Y-11549238D02*
X2509286Y-11663524D01*
X2509286Y-11663524D02*
X2633095Y-11663524D01*
X2756905Y-11463524D02*
X2775952Y-11463524D01*
X2775952Y-11463524D02*
X2795000Y-11473048D01*
X2795000Y-11473048D02*
X2804524Y-11482571D01*
X2804524Y-11482571D02*
X2814048Y-11501619D01*
X2814048Y-11501619D02*
X2823571Y-11539714D01*
X2823571Y-11539714D02*
X2823571Y-11587333D01*
X2823571Y-11587333D02*
X2814048Y-11625428D01*
X2814048Y-11625428D02*
X2804524Y-11644476D01*
X2804524Y-11644476D02*
X2795000Y-11654000D01*
X2795000Y-11654000D02*
X2775952Y-11663524D01*
X2775952Y-11663524D02*
X2756905Y-11663524D01*
X2756905Y-11663524D02*
X2737857Y-11654000D01*
X2737857Y-11654000D02*
X2728333Y-11644476D01*
X2728333Y-11644476D02*
X2718810Y-11625428D01*
X2718810Y-11625428D02*
X2709286Y-11587333D01*
X2709286Y-11587333D02*
X2709286Y-11539714D01*
X2709286Y-11539714D02*
X2718810Y-11501619D01*
X2718810Y-11501619D02*
X2728333Y-11482571D01*
X2728333Y-11482571D02*
X2737857Y-11473048D01*
X2737857Y-11473048D02*
X2756905Y-11463524D01*
X2947381Y-11463524D02*
X2966429Y-11463524D01*
X2966429Y-11463524D02*
X2985476Y-11473048D01*
X2985476Y-11473048D02*
X2995000Y-11482571D01*
X2995000Y-11482571D02*
X3004524Y-11501619D01*
X3004524Y-11501619D02*
X3014048Y-11539714D01*
X3014048Y-11539714D02*
X3014048Y-11587333D01*
X3014048Y-11587333D02*
X3004524Y-11625428D01*
X3004524Y-11625428D02*
X2995000Y-11644476D01*
X2995000Y-11644476D02*
X2985476Y-11654000D01*
X2985476Y-11654000D02*
X2966429Y-11663524D01*
X2966429Y-11663524D02*
X2947381Y-11663524D01*
X2947381Y-11663524D02*
X2928333Y-11654000D01*
X2928333Y-11654000D02*
X2918809Y-11644476D01*
X2918809Y-11644476D02*
X2909286Y-11625428D01*
X2909286Y-11625428D02*
X2899762Y-11587333D01*
X2899762Y-11587333D02*
X2899762Y-11539714D01*
X2899762Y-11539714D02*
X2909286Y-11501619D01*
X2909286Y-11501619D02*
X2918809Y-11482571D01*
X2918809Y-11482571D02*
X2928333Y-11473048D01*
X2928333Y-11473048D02*
X2947381Y-11463524D01*
X3099762Y-11663524D02*
X3099762Y-11530190D01*
X3099762Y-11549238D02*
X3109286Y-11539714D01*
X3109286Y-11539714D02*
X3128333Y-11530190D01*
X3128333Y-11530190D02*
X3156905Y-11530190D01*
X3156905Y-11530190D02*
X3175952Y-11539714D01*
X3175952Y-11539714D02*
X3185476Y-11558762D01*
X3185476Y-11558762D02*
X3185476Y-11663524D01*
X3185476Y-11558762D02*
X3195000Y-11539714D01*
X3195000Y-11539714D02*
X3214048Y-11530190D01*
X3214048Y-11530190D02*
X3242619Y-11530190D01*
X3242619Y-11530190D02*
X3261667Y-11539714D01*
X3261667Y-11539714D02*
X3271190Y-11558762D01*
X3271190Y-11558762D02*
X3271190Y-11663524D01*
X3366429Y-11663524D02*
X3366429Y-11530190D01*
X3366429Y-11549238D02*
X3375952Y-11539714D01*
X3375952Y-11539714D02*
X3395000Y-11530190D01*
X3395000Y-11530190D02*
X3423571Y-11530190D01*
X3423571Y-11530190D02*
X3442619Y-11539714D01*
X3442619Y-11539714D02*
X3452143Y-11558762D01*
X3452143Y-11558762D02*
X3452143Y-11663524D01*
X3452143Y-11558762D02*
X3461667Y-11539714D01*
X3461667Y-11539714D02*
X3480714Y-11530190D01*
X3480714Y-11530190D02*
X3509286Y-11530190D01*
X3509286Y-11530190D02*
X3528333Y-11539714D01*
X3528333Y-11539714D02*
X3537857Y-11558762D01*
X3537857Y-11558762D02*
X3537857Y-11663524D01*
X3928333Y-11454000D02*
X3756905Y-11711143D01*
X4185476Y-11463524D02*
X4204524Y-11463524D01*
X4204524Y-11463524D02*
X4223572Y-11473048D01*
X4223572Y-11473048D02*
X4233095Y-11482571D01*
X4233095Y-11482571D02*
X4242619Y-11501619D01*
X4242619Y-11501619D02*
X4252143Y-11539714D01*
X4252143Y-11539714D02*
X4252143Y-11587333D01*
X4252143Y-11587333D02*
X4242619Y-11625428D01*
X4242619Y-11625428D02*
X4233095Y-11644476D01*
X4233095Y-11644476D02*
X4223572Y-11654000D01*
X4223572Y-11654000D02*
X4204524Y-11663524D01*
X4204524Y-11663524D02*
X4185476Y-11663524D01*
X4185476Y-11663524D02*
X4166429Y-11654000D01*
X4166429Y-11654000D02*
X4156905Y-11644476D01*
X4156905Y-11644476D02*
X4147381Y-11625428D01*
X4147381Y-11625428D02*
X4137857Y-11587333D01*
X4137857Y-11587333D02*
X4137857Y-11539714D01*
X4137857Y-11539714D02*
X4147381Y-11501619D01*
X4147381Y-11501619D02*
X4156905Y-11482571D01*
X4156905Y-11482571D02*
X4166429Y-11473048D01*
X4166429Y-11473048D02*
X4185476Y-11463524D01*
X4337857Y-11644476D02*
X4347381Y-11654000D01*
X4347381Y-11654000D02*
X4337857Y-11663524D01*
X4337857Y-11663524D02*
X4328334Y-11654000D01*
X4328334Y-11654000D02*
X4337857Y-11644476D01*
X4337857Y-11644476D02*
X4337857Y-11663524D01*
X4537857Y-11663524D02*
X4423572Y-11663524D01*
X4480714Y-11663524D02*
X4480714Y-11463524D01*
X4480714Y-11463524D02*
X4461667Y-11492095D01*
X4461667Y-11492095D02*
X4442619Y-11511143D01*
X4442619Y-11511143D02*
X4423572Y-11520667D01*
X4614048Y-11482571D02*
X4623572Y-11473048D01*
X4623572Y-11473048D02*
X4642619Y-11463524D01*
X4642619Y-11463524D02*
X4690238Y-11463524D01*
X4690238Y-11463524D02*
X4709286Y-11473048D01*
X4709286Y-11473048D02*
X4718810Y-11482571D01*
X4718810Y-11482571D02*
X4728334Y-11501619D01*
X4728334Y-11501619D02*
X4728334Y-11520667D01*
X4728334Y-11520667D02*
X4718810Y-11549238D01*
X4718810Y-11549238D02*
X4604524Y-11663524D01*
X4604524Y-11663524D02*
X4728334Y-11663524D01*
X4899762Y-11463524D02*
X4861667Y-11463524D01*
X4861667Y-11463524D02*
X4842619Y-11473048D01*
X4842619Y-11473048D02*
X4833095Y-11482571D01*
X4833095Y-11482571D02*
X4814048Y-11511143D01*
X4814048Y-11511143D02*
X4804524Y-11549238D01*
X4804524Y-11549238D02*
X4804524Y-11625428D01*
X4804524Y-11625428D02*
X4814048Y-11644476D01*
X4814048Y-11644476D02*
X4823572Y-11654000D01*
X4823572Y-11654000D02*
X4842619Y-11663524D01*
X4842619Y-11663524D02*
X4880715Y-11663524D01*
X4880715Y-11663524D02*
X4899762Y-11654000D01*
X4899762Y-11654000D02*
X4909286Y-11644476D01*
X4909286Y-11644476D02*
X4918810Y-11625428D01*
X4918810Y-11625428D02*
X4918810Y-11577809D01*
X4918810Y-11577809D02*
X4909286Y-11558762D01*
X4909286Y-11558762D02*
X4899762Y-11549238D01*
X4899762Y-11549238D02*
X4880715Y-11539714D01*
X4880715Y-11539714D02*
X4842619Y-11539714D01*
X4842619Y-11539714D02*
X4823572Y-11549238D01*
X4823572Y-11549238D02*
X4814048Y-11558762D01*
X4814048Y-11558762D02*
X4804524Y-11577809D01*
X5042619Y-11463524D02*
X5061667Y-11463524D01*
X5061667Y-11463524D02*
X5080715Y-11473048D01*
X5080715Y-11473048D02*
X5090238Y-11482571D01*
X5090238Y-11482571D02*
X5099762Y-11501619D01*
X5099762Y-11501619D02*
X5109286Y-11539714D01*
X5109286Y-11539714D02*
X5109286Y-11587333D01*
X5109286Y-11587333D02*
X5099762Y-11625428D01*
X5099762Y-11625428D02*
X5090238Y-11644476D01*
X5090238Y-11644476D02*
X5080715Y-11654000D01*
X5080715Y-11654000D02*
X5061667Y-11663524D01*
X5061667Y-11663524D02*
X5042619Y-11663524D01*
X5042619Y-11663524D02*
X5023572Y-11654000D01*
X5023572Y-11654000D02*
X5014048Y-11644476D01*
X5014048Y-11644476D02*
X5004524Y-11625428D01*
X5004524Y-11625428D02*
X4995000Y-11587333D01*
X4995000Y-11587333D02*
X4995000Y-11539714D01*
X4995000Y-11539714D02*
X5004524Y-11501619D01*
X5004524Y-11501619D02*
X5014048Y-11482571D01*
X5014048Y-11482571D02*
X5023572Y-11473048D01*
X5023572Y-11473048D02*
X5042619Y-11463524D01*
X5185476Y-11463524D02*
X5185476Y-11501619D01*
X5261667Y-11463524D02*
X5261667Y-11501619D01*
X5556905Y-11739714D02*
X5547381Y-11730190D01*
X5547381Y-11730190D02*
X5528334Y-11701619D01*
X5528334Y-11701619D02*
X5518810Y-11682571D01*
X5518810Y-11682571D02*
X5509286Y-11654000D01*
X5509286Y-11654000D02*
X5499762Y-11606381D01*
X5499762Y-11606381D02*
X5499762Y-11568286D01*
X5499762Y-11568286D02*
X5509286Y-11520667D01*
X5509286Y-11520667D02*
X5518810Y-11492095D01*
X5518810Y-11492095D02*
X5528334Y-11473048D01*
X5528334Y-11473048D02*
X5547381Y-11444476D01*
X5547381Y-11444476D02*
X5556905Y-11434952D01*
X5623572Y-11482571D02*
X5633095Y-11473048D01*
X5633095Y-11473048D02*
X5652143Y-11463524D01*
X5652143Y-11463524D02*
X5699762Y-11463524D01*
X5699762Y-11463524D02*
X5718810Y-11473048D01*
X5718810Y-11473048D02*
X5728334Y-11482571D01*
X5728334Y-11482571D02*
X5737857Y-11501619D01*
X5737857Y-11501619D02*
X5737857Y-11520667D01*
X5737857Y-11520667D02*
X5728334Y-11549238D01*
X5728334Y-11549238D02*
X5614048Y-11663524D01*
X5614048Y-11663524D02*
X5737857Y-11663524D01*
X5975953Y-11663524D02*
X5975953Y-11463524D01*
X6061667Y-11663524D02*
X6061667Y-11558762D01*
X6061667Y-11558762D02*
X6052143Y-11539714D01*
X6052143Y-11539714D02*
X6033096Y-11530190D01*
X6033096Y-11530190D02*
X6004524Y-11530190D01*
X6004524Y-11530190D02*
X5985476Y-11539714D01*
X5985476Y-11539714D02*
X5975953Y-11549238D01*
X6185476Y-11663524D02*
X6166429Y-11654000D01*
X6166429Y-11654000D02*
X6156905Y-11644476D01*
X6156905Y-11644476D02*
X6147381Y-11625428D01*
X6147381Y-11625428D02*
X6147381Y-11568286D01*
X6147381Y-11568286D02*
X6156905Y-11549238D01*
X6156905Y-11549238D02*
X6166429Y-11539714D01*
X6166429Y-11539714D02*
X6185476Y-11530190D01*
X6185476Y-11530190D02*
X6214048Y-11530190D01*
X6214048Y-11530190D02*
X6233096Y-11539714D01*
X6233096Y-11539714D02*
X6242619Y-11549238D01*
X6242619Y-11549238D02*
X6252143Y-11568286D01*
X6252143Y-11568286D02*
X6252143Y-11625428D01*
X6252143Y-11625428D02*
X6242619Y-11644476D01*
X6242619Y-11644476D02*
X6233096Y-11654000D01*
X6233096Y-11654000D02*
X6214048Y-11663524D01*
X6214048Y-11663524D02*
X6185476Y-11663524D01*
X6366429Y-11663524D02*
X6347381Y-11654000D01*
X6347381Y-11654000D02*
X6337857Y-11634952D01*
X6337857Y-11634952D02*
X6337857Y-11463524D01*
X6518810Y-11654000D02*
X6499762Y-11663524D01*
X6499762Y-11663524D02*
X6461667Y-11663524D01*
X6461667Y-11663524D02*
X6442619Y-11654000D01*
X6442619Y-11654000D02*
X6433096Y-11634952D01*
X6433096Y-11634952D02*
X6433096Y-11558762D01*
X6433096Y-11558762D02*
X6442619Y-11539714D01*
X6442619Y-11539714D02*
X6461667Y-11530190D01*
X6461667Y-11530190D02*
X6499762Y-11530190D01*
X6499762Y-11530190D02*
X6518810Y-11539714D01*
X6518810Y-11539714D02*
X6528334Y-11558762D01*
X6528334Y-11558762D02*
X6528334Y-11577809D01*
X6528334Y-11577809D02*
X6433096Y-11596857D01*
X6604524Y-11654000D02*
X6623572Y-11663524D01*
X6623572Y-11663524D02*
X6661667Y-11663524D01*
X6661667Y-11663524D02*
X6680715Y-11654000D01*
X6680715Y-11654000D02*
X6690238Y-11634952D01*
X6690238Y-11634952D02*
X6690238Y-11625428D01*
X6690238Y-11625428D02*
X6680715Y-11606381D01*
X6680715Y-11606381D02*
X6661667Y-11596857D01*
X6661667Y-11596857D02*
X6633096Y-11596857D01*
X6633096Y-11596857D02*
X6614048Y-11587333D01*
X6614048Y-11587333D02*
X6604524Y-11568286D01*
X6604524Y-11568286D02*
X6604524Y-11558762D01*
X6604524Y-11558762D02*
X6614048Y-11539714D01*
X6614048Y-11539714D02*
X6633096Y-11530190D01*
X6633096Y-11530190D02*
X6661667Y-11530190D01*
X6661667Y-11530190D02*
X6680715Y-11539714D01*
X6756905Y-11739714D02*
X6766429Y-11730190D01*
X6766429Y-11730190D02*
X6785477Y-11701619D01*
X6785477Y-11701619D02*
X6795000Y-11682571D01*
X6795000Y-11682571D02*
X6804524Y-11654000D01*
X6804524Y-11654000D02*
X6814048Y-11606381D01*
X6814048Y-11606381D02*
X6814048Y-11568286D01*
X6814048Y-11568286D02*
X6804524Y-11520667D01*
X6804524Y-11520667D02*
X6795000Y-11492095D01*
X6795000Y-11492095D02*
X6785477Y-11473048D01*
X6785477Y-11473048D02*
X6766429Y-11444476D01*
X6766429Y-11444476D02*
X6756905Y-11434952D01*
M02*
