%TF.GenerationSoftware,KiCad,Pcbnew,7.0.1-3b83917a11~172~ubuntu22.04.1*%
%TF.CreationDate,2023-04-16T23:39:10+09:00*%
%TF.ProjectId,pcb,7063622e-6b69-4636-9164-5f7063625858,rev?*%
%TF.SameCoordinates,Original*%
%TF.FileFunction,Soldermask,Top*%
%TF.FilePolarity,Negative*%
%FSLAX46Y46*%
G04 Gerber Fmt 4.6, Leading zero omitted, Abs format (unit mm)*
G04 Created by KiCad (PCBNEW 7.0.1-3b83917a11~172~ubuntu22.04.1) date 2023-04-16 23:39:10*
%MOMM*%
%LPD*%
G01*
G04 APERTURE LIST*
G04 Aperture macros list*
%AMRoundRect*
0 Rectangle with rounded corners*
0 $1 Rounding radius*
0 $2 $3 $4 $5 $6 $7 $8 $9 X,Y pos of 4 corners*
0 Add a 4 corners polygon primitive as box body*
4,1,4,$2,$3,$4,$5,$6,$7,$8,$9,$2,$3,0*
0 Add four circle primitives for the rounded corners*
1,1,$1+$1,$2,$3*
1,1,$1+$1,$4,$5*
1,1,$1+$1,$6,$7*
1,1,$1+$1,$8,$9*
0 Add four rect primitives between the rounded corners*
20,1,$1+$1,$2,$3,$4,$5,0*
20,1,$1+$1,$4,$5,$6,$7,0*
20,1,$1+$1,$6,$7,$8,$9,0*
20,1,$1+$1,$8,$9,$2,$3,0*%
%AMFreePoly0*
4,1,58,1.881242,0.792533,1.914585,0.788777,1.924216,0.782725,1.935306,0.780194,1.961541,0.759271,1.989950,0.741421,2.341421,0.389950,2.359271,0.361541,2.380194,0.335306,2.382725,0.324216,2.388777,0.314585,2.392533,0.281242,2.400000,0.248529,2.400000,-0.248529,2.392533,-0.281242,2.388777,-0.314585,2.382725,-0.324216,2.380194,-0.335306,2.359271,-0.361541,2.341421,-0.389950,
1.989950,-0.741421,1.961541,-0.759271,1.935306,-0.780194,1.924216,-0.782725,1.914585,-0.788777,1.881242,-0.792533,1.848529,-0.800000,0.000000,-0.800000,-0.248529,-0.800000,-0.281242,-0.792533,-0.314585,-0.788777,-0.324216,-0.782725,-0.335306,-0.780194,-0.361541,-0.759271,-0.389950,-0.741421,-0.741421,-0.389950,-0.759271,-0.361541,-0.780194,-0.335306,-0.782725,-0.324216,-0.788777,-0.314585,
-0.792533,-0.281242,-0.800000,-0.248529,-0.800000,0.248529,-0.792533,0.281242,-0.788777,0.314585,-0.782725,0.324216,-0.780194,0.335306,-0.759271,0.361541,-0.741421,0.389950,-0.389950,0.741421,-0.361541,0.759271,-0.335306,0.780194,-0.324216,0.782725,-0.314585,0.788777,-0.281242,0.792533,-0.248529,0.800000,1.848529,0.800000,1.881242,0.792533,1.881242,0.792533,$1*%
%AMFreePoly1*
4,1,58,0.281242,0.792533,0.314585,0.788777,0.324216,0.782725,0.335306,0.780194,0.361541,0.759271,0.389950,0.741421,0.741421,0.389950,0.759271,0.361541,0.780194,0.335306,0.782725,0.324216,0.788777,0.314585,0.792533,0.281242,0.800000,0.248529,0.800000,-0.248529,0.792533,-0.281242,0.788777,-0.314585,0.782725,-0.324216,0.780194,-0.335306,0.759271,-0.361541,0.741421,-0.389950,
0.389950,-0.741421,0.361541,-0.759271,0.335306,-0.780194,0.324216,-0.782725,0.314585,-0.788777,0.281242,-0.792533,0.248529,-0.800000,0.000000,-0.800000,-0.248529,-0.800000,-0.281242,-0.792533,-0.314585,-0.788777,-0.324216,-0.782725,-0.335306,-0.780194,-0.361541,-0.759271,-0.389950,-0.741421,-0.741421,-0.389950,-0.759271,-0.361541,-0.780194,-0.335306,-0.782725,-0.324216,-0.788777,-0.314585,
-0.792533,-0.281242,-0.800000,-0.248529,-0.800000,0.248529,-0.792533,0.281242,-0.788777,0.314585,-0.782725,0.324216,-0.780194,0.335306,-0.759271,0.361541,-0.741421,0.389950,-0.389950,0.741421,-0.361541,0.759271,-0.335306,0.780194,-0.324216,0.782725,-0.314585,0.788777,-0.281242,0.792533,-0.248529,0.800000,0.248529,0.800000,0.281242,0.792533,0.281242,0.792533,$1*%
G04 Aperture macros list end*
%ADD10RoundRect,0.150000X0.150000X-0.725000X0.150000X0.725000X-0.150000X0.725000X-0.150000X-0.725000X0*%
%ADD11RoundRect,0.200000X-0.275000X0.200000X-0.275000X-0.200000X0.275000X-0.200000X0.275000X0.200000X0*%
%ADD12C,4.000000*%
%ADD13R,1.600000X1.600000*%
%ADD14C,1.600000*%
%ADD15RoundRect,0.250000X0.600000X0.675000X-0.600000X0.675000X-0.600000X-0.675000X0.600000X-0.675000X0*%
%ADD16O,1.700000X1.850000*%
%ADD17RoundRect,0.225000X-0.225000X-0.250000X0.225000X-0.250000X0.225000X0.250000X-0.225000X0.250000X0*%
%ADD18RoundRect,0.250000X0.262500X0.450000X-0.262500X0.450000X-0.262500X-0.450000X0.262500X-0.450000X0*%
%ADD19RoundRect,0.250000X-0.262500X-0.450000X0.262500X-0.450000X0.262500X0.450000X-0.262500X0.450000X0*%
%ADD20RoundRect,0.250000X-0.250000X-0.475000X0.250000X-0.475000X0.250000X0.475000X-0.250000X0.475000X0*%
%ADD21RoundRect,0.250000X-1.100000X0.325000X-1.100000X-0.325000X1.100000X-0.325000X1.100000X0.325000X0*%
%ADD22RoundRect,0.200000X0.200000X0.275000X-0.200000X0.275000X-0.200000X-0.275000X0.200000X-0.275000X0*%
%ADD23R,2.450000X2.100000*%
%ADD24RoundRect,0.225000X0.225000X0.250000X-0.225000X0.250000X-0.225000X-0.250000X0.225000X-0.250000X0*%
%ADD25FreePoly0,0.000000*%
%ADD26FreePoly1,0.000000*%
%ADD27O,3.200000X1.600000*%
%ADD28RoundRect,0.200000X-1.400000X-0.600000X1.400000X-0.600000X1.400000X0.600000X-1.400000X0.600000X0*%
%ADD29RoundRect,0.200000X-0.600000X-0.600000X0.600000X-0.600000X0.600000X0.600000X-0.600000X0.600000X0*%
%ADD30RoundRect,0.250000X-1.000000X-0.650000X1.000000X-0.650000X1.000000X0.650000X-1.000000X0.650000X0*%
%ADD31R,4.600000X2.000000*%
%ADD32O,4.200000X2.000000*%
%ADD33O,2.000000X4.200000*%
%ADD34RoundRect,0.250000X-0.600000X-0.675000X0.600000X-0.675000X0.600000X0.675000X-0.600000X0.675000X0*%
%ADD35C,2.400000*%
%ADD36C,1.700000*%
%ADD37RoundRect,0.048800X-0.541200X-0.256200X0.541200X-0.256200X0.541200X0.256200X-0.541200X0.256200X0*%
%ADD38RoundRect,0.096000X-0.889000X-0.204000X0.889000X-0.204000X0.889000X0.204000X-0.889000X0.204000X0*%
%ADD39R,2.410000X5.300000*%
%ADD40RoundRect,0.250000X0.325000X1.100000X-0.325000X1.100000X-0.325000X-1.100000X0.325000X-1.100000X0*%
G04 APERTURE END LIST*
D10*
%TO.C,U3*%
X94169400Y-67606200D03*
X95439400Y-67606200D03*
X96709400Y-67606200D03*
X97979400Y-67606200D03*
X99249400Y-67606200D03*
X100519400Y-67606200D03*
X101789400Y-67606200D03*
X103059400Y-67606200D03*
X103059400Y-62456200D03*
X101789400Y-62456200D03*
X100519400Y-62456200D03*
X99249400Y-62456200D03*
X97979400Y-62456200D03*
X96709400Y-62456200D03*
X95439400Y-62456200D03*
X94169400Y-62456200D03*
%TD*%
D11*
%TO.C,R7*%
X67564000Y-80162400D03*
X67564000Y-81812400D03*
%TD*%
D12*
%TO.C,J4*%
X82960000Y-91533900D03*
X107960000Y-91533900D03*
D13*
X101000000Y-90113900D03*
D14*
X98230000Y-90113900D03*
X95460000Y-90113900D03*
X92690000Y-90113900D03*
X89920000Y-90113900D03*
X99615000Y-92953900D03*
X96845000Y-92953900D03*
X94075000Y-92953900D03*
X91305000Y-92953900D03*
%TD*%
D15*
%TO.C,J5*%
X61772800Y-92151200D03*
D16*
X59272800Y-92151200D03*
%TD*%
D11*
%TO.C,R8*%
X64998600Y-80162400D03*
X64998600Y-81812400D03*
%TD*%
D17*
%TO.C,C8*%
X105598800Y-71727200D03*
X107148800Y-71727200D03*
%TD*%
%TO.C,C9*%
X22745400Y-73558400D03*
X24295400Y-73558400D03*
%TD*%
%TO.C,C5*%
X95598800Y-71727200D03*
X97148800Y-71727200D03*
%TD*%
D18*
%TO.C,R2*%
X94779000Y-49654600D03*
X92954000Y-49654600D03*
%TD*%
D19*
%TO.C,R6*%
X99227800Y-57020600D03*
X101052800Y-57020600D03*
%TD*%
D20*
%TO.C,C3*%
X103328600Y-53513600D03*
X105228600Y-53513600D03*
%TD*%
D19*
%TO.C,R3*%
X108623900Y-48130600D03*
X110448900Y-48130600D03*
%TD*%
D21*
%TO.C,C1*%
X114006800Y-46655600D03*
X114006800Y-49605600D03*
%TD*%
D22*
%TO.C,R9*%
X24396200Y-76530200D03*
X22746200Y-76530200D03*
%TD*%
D15*
%TO.C,J6*%
X71780400Y-92151200D03*
D16*
X69280400Y-92151200D03*
%TD*%
D18*
%TO.C,R4*%
X105267300Y-57020600D03*
X103442300Y-57020600D03*
%TD*%
D17*
%TO.C,C6*%
X100598800Y-71727200D03*
X102148800Y-71727200D03*
%TD*%
D19*
%TO.C,R5*%
X94833600Y-57020600D03*
X96658600Y-57020600D03*
%TD*%
D23*
%TO.C,L1*%
X105373600Y-38427800D03*
X99373600Y-38427800D03*
%TD*%
D24*
%TO.C,C7*%
X92148800Y-71727200D03*
X90598800Y-71727200D03*
%TD*%
D25*
%TO.C,U2*%
X59918800Y-21894800D03*
D26*
X61518800Y-21894800D03*
D27*
X60718800Y-24434800D03*
D14*
X61518800Y-24434800D03*
D28*
X60718800Y-26974800D03*
D29*
X61518800Y-26974800D03*
D27*
X60718800Y-29514800D03*
D14*
X61518800Y-29514800D03*
D27*
X60718800Y-32054800D03*
D14*
X61518800Y-32054800D03*
D27*
X60718800Y-34594800D03*
D14*
X61518800Y-34594800D03*
D27*
X60718800Y-37134800D03*
D14*
X61518800Y-37134800D03*
D28*
X60718800Y-39674800D03*
D29*
X61518800Y-39674800D03*
D27*
X60718800Y-42214800D03*
D14*
X61518800Y-42214800D03*
D27*
X60718800Y-44754800D03*
D14*
X61518800Y-44754800D03*
D27*
X60718800Y-47294800D03*
D14*
X61518800Y-47294800D03*
D27*
X60718800Y-49834800D03*
D14*
X61518800Y-49834800D03*
D28*
X60718800Y-52374800D03*
D29*
X61518800Y-52374800D03*
D27*
X60718800Y-54914800D03*
D14*
X61518800Y-54914800D03*
D27*
X60718800Y-57454800D03*
D14*
X61518800Y-57454800D03*
D27*
X60718800Y-59994800D03*
D14*
X61518800Y-59994800D03*
D27*
X60718800Y-62534800D03*
D14*
X61518800Y-62534800D03*
D28*
X60718800Y-65074800D03*
D29*
X61518800Y-65074800D03*
D27*
X60718800Y-67614800D03*
D14*
X61518800Y-67614800D03*
D27*
X60718800Y-70154800D03*
D14*
X61518800Y-70154800D03*
X79298800Y-70154800D03*
D27*
X80098800Y-70154800D03*
D14*
X79298800Y-67614800D03*
D27*
X80098800Y-67614800D03*
D29*
X79298800Y-65074800D03*
D28*
X80098800Y-65074800D03*
D14*
X79298800Y-62534800D03*
D27*
X80098800Y-62534800D03*
D14*
X79298800Y-59994800D03*
D27*
X80098800Y-59994800D03*
D14*
X79298800Y-57454800D03*
D27*
X80098800Y-57454800D03*
D14*
X79298800Y-54914800D03*
D27*
X80098800Y-54914800D03*
D29*
X79298800Y-52374800D03*
D28*
X80098800Y-52374800D03*
D14*
X79298800Y-49834800D03*
D27*
X80098800Y-49834800D03*
D14*
X79298800Y-47294800D03*
D27*
X80098800Y-47294800D03*
D14*
X79298800Y-44754800D03*
D27*
X80098800Y-44754800D03*
D14*
X79298800Y-42214800D03*
D27*
X80098800Y-42214800D03*
D29*
X79298800Y-39674800D03*
D28*
X80098800Y-39674800D03*
D14*
X79298800Y-37134800D03*
D27*
X80098800Y-37134800D03*
D14*
X79298800Y-34594800D03*
D27*
X80098800Y-34594800D03*
D14*
X79298800Y-32054800D03*
D27*
X80098800Y-32054800D03*
D14*
X79298800Y-29514800D03*
D27*
X80098800Y-29514800D03*
D29*
X79298800Y-26974800D03*
D28*
X80098800Y-26974800D03*
D14*
X79298800Y-24434800D03*
D27*
X80098800Y-24434800D03*
D14*
X79298800Y-21894800D03*
D27*
X80098800Y-21894800D03*
%TD*%
D30*
%TO.C,D1*%
X110787600Y-38402400D03*
X114787600Y-38402400D03*
%TD*%
D31*
%TO.C,J1*%
X108381800Y-31979400D03*
D32*
X108381800Y-25679400D03*
D33*
X103581800Y-29079400D03*
%TD*%
D34*
%TO.C,J3*%
X93974600Y-24018000D03*
D16*
X96474600Y-24018000D03*
%TD*%
D35*
%TO.C,SW1*%
X25222200Y-69469000D03*
X25222200Y-62469000D03*
D36*
X22722200Y-68219000D03*
X22722200Y-63719000D03*
%TD*%
D37*
%TO.C,Q2*%
X84836000Y-22604800D03*
X84836000Y-24434800D03*
X86886000Y-23519800D03*
%TD*%
%TO.C,Q1*%
X53991400Y-22605400D03*
X53991400Y-24435400D03*
X56041400Y-23520400D03*
%TD*%
D20*
%TO.C,C2*%
X108662600Y-43431600D03*
X110562600Y-43431600D03*
%TD*%
D19*
%TO.C,R1*%
X92954000Y-45870000D03*
X94779000Y-45870000D03*
%TD*%
D25*
%TO.C,U4*%
X29896000Y-21894800D03*
D26*
X31496000Y-21894800D03*
D27*
X30696000Y-24434800D03*
D14*
X31496000Y-24434800D03*
D28*
X30696000Y-26974800D03*
D29*
X31496000Y-26974800D03*
D27*
X30696000Y-29514800D03*
D14*
X31496000Y-29514800D03*
D27*
X30696000Y-32054800D03*
D14*
X31496000Y-32054800D03*
D27*
X30696000Y-34594800D03*
D14*
X31496000Y-34594800D03*
D27*
X30696000Y-37134800D03*
D14*
X31496000Y-37134800D03*
D28*
X30696000Y-39674800D03*
D29*
X31496000Y-39674800D03*
D27*
X30696000Y-42214800D03*
D14*
X31496000Y-42214800D03*
D27*
X30696000Y-44754800D03*
D14*
X31496000Y-44754800D03*
D27*
X30696000Y-47294800D03*
D14*
X31496000Y-47294800D03*
D27*
X30696000Y-49834800D03*
D14*
X31496000Y-49834800D03*
D28*
X30696000Y-52374800D03*
D29*
X31496000Y-52374800D03*
D27*
X30696000Y-54914800D03*
D14*
X31496000Y-54914800D03*
D27*
X30696000Y-57454800D03*
D14*
X31496000Y-57454800D03*
D27*
X30696000Y-59994800D03*
D14*
X31496000Y-59994800D03*
D27*
X30696000Y-62534800D03*
D14*
X31496000Y-62534800D03*
D28*
X30696000Y-65074800D03*
D29*
X31496000Y-65074800D03*
D27*
X30696000Y-67614800D03*
D14*
X31496000Y-67614800D03*
D27*
X30696000Y-70154800D03*
D14*
X31496000Y-70154800D03*
X49276000Y-70154800D03*
D27*
X50076000Y-70154800D03*
D14*
X49276000Y-67614800D03*
D27*
X50076000Y-67614800D03*
D29*
X49276000Y-65074800D03*
D28*
X50076000Y-65074800D03*
D14*
X49276000Y-62534800D03*
D27*
X50076000Y-62534800D03*
D14*
X49276000Y-59994800D03*
D27*
X50076000Y-59994800D03*
D14*
X49276000Y-57454800D03*
D27*
X50076000Y-57454800D03*
D14*
X49276000Y-54914800D03*
D27*
X50076000Y-54914800D03*
D29*
X49276000Y-52374800D03*
D28*
X50076000Y-52374800D03*
D14*
X49276000Y-49834800D03*
D27*
X50076000Y-49834800D03*
D14*
X49276000Y-47294800D03*
D27*
X50076000Y-47294800D03*
D14*
X49276000Y-44754800D03*
D27*
X50076000Y-44754800D03*
D14*
X49276000Y-42214800D03*
D27*
X50076000Y-42214800D03*
D29*
X49276000Y-39674800D03*
D28*
X50076000Y-39674800D03*
D14*
X49276000Y-37134800D03*
D27*
X50076000Y-37134800D03*
D14*
X49276000Y-34594800D03*
D27*
X50076000Y-34594800D03*
D14*
X49276000Y-32054800D03*
D27*
X50076000Y-32054800D03*
D14*
X49276000Y-29514800D03*
D27*
X50076000Y-29514800D03*
D29*
X49276000Y-26974800D03*
D28*
X50076000Y-26974800D03*
D14*
X49276000Y-24434800D03*
D27*
X50076000Y-24434800D03*
D14*
X49276000Y-21894800D03*
D27*
X50076000Y-21894800D03*
%TD*%
D38*
%TO.C,U1*%
X99847800Y-45715800D03*
X99847800Y-46985800D03*
X99847800Y-48255800D03*
X99847800Y-49525800D03*
X104797800Y-49525800D03*
X104797800Y-48255800D03*
X104797800Y-46985800D03*
X104797800Y-45715800D03*
D39*
X102322800Y-48370800D03*
%TD*%
D40*
%TO.C,C4*%
X95339600Y-38402400D03*
X92389600Y-38402400D03*
%TD*%
M02*
