M48
; DRILL file {KiCad 7.0.1-3b83917a11~172~ubuntu22.04.1} date 2023년 04월 16일 (일) 오후 11시 39분 07초
; FORMAT={-:-/ absolute / metric / decimal}
; #@! TF.CreationDate,2023-04-16T23:39:07+09:00
; #@! TF.GenerationSoftware,Kicad,Pcbnew,7.0.1-3b83917a11~172~ubuntu22.04.1
; #@! TF.FileFunction,Plated,1,2,PTH
FMAT,2
METRIC
; #@! TA.AperFunction,Plated,PTH,ViaDrill
T1C0.400
; #@! TA.AperFunction,Plated,PTH,ComponentDrill
T2C0.850
; #@! TA.AperFunction,Plated,PTH,ComponentDrill
T3C1.000
; #@! TA.AperFunction,Plated,PTH,ComponentDrill
T4C1.500
; #@! TA.AperFunction,Plated,PTH,ComponentDrill
T5C3.200
%
G90
G05
T1
X44.552Y-75.082
X56.134Y-30.632
X59.588Y-78.537
X88.697Y-55.016
X91.223Y-41.527
X91.223Y-47.978
X92.772Y-62.456
X97.7Y-53.515
X99.224Y-60.221
X100.533Y-64.059
X101.281Y-53.515
T2
X59.273Y-92.151
X61.773Y-92.151
X69.28Y-92.151
X71.78Y-92.151
X93.975Y-24.018
X96.475Y-24.018
T3
X22.722Y-63.719
X22.722Y-68.219
X31.496Y-21.895
X31.496Y-24.435
X31.496Y-26.975
X31.496Y-29.515
X31.496Y-32.055
X31.496Y-34.595
X31.496Y-37.135
X31.496Y-39.675
X31.496Y-42.215
X31.496Y-44.755
X31.496Y-47.295
X31.496Y-49.835
X31.496Y-52.375
X31.496Y-54.915
X31.496Y-57.455
X31.496Y-59.995
X31.496Y-62.535
X31.496Y-65.075
X31.496Y-67.615
X31.496Y-70.155
X49.276Y-21.895
X49.276Y-24.435
X49.276Y-26.975
X49.276Y-29.515
X49.276Y-32.055
X49.276Y-34.595
X49.276Y-37.135
X49.276Y-39.675
X49.276Y-42.215
X49.276Y-44.755
X49.276Y-47.295
X49.276Y-49.835
X49.276Y-52.375
X49.276Y-54.915
X49.276Y-57.455
X49.276Y-59.995
X49.276Y-62.535
X49.276Y-65.075
X49.276Y-67.615
X49.276Y-70.155
X61.519Y-21.895
X61.519Y-24.435
X61.519Y-26.975
X61.519Y-29.515
X61.519Y-32.055
X61.519Y-34.595
X61.519Y-37.135
X61.519Y-39.675
X61.519Y-42.215
X61.519Y-44.755
X61.519Y-47.295
X61.519Y-49.835
X61.519Y-52.375
X61.519Y-54.915
X61.519Y-57.455
X61.519Y-59.995
X61.519Y-62.535
X61.519Y-65.075
X61.519Y-67.615
X61.519Y-70.155
X79.299Y-21.895
X79.299Y-24.435
X79.299Y-26.975
X79.299Y-29.515
X79.299Y-32.055
X79.299Y-34.595
X79.299Y-37.135
X79.299Y-39.675
X79.299Y-42.215
X79.299Y-44.755
X79.299Y-47.295
X79.299Y-49.835
X79.299Y-52.375
X79.299Y-54.915
X79.299Y-57.455
X79.299Y-59.995
X79.299Y-62.535
X79.299Y-65.075
X79.299Y-67.615
X79.299Y-70.155
X89.92Y-90.114
X91.305Y-92.954
X92.69Y-90.114
X94.075Y-92.954
X95.46Y-90.114
X96.845Y-92.954
X98.23Y-90.114
X99.615Y-92.954
X101.0Y-90.114
T4
X25.222Y-62.469
X25.222Y-69.469
T5
X82.96Y-91.534
X107.96Y-91.534
T3
G00X103.582Y-30.179
M15
G01X103.582Y-27.979
M16
G05
G00X109.482Y-25.679
M15
G01X107.282Y-25.679
M16
G05
G00X109.682Y-31.979
M15
G01X107.082Y-31.979
M16
G05
T0
M30
