M48
;Layer_Color=9474304
;FILE_FORMAT=2:4
INCH,LZ
;TYPE=PLATED
T1F00S00C0.0100
T2F00S00C0.0866
%
T01
X094255Y023415
X094555
Y023715
X094255
X094855
Y023415
Y025215
Y025515
X094555
X094255
Y025215
X094555
Y027934
X094855
X094255
X096055Y027615
Y027315
Y027015
X096355
X096655
X096955
X097255
X097555
Y027315
Y027615
X097255
X096955
X096655
X096355
Y027315
X096655
X096955
X097255
X097205Y025675
X098989Y025355
Y025105
Y024855
Y024605
Y024355
X098005Y030411
X097305Y030365
X095165Y029615
T02
X094622Y027038
M30
