G04*
G04 #@! TF.GenerationSoftware,Altium Limited,Altium Designer,20.0.2 (26)*
G04*
G04 Layer_Color=65535*
%FSTAX24Y24*%
%MOIN*%
G70*
G01*
G75*
%ADD10C,0.0100*%
%ADD11C,0.0070*%
%ADD12C,0.0040*%
%ADD13C,0.0060*%
%ADD14R,0.1080X0.0200*%
G36*
X097047Y023985D02*
X096995D01*
X096891Y024153D01*
Y023985D01*
X096843D01*
Y024241D01*
X096893D01*
X096999Y024068D01*
Y024241D01*
X097047D01*
Y023985D01*
D02*
G37*
G36*
X096627D02*
X096571D01*
X096479Y024241D01*
X096535D01*
X0966Y024051D01*
X096662Y024241D01*
X096718D01*
X096627Y023985D01*
D02*
G37*
G36*
X096396Y024134D02*
X096464D01*
Y024088D01*
X096396D01*
Y024022D01*
X096352D01*
Y024088D01*
X096285D01*
Y024134D01*
X096352D01*
Y0242D01*
X096396D01*
Y024134D01*
D02*
G37*
G36*
X096794Y023985D02*
X096742D01*
Y024241D01*
X096794D01*
Y023985D01*
D02*
G37*
G36*
X100946Y02398D02*
X10089D01*
X100798Y024236D01*
X100854D01*
X100919Y024047D01*
X100982Y024236D01*
X101037D01*
X100946Y02398D01*
D02*
G37*
G36*
X100516Y024129D02*
X100584D01*
Y024083D01*
X100516D01*
Y024017D01*
X100472D01*
Y024083D01*
X100405D01*
Y024129D01*
X100472D01*
Y024195D01*
X100516D01*
Y024129D01*
D02*
G37*
G36*
X101138Y024237D02*
X101142Y024237D01*
X101145Y024236D01*
X101149Y024236D01*
X101153Y024234D01*
X101162Y024232D01*
X101167Y02423D01*
X101172Y024227D01*
X101177Y024225D01*
X101182Y024222D01*
X101187Y024218D01*
X101191Y024214D01*
X101191Y024214D01*
X101191Y024213D01*
X101192Y024212D01*
X101194Y024211D01*
X101197Y024207D01*
X1012Y024202D01*
X101203Y024196D01*
X101206Y024188D01*
X101208Y02418D01*
X101208Y024176D01*
X101209Y024172D01*
Y024171D01*
Y02417D01*
X101208Y024168D01*
X101208Y024166D01*
X101208Y024163D01*
X101207Y02416D01*
X101206Y024156D01*
X101204Y024152D01*
X101202Y024148D01*
X1012Y024143D01*
X101197Y024139D01*
X101193Y024135D01*
X101189Y02413D01*
X101184Y024126D01*
X101178Y024122D01*
X101172Y024118D01*
X101172D01*
X101173Y024117D01*
X101174D01*
X101175Y024116D01*
X10118Y024115D01*
X101184Y024113D01*
X10119Y02411D01*
X101196Y024106D01*
X101202Y024102D01*
X101207Y024096D01*
X101208Y024095D01*
X101209Y024093D01*
X101211Y02409D01*
X101214Y024085D01*
X101216Y024079D01*
X101218Y024072D01*
X101219Y024065D01*
X10122Y024056D01*
Y024056D01*
Y024055D01*
Y024053D01*
X10122Y024051D01*
X101219Y024048D01*
X101219Y024045D01*
X101218Y024041D01*
X101217Y024037D01*
X101214Y024028D01*
X101212Y024023D01*
X10121Y024018D01*
X101207Y024013D01*
X101204Y024008D01*
X1012Y024003D01*
X101195Y023999D01*
X101195Y023998D01*
X101194Y023998D01*
X101193Y023997D01*
X101191Y023995D01*
X101188Y023993D01*
X101186Y023991D01*
X101182Y023989D01*
X101178Y023987D01*
X101174Y023985D01*
X10117Y023983D01*
X101164Y023981D01*
X101159Y023979D01*
X101153Y023977D01*
X101147Y023976D01*
X101141Y023975D01*
X101134Y023975D01*
X101131D01*
X101128Y023975D01*
X101125Y023976D01*
X101122Y023976D01*
X101118Y023977D01*
X101114Y023978D01*
X101105Y02398D01*
X101095Y023984D01*
X10109Y023986D01*
X101086Y023988D01*
X101081Y023992D01*
X101076Y023995D01*
X101076Y023995D01*
X101075Y023996D01*
X101074Y023997D01*
X101073Y023999D01*
X101071Y024001D01*
X101069Y024003D01*
X101067Y024006D01*
X101064Y024009D01*
X101062Y024013D01*
X10106Y024017D01*
X101056Y024025D01*
X101052Y024036D01*
X101051Y024041D01*
X10105Y024047D01*
X101097Y024053D01*
Y024053D01*
Y024052D01*
X101098Y02405D01*
X101098Y024047D01*
X1011Y024043D01*
X101101Y024038D01*
X101103Y024034D01*
X101106Y024029D01*
X10111Y024025D01*
X10111Y024025D01*
X101111Y024024D01*
X101114Y024022D01*
X101116Y024021D01*
X10112Y024019D01*
X101124Y024017D01*
X101128Y024016D01*
X101134Y024016D01*
X101134D01*
X101136Y024016D01*
X101139Y024017D01*
X101143Y024017D01*
X101147Y024019D01*
X101151Y024021D01*
X101155Y024024D01*
X101159Y024027D01*
X10116Y024028D01*
X101161Y024029D01*
X101162Y024032D01*
X101165Y024035D01*
X101167Y02404D01*
X101168Y024045D01*
X10117Y024052D01*
X10117Y024059D01*
Y024059D01*
Y024059D01*
Y024062D01*
X10117Y024065D01*
X101169Y024069D01*
X101167Y024074D01*
X101165Y024079D01*
X101163Y024084D01*
X10116Y024088D01*
X101159Y024089D01*
X101158Y02409D01*
X101155Y024092D01*
X101153Y024094D01*
X101149Y024096D01*
X101145Y024098D01*
X101141Y024099D01*
X101135Y024099D01*
X101132D01*
X101129Y024099D01*
X101126Y024099D01*
X101122Y024098D01*
X101118Y024097D01*
X101113Y024096D01*
X101118Y024135D01*
X101121D01*
X101125Y024136D01*
X10113Y024136D01*
X101134Y024137D01*
X10114Y024139D01*
X101144Y024141D01*
X101149Y024144D01*
X101149Y024144D01*
X101151Y024146D01*
X101152Y024148D01*
X101154Y02415D01*
X101156Y024154D01*
X101158Y024158D01*
X101159Y024163D01*
X10116Y024168D01*
Y024169D01*
Y02417D01*
X101159Y024173D01*
X101158Y024176D01*
X101158Y024179D01*
X101156Y024182D01*
X101154Y024186D01*
X101152Y024189D01*
X101151Y024189D01*
X10115Y02419D01*
X101149Y024192D01*
X101146Y024193D01*
X101143Y024194D01*
X10114Y024196D01*
X101135Y024196D01*
X101131Y024197D01*
X101129D01*
X101127Y024196D01*
X101124Y024196D01*
X10112Y024195D01*
X101117Y024193D01*
X101113Y024191D01*
X10111Y024188D01*
X101109Y024187D01*
X101108Y024186D01*
X101107Y024184D01*
X101105Y024181D01*
X101103Y024178D01*
X101101Y024173D01*
X1011Y024168D01*
X101099Y024162D01*
X101054Y02417D01*
Y02417D01*
X101054Y024171D01*
Y024172D01*
X101054Y024174D01*
X101056Y024178D01*
X101057Y024183D01*
X101059Y024189D01*
X101061Y024196D01*
X101064Y024202D01*
X101068Y024207D01*
X101068Y024208D01*
X10107Y024209D01*
X101072Y024212D01*
X101075Y024215D01*
X101078Y024219D01*
X101083Y024222D01*
X101088Y024226D01*
X101094Y024229D01*
X101095D01*
X101095Y02423D01*
X101097Y02423D01*
X101101Y024232D01*
X101105Y024233D01*
X101111Y024235D01*
X101118Y024236D01*
X101125Y024237D01*
X101133Y024237D01*
X101136D01*
X101138Y024237D01*
D02*
G37*
G36*
X100701D02*
X100704Y024237D01*
X100707Y024236D01*
X100711Y024236D01*
X100716Y024234D01*
X100725Y024232D01*
X10073Y02423D01*
X100735Y024227D01*
X10074Y024225D01*
X100744Y024222D01*
X100749Y024218D01*
X100753Y024214D01*
X100753Y024214D01*
X100754Y024213D01*
X100755Y024212D01*
X100756Y024211D01*
X100759Y024207D01*
X100762Y024202D01*
X100765Y024196D01*
X100768Y024188D01*
X10077Y02418D01*
X100771Y024176D01*
X100771Y024172D01*
Y024171D01*
Y02417D01*
X100771Y024168D01*
X10077Y024166D01*
X10077Y024163D01*
X100769Y02416D01*
X100768Y024156D01*
X100767Y024152D01*
X100764Y024148D01*
X100762Y024143D01*
X100759Y024139D01*
X100755Y024135D01*
X100751Y02413D01*
X100746Y024126D01*
X100741Y024122D01*
X100734Y024118D01*
X100734D01*
X100735Y024117D01*
X100736D01*
X100738Y024116D01*
X100742Y024115D01*
X100747Y024113D01*
X100752Y02411D01*
X100758Y024106D01*
X100764Y024102D01*
X100769Y024096D01*
X10077Y024095D01*
X100771Y024093D01*
X100773Y02409D01*
X100776Y024085D01*
X100778Y024079D01*
X10078Y024072D01*
X100782Y024065D01*
X100782Y024056D01*
Y024056D01*
Y024055D01*
Y024053D01*
X100782Y024051D01*
X100782Y024048D01*
X100781Y024045D01*
X10078Y024041D01*
X10078Y024037D01*
X100777Y024028D01*
X100774Y024023D01*
X100772Y024018D01*
X100769Y024013D01*
X100766Y024008D01*
X100762Y024003D01*
X100758Y023999D01*
X100757Y023998D01*
X100757Y023998D01*
X100755Y023997D01*
X100753Y023995D01*
X100751Y023993D01*
X100748Y023991D01*
X100744Y023989D01*
X100741Y023987D01*
X100737Y023985D01*
X100732Y023983D01*
X100727Y023981D01*
X100721Y023979D01*
X100716Y023977D01*
X10071Y023976D01*
X100703Y023975D01*
X100696Y023975D01*
X100693D01*
X10069Y023975D01*
X100687Y023976D01*
X100684Y023976D01*
X10068Y023977D01*
X100676Y023978D01*
X100667Y02398D01*
X100657Y023984D01*
X100652Y023986D01*
X100648Y023988D01*
X100643Y023992D01*
X100639Y023995D01*
X100638Y023995D01*
X100637Y023996D01*
X100636Y023997D01*
X100635Y023999D01*
X100633Y024001D01*
X100631Y024003D01*
X100629Y024006D01*
X100627Y024009D01*
X100625Y024013D01*
X100622Y024017D01*
X100618Y024025D01*
X100615Y024036D01*
X100613Y024041D01*
X100612Y024047D01*
X10066Y024053D01*
Y024053D01*
Y024052D01*
X10066Y02405D01*
X100661Y024047D01*
X100662Y024043D01*
X100664Y024038D01*
X100666Y024034D01*
X100669Y024029D01*
X100672Y024025D01*
X100672Y024025D01*
X100674Y024024D01*
X100676Y024022D01*
X100679Y024021D01*
X100682Y024019D01*
X100686Y024017D01*
X100691Y024016D01*
X100696Y024016D01*
X100697D01*
X100698Y024016D01*
X100701Y024017D01*
X100705Y024017D01*
X100709Y024019D01*
X100713Y024021D01*
X100717Y024024D01*
X100721Y024027D01*
X100722Y024028D01*
X100723Y024029D01*
X100725Y024032D01*
X100727Y024035D01*
X100729Y02404D01*
X100731Y024045D01*
X100732Y024052D01*
X100732Y024059D01*
Y024059D01*
Y024059D01*
Y024062D01*
X100732Y024065D01*
X100731Y024069D01*
X10073Y024074D01*
X100728Y024079D01*
X100725Y024084D01*
X100722Y024088D01*
X100721Y024089D01*
X10072Y02409D01*
X100718Y024092D01*
X100715Y024094D01*
X100711Y024096D01*
X100707Y024098D01*
X100703Y024099D01*
X100698Y024099D01*
X100694D01*
X100691Y024099D01*
X100688Y024099D01*
X100684Y024098D01*
X10068Y024097D01*
X100675Y024096D01*
X10068Y024135D01*
X100684D01*
X100687Y024136D01*
X100692Y024136D01*
X100697Y024137D01*
X100702Y024139D01*
X100707Y024141D01*
X100711Y024144D01*
X100711Y024144D01*
X100713Y024146D01*
X100714Y024148D01*
X100717Y02415D01*
X100718Y024154D01*
X10072Y024158D01*
X100721Y024163D01*
X100722Y024168D01*
Y024169D01*
Y02417D01*
X100721Y024173D01*
X100721Y024176D01*
X10072Y024179D01*
X100718Y024182D01*
X100717Y024186D01*
X100714Y024189D01*
X100714Y024189D01*
X100713Y02419D01*
X100711Y024192D01*
X100708Y024193D01*
X100706Y024194D01*
X100702Y024196D01*
X100698Y024196D01*
X100693Y024197D01*
X100691D01*
X100689Y024196D01*
X100686Y024196D01*
X100683Y024195D01*
X100679Y024193D01*
X100675Y024191D01*
X100672Y024188D01*
X100671Y024187D01*
X10067Y024186D01*
X100669Y024184D01*
X100667Y024181D01*
X100665Y024178D01*
X100664Y024173D01*
X100662Y024168D01*
X100661Y024162D01*
X100616Y02417D01*
Y02417D01*
X100616Y024171D01*
Y024172D01*
X100617Y024174D01*
X100618Y024178D01*
X100619Y024183D01*
X100622Y024189D01*
X100624Y024196D01*
X100627Y024202D01*
X10063Y024207D01*
X10063Y024208D01*
X100632Y024209D01*
X100634Y024212D01*
X100637Y024215D01*
X100641Y024219D01*
X100645Y024222D01*
X100651Y024226D01*
X100657Y024229D01*
X100657D01*
X100657Y02423D01*
X10066Y02423D01*
X100663Y024232D01*
X100668Y024233D01*
X100673Y024235D01*
X10068Y024236D01*
X100687Y024237D01*
X100695Y024237D01*
X100698D01*
X100701Y024237D01*
D02*
G37*
G36*
X097889Y02424D02*
X097893Y02424D01*
X097898Y02424D01*
X097903Y024239D01*
X097909Y024238D01*
X097921Y024236D01*
X097933Y024232D01*
X097939Y02423D01*
X097945Y024227D01*
X097951Y024224D01*
X097956Y024221D01*
X097956Y02422D01*
X097957Y02422D01*
X097959Y024219D01*
X09796Y024217D01*
X097963Y024215D01*
X097965Y024213D01*
X097967Y02421D01*
X09797Y024206D01*
X097973Y024203D01*
X097976Y024199D01*
X097979Y024194D01*
X097982Y024189D01*
X097985Y024184D01*
X097987Y024178D01*
X097989Y024172D01*
X097991Y024166D01*
X097939Y024156D01*
Y024156D01*
X097939Y024157D01*
X097938Y024159D01*
X097937Y024162D01*
X097935Y024167D01*
X097932Y024172D01*
X097928Y024176D01*
X097924Y024181D01*
X097919Y024186D01*
X097918Y024186D01*
X097916Y024187D01*
X097913Y024189D01*
X097909Y024191D01*
X097903Y024193D01*
X097897Y024195D01*
X09789Y024196D01*
X097882Y024197D01*
X097878D01*
X097876Y024196D01*
X097873Y024196D01*
X09787Y024196D01*
X097866Y024195D01*
X097862Y024194D01*
X097854Y024192D01*
X097849Y02419D01*
X097845Y024187D01*
X09784Y024185D01*
X097836Y024182D01*
X097832Y024179D01*
X097828Y024175D01*
X097827Y024175D01*
X097827Y024174D01*
X097826Y024173D01*
X097825Y024171D01*
X097823Y024169D01*
X097821Y024166D01*
X097819Y024163D01*
X097818Y024159D01*
X097816Y024155D01*
X097814Y02415D01*
X097812Y024145D01*
X097811Y024139D01*
X09781Y024133D01*
X097809Y024126D01*
X097808Y024119D01*
X097808Y024111D01*
Y024111D01*
Y024109D01*
Y024106D01*
X097808Y024103D01*
X097809Y024099D01*
X097809Y024095D01*
X09781Y02409D01*
X097811Y024085D01*
X097813Y024074D01*
X097817Y024062D01*
X097819Y024057D01*
X097821Y024052D01*
X097825Y024047D01*
X097828Y024042D01*
X097828Y024042D01*
X097829Y024041D01*
X09783Y02404D01*
X097832Y024038D01*
X097834Y024037D01*
X097836Y024035D01*
X097839Y024033D01*
X097842Y024031D01*
X097846Y024028D01*
X09785Y024027D01*
X097859Y024023D01*
X097864Y024021D01*
X097869Y02402D01*
X097875Y024019D01*
X097881Y024019D01*
X097884D01*
X097887Y024019D01*
X097892Y02402D01*
X097896Y024021D01*
X097902Y024022D01*
X097908Y024023D01*
X097914Y024025D01*
X097914D01*
X097915Y024026D01*
X097916Y024027D01*
X09792Y024028D01*
X097923Y02403D01*
X097928Y024032D01*
X097933Y024035D01*
X097937Y024038D01*
X097942Y024041D01*
Y024074D01*
X097883D01*
Y024117D01*
X097994D01*
Y024014D01*
X097993Y024014D01*
X097992Y024013D01*
X097991Y024012D01*
X097989Y02401D01*
X097987Y024009D01*
X097982Y024005D01*
X097975Y024001D01*
X097967Y023996D01*
X097958Y023991D01*
X097947Y023987D01*
X097946D01*
X097945Y023987D01*
X097944Y023986D01*
X097942Y023985D01*
X097939Y023984D01*
X097935Y023983D01*
X097932Y023982D01*
X097928Y023981D01*
X097918Y023979D01*
X097908Y023977D01*
X097896Y023975D01*
X097885Y023975D01*
X097881D01*
X097878Y023975D01*
X097874D01*
X09787Y023976D01*
X097866Y023977D01*
X097861Y023977D01*
X09785Y023979D01*
X097838Y023982D01*
X097826Y023986D01*
X09782Y023989D01*
X097814Y023992D01*
X097814Y023992D01*
X097813Y023992D01*
X097811Y023994D01*
X097809Y023995D01*
X097807Y023997D01*
X097804Y023999D01*
X097801Y024001D01*
X097798Y024004D01*
X09779Y024011D01*
X097783Y024019D01*
X097776Y024029D01*
X09777Y02404D01*
Y024041D01*
X097769Y024042D01*
X097768Y024044D01*
X097767Y024046D01*
X097766Y024049D01*
X097765Y024052D01*
X097764Y024056D01*
X097762Y024061D01*
X097761Y024065D01*
X09776Y024071D01*
X097757Y024082D01*
X097755Y024095D01*
X097755Y024109D01*
Y024109D01*
Y024111D01*
Y024113D01*
X097755Y024115D01*
Y024119D01*
X097755Y024123D01*
X097756Y024128D01*
X097757Y024133D01*
X097759Y024143D01*
X097762Y024156D01*
X097766Y024168D01*
X097768Y024174D01*
X097771Y02418D01*
X097772Y02418D01*
X097772Y024181D01*
X097773Y024183D01*
X097774Y024185D01*
X097776Y024187D01*
X097778Y02419D01*
X097781Y024194D01*
X097784Y024197D01*
X097787Y024201D01*
X097791Y024205D01*
X097795Y024209D01*
X097799Y024213D01*
X097804Y024217D01*
X097809Y024221D01*
X09782Y024228D01*
X097821D01*
X097821Y024229D01*
X097823Y024229D01*
X097825Y02423D01*
X097827Y024231D01*
X09783Y024232D01*
X097834Y024233D01*
X097837Y024234D01*
X097841Y024236D01*
X097846Y024237D01*
X097851Y024238D01*
X097856Y024239D01*
X097868Y02424D01*
X097882Y024241D01*
X097886D01*
X097889Y02424D01*
D02*
G37*
G36*
X098246Y02398D02*
X098194D01*
X09809Y024149D01*
Y02398D01*
X098042D01*
Y024236D01*
X098092D01*
X098198Y024064D01*
Y024236D01*
X098246D01*
Y02398D01*
D02*
G37*
G36*
X098406Y024236D02*
X098413Y024235D01*
X09842Y024235D01*
X098428Y024234D01*
X098436Y024233D01*
X098443Y024231D01*
X098444D01*
X098444Y02423D01*
X098446Y02423D01*
X098447Y02423D01*
X098451Y024228D01*
X098457Y024225D01*
X098463Y024222D01*
X098469Y024218D01*
X098475Y024213D01*
X098482Y024207D01*
X098482D01*
X098483Y024206D01*
X098484Y024204D01*
X098487Y0242D01*
X098491Y024196D01*
X098495Y02419D01*
X098499Y024183D01*
X098503Y024175D01*
X098506Y024166D01*
Y024165D01*
X098507Y024165D01*
X098507Y024163D01*
X098508Y024161D01*
X098508Y024159D01*
X098509Y024156D01*
X09851Y024153D01*
X098511Y024149D01*
X098511Y024145D01*
X098512Y02414D01*
X098513Y024135D01*
X098513Y02413D01*
X098514Y024118D01*
X098515Y024105D01*
Y024105D01*
Y024104D01*
Y024102D01*
Y0241D01*
X098514Y024097D01*
Y024094D01*
X098514Y024091D01*
X098514Y024086D01*
X098513Y024078D01*
X098511Y024069D01*
X098509Y02406D01*
X098507Y024051D01*
Y024051D01*
X098506Y02405D01*
X098505Y024048D01*
X098505Y024046D01*
X098504Y024044D01*
X098502Y024041D01*
X0985Y024035D01*
X098496Y024028D01*
X098491Y02402D01*
X098485Y024012D01*
X098479Y024005D01*
X098478Y024005D01*
X098477Y024003D01*
X098474Y024001D01*
X09847Y023998D01*
X098464Y023995D01*
X098458Y023991D01*
X098451Y023988D01*
X098443Y023985D01*
X098443D01*
X098442Y023985D01*
X098441D01*
X09844Y023984D01*
X098436Y023984D01*
X098431Y023983D01*
X098424Y023981D01*
X098417Y023981D01*
X098407Y02398D01*
X098397Y02398D01*
X0983D01*
Y024236D01*
X098403D01*
X098406Y024236D01*
D02*
G37*
G36*
X099239Y02424D02*
X099243Y02424D01*
X099248Y02424D01*
X099253Y024239D01*
X099259Y024238D01*
X099271Y024236D01*
X099283Y024232D01*
X099289Y02423D01*
X099295Y024227D01*
X099301Y024224D01*
X099306Y024221D01*
X099306Y02422D01*
X099307Y02422D01*
X099309Y024219D01*
X09931Y024217D01*
X099313Y024215D01*
X099315Y024213D01*
X099317Y02421D01*
X09932Y024206D01*
X099323Y024203D01*
X099326Y024199D01*
X099329Y024194D01*
X099332Y024189D01*
X099335Y024184D01*
X099337Y024178D01*
X099339Y024172D01*
X099341Y024166D01*
X099289Y024156D01*
Y024156D01*
X099289Y024157D01*
X099288Y024159D01*
X099287Y024162D01*
X099285Y024167D01*
X099282Y024172D01*
X099278Y024176D01*
X099274Y024181D01*
X099269Y024186D01*
X099268Y024186D01*
X099266Y024187D01*
X099263Y024189D01*
X099259Y024191D01*
X099253Y024193D01*
X099247Y024195D01*
X09924Y024196D01*
X099232Y024197D01*
X099228D01*
X099226Y024196D01*
X099223Y024196D01*
X09922Y024196D01*
X099216Y024195D01*
X099212Y024194D01*
X099204Y024192D01*
X099199Y02419D01*
X099195Y024187D01*
X09919Y024185D01*
X099186Y024182D01*
X099182Y024179D01*
X099178Y024175D01*
X099177Y024175D01*
X099177Y024174D01*
X099176Y024173D01*
X099175Y024171D01*
X099173Y024169D01*
X099171Y024166D01*
X099169Y024163D01*
X099168Y024159D01*
X099166Y024155D01*
X099164Y02415D01*
X099162Y024145D01*
X099161Y024139D01*
X09916Y024133D01*
X099159Y024126D01*
X099158Y024119D01*
X099158Y024111D01*
Y024111D01*
Y024109D01*
Y024106D01*
X099158Y024103D01*
X099159Y024099D01*
X099159Y024095D01*
X09916Y02409D01*
X099161Y024085D01*
X099163Y024074D01*
X099167Y024062D01*
X099169Y024057D01*
X099171Y024052D01*
X099175Y024047D01*
X099178Y024042D01*
X099178Y024042D01*
X099179Y024041D01*
X09918Y02404D01*
X099182Y024038D01*
X099184Y024037D01*
X099186Y024035D01*
X099189Y024033D01*
X099192Y024031D01*
X099196Y024028D01*
X0992Y024027D01*
X099209Y024023D01*
X099214Y024021D01*
X099219Y02402D01*
X099225Y024019D01*
X099231Y024019D01*
X099234D01*
X099237Y024019D01*
X099242Y02402D01*
X099246Y024021D01*
X099252Y024022D01*
X099258Y024023D01*
X099264Y024025D01*
X099264D01*
X099265Y024026D01*
X099266Y024027D01*
X09927Y024028D01*
X099273Y02403D01*
X099278Y024032D01*
X099283Y024035D01*
X099288Y024038D01*
X099292Y024041D01*
Y024074D01*
X099233D01*
Y024117D01*
X099344D01*
Y024014D01*
X099343Y024014D01*
X099342Y024013D01*
X099341Y024012D01*
X099339Y02401D01*
X099337Y024009D01*
X099332Y024005D01*
X099325Y024001D01*
X099317Y023996D01*
X099308Y023991D01*
X099297Y023987D01*
X099296D01*
X099295Y023987D01*
X099294Y023986D01*
X099292Y023985D01*
X099289Y023984D01*
X099285Y023983D01*
X099282Y023982D01*
X099278Y023981D01*
X099268Y023979D01*
X099258Y023977D01*
X099246Y023975D01*
X099235Y023975D01*
X099231D01*
X099228Y023975D01*
X099224D01*
X09922Y023976D01*
X099216Y023977D01*
X099211Y023977D01*
X0992Y023979D01*
X099188Y023982D01*
X099176Y023986D01*
X09917Y023989D01*
X099164Y023992D01*
X099164Y023992D01*
X099163Y023992D01*
X099161Y023994D01*
X099159Y023995D01*
X099157Y023997D01*
X099154Y023999D01*
X099151Y024001D01*
X099148Y024004D01*
X09914Y024011D01*
X099133Y024019D01*
X099126Y024029D01*
X09912Y02404D01*
Y024041D01*
X099119Y024042D01*
X099118Y024044D01*
X099117Y024046D01*
X099116Y024049D01*
X099115Y024052D01*
X099114Y024056D01*
X099112Y024061D01*
X099111Y024065D01*
X09911Y024071D01*
X099107Y024082D01*
X099105Y024095D01*
X099105Y024109D01*
Y024109D01*
Y024111D01*
Y024113D01*
X099105Y024115D01*
Y024119D01*
X099105Y024123D01*
X099106Y024128D01*
X099107Y024133D01*
X099109Y024143D01*
X099112Y024156D01*
X099116Y024168D01*
X099118Y024174D01*
X099121Y02418D01*
X099122Y02418D01*
X099122Y024181D01*
X099123Y024183D01*
X099124Y024185D01*
X099126Y024187D01*
X099128Y02419D01*
X099131Y024194D01*
X099134Y024197D01*
X099137Y024201D01*
X099141Y024205D01*
X099145Y024209D01*
X099149Y024213D01*
X099154Y024217D01*
X099159Y024221D01*
X09917Y024228D01*
X099171D01*
X099171Y024229D01*
X099173Y024229D01*
X099175Y02423D01*
X099177Y024231D01*
X09918Y024232D01*
X099184Y024233D01*
X099187Y024234D01*
X099191Y024236D01*
X099196Y024237D01*
X099201Y024238D01*
X099206Y024239D01*
X099218Y02424D01*
X099232Y024241D01*
X099236D01*
X099239Y02424D01*
D02*
G37*
G36*
X099596Y02398D02*
X099544D01*
X09944Y024149D01*
Y02398D01*
X099392D01*
Y024236D01*
X099442D01*
X099548Y024064D01*
Y024236D01*
X099596D01*
Y02398D01*
D02*
G37*
G36*
X099756Y024236D02*
X099763Y024235D01*
X09977Y024235D01*
X099778Y024234D01*
X099786Y024233D01*
X099793Y024231D01*
X099794D01*
X099794Y02423D01*
X099796Y02423D01*
X099797Y02423D01*
X099801Y024228D01*
X099807Y024225D01*
X099813Y024222D01*
X099819Y024218D01*
X099825Y024213D01*
X099832Y024207D01*
X099832D01*
X099833Y024206D01*
X099834Y024204D01*
X099837Y0242D01*
X099841Y024196D01*
X099845Y02419D01*
X099849Y024183D01*
X099853Y024175D01*
X099856Y024166D01*
Y024165D01*
X099857Y024165D01*
X099857Y024163D01*
X099858Y024161D01*
X099858Y024159D01*
X099859Y024156D01*
X09986Y024153D01*
X099861Y024149D01*
X099861Y024145D01*
X099862Y02414D01*
X099863Y024135D01*
X099863Y02413D01*
X099864Y024118D01*
X099865Y024105D01*
Y024105D01*
Y024104D01*
Y024102D01*
Y0241D01*
X099864Y024097D01*
Y024094D01*
X099864Y024091D01*
X099864Y024086D01*
X099863Y024078D01*
X099861Y024069D01*
X099859Y02406D01*
X099857Y024051D01*
Y024051D01*
X099856Y02405D01*
X099855Y024048D01*
X099855Y024046D01*
X099854Y024044D01*
X099852Y024041D01*
X09985Y024035D01*
X099846Y024028D01*
X099841Y02402D01*
X099835Y024012D01*
X099829Y024005D01*
X099828Y024005D01*
X099827Y024003D01*
X099824Y024001D01*
X09982Y023998D01*
X099814Y023995D01*
X099808Y023991D01*
X099801Y023988D01*
X099793Y023985D01*
X099793D01*
X099792Y023985D01*
X099791D01*
X09979Y023984D01*
X099786Y023984D01*
X099781Y023983D01*
X099774Y023981D01*
X099767Y023981D01*
X099757Y02398D01*
X099747Y02398D01*
X09965D01*
Y024236D01*
X099753D01*
X099756Y024236D01*
D02*
G37*
G36*
X101924Y027682D02*
X101768D01*
X101767D01*
X101766D01*
X101764D01*
X101761D01*
X101754Y027681D01*
X101746Y027681D01*
X101737Y02768D01*
X101729Y027678D01*
X101721Y027677D01*
X101718Y027675D01*
X101716Y027674D01*
X101715Y027673D01*
X101713Y027672D01*
X101711Y02767D01*
X101707Y027666D01*
X101705Y027662D01*
X101702Y027656D01*
X1017Y02765D01*
X1017Y027643D01*
Y02764D01*
X1017Y027637D01*
X101701Y027634D01*
X101702Y027629D01*
X101704Y027624D01*
X101706Y027619D01*
X101709Y027614D01*
X10171Y027613D01*
X101711Y027612D01*
X101713Y02761D01*
X101716Y027607D01*
X10172Y027604D01*
X101724Y0276D01*
X10173Y027598D01*
X101736Y027595D01*
X101737D01*
X10174Y027594D01*
X101744Y027593D01*
X10175Y027592D01*
X101758Y027591D01*
X101768Y02759D01*
X101779Y027589D01*
X101793D01*
X101924D01*
Y027517D01*
X101775D01*
X101774D01*
X101773D01*
X101771D01*
X101768D01*
X101761D01*
X101753Y027516D01*
X101745Y027516D01*
X101736Y027515D01*
X101729Y027514D01*
X101725Y027513D01*
X101723Y027512D01*
X101723D01*
X101721Y027512D01*
X101719Y027511D01*
X101717Y02751D01*
X101711Y027506D01*
X101708Y027503D01*
X101706Y0275D01*
X101705Y0275D01*
X101705Y027499D01*
X101704Y027497D01*
X101702Y027495D01*
X101701Y027492D01*
X101701Y027488D01*
X1017Y027483D01*
Y027476D01*
X1017Y027472D01*
X101701Y027469D01*
X101702Y027464D01*
X101704Y027459D01*
X101706Y027454D01*
X101709Y027448D01*
X10171Y027448D01*
X101711Y027446D01*
X101713Y027444D01*
X101716Y027441D01*
X101719Y027438D01*
X101724Y027435D01*
X101729Y027432D01*
X101735Y027429D01*
X101736D01*
X101739Y027428D01*
X101743Y027428D01*
X101748Y027427D01*
X101757Y027426D01*
X101766Y027425D01*
X101778Y027424D01*
X101791D01*
X101924D01*
Y027351D01*
X10165D01*
Y027418D01*
X101688D01*
X101687Y027418D01*
X101686Y02742D01*
X101684Y027422D01*
X101681Y027424D01*
X101677Y027428D01*
X101674Y027432D01*
X10167Y027436D01*
X101666Y027442D01*
X101662Y027448D01*
X101658Y027454D01*
X101651Y027469D01*
X101648Y027477D01*
X101646Y027485D01*
X101645Y027494D01*
X101644Y027503D01*
Y027507D01*
X101645Y027512D01*
X101645Y027518D01*
X101647Y027525D01*
X101648Y027533D01*
X101651Y027541D01*
X101655Y027548D01*
X101656Y027549D01*
X101657Y027552D01*
X101659Y027555D01*
X101663Y02756D01*
X101668Y027565D01*
X101674Y02757D01*
X101681Y027576D01*
X101688Y027581D01*
X101687Y027582D01*
X101684Y027584D01*
X101681Y027587D01*
X101676Y027592D01*
X10167Y027598D01*
X101665Y027605D01*
X101659Y027612D01*
X101655Y027619D01*
X101654Y02762D01*
X101653Y027623D01*
X101652Y027628D01*
X10165Y027633D01*
X101647Y02764D01*
X101646Y027647D01*
X101645Y027655D01*
X101644Y027664D01*
Y027669D01*
X101645Y027675D01*
X101646Y027682D01*
X101647Y02769D01*
X10165Y027698D01*
X101652Y027707D01*
X101657Y027715D01*
X101657Y027716D01*
X101659Y027718D01*
X101662Y027722D01*
X101665Y027727D01*
X101671Y027732D01*
X101677Y027737D01*
X101684Y027742D01*
X101693Y027747D01*
X101693Y027747D01*
X101696Y027748D01*
X1017Y027749D01*
X101706Y02775D01*
X101714Y027752D01*
X101724Y027753D01*
X101736Y027754D01*
X101749Y027754D01*
X101924D01*
Y027682D01*
D02*
G37*
G36*
X101797Y027299D02*
X101802Y027299D01*
X101808Y027298D01*
X101816Y027297D01*
X101823Y027295D01*
X101831Y027293D01*
X101839Y02729D01*
X101848Y027287D01*
X101856Y027283D01*
X101865Y027278D01*
X101873Y027273D01*
X101882Y027267D01*
X10189Y02726D01*
X10189Y027259D01*
X101891Y027258D01*
X101894Y027256D01*
X101896Y027252D01*
X101899Y027249D01*
X101902Y027244D01*
X101906Y027238D01*
X10191Y027232D01*
X101914Y027225D01*
X101918Y027218D01*
X101921Y027209D01*
X101924Y0272D01*
X101926Y027191D01*
X101929Y02718D01*
X10193Y02717D01*
X10193Y027159D01*
Y027155D01*
X10193Y027152D01*
Y027149D01*
X101929Y027145D01*
X101928Y027136D01*
X101926Y027124D01*
X101923Y027112D01*
X101919Y0271D01*
X101913Y027086D01*
Y027086D01*
X101913Y027085D01*
X101912Y027083D01*
X10191Y027081D01*
X101906Y027075D01*
X101901Y027067D01*
X101894Y027059D01*
X101885Y02705D01*
X101875Y027042D01*
X101864Y027035D01*
X101863D01*
X101862Y027034D01*
X10186Y027033D01*
X101858Y027032D01*
X101854Y027031D01*
X10185Y027029D01*
X101846Y027027D01*
X101841Y027026D01*
X101836Y027024D01*
X10183Y027023D01*
X101816Y02702D01*
X1018Y027018D01*
X101783Y027017D01*
X101783D01*
X101782D01*
X101779D01*
X101777Y027018D01*
X101774D01*
X10177Y027018D01*
X101761Y027019D01*
X101751Y027021D01*
X101739Y027025D01*
X101727Y027029D01*
X101714Y027035D01*
X101713D01*
X101712Y027036D01*
X101711Y027036D01*
X101708Y027038D01*
X101702Y027042D01*
X101695Y027048D01*
X101687Y027055D01*
X101678Y027064D01*
X10167Y027073D01*
X101662Y027085D01*
Y027085D01*
X101662Y027086D01*
X10166Y027088D01*
X101659Y027091D01*
X101658Y027094D01*
X101657Y027097D01*
X101655Y027102D01*
X101653Y027106D01*
X10165Y027117D01*
X101647Y02713D01*
X101645Y027143D01*
X101644Y027158D01*
Y027164D01*
X101645Y027168D01*
X101645Y027174D01*
X101646Y02718D01*
X101647Y027187D01*
X101649Y027194D01*
X101651Y027202D01*
X101654Y02721D01*
X101657Y027219D01*
X101661Y027227D01*
X101666Y027236D01*
X101671Y027244D01*
X101677Y027252D01*
X101684Y02726D01*
X101685Y027261D01*
X101686Y027262D01*
X101689Y027264D01*
X101692Y027266D01*
X101696Y027269D01*
X1017Y027273D01*
X101706Y027276D01*
X101712Y02728D01*
X101719Y027284D01*
X101727Y027287D01*
X101736Y027291D01*
X101745Y027294D01*
X101754Y027296D01*
X101764Y027298D01*
X101775Y027299D01*
X101787Y0273D01*
X101787D01*
X101789D01*
X101793D01*
X101797Y027299D01*
D02*
G37*
G36*
X101834Y026982D02*
X101836Y026981D01*
X10184Y02698D01*
X101843Y026978D01*
X101848Y026977D01*
X101859Y026972D01*
X101871Y026967D01*
X101883Y026959D01*
X101895Y02695D01*
X101901Y026944D01*
X101906Y026939D01*
Y026938D01*
X101907Y026937D01*
X101908Y026936D01*
X101909Y026934D01*
X101911Y02693D01*
X101913Y026926D01*
X101915Y026922D01*
X101918Y026917D01*
X10192Y026911D01*
X101923Y026905D01*
X101925Y026898D01*
X101926Y02689D01*
X101928Y026882D01*
X101929Y026874D01*
X10193Y026865D01*
X10193Y026855D01*
Y026849D01*
X10193Y026845D01*
X101929Y02684D01*
X101928Y026834D01*
X101927Y026828D01*
X101925Y026821D01*
X101924Y026813D01*
X101921Y026805D01*
X101918Y026797D01*
X101914Y026789D01*
X10191Y026781D01*
X101905Y026774D01*
X101899Y026767D01*
X101892Y026759D01*
X101892Y026759D01*
X101891Y026758D01*
X101889Y026756D01*
X101885Y026754D01*
X101882Y026751D01*
X101877Y026748D01*
X101872Y026745D01*
X101865Y026742D01*
X101858Y026738D01*
X10185Y026735D01*
X101842Y026732D01*
X101832Y026729D01*
X101822Y026727D01*
X101812Y026726D01*
X1018Y026724D01*
X101788Y026724D01*
X101787D01*
X101785D01*
X101781D01*
X101777Y026724D01*
X101771Y026725D01*
X101764Y026726D01*
X101757Y026727D01*
X101749Y026728D01*
X101732Y026733D01*
X101723Y026735D01*
X101715Y026739D01*
X101706Y026743D01*
X101698Y026748D01*
X10169Y026753D01*
X101682Y026759D01*
X101682Y02676D01*
X101681Y026761D01*
X101679Y026763D01*
X101676Y026766D01*
X101674Y02677D01*
X10167Y026774D01*
X101666Y026779D01*
X101663Y026785D01*
X101659Y026792D01*
X101656Y026799D01*
X101653Y026807D01*
X10165Y026816D01*
X101647Y026824D01*
X101646Y026835D01*
X101645Y026845D01*
X101644Y026856D01*
Y026861D01*
X101645Y026864D01*
Y026869D01*
X101645Y026874D01*
X101646Y026879D01*
X101647Y026885D01*
X10165Y026898D01*
X101653Y026911D01*
X101659Y026924D01*
X101666Y026936D01*
Y026936D01*
X101667Y026937D01*
X101668Y026938D01*
X10167Y026941D01*
X101675Y026946D01*
X101682Y026952D01*
X101691Y026959D01*
X101702Y026966D01*
X101715Y026973D01*
X10173Y026978D01*
X101743Y026907D01*
X101742D01*
X10174Y026906D01*
X101736Y026905D01*
X101731Y026904D01*
X101727Y026901D01*
X101721Y026898D01*
X101716Y026894D01*
X101712Y02689D01*
X101711Y026889D01*
X10171Y026888D01*
X101708Y026885D01*
X101706Y026881D01*
X101704Y026876D01*
X101702Y026871D01*
X101701Y026864D01*
X101701Y026857D01*
Y026856D01*
X101701Y026853D01*
X101702Y026848D01*
X101703Y026841D01*
X101706Y026835D01*
X101709Y026828D01*
X101713Y026821D01*
X10172Y026814D01*
X101721Y026813D01*
X101724Y026812D01*
X101728Y026809D01*
X101735Y026806D01*
X101743Y026803D01*
X101748Y026802D01*
X101754Y026801D01*
X10176Y0268D01*
X101767Y026799D01*
X101775Y026798D01*
X101782D01*
X101783D01*
X101784D01*
X101787D01*
X10179Y026799D01*
X101794D01*
X101799Y026799D01*
X10181Y0268D01*
X101821Y026802D01*
X101832Y026805D01*
X101843Y026809D01*
X101847Y026812D01*
X101852Y026815D01*
X101853Y026815D01*
X101855Y026818D01*
X101858Y026821D01*
X101861Y026826D01*
X101865Y026833D01*
X101868Y02684D01*
X10187Y026848D01*
X101871Y026858D01*
Y026862D01*
X101871Y026865D01*
X10187Y02687D01*
X101868Y026876D01*
X101866Y026881D01*
X101864Y026887D01*
X10186Y026892D01*
X101859Y026893D01*
X101858Y026894D01*
X101855Y026896D01*
X10185Y0269D01*
X101845Y026903D01*
X101838Y026906D01*
X101829Y026909D01*
X101819Y026911D01*
X101831Y026982D01*
X101832D01*
X101834Y026982D01*
D02*
G37*
G36*
X101924Y026593D02*
X101852D01*
Y026665D01*
X101924D01*
Y026593D01*
D02*
G37*
G36*
Y026447D02*
X101785D01*
X101784D01*
X101783D01*
X101781D01*
X101778D01*
X101774D01*
X10177D01*
X101761Y026447D01*
X101752Y026446D01*
X101742Y026445D01*
X101734Y026444D01*
X10173Y026443D01*
X101728Y026442D01*
X101727D01*
X101725Y026441D01*
X101723Y02644D01*
X10172Y026438D01*
X101713Y026433D01*
X10171Y026431D01*
X101707Y026427D01*
X101707Y026426D01*
X101706Y026425D01*
X101705Y026423D01*
X101704Y02642D01*
X101702Y026416D01*
X101701Y026412D01*
X1017Y026407D01*
X1017Y026402D01*
Y026398D01*
X1017Y026395D01*
X101701Y026391D01*
X101702Y026385D01*
X101704Y02638D01*
X101707Y026374D01*
X10171Y026368D01*
X101711Y026367D01*
X101712Y026366D01*
X101715Y026363D01*
X101717Y02636D01*
X101722Y026356D01*
X101726Y026353D01*
X101732Y02635D01*
X101738Y026348D01*
X101739D01*
X101741Y026347D01*
X101746Y026346D01*
X101752Y026345D01*
X101756Y026344D01*
X101761Y026344D01*
X101766Y026343D01*
X101772D01*
X101778Y026343D01*
X101785Y026342D01*
X101793D01*
X101801D01*
X101924D01*
Y02627D01*
X10165D01*
Y026337D01*
X10169D01*
X10169Y026337D01*
X101688Y026338D01*
X101686Y026341D01*
X101683Y026343D01*
X10168Y026347D01*
X101676Y026351D01*
X101671Y026356D01*
X101667Y026361D01*
X101663Y026367D01*
X101659Y026374D01*
X101655Y026382D01*
X101651Y02639D01*
X101648Y026398D01*
X101646Y026407D01*
X101645Y026417D01*
X101644Y026427D01*
Y026431D01*
X101645Y026436D01*
X101645Y026442D01*
X101646Y026448D01*
X101648Y026455D01*
X10165Y026463D01*
X101653Y026471D01*
X101653Y026472D01*
X101654Y026474D01*
X101656Y026478D01*
X101659Y026482D01*
X101662Y026487D01*
X101666Y026492D01*
X10167Y026497D01*
X101675Y026501D01*
X101676Y026502D01*
X101677Y026503D01*
X10168Y026504D01*
X101684Y026507D01*
X101688Y026509D01*
X101694Y026512D01*
X101699Y026514D01*
X101706Y026515D01*
X101706D01*
X101709Y026516D01*
X101713Y026517D01*
X101718Y026518D01*
X101725Y026519D01*
X101734Y026519D01*
X101743Y02652D01*
X101754D01*
X101924D01*
Y026447D01*
D02*
G37*
G36*
X101721Y026216D02*
X101721Y026216D01*
X101719Y026213D01*
X101717Y02621D01*
X101715Y026205D01*
X101713Y0262D01*
X101711Y026194D01*
X10171Y026188D01*
X101709Y026182D01*
Y02618D01*
X10171Y026177D01*
X10171Y026174D01*
X101711Y02617D01*
X101713Y026165D01*
X101715Y026161D01*
X101718Y026157D01*
X101718Y026156D01*
X101719Y026155D01*
X101722Y026153D01*
X101725Y026151D01*
X101729Y026148D01*
X101734Y026145D01*
X101741Y026142D01*
X101748Y02614D01*
X101749D01*
X101751Y02614D01*
X101753Y026139D01*
X101755D01*
X101759Y026139D01*
X101763Y026138D01*
X101768Y026138D01*
X101773Y026137D01*
X101781Y026136D01*
X101788Y026136D01*
X101796D01*
X101806Y026135D01*
X101816Y026135D01*
X101828D01*
X10184D01*
X101924D01*
Y026062D01*
X10165D01*
Y026129D01*
X101689D01*
X101688Y02613D01*
X101685Y026132D01*
X10168Y026135D01*
X101674Y02614D01*
X101668Y026144D01*
X101662Y02615D01*
X101657Y026154D01*
X101653Y02616D01*
X101652Y02616D01*
X101651Y026162D01*
X10165Y026165D01*
X101648Y026169D01*
X101647Y026174D01*
X101645Y026179D01*
X101645Y026184D01*
X101644Y026191D01*
Y026195D01*
X101645Y0262D01*
X101646Y026206D01*
X101647Y026214D01*
X10165Y026222D01*
X101653Y02623D01*
X101658Y026239D01*
X101721Y026216D01*
D02*
G37*
G36*
X101808Y025825D02*
X101809D01*
X10181D01*
X101812D01*
X101814Y025825D01*
X101819Y025826D01*
X101827Y025827D01*
X101835Y025829D01*
X101843Y025832D01*
X101852Y025836D01*
X101859Y025842D01*
X101859Y025842D01*
X101861Y025845D01*
X101864Y025848D01*
X101867Y025853D01*
X101871Y025859D01*
X101873Y025867D01*
X101876Y025875D01*
X101876Y025884D01*
Y025886D01*
X101876Y02589D01*
X101875Y025893D01*
X101874Y025898D01*
X101872Y025903D01*
X10187Y025908D01*
X101867Y025912D01*
X101866Y025913D01*
X101865Y025914D01*
X101863Y025916D01*
X10186Y025919D01*
X101855Y025922D01*
X10185Y025925D01*
X101844Y025927D01*
X101837Y02593D01*
X101849Y026002D01*
X101849D01*
X10185Y026002D01*
X101853Y026D01*
X101855Y025999D01*
X101859Y025998D01*
X101862Y025996D01*
X101871Y025991D01*
X101881Y025985D01*
X101891Y025978D01*
X101901Y025968D01*
X101909Y025958D01*
Y025957D01*
X101911Y025957D01*
X101911Y025955D01*
X101913Y025952D01*
X101914Y02595D01*
X101916Y025946D01*
X101918Y025942D01*
X10192Y025937D01*
X101924Y025926D01*
X101927Y025914D01*
X101929Y025899D01*
X10193Y025883D01*
Y02588D01*
X10193Y025877D01*
Y025872D01*
X101929Y025866D01*
X101927Y025859D01*
X101926Y025851D01*
X101924Y025843D01*
X101922Y025834D01*
X101919Y025826D01*
X101915Y025817D01*
X101911Y025808D01*
X101905Y0258D01*
X101899Y025791D01*
X101892Y025784D01*
X101884Y025777D01*
X101883Y025777D01*
X101882Y025776D01*
X10188Y025775D01*
X101877Y025773D01*
X101873Y025771D01*
X101869Y025769D01*
X101864Y025766D01*
X101858Y025764D01*
X101852Y025761D01*
X101844Y025759D01*
X101837Y025756D01*
X101828Y025755D01*
X101819Y025753D01*
X10181Y025751D01*
X1018Y025751D01*
X101789Y02575D01*
X101789D01*
X101787D01*
X101783D01*
X101778Y025751D01*
X101772Y025751D01*
X101766Y025752D01*
X101759Y025753D01*
X101751Y025755D01*
X101734Y025759D01*
X101725Y025762D01*
X101716Y025765D01*
X101707Y02577D01*
X101699Y025774D01*
X10169Y02578D01*
X101683Y025786D01*
X101682Y025786D01*
X101681Y025788D01*
X101679Y02579D01*
X101677Y025792D01*
X101674Y025796D01*
X101671Y0258D01*
X101667Y025805D01*
X101663Y02581D01*
X10166Y025816D01*
X101656Y025824D01*
X101653Y025831D01*
X10165Y025839D01*
X101648Y025847D01*
X101646Y025856D01*
X101645Y025866D01*
X101644Y025875D01*
Y025881D01*
X101645Y025886D01*
X101645Y025891D01*
X101646Y025897D01*
X101647Y025903D01*
X101649Y02591D01*
X101651Y025918D01*
X101654Y025926D01*
X101657Y025934D01*
X101662Y025942D01*
X101666Y02595D01*
X101671Y025957D01*
X101678Y025965D01*
X101685Y025972D01*
X101686Y025972D01*
X101687Y025973D01*
X101689Y025975D01*
X101693Y025977D01*
X101697Y02598D01*
X101702Y025982D01*
X101708Y025986D01*
X101716Y025989D01*
X101724Y025992D01*
X101733Y025996D01*
X101743Y025998D01*
X101754Y026001D01*
X101766Y026003D01*
X101779Y026005D01*
X101793Y026006D01*
X101808D01*
Y025825D01*
D02*
G37*
G36*
X101599Y025739D02*
Y025739D01*
X101599Y025737D01*
X101598Y025733D01*
X101597Y025729D01*
X101596Y025724D01*
X101595Y025718D01*
X101595Y025706D01*
Y025703D01*
X101595Y025701D01*
X101596Y025697D01*
X101598Y02569D01*
X1016Y025687D01*
X101603Y025683D01*
X101603D01*
X101604Y025682D01*
X101606Y025681D01*
X101609Y02568D01*
X101613Y025679D01*
X101618Y025678D01*
X101624Y025677D01*
X101631Y025677D01*
X10165D01*
Y025731D01*
X101707D01*
Y025677D01*
X101924D01*
Y025604D01*
X101707D01*
Y025564D01*
X10165D01*
Y025604D01*
X10163D01*
X101629D01*
X101628D01*
X101627D01*
X101624D01*
X101618Y025605D01*
X10161Y025605D01*
X101602Y025606D01*
X101593Y025607D01*
X101585Y025609D01*
X101578Y025611D01*
X101577Y025612D01*
X101575Y025613D01*
X101572Y025614D01*
X101568Y025617D01*
X101564Y025621D01*
X101559Y025625D01*
X101555Y025631D01*
X10155Y025638D01*
X10155Y025639D01*
X101549Y025642D01*
X101547Y025646D01*
X101545Y025652D01*
X101543Y025659D01*
X101541Y025667D01*
X10154Y025677D01*
X101539Y025688D01*
Y025694D01*
X10154Y0257D01*
X10154Y025707D01*
X101541Y025717D01*
X101543Y025727D01*
X101545Y025738D01*
X101549Y025749D01*
X101599Y025739D01*
D02*
G37*
G36*
X101834Y025543D02*
X101836Y025543D01*
X10184Y025542D01*
X101843Y02554D01*
X101848Y025539D01*
X101859Y025534D01*
X101871Y025529D01*
X101883Y025521D01*
X101895Y025512D01*
X101901Y025506D01*
X101906Y025501D01*
Y0255D01*
X101907Y025499D01*
X101908Y025498D01*
X101909Y025495D01*
X101911Y025492D01*
X101913Y025488D01*
X101915Y025484D01*
X101918Y025478D01*
X10192Y025473D01*
X101923Y025466D01*
X101925Y02546D01*
X101926Y025452D01*
X101928Y025444D01*
X101929Y025435D01*
X10193Y025427D01*
X10193Y025417D01*
Y025411D01*
X10193Y025407D01*
X101929Y025402D01*
X101928Y025396D01*
X101927Y025389D01*
X101925Y025382D01*
X101924Y025375D01*
X101921Y025367D01*
X101918Y025359D01*
X101914Y025351D01*
X10191Y025343D01*
X101905Y025335D01*
X101899Y025328D01*
X101892Y025321D01*
X101892Y025321D01*
X101891Y02532D01*
X101889Y025318D01*
X101885Y025316D01*
X101882Y025313D01*
X101877Y02531D01*
X101872Y025307D01*
X101865Y025304D01*
X101858Y0253D01*
X10185Y025297D01*
X101842Y025294D01*
X101832Y025291D01*
X101822Y025289D01*
X101812Y025287D01*
X1018Y025286D01*
X101788Y025286D01*
X101787D01*
X101785D01*
X101781D01*
X101777Y025286D01*
X101771Y025287D01*
X101764Y025287D01*
X101757Y025288D01*
X101749Y02529D01*
X101732Y025294D01*
X101723Y025297D01*
X101715Y0253D01*
X101706Y025305D01*
X101698Y02531D01*
X10169Y025315D01*
X101682Y025321D01*
X101682Y025322D01*
X101681Y025323D01*
X101679Y025325D01*
X101676Y025328D01*
X101674Y025332D01*
X10167Y025336D01*
X101666Y025341D01*
X101663Y025347D01*
X101659Y025353D01*
X101656Y025361D01*
X101653Y025369D01*
X10165Y025377D01*
X101647Y025386D01*
X101646Y025397D01*
X101645Y025407D01*
X101644Y025418D01*
Y025423D01*
X101645Y025426D01*
Y02543D01*
X101645Y025435D01*
X101646Y025441D01*
X101647Y025447D01*
X10165Y025459D01*
X101653Y025472D01*
X101659Y025486D01*
X101666Y025498D01*
Y025498D01*
X101667Y025499D01*
X101668Y0255D01*
X10167Y025503D01*
X101675Y025507D01*
X101682Y025514D01*
X101691Y025521D01*
X101702Y025528D01*
X101715Y025535D01*
X10173Y02554D01*
X101743Y025469D01*
X101742D01*
X10174Y025468D01*
X101736Y025467D01*
X101731Y025465D01*
X101727Y025463D01*
X101721Y02546D01*
X101716Y025456D01*
X101712Y025452D01*
X101711Y025451D01*
X10171Y02545D01*
X101708Y025447D01*
X101706Y025443D01*
X101704Y025438D01*
X101702Y025433D01*
X101701Y025426D01*
X101701Y025419D01*
Y025418D01*
X101701Y025415D01*
X101702Y02541D01*
X101703Y025403D01*
X101706Y025397D01*
X101709Y025389D01*
X101713Y025382D01*
X10172Y025376D01*
X101721Y025375D01*
X101724Y025374D01*
X101728Y025371D01*
X101735Y025368D01*
X101743Y025365D01*
X101748Y025364D01*
X101754Y025363D01*
X10176Y025362D01*
X101767Y025361D01*
X101775Y02536D01*
X101782D01*
X101783D01*
X101784D01*
X101787D01*
X10179Y025361D01*
X101794D01*
X101799Y025361D01*
X10181Y025362D01*
X101821Y025364D01*
X101832Y025367D01*
X101843Y025371D01*
X101847Y025374D01*
X101852Y025376D01*
X101853Y025377D01*
X101855Y02538D01*
X101858Y025383D01*
X101861Y025388D01*
X101865Y025394D01*
X101868Y025401D01*
X10187Y02541D01*
X101871Y02542D01*
Y025423D01*
X101871Y025427D01*
X10187Y025432D01*
X101868Y025438D01*
X101866Y025443D01*
X101864Y025448D01*
X10186Y025454D01*
X101859Y025454D01*
X101858Y025456D01*
X101855Y025458D01*
X10185Y025462D01*
X101845Y025465D01*
X101838Y025468D01*
X101829Y025471D01*
X101819Y025473D01*
X101831Y025544D01*
X101832D01*
X101834Y025543D01*
D02*
G37*
G36*
X101808Y025061D02*
X101809D01*
X10181D01*
X101812D01*
X101814Y025062D01*
X101819Y025062D01*
X101827Y025064D01*
X101835Y025066D01*
X101843Y025069D01*
X101852Y025073D01*
X101859Y025078D01*
X101859Y025079D01*
X101861Y025082D01*
X101864Y025085D01*
X101867Y02509D01*
X101871Y025096D01*
X101873Y025103D01*
X101876Y025112D01*
X101876Y02512D01*
Y025123D01*
X101876Y025126D01*
X101875Y02513D01*
X101874Y025135D01*
X101872Y025139D01*
X10187Y025144D01*
X101867Y025149D01*
X101866Y025149D01*
X101865Y025151D01*
X101863Y025153D01*
X10186Y025155D01*
X101855Y025159D01*
X10185Y025161D01*
X101844Y025164D01*
X101837Y025167D01*
X101849Y025239D01*
X101849D01*
X10185Y025238D01*
X101853Y025237D01*
X101855Y025236D01*
X101859Y025234D01*
X101862Y025233D01*
X101871Y025228D01*
X101881Y025222D01*
X101891Y025214D01*
X101901Y025205D01*
X101909Y025195D01*
Y025194D01*
X101911Y025193D01*
X101911Y025191D01*
X101913Y025189D01*
X101914Y025186D01*
X101916Y025183D01*
X101918Y025179D01*
X10192Y025174D01*
X101924Y025163D01*
X101927Y02515D01*
X101929Y025136D01*
X10193Y02512D01*
Y025116D01*
X10193Y025113D01*
Y025108D01*
X101929Y025102D01*
X101927Y025095D01*
X101926Y025088D01*
X101924Y02508D01*
X101922Y025071D01*
X101919Y025062D01*
X101915Y025054D01*
X101911Y025045D01*
X101905Y025036D01*
X101899Y025028D01*
X101892Y025021D01*
X101884Y025014D01*
X101883Y025013D01*
X101882Y025013D01*
X10188Y025012D01*
X101877Y025009D01*
X101873Y025008D01*
X101869Y025006D01*
X101864Y025003D01*
X101858Y025001D01*
X101852Y024998D01*
X101844Y024996D01*
X101837Y024993D01*
X101828Y024991D01*
X101819Y02499D01*
X10181Y024988D01*
X1018Y024988D01*
X101789Y024987D01*
X101789D01*
X101787D01*
X101783D01*
X101778Y024988D01*
X101772Y024988D01*
X101766Y024989D01*
X101759Y02499D01*
X101751Y024991D01*
X101734Y024996D01*
X101725Y024999D01*
X101716Y025002D01*
X101707Y025006D01*
X101699Y025011D01*
X10169Y025017D01*
X101683Y025023D01*
X101682Y025023D01*
X101681Y025024D01*
X101679Y025026D01*
X101677Y025029D01*
X101674Y025032D01*
X101671Y025037D01*
X101667Y025042D01*
X101663Y025047D01*
X10166Y025053D01*
X101656Y02506D01*
X101653Y025067D01*
X10165Y025076D01*
X101648Y025084D01*
X101646Y025093D01*
X101645Y025102D01*
X101644Y025112D01*
Y025118D01*
X101645Y025122D01*
X101645Y025127D01*
X101646Y025133D01*
X101647Y02514D01*
X101649Y025147D01*
X101651Y025155D01*
X101654Y025162D01*
X101657Y025171D01*
X101662Y025179D01*
X101666Y025186D01*
X101671Y025194D01*
X101678Y025202D01*
X101685Y025208D01*
X101686Y025209D01*
X101687Y02521D01*
X101689Y025211D01*
X101693Y025214D01*
X101697Y025216D01*
X101702Y025219D01*
X101708Y025222D01*
X101716Y025226D01*
X101724Y025229D01*
X101733Y025232D01*
X101743Y025235D01*
X101754Y025238D01*
X101766Y02524D01*
X101779Y025242D01*
X101793Y025243D01*
X101808D01*
Y025061D01*
D02*
G37*
G36*
X101924Y024861D02*
X101546D01*
Y024934D01*
X101924D01*
Y024861D01*
D02*
G37*
G36*
Y02451D02*
X101546D01*
Y02479D01*
X10161D01*
Y024586D01*
X101694D01*
Y024776D01*
X101758D01*
Y024586D01*
X10186D01*
Y024797D01*
X101924D01*
Y02451D01*
D02*
G37*
G36*
X097496Y0304D02*
X097528D01*
Y030357D01*
X097496D01*
Y030306D01*
X097449D01*
Y030357D01*
X097344D01*
Y030399D01*
X097455Y030563D01*
X097496D01*
Y0304D01*
D02*
G37*
G36*
X097224Y030561D02*
X097228D01*
X097232Y030561D01*
X097237D01*
X097246Y03056D01*
X097256Y030559D01*
X097266Y030557D01*
X09727Y030556D01*
X097273Y030555D01*
X097274D01*
X097274Y030554D01*
X097276Y030553D01*
X09728Y030551D01*
X097284Y030549D01*
X097289Y030545D01*
X097294Y030541D01*
X097299Y030536D01*
X097303Y03053D01*
Y030529D01*
X097303Y030529D01*
X097304Y030528D01*
X097305Y030527D01*
X097307Y030523D01*
X097309Y030518D01*
X097311Y030512D01*
X097313Y030506D01*
X097314Y030498D01*
X097314Y03049D01*
Y030489D01*
Y030489D01*
Y030487D01*
X097314Y030485D01*
Y030482D01*
X097314Y03048D01*
X097312Y030473D01*
X09731Y030465D01*
X097307Y030458D01*
X097303Y030449D01*
X0973Y030446D01*
X097297Y030442D01*
X097297Y030442D01*
X097297Y030441D01*
X097296Y03044D01*
X097294Y030439D01*
X097293Y030438D01*
X09729Y030436D01*
X097288Y030434D01*
X097285Y030432D01*
X097282Y03043D01*
X097277Y030428D01*
X097273Y030426D01*
X097269Y030424D01*
X097264Y030422D01*
X097259Y030421D01*
X097253Y030419D01*
X097247Y030418D01*
X097247D01*
X097247Y030418D01*
X09725Y030417D01*
X097253Y030415D01*
X097256Y030412D01*
X097261Y030409D01*
X097265Y030405D01*
X09727Y030401D01*
X097274Y030397D01*
X097275Y030397D01*
X097276Y030395D01*
X097279Y030392D01*
X097282Y030387D01*
X097286Y030382D01*
X097289Y030378D01*
X097291Y030374D01*
X097294Y03037D01*
X097297Y030366D01*
X0973Y030361D01*
X097304Y030355D01*
X097335Y030306D01*
X097273D01*
X097236Y030361D01*
X097236Y030361D01*
X097235Y030362D01*
X097234Y030364D01*
X097233Y030366D01*
X097231Y030368D01*
X097229Y030371D01*
X097225Y030377D01*
X09722Y030384D01*
X097216Y030389D01*
X097212Y030395D01*
X09721Y030397D01*
X097209Y030399D01*
X097208Y030399D01*
X097208Y0304D01*
X097206Y030401D01*
X097204Y030403D01*
X097202Y030405D01*
X097199Y030407D01*
X097196Y030408D01*
X097193Y030409D01*
X097193D01*
X097192Y03041D01*
X09719Y030411D01*
X097187Y030411D01*
X097183Y030412D01*
X097179Y030412D01*
X097173Y030412D01*
X097157D01*
Y030306D01*
X097105D01*
Y030562D01*
X09722D01*
X097224Y030561D01*
D02*
G37*
G36*
X095639Y027295D02*
Y027295D01*
Y027293D01*
Y02729D01*
Y027288D01*
Y027284D01*
X095639Y027279D01*
Y027275D01*
Y02727D01*
X095638Y027259D01*
X095637Y027248D01*
X095637Y027243D01*
X095636Y027238D01*
X095636Y027234D01*
X095635Y02723D01*
Y027229D01*
X095634Y027229D01*
Y027228D01*
X095634Y027227D01*
X095633Y027223D01*
X095632Y027219D01*
X095629Y027214D01*
X095627Y027208D01*
X095623Y027203D01*
X095619Y027198D01*
X095619Y027197D01*
X095617Y027195D01*
X095615Y027193D01*
X095612Y02719D01*
X095607Y027187D01*
X095602Y027184D01*
X095596Y02718D01*
X095589Y027177D01*
X095589D01*
X095589Y027177D01*
X095587Y027176D01*
X095586Y027176D01*
X095584Y027175D01*
X095582Y027174D01*
X095579Y027174D01*
X095576Y027173D01*
X095569Y027172D01*
X09556Y02717D01*
X095551Y027169D01*
X09554Y027169D01*
X095534D01*
X095531Y027169D01*
X095528D01*
X095523Y02717D01*
X095519Y02717D01*
X095511Y027171D01*
X095501Y027172D01*
X095492Y027175D01*
X095488Y027176D01*
X095484Y027177D01*
X095484D01*
X095484Y027178D01*
X095481Y027179D01*
X095478Y027181D01*
X095474Y027183D01*
X095469Y027187D01*
X095464Y02719D01*
X095459Y027195D01*
X095454Y027199D01*
X095454Y0272D01*
X095452Y027202D01*
X095451Y027205D01*
X095448Y027208D01*
X095446Y027212D01*
X095444Y027217D01*
X095442Y027222D01*
X09544Y027228D01*
Y027228D01*
X095439Y027229D01*
Y02723D01*
X095439Y027232D01*
X095439Y027234D01*
X095438Y027237D01*
X095438Y027241D01*
X095438Y027244D01*
X095437Y027249D01*
X095437Y027253D01*
X095436Y027259D01*
X095436Y027265D01*
X095435Y027271D01*
Y027278D01*
X095435Y027285D01*
Y027293D01*
Y02743D01*
X095487D01*
Y027291D01*
Y02729D01*
Y027289D01*
Y027288D01*
Y027286D01*
Y027283D01*
Y02728D01*
X095487Y027273D01*
Y027266D01*
X095488Y027259D01*
X095488Y027255D01*
Y027252D01*
X095488Y02725D01*
X095489Y027248D01*
Y027247D01*
X095489Y027245D01*
X095491Y027242D01*
X095492Y027239D01*
X095494Y027235D01*
X095497Y027231D01*
X0955Y027226D01*
X095504Y027222D01*
X095505Y027222D01*
X095506Y027221D01*
X095509Y027219D01*
X095513Y027218D01*
X095518Y027216D01*
X095524Y027215D01*
X095531Y027214D01*
X095539Y027213D01*
X095542D01*
X095546Y027214D01*
X095551Y027214D01*
X095556Y027215D01*
X095562Y027217D01*
X095567Y027219D01*
X095572Y027222D01*
X095572Y027222D01*
X095573Y027224D01*
X095575Y027225D01*
X095577Y027228D01*
X09558Y027231D01*
X095582Y027235D01*
X095584Y027239D01*
X095585Y027244D01*
Y027245D01*
X095585Y027246D01*
X095586Y02725D01*
X095586Y027254D01*
Y027257D01*
X095587Y027261D01*
Y027264D01*
X095587Y027268D01*
Y027272D01*
X095587Y027277D01*
Y027282D01*
Y027288D01*
Y02743D01*
X095639D01*
Y027295D01*
D02*
G37*
G36*
X095808Y027174D02*
X095759D01*
Y027359D01*
X095759Y027359D01*
X095758Y027358D01*
X095757Y027357D01*
X095754Y027355D01*
X095752Y027353D01*
X095749Y027351D01*
X095745Y027348D01*
X095741Y027345D01*
X095737Y027342D01*
X095732Y027339D01*
X095727Y027336D01*
X095721Y027333D01*
X095709Y027327D01*
X095696Y027322D01*
Y027367D01*
X095696D01*
X095697Y027367D01*
X095698Y027367D01*
X095699Y027368D01*
X095703Y02737D01*
X095708Y027372D01*
X095714Y027375D01*
X095721Y027379D01*
X095729Y027384D01*
X095737Y02739D01*
X095738Y02739D01*
X095738Y027391D01*
X09574Y027392D01*
X095741Y027393D01*
X095745Y027397D01*
X09575Y027402D01*
X095755Y027408D01*
X09576Y027415D01*
X095765Y027423D01*
X095768Y027431D01*
X095808D01*
Y027174D01*
D02*
G37*
G36*
X096069Y030563D02*
X096072Y030562D01*
X096075Y030562D01*
X09608Y030561D01*
X096084Y03056D01*
X096093Y030557D01*
X096098Y030556D01*
X096103Y030553D01*
X096108Y03055D01*
X096112Y030547D01*
X096117Y030544D01*
X096121Y03054D01*
X096121Y030539D01*
X096122Y030539D01*
X096123Y030538D01*
X096124Y030536D01*
X096127Y030533D01*
X09613Y030528D01*
X096134Y030521D01*
X096136Y030514D01*
X096138Y030506D01*
X096139Y030502D01*
X096139Y030497D01*
Y030497D01*
Y030496D01*
X096139Y030494D01*
X096138Y030492D01*
X096138Y030489D01*
X096137Y030485D01*
X096136Y030482D01*
X096135Y030478D01*
X096132Y030473D01*
X09613Y030469D01*
X096127Y030465D01*
X096124Y03046D01*
X096119Y030456D01*
X096114Y030451D01*
X096109Y030447D01*
X096102Y030443D01*
X096102D01*
X096103Y030443D01*
X096104D01*
X096106Y030442D01*
X09611Y030441D01*
X096115Y030439D01*
X09612Y030436D01*
X096126Y030432D01*
X096132Y030427D01*
X096137Y030422D01*
X096138Y030421D01*
X096139Y030419D01*
X096141Y030415D01*
X096144Y030411D01*
X096146Y030405D01*
X096148Y030398D01*
X09615Y030391D01*
X096151Y030382D01*
Y030382D01*
Y030381D01*
Y030379D01*
X09615Y030377D01*
X09615Y030374D01*
X096149Y03037D01*
X096148Y030366D01*
X096148Y030362D01*
X096145Y030353D01*
X096142Y030348D01*
X09614Y030343D01*
X096137Y030338D01*
X096134Y030334D01*
X09613Y030329D01*
X096126Y030324D01*
X096125Y030324D01*
X096125Y030323D01*
X096123Y030322D01*
X096121Y030321D01*
X096119Y030319D01*
X096116Y030317D01*
X096112Y030315D01*
X096109Y030313D01*
X096105Y03031D01*
X0961Y030308D01*
X096095Y030306D01*
X096089Y030304D01*
X096084Y030303D01*
X096078Y030302D01*
X096071Y030301D01*
X096064Y030301D01*
X096061D01*
X096058Y030301D01*
X096055Y030301D01*
X096052Y030302D01*
X096048Y030303D01*
X096044Y030303D01*
X096035Y030306D01*
X096025Y030309D01*
X09602Y030311D01*
X096016Y030314D01*
X096011Y030317D01*
X096007Y030321D01*
X096006Y030321D01*
X096006Y030322D01*
X096004Y030323D01*
X096003Y030324D01*
X096001Y030326D01*
X095999Y030329D01*
X095997Y030331D01*
X095995Y030335D01*
X095993Y030338D01*
X09599Y030342D01*
X095986Y030351D01*
X095983Y030361D01*
X095981Y030367D01*
X09598Y030373D01*
X096028Y030379D01*
Y030378D01*
Y030378D01*
X096028Y030376D01*
X096029Y030372D01*
X09603Y030368D01*
X096032Y030364D01*
X096034Y030359D01*
X096037Y030355D01*
X09604Y030351D01*
X09604Y03035D01*
X096042Y030349D01*
X096044Y030348D01*
X096047Y030346D01*
X09605Y030344D01*
X096054Y030343D01*
X096059Y030342D01*
X096064Y030341D01*
X096065D01*
X096067Y030342D01*
X096069Y030342D01*
X096073Y030343D01*
X096077Y030344D01*
X096081Y030346D01*
X096085Y030349D01*
X096089Y030353D01*
X09609Y030353D01*
X096091Y030355D01*
X096093Y030358D01*
X096095Y030361D01*
X096097Y030365D01*
X096099Y030371D01*
X0961Y030377D01*
X0961Y030384D01*
Y030385D01*
Y030385D01*
Y030387D01*
X0961Y030391D01*
X096099Y030395D01*
X096098Y0304D01*
X096096Y030405D01*
X096093Y030409D01*
X09609Y030414D01*
X096089Y030414D01*
X096088Y030416D01*
X096086Y030418D01*
X096083Y030419D01*
X09608Y030422D01*
X096075Y030423D01*
X096071Y030425D01*
X096066Y030425D01*
X096062D01*
X09606Y030425D01*
X096056Y030424D01*
X096052Y030424D01*
X096048Y030422D01*
X096043Y030421D01*
X096048Y030461D01*
X096052D01*
X096055Y030461D01*
X09606Y030462D01*
X096065Y030463D01*
X09607Y030464D01*
X096075Y030466D01*
X096079Y030469D01*
X09608Y03047D01*
X096081Y030471D01*
X096082Y030473D01*
X096085Y030476D01*
X096087Y030479D01*
X096088Y030483D01*
X096089Y030488D01*
X09609Y030494D01*
Y030495D01*
Y030496D01*
X096089Y030498D01*
X096089Y030501D01*
X096088Y030505D01*
X096087Y030508D01*
X096085Y030512D01*
X096082Y030515D01*
X096082Y030515D01*
X096081Y030516D01*
X096079Y030517D01*
X096077Y030519D01*
X096074Y03052D01*
X09607Y030521D01*
X096066Y030522D01*
X096061Y030522D01*
X096059D01*
X096057Y030522D01*
X096054Y030521D01*
X096051Y03052D01*
X096047Y030519D01*
X096043Y030516D01*
X09604Y030513D01*
X09604Y030513D01*
X096038Y030512D01*
X096037Y03051D01*
X096035Y030507D01*
X096033Y030503D01*
X096032Y030499D01*
X09603Y030494D01*
X096029Y030488D01*
X095984Y030495D01*
Y030496D01*
X095984Y030496D01*
Y030498D01*
X095985Y030499D01*
X095986Y030503D01*
X095987Y030509D01*
X09599Y030515D01*
X095992Y030521D01*
X095995Y030527D01*
X095998Y030533D01*
X095998Y030533D01*
X096Y030535D01*
X096002Y030538D01*
X096005Y030541D01*
X096009Y030544D01*
X096013Y030548D01*
X096019Y030552D01*
X096025Y030555D01*
X096025D01*
X096025Y030555D01*
X096028Y030556D01*
X096031Y030557D01*
X096036Y030559D01*
X096041Y03056D01*
X096048Y030562D01*
X096055Y030563D01*
X096063Y030563D01*
X096066D01*
X096069Y030563D01*
D02*
G37*
G36*
X095854Y030561D02*
X095858D01*
X095862Y030561D01*
X095867D01*
X095876Y03056D01*
X095886Y030559D01*
X095896Y030557D01*
X0959Y030556D01*
X095903Y030555D01*
X095904D01*
X095904Y030554D01*
X095906Y030553D01*
X09591Y030551D01*
X095914Y030549D01*
X095919Y030545D01*
X095924Y030541D01*
X095929Y030536D01*
X095933Y03053D01*
Y030529D01*
X095933Y030529D01*
X095934Y030528D01*
X095935Y030527D01*
X095937Y030523D01*
X095939Y030518D01*
X095941Y030512D01*
X095943Y030506D01*
X095944Y030498D01*
X095944Y03049D01*
Y030489D01*
Y030489D01*
Y030487D01*
X095944Y030485D01*
Y030482D01*
X095944Y03048D01*
X095942Y030473D01*
X09594Y030465D01*
X095937Y030458D01*
X095933Y030449D01*
X09593Y030446D01*
X095927Y030442D01*
X095927Y030442D01*
X095927Y030441D01*
X095926Y03044D01*
X095924Y030439D01*
X095923Y030438D01*
X09592Y030436D01*
X095918Y030434D01*
X095915Y030432D01*
X095912Y03043D01*
X095907Y030428D01*
X095903Y030426D01*
X095899Y030424D01*
X095894Y030422D01*
X095889Y030421D01*
X095883Y030419D01*
X095877Y030418D01*
X095877D01*
X095877Y030418D01*
X09588Y030417D01*
X095883Y030415D01*
X095886Y030412D01*
X095891Y030409D01*
X095895Y030405D01*
X0959Y030401D01*
X095904Y030397D01*
X095905Y030397D01*
X095906Y030395D01*
X095909Y030392D01*
X095912Y030387D01*
X095916Y030382D01*
X095919Y030378D01*
X095921Y030374D01*
X095924Y03037D01*
X095927Y030366D01*
X09593Y030361D01*
X095934Y030355D01*
X095965Y030306D01*
X095903D01*
X095866Y030361D01*
X095866Y030361D01*
X095865Y030362D01*
X095864Y030364D01*
X095863Y030366D01*
X095861Y030368D01*
X095859Y030371D01*
X095855Y030377D01*
X09585Y030384D01*
X095846Y030389D01*
X095842Y030395D01*
X09584Y030397D01*
X095839Y030399D01*
X095838Y030399D01*
X095838Y0304D01*
X095836Y030401D01*
X095834Y030403D01*
X095832Y030405D01*
X095829Y030407D01*
X095826Y030408D01*
X095823Y030409D01*
X095823D01*
X095822Y03041D01*
X09582Y030411D01*
X095817Y030411D01*
X095813Y030412D01*
X095809Y030412D01*
X095803Y030412D01*
X095787D01*
Y030306D01*
X095735D01*
Y030562D01*
X09585D01*
X095854Y030561D01*
D02*
G37*
G36*
X095891Y026062D02*
X095893D01*
X095896Y026062D01*
X095903Y02606D01*
X09591Y026058D01*
X095918Y026056D01*
X095927Y026051D01*
X09593Y026049D01*
X095934Y026046D01*
X095934D01*
X095935Y026045D01*
X095936Y026044D01*
X095937Y026043D01*
X095939Y026041D01*
X09594Y026039D01*
X095944Y026034D01*
X095948Y026027D01*
X095952Y026019D01*
X095956Y02601D01*
X095959Y025999D01*
X095911Y025993D01*
Y025994D01*
X095911Y025996D01*
X09591Y025998D01*
X095909Y026002D01*
X095908Y026005D01*
X095907Y026009D01*
X095905Y026012D01*
X095902Y026015D01*
X095902Y026015D01*
X095901Y026016D01*
X095899Y026017D01*
X095897Y026019D01*
X095894Y02602D01*
X095891Y026021D01*
X095887Y026021D01*
X095883Y026022D01*
X095882D01*
X09588Y026021D01*
X095877Y026021D01*
X095874Y02602D01*
X09587Y026019D01*
X095865Y026016D01*
X095861Y026013D01*
X095857Y026008D01*
X095856Y026007D01*
X095855Y026006D01*
X095855Y026005D01*
X095854Y026003D01*
X095853Y026001D01*
X095852Y025999D01*
X095851Y025995D01*
X09585Y025992D01*
X095848Y025987D01*
X095847Y025983D01*
X095846Y025977D01*
X095845Y025972D01*
X095844Y025965D01*
X095844Y025957D01*
X095843Y02595D01*
X095843Y02595D01*
X095844Y025951D01*
X095845Y025952D01*
X095846Y025953D01*
X095848Y025955D01*
X09585Y025957D01*
X095855Y025961D01*
X095862Y025965D01*
X09587Y025968D01*
X095874Y02597D01*
X095879Y02597D01*
X095884Y025971D01*
X095889Y025972D01*
X095892D01*
X095894Y025971D01*
X095897Y025971D01*
X095899Y02597D01*
X095903Y02597D01*
X095907Y025969D01*
X095915Y025966D01*
X095919Y025964D01*
X095924Y025962D01*
X095928Y025959D01*
X095933Y025956D01*
X095937Y025952D01*
X095941Y025948D01*
X095942Y025947D01*
X095942Y025947D01*
X095944Y025946D01*
X095945Y025944D01*
X095946Y025941D01*
X095948Y025939D01*
X09595Y025935D01*
X095952Y025932D01*
X095955Y025928D01*
X095956Y025923D01*
X095958Y025918D01*
X09596Y025912D01*
X095961Y025907D01*
X095962Y0259D01*
X095963Y025894D01*
X095964Y025887D01*
Y025887D01*
Y025885D01*
Y025883D01*
X095963Y025881D01*
X095963Y025877D01*
X095962Y025873D01*
X095962Y025869D01*
X095961Y025865D01*
X095958Y025854D01*
X095956Y025849D01*
X095954Y025844D01*
X095951Y025839D01*
X095948Y025834D01*
X095944Y025828D01*
X09594Y025824D01*
X09594Y025824D01*
X095939Y025823D01*
X095938Y025822D01*
X095936Y02582D01*
X095934Y025818D01*
X095931Y025817D01*
X095928Y025814D01*
X095924Y025812D01*
X09592Y02581D01*
X095916Y025808D01*
X095911Y025806D01*
X095905Y025804D01*
X0959Y025802D01*
X095894Y025801D01*
X095888Y025801D01*
X095881Y0258D01*
X095879D01*
X095877Y025801D01*
X095875D01*
X095871Y025801D01*
X095867Y025802D01*
X095863Y025803D01*
X095858Y025804D01*
X095854Y025805D01*
X095848Y025808D01*
X095843Y02581D01*
X095838Y025813D01*
X095832Y025816D01*
X095827Y02582D01*
X095822Y025825D01*
X095817Y02583D01*
X095817Y025831D01*
X095816Y025832D01*
X095815Y025834D01*
X095813Y025836D01*
X095811Y025839D01*
X095809Y025844D01*
X095807Y025848D01*
X095805Y025854D01*
X095802Y025861D01*
X0958Y025868D01*
X095798Y025876D01*
X095796Y025885D01*
X095794Y025895D01*
X095793Y025905D01*
X095793Y025917D01*
X095792Y025929D01*
Y02593D01*
Y02593D01*
Y025931D01*
Y025932D01*
Y025936D01*
X095793Y025941D01*
X095793Y025947D01*
X095794Y025953D01*
X095794Y025961D01*
X095796Y025969D01*
X095797Y025977D01*
X095798Y025985D01*
X095801Y025994D01*
X095803Y026002D01*
X095806Y02601D01*
X09581Y026018D01*
X095814Y026025D01*
X095818Y026031D01*
X095818Y026031D01*
X095819Y026033D01*
X095821Y026034D01*
X095823Y026036D01*
X095826Y026039D01*
X095828Y026041D01*
X095832Y026044D01*
X095836Y026047D01*
X095841Y02605D01*
X095846Y026053D01*
X095852Y026055D01*
X095858Y026058D01*
X095864Y02606D01*
X095871Y026061D01*
X095878Y026062D01*
X095886Y026063D01*
X095889D01*
X095891Y026062D01*
D02*
G37*
G36*
X095664Y026061D02*
X095668D01*
X095672Y02606D01*
X095677D01*
X095686Y026059D01*
X095696Y026058D01*
X095706Y026056D01*
X09571Y026055D01*
X095713Y026054D01*
X095714D01*
X095714Y026054D01*
X095716Y026053D01*
X09572Y026051D01*
X095724Y026049D01*
X095729Y026045D01*
X095734Y026041D01*
X095739Y026036D01*
X095743Y026029D01*
Y026029D01*
X095743Y026029D01*
X095744Y026027D01*
X095745Y026026D01*
X095747Y026023D01*
X095749Y026018D01*
X095751Y026012D01*
X095753Y026005D01*
X095754Y025997D01*
X095754Y025989D01*
Y025989D01*
Y025988D01*
Y025986D01*
X095754Y025984D01*
Y025982D01*
X095754Y025979D01*
X095752Y025973D01*
X09575Y025965D01*
X095747Y025957D01*
X095743Y025949D01*
X09574Y025945D01*
X095737Y025942D01*
X095737Y025941D01*
X095737Y025941D01*
X095736Y02594D01*
X095734Y025939D01*
X095733Y025937D01*
X09573Y025935D01*
X095728Y025933D01*
X095725Y025932D01*
X095722Y025929D01*
X095717Y025928D01*
X095713Y025926D01*
X095709Y025924D01*
X095704Y025922D01*
X095699Y02592D01*
X095693Y025919D01*
X095687Y025918D01*
X095687D01*
X095687Y025918D01*
X09569Y025916D01*
X095693Y025914D01*
X095696Y025912D01*
X095701Y025908D01*
X095705Y025905D01*
X09571Y025901D01*
X095714Y025896D01*
X095715Y025896D01*
X095716Y025894D01*
X095719Y025891D01*
X095722Y025887D01*
X095726Y025881D01*
X095729Y025878D01*
X095731Y025874D01*
X095734Y02587D01*
X095737Y025865D01*
X09574Y02586D01*
X095744Y025855D01*
X095775Y025805D01*
X095713D01*
X095676Y025861D01*
X095676Y025861D01*
X095675Y025862D01*
X095674Y025863D01*
X095673Y025865D01*
X095671Y025868D01*
X095669Y025871D01*
X095665Y025876D01*
X09566Y025883D01*
X095656Y025889D01*
X095652Y025895D01*
X09565Y025896D01*
X095649Y025898D01*
X095648Y025899D01*
X095648Y025899D01*
X095646Y025901D01*
X095644Y025903D01*
X095642Y025904D01*
X095639Y025906D01*
X095636Y025908D01*
X095633Y025909D01*
X095633D01*
X095632Y025909D01*
X09563Y02591D01*
X095627Y02591D01*
X095623Y025911D01*
X095619Y025912D01*
X095613Y025912D01*
X095597D01*
Y025805D01*
X095545D01*
Y026061D01*
X09566D01*
X095664Y026061D01*
D02*
G37*
G36*
X095203Y029842D02*
X095206Y029842D01*
X09521Y029841D01*
X095214Y029841D01*
X095218Y02984D01*
X095228Y029837D01*
X095238Y029834D01*
X095243Y029831D01*
X095247Y029829D01*
X095252Y029826D01*
X095256Y029822D01*
X095257Y029821D01*
X095257Y029821D01*
X095258Y02982D01*
X095259Y029818D01*
X095261Y029816D01*
X095263Y029814D01*
X095265Y029811D01*
X095267Y029808D01*
X095271Y0298D01*
X095275Y029792D01*
X095276Y029787D01*
X095277Y029782D01*
X095278Y029776D01*
X095278Y029771D01*
Y02977D01*
Y029768D01*
X095278Y029764D01*
X095277Y02976D01*
X095276Y029755D01*
X095275Y02975D01*
X095274Y029744D01*
X095272Y029738D01*
X095271Y029737D01*
X095271Y029735D01*
X095269Y029732D01*
X095267Y029728D01*
X095264Y029723D01*
X095261Y029718D01*
X095257Y029712D01*
X095252Y029705D01*
X095252Y029705D01*
X09525Y029703D01*
X095248Y0297D01*
X095245Y029697D01*
X09524Y029692D01*
X095235Y029686D01*
X095228Y02968D01*
X09522Y029672D01*
X095219Y029672D01*
X095219Y029672D01*
X095218Y029671D01*
X095216Y029669D01*
X095212Y029665D01*
X095207Y029661D01*
X095202Y029656D01*
X095198Y029651D01*
X095193Y029647D01*
X095192Y029645D01*
X09519Y029644D01*
X09519Y029643D01*
X095189Y029643D01*
X095188Y029641D01*
X095187Y029639D01*
X095183Y029635D01*
X09518Y029631D01*
X095278D01*
Y029585D01*
X095106D01*
Y029585D01*
Y029586D01*
X095106Y029588D01*
X095107Y029589D01*
X095107Y029592D01*
X095107Y029594D01*
X095109Y029601D01*
X095111Y029608D01*
X095114Y029616D01*
X095118Y029625D01*
X095123Y029634D01*
Y029634D01*
X095123Y029635D01*
X095124Y029636D01*
X095126Y029638D01*
X095127Y029641D01*
X095129Y029643D01*
X095132Y029646D01*
X095135Y02965D01*
X095138Y029655D01*
X095142Y029659D01*
X095147Y029664D01*
X095152Y02967D01*
X095157Y029675D01*
X095164Y029682D01*
X09517Y029688D01*
X095178Y029695D01*
X095178Y029696D01*
X095179Y029697D01*
X095181Y029698D01*
X095183Y0297D01*
X095186Y029703D01*
X095189Y029706D01*
X095195Y029712D01*
X095202Y029719D01*
X095209Y029726D01*
X095212Y029729D01*
X095215Y029733D01*
X095217Y029735D01*
X095218Y029737D01*
X095219Y029738D01*
X09522Y02974D01*
X095222Y029743D01*
X095224Y029747D01*
X095225Y029752D01*
X095227Y029757D01*
X095228Y029762D01*
X095229Y029767D01*
Y029768D01*
Y029768D01*
Y02977D01*
X095228Y029773D01*
X095228Y029777D01*
X095227Y029781D01*
X095225Y029785D01*
X095223Y029789D01*
X09522Y029793D01*
X095219Y029793D01*
X095218Y029794D01*
X095216Y029796D01*
X095214Y029797D01*
X09521Y029799D01*
X095206Y0298D01*
X095201Y029801D01*
X095195Y029802D01*
X095193D01*
X09519Y029801D01*
X095187Y029801D01*
X095183Y0298D01*
X095178Y029798D01*
X095174Y029796D01*
X095171Y029793D01*
X09517Y029792D01*
X095169Y029791D01*
X095168Y029789D01*
X095166Y029785D01*
X095164Y029781D01*
X095163Y029776D01*
X095161Y029769D01*
X095161Y029762D01*
X095112Y029767D01*
Y029767D01*
X095112Y029769D01*
Y02977D01*
X095113Y029773D01*
X095113Y029777D01*
X095114Y02978D01*
X095116Y029784D01*
X095117Y029789D01*
X09512Y029799D01*
X095125Y029808D01*
X095128Y029813D01*
X095131Y029817D01*
X095135Y029821D01*
X095139Y029825D01*
X095139Y029825D01*
X09514Y029826D01*
X095141Y029826D01*
X095143Y029828D01*
X095145Y029829D01*
X095148Y02983D01*
X095151Y029832D01*
X095155Y029834D01*
X095159Y029836D01*
X095163Y029837D01*
X095173Y02984D01*
X095184Y029842D01*
X09519Y029842D01*
X095197Y029843D01*
X0952D01*
X095203Y029842D01*
D02*
G37*
G36*
X094984Y029841D02*
X094988D01*
X094992Y02984D01*
X094997D01*
X095006Y029839D01*
X095016Y029838D01*
X095026Y029836D01*
X09503Y029835D01*
X095033Y029834D01*
X095034D01*
X095034Y029834D01*
X095036Y029833D01*
X09504Y029831D01*
X095044Y029829D01*
X095049Y029825D01*
X095054Y029821D01*
X095059Y029816D01*
X095063Y029809D01*
Y029809D01*
X095063Y029809D01*
X095064Y029807D01*
X095065Y029806D01*
X095067Y029803D01*
X095069Y029798D01*
X095071Y029792D01*
X095073Y029785D01*
X095074Y029777D01*
X095074Y029769D01*
Y029769D01*
Y029768D01*
Y029766D01*
X095074Y029764D01*
Y029762D01*
X095074Y029759D01*
X095072Y029753D01*
X09507Y029745D01*
X095067Y029737D01*
X095063Y029729D01*
X09506Y029725D01*
X095057Y029722D01*
X095057Y029721D01*
X095057Y029721D01*
X095056Y02972D01*
X095054Y029719D01*
X095053Y029717D01*
X09505Y029715D01*
X095048Y029713D01*
X095045Y029712D01*
X095042Y029709D01*
X095037Y029708D01*
X095033Y029706D01*
X095029Y029704D01*
X095024Y029702D01*
X095019Y0297D01*
X095013Y029699D01*
X095007Y029698D01*
X095007D01*
X095007Y029698D01*
X09501Y029696D01*
X095013Y029694D01*
X095016Y029692D01*
X095021Y029688D01*
X095025Y029685D01*
X09503Y029681D01*
X095034Y029676D01*
X095035Y029676D01*
X095036Y029674D01*
X095039Y029671D01*
X095042Y029667D01*
X095046Y029661D01*
X095049Y029658D01*
X095051Y029654D01*
X095054Y02965D01*
X095057Y029645D01*
X09506Y02964D01*
X095064Y029635D01*
X095095Y029585D01*
X095033D01*
X094996Y029641D01*
X094996Y029641D01*
X094995Y029642D01*
X094994Y029643D01*
X094993Y029645D01*
X094991Y029648D01*
X094989Y029651D01*
X094985Y029656D01*
X09498Y029663D01*
X094976Y029669D01*
X094972Y029675D01*
X09497Y029676D01*
X094969Y029678D01*
X094968Y029679D01*
X094968Y029679D01*
X094966Y029681D01*
X094964Y029683D01*
X094962Y029684D01*
X094959Y029686D01*
X094956Y029688D01*
X094953Y029689D01*
X094953D01*
X094952Y029689D01*
X09495Y02969D01*
X094947Y02969D01*
X094943Y029691D01*
X094939Y029692D01*
X094933Y029692D01*
X094917D01*
Y029585D01*
X094865D01*
Y029841D01*
X09498D01*
X094984Y029841D01*
D02*
G37*
G36*
X094478Y02958D02*
X094428D01*
Y029765D01*
X094428Y029765D01*
X094427Y029764D01*
X094426Y029763D01*
X094424Y029761D01*
X094421Y029759D01*
X094418Y029757D01*
X094414Y029754D01*
X09441Y029751D01*
X094406Y029748D01*
X094401Y029745D01*
X094396Y029742D01*
X09439Y029739D01*
X094378Y029734D01*
X094365Y029728D01*
Y029773D01*
X094366D01*
X094366Y029773D01*
X094367Y029774D01*
X094368Y029774D01*
X094372Y029776D01*
X094377Y029778D01*
X094384Y029781D01*
X094391Y029785D01*
X094398Y02979D01*
X094407Y029796D01*
X094407Y029796D01*
X094408Y029797D01*
X094409Y029798D01*
X09441Y029799D01*
X094414Y029803D01*
X094419Y029808D01*
X094424Y029814D01*
X094429Y029821D01*
X094434Y029829D01*
X094438Y029838D01*
X094478D01*
Y02958D01*
D02*
G37*
G36*
X094224Y029836D02*
X094228D01*
X094232Y029835D01*
X094237D01*
X094246Y029834D01*
X094256Y029833D01*
X094266Y029831D01*
X09427Y02983D01*
X094273Y029829D01*
X094274D01*
X094274Y029829D01*
X094276Y029828D01*
X09428Y029826D01*
X094284Y029824D01*
X094289Y02982D01*
X094294Y029816D01*
X094299Y029811D01*
X094303Y029804D01*
Y029804D01*
X094303Y029804D01*
X094304Y029802D01*
X094305Y029801D01*
X094307Y029798D01*
X094309Y029793D01*
X094311Y029787D01*
X094313Y02978D01*
X094314Y029772D01*
X094314Y029764D01*
Y029764D01*
Y029763D01*
Y029761D01*
X094314Y029759D01*
Y029757D01*
X094314Y029754D01*
X094312Y029748D01*
X09431Y02974D01*
X094307Y029732D01*
X094303Y029724D01*
X0943Y02972D01*
X094297Y029717D01*
X094297Y029716D01*
X094297Y029716D01*
X094296Y029715D01*
X094294Y029714D01*
X094293Y029712D01*
X09429Y02971D01*
X094288Y029708D01*
X094285Y029707D01*
X094282Y029704D01*
X094277Y029703D01*
X094273Y029701D01*
X094269Y029699D01*
X094264Y029697D01*
X094259Y029695D01*
X094253Y029694D01*
X094247Y029693D01*
X094247D01*
X094247Y029693D01*
X09425Y029691D01*
X094253Y029689D01*
X094256Y029687D01*
X094261Y029683D01*
X094265Y02968D01*
X09427Y029676D01*
X094274Y029671D01*
X094275Y029671D01*
X094276Y029669D01*
X094279Y029666D01*
X094282Y029662D01*
X094286Y029656D01*
X094289Y029653D01*
X094291Y029649D01*
X094294Y029645D01*
X094297Y02964D01*
X0943Y029635D01*
X094304Y02963D01*
X094335Y02958D01*
X094273D01*
X094236Y029636D01*
X094236Y029636D01*
X094235Y029637D01*
X094234Y029639D01*
X094233Y02964D01*
X094231Y029643D01*
X094229Y029646D01*
X094225Y029651D01*
X09422Y029658D01*
X094216Y029664D01*
X094212Y02967D01*
X09421Y029671D01*
X094209Y029673D01*
X094208Y029674D01*
X094208Y029674D01*
X094206Y029676D01*
X094204Y029678D01*
X094202Y029679D01*
X094199Y029681D01*
X094196Y029683D01*
X094193Y029684D01*
X094193D01*
X094192Y029684D01*
X09419Y029685D01*
X094187Y029685D01*
X094183Y029686D01*
X094179Y029687D01*
X094173Y029687D01*
X094157D01*
Y02958D01*
X094105D01*
Y029836D01*
X09422D01*
X094224Y029836D01*
D02*
G37*
G36*
X098224Y030512D02*
X098131D01*
X098123Y030469D01*
X098124D01*
X098124Y030469D01*
X098126Y03047D01*
X09813Y030471D01*
X098134Y030473D01*
X098139Y030475D01*
X098144Y030476D01*
X098151Y030477D01*
X098157Y030477D01*
X09816D01*
X098162Y030477D01*
X098165Y030476D01*
X098168Y030476D01*
X098172Y030475D01*
X098176Y030474D01*
X098185Y030471D01*
X098189Y030469D01*
X098194Y030467D01*
X098199Y030464D01*
X098204Y030461D01*
X098208Y030457D01*
X098212Y030453D01*
X098213Y030453D01*
X098214Y030452D01*
X098215Y030451D01*
X098216Y030449D01*
X098218Y030446D01*
X09822Y030444D01*
X098222Y03044D01*
X098224Y030436D01*
X098226Y030432D01*
X098228Y030428D01*
X09823Y030422D01*
X098232Y030417D01*
X098233Y030411D01*
X098234Y030405D01*
X098235Y030398D01*
X098235Y030391D01*
Y030391D01*
Y03039D01*
Y030388D01*
X098235Y030386D01*
Y030383D01*
X098234Y03038D01*
X098234Y030376D01*
X098233Y030372D01*
X098231Y030364D01*
X098228Y030354D01*
X098225Y030349D01*
X098223Y030344D01*
X09822Y030339D01*
X098217Y030334D01*
X098216Y030334D01*
X098216Y030333D01*
X098214Y030331D01*
X098212Y030329D01*
X09821Y030327D01*
X098207Y030324D01*
X098203Y030321D01*
X098199Y030318D01*
X098194Y030314D01*
X098189Y030311D01*
X098183Y030308D01*
X098177Y030306D01*
X09817Y030304D01*
X098163Y030302D01*
X098155Y030301D01*
X098147Y030301D01*
X098144D01*
X098141Y030301D01*
X098138Y030301D01*
X098135Y030302D01*
X098131Y030302D01*
X098127Y030303D01*
X098118Y030305D01*
X098108Y030309D01*
X098103Y030311D01*
X098098Y030313D01*
X098094Y030316D01*
X098089Y03032D01*
X098089Y03032D01*
X098088Y03032D01*
X098087Y030321D01*
X098086Y030323D01*
X098084Y030325D01*
X098082Y030327D01*
X09808Y03033D01*
X098078Y030333D01*
X098075Y030337D01*
X098073Y03034D01*
X098069Y030349D01*
X098065Y030359D01*
X098064Y030365D01*
X098063Y030371D01*
X098112Y030376D01*
Y030375D01*
X098112Y030373D01*
X098113Y03037D01*
X098114Y030366D01*
X098115Y030362D01*
X098118Y030358D01*
X098121Y030354D01*
X098124Y03035D01*
X098124Y030349D01*
X098126Y030348D01*
X098128Y030347D01*
X098131Y030345D01*
X098134Y030343D01*
X098138Y030341D01*
X098143Y03034D01*
X098148Y03034D01*
X098149D01*
X098151Y03034D01*
X098154Y030341D01*
X098157Y030341D01*
X098161Y030343D01*
X098166Y030345D01*
X09817Y030348D01*
X098174Y030352D01*
X098175Y030353D01*
X098176Y030355D01*
X098178Y030358D01*
X09818Y030362D01*
X098182Y030367D01*
X098184Y030374D01*
X098185Y030381D01*
X098185Y03039D01*
Y030391D01*
Y030391D01*
Y030392D01*
Y030394D01*
X098185Y030398D01*
X098184Y030404D01*
X098182Y030409D01*
X098181Y030415D01*
X098178Y030421D01*
X098174Y030426D01*
X098174Y030426D01*
X098172Y030428D01*
X09817Y030429D01*
X098167Y030432D01*
X098163Y030434D01*
X098158Y030436D01*
X098152Y030438D01*
X098147Y030438D01*
X098144D01*
X098143Y030438D01*
X098139Y030437D01*
X098134Y030436D01*
X098128Y030434D01*
X098122Y03043D01*
X098118Y030428D01*
X098115Y030425D01*
X098112Y030422D01*
X098108Y030419D01*
X098069Y030425D01*
X098094Y030558D01*
X098224D01*
Y030512D01*
D02*
G37*
G36*
X097934Y030561D02*
X097938D01*
X097942Y030561D01*
X097947D01*
X097956Y03056D01*
X097966Y030559D01*
X097976Y030557D01*
X09798Y030556D01*
X097983Y030555D01*
X097984D01*
X097984Y030554D01*
X097986Y030553D01*
X09799Y030551D01*
X097994Y030549D01*
X097999Y030545D01*
X098004Y030541D01*
X098009Y030536D01*
X098013Y03053D01*
Y030529D01*
X098013Y030529D01*
X098014Y030528D01*
X098015Y030527D01*
X098017Y030523D01*
X098019Y030518D01*
X098021Y030512D01*
X098023Y030506D01*
X098024Y030498D01*
X098024Y03049D01*
Y030489D01*
Y030489D01*
Y030487D01*
X098024Y030485D01*
Y030482D01*
X098024Y03048D01*
X098022Y030473D01*
X09802Y030465D01*
X098017Y030458D01*
X098013Y030449D01*
X09801Y030446D01*
X098007Y030442D01*
X098007Y030442D01*
X098007Y030441D01*
X098006Y03044D01*
X098004Y030439D01*
X098003Y030438D01*
X098Y030436D01*
X097998Y030434D01*
X097995Y030432D01*
X097992Y03043D01*
X097987Y030428D01*
X097983Y030426D01*
X097979Y030424D01*
X097974Y030422D01*
X097969Y030421D01*
X097963Y030419D01*
X097957Y030418D01*
X097957D01*
X097957Y030418D01*
X09796Y030417D01*
X097963Y030415D01*
X097966Y030412D01*
X097971Y030409D01*
X097975Y030405D01*
X09798Y030401D01*
X097984Y030397D01*
X097985Y030397D01*
X097986Y030395D01*
X097989Y030392D01*
X097992Y030387D01*
X097996Y030382D01*
X097999Y030378D01*
X098001Y030374D01*
X098004Y03037D01*
X098007Y030366D01*
X09801Y030361D01*
X098014Y030355D01*
X098045Y030306D01*
X097983D01*
X097946Y030361D01*
X097946Y030361D01*
X097945Y030362D01*
X097944Y030364D01*
X097943Y030366D01*
X097941Y030368D01*
X097939Y030371D01*
X097935Y030377D01*
X09793Y030384D01*
X097926Y030389D01*
X097922Y030395D01*
X09792Y030397D01*
X097919Y030399D01*
X097918Y030399D01*
X097918Y0304D01*
X097916Y030401D01*
X097914Y030403D01*
X097912Y030405D01*
X097909Y030407D01*
X097906Y030408D01*
X097903Y030409D01*
X097903D01*
X097902Y03041D01*
X0979Y030411D01*
X097897Y030411D01*
X097893Y030412D01*
X097889Y030412D01*
X097883Y030412D01*
X097867D01*
Y030306D01*
X097815D01*
Y030562D01*
X09793D01*
X097934Y030561D01*
D02*
G37*
G36*
X098557Y028455D02*
X098508D01*
Y02864D01*
X098507Y02864D01*
X098507Y028639D01*
X098505Y028638D01*
X098503Y028636D01*
X0985Y028634D01*
X098497Y028632D01*
X098494Y028629D01*
X09849Y028626D01*
X098485Y028623D01*
X09848Y02862D01*
X098475Y028617D01*
X09847Y028614D01*
X098458Y028609D01*
X098444Y028603D01*
Y028648D01*
X098445D01*
X098445Y028648D01*
X098446Y028649D01*
X098448Y028649D01*
X098451Y028651D01*
X098457Y028653D01*
X098463Y028656D01*
X09847Y02866D01*
X098478Y028665D01*
X098486Y028671D01*
X098486Y028671D01*
X098487Y028672D01*
X098488Y028673D01*
X09849Y028674D01*
X098494Y028678D01*
X098498Y028683D01*
X098503Y028689D01*
X098508Y028696D01*
X098513Y028704D01*
X098517Y028713D01*
X098557D01*
Y028455D01*
D02*
G37*
G36*
X098277Y028498D02*
X098406D01*
Y028455D01*
X098225D01*
Y028709D01*
X098277D01*
Y028498D01*
D02*
G37*
G36*
X100608Y026674D02*
X100558D01*
Y026859D01*
X100558Y026859D01*
X100557Y026858D01*
X100556Y026857D01*
X100554Y026855D01*
X100551Y026853D01*
X100548Y026851D01*
X100544Y026848D01*
X10054Y026845D01*
X100536Y026842D01*
X100531Y026839D01*
X100526Y026836D01*
X10052Y026833D01*
X100508Y026827D01*
X100495Y026822D01*
Y026867D01*
X100496D01*
X100496Y026867D01*
X100497Y026867D01*
X100498Y026868D01*
X100502Y02687D01*
X100507Y026872D01*
X100514Y026875D01*
X100521Y026879D01*
X100528Y026884D01*
X100537Y02689D01*
X100537Y02689D01*
X100538Y026891D01*
X100539Y026892D01*
X10054Y026893D01*
X100544Y026897D01*
X100549Y026902D01*
X100554Y026908D01*
X100559Y026915D01*
X100564Y026923D01*
X100568Y026931D01*
X100608D01*
Y026674D01*
D02*
G37*
G36*
X10034Y02693D02*
X100347Y026929D01*
X100355Y026929D01*
X100363Y026928D01*
X100371Y026927D01*
X100378Y026925D01*
X100378D01*
X100379Y026924D01*
X10038Y026924D01*
X100382Y026924D01*
X100386Y026922D01*
X100391Y026919D01*
X100397Y026916D01*
X100404Y026912D01*
X10041Y026907D01*
X100416Y026901D01*
X100417D01*
X100417Y0269D01*
X100419Y026898D01*
X100422Y026894D01*
X100425Y02689D01*
X100429Y026884D01*
X100433Y026877D01*
X100437Y026869D01*
X100441Y02686D01*
Y026859D01*
X100441Y026859D01*
X100442Y026857D01*
X100442Y026855D01*
X100443Y026853D01*
X100443Y02685D01*
X100444Y026847D01*
X100445Y026843D01*
X100446Y026839D01*
X100447Y026834D01*
X100447Y026829D01*
X100448Y026824D01*
X100449Y026812D01*
X100449Y026799D01*
Y026799D01*
Y026798D01*
Y026796D01*
Y026794D01*
X100449Y026791D01*
Y026788D01*
X100449Y026785D01*
X100448Y026781D01*
X100447Y026772D01*
X100446Y026763D01*
X100444Y026754D01*
X100441Y026745D01*
Y026745D01*
X100441Y026744D01*
X10044Y026742D01*
X100439Y02674D01*
X100439Y026738D01*
X100437Y026735D01*
X100434Y026729D01*
X10043Y026722D01*
X100426Y026714D01*
X10042Y026707D01*
X100414Y026699D01*
X100413Y026699D01*
X100411Y026697D01*
X100408Y026695D01*
X100404Y026692D01*
X100399Y026689D01*
X100393Y026685D01*
X100386Y026682D01*
X100377Y026679D01*
X100377D01*
X100377Y026679D01*
X100376D01*
X100375Y026678D01*
X10037Y026678D01*
X100365Y026677D01*
X100359Y026675D01*
X100351Y026675D01*
X100342Y026674D01*
X100332Y026674D01*
X100235D01*
Y02693D01*
X100337D01*
X10034Y02693D01*
D02*
G37*
G36*
X096542Y030566D02*
X096546Y030566D01*
X096551Y030565D01*
X096556Y030564D01*
X096562Y030563D01*
X096567Y030562D01*
X096574Y03056D01*
X09658Y030557D01*
X096587Y030555D01*
X096593Y030552D01*
X096599Y030548D01*
X096605Y030543D01*
X096611Y030539D01*
X096611D01*
X096612Y030538D01*
X096613Y030537D01*
X096614Y030536D01*
X096615Y030534D01*
X096617Y030532D01*
X096621Y030526D01*
X096625Y03052D01*
X096629Y030512D01*
X096633Y030502D01*
X096637Y030492D01*
X096586Y030479D01*
Y03048D01*
X096586Y03048D01*
Y030481D01*
X096585Y030483D01*
X096584Y030486D01*
X096582Y030491D01*
X096579Y030496D01*
X096576Y030501D01*
X096572Y030506D01*
X096567Y03051D01*
X096566Y030511D01*
X096564Y030512D01*
X096561Y030514D01*
X096557Y030516D01*
X096552Y030519D01*
X096546Y03052D01*
X096539Y030522D01*
X096532Y030522D01*
X096529D01*
X096527Y030522D01*
X096525Y030522D01*
X096522Y030521D01*
X096516Y03052D01*
X096508Y030517D01*
X096501Y030513D01*
X096496Y030511D01*
X096493Y030509D01*
X096489Y030505D01*
X096486Y030502D01*
Y030501D01*
X096485Y030501D01*
X096484Y030499D01*
X096483Y030498D01*
X096482Y030495D01*
X09648Y030493D01*
X096479Y030489D01*
X096477Y030486D01*
X096475Y030481D01*
X096474Y030476D01*
X096472Y030471D01*
X096471Y030465D01*
X09647Y030458D01*
X096469Y030451D01*
X096469Y030444D01*
X096468Y030435D01*
Y030435D01*
Y030433D01*
Y03043D01*
X096469Y030427D01*
Y030423D01*
X096469Y030418D01*
X09647Y030414D01*
X096471Y030408D01*
X096473Y030397D01*
X096476Y030385D01*
X096478Y03038D01*
X09648Y030374D01*
X096483Y03037D01*
X096486Y030365D01*
X096486Y030365D01*
X096486Y030365D01*
X096488Y030364D01*
X096489Y030362D01*
X096493Y030359D01*
X096498Y030355D01*
X096504Y030351D01*
X096512Y030348D01*
X096521Y030346D01*
X096526Y030345D01*
X096531Y030345D01*
X096533D01*
X096534Y030345D01*
X096538Y030346D01*
X096543Y030347D01*
X096548Y030348D01*
X096554Y030351D01*
X09656Y030354D01*
X096566Y030358D01*
X096567Y030359D01*
X096569Y030361D01*
X096571Y030364D01*
X096574Y030368D01*
X096578Y030374D01*
X096581Y030381D01*
X096585Y030389D01*
X096587Y030399D01*
X096638Y030384D01*
Y030384D01*
X096637Y030382D01*
X096637Y03038D01*
X096636Y030377D01*
X096634Y030374D01*
X096633Y03037D01*
X096631Y030365D01*
X096629Y03036D01*
X096623Y03035D01*
X096617Y03034D01*
X096609Y03033D01*
X096604Y030325D01*
X096599Y030321D01*
X096599Y030321D01*
X096598Y030321D01*
X096597Y03032D01*
X096594Y030318D01*
X096592Y030317D01*
X096589Y030315D01*
X096585Y030313D01*
X096581Y030311D01*
X096576Y030309D01*
X096571Y030307D01*
X096565Y030306D01*
X096559Y030304D01*
X096553Y030303D01*
X096546Y030302D01*
X096539Y030301D01*
X096531Y030301D01*
X096529D01*
X096526Y030301D01*
X096523Y030302D01*
X096519Y030302D01*
X096513Y030303D01*
X096508Y030304D01*
X096502Y030306D01*
X096495Y030307D01*
X096489Y03031D01*
X096482Y030313D01*
X096475Y030316D01*
X096468Y03032D01*
X096461Y030324D01*
X096454Y03033D01*
X096448Y030336D01*
X096447Y030336D01*
X096446Y030337D01*
X096445Y03034D01*
X096442Y030342D01*
X09644Y030346D01*
X096437Y03035D01*
X096434Y030355D01*
X096431Y030361D01*
X096428Y030367D01*
X096425Y030374D01*
X096422Y030382D01*
X09642Y030391D01*
X096418Y0304D01*
X096417Y03041D01*
X096415Y03042D01*
X096415Y030431D01*
Y030432D01*
Y030432D01*
Y030434D01*
X096415Y030438D01*
Y030442D01*
X096416Y030447D01*
X096417Y030454D01*
X096418Y03046D01*
X096419Y030468D01*
X096421Y030476D01*
X096423Y030484D01*
X096426Y030492D01*
X096429Y030501D01*
X096433Y030509D01*
X096437Y030516D01*
X096442Y030524D01*
X096448Y030531D01*
X096448Y030531D01*
X096449Y030532D01*
X096451Y030534D01*
X096454Y030536D01*
X096457Y030539D01*
X096461Y030542D01*
X096466Y030545D01*
X096471Y030549D01*
X096477Y030552D01*
X096483Y030555D01*
X096491Y030558D01*
X096498Y030561D01*
X096507Y030563D01*
X096515Y030565D01*
X096525Y030566D01*
X096535Y030566D01*
X096539D01*
X096542Y030566D01*
D02*
G37*
G36*
X096758Y030563D02*
X096761Y030562D01*
X096765Y030562D01*
X096769Y030561D01*
X096773Y03056D01*
X096782Y030557D01*
X096787Y030556D01*
X096792Y030553D01*
X096797Y03055D01*
X096801Y030547D01*
X096806Y030544D01*
X09681Y03054D01*
X096811Y030539D01*
X096811Y030539D01*
X096812Y030538D01*
X096813Y030536D01*
X096816Y030533D01*
X096819Y030528D01*
X096823Y030521D01*
X096825Y030514D01*
X096828Y030506D01*
X096828Y030502D01*
X096828Y030497D01*
Y030497D01*
Y030496D01*
X096828Y030494D01*
X096828Y030492D01*
X096827Y030489D01*
X096826Y030485D01*
X096825Y030482D01*
X096824Y030478D01*
X096822Y030473D01*
X096819Y030469D01*
X096816Y030465D01*
X096813Y03046D01*
X096808Y030456D01*
X096804Y030451D01*
X096798Y030447D01*
X096791Y030443D01*
X096792D01*
X096792Y030443D01*
X096794D01*
X096795Y030442D01*
X096799Y030441D01*
X096804Y030439D01*
X096809Y030436D01*
X096815Y030432D01*
X096821Y030427D01*
X096826Y030422D01*
X096827Y030421D01*
X096829Y030419D01*
X096831Y030415D01*
X096833Y030411D01*
X096836Y030405D01*
X096838Y030398D01*
X096839Y030391D01*
X09684Y030382D01*
Y030382D01*
Y030381D01*
Y030379D01*
X096839Y030377D01*
X096839Y030374D01*
X096838Y03037D01*
X096838Y030366D01*
X096837Y030362D01*
X096834Y030353D01*
X096832Y030348D01*
X096829Y030343D01*
X096826Y030338D01*
X096823Y030334D01*
X096819Y030329D01*
X096815Y030324D01*
X096815Y030324D01*
X096814Y030323D01*
X096812Y030322D01*
X096811Y030321D01*
X096808Y030319D01*
X096805Y030317D01*
X096802Y030315D01*
X096798Y030313D01*
X096794Y03031D01*
X096789Y030308D01*
X096784Y030306D01*
X096779Y030304D01*
X096773Y030303D01*
X096767Y030302D01*
X09676Y030301D01*
X096754Y030301D01*
X09675D01*
X096748Y030301D01*
X096745Y030301D01*
X096741Y030302D01*
X096738Y030303D01*
X096733Y030303D01*
X096724Y030306D01*
X096715Y030309D01*
X09671Y030311D01*
X096705Y030314D01*
X0967Y030317D01*
X096696Y030321D01*
X096695Y030321D01*
X096695Y030322D01*
X096694Y030323D01*
X096692Y030324D01*
X09669Y030326D01*
X096688Y030329D01*
X096686Y030331D01*
X096684Y030335D01*
X096682Y030338D01*
X096679Y030342D01*
X096675Y030351D01*
X096672Y030361D01*
X09667Y030367D01*
X09667Y030373D01*
X096717Y030379D01*
Y030378D01*
Y030378D01*
X096717Y030376D01*
X096718Y030372D01*
X096719Y030368D01*
X096721Y030364D01*
X096723Y030359D01*
X096726Y030355D01*
X096729Y030351D01*
X09673Y03035D01*
X096731Y030349D01*
X096733Y030348D01*
X096736Y030346D01*
X09674Y030344D01*
X096744Y030343D01*
X096748Y030342D01*
X096753Y030341D01*
X096754D01*
X096756Y030342D01*
X096758Y030342D01*
X096762Y030343D01*
X096766Y030344D01*
X09677Y030346D01*
X096775Y030349D01*
X096779Y030353D01*
X096779Y030353D01*
X096781Y030355D01*
X096782Y030358D01*
X096784Y030361D01*
X096786Y030365D01*
X096788Y030371D01*
X096789Y030377D01*
X096789Y030384D01*
Y030385D01*
Y030385D01*
Y030387D01*
X096789Y030391D01*
X096788Y030395D01*
X096787Y0304D01*
X096785Y030405D01*
X096782Y030409D01*
X096779Y030414D01*
X096779Y030414D01*
X096777Y030416D01*
X096775Y030418D01*
X096772Y030419D01*
X096769Y030422D01*
X096765Y030423D01*
X09676Y030425D01*
X096755Y030425D01*
X096751D01*
X096749Y030425D01*
X096745Y030424D01*
X096741Y030424D01*
X096737Y030422D01*
X096733Y030421D01*
X096738Y030461D01*
X096741D01*
X096745Y030461D01*
X096749Y030462D01*
X096754Y030463D01*
X096759Y030464D01*
X096764Y030466D01*
X096768Y030469D01*
X096769Y03047D01*
X09677Y030471D01*
X096772Y030473D01*
X096774Y030476D01*
X096776Y030479D01*
X096778Y030483D01*
X096779Y030488D01*
X096779Y030494D01*
Y030495D01*
Y030496D01*
X096779Y030498D01*
X096778Y030501D01*
X096777Y030505D01*
X096776Y030508D01*
X096774Y030512D01*
X096771Y030515D01*
X096771Y030515D01*
X09677Y030516D01*
X096768Y030517D01*
X096766Y030519D01*
X096763Y03052D01*
X09676Y030521D01*
X096755Y030522D01*
X096751Y030522D01*
X096748D01*
X096746Y030522D01*
X096743Y030521D01*
X09674Y03052D01*
X096736Y030519D01*
X096733Y030516D01*
X096729Y030513D01*
X096729Y030513D01*
X096728Y030512D01*
X096726Y03051D01*
X096724Y030507D01*
X096723Y030503D01*
X096721Y030499D01*
X09672Y030494D01*
X096718Y030488D01*
X096673Y030495D01*
Y030496D01*
X096674Y030496D01*
Y030498D01*
X096674Y030499D01*
X096675Y030503D01*
X096677Y030509D01*
X096679Y030515D01*
X096681Y030521D01*
X096684Y030527D01*
X096687Y030533D01*
X096688Y030533D01*
X096689Y030535D01*
X096691Y030538D01*
X096694Y030541D01*
X096698Y030544D01*
X096703Y030548D01*
X096708Y030552D01*
X096714Y030555D01*
X096714D01*
X096715Y030555D01*
X096717Y030556D01*
X096721Y030557D01*
X096725Y030559D01*
X096731Y03056D01*
X096737Y030562D01*
X096744Y030563D01*
X096752Y030563D01*
X096755D01*
X096758Y030563D01*
D02*
G37*
G36*
X100092Y025764D02*
X100096Y025764D01*
X100101Y025763D01*
X100106Y025763D01*
X100112Y025761D01*
X100117Y02576D01*
X100124Y025758D01*
X10013Y025756D01*
X100137Y025753D01*
X100143Y02575D01*
X100149Y025746D01*
X100155Y025742D01*
X100161Y025737D01*
X100161D01*
X100162Y025736D01*
X100163Y025735D01*
X100164Y025734D01*
X100165Y025732D01*
X100167Y02573D01*
X100171Y025725D01*
X100175Y025718D01*
X100179Y02571D01*
X100183Y025701D01*
X100187Y02569D01*
X100136Y025678D01*
Y025678D01*
X100136Y025679D01*
Y02568D01*
X100135Y025681D01*
X100134Y025684D01*
X100132Y025689D01*
X100129Y025694D01*
X100126Y025699D01*
X100122Y025704D01*
X100117Y025709D01*
X100116Y025709D01*
X100114Y025711D01*
X100111Y025713D01*
X100107Y025715D01*
X100102Y025717D01*
X100096Y025719D01*
X100089Y02572D01*
X100082Y025721D01*
X100079D01*
X100077Y02572D01*
X100075Y02572D01*
X100072Y02572D01*
X100066Y025718D01*
X100058Y025716D01*
X100051Y025712D01*
X100046Y02571D01*
X100043Y025707D01*
X100039Y025704D01*
X100036Y0257D01*
Y0257D01*
X100035Y025699D01*
X100034Y025698D01*
X100033Y025696D01*
X100032Y025694D01*
X10003Y025691D01*
X100029Y025688D01*
X100027Y025684D01*
X100025Y02568D01*
X100024Y025675D01*
X100022Y025669D01*
X100021Y025663D01*
X10002Y025657D01*
X100019Y02565D01*
X100019Y025642D01*
X100018Y025633D01*
Y025633D01*
Y025631D01*
Y025629D01*
X100019Y025626D01*
Y025622D01*
X100019Y025617D01*
X10002Y025612D01*
X100021Y025606D01*
X100023Y025595D01*
X100026Y025583D01*
X100028Y025578D01*
X10003Y025573D01*
X100033Y025568D01*
X100036Y025564D01*
X100036Y025564D01*
X100036Y025563D01*
X100038Y025562D01*
X100039Y025561D01*
X100043Y025558D01*
X100048Y025554D01*
X100054Y02555D01*
X100062Y025547D01*
X100071Y025544D01*
X100076Y025544D01*
X100081Y025544D01*
X100083D01*
X100084Y025544D01*
X100088Y025544D01*
X100093Y025545D01*
X100098Y025547D01*
X100104Y025549D01*
X10011Y025552D01*
X100116Y025556D01*
X100117Y025557D01*
X100119Y025559D01*
X100121Y025562D01*
X100124Y025566D01*
X100128Y025572D01*
X100131Y025579D01*
X100134Y025588D01*
X100137Y025598D01*
X100188Y025582D01*
Y025582D01*
X100187Y025581D01*
X100187Y025578D01*
X100186Y025575D01*
X100184Y025572D01*
X100183Y025568D01*
X100181Y025564D01*
X100179Y025559D01*
X100173Y025549D01*
X100167Y025538D01*
X100159Y025528D01*
X100154Y025524D01*
X100149Y02552D01*
X100149Y025519D01*
X100148Y025519D01*
X100147Y025518D01*
X100144Y025517D01*
X100142Y025515D01*
X100139Y025514D01*
X100135Y025512D01*
X100131Y02551D01*
X100126Y025508D01*
X100121Y025506D01*
X100115Y025504D01*
X100109Y025503D01*
X100103Y025501D01*
X100096Y0255D01*
X100089Y0255D01*
X100081Y025499D01*
X100079D01*
X100076Y0255D01*
X100073Y0255D01*
X100069Y025501D01*
X100063Y025501D01*
X100058Y025502D01*
X100052Y025504D01*
X100045Y025506D01*
X100039Y025508D01*
X100032Y025511D01*
X100025Y025514D01*
X100018Y025518D01*
X100011Y025523D01*
X100004Y025528D01*
X099998Y025534D01*
X099997Y025535D01*
X099996Y025536D01*
X099995Y025538D01*
X099992Y025541D01*
X09999Y025544D01*
X099987Y025548D01*
X099984Y025554D01*
X099981Y025559D01*
X099978Y025566D01*
X099975Y025573D01*
X099972Y025581D01*
X09997Y025589D01*
X099968Y025598D01*
X099967Y025608D01*
X099965Y025619D01*
X099965Y02563D01*
Y02563D01*
Y02563D01*
Y025633D01*
X099965Y025636D01*
Y02564D01*
X099966Y025646D01*
X099967Y025652D01*
X099968Y025659D01*
X099969Y025666D01*
X099971Y025674D01*
X099973Y025682D01*
X099976Y02569D01*
X099979Y025699D01*
X099983Y025707D01*
X099987Y025715D01*
X099992Y025722D01*
X099998Y025729D01*
X099998Y02573D01*
X099999Y025731D01*
X100001Y025733D01*
X100004Y025735D01*
X100007Y025737D01*
X100011Y02574D01*
X100016Y025744D01*
X100021Y025747D01*
X100027Y02575D01*
X100033Y025754D01*
X100041Y025757D01*
X100048Y025759D01*
X100057Y025761D01*
X100065Y025763D01*
X100075Y025764D01*
X100085Y025765D01*
X100089D01*
X100092Y025764D01*
D02*
G37*
G36*
X100312Y025761D02*
X100315Y025761D01*
X100319Y02576D01*
X100323Y02576D01*
X100328Y025759D01*
X100337Y025756D01*
X100347Y025753D01*
X100352Y02575D01*
X100357Y025748D01*
X100361Y025744D01*
X100365Y025741D01*
X100366Y02574D01*
X100366Y02574D01*
X100367Y025739D01*
X100369Y025737D01*
X100371Y025735D01*
X100372Y025733D01*
X100374Y02573D01*
X100376Y025727D01*
X10038Y025719D01*
X100384Y025711D01*
X100385Y025706D01*
X100386Y025701D01*
X100387Y025695D01*
X100387Y02569D01*
Y025689D01*
Y025687D01*
X100387Y025683D01*
X100386Y025679D01*
X100386Y025674D01*
X100385Y025669D01*
X100383Y025663D01*
X100381Y025657D01*
X100381Y025656D01*
X10038Y025654D01*
X100378Y025651D01*
X100376Y025647D01*
X100374Y025642D01*
X10037Y025636D01*
X100366Y02563D01*
X100361Y025624D01*
X100361Y025624D01*
X100359Y025622D01*
X100357Y025619D01*
X100354Y025616D01*
X100349Y025611D01*
X100344Y025605D01*
X100337Y025599D01*
X100329Y025591D01*
X100329Y025591D01*
X100328Y025591D01*
X100327Y025589D01*
X100325Y025588D01*
X100321Y025584D01*
X100317Y02558D01*
X100312Y025575D01*
X100307Y02557D01*
X100302Y025566D01*
X100301Y025564D01*
X1003Y025563D01*
X100299Y025562D01*
X100298Y025562D01*
X100297Y02556D01*
X100296Y025558D01*
X100292Y025554D01*
X10029Y025549D01*
X100387D01*
Y025504D01*
X100215D01*
Y025504D01*
Y025505D01*
X100216Y025507D01*
X100216Y025508D01*
X100216Y025511D01*
X100217Y025513D01*
X100218Y02552D01*
X10022Y025527D01*
X100223Y025535D01*
X100227Y025544D01*
X100232Y025553D01*
Y025553D01*
X100233Y025554D01*
X100233Y025555D01*
X100235Y025557D01*
X100236Y025559D01*
X100238Y025562D01*
X100241Y025565D01*
X100244Y025569D01*
X100247Y025573D01*
X100251Y025578D01*
X100256Y025583D01*
X100261Y025589D01*
X100267Y025594D01*
X100273Y025601D01*
X10028Y025607D01*
X100287Y025614D01*
X100287Y025615D01*
X100288Y025616D01*
X10029Y025617D01*
X100292Y025619D01*
X100295Y025622D01*
X100298Y025625D01*
X100305Y025631D01*
X100311Y025638D01*
X100318Y025645D01*
X100321Y025648D01*
X100324Y025652D01*
X100326Y025654D01*
X100328Y025656D01*
X100328Y025657D01*
X100329Y025659D01*
X100331Y025662D01*
X100333Y025666D01*
X100335Y02567D01*
X100337Y025676D01*
X100338Y025681D01*
X100338Y025686D01*
Y025687D01*
Y025687D01*
Y025689D01*
X100338Y025692D01*
X100337Y025696D01*
X100336Y0257D01*
X100334Y025704D01*
X100332Y025708D01*
X100329Y025712D01*
X100329Y025712D01*
X100328Y025713D01*
X100325Y025715D01*
X100323Y025716D01*
X100319Y025718D01*
X100315Y025719D01*
X10031Y02572D01*
X100305Y025721D01*
X100302D01*
X100299Y02572D01*
X100296Y02572D01*
X100292Y025719D01*
X100288Y025717D01*
X100284Y025714D01*
X10028Y025712D01*
X10028Y025711D01*
X100278Y02571D01*
X100277Y025707D01*
X100275Y025704D01*
X100274Y0257D01*
X100272Y025694D01*
X100271Y025688D01*
X10027Y025681D01*
X100221Y025686D01*
Y025686D01*
X100221Y025687D01*
Y025689D01*
X100222Y025692D01*
X100223Y025696D01*
X100224Y025699D01*
X100225Y025703D01*
X100226Y025708D01*
X10023Y025717D01*
X100234Y025727D01*
X100237Y025732D01*
X10024Y025736D01*
X100244Y02574D01*
X100248Y025744D01*
X100248Y025744D01*
X100249Y025744D01*
X10025Y025745D01*
X100252Y025747D01*
X100254Y025748D01*
X100257Y025749D01*
X10026Y025751D01*
X100264Y025753D01*
X100268Y025754D01*
X100273Y025756D01*
X100282Y025759D01*
X100294Y025761D01*
X1003Y025761D01*
X100306Y025761D01*
X10031D01*
X100312Y025761D01*
D02*
G37*
G36*
X097342Y025806D02*
X097346Y025805D01*
X097351Y025804D01*
X097356Y025804D01*
X097362Y025803D01*
X097367Y025801D01*
X097374Y025799D01*
X09738Y025797D01*
X097387Y025794D01*
X097393Y025791D01*
X097399Y025787D01*
X097405Y025783D01*
X097411Y025778D01*
X097411D01*
X097412Y025777D01*
X097413Y025776D01*
X097414Y025775D01*
X097415Y025773D01*
X097417Y025771D01*
X097421Y025766D01*
X097425Y025759D01*
X097429Y025751D01*
X097433Y025742D01*
X097437Y025731D01*
X097386Y025719D01*
Y025719D01*
X097386Y02572D01*
Y025721D01*
X097385Y025722D01*
X097384Y025726D01*
X097382Y02573D01*
X097379Y025735D01*
X097376Y02574D01*
X097372Y025746D01*
X097367Y02575D01*
X097366Y02575D01*
X097364Y025752D01*
X097361Y025754D01*
X097357Y025756D01*
X097352Y025758D01*
X097346Y02576D01*
X097339Y025761D01*
X097332Y025762D01*
X097329D01*
X097327Y025761D01*
X097325Y025761D01*
X097322Y025761D01*
X097316Y025759D01*
X097308Y025757D01*
X097301Y025753D01*
X097296Y025751D01*
X097293Y025748D01*
X097289Y025745D01*
X097286Y025741D01*
Y025741D01*
X097285Y02574D01*
X097284Y025739D01*
X097283Y025737D01*
X097282Y025735D01*
X09728Y025732D01*
X097279Y025729D01*
X097277Y025725D01*
X097275Y025721D01*
X097274Y025716D01*
X097272Y02571D01*
X097271Y025705D01*
X09727Y025698D01*
X097269Y025691D01*
X097269Y025683D01*
X097268Y025675D01*
Y025674D01*
Y025672D01*
Y02567D01*
X097269Y025667D01*
Y025663D01*
X097269Y025658D01*
X09727Y025653D01*
X097271Y025648D01*
X097273Y025636D01*
X097276Y025625D01*
X097278Y025619D01*
X09728Y025614D01*
X097283Y025609D01*
X097286Y025605D01*
X097286Y025605D01*
X097286Y025604D01*
X097288Y025603D01*
X097289Y025602D01*
X097293Y025599D01*
X097298Y025595D01*
X097304Y025591D01*
X097312Y025588D01*
X097321Y025585D01*
X097326Y025585D01*
X097331Y025585D01*
X097333D01*
X097334Y025585D01*
X097338Y025585D01*
X097343Y025586D01*
X097348Y025588D01*
X097354Y02559D01*
X09736Y025593D01*
X097366Y025598D01*
X097367Y025598D01*
X097369Y0256D01*
X097371Y025603D01*
X097374Y025608D01*
X097378Y025613D01*
X097381Y025621D01*
X097385Y025629D01*
X097387Y025639D01*
X097438Y025623D01*
Y025623D01*
X097437Y025622D01*
X097437Y025619D01*
X097436Y025616D01*
X097434Y025613D01*
X097433Y025609D01*
X097431Y025605D01*
X097429Y0256D01*
X097423Y02559D01*
X097417Y025579D01*
X097409Y025569D01*
X097404Y025565D01*
X097399Y025561D01*
X097399Y025561D01*
X097398Y02556D01*
X097397Y025559D01*
X097394Y025558D01*
X097392Y025556D01*
X097389Y025555D01*
X097385Y025553D01*
X097381Y025551D01*
X097376Y025549D01*
X097371Y025547D01*
X097365Y025545D01*
X097359Y025544D01*
X097353Y025542D01*
X097346Y025541D01*
X097339Y025541D01*
X097331Y025541D01*
X097329D01*
X097326Y025541D01*
X097323Y025541D01*
X097319Y025542D01*
X097313Y025542D01*
X097308Y025544D01*
X097302Y025545D01*
X097295Y025547D01*
X097289Y025549D01*
X097282Y025552D01*
X097275Y025555D01*
X097268Y025559D01*
X097261Y025564D01*
X097254Y025569D01*
X097248Y025575D01*
X097247Y025576D01*
X097246Y025577D01*
X097245Y025579D01*
X097242Y025582D01*
X09724Y025585D01*
X097237Y025589D01*
X097234Y025595D01*
X097231Y025601D01*
X097228Y025607D01*
X097225Y025614D01*
X097222Y025622D01*
X09722Y025631D01*
X097218Y025639D01*
X097217Y025649D01*
X097215Y02566D01*
X097215Y025671D01*
Y025671D01*
Y025672D01*
Y025674D01*
X097215Y025677D01*
Y025682D01*
X097216Y025687D01*
X097217Y025693D01*
X097218Y0257D01*
X097219Y025707D01*
X097221Y025715D01*
X097223Y025723D01*
X097226Y025732D01*
X097229Y02574D01*
X097233Y025748D01*
X097237Y025756D01*
X097242Y025763D01*
X097248Y02577D01*
X097248Y025771D01*
X097249Y025772D01*
X097251Y025774D01*
X097254Y025776D01*
X097257Y025779D01*
X097261Y025781D01*
X097266Y025785D01*
X097271Y025788D01*
X097277Y025791D01*
X097283Y025795D01*
X097291Y025798D01*
X097298Y0258D01*
X097307Y025803D01*
X097315Y025804D01*
X097325Y025806D01*
X097335Y025806D01*
X097339D01*
X097342Y025806D01*
D02*
G37*
G36*
X097597Y025545D02*
X097548D01*
Y02573D01*
X097547Y02573D01*
X097547Y025729D01*
X097545Y025728D01*
X097543Y025726D01*
X09754Y025724D01*
X097537Y025722D01*
X097534Y025719D01*
X09753Y025716D01*
X097525Y025713D01*
X09752Y02571D01*
X097515Y025707D01*
X09751Y025704D01*
X097498Y025699D01*
X097484Y025693D01*
Y025738D01*
X097485D01*
X097485Y025738D01*
X097486Y025739D01*
X097488Y025739D01*
X097491Y025741D01*
X097497Y025743D01*
X097503Y025746D01*
X09751Y02575D01*
X097518Y025755D01*
X097526Y025761D01*
X097526Y025761D01*
X097527Y025762D01*
X097528Y025763D01*
X09753Y025764D01*
X097534Y025768D01*
X097538Y025773D01*
X097543Y025779D01*
X097548Y025786D01*
X097553Y025794D01*
X097557Y025803D01*
X097597D01*
Y025545D01*
D02*
G37*
G36*
X098372Y027584D02*
X098376Y027584D01*
X098381Y027583D01*
X098386Y027583D01*
X098392Y027581D01*
X098397Y02758D01*
X098404Y027578D01*
X09841Y027576D01*
X098417Y027573D01*
X098423Y02757D01*
X098429Y027566D01*
X098435Y027562D01*
X098441Y027557D01*
X098441D01*
X098442Y027556D01*
X098443Y027555D01*
X098444Y027554D01*
X098445Y027552D01*
X098447Y02755D01*
X098451Y027545D01*
X098455Y027538D01*
X098459Y02753D01*
X098463Y027521D01*
X098467Y02751D01*
X098416Y027498D01*
Y027498D01*
X098416Y027499D01*
Y0275D01*
X098415Y027501D01*
X098414Y027504D01*
X098412Y027509D01*
X098409Y027514D01*
X098406Y027519D01*
X098402Y027524D01*
X098397Y027529D01*
X098396Y027529D01*
X098394Y027531D01*
X098391Y027533D01*
X098387Y027535D01*
X098382Y027537D01*
X098376Y027539D01*
X098369Y02754D01*
X098362Y027541D01*
X098359D01*
X098357Y02754D01*
X098355Y02754D01*
X098352Y02754D01*
X098346Y027538D01*
X098338Y027536D01*
X098331Y027532D01*
X098326Y02753D01*
X098323Y027527D01*
X098319Y027524D01*
X098316Y02752D01*
Y02752D01*
X098315Y027519D01*
X098314Y027518D01*
X098313Y027516D01*
X098312Y027514D01*
X09831Y027511D01*
X098309Y027508D01*
X098307Y027504D01*
X098305Y0275D01*
X098304Y027495D01*
X098302Y027489D01*
X098301Y027483D01*
X0983Y027477D01*
X098299Y02747D01*
X098299Y027462D01*
X098298Y027453D01*
Y027453D01*
Y027451D01*
Y027449D01*
X098299Y027446D01*
Y027442D01*
X098299Y027437D01*
X0983Y027432D01*
X098301Y027426D01*
X098303Y027415D01*
X098306Y027403D01*
X098308Y027398D01*
X09831Y027393D01*
X098313Y027388D01*
X098316Y027384D01*
X098316Y027384D01*
X098316Y027383D01*
X098318Y027382D01*
X098319Y027381D01*
X098323Y027378D01*
X098328Y027374D01*
X098334Y02737D01*
X098342Y027367D01*
X098351Y027364D01*
X098356Y027364D01*
X098361Y027364D01*
X098363D01*
X098364Y027364D01*
X098368Y027364D01*
X098373Y027365D01*
X098378Y027367D01*
X098384Y027369D01*
X09839Y027372D01*
X098396Y027376D01*
X098397Y027377D01*
X098399Y027379D01*
X098401Y027382D01*
X098404Y027386D01*
X098408Y027392D01*
X098411Y027399D01*
X098414Y027408D01*
X098417Y027418D01*
X098468Y027402D01*
Y027402D01*
X098467Y027401D01*
X098467Y027398D01*
X098466Y027395D01*
X098464Y027392D01*
X098463Y027388D01*
X098461Y027384D01*
X098459Y027379D01*
X098453Y027369D01*
X098447Y027358D01*
X098439Y027348D01*
X098434Y027344D01*
X098429Y02734D01*
X098429Y027339D01*
X098428Y027339D01*
X098427Y027338D01*
X098424Y027337D01*
X098422Y027335D01*
X098419Y027334D01*
X098415Y027332D01*
X098411Y02733D01*
X098406Y027328D01*
X098401Y027326D01*
X098395Y027324D01*
X098389Y027323D01*
X098383Y027321D01*
X098376Y02732D01*
X098369Y02732D01*
X098361Y02732D01*
X098359D01*
X098356Y02732D01*
X098353Y02732D01*
X098349Y027321D01*
X098343Y027321D01*
X098338Y027322D01*
X098332Y027324D01*
X098325Y027326D01*
X098319Y027328D01*
X098312Y027331D01*
X098305Y027334D01*
X098298Y027338D01*
X098291Y027343D01*
X098284Y027348D01*
X098278Y027354D01*
X098277Y027355D01*
X098276Y027356D01*
X098275Y027358D01*
X098272Y027361D01*
X09827Y027364D01*
X098267Y027368D01*
X098264Y027374D01*
X098261Y027379D01*
X098258Y027386D01*
X098255Y027393D01*
X098252Y027401D01*
X09825Y027409D01*
X098248Y027418D01*
X098247Y027428D01*
X098245Y027439D01*
X098245Y02745D01*
Y02745D01*
Y02745D01*
Y027453D01*
X098245Y027456D01*
Y02746D01*
X098246Y027466D01*
X098247Y027472D01*
X098248Y027479D01*
X098249Y027486D01*
X098251Y027494D01*
X098253Y027502D01*
X098256Y02751D01*
X098259Y027519D01*
X098263Y027527D01*
X098267Y027535D01*
X098272Y027542D01*
X098278Y027549D01*
X098278Y02755D01*
X098279Y027551D01*
X098281Y027553D01*
X098284Y027555D01*
X098287Y027557D01*
X098291Y02756D01*
X098296Y027564D01*
X098301Y027567D01*
X098307Y02757D01*
X098313Y027574D01*
X098321Y027577D01*
X098328Y027579D01*
X098337Y027581D01*
X098345Y027583D01*
X098355Y027584D01*
X098365Y027585D01*
X098369D01*
X098372Y027584D01*
D02*
G37*
G36*
X098645Y027418D02*
X098677D01*
Y027375D01*
X098645D01*
Y027324D01*
X098598D01*
Y027375D01*
X098493D01*
Y027418D01*
X098604Y027581D01*
X098645D01*
Y027418D01*
D02*
G37*
%LPC*%
G36*
X098386Y024193D02*
X098352D01*
Y024023D01*
X098398D01*
X098403Y024024D01*
X098408D01*
X098413Y024024D01*
X098418Y024025D01*
X098422Y024025D01*
X098423D01*
X098424Y024026D01*
X098426Y024027D01*
X098429Y024028D01*
X098433Y024029D01*
X098436Y024031D01*
X098439Y024034D01*
X098443Y024036D01*
X098443Y024037D01*
X098444Y024038D01*
X098446Y024039D01*
X098447Y024042D01*
X098449Y024045D01*
X098452Y024049D01*
X098454Y024055D01*
X098456Y024061D01*
Y024061D01*
X098456Y024061D01*
Y024062D01*
X098457Y024064D01*
X098457Y024065D01*
X098458Y024068D01*
X098459Y024073D01*
X09846Y02408D01*
X098461Y024088D01*
X098461Y024097D01*
X098461Y024108D01*
Y024108D01*
Y024109D01*
Y024111D01*
Y024112D01*
Y024115D01*
X098461Y024118D01*
X098461Y024124D01*
X09846Y024132D01*
X098459Y024139D01*
X098458Y024146D01*
X098456Y024153D01*
Y024153D01*
X098455Y024154D01*
X098455Y024156D01*
X098454Y024159D01*
X098452Y024162D01*
X09845Y024166D01*
X098447Y02417D01*
X098444Y024174D01*
X098441Y024178D01*
X098441Y024178D01*
X09844Y024179D01*
X098437Y024181D01*
X098435Y024183D01*
X098431Y024185D01*
X098427Y024187D01*
X098423Y024189D01*
X098417Y02419D01*
X098417D01*
X098415Y02419D01*
X098412Y024191D01*
X098408Y024192D01*
X098406D01*
X098402Y024192D01*
X098399D01*
X098395Y024192D01*
X098391D01*
X098386Y024193D01*
D02*
G37*
G36*
X099736D02*
X099702D01*
Y024023D01*
X099748D01*
X099753Y024024D01*
X099758D01*
X099763Y024024D01*
X099768Y024025D01*
X099772Y024025D01*
X099773D01*
X099774Y024026D01*
X099776Y024027D01*
X099779Y024028D01*
X099783Y024029D01*
X099786Y024031D01*
X099789Y024034D01*
X099793Y024036D01*
X099793Y024037D01*
X099794Y024038D01*
X099796Y024039D01*
X099797Y024042D01*
X099799Y024045D01*
X099802Y024049D01*
X099804Y024055D01*
X099806Y024061D01*
Y024061D01*
X099806Y024061D01*
Y024062D01*
X099807Y024064D01*
X099807Y024065D01*
X099808Y024068D01*
X099809Y024073D01*
X09981Y02408D01*
X099811Y024088D01*
X099811Y024097D01*
X099811Y024108D01*
Y024108D01*
Y024109D01*
Y024111D01*
Y024112D01*
Y024115D01*
X099811Y024118D01*
X099811Y024124D01*
X09981Y024132D01*
X099809Y024139D01*
X099808Y024146D01*
X099806Y024153D01*
Y024153D01*
X099805Y024154D01*
X099805Y024156D01*
X099804Y024159D01*
X099802Y024162D01*
X0998Y024166D01*
X099797Y02417D01*
X099794Y024174D01*
X099791Y024178D01*
X099791Y024178D01*
X09979Y024179D01*
X099787Y024181D01*
X099785Y024183D01*
X099781Y024185D01*
X099777Y024187D01*
X099773Y024189D01*
X099767Y02419D01*
X099767D01*
X099765Y02419D01*
X099762Y024191D01*
X099758Y024192D01*
X099756D01*
X099752Y024192D01*
X099749D01*
X099745Y024192D01*
X099741D01*
X099736Y024193D01*
D02*
G37*
G36*
X101787Y027226D02*
X101787D01*
X101785D01*
X101783D01*
X101781Y027225D01*
X101777D01*
X101773Y027225D01*
X101764Y027223D01*
X101754Y027221D01*
X101744Y027218D01*
X101734Y027213D01*
X101725Y027206D01*
X101724Y027205D01*
X101722Y027203D01*
X101718Y027198D01*
X101714Y027193D01*
X10171Y027186D01*
X101706Y027178D01*
X101704Y027169D01*
X101703Y027159D01*
Y027156D01*
X101704Y027154D01*
X101704Y027149D01*
X101706Y027142D01*
X101708Y027135D01*
X101712Y027126D01*
X101718Y027118D01*
X101725Y02711D01*
X101726Y02711D01*
X101729Y027108D01*
X101734Y027104D01*
X101741Y027101D01*
X101749Y027097D01*
X10176Y027095D01*
X101773Y027092D01*
X101787Y027091D01*
X101788D01*
X101789D01*
X101791D01*
X101794Y027092D01*
X101798D01*
X101801Y027092D01*
X10181Y027094D01*
X10182Y027096D01*
X101831Y0271D01*
X101841Y027104D01*
X10185Y02711D01*
X101851Y027112D01*
X101853Y027114D01*
X101856Y027118D01*
X10186Y027124D01*
X101865Y027131D01*
X101868Y027139D01*
X10187Y027148D01*
X101871Y027159D01*
Y027161D01*
X101871Y027163D01*
X10187Y027168D01*
X101868Y027175D01*
X101866Y027183D01*
X101862Y027191D01*
X101857Y027198D01*
X10185Y027206D01*
X101849Y027207D01*
X101846Y027209D01*
X101841Y027212D01*
X101834Y027216D01*
X101825Y02722D01*
X101814Y027222D01*
X101801Y027225D01*
X101787Y027226D01*
D02*
G37*
G36*
X101764Y025934D02*
X101764D01*
X101763D01*
X101761D01*
X101759Y025933D01*
X101753Y025933D01*
X101747Y025932D01*
X101739Y025929D01*
X101731Y025927D01*
X101723Y025922D01*
X101717Y025917D01*
X101716Y025917D01*
X101714Y025915D01*
X101711Y025911D01*
X101708Y025907D01*
X101705Y025902D01*
X101702Y025895D01*
X1017Y025888D01*
X1017Y02588D01*
Y025876D01*
X101701Y025872D01*
X101702Y025866D01*
X101704Y02586D01*
X101707Y025854D01*
X101711Y025847D01*
X101717Y025841D01*
X101718Y02584D01*
X101721Y025839D01*
X101724Y025836D01*
X10173Y025833D01*
X101736Y02583D01*
X101745Y025828D01*
X101754Y025826D01*
X101764Y025826D01*
Y025934D01*
D02*
G37*
G36*
Y025171D02*
X101764D01*
X101763D01*
X101761D01*
X101759Y02517D01*
X101753Y025169D01*
X101747Y025168D01*
X101739Y025166D01*
X101731Y025163D01*
X101723Y025159D01*
X101717Y025154D01*
X101716Y025154D01*
X101714Y025151D01*
X101711Y025148D01*
X101708Y025144D01*
X101705Y025138D01*
X101702Y025132D01*
X1017Y025125D01*
X1017Y025116D01*
Y025113D01*
X101701Y025108D01*
X101702Y025103D01*
X101704Y025097D01*
X101707Y02509D01*
X101711Y025084D01*
X101717Y025078D01*
X101718Y025077D01*
X101721Y025076D01*
X101724Y025073D01*
X10173Y02507D01*
X101736Y025067D01*
X101745Y025065D01*
X101754Y025063D01*
X101764Y025062D01*
Y025171D01*
D02*
G37*
G36*
X097449Y030488D02*
X097389Y0304D01*
X097449D01*
Y030488D01*
D02*
G37*
G36*
X097216Y030518D02*
X097157D01*
Y030453D01*
X097207D01*
X097215Y030454D01*
X097222Y030454D01*
X09723Y030454D01*
X097233Y030455D01*
X097236Y030455D01*
X097239Y030456D01*
X097241Y030456D01*
X097242D01*
X097243Y030457D01*
X097245Y030458D01*
X097246Y030459D01*
X097251Y030462D01*
X097253Y030464D01*
X097256Y030467D01*
X097256Y030467D01*
X097256Y030468D01*
X097257Y03047D01*
X097259Y030472D01*
X097259Y030475D01*
X09726Y030478D01*
X097261Y030482D01*
X097261Y030486D01*
Y030487D01*
Y030488D01*
X097261Y030491D01*
X09726Y030493D01*
X097259Y030497D01*
X097258Y0305D01*
X097256Y030504D01*
X097254Y030507D01*
X097254Y030507D01*
X097253Y030508D01*
X097251Y030509D01*
X097249Y030511D01*
X097246Y030513D01*
X097243Y030515D01*
X097239Y030516D01*
X097235Y030517D01*
X097234D01*
X097233Y030518D01*
X097231D01*
X097228Y030518D01*
X097219D01*
X097216Y030518D01*
D02*
G37*
G36*
X095846D02*
X095787D01*
Y030453D01*
X095837D01*
X095845Y030454D01*
X095852Y030454D01*
X09586Y030454D01*
X095863Y030455D01*
X095866Y030455D01*
X095869Y030456D01*
X095871Y030456D01*
X095872D01*
X095873Y030457D01*
X095875Y030458D01*
X095876Y030459D01*
X095881Y030462D01*
X095883Y030464D01*
X095886Y030467D01*
X095886Y030467D01*
X095886Y030468D01*
X095887Y03047D01*
X095889Y030472D01*
X095889Y030475D01*
X09589Y030478D01*
X095891Y030482D01*
X095891Y030486D01*
Y030487D01*
Y030488D01*
X095891Y030491D01*
X09589Y030493D01*
X095889Y030497D01*
X095888Y0305D01*
X095886Y030504D01*
X095884Y030507D01*
X095884Y030507D01*
X095883Y030508D01*
X095881Y030509D01*
X095879Y030511D01*
X095876Y030513D01*
X095873Y030515D01*
X095869Y030516D01*
X095865Y030517D01*
X095864D01*
X095863Y030518D01*
X095861D01*
X095858Y030518D01*
X095849D01*
X095846Y030518D01*
D02*
G37*
G36*
X095881Y025935D02*
X095879D01*
X095876Y025935D01*
X095872Y025934D01*
X095869Y025932D01*
X095865Y02593D01*
X095861Y025928D01*
X095857Y025924D01*
X095857Y025923D01*
X095855Y025922D01*
X095854Y025919D01*
X095852Y025916D01*
X09585Y025911D01*
X095849Y025905D01*
X095848Y025899D01*
X095847Y025891D01*
Y025891D01*
Y02589D01*
Y025889D01*
Y025887D01*
X095848Y025883D01*
X095849Y025877D01*
X09585Y025871D01*
X095852Y025865D01*
X095854Y025859D01*
X095858Y025854D01*
X095858Y025854D01*
X09586Y025852D01*
X095863Y02585D01*
X095865Y025848D01*
X095869Y025845D01*
X095873Y025843D01*
X095878Y025842D01*
X095883Y025841D01*
X095885D01*
X095888Y025842D01*
X095891Y025842D01*
X095895Y025844D01*
X095899Y025845D01*
X095902Y025848D01*
X095906Y025851D01*
X095907Y025852D01*
X095908Y025854D01*
X095909Y025856D01*
X095911Y02586D01*
X095912Y025865D01*
X095914Y025871D01*
X095915Y025878D01*
X095915Y025886D01*
Y025887D01*
Y025888D01*
Y025889D01*
Y025891D01*
X095915Y025895D01*
X095914Y0259D01*
X095913Y025906D01*
X095911Y025913D01*
X095909Y025919D01*
X095905Y025923D01*
X095905Y025924D01*
X095904Y025925D01*
X095902Y025927D01*
X095899Y025929D01*
X095895Y025932D01*
X095891Y025933D01*
X095886Y025935D01*
X095881Y025935D01*
D02*
G37*
G36*
X095656Y026018D02*
X095597D01*
Y025953D01*
X095647D01*
X095655Y025953D01*
X095662Y025953D01*
X09567Y025954D01*
X095673Y025954D01*
X095676Y025955D01*
X095679Y025955D01*
X095681Y025956D01*
X095682D01*
X095683Y025956D01*
X095685Y025957D01*
X095686Y025958D01*
X095691Y025962D01*
X095693Y025964D01*
X095696Y025966D01*
X095696Y025967D01*
X095696Y025968D01*
X095697Y025969D01*
X095699Y025972D01*
X095699Y025975D01*
X0957Y025978D01*
X095701Y025982D01*
X095701Y025986D01*
Y025986D01*
Y025988D01*
X095701Y02599D01*
X0957Y025993D01*
X095699Y025996D01*
X095698Y026D01*
X095696Y026003D01*
X095694Y026006D01*
X095694Y026007D01*
X095693Y026008D01*
X095691Y026009D01*
X095689Y026011D01*
X095686Y026013D01*
X095683Y026014D01*
X095679Y026016D01*
X095675Y026017D01*
X095674D01*
X095673Y026017D01*
X095671D01*
X095668Y026017D01*
X095659D01*
X095656Y026018D01*
D02*
G37*
G36*
X094976Y029798D02*
X094917D01*
Y029733D01*
X094967D01*
X094975Y029733D01*
X094982Y029733D01*
X09499Y029734D01*
X094993Y029734D01*
X094996Y029735D01*
X094999Y029735D01*
X095001Y029736D01*
X095002D01*
X095003Y029736D01*
X095005Y029737D01*
X095006Y029738D01*
X095011Y029742D01*
X095013Y029744D01*
X095016Y029746D01*
X095016Y029747D01*
X095016Y029748D01*
X095017Y029749D01*
X095019Y029752D01*
X095019Y029755D01*
X09502Y029758D01*
X095021Y029762D01*
X095021Y029766D01*
Y029766D01*
Y029768D01*
X095021Y02977D01*
X09502Y029773D01*
X095019Y029776D01*
X095018Y02978D01*
X095016Y029783D01*
X095014Y029786D01*
X095014Y029787D01*
X095013Y029788D01*
X095011Y029789D01*
X095009Y029791D01*
X095006Y029793D01*
X095003Y029794D01*
X094999Y029796D01*
X094995Y029797D01*
X094994D01*
X094993Y029797D01*
X094991D01*
X094988Y029797D01*
X094979D01*
X094976Y029798D01*
D02*
G37*
G36*
X094216Y029793D02*
X094157D01*
Y029728D01*
X094207D01*
X094215Y029728D01*
X094222Y029728D01*
X09423Y029729D01*
X094233Y029729D01*
X094236Y02973D01*
X094239Y02973D01*
X094241Y029731D01*
X094242D01*
X094243Y029731D01*
X094245Y029732D01*
X094246Y029733D01*
X094251Y029737D01*
X094253Y029739D01*
X094256Y029741D01*
X094256Y029742D01*
X094256Y029743D01*
X094257Y029744D01*
X094259Y029747D01*
X094259Y02975D01*
X09426Y029753D01*
X094261Y029757D01*
X094261Y029761D01*
Y029761D01*
Y029763D01*
X094261Y029765D01*
X09426Y029768D01*
X094259Y029771D01*
X094258Y029775D01*
X094256Y029778D01*
X094254Y029781D01*
X094254Y029782D01*
X094253Y029783D01*
X094251Y029784D01*
X094249Y029786D01*
X094246Y029788D01*
X094243Y029789D01*
X094239Y029791D01*
X094235Y029792D01*
X094234D01*
X094233Y029792D01*
X094231D01*
X094228Y029792D01*
X094219D01*
X094216Y029793D01*
D02*
G37*
G36*
X097926Y030518D02*
X097867D01*
Y030453D01*
X097917D01*
X097925Y030454D01*
X097932Y030454D01*
X09794Y030454D01*
X097943Y030455D01*
X097946Y030455D01*
X097949Y030456D01*
X097951Y030456D01*
X097952D01*
X097953Y030457D01*
X097955Y030458D01*
X097956Y030459D01*
X097961Y030462D01*
X097963Y030464D01*
X097966Y030467D01*
X097966Y030467D01*
X097966Y030468D01*
X097967Y03047D01*
X097969Y030472D01*
X097969Y030475D01*
X09797Y030478D01*
X097971Y030482D01*
X097971Y030486D01*
Y030487D01*
Y030488D01*
X097971Y030491D01*
X09797Y030493D01*
X097969Y030497D01*
X097968Y0305D01*
X097966Y030504D01*
X097964Y030507D01*
X097964Y030507D01*
X097963Y030508D01*
X097961Y030509D01*
X097959Y030511D01*
X097956Y030513D01*
X097953Y030515D01*
X097949Y030516D01*
X097945Y030517D01*
X097944D01*
X097943Y030518D01*
X097941D01*
X097938Y030518D01*
X097929D01*
X097926Y030518D01*
D02*
G37*
G36*
X100321Y026887D02*
X100287D01*
Y026717D01*
X100332D01*
X100337Y026718D01*
X100342D01*
X100348Y026718D01*
X100352Y026719D01*
X100356Y026719D01*
X100357D01*
X100359Y02672D01*
X100361Y026721D01*
X100364Y026722D01*
X100367Y026724D01*
X10037Y026725D01*
X100374Y026728D01*
X100377Y02673D01*
X100377Y026731D01*
X100379Y026732D01*
X10038Y026734D01*
X100382Y026736D01*
X100384Y026739D01*
X100386Y026744D01*
X100388Y026749D01*
X10039Y026755D01*
Y026755D01*
X100391Y026755D01*
Y026756D01*
X100391Y026758D01*
X100392Y026759D01*
X100392Y026762D01*
X100393Y026767D01*
X100394Y026774D01*
X100395Y026782D01*
X100396Y026791D01*
X100396Y026802D01*
Y026802D01*
Y026803D01*
Y026805D01*
Y026806D01*
Y026809D01*
X100396Y026812D01*
X100395Y026818D01*
X100395Y026826D01*
X100394Y026833D01*
X100392Y02684D01*
X10039Y026847D01*
Y026847D01*
X10039Y026848D01*
X100389Y02685D01*
X100388Y026853D01*
X100387Y026856D01*
X100385Y02686D01*
X100382Y026864D01*
X100379Y026868D01*
X100376Y026872D01*
X100375Y026872D01*
X100374Y026873D01*
X100372Y026875D01*
X100369Y026877D01*
X100366Y026879D01*
X100362Y026881D01*
X100357Y026883D01*
X100352Y026884D01*
X100352D01*
X10035Y026884D01*
X100347Y026885D01*
X100343Y026886D01*
X10034D01*
X100337Y026886D01*
X100333D01*
X10033Y026886D01*
X100325D01*
X100321Y026887D01*
D02*
G37*
G36*
X098598Y027506D02*
X098538Y027418D01*
X098598D01*
Y027506D01*
D02*
G37*
%LPD*%
D10*
X097785Y027735D02*
G03*
X097785Y027735I-00005J0D01*
G01*
X098658Y028423D02*
G03*
X098856Y028228I000197J000002D01*
G01*
X101335Y028226D02*
G03*
X10153Y028425I-000002J000197D01*
G01*
Y030705D02*
G03*
X101335Y030904I-000197J000002D01*
G01*
X098855Y028226D02*
X101335D01*
X101532Y028423D02*
Y029053D01*
X098658Y028423D02*
Y029053D01*
Y030077D02*
Y030451D01*
X101532Y030077D02*
Y030707D01*
X099111Y030904D02*
X101335D01*
X098658Y030451D02*
Y030451D01*
X099111Y030904D01*
D11*
X097935Y027515D02*
G03*
X097935Y027115I0J-0002D01*
G01*
Y027515D02*
Y027935D01*
Y026695D02*
Y027115D01*
X095965Y027935D02*
X097935D01*
X095965Y026695D02*
X097935D01*
X095965D02*
Y027935D01*
X100085Y02596D02*
Y02763D01*
X099958D02*
X100085D01*
X099958Y02596D02*
X100085D01*
X099005Y02763D02*
X099132D01*
X099005Y02596D02*
X099132D01*
X099005D02*
Y02763D01*
D12*
X096185Y029035D02*
Y030115D01*
X095625D02*
X096185D01*
X095625Y029035D02*
Y030115D01*
Y029035D02*
X096185D01*
X09519Y025705D02*
X09627D01*
X09519Y025145D02*
Y025705D01*
Y025145D02*
X09627D01*
Y025705D01*
X098285Y029035D02*
Y030115D01*
X097725D02*
X098285D01*
X097725Y029035D02*
Y030115D01*
Y029035D02*
X098285D01*
X097025Y029035D02*
X097585D01*
Y030115D01*
X097025D02*
X097585D01*
X097025Y029035D02*
Y030115D01*
X094125Y028285D02*
X094685D01*
X094125D02*
Y029365D01*
X094685D01*
Y028285D02*
Y029365D01*
X094885Y028285D02*
X095445D01*
X094885D02*
Y029365D01*
X095445D01*
Y028285D02*
Y029365D01*
D13*
X096915Y028985D02*
Y030165D01*
X096335D02*
X096915D01*
X096335Y028985D02*
Y030165D01*
Y028985D02*
X096915D01*
X098815Y025969D02*
Y027149D01*
X098235D02*
X098815D01*
X098235Y025969D02*
Y027149D01*
Y025969D02*
X098815D01*
X101005Y024285D02*
Y025425D01*
X099185D02*
X101005D01*
X099185Y024285D02*
Y025425D01*
Y024285D02*
X101005D01*
X098365D02*
Y025425D01*
X096545D02*
X098365D01*
X096545Y024285D02*
Y025425D01*
Y024285D02*
X098365D01*
D14*
X099545Y027145D02*
D03*
M02*
