%TF.GenerationSoftware,KiCad,Pcbnew,7.0.1-3b83917a11~172~ubuntu22.04.1*%
%TF.CreationDate,2023-04-16T23:39:11+09:00*%
%TF.ProjectId,pcb,7063622e-6b69-4636-9164-5f7063625858,rev?*%
%TF.SameCoordinates,Original*%
%TF.FileFunction,Profile,NP*%
%FSLAX46Y46*%
G04 Gerber Fmt 4.6, Leading zero omitted, Abs format (unit mm)*
G04 Created by KiCad (PCBNEW 7.0.1-3b83917a11~172~ubuntu22.04.1) date 2023-04-16 23:39:11*
%MOMM*%
%LPD*%
G01*
G04 APERTURE LIST*
%TA.AperFunction,Profile*%
%ADD10C,0.100000*%
%TD*%
%TA.AperFunction,Profile*%
%ADD11C,0.120000*%
%TD*%
G04 APERTURE END LIST*
D10*
X24600000Y-23000000D02*
G75*
G03*
X24600000Y-23000000I-1600000J0D01*
G01*
X24600000Y-93000000D02*
G75*
G03*
X24600000Y-93000000I-1600000J0D01*
G01*
X118821000Y-23037800D02*
G75*
G03*
X118821000Y-23037800I-1600000J0D01*
G01*
X20000000Y-20000000D02*
X120000000Y-20000000D01*
X120000000Y-96000000D01*
X20000000Y-96000000D01*
X20000000Y-20000000D01*
X118922600Y-93000000D02*
G75*
G03*
X118922600Y-93000000I-1600000J0D01*
G01*
D11*
%TO.C,U4*%
X32536000Y-91164800D02*
X37536000Y-91164800D01*
X37536000Y-91164800D02*
X37536000Y-95464800D01*
X37536000Y-95464800D02*
X32536000Y-95464800D01*
X32536000Y-95464800D02*
X32536000Y-91164800D01*
X34436000Y-78664800D02*
X46236000Y-78664800D01*
X46236000Y-78664800D02*
X46236000Y-84664800D01*
X46236000Y-84664800D02*
X34436000Y-84664800D01*
X34436000Y-84664800D02*
X34436000Y-78664800D01*
X43136000Y-91164800D02*
X48136000Y-91164800D01*
X48136000Y-91164800D02*
X48136000Y-95464800D01*
X48136000Y-95464800D02*
X43136000Y-95464800D01*
X43136000Y-95464800D02*
X43136000Y-91164800D01*
X33876000Y-85724800D02*
G75*
G03*
X33876000Y-85724800I-1300000J0D01*
G01*
X36621000Y-88814800D02*
G75*
G03*
X36621000Y-88814800I-2000000J0D01*
G01*
X48051000Y-88814800D02*
G75*
G03*
X48051000Y-88814800I-2000000J0D01*
G01*
X49396000Y-85724800D02*
G75*
G03*
X49396000Y-85724800I-1300000J0D01*
G01*
%TD*%
M02*
