%TF.GenerationSoftware,KiCad,Pcbnew,7.0.1-3b83917a11~171~ubuntu20.04.1*%
%TF.CreationDate,2023-05-08T06:47:33+09:00*%
%TF.ProjectId,pcb,7063622e-6b69-4636-9164-5f7063625858,rev?*%
%TF.SameCoordinates,Original*%
%TF.FileFunction,Paste,Top*%
%TF.FilePolarity,Positive*%
%FSLAX46Y46*%
G04 Gerber Fmt 4.6, Leading zero omitted, Abs format (unit mm)*
G04 Created by KiCad (PCBNEW 7.0.1-3b83917a11~171~ubuntu20.04.1) date 2023-05-08 06:47:33*
%MOMM*%
%LPD*%
G01*
G04 APERTURE LIST*
G04 Aperture macros list*
%AMRoundRect*
0 Rectangle with rounded corners*
0 $1 Rounding radius*
0 $2 $3 $4 $5 $6 $7 $8 $9 X,Y pos of 4 corners*
0 Add a 4 corners polygon primitive as box body*
4,1,4,$2,$3,$4,$5,$6,$7,$8,$9,$2,$3,0*
0 Add four circle primitives for the rounded corners*
1,1,$1+$1,$2,$3*
1,1,$1+$1,$4,$5*
1,1,$1+$1,$6,$7*
1,1,$1+$1,$8,$9*
0 Add four rect primitives between the rounded corners*
20,1,$1+$1,$2,$3,$4,$5,0*
20,1,$1+$1,$4,$5,$6,$7,0*
20,1,$1+$1,$6,$7,$8,$9,0*
20,1,$1+$1,$8,$9,$2,$3,0*%
G04 Aperture macros list end*
%ADD10C,0.010000*%
%ADD11RoundRect,0.150000X0.150000X-0.725000X0.150000X0.725000X-0.150000X0.725000X-0.150000X-0.725000X0*%
%ADD12RoundRect,0.200000X-0.275000X0.200000X-0.275000X-0.200000X0.275000X-0.200000X0.275000X0.200000X0*%
%ADD13RoundRect,0.225000X-0.225000X-0.250000X0.225000X-0.250000X0.225000X0.250000X-0.225000X0.250000X0*%
%ADD14RoundRect,0.250000X0.262500X0.450000X-0.262500X0.450000X-0.262500X-0.450000X0.262500X-0.450000X0*%
%ADD15RoundRect,0.250000X-0.262500X-0.450000X0.262500X-0.450000X0.262500X0.450000X-0.262500X0.450000X0*%
%ADD16RoundRect,0.250000X-0.250000X-0.475000X0.250000X-0.475000X0.250000X0.475000X-0.250000X0.475000X0*%
%ADD17RoundRect,0.250000X-1.100000X0.325000X-1.100000X-0.325000X1.100000X-0.325000X1.100000X0.325000X0*%
%ADD18RoundRect,0.200000X0.200000X0.275000X-0.200000X0.275000X-0.200000X-0.275000X0.200000X-0.275000X0*%
%ADD19R,2.450000X2.100000*%
%ADD20RoundRect,0.225000X0.225000X0.250000X-0.225000X0.250000X-0.225000X-0.250000X0.225000X-0.250000X0*%
%ADD21RoundRect,0.250000X-1.000000X-0.650000X1.000000X-0.650000X1.000000X0.650000X-1.000000X0.650000X0*%
%ADD22RoundRect,0.048800X-0.541200X-0.256200X0.541200X-0.256200X0.541200X0.256200X-0.541200X0.256200X0*%
%ADD23RoundRect,0.096000X-0.889000X-0.204000X0.889000X-0.204000X0.889000X0.204000X-0.889000X0.204000X0*%
%ADD24RoundRect,0.096000X-1.126000X-0.204000X1.126000X-0.204000X1.126000X0.204000X-1.126000X0.204000X0*%
%ADD25RoundRect,0.250000X0.325000X1.100000X-0.325000X1.100000X-0.325000X-1.100000X0.325000X-1.100000X0*%
G04 APERTURE END LIST*
%TO.C,U1*%
D10*
X102187800Y-48999140D02*
X101385528Y-48999140D01*
X101385528Y-47755800D01*
X102187800Y-47755800D01*
X102187800Y-48999140D01*
G36*
X102187800Y-48999140D02*
G01*
X101385528Y-48999140D01*
X101385528Y-47755800D01*
X102187800Y-47755800D01*
X102187800Y-48999140D01*
G37*
X102187800Y-47485509D02*
X101385781Y-47485509D01*
X101385781Y-46245800D01*
X102187800Y-46245800D01*
X102187800Y-47485509D01*
G36*
X102187800Y-47485509D02*
G01*
X101385781Y-47485509D01*
X101385781Y-46245800D01*
X102187800Y-46245800D01*
X102187800Y-47485509D01*
G37*
X103257800Y-48997940D02*
X102458009Y-48997940D01*
X102458009Y-47755800D01*
X103257800Y-47755800D01*
X103257800Y-48997940D01*
G36*
X103257800Y-48997940D02*
G01*
X102458009Y-48997940D01*
X102458009Y-47755800D01*
X103257800Y-47755800D01*
X103257800Y-48997940D01*
G37*
X103257800Y-47485387D02*
X102458213Y-47485387D01*
X102458213Y-46245800D01*
X103257800Y-46245800D01*
X103257800Y-47485387D01*
G36*
X103257800Y-47485387D02*
G01*
X102458213Y-47485387D01*
X102458213Y-46245800D01*
X103257800Y-46245800D01*
X103257800Y-47485387D01*
G37*
%TD*%
D11*
%TO.C,U3*%
X94169400Y-67606200D03*
X95439400Y-67606200D03*
X96709400Y-67606200D03*
X97979400Y-67606200D03*
X99249400Y-67606200D03*
X100519400Y-67606200D03*
X101789400Y-67606200D03*
X103059400Y-67606200D03*
X103059400Y-62456200D03*
X101789400Y-62456200D03*
X100519400Y-62456200D03*
X99249400Y-62456200D03*
X97979400Y-62456200D03*
X96709400Y-62456200D03*
X95439400Y-62456200D03*
X94169400Y-62456200D03*
%TD*%
D12*
%TO.C,R7*%
X113560000Y-60230000D03*
X113560000Y-61880000D03*
%TD*%
%TO.C,R8*%
X113560000Y-66240000D03*
X113560000Y-67890000D03*
%TD*%
D13*
%TO.C,C8*%
X105598800Y-71727200D03*
X107148800Y-71727200D03*
%TD*%
%TO.C,C9*%
X23114000Y-58928000D03*
X24664000Y-58928000D03*
%TD*%
%TO.C,C5*%
X95598800Y-71727200D03*
X97148800Y-71727200D03*
%TD*%
D14*
%TO.C,R2*%
X94779000Y-49654600D03*
X92954000Y-49654600D03*
%TD*%
D15*
%TO.C,R6*%
X99227800Y-57020600D03*
X101052800Y-57020600D03*
%TD*%
D16*
%TO.C,C3*%
X103328600Y-53513600D03*
X105228600Y-53513600D03*
%TD*%
D15*
%TO.C,R3*%
X108623900Y-48130600D03*
X110448900Y-48130600D03*
%TD*%
D12*
%TO.C,R10*%
X113520000Y-72205000D03*
X113520000Y-73855000D03*
%TD*%
D17*
%TO.C,C1*%
X114006800Y-46655600D03*
X114006800Y-49605600D03*
%TD*%
D18*
%TO.C,R9*%
X24764800Y-61899800D03*
X23114800Y-61899800D03*
%TD*%
D14*
%TO.C,R4*%
X105267300Y-57020600D03*
X103442300Y-57020600D03*
%TD*%
D13*
%TO.C,C6*%
X100598800Y-71727200D03*
X102148800Y-71727200D03*
%TD*%
D15*
%TO.C,R5*%
X94833600Y-57020600D03*
X96658600Y-57020600D03*
%TD*%
D19*
%TO.C,L1*%
X105373600Y-38427800D03*
X99373600Y-38427800D03*
%TD*%
D20*
%TO.C,C7*%
X92148800Y-71727200D03*
X90598800Y-71727200D03*
%TD*%
D21*
%TO.C,D1*%
X110787600Y-38402400D03*
X114787600Y-38402400D03*
%TD*%
D22*
%TO.C,Q2*%
X84836000Y-22604800D03*
X84836000Y-24434800D03*
X86886000Y-23519800D03*
%TD*%
%TO.C,Q1*%
X53991400Y-22605400D03*
X53991400Y-24435400D03*
X56041400Y-23520400D03*
%TD*%
D16*
%TO.C,C2*%
X108662600Y-43431600D03*
X110562600Y-43431600D03*
%TD*%
D15*
%TO.C,R1*%
X92954000Y-45870000D03*
X94779000Y-45870000D03*
%TD*%
D23*
%TO.C,U1*%
X99847800Y-45715800D03*
X99847800Y-46985800D03*
X99847800Y-48255800D03*
X99847800Y-49525800D03*
D24*
X104560800Y-49525800D03*
D23*
X104797800Y-48255800D03*
X104797800Y-46985800D03*
X104797800Y-45715800D03*
%TD*%
D25*
%TO.C,C4*%
X95339600Y-38402400D03*
X92389600Y-38402400D03*
%TD*%
M02*
