%TF.GenerationSoftware,KiCad,Pcbnew,7.0.1-3b83917a11~171~ubuntu20.04.1*%
%TF.CreationDate,2023-05-08T06:47:33+09:00*%
%TF.ProjectId,pcb,7063622e-6b69-4636-9164-5f7063625858,rev?*%
%TF.SameCoordinates,Original*%
%TF.FileFunction,Copper,L2,Bot*%
%TF.FilePolarity,Positive*%
%FSLAX46Y46*%
G04 Gerber Fmt 4.6, Leading zero omitted, Abs format (unit mm)*
G04 Created by KiCad (PCBNEW 7.0.1-3b83917a11~171~ubuntu20.04.1) date 2023-05-08 06:47:33*
%MOMM*%
%LPD*%
G01*
G04 APERTURE LIST*
G04 Aperture macros list*
%AMRoundRect*
0 Rectangle with rounded corners*
0 $1 Rounding radius*
0 $2 $3 $4 $5 $6 $7 $8 $9 X,Y pos of 4 corners*
0 Add a 4 corners polygon primitive as box body*
4,1,4,$2,$3,$4,$5,$6,$7,$8,$9,$2,$3,0*
0 Add four circle primitives for the rounded corners*
1,1,$1+$1,$2,$3*
1,1,$1+$1,$4,$5*
1,1,$1+$1,$6,$7*
1,1,$1+$1,$8,$9*
0 Add four rect primitives between the rounded corners*
20,1,$1+$1,$2,$3,$4,$5,0*
20,1,$1+$1,$4,$5,$6,$7,0*
20,1,$1+$1,$6,$7,$8,$9,0*
20,1,$1+$1,$8,$9,$2,$3,0*%
%AMFreePoly0*
4,1,58,0.281242,0.792533,0.314585,0.788777,0.324216,0.782725,0.335306,0.780194,0.361541,0.759271,0.389950,0.741421,0.741421,0.389950,0.759271,0.361541,0.780194,0.335306,0.782725,0.324216,0.788777,0.314585,0.792533,0.281242,0.800000,0.248529,0.800000,-0.248529,0.792533,-0.281242,0.788777,-0.314585,0.782725,-0.324216,0.780194,-0.335306,0.759271,-0.361541,0.741421,-0.389950,
0.389950,-0.741421,0.361541,-0.759271,0.335306,-0.780194,0.324216,-0.782725,0.314585,-0.788777,0.281242,-0.792533,0.248529,-0.800000,0.000000,-0.800000,-0.248529,-0.800000,-0.281242,-0.792533,-0.314585,-0.788777,-0.324216,-0.782725,-0.335306,-0.780194,-0.361541,-0.759271,-0.389950,-0.741421,-0.741421,-0.389950,-0.759271,-0.361541,-0.780194,-0.335306,-0.782725,-0.324216,-0.788777,-0.314585,
-0.792533,-0.281242,-0.800000,-0.248529,-0.800000,0.248529,-0.792533,0.281242,-0.788777,0.314585,-0.782725,0.324216,-0.780194,0.335306,-0.759271,0.361541,-0.741421,0.389950,-0.389950,0.741421,-0.361541,0.759271,-0.335306,0.780194,-0.324216,0.782725,-0.314585,0.788777,-0.281242,0.792533,-0.248529,0.800000,0.248529,0.800000,0.281242,0.792533,0.281242,0.792533,$1*%
G04 Aperture macros list end*
%TA.AperFunction,ComponentPad*%
%ADD10C,4.000000*%
%TD*%
%TA.AperFunction,ComponentPad*%
%ADD11R,1.600000X1.600000*%
%TD*%
%TA.AperFunction,ComponentPad*%
%ADD12C,1.600000*%
%TD*%
%TA.AperFunction,ComponentPad*%
%ADD13R,1.800000X1.800000*%
%TD*%
%TA.AperFunction,ComponentPad*%
%ADD14C,1.800000*%
%TD*%
%TA.AperFunction,ComponentPad*%
%ADD15FreePoly0,0.000000*%
%TD*%
%TA.AperFunction,ComponentPad*%
%ADD16RoundRect,0.200000X-0.600000X-0.600000X0.600000X-0.600000X0.600000X0.600000X-0.600000X0.600000X0*%
%TD*%
%TA.AperFunction,ComponentPad*%
%ADD17R,4.600000X2.000000*%
%TD*%
%TA.AperFunction,ComponentPad*%
%ADD18O,4.200000X2.000000*%
%TD*%
%TA.AperFunction,ComponentPad*%
%ADD19O,2.000000X4.200000*%
%TD*%
%TA.AperFunction,ComponentPad*%
%ADD20RoundRect,0.250000X-0.600000X-0.675000X0.600000X-0.675000X0.600000X0.675000X-0.600000X0.675000X0*%
%TD*%
%TA.AperFunction,ComponentPad*%
%ADD21O,1.700000X1.850000*%
%TD*%
%TA.AperFunction,ComponentPad*%
%ADD22C,2.400000*%
%TD*%
%TA.AperFunction,ComponentPad*%
%ADD23C,1.700000*%
%TD*%
%TA.AperFunction,ViaPad*%
%ADD24C,0.800000*%
%TD*%
%TA.AperFunction,Conductor*%
%ADD25C,0.700000*%
%TD*%
%TA.AperFunction,Conductor*%
%ADD26C,0.500000*%
%TD*%
%TA.AperFunction,Conductor*%
%ADD27C,0.400000*%
%TD*%
%TA.AperFunction,Conductor*%
%ADD28C,0.250000*%
%TD*%
G04 APERTURE END LIST*
D10*
%TO.P,J4,0,PAD*%
%TO.N,GND*%
X82960000Y-90933900D03*
X107960000Y-90933900D03*
D11*
%TO.P,J4,1,1*%
%TO.N,unconnected-(J4-Pad1)*%
X101000000Y-89513900D03*
D12*
%TO.P,J4,2,2*%
%TO.N,RS232_TX*%
X98230000Y-89513900D03*
%TO.P,J4,3,3*%
%TO.N,RS232_RX*%
X95460000Y-89513900D03*
%TO.P,J4,4,4*%
%TO.N,unconnected-(J4-Pad4)*%
X92690000Y-89513900D03*
%TO.P,J4,5,5*%
%TO.N,GND*%
X89920000Y-89513900D03*
%TO.P,J4,6,6*%
%TO.N,unconnected-(J4-Pad6)*%
X99615000Y-92353900D03*
%TO.P,J4,7,7*%
%TO.N,unconnected-(J4-Pad7)*%
X96845000Y-92353900D03*
%TO.P,J4,8,8*%
%TO.N,unconnected-(J4-Pad8)*%
X94075000Y-92353900D03*
%TO.P,J4,9,9*%
%TO.N,unconnected-(J4-Pad9)*%
X91305000Y-92353900D03*
%TD*%
D13*
%TO.P,D3,1,K*%
%TO.N,GND*%
X110220000Y-63670000D03*
D14*
%TO.P,D3,2,A*%
%TO.N,Net-(D3-A)*%
X110220000Y-66210000D03*
%TD*%
D13*
%TO.P,D2,1,K*%
%TO.N,GND*%
X110220000Y-57670000D03*
D14*
%TO.P,D2,2,A*%
%TO.N,Net-(D2-A)*%
X110220000Y-60210000D03*
%TD*%
D15*
%TO.P,U2,1,GPIO0*%
%TO.N,unconnected-(U2-GPIO0-Pad1)*%
X61518800Y-21894800D03*
D12*
%TO.P,U2,2,GPIO1*%
%TO.N,unconnected-(U2-GPIO1-Pad2)*%
X61518800Y-24434800D03*
D16*
%TO.P,U2,3,GND_1*%
%TO.N,GND*%
X61518800Y-26974800D03*
D12*
%TO.P,U2,4,GPIO2*%
%TO.N,unconnected-(U2-GPIO2-Pad4)*%
X61518800Y-29514800D03*
%TO.P,U2,5,GPIO3*%
%TO.N,unconnected-(U2-GPIO3-Pad5)*%
X61518800Y-32054800D03*
%TO.P,U2,6,GPIO4*%
%TO.N,UART1_RX*%
X61518800Y-34594800D03*
%TO.P,U2,7,GPIO5*%
%TO.N,UART1_TX*%
X61518800Y-37134800D03*
D16*
%TO.P,U2,8,GND_2*%
%TO.N,GND*%
X61518800Y-39674800D03*
D12*
%TO.P,U2,9,GPIO6*%
%TO.N,P6*%
X61518800Y-42214800D03*
%TO.P,U2,10,GPIO7*%
%TO.N,P7*%
X61518800Y-44754800D03*
%TO.P,U2,11,GPIO8*%
%TO.N,unconnected-(U2-GPIO8-Pad11)*%
X61518800Y-47294800D03*
%TO.P,U2,12,GPIO9*%
%TO.N,unconnected-(U2-GPIO9-Pad12)*%
X61518800Y-49834800D03*
D16*
%TO.P,U2,13,GND_3*%
%TO.N,GND*%
X61518800Y-52374800D03*
D12*
%TO.P,U2,14,GPIO10*%
%TO.N,unconnected-(U2-GPIO10-Pad14)*%
X61518800Y-54914800D03*
%TO.P,U2,15,GPIO11*%
%TO.N,unconnected-(U2-GPIO11-Pad15)*%
X61518800Y-57454800D03*
%TO.P,U2,16,GPIO12*%
%TO.N,unconnected-(U2-GPIO12-Pad16)*%
X61518800Y-59994800D03*
%TO.P,U2,17,GPIO13*%
%TO.N,unconnected-(U2-GPIO13-Pad17)*%
X61518800Y-62534800D03*
D16*
%TO.P,U2,18,GND_4*%
%TO.N,GND*%
X61518800Y-65074800D03*
D12*
%TO.P,U2,19,GPIO14*%
%TO.N,unconnected-(U2-GPIO14-Pad19)*%
X61518800Y-67614800D03*
%TO.P,U2,20,GPIO15*%
%TO.N,unconnected-(U2-GPIO15-Pad20)*%
X61518800Y-70154800D03*
%TO.P,U2,21,GPIO16*%
%TO.N,unconnected-(U2-GPIO16-Pad21)*%
X79298800Y-70154800D03*
%TO.P,U2,22,GPIO17*%
%TO.N,unconnected-(U2-GPIO17-Pad22)*%
X79298800Y-67614800D03*
D16*
%TO.P,U2,23,GND_5*%
%TO.N,GND*%
X79298800Y-65074800D03*
D12*
%TO.P,U2,24,GPIO18*%
%TO.N,unconnected-(U2-GPIO18-Pad24)*%
X79298800Y-62534800D03*
%TO.P,U2,25,GPIO19*%
%TO.N,unconnected-(U2-GPIO19-Pad25)*%
X79298800Y-59994800D03*
%TO.P,U2,26,GPIO20*%
%TO.N,unconnected-(U2-GPIO20-Pad26)*%
X79298800Y-57454800D03*
%TO.P,U2,27,GPIO21*%
%TO.N,unconnected-(U2-GPIO21-Pad27)*%
X79298800Y-54914800D03*
D16*
%TO.P,U2,28,GND_6*%
%TO.N,GND*%
X79298800Y-52374800D03*
D12*
%TO.P,U2,29,GPIO22*%
%TO.N,unconnected-(U2-GPIO22-Pad29)*%
X79298800Y-49834800D03*
%TO.P,U2,30,RUN*%
%TO.N,unconnected-(U2-RUN-Pad30)*%
X79298800Y-47294800D03*
%TO.P,U2,31,GPIO26_ADC0*%
%TO.N,unconnected-(U2-GPIO26_ADC0-Pad31)*%
X79298800Y-44754800D03*
%TO.P,U2,32,GPIO27_ADC1*%
%TO.N,unconnected-(U2-GPIO27_ADC1-Pad32)*%
X79298800Y-42214800D03*
D16*
%TO.P,U2,33,AGND*%
%TO.N,GND*%
X79298800Y-39674800D03*
D12*
%TO.P,U2,34,GPIO28_ADC2*%
%TO.N,unconnected-(U2-GPIO28_ADC2-Pad34)*%
X79298800Y-37134800D03*
%TO.P,U2,35,ADC_VREF*%
%TO.N,unconnected-(U2-ADC_VREF-Pad35)*%
X79298800Y-34594800D03*
%TO.P,U2,36,3V3*%
%TO.N,unconnected-(U2-3V3-Pad36)*%
X79298800Y-32054800D03*
%TO.P,U2,37,3V3_EN*%
%TO.N,unconnected-(U2-3V3_EN-Pad37)*%
X79298800Y-29514800D03*
D16*
%TO.P,U2,38,GND_7*%
%TO.N,GND*%
X79298800Y-26974800D03*
D12*
%TO.P,U2,39,VSYS*%
%TO.N,Net-(U2-VSYS)*%
X79298800Y-24434800D03*
%TO.P,U2,40,VBUS*%
%TO.N,Net-(U2-VBUS)*%
X79298800Y-21894800D03*
%TD*%
D17*
%TO.P,J1,1*%
%TO.N,+24VP*%
X108381800Y-31979400D03*
D18*
%TO.P,J1,2*%
%TO.N,GND*%
X108381800Y-25679400D03*
D19*
%TO.P,J1,3*%
%TO.N,N/C*%
X103581800Y-29079400D03*
%TD*%
D20*
%TO.P,J3,1,Pin_1*%
%TO.N,+24V*%
X93974600Y-24018000D03*
D21*
%TO.P,J3,2,Pin_2*%
%TO.N,+24VP*%
X96474600Y-24018000D03*
%TD*%
D22*
%TO.P,SW1,*%
%TO.N,*%
X25614000Y-54772000D03*
X25614000Y-47772000D03*
D23*
%TO.P,SW1,1,1*%
%TO.N,GND*%
X23114000Y-53522000D03*
%TO.P,SW1,2,2*%
%TO.N,BTN*%
X23114000Y-49022000D03*
%TD*%
D13*
%TO.P,D4,1,K*%
%TO.N,GND*%
X110220000Y-69670000D03*
D14*
%TO.P,D4,2,A*%
%TO.N,Net-(D4-A)*%
X110220000Y-72210000D03*
%TD*%
D15*
%TO.P,U4,1,GPIO0*%
%TO.N,UART0_TX*%
X31496000Y-21894800D03*
D12*
%TO.P,U4,2,GPIO1*%
%TO.N,UART0_RX*%
X31496000Y-24434800D03*
D16*
%TO.P,U4,3,GND_1*%
%TO.N,GND*%
X31496000Y-26974800D03*
D12*
%TO.P,U4,4,GPIO2*%
%TO.N,unconnected-(U4-GPIO2-Pad4)*%
X31496000Y-29514800D03*
%TO.P,U4,5,GPIO3*%
%TO.N,unconnected-(U4-GPIO3-Pad5)*%
X31496000Y-32054800D03*
%TO.P,U4,6,GPIO4*%
%TO.N,UART1_TX*%
X31496000Y-34594800D03*
%TO.P,U4,7,GPIO5*%
%TO.N,UART1_RX*%
X31496000Y-37134800D03*
D16*
%TO.P,U4,8,GND_2*%
%TO.N,GND*%
X31496000Y-39674800D03*
D12*
%TO.P,U4,9,GPIO6*%
%TO.N,P6*%
X31496000Y-42214800D03*
%TO.P,U4,10,GPIO7*%
%TO.N,P7*%
X31496000Y-44754800D03*
%TO.P,U4,11,GPIO8*%
%TO.N,unconnected-(U4-GPIO8-Pad11)*%
X31496000Y-47294800D03*
%TO.P,U4,12,GPIO9*%
%TO.N,BTN*%
X31496000Y-49834800D03*
D16*
%TO.P,U4,13,GND_3*%
%TO.N,GND*%
X31496000Y-52374800D03*
D12*
%TO.P,U4,14,GPIO10*%
%TO.N,unconnected-(U4-GPIO10-Pad14)*%
X31496000Y-54914800D03*
%TO.P,U4,15,GPIO11*%
%TO.N,unconnected-(U4-GPIO11-Pad15)*%
X31496000Y-57454800D03*
%TO.P,U4,16,GPIO12*%
%TO.N,unconnected-(U4-GPIO12-Pad16)*%
X31496000Y-59994800D03*
%TO.P,U4,17,GPIO13*%
%TO.N,Net-(U4-GPIO13)*%
X31496000Y-62534800D03*
D16*
%TO.P,U4,18,GND_4*%
%TO.N,GND*%
X31496000Y-65074800D03*
D12*
%TO.P,U4,19,GPIO14*%
%TO.N,Net-(U4-GPIO14)*%
X31496000Y-67614800D03*
%TO.P,U4,20,GPIO15*%
%TO.N,Net-(U4-GPIO15)*%
X31496000Y-70154800D03*
%TO.P,U4,21,GPIO16(MISO)*%
%TO.N,unconnected-(U4-GPIO16(MISO)-Pad21)*%
X49276000Y-70154800D03*
%TO.P,U4,22,GPIO17(CSn)*%
%TO.N,unconnected-(U4-GPIO17(CSn)-Pad22)*%
X49276000Y-67614800D03*
D16*
%TO.P,U4,23,GND_5*%
%TO.N,GND*%
X49276000Y-65074800D03*
D12*
%TO.P,U4,24,GPIO18(SCLK)*%
%TO.N,unconnected-(U4-GPIO18(SCLK)-Pad24)*%
X49276000Y-62534800D03*
%TO.P,U4,25,GPIO19(MOSI)*%
%TO.N,unconnected-(U4-GPIO19(MOSI)-Pad25)*%
X49276000Y-59994800D03*
%TO.P,U4,26,GPIO20(RSTn)*%
%TO.N,unconnected-(U4-GPIO20(RSTn)-Pad26)*%
X49276000Y-57454800D03*
%TO.P,U4,27,GPIO21(INTn)*%
%TO.N,unconnected-(U4-GPIO21(INTn)-Pad27)*%
X49276000Y-54914800D03*
D16*
%TO.P,U4,28,GND_6*%
%TO.N,GND*%
X49276000Y-52374800D03*
D12*
%TO.P,U4,29,GPIO22*%
%TO.N,unconnected-(U4-GPIO22-Pad29)*%
X49276000Y-49834800D03*
%TO.P,U4,30,RUN*%
%TO.N,unconnected-(U4-RUN-Pad30)*%
X49276000Y-47294800D03*
%TO.P,U4,31,GPIO26_ADC0*%
%TO.N,unconnected-(U4-GPIO26_ADC0-Pad31)*%
X49276000Y-44754800D03*
%TO.P,U4,32,GPIO27_ADC1*%
%TO.N,unconnected-(U4-GPIO27_ADC1-Pad32)*%
X49276000Y-42214800D03*
D16*
%TO.P,U4,33,AGND*%
%TO.N,GND*%
X49276000Y-39674800D03*
D12*
%TO.P,U4,34,GPIO28_ADC2*%
%TO.N,unconnected-(U4-GPIO28_ADC2-Pad34)*%
X49276000Y-37134800D03*
%TO.P,U4,35,ADC_VREF*%
%TO.N,unconnected-(U4-ADC_VREF-Pad35)*%
X49276000Y-34594800D03*
%TO.P,U4,36,3V3*%
%TO.N,+3.3V*%
X49276000Y-32054800D03*
%TO.P,U4,37,3V3_EN*%
%TO.N,unconnected-(U4-3V3_EN-Pad37)*%
X49276000Y-29514800D03*
D16*
%TO.P,U4,38,GND_7*%
%TO.N,GND*%
X49276000Y-26974800D03*
D12*
%TO.P,U4,39,VSYS*%
%TO.N,Net-(U4-VSYS)*%
X49276000Y-24434800D03*
%TO.P,U4,40,VBUS*%
%TO.N,Net-(U4-VBUS)*%
X49276000Y-21894800D03*
%TD*%
D24*
%TO.N,+5V*%
X56134000Y-30632400D03*
X88696800Y-55016400D03*
%TO.N,GND*%
X91223000Y-41526600D03*
X91223000Y-47978200D03*
%TO.N,+3.3V*%
X92772400Y-62456200D03*
X44551600Y-75082400D03*
X59588400Y-78536800D03*
%TO.N,UART0_TX*%
X100533200Y-64058800D03*
%TO.N,UART0_RX*%
X99224000Y-60221000D03*
%TO.N,Net-(U1-COMP)*%
X97700000Y-53515400D03*
X101281400Y-53515400D03*
%TO.N,Net-(U4-GPIO15)*%
X113538000Y-85344000D03*
X71882000Y-85344000D03*
%TO.N,Net-(U4-GPIO14)*%
X115062000Y-86868000D03*
X71882000Y-86868000D03*
%TO.N,Net-(U4-GPIO13)*%
X71882000Y-83820000D03*
X111506000Y-83820000D03*
%TD*%
D25*
%TO.N,+5V*%
X84378800Y-58216800D02*
X84378800Y-70205600D01*
X88696800Y-55016400D02*
X87579200Y-55016400D01*
X58470800Y-74066400D02*
X56134000Y-71729600D01*
X56134000Y-71729600D02*
X56134000Y-30632400D01*
X84378800Y-70205600D02*
X80518000Y-74066400D01*
X87579200Y-55016400D02*
X84378800Y-58216800D01*
X80518000Y-74066400D02*
X58470800Y-74066400D01*
D26*
%TO.N,GND*%
X61518800Y-26974800D02*
X70713600Y-26974800D01*
X70561200Y-39674800D02*
X70561200Y-27127200D01*
X40182800Y-52374800D02*
X31496000Y-52374800D01*
X91223000Y-46378000D02*
X91223000Y-41526600D01*
X40335200Y-52374800D02*
X40335200Y-39674800D01*
X62941200Y-63652400D02*
X62941200Y-62687200D01*
X77927200Y-62738000D02*
X77927200Y-63703200D01*
X40538400Y-26974800D02*
X31496000Y-26974800D01*
X49276000Y-39674800D02*
X40335200Y-39674800D01*
X77927200Y-63703200D02*
X79298800Y-65074800D01*
X49276000Y-65074800D02*
X40182800Y-65074800D01*
X91201600Y-46356600D02*
X91223000Y-46378000D01*
X70561200Y-39674800D02*
X79298800Y-39674800D01*
X40335200Y-27178000D02*
X40538400Y-26974800D01*
X79129400Y-87680800D02*
X79129400Y-87703300D01*
X70612000Y-39725600D02*
X70561200Y-39674800D01*
X91223000Y-47978200D02*
X91223000Y-46378000D01*
X70612000Y-52374800D02*
X79298800Y-52374800D01*
X70612000Y-52374800D02*
X70612000Y-39725600D01*
X49276000Y-52374800D02*
X40335200Y-52374800D01*
X70612000Y-52374800D02*
X70612000Y-61772800D01*
X70612000Y-61772800D02*
X76962000Y-61772800D01*
X40335200Y-52374800D02*
X40182800Y-52374800D01*
X76962000Y-61772800D02*
X77927200Y-62738000D01*
X70561200Y-27127200D02*
X70713600Y-26974800D01*
X61518800Y-39674800D02*
X70561200Y-39674800D01*
X61518800Y-52374800D02*
X70612000Y-52374800D01*
X70713600Y-26974800D02*
X79298800Y-26974800D01*
X40335200Y-39674800D02*
X31496000Y-39674800D01*
X40182800Y-65074800D02*
X31496000Y-65074800D01*
X63855600Y-61772800D02*
X70612000Y-61772800D01*
X62941200Y-62687200D02*
X63855600Y-61772800D01*
X61518800Y-26974800D02*
X49276000Y-26974800D01*
X49276000Y-26974800D02*
X40538400Y-26974800D01*
X40182800Y-52374800D02*
X40182800Y-65074800D01*
X40335200Y-39674800D02*
X40335200Y-27178000D01*
X61518800Y-65074800D02*
X62941200Y-63652400D01*
X89838900Y-90113900D02*
X89942500Y-90113900D01*
D27*
%TO.N,+3.3V*%
X53695600Y-71882000D02*
X53695600Y-33223200D01*
X92772400Y-67247600D02*
X92772400Y-62456200D01*
X52628800Y-72999600D02*
X52628800Y-72948800D01*
X81483200Y-78536800D02*
X92772400Y-67247600D01*
X53695600Y-33223200D02*
X52527200Y-32054800D01*
X46634400Y-72999600D02*
X52628800Y-72999600D01*
X44551600Y-75082400D02*
X46634400Y-72999600D01*
X52527200Y-32054800D02*
X49276000Y-32054800D01*
X52628800Y-72948800D02*
X53695600Y-71882000D01*
X59588400Y-78536800D02*
X81483200Y-78536800D01*
D28*
%TO.N,UART0_TX*%
X27482800Y-24688800D02*
X30276800Y-21894800D01*
X100482400Y-64109600D02*
X100482400Y-64262000D01*
X54965600Y-77774800D02*
X32410400Y-77774800D01*
X100533200Y-64058800D02*
X100482400Y-64109600D01*
X32410400Y-77774800D02*
X27482800Y-72847200D01*
X30276800Y-21894800D02*
X31496000Y-21894800D01*
X27482800Y-72847200D02*
X27482800Y-24688800D01*
X100482400Y-64262000D02*
X84632800Y-80111600D01*
X57302400Y-80111600D02*
X54965600Y-77774800D01*
X84632800Y-80111600D02*
X57302400Y-80111600D01*
%TO.N,UART0_RX*%
X29159200Y-24434800D02*
X28346400Y-25247600D01*
X81127600Y-76606400D02*
X91135200Y-66598800D01*
X31496000Y-24434800D02*
X29159200Y-24434800D01*
X32969200Y-76606400D02*
X81127600Y-76606400D01*
X28346400Y-25247600D02*
X28346400Y-71983600D01*
X28346400Y-71983600D02*
X32969200Y-76606400D01*
X91135200Y-61417200D02*
X92331400Y-60221000D01*
X92331400Y-60221000D02*
X99224000Y-60221000D01*
X91135200Y-66598800D02*
X91135200Y-61417200D01*
%TO.N,Net-(U1-COMP)*%
X97700000Y-53515400D02*
X101281400Y-53515400D01*
%TO.N,Net-(U4-GPIO15)*%
X71882000Y-85344000D02*
X113538000Y-85344000D01*
%TO.N,Net-(U4-GPIO14)*%
X71882000Y-86868000D02*
X115062000Y-86868000D01*
%TO.N,Net-(U4-GPIO13)*%
X71882000Y-83820000D02*
X111506000Y-83820000D01*
%TD*%
%TA.AperFunction,Conductor*%
%TO.N,GND*%
G36*
X119937500Y-20017113D02*
G01*
X119982887Y-20062500D01*
X119999500Y-20124500D01*
X119999500Y-47350240D01*
X119939873Y-65190736D01*
X119837612Y-95786939D01*
X119820883Y-95848728D01*
X119775566Y-95893939D01*
X119713739Y-95910525D01*
X32162800Y-95999500D01*
X20124500Y-95999500D01*
X20062500Y-95982887D01*
X20017113Y-95937500D01*
X20000500Y-95875500D01*
X20000500Y-95464800D01*
X32535459Y-95464800D01*
X32535500Y-95464899D01*
X32535617Y-95465183D01*
X32535618Y-95465184D01*
X32535808Y-95465261D01*
X32536000Y-95465341D01*
X32536002Y-95465339D01*
X32560616Y-95465324D01*
X32560616Y-95465328D01*
X32560760Y-95465300D01*
X37511240Y-95465300D01*
X37511383Y-95465328D01*
X37511384Y-95465324D01*
X37535997Y-95465339D01*
X37536000Y-95465341D01*
X37536383Y-95465183D01*
X37536500Y-95464899D01*
X37536541Y-95464800D01*
X43135459Y-95464800D01*
X43135500Y-95464899D01*
X43135617Y-95465183D01*
X43135618Y-95465184D01*
X43135808Y-95465261D01*
X43136000Y-95465341D01*
X43136002Y-95465339D01*
X43160616Y-95465324D01*
X43160616Y-95465328D01*
X43160760Y-95465300D01*
X48111240Y-95465300D01*
X48111383Y-95465328D01*
X48111384Y-95465324D01*
X48135997Y-95465339D01*
X48136000Y-95465341D01*
X48136383Y-95465183D01*
X48136500Y-95464899D01*
X48136541Y-95464800D01*
X48136541Y-95440246D01*
X48136500Y-95440040D01*
X48136500Y-92872479D01*
X81374971Y-92872479D01*
X81374972Y-92872481D01*
X81617783Y-93048893D01*
X81893448Y-93200440D01*
X82185928Y-93316241D01*
X82490620Y-93394473D01*
X82802711Y-93433900D01*
X83117289Y-93433900D01*
X83429379Y-93394473D01*
X83734071Y-93316241D01*
X84026551Y-93200440D01*
X84302212Y-93048895D01*
X84545026Y-92872479D01*
X84545027Y-92872479D01*
X82960000Y-91287453D01*
X81374971Y-92872479D01*
X48136500Y-92872479D01*
X48136500Y-91189560D01*
X48136528Y-91189416D01*
X48136524Y-91189416D01*
X48136539Y-91164802D01*
X48136541Y-91164800D01*
X48136461Y-91164608D01*
X48136384Y-91164418D01*
X48136380Y-91164414D01*
X48136194Y-91164338D01*
X48136002Y-91164259D01*
X48111446Y-91164259D01*
X48111240Y-91164300D01*
X43160760Y-91164300D01*
X43160554Y-91164259D01*
X43135998Y-91164259D01*
X43135807Y-91164338D01*
X43135619Y-91164415D01*
X43135615Y-91164418D01*
X43135459Y-91164799D01*
X43135476Y-91189416D01*
X43135471Y-91189416D01*
X43135500Y-91189560D01*
X43135500Y-95440040D01*
X43135459Y-95440246D01*
X43135459Y-95464800D01*
X37536541Y-95464800D01*
X37536541Y-95440246D01*
X37536500Y-95440040D01*
X37536500Y-91189560D01*
X37536528Y-91189416D01*
X37536524Y-91189416D01*
X37536539Y-91164802D01*
X37536541Y-91164800D01*
X37536461Y-91164608D01*
X37536384Y-91164418D01*
X37536380Y-91164414D01*
X37536194Y-91164338D01*
X37536002Y-91164259D01*
X37511446Y-91164259D01*
X37511240Y-91164300D01*
X32560760Y-91164300D01*
X32560554Y-91164259D01*
X32535998Y-91164259D01*
X32535807Y-91164338D01*
X32535619Y-91164415D01*
X32535615Y-91164418D01*
X32535459Y-91164799D01*
X32535476Y-91189416D01*
X32535471Y-91189416D01*
X32535500Y-91189560D01*
X32535500Y-95440040D01*
X32535459Y-95440246D01*
X32535459Y-95464800D01*
X20000500Y-95464800D01*
X20000500Y-91000000D01*
X21394551Y-91000000D01*
X21414317Y-91251149D01*
X21473126Y-91496110D01*
X21521330Y-91612484D01*
X21569534Y-91728859D01*
X21701164Y-91943659D01*
X21864776Y-92135224D01*
X22056341Y-92298836D01*
X22271141Y-92430466D01*
X22503889Y-92526873D01*
X22748852Y-92585683D01*
X23000000Y-92605449D01*
X23251148Y-92585683D01*
X23496111Y-92526873D01*
X23728859Y-92430466D01*
X23943659Y-92298836D01*
X24135224Y-92135224D01*
X24298836Y-91943659D01*
X24430466Y-91728859D01*
X24526873Y-91496111D01*
X24585683Y-91251148D01*
X24605449Y-91000000D01*
X24600247Y-90933899D01*
X80455056Y-90933899D01*
X80474808Y-91247848D01*
X80533754Y-91556857D01*
X80630961Y-91856026D01*
X80764904Y-92140669D01*
X80933456Y-92406264D01*
X81024287Y-92516059D01*
X82606447Y-90933901D01*
X83313553Y-90933901D01*
X84895712Y-92516060D01*
X84895713Y-92516060D01*
X84986536Y-92406274D01*
X85019774Y-92353899D01*
X89999531Y-92353899D01*
X90019364Y-92580589D01*
X90078261Y-92800397D01*
X90174432Y-93006635D01*
X90304953Y-93193040D01*
X90465859Y-93353946D01*
X90652264Y-93484467D01*
X90652265Y-93484467D01*
X90652266Y-93484468D01*
X90858504Y-93580639D01*
X91078308Y-93639535D01*
X91229436Y-93652757D01*
X91304999Y-93659368D01*
X91304999Y-93659367D01*
X91305000Y-93659368D01*
X91531692Y-93639535D01*
X91751496Y-93580639D01*
X91957734Y-93484468D01*
X92144139Y-93353947D01*
X92305047Y-93193039D01*
X92435568Y-93006634D01*
X92531739Y-92800396D01*
X92570224Y-92656764D01*
X92602319Y-92601176D01*
X92657906Y-92569082D01*
X92722094Y-92569082D01*
X92777681Y-92601176D01*
X92809775Y-92656764D01*
X92848261Y-92800396D01*
X92944432Y-93006635D01*
X93074953Y-93193040D01*
X93235859Y-93353946D01*
X93422264Y-93484467D01*
X93422265Y-93484467D01*
X93422266Y-93484468D01*
X93628504Y-93580639D01*
X93848308Y-93639535D01*
X93999436Y-93652757D01*
X94074999Y-93659368D01*
X94074999Y-93659367D01*
X94075000Y-93659368D01*
X94301692Y-93639535D01*
X94521496Y-93580639D01*
X94727734Y-93484468D01*
X94914139Y-93353947D01*
X95075047Y-93193039D01*
X95205568Y-93006634D01*
X95301739Y-92800396D01*
X95340224Y-92656764D01*
X95372319Y-92601176D01*
X95427906Y-92569082D01*
X95492094Y-92569082D01*
X95547681Y-92601176D01*
X95579775Y-92656764D01*
X95618261Y-92800396D01*
X95714432Y-93006635D01*
X95844953Y-93193040D01*
X96005859Y-93353946D01*
X96192264Y-93484467D01*
X96192265Y-93484467D01*
X96192266Y-93484468D01*
X96398504Y-93580639D01*
X96618308Y-93639535D01*
X96769436Y-93652757D01*
X96844999Y-93659368D01*
X96844999Y-93659367D01*
X96845000Y-93659368D01*
X97071692Y-93639535D01*
X97291496Y-93580639D01*
X97497734Y-93484468D01*
X97684139Y-93353947D01*
X97845047Y-93193039D01*
X97975568Y-93006634D01*
X98071739Y-92800396D01*
X98110224Y-92656764D01*
X98142319Y-92601176D01*
X98197906Y-92569082D01*
X98262094Y-92569082D01*
X98317681Y-92601176D01*
X98349775Y-92656764D01*
X98388261Y-92800396D01*
X98484432Y-93006635D01*
X98614953Y-93193040D01*
X98775859Y-93353946D01*
X98962264Y-93484467D01*
X98962265Y-93484467D01*
X98962266Y-93484468D01*
X99168504Y-93580639D01*
X99388308Y-93639535D01*
X99539436Y-93652757D01*
X99614999Y-93659368D01*
X99614999Y-93659367D01*
X99615000Y-93659368D01*
X99841692Y-93639535D01*
X100061496Y-93580639D01*
X100267734Y-93484468D01*
X100454139Y-93353947D01*
X100615047Y-93193039D01*
X100745568Y-93006634D01*
X100808126Y-92872479D01*
X106374971Y-92872479D01*
X106374972Y-92872481D01*
X106617783Y-93048893D01*
X106893448Y-93200440D01*
X107185928Y-93316241D01*
X107490620Y-93394473D01*
X107802711Y-93433900D01*
X108117289Y-93433900D01*
X108429379Y-93394473D01*
X108734071Y-93316241D01*
X109026551Y-93200440D01*
X109302212Y-93048895D01*
X109545026Y-92872479D01*
X109545027Y-92872479D01*
X107960000Y-91287453D01*
X106374971Y-92872479D01*
X100808126Y-92872479D01*
X100841739Y-92800396D01*
X100900635Y-92580592D01*
X100920468Y-92353900D01*
X100900635Y-92127208D01*
X100841739Y-91907404D01*
X100745568Y-91701166D01*
X100615047Y-91514761D01*
X100615046Y-91514759D01*
X100454140Y-91353853D01*
X100267735Y-91223332D01*
X100061497Y-91127161D01*
X99841689Y-91068264D01*
X99615000Y-91048431D01*
X99388310Y-91068264D01*
X99168502Y-91127161D01*
X98962264Y-91223332D01*
X98775859Y-91353853D01*
X98614953Y-91514759D01*
X98484432Y-91701164D01*
X98388261Y-91907402D01*
X98349775Y-92051036D01*
X98317681Y-92106623D01*
X98262094Y-92138717D01*
X98197906Y-92138717D01*
X98142319Y-92106623D01*
X98110225Y-92051036D01*
X98081453Y-91943657D01*
X98071739Y-91907404D01*
X97975568Y-91701166D01*
X97845047Y-91514761D01*
X97845046Y-91514759D01*
X97684140Y-91353853D01*
X97497735Y-91223332D01*
X97291497Y-91127161D01*
X97071689Y-91068264D01*
X96845000Y-91048431D01*
X96618310Y-91068264D01*
X96398502Y-91127161D01*
X96192264Y-91223332D01*
X96005859Y-91353853D01*
X95844953Y-91514759D01*
X95714432Y-91701164D01*
X95618261Y-91907402D01*
X95579775Y-92051036D01*
X95547681Y-92106623D01*
X95492094Y-92138717D01*
X95427906Y-92138717D01*
X95372319Y-92106623D01*
X95340225Y-92051036D01*
X95311453Y-91943657D01*
X95301739Y-91907404D01*
X95205568Y-91701166D01*
X95075047Y-91514761D01*
X95075046Y-91514759D01*
X94914140Y-91353853D01*
X94727735Y-91223332D01*
X94521497Y-91127161D01*
X94301689Y-91068264D01*
X94075000Y-91048431D01*
X93848310Y-91068264D01*
X93628502Y-91127161D01*
X93422264Y-91223332D01*
X93235859Y-91353853D01*
X93074953Y-91514759D01*
X92944432Y-91701164D01*
X92848261Y-91907402D01*
X92809775Y-92051036D01*
X92777681Y-92106623D01*
X92722094Y-92138717D01*
X92657906Y-92138717D01*
X92602319Y-92106623D01*
X92570225Y-92051036D01*
X92541453Y-91943657D01*
X92531739Y-91907404D01*
X92435568Y-91701166D01*
X92305047Y-91514761D01*
X92305046Y-91514759D01*
X92144140Y-91353853D01*
X91957735Y-91223332D01*
X91751497Y-91127161D01*
X91531689Y-91068264D01*
X91305000Y-91048431D01*
X91078310Y-91068264D01*
X90858502Y-91127161D01*
X90652264Y-91223332D01*
X90465859Y-91353853D01*
X90304953Y-91514759D01*
X90174432Y-91701164D01*
X90078261Y-91907402D01*
X90019364Y-92127210D01*
X89999531Y-92353899D01*
X85019774Y-92353899D01*
X85155097Y-92140665D01*
X85289038Y-91856026D01*
X85386245Y-91556857D01*
X85445191Y-91247848D01*
X85464943Y-90933899D01*
X105455056Y-90933899D01*
X105474808Y-91247848D01*
X105533754Y-91556857D01*
X105630961Y-91856026D01*
X105764904Y-92140669D01*
X105933456Y-92406264D01*
X106024287Y-92516059D01*
X107606447Y-90933901D01*
X108313553Y-90933901D01*
X109895712Y-92516060D01*
X109895713Y-92516060D01*
X109986536Y-92406274D01*
X110155097Y-92140665D01*
X110289038Y-91856026D01*
X110386245Y-91556857D01*
X110445191Y-91247848D01*
X110460784Y-91000000D01*
X115394551Y-91000000D01*
X115414317Y-91251149D01*
X115473126Y-91496110D01*
X115521330Y-91612484D01*
X115569534Y-91728859D01*
X115701164Y-91943659D01*
X115864776Y-92135224D01*
X116056341Y-92298836D01*
X116271141Y-92430466D01*
X116503889Y-92526873D01*
X116748852Y-92585683D01*
X117000000Y-92605449D01*
X117251148Y-92585683D01*
X117496111Y-92526873D01*
X117728859Y-92430466D01*
X117943659Y-92298836D01*
X118135224Y-92135224D01*
X118298836Y-91943659D01*
X118430466Y-91728859D01*
X118526873Y-91496111D01*
X118585683Y-91251148D01*
X118605449Y-91000000D01*
X118585683Y-90748852D01*
X118526873Y-90503889D01*
X118430466Y-90271141D01*
X118298836Y-90056341D01*
X118135224Y-89864776D01*
X117943659Y-89701164D01*
X117728859Y-89569534D01*
X117594544Y-89513899D01*
X117496110Y-89473126D01*
X117251149Y-89414317D01*
X117000000Y-89394551D01*
X116748850Y-89414317D01*
X116503889Y-89473126D01*
X116271139Y-89569535D01*
X116056342Y-89701163D01*
X115864776Y-89864776D01*
X115701163Y-90056342D01*
X115569535Y-90271139D01*
X115473126Y-90503889D01*
X115414317Y-90748850D01*
X115394551Y-91000000D01*
X110460784Y-91000000D01*
X110464943Y-90933899D01*
X110445191Y-90619951D01*
X110386245Y-90310942D01*
X110289038Y-90011773D01*
X110155097Y-89727134D01*
X109986537Y-89461527D01*
X109895712Y-89351738D01*
X108313553Y-90933900D01*
X108313553Y-90933901D01*
X107606447Y-90933901D01*
X107606447Y-90933900D01*
X106024286Y-89351738D01*
X106024285Y-89351738D01*
X105933459Y-89461530D01*
X105764904Y-89727130D01*
X105630961Y-90011773D01*
X105533754Y-90310942D01*
X105474808Y-90619951D01*
X105455056Y-90933899D01*
X85464943Y-90933899D01*
X85445191Y-90619951D01*
X85440036Y-90592926D01*
X89194526Y-90592926D01*
X89267515Y-90644033D01*
X89473673Y-90740166D01*
X89693397Y-90799041D01*
X89920000Y-90818866D01*
X90146602Y-90799041D01*
X90366326Y-90740166D01*
X90572480Y-90644034D01*
X90645472Y-90592925D01*
X89920001Y-89867453D01*
X89920000Y-89867453D01*
X89194526Y-90592925D01*
X89194526Y-90592926D01*
X85440036Y-90592926D01*
X85386245Y-90310942D01*
X85289038Y-90011773D01*
X85155097Y-89727134D01*
X85019773Y-89513899D01*
X88615033Y-89513899D01*
X88634858Y-89740502D01*
X88693733Y-89960226D01*
X88789866Y-90166384D01*
X88840972Y-90239371D01*
X88840974Y-90239372D01*
X89566446Y-89513901D01*
X89566446Y-89513900D01*
X89566445Y-89513899D01*
X90273553Y-89513899D01*
X90999025Y-90239372D01*
X91050134Y-90166380D01*
X91146266Y-89960227D01*
X91184966Y-89815798D01*
X91217060Y-89760211D01*
X91272647Y-89728117D01*
X91336834Y-89728117D01*
X91392422Y-89760211D01*
X91424516Y-89815798D01*
X91463261Y-89960397D01*
X91559432Y-90166635D01*
X91689953Y-90353040D01*
X91850859Y-90513946D01*
X92037264Y-90644467D01*
X92037265Y-90644467D01*
X92037266Y-90644468D01*
X92243504Y-90740639D01*
X92463308Y-90799535D01*
X92690000Y-90819368D01*
X92916692Y-90799535D01*
X93136496Y-90740639D01*
X93342734Y-90644468D01*
X93529139Y-90513947D01*
X93690047Y-90353039D01*
X93820568Y-90166634D01*
X93916739Y-89960396D01*
X93955224Y-89816764D01*
X93987319Y-89761176D01*
X94042906Y-89729082D01*
X94107094Y-89729082D01*
X94162681Y-89761176D01*
X94194775Y-89816764D01*
X94233261Y-89960396D01*
X94329432Y-90166635D01*
X94459953Y-90353040D01*
X94620859Y-90513946D01*
X94807264Y-90644467D01*
X94807265Y-90644467D01*
X94807266Y-90644468D01*
X95013504Y-90740639D01*
X95233308Y-90799535D01*
X95460000Y-90819368D01*
X95686692Y-90799535D01*
X95906496Y-90740639D01*
X96112734Y-90644468D01*
X96299139Y-90513947D01*
X96460047Y-90353039D01*
X96590568Y-90166634D01*
X96686739Y-89960396D01*
X96725224Y-89816764D01*
X96757319Y-89761176D01*
X96812906Y-89729082D01*
X96877094Y-89729082D01*
X96932681Y-89761176D01*
X96964775Y-89816764D01*
X97003261Y-89960396D01*
X97099432Y-90166635D01*
X97229953Y-90353040D01*
X97390859Y-90513946D01*
X97577264Y-90644467D01*
X97577265Y-90644467D01*
X97577266Y-90644468D01*
X97783504Y-90740639D01*
X98003308Y-90799535D01*
X98230000Y-90819368D01*
X98456692Y-90799535D01*
X98676496Y-90740639D01*
X98882734Y-90644468D01*
X99069139Y-90513947D01*
X99230047Y-90353039D01*
X99360568Y-90166634D01*
X99456739Y-89960396D01*
X99456738Y-89960396D01*
X99461324Y-89950564D01*
X99462814Y-89951259D01*
X99484068Y-89912507D01*
X99533079Y-89879752D01*
X99591677Y-89873330D01*
X99646619Y-89894692D01*
X99685488Y-89939010D01*
X99699500Y-89996270D01*
X99699500Y-90361769D01*
X99705909Y-90421383D01*
X99756204Y-90556231D01*
X99842454Y-90671446D01*
X99957669Y-90757696D01*
X100092517Y-90807991D01*
X100152127Y-90814400D01*
X101847872Y-90814399D01*
X101907483Y-90807991D01*
X102042331Y-90757696D01*
X102157546Y-90671446D01*
X102243796Y-90556231D01*
X102294091Y-90421383D01*
X102300500Y-90361773D01*
X102300499Y-88995319D01*
X106374971Y-88995319D01*
X107960000Y-90580347D01*
X107960001Y-90580347D01*
X109545027Y-88995319D01*
X109545026Y-88995317D01*
X109302216Y-88818906D01*
X109026551Y-88667359D01*
X108734071Y-88551558D01*
X108429379Y-88473326D01*
X108117289Y-88433900D01*
X107802711Y-88433900D01*
X107490620Y-88473326D01*
X107185928Y-88551558D01*
X106893448Y-88667359D01*
X106617783Y-88818906D01*
X106374972Y-88995318D01*
X106374971Y-88995319D01*
X102300499Y-88995319D01*
X102300499Y-88666028D01*
X102294091Y-88606417D01*
X102243796Y-88471569D01*
X102157546Y-88356354D01*
X102042331Y-88270104D01*
X101907483Y-88219809D01*
X101847873Y-88213400D01*
X101847869Y-88213400D01*
X100152130Y-88213400D01*
X100092515Y-88219809D01*
X99957669Y-88270104D01*
X99842454Y-88356354D01*
X99756204Y-88471568D01*
X99705909Y-88606416D01*
X99699500Y-88666031D01*
X99699500Y-89031527D01*
X99685489Y-89088784D01*
X99646623Y-89133102D01*
X99591684Y-89154466D01*
X99533087Y-89148048D01*
X99484076Y-89115298D01*
X99462814Y-89076541D01*
X99461324Y-89077236D01*
X99360567Y-88861164D01*
X99230046Y-88674759D01*
X99069140Y-88513853D01*
X98882735Y-88383332D01*
X98676497Y-88287161D01*
X98456689Y-88228264D01*
X98230000Y-88208431D01*
X98003310Y-88228264D01*
X97783502Y-88287161D01*
X97577264Y-88383332D01*
X97390859Y-88513853D01*
X97229953Y-88674759D01*
X97099432Y-88861164D01*
X97003261Y-89067402D01*
X96964775Y-89211036D01*
X96932681Y-89266623D01*
X96877094Y-89298717D01*
X96812906Y-89298717D01*
X96757319Y-89266623D01*
X96725225Y-89211036D01*
X96708347Y-89148048D01*
X96686739Y-89067404D01*
X96590568Y-88861166D01*
X96560977Y-88818906D01*
X96460046Y-88674759D01*
X96299140Y-88513853D01*
X96112735Y-88383332D01*
X95906497Y-88287161D01*
X95686689Y-88228264D01*
X95460000Y-88208431D01*
X95233310Y-88228264D01*
X95013502Y-88287161D01*
X94807264Y-88383332D01*
X94620859Y-88513853D01*
X94459953Y-88674759D01*
X94329432Y-88861164D01*
X94233261Y-89067402D01*
X94194775Y-89211036D01*
X94162681Y-89266623D01*
X94107094Y-89298717D01*
X94042906Y-89298717D01*
X93987319Y-89266623D01*
X93955225Y-89211036D01*
X93938347Y-89148048D01*
X93916739Y-89067404D01*
X93820568Y-88861166D01*
X93790977Y-88818906D01*
X93690046Y-88674759D01*
X93529140Y-88513853D01*
X93342735Y-88383332D01*
X93136497Y-88287161D01*
X92916689Y-88228264D01*
X92690000Y-88208431D01*
X92463310Y-88228264D01*
X92243502Y-88287161D01*
X92037264Y-88383332D01*
X91850859Y-88513853D01*
X91689953Y-88674759D01*
X91559432Y-88861164D01*
X91463261Y-89067402D01*
X91424516Y-89212001D01*
X91392422Y-89267588D01*
X91336834Y-89299682D01*
X91272647Y-89299682D01*
X91217060Y-89267588D01*
X91184966Y-89212001D01*
X91146266Y-89067573D01*
X91050133Y-88861415D01*
X90999025Y-88788426D01*
X90273553Y-89513898D01*
X90273553Y-89513899D01*
X89566445Y-89513899D01*
X88840973Y-88788426D01*
X88840973Y-88788427D01*
X88789865Y-88861416D01*
X88693733Y-89067572D01*
X88634858Y-89287297D01*
X88615033Y-89513899D01*
X85019773Y-89513899D01*
X84986537Y-89461527D01*
X84895712Y-89351738D01*
X83313553Y-90933900D01*
X83313553Y-90933901D01*
X82606447Y-90933901D01*
X82606447Y-90933899D01*
X81024286Y-89351738D01*
X81024285Y-89351738D01*
X80933459Y-89461530D01*
X80764904Y-89727130D01*
X80630961Y-90011773D01*
X80533754Y-90310942D01*
X80474808Y-90619951D01*
X80455056Y-90933899D01*
X24600247Y-90933899D01*
X24585683Y-90748852D01*
X24526873Y-90503889D01*
X24430466Y-90271141D01*
X24298836Y-90056341D01*
X24135224Y-89864776D01*
X23943659Y-89701164D01*
X23728859Y-89569534D01*
X23594544Y-89513899D01*
X23496110Y-89473126D01*
X23251149Y-89414317D01*
X23000000Y-89394551D01*
X22748850Y-89414317D01*
X22503889Y-89473126D01*
X22271139Y-89569535D01*
X22056342Y-89701163D01*
X21864776Y-89864776D01*
X21701163Y-90056342D01*
X21569535Y-90271139D01*
X21473126Y-90503889D01*
X21414317Y-90748850D01*
X21394551Y-91000000D01*
X20000500Y-91000000D01*
X20000500Y-88814800D01*
X32615389Y-88814800D01*
X32635804Y-89100229D01*
X32696629Y-89379841D01*
X32796634Y-89647963D01*
X32933772Y-89899113D01*
X32943799Y-89912507D01*
X33105261Y-90128195D01*
X33307605Y-90330539D01*
X33428960Y-90421384D01*
X33536686Y-90502027D01*
X33676435Y-90578335D01*
X33787839Y-90639167D01*
X34055954Y-90739169D01*
X34055957Y-90739169D01*
X34055958Y-90739170D01*
X34100457Y-90748850D01*
X34335572Y-90799996D01*
X34621000Y-90820410D01*
X34906428Y-90799996D01*
X35186046Y-90739169D01*
X35454161Y-90639167D01*
X35705315Y-90502026D01*
X35934395Y-90330539D01*
X36136739Y-90128195D01*
X36308226Y-89899115D01*
X36445367Y-89647961D01*
X36545369Y-89379846D01*
X36606196Y-89100228D01*
X36626610Y-88814800D01*
X36626610Y-88814799D01*
X44045389Y-88814799D01*
X44065804Y-89100229D01*
X44126629Y-89379841D01*
X44226634Y-89647963D01*
X44363772Y-89899113D01*
X44373799Y-89912507D01*
X44535261Y-90128195D01*
X44737605Y-90330539D01*
X44858960Y-90421384D01*
X44966686Y-90502027D01*
X45106435Y-90578335D01*
X45217839Y-90639167D01*
X45485954Y-90739169D01*
X45485957Y-90739169D01*
X45485958Y-90739170D01*
X45530457Y-90748850D01*
X45765572Y-90799996D01*
X46051000Y-90820410D01*
X46336428Y-90799996D01*
X46616046Y-90739169D01*
X46884161Y-90639167D01*
X47135315Y-90502026D01*
X47364395Y-90330539D01*
X47566739Y-90128195D01*
X47738226Y-89899115D01*
X47875367Y-89647961D01*
X47975369Y-89379846D01*
X48036196Y-89100228D01*
X48043699Y-88995319D01*
X81374971Y-88995319D01*
X82960000Y-90580347D01*
X82960001Y-90580347D01*
X84545027Y-88995319D01*
X84545026Y-88995317D01*
X84302216Y-88818906D01*
X84026551Y-88667359D01*
X83734071Y-88551558D01*
X83429379Y-88473326D01*
X83124991Y-88434873D01*
X89194526Y-88434873D01*
X89920000Y-89160346D01*
X89920001Y-89160346D01*
X90645472Y-88434874D01*
X90645471Y-88434872D01*
X90572484Y-88383766D01*
X90366326Y-88287633D01*
X90146602Y-88228758D01*
X89920000Y-88208933D01*
X89693397Y-88228758D01*
X89473672Y-88287633D01*
X89267516Y-88383765D01*
X89194527Y-88434873D01*
X89194526Y-88434873D01*
X83124991Y-88434873D01*
X83117289Y-88433900D01*
X82802711Y-88433900D01*
X82490620Y-88473326D01*
X82185928Y-88551558D01*
X81893448Y-88667359D01*
X81617783Y-88818906D01*
X81374972Y-88995318D01*
X81374971Y-88995319D01*
X48043699Y-88995319D01*
X48056610Y-88814800D01*
X48036196Y-88529372D01*
X47975369Y-88249754D01*
X47875367Y-87981639D01*
X47758984Y-87768500D01*
X47738227Y-87730486D01*
X47596296Y-87540889D01*
X47566739Y-87501405D01*
X47364395Y-87299061D01*
X47249855Y-87213317D01*
X47135313Y-87127572D01*
X46884163Y-86990434D01*
X46884162Y-86990433D01*
X46884161Y-86990433D01*
X46709123Y-86925147D01*
X46616041Y-86890429D01*
X46336429Y-86829604D01*
X46051000Y-86809189D01*
X45765570Y-86829604D01*
X45485958Y-86890429D01*
X45217836Y-86990434D01*
X44966686Y-87127572D01*
X44737602Y-87299063D01*
X44535263Y-87501402D01*
X44363772Y-87730486D01*
X44226634Y-87981636D01*
X44126629Y-88249758D01*
X44065804Y-88529370D01*
X44045389Y-88814799D01*
X36626610Y-88814799D01*
X36606196Y-88529372D01*
X36545369Y-88249754D01*
X36445367Y-87981639D01*
X36328984Y-87768500D01*
X36308227Y-87730486D01*
X36166296Y-87540889D01*
X36136739Y-87501405D01*
X35934395Y-87299061D01*
X35819855Y-87213317D01*
X35705313Y-87127572D01*
X35454163Y-86990434D01*
X35454162Y-86990433D01*
X35454161Y-86990433D01*
X35279123Y-86925147D01*
X35186041Y-86890429D01*
X34906429Y-86829604D01*
X34621000Y-86809189D01*
X34335570Y-86829604D01*
X34055958Y-86890429D01*
X33787836Y-86990434D01*
X33536686Y-87127572D01*
X33307602Y-87299063D01*
X33105263Y-87501402D01*
X32933772Y-87730486D01*
X32796634Y-87981636D01*
X32696629Y-88249758D01*
X32635804Y-88529370D01*
X32615389Y-88814800D01*
X20000500Y-88814800D01*
X20000500Y-85724799D01*
X31270531Y-85724799D01*
X31290364Y-85951489D01*
X31349261Y-86171297D01*
X31445432Y-86377535D01*
X31575953Y-86563940D01*
X31736859Y-86724846D01*
X31923264Y-86855367D01*
X31923265Y-86855367D01*
X31923266Y-86855368D01*
X32129504Y-86951539D01*
X32349308Y-87010435D01*
X32576000Y-87030268D01*
X32802692Y-87010435D01*
X33022496Y-86951539D01*
X33228734Y-86855368D01*
X33415139Y-86724847D01*
X33576047Y-86563939D01*
X33706568Y-86377534D01*
X33802739Y-86171296D01*
X33861635Y-85951492D01*
X33881468Y-85724800D01*
X33881468Y-85724799D01*
X46790531Y-85724799D01*
X46810364Y-85951489D01*
X46869261Y-86171297D01*
X46965432Y-86377535D01*
X47095953Y-86563940D01*
X47256859Y-86724846D01*
X47443264Y-86855367D01*
X47443265Y-86855367D01*
X47443266Y-86855368D01*
X47649504Y-86951539D01*
X47869308Y-87010435D01*
X48096000Y-87030268D01*
X48322692Y-87010435D01*
X48542496Y-86951539D01*
X48721647Y-86867999D01*
X70976540Y-86867999D01*
X70996326Y-87056257D01*
X71054820Y-87236284D01*
X71149466Y-87400216D01*
X71276129Y-87540889D01*
X71429269Y-87652151D01*
X71602197Y-87729144D01*
X71787352Y-87768500D01*
X71787354Y-87768500D01*
X71976646Y-87768500D01*
X71976648Y-87768500D01*
X72100083Y-87742262D01*
X72161803Y-87729144D01*
X72334730Y-87652151D01*
X72487871Y-87540888D01*
X72493598Y-87534526D01*
X72535312Y-87504220D01*
X72585747Y-87493500D01*
X114358253Y-87493500D01*
X114408688Y-87504220D01*
X114450401Y-87534526D01*
X114456129Y-87540888D01*
X114609270Y-87652151D01*
X114609271Y-87652151D01*
X114609272Y-87652152D01*
X114782197Y-87729144D01*
X114967352Y-87768500D01*
X114967354Y-87768500D01*
X115156646Y-87768500D01*
X115156648Y-87768500D01*
X115280083Y-87742262D01*
X115341803Y-87729144D01*
X115514730Y-87652151D01*
X115667871Y-87540888D01*
X115794533Y-87400216D01*
X115889179Y-87236284D01*
X115947674Y-87056256D01*
X115967460Y-86868000D01*
X115947674Y-86679744D01*
X115910047Y-86563940D01*
X115889179Y-86499715D01*
X115794533Y-86335783D01*
X115667870Y-86195110D01*
X115514730Y-86083848D01*
X115341802Y-86006855D01*
X115156648Y-85967500D01*
X115156646Y-85967500D01*
X114967354Y-85967500D01*
X114967352Y-85967500D01*
X114782197Y-86006855D01*
X114609272Y-86083847D01*
X114550860Y-86126286D01*
X114456129Y-86195112D01*
X114450401Y-86201473D01*
X114408688Y-86231780D01*
X114358253Y-86242500D01*
X114214976Y-86242500D01*
X114155239Y-86227162D01*
X114110279Y-86184943D01*
X114091221Y-86126286D01*
X114102777Y-86065704D01*
X114142090Y-86018182D01*
X114142146Y-86018140D01*
X114143871Y-86016888D01*
X114270533Y-85876216D01*
X114365179Y-85712284D01*
X114423674Y-85532256D01*
X114443460Y-85344000D01*
X114423674Y-85155744D01*
X114365179Y-84975716D01*
X114365179Y-84975715D01*
X114270533Y-84811783D01*
X114143870Y-84671110D01*
X113990730Y-84559848D01*
X113817802Y-84482855D01*
X113632648Y-84443500D01*
X113632646Y-84443500D01*
X113443354Y-84443500D01*
X113443352Y-84443500D01*
X113258197Y-84482855D01*
X113085272Y-84559847D01*
X113030832Y-84599400D01*
X112932129Y-84671112D01*
X112926401Y-84677473D01*
X112884688Y-84707780D01*
X112834253Y-84718500D01*
X112182976Y-84718500D01*
X112123239Y-84703162D01*
X112078279Y-84660943D01*
X112059221Y-84602286D01*
X112070777Y-84541704D01*
X112110090Y-84494182D01*
X112110146Y-84494140D01*
X112111871Y-84492888D01*
X112238533Y-84352216D01*
X112333179Y-84188284D01*
X112391674Y-84008256D01*
X112411460Y-83820000D01*
X112391674Y-83631744D01*
X112333179Y-83451716D01*
X112333179Y-83451715D01*
X112238533Y-83287783D01*
X112111870Y-83147110D01*
X111958730Y-83035848D01*
X111785802Y-82958855D01*
X111600648Y-82919500D01*
X111600646Y-82919500D01*
X111411354Y-82919500D01*
X111411352Y-82919500D01*
X111226197Y-82958855D01*
X111053272Y-83035847D01*
X110951176Y-83110024D01*
X110900129Y-83147112D01*
X110894401Y-83153473D01*
X110852688Y-83183780D01*
X110802253Y-83194500D01*
X72585747Y-83194500D01*
X72535312Y-83183780D01*
X72493598Y-83153473D01*
X72487871Y-83147112D01*
X72334730Y-83035849D01*
X72334729Y-83035848D01*
X72334727Y-83035847D01*
X72161802Y-82958855D01*
X71976648Y-82919500D01*
X71976646Y-82919500D01*
X71787354Y-82919500D01*
X71787352Y-82919500D01*
X71602197Y-82958855D01*
X71429269Y-83035848D01*
X71276129Y-83147110D01*
X71149466Y-83287783D01*
X71054820Y-83451715D01*
X70996326Y-83631742D01*
X70976540Y-83820000D01*
X70996326Y-84008257D01*
X71054820Y-84188284D01*
X71149464Y-84352213D01*
X71149467Y-84352216D01*
X71276129Y-84492888D01*
X71276132Y-84492890D01*
X71281657Y-84499026D01*
X71309824Y-84552000D01*
X71309824Y-84611997D01*
X71281657Y-84664971D01*
X71149466Y-84811783D01*
X71054820Y-84975715D01*
X70996326Y-85155742D01*
X70976540Y-85343999D01*
X70996326Y-85532257D01*
X71054820Y-85712284D01*
X71149464Y-85876213D01*
X71149467Y-85876216D01*
X71276129Y-86016888D01*
X71276132Y-86016890D01*
X71281657Y-86023026D01*
X71309824Y-86076000D01*
X71309824Y-86135997D01*
X71281657Y-86188971D01*
X71149466Y-86335783D01*
X71054820Y-86499715D01*
X70996326Y-86679742D01*
X70976540Y-86867999D01*
X48721647Y-86867999D01*
X48748734Y-86855368D01*
X48935139Y-86724847D01*
X49096047Y-86563939D01*
X49226568Y-86377534D01*
X49322739Y-86171296D01*
X49381635Y-85951492D01*
X49401468Y-85724800D01*
X49381635Y-85498108D01*
X49322739Y-85278304D01*
X49226568Y-85072066D01*
X49096047Y-84885661D01*
X49096046Y-84885659D01*
X48935140Y-84724753D01*
X48748735Y-84594232D01*
X48542497Y-84498061D01*
X48322689Y-84439164D01*
X48096000Y-84419331D01*
X47869310Y-84439164D01*
X47649502Y-84498061D01*
X47443264Y-84594232D01*
X47256859Y-84724753D01*
X47095953Y-84885659D01*
X46965432Y-85072064D01*
X46869261Y-85278302D01*
X46810364Y-85498110D01*
X46790531Y-85724799D01*
X33881468Y-85724799D01*
X33861635Y-85498108D01*
X33802739Y-85278304D01*
X33706568Y-85072066D01*
X33576047Y-84885661D01*
X33576046Y-84885659D01*
X33415140Y-84724753D01*
X33329517Y-84664800D01*
X34435459Y-84664800D01*
X34435500Y-84664899D01*
X34435617Y-84665183D01*
X34435618Y-84665184D01*
X34435808Y-84665261D01*
X34436000Y-84665341D01*
X34436002Y-84665339D01*
X34460616Y-84665324D01*
X34460616Y-84665328D01*
X34460760Y-84665300D01*
X46211240Y-84665300D01*
X46211383Y-84665328D01*
X46211384Y-84665324D01*
X46235997Y-84665339D01*
X46236000Y-84665341D01*
X46236383Y-84665183D01*
X46236500Y-84664899D01*
X46236541Y-84664800D01*
X46236541Y-84640246D01*
X46236500Y-84640040D01*
X46236500Y-78689560D01*
X46236528Y-78689416D01*
X46236524Y-78689416D01*
X46236539Y-78664802D01*
X46236541Y-78664800D01*
X46236462Y-78664608D01*
X46236384Y-78664418D01*
X46236380Y-78664414D01*
X46236194Y-78664338D01*
X46236002Y-78664259D01*
X46211446Y-78664259D01*
X46211240Y-78664300D01*
X34460760Y-78664300D01*
X34460554Y-78664259D01*
X34435998Y-78664259D01*
X34435807Y-78664338D01*
X34435619Y-78664415D01*
X34435615Y-78664418D01*
X34435459Y-78664799D01*
X34435476Y-78689416D01*
X34435471Y-78689416D01*
X34435500Y-78689560D01*
X34435500Y-84640040D01*
X34435459Y-84640246D01*
X34435459Y-84664800D01*
X33329517Y-84664800D01*
X33228735Y-84594232D01*
X33022497Y-84498061D01*
X32802689Y-84439164D01*
X32576000Y-84419331D01*
X32349310Y-84439164D01*
X32129502Y-84498061D01*
X31923264Y-84594232D01*
X31736859Y-84724753D01*
X31575953Y-84885659D01*
X31445432Y-85072064D01*
X31349261Y-85278302D01*
X31290364Y-85498110D01*
X31270531Y-85724799D01*
X20000500Y-85724799D01*
X20000500Y-53522000D01*
X21758842Y-53522000D01*
X21779430Y-53757318D01*
X21840569Y-53985492D01*
X21940400Y-54199580D01*
X21999073Y-54283373D01*
X22760447Y-53522001D01*
X22760447Y-53522000D01*
X21999072Y-52760625D01*
X21940399Y-52844422D01*
X21840569Y-53058507D01*
X21779430Y-53286681D01*
X21758842Y-53522000D01*
X20000500Y-53522000D01*
X20000500Y-52407072D01*
X22352625Y-52407072D01*
X23114000Y-53168447D01*
X23114001Y-53168447D01*
X23875373Y-52407073D01*
X23875373Y-52407072D01*
X23791580Y-52348400D01*
X23577492Y-52248569D01*
X23349318Y-52187430D01*
X23114000Y-52166842D01*
X22878681Y-52187430D01*
X22650507Y-52248569D01*
X22436422Y-52348399D01*
X22352625Y-52407072D01*
X20000500Y-52407072D01*
X20000500Y-49022000D01*
X21758340Y-49022000D01*
X21778936Y-49257407D01*
X21814010Y-49388304D01*
X21840097Y-49485663D01*
X21939965Y-49699830D01*
X22075505Y-49893401D01*
X22242599Y-50060495D01*
X22436170Y-50196035D01*
X22650337Y-50295903D01*
X22878592Y-50357063D01*
X23114000Y-50377659D01*
X23349408Y-50357063D01*
X23577663Y-50295903D01*
X23791830Y-50196035D01*
X23985401Y-50060495D01*
X24152495Y-49893401D01*
X24288035Y-49699830D01*
X24387903Y-49485663D01*
X24449063Y-49257408D01*
X24449063Y-49257407D01*
X24451871Y-49246929D01*
X24453235Y-49247294D01*
X24470630Y-49199264D01*
X24519322Y-49158015D01*
X24582080Y-49146443D01*
X24642280Y-49167613D01*
X24761366Y-49248805D01*
X24990996Y-49359389D01*
X25234542Y-49434513D01*
X25486565Y-49472500D01*
X25741435Y-49472500D01*
X25993458Y-49434513D01*
X26237004Y-49359389D01*
X26466634Y-49248805D01*
X26663449Y-49114618D01*
X26726347Y-49093268D01*
X26791241Y-49107443D01*
X26839509Y-49153076D01*
X26857300Y-49217073D01*
X26857300Y-53326927D01*
X26839509Y-53390924D01*
X26791241Y-53436557D01*
X26726347Y-53450732D01*
X26663449Y-53429381D01*
X26466634Y-53295195D01*
X26237004Y-53184611D01*
X25993458Y-53109487D01*
X25741435Y-53071500D01*
X25486565Y-53071500D01*
X25234542Y-53109487D01*
X24990996Y-53184611D01*
X24761366Y-53295195D01*
X24641805Y-53376709D01*
X24581607Y-53397879D01*
X24518851Y-53386308D01*
X24470159Y-53345061D01*
X24452682Y-53296808D01*
X24451377Y-53297158D01*
X24387430Y-53058507D01*
X24287599Y-52844421D01*
X24228926Y-52760626D01*
X24228925Y-52760625D01*
X23114000Y-53875553D01*
X22352625Y-54636925D01*
X22436420Y-54695599D01*
X22650507Y-54795430D01*
X22878681Y-54856569D01*
X23114000Y-54877157D01*
X23349318Y-54856569D01*
X23577492Y-54795430D01*
X23736596Y-54721238D01*
X23794795Y-54709755D01*
X23851669Y-54726621D01*
X23894200Y-54767975D01*
X23912654Y-54824353D01*
X23927777Y-55026154D01*
X23984492Y-55274637D01*
X24077608Y-55511891D01*
X24205038Y-55732607D01*
X24205041Y-55732612D01*
X24363950Y-55931877D01*
X24550783Y-56105232D01*
X24761366Y-56248805D01*
X24990996Y-56359389D01*
X25234542Y-56434513D01*
X25486565Y-56472500D01*
X25741435Y-56472500D01*
X25993458Y-56434513D01*
X26237004Y-56359389D01*
X26466634Y-56248805D01*
X26663449Y-56114618D01*
X26726347Y-56093268D01*
X26791241Y-56107443D01*
X26839509Y-56153076D01*
X26857300Y-56217073D01*
X26857300Y-72764456D01*
X26855035Y-72784962D01*
X26857239Y-72855073D01*
X26857300Y-72858968D01*
X26857300Y-72886549D01*
X26857803Y-72890534D01*
X26858718Y-72902167D01*
X26860090Y-72945826D01*
X26865679Y-72965060D01*
X26869625Y-72984116D01*
X26872135Y-73003992D01*
X26888214Y-73044604D01*
X26891997Y-73055651D01*
X26904182Y-73097591D01*
X26914380Y-73114835D01*
X26922936Y-73132300D01*
X26930314Y-73150932D01*
X26930315Y-73150933D01*
X26955980Y-73186259D01*
X26962393Y-73196022D01*
X26984626Y-73233616D01*
X26984629Y-73233619D01*
X26984630Y-73233620D01*
X26998795Y-73247785D01*
X27011427Y-73262575D01*
X27023206Y-73278787D01*
X27056858Y-73306626D01*
X27065499Y-73314489D01*
X31909597Y-78158587D01*
X31922498Y-78174689D01*
X31924612Y-78176674D01*
X31924614Y-78176677D01*
X31971961Y-78221139D01*
X31973640Y-78222716D01*
X31976435Y-78225425D01*
X31995930Y-78244920D01*
X31999104Y-78247382D01*
X32007968Y-78254953D01*
X32039818Y-78284862D01*
X32050314Y-78290632D01*
X32057374Y-78294514D01*
X32073631Y-78305192D01*
X32089464Y-78317474D01*
X32105585Y-78324449D01*
X32129556Y-78334823D01*
X32140043Y-78339960D01*
X32178308Y-78360997D01*
X32197716Y-78365980D01*
X32216110Y-78372278D01*
X32234505Y-78380238D01*
X32277654Y-78387071D01*
X32289080Y-78389438D01*
X32304622Y-78393429D01*
X32331380Y-78400300D01*
X32331381Y-78400300D01*
X32351416Y-78400300D01*
X32370813Y-78401826D01*
X32390596Y-78404960D01*
X32434074Y-78400850D01*
X32445744Y-78400300D01*
X54655148Y-78400300D01*
X54702601Y-78409739D01*
X54742829Y-78436619D01*
X56801596Y-80495387D01*
X56814496Y-80511488D01*
X56865623Y-80559500D01*
X56868420Y-80562211D01*
X56887929Y-80581720D01*
X56891111Y-80584188D01*
X56899971Y-80591755D01*
X56931817Y-80621661D01*
X56931818Y-80621662D01*
X56949370Y-80631311D01*
X56965638Y-80641997D01*
X56981464Y-80654273D01*
X57021546Y-80671617D01*
X57032033Y-80676755D01*
X57070307Y-80697797D01*
X57078810Y-80699979D01*
X57089708Y-80702778D01*
X57108113Y-80709078D01*
X57126504Y-80717037D01*
X57169650Y-80723870D01*
X57181068Y-80726235D01*
X57223381Y-80737100D01*
X57243416Y-80737100D01*
X57262815Y-80738627D01*
X57282596Y-80741760D01*
X57326074Y-80737650D01*
X57337744Y-80737100D01*
X84550056Y-80737100D01*
X84570562Y-80739364D01*
X84573465Y-80739272D01*
X84573467Y-80739273D01*
X84640672Y-80737161D01*
X84644568Y-80737100D01*
X84672149Y-80737100D01*
X84672150Y-80737100D01*
X84676119Y-80736598D01*
X84687765Y-80735680D01*
X84731427Y-80734309D01*
X84750659Y-80728720D01*
X84769718Y-80724774D01*
X84776899Y-80723867D01*
X84789592Y-80722264D01*
X84830207Y-80706182D01*
X84841244Y-80702403D01*
X84883190Y-80690218D01*
X84900429Y-80680022D01*
X84917902Y-80671462D01*
X84936532Y-80664086D01*
X84971864Y-80638414D01*
X84981630Y-80632000D01*
X85019218Y-80609771D01*
X85019217Y-80609771D01*
X85019220Y-80609770D01*
X85033385Y-80595604D01*
X85048173Y-80582973D01*
X85064387Y-80571194D01*
X85092238Y-80537526D01*
X85100079Y-80528909D01*
X93418990Y-72209999D01*
X108814699Y-72209999D01*
X108833865Y-72441299D01*
X108833865Y-72441301D01*
X108833866Y-72441305D01*
X108890843Y-72666300D01*
X108984076Y-72878849D01*
X109111021Y-73073153D01*
X109268216Y-73243913D01*
X109451374Y-73386470D01*
X109655497Y-73496936D01*
X109745351Y-73527783D01*
X109875015Y-73572297D01*
X109875017Y-73572297D01*
X109875019Y-73572298D01*
X110103951Y-73610500D01*
X110336048Y-73610500D01*
X110336049Y-73610500D01*
X110564981Y-73572298D01*
X110784503Y-73496936D01*
X110988626Y-73386470D01*
X111171784Y-73243913D01*
X111328979Y-73073153D01*
X111455924Y-72878849D01*
X111549157Y-72666300D01*
X111606134Y-72441305D01*
X111625300Y-72210000D01*
X111606134Y-71978695D01*
X111549157Y-71753700D01*
X111455924Y-71541151D01*
X111328979Y-71346847D01*
X111233831Y-71243488D01*
X111205059Y-71190737D01*
X111204466Y-71130650D01*
X111232193Y-71077340D01*
X111281729Y-71043325D01*
X111362088Y-71013352D01*
X111477188Y-70927188D01*
X111563352Y-70812089D01*
X111613597Y-70677375D01*
X111620000Y-70617824D01*
X111620000Y-69920000D01*
X108820000Y-69920000D01*
X108820000Y-70617824D01*
X108826402Y-70677375D01*
X108876647Y-70812089D01*
X108962811Y-70927188D01*
X109077910Y-71013352D01*
X109158271Y-71043325D01*
X109207806Y-71077340D01*
X109235533Y-71130650D01*
X109234940Y-71190736D01*
X109206167Y-71243489D01*
X109111022Y-71346844D01*
X108984076Y-71541150D01*
X108890844Y-71753696D01*
X108890842Y-71753700D01*
X108890843Y-71753700D01*
X108847564Y-71924606D01*
X108833865Y-71978700D01*
X108814699Y-72209999D01*
X93418990Y-72209999D01*
X96208989Y-69420000D01*
X108820000Y-69420000D01*
X109970000Y-69420000D01*
X109970000Y-68270000D01*
X110470000Y-68270000D01*
X110470000Y-69420000D01*
X111620000Y-69420000D01*
X111620000Y-68722176D01*
X111613597Y-68662624D01*
X111563352Y-68527910D01*
X111477188Y-68412811D01*
X111362089Y-68326647D01*
X111227375Y-68276402D01*
X111167824Y-68270000D01*
X110470000Y-68270000D01*
X109970000Y-68270000D01*
X109272176Y-68270000D01*
X109212624Y-68276402D01*
X109077910Y-68326647D01*
X108962811Y-68412811D01*
X108876647Y-68527910D01*
X108826402Y-68662624D01*
X108820000Y-68722176D01*
X108820000Y-69420000D01*
X96208989Y-69420000D01*
X99418989Y-66210000D01*
X108814699Y-66210000D01*
X108833865Y-66441299D01*
X108833865Y-66441301D01*
X108833866Y-66441305D01*
X108890843Y-66666300D01*
X108890844Y-66666303D01*
X108938390Y-66774696D01*
X108984076Y-66878849D01*
X109111021Y-67073153D01*
X109268216Y-67243913D01*
X109451374Y-67386470D01*
X109655497Y-67496936D01*
X109720624Y-67519294D01*
X109875015Y-67572297D01*
X109875017Y-67572297D01*
X109875019Y-67572298D01*
X110103951Y-67610500D01*
X110336048Y-67610500D01*
X110336049Y-67610500D01*
X110564981Y-67572298D01*
X110784503Y-67496936D01*
X110988626Y-67386470D01*
X111171784Y-67243913D01*
X111328979Y-67073153D01*
X111455924Y-66878849D01*
X111549157Y-66666300D01*
X111606134Y-66441305D01*
X111625300Y-66210000D01*
X111606134Y-65978695D01*
X111549157Y-65753700D01*
X111455924Y-65541151D01*
X111328979Y-65346847D01*
X111233831Y-65243488D01*
X111205059Y-65190737D01*
X111204466Y-65130650D01*
X111232193Y-65077340D01*
X111281729Y-65043325D01*
X111362088Y-65013352D01*
X111477188Y-64927188D01*
X111563352Y-64812089D01*
X111613597Y-64677375D01*
X111620000Y-64617824D01*
X111620000Y-63920000D01*
X108820000Y-63920000D01*
X108820000Y-64617824D01*
X108826402Y-64677375D01*
X108876647Y-64812089D01*
X108962811Y-64927188D01*
X109077910Y-65013352D01*
X109158271Y-65043325D01*
X109207806Y-65077340D01*
X109235533Y-65130650D01*
X109234940Y-65190736D01*
X109206167Y-65243489D01*
X109111022Y-65346844D01*
X108984076Y-65541150D01*
X108890844Y-65753696D01*
X108890842Y-65753700D01*
X108890843Y-65753700D01*
X108837538Y-65964197D01*
X108833865Y-65978700D01*
X108814699Y-66210000D01*
X99418989Y-66210000D01*
X100655015Y-64973974D01*
X100683526Y-64952684D01*
X100716908Y-64940368D01*
X100813003Y-64919944D01*
X100985930Y-64842951D01*
X101139071Y-64731688D01*
X101265733Y-64591016D01*
X101360379Y-64427084D01*
X101418874Y-64247056D01*
X101438660Y-64058800D01*
X101418874Y-63870544D01*
X101383456Y-63761539D01*
X101360379Y-63690515D01*
X101265733Y-63526583D01*
X101169765Y-63420000D01*
X108820000Y-63420000D01*
X109970000Y-63420000D01*
X109970000Y-62270000D01*
X110470000Y-62270000D01*
X110470000Y-63420000D01*
X111620000Y-63420000D01*
X111620000Y-62722176D01*
X111613597Y-62662624D01*
X111563352Y-62527910D01*
X111477188Y-62412811D01*
X111362089Y-62326647D01*
X111227375Y-62276402D01*
X111167824Y-62270000D01*
X110470000Y-62270000D01*
X109970000Y-62270000D01*
X109272176Y-62270000D01*
X109212624Y-62276402D01*
X109077910Y-62326647D01*
X108962811Y-62412811D01*
X108876647Y-62527910D01*
X108826402Y-62662624D01*
X108820000Y-62722176D01*
X108820000Y-63420000D01*
X101169765Y-63420000D01*
X101139070Y-63385910D01*
X100985930Y-63274648D01*
X100813002Y-63197655D01*
X100627848Y-63158300D01*
X100627846Y-63158300D01*
X100438554Y-63158300D01*
X100438552Y-63158300D01*
X100253397Y-63197655D01*
X100080469Y-63274648D01*
X99927329Y-63385910D01*
X99800666Y-63526583D01*
X99706020Y-63690515D01*
X99647526Y-63870542D01*
X99627740Y-64058800D01*
X99638036Y-64156770D01*
X99631602Y-64211123D01*
X99602396Y-64257411D01*
X84410028Y-79449781D01*
X84369800Y-79476661D01*
X84322347Y-79486100D01*
X81553762Y-79486100D01*
X81511774Y-79475526D01*
X81471504Y-79486100D01*
X60195455Y-79486100D01*
X60135719Y-79470763D01*
X60090760Y-79428544D01*
X60071700Y-79369889D01*
X60083255Y-79309307D01*
X60122565Y-79261785D01*
X60123666Y-79260985D01*
X60158235Y-79243370D01*
X60196556Y-79237300D01*
X81458279Y-79237300D01*
X81465766Y-79237526D01*
X81478991Y-79238326D01*
X81511774Y-79249087D01*
X81531410Y-79240131D01*
X81546858Y-79237300D01*
X81584982Y-79230313D01*
X81592381Y-79229187D01*
X81652072Y-79221940D01*
X81661535Y-79218350D01*
X81683158Y-79212322D01*
X81693132Y-79210495D01*
X81748008Y-79185796D01*
X81754873Y-79182952D01*
X81811130Y-79161618D01*
X81819470Y-79155860D01*
X81839019Y-79144835D01*
X81848257Y-79140678D01*
X81895613Y-79103575D01*
X81901620Y-79099155D01*
X81951129Y-79064983D01*
X81991023Y-79019950D01*
X81996124Y-79014531D01*
X93250131Y-67760524D01*
X93255550Y-67755423D01*
X93300583Y-67715529D01*
X93334777Y-67665989D01*
X93339170Y-67660019D01*
X93376278Y-67612656D01*
X93380435Y-67603418D01*
X93391461Y-67583868D01*
X93397218Y-67575530D01*
X93418552Y-67519274D01*
X93421394Y-67512411D01*
X93446095Y-67457531D01*
X93447922Y-67447556D01*
X93453949Y-67425939D01*
X93457540Y-67416472D01*
X93464787Y-67356779D01*
X93465914Y-67349377D01*
X93476758Y-67290206D01*
X93473126Y-67230166D01*
X93472900Y-67222679D01*
X93472900Y-63071592D01*
X93481136Y-63027155D01*
X93504750Y-62988620D01*
X93504933Y-62988416D01*
X93599579Y-62824484D01*
X93632821Y-62722176D01*
X93658074Y-62644456D01*
X93677860Y-62456200D01*
X93658074Y-62267944D01*
X93599705Y-62088304D01*
X93599579Y-62087915D01*
X93504933Y-61923983D01*
X93378270Y-61783310D01*
X93225130Y-61672048D01*
X93052202Y-61595055D01*
X92867048Y-61555700D01*
X92867046Y-61555700D01*
X92677754Y-61555700D01*
X92677752Y-61555700D01*
X92492597Y-61595055D01*
X92319669Y-61672048D01*
X92166529Y-61783310D01*
X92039866Y-61923983D01*
X91992087Y-62006741D01*
X91946700Y-62052128D01*
X91884700Y-62068741D01*
X91822700Y-62052128D01*
X91777313Y-62006741D01*
X91760700Y-61944741D01*
X91760700Y-61727652D01*
X91770139Y-61680199D01*
X91797019Y-61639971D01*
X92554172Y-60882819D01*
X92594400Y-60855939D01*
X92641853Y-60846500D01*
X98520253Y-60846500D01*
X98570688Y-60857220D01*
X98612401Y-60887526D01*
X98618129Y-60893888D01*
X98771270Y-61005151D01*
X98771271Y-61005151D01*
X98771272Y-61005152D01*
X98944197Y-61082144D01*
X99129352Y-61121500D01*
X99129354Y-61121500D01*
X99318646Y-61121500D01*
X99318648Y-61121500D01*
X99442084Y-61095262D01*
X99503803Y-61082144D01*
X99676730Y-61005151D01*
X99829871Y-60893888D01*
X99956533Y-60753216D01*
X100051179Y-60589284D01*
X100109674Y-60409256D01*
X100129460Y-60221000D01*
X100128304Y-60210000D01*
X108814699Y-60210000D01*
X108833865Y-60441299D01*
X108833865Y-60441301D01*
X108833866Y-60441305D01*
X108890843Y-60666300D01*
X108984076Y-60878849D01*
X109111021Y-61073153D01*
X109268216Y-61243913D01*
X109451374Y-61386470D01*
X109655497Y-61496936D01*
X109765258Y-61534617D01*
X109875015Y-61572297D01*
X109875017Y-61572297D01*
X109875019Y-61572298D01*
X110103951Y-61610500D01*
X110336048Y-61610500D01*
X110336049Y-61610500D01*
X110564981Y-61572298D01*
X110784503Y-61496936D01*
X110988626Y-61386470D01*
X111171784Y-61243913D01*
X111328979Y-61073153D01*
X111455924Y-60878849D01*
X111549157Y-60666300D01*
X111606134Y-60441305D01*
X111625300Y-60210000D01*
X111606134Y-59978695D01*
X111549157Y-59753700D01*
X111455924Y-59541151D01*
X111328979Y-59346847D01*
X111233831Y-59243488D01*
X111205059Y-59190737D01*
X111204466Y-59130650D01*
X111232193Y-59077340D01*
X111281729Y-59043325D01*
X111362088Y-59013352D01*
X111477188Y-58927188D01*
X111563352Y-58812089D01*
X111613597Y-58677375D01*
X111620000Y-58617824D01*
X111620000Y-57920000D01*
X108820000Y-57920000D01*
X108820000Y-58617824D01*
X108826402Y-58677375D01*
X108876647Y-58812089D01*
X108962811Y-58927188D01*
X109077910Y-59013352D01*
X109158271Y-59043325D01*
X109207806Y-59077340D01*
X109235533Y-59130650D01*
X109234940Y-59190736D01*
X109206167Y-59243489D01*
X109111022Y-59346844D01*
X108984076Y-59541150D01*
X108890844Y-59753696D01*
X108833865Y-59978700D01*
X108814699Y-60210000D01*
X100128304Y-60210000D01*
X100109674Y-60032744D01*
X100051179Y-59852716D01*
X100051179Y-59852715D01*
X99956533Y-59688783D01*
X99829870Y-59548110D01*
X99676730Y-59436848D01*
X99503802Y-59359855D01*
X99318648Y-59320500D01*
X99318646Y-59320500D01*
X99129354Y-59320500D01*
X99129352Y-59320500D01*
X98944197Y-59359855D01*
X98771272Y-59436847D01*
X98669175Y-59511024D01*
X98618129Y-59548112D01*
X98612401Y-59554473D01*
X98570688Y-59584780D01*
X98520253Y-59595500D01*
X92414140Y-59595500D01*
X92393636Y-59593236D01*
X92323544Y-59595439D01*
X92319650Y-59595500D01*
X92292048Y-59595500D01*
X92288053Y-59596004D01*
X92276429Y-59596918D01*
X92232768Y-59598290D01*
X92213528Y-59603880D01*
X92194481Y-59607825D01*
X92174609Y-59610335D01*
X92133999Y-59626413D01*
X92122954Y-59630194D01*
X92081011Y-59642380D01*
X92063769Y-59652578D01*
X92046297Y-59661138D01*
X92027666Y-59668514D01*
X91992338Y-59694181D01*
X91982580Y-59700591D01*
X91944979Y-59722829D01*
X91930810Y-59736998D01*
X91916022Y-59749628D01*
X91899813Y-59761405D01*
X91871972Y-59795058D01*
X91864111Y-59803696D01*
X90751408Y-60916399D01*
X90735310Y-60929296D01*
X90687296Y-60980425D01*
X90684591Y-60983217D01*
X90665074Y-61002734D01*
X90662615Y-61005905D01*
X90655042Y-61014772D01*
X90625135Y-61046620D01*
X90615485Y-61064174D01*
X90604809Y-61080428D01*
X90592526Y-61096263D01*
X90575175Y-61136358D01*
X90570038Y-61146844D01*
X90549002Y-61185107D01*
X90544021Y-61204509D01*
X90537720Y-61222911D01*
X90529761Y-61241302D01*
X90522928Y-61284442D01*
X90520560Y-61295874D01*
X90509700Y-61338178D01*
X90509700Y-61358216D01*
X90508173Y-61377615D01*
X90505040Y-61397394D01*
X90509150Y-61440875D01*
X90509700Y-61452544D01*
X90509700Y-66288348D01*
X90500261Y-66335801D01*
X90473381Y-66376029D01*
X80904828Y-75944581D01*
X80864600Y-75971461D01*
X80817147Y-75980900D01*
X45228576Y-75980900D01*
X45168839Y-75965562D01*
X45123879Y-75923343D01*
X45104821Y-75864686D01*
X45116377Y-75804104D01*
X45155690Y-75756582D01*
X45155746Y-75756540D01*
X45157471Y-75755288D01*
X45284133Y-75614616D01*
X45378779Y-75450684D01*
X45437274Y-75270656D01*
X45442464Y-75221266D01*
X45453863Y-75180850D01*
X45478100Y-75146555D01*
X46888237Y-73736419D01*
X46928466Y-73709539D01*
X46975919Y-73700100D01*
X52713853Y-73700100D01*
X52713856Y-73700100D01*
X52748038Y-73691674D01*
X52762736Y-73688981D01*
X52797672Y-73684740D01*
X52830572Y-73672262D01*
X52844850Y-73667812D01*
X52879025Y-73659390D01*
X52910182Y-73643036D01*
X52923823Y-73636897D01*
X52956730Y-73624418D01*
X52985695Y-73604423D01*
X52998497Y-73596684D01*
X53029652Y-73580334D01*
X53055985Y-73557005D01*
X53067762Y-73547776D01*
X53096729Y-73527783D01*
X53120064Y-73501441D01*
X53130641Y-73490864D01*
X53156983Y-73467529D01*
X53176976Y-73438562D01*
X53186205Y-73426785D01*
X53209532Y-73400454D01*
X53209531Y-73400454D01*
X53209534Y-73400452D01*
X53225889Y-73369287D01*
X53233622Y-73356497D01*
X53253618Y-73327530D01*
X53253617Y-73327530D01*
X53262176Y-73315133D01*
X53262562Y-73315400D01*
X53280315Y-73287940D01*
X54173331Y-72394924D01*
X54178750Y-72389823D01*
X54223783Y-72349929D01*
X54257955Y-72300420D01*
X54262375Y-72294413D01*
X54299478Y-72247057D01*
X54303635Y-72237819D01*
X54314660Y-72218270D01*
X54320418Y-72209930D01*
X54341752Y-72153673D01*
X54344596Y-72146808D01*
X54369295Y-72091932D01*
X54371122Y-72081958D01*
X54377152Y-72060331D01*
X54380740Y-72050871D01*
X54387987Y-71991184D01*
X54389114Y-71983778D01*
X54390045Y-71978700D01*
X54399958Y-71924606D01*
X54396326Y-71864566D01*
X54396100Y-71857079D01*
X54396100Y-33248110D01*
X54396326Y-33240623D01*
X54396393Y-33239503D01*
X54399957Y-33180594D01*
X54389109Y-33121401D01*
X54387992Y-33114056D01*
X54380740Y-33054328D01*
X54377146Y-33044852D01*
X54371120Y-33023236D01*
X54369294Y-33013268D01*
X54344597Y-32958395D01*
X54341755Y-32951534D01*
X54320418Y-32895270D01*
X54314658Y-32886926D01*
X54303639Y-32867390D01*
X54299478Y-32858143D01*
X54296528Y-32854378D01*
X54262385Y-32810796D01*
X54257954Y-32804777D01*
X54223783Y-32755271D01*
X54178753Y-32715378D01*
X54173315Y-32710258D01*
X53040140Y-31577083D01*
X53035022Y-31571647D01*
X52995129Y-31526617D01*
X52945632Y-31492451D01*
X52939605Y-31488016D01*
X52892254Y-31450920D01*
X52883013Y-31446761D01*
X52863473Y-31435741D01*
X52855130Y-31429982D01*
X52855127Y-31429981D01*
X52855126Y-31429980D01*
X52798901Y-31408656D01*
X52791983Y-31405791D01*
X52737129Y-31381103D01*
X52727152Y-31379275D01*
X52705539Y-31373250D01*
X52696073Y-31369660D01*
X52636372Y-31362410D01*
X52628971Y-31361283D01*
X52569807Y-31350441D01*
X52509766Y-31354074D01*
X52502279Y-31354300D01*
X50437673Y-31354300D01*
X50380416Y-31340289D01*
X50336098Y-31301423D01*
X50276046Y-31215659D01*
X50115140Y-31054753D01*
X49928733Y-30924231D01*
X49870725Y-30897182D01*
X49818549Y-30851425D01*
X49799129Y-30784800D01*
X49818549Y-30718175D01*
X49870725Y-30672418D01*
X49928734Y-30645368D01*
X49947254Y-30632400D01*
X55228540Y-30632400D01*
X55248326Y-30820657D01*
X55277431Y-30910231D01*
X55283500Y-30948549D01*
X55283500Y-71689994D01*
X55283091Y-71700057D01*
X55278799Y-71752767D01*
X55289502Y-71831332D01*
X55289910Y-71834662D01*
X55298498Y-71913625D01*
X55303732Y-71935956D01*
X55303772Y-71936067D01*
X55303773Y-71936068D01*
X55331129Y-72010534D01*
X55332228Y-72013654D01*
X55351509Y-72070876D01*
X55357594Y-72088933D01*
X55367508Y-72109623D01*
X55384198Y-72135733D01*
X55410295Y-72176562D01*
X55412037Y-72179371D01*
X55452762Y-72247057D01*
X55452990Y-72247435D01*
X55467116Y-72265505D01*
X55467199Y-72265588D01*
X55467200Y-72265589D01*
X55523303Y-72321692D01*
X55525609Y-72324062D01*
X55580151Y-72381641D01*
X55580152Y-72381642D01*
X55580234Y-72381728D01*
X55598118Y-72396507D01*
X57841398Y-74639787D01*
X57848224Y-74647191D01*
X57882463Y-74687500D01*
X57917475Y-74714115D01*
X57945573Y-74735475D01*
X57948218Y-74737543D01*
X58010136Y-74787314D01*
X58029621Y-74799400D01*
X58029733Y-74799451D01*
X58029736Y-74799454D01*
X58101743Y-74832768D01*
X58104742Y-74834205D01*
X58175895Y-74869494D01*
X58197514Y-74877105D01*
X58197629Y-74877130D01*
X58197633Y-74877132D01*
X58275091Y-74894181D01*
X58278354Y-74894946D01*
X58355413Y-74914111D01*
X58378185Y-74916900D01*
X58378303Y-74916900D01*
X58457573Y-74916900D01*
X58460930Y-74916945D01*
X58540232Y-74919093D01*
X58540233Y-74919092D01*
X58540351Y-74919096D01*
X58563450Y-74916900D01*
X80478394Y-74916900D01*
X80488457Y-74917309D01*
X80492124Y-74917607D01*
X80541167Y-74921601D01*
X80619748Y-74910893D01*
X80623074Y-74910486D01*
X80655583Y-74906951D01*
X80702031Y-74901901D01*
X80724351Y-74896669D01*
X80724463Y-74896627D01*
X80724468Y-74896627D01*
X80798983Y-74869251D01*
X80802033Y-74868177D01*
X80877221Y-74842844D01*
X80877224Y-74842841D01*
X80877340Y-74842803D01*
X80898020Y-74832892D01*
X80898110Y-74832833D01*
X80898116Y-74832832D01*
X80965004Y-74790077D01*
X80967742Y-74788378D01*
X81035736Y-74747470D01*
X81035735Y-74747470D01*
X81035836Y-74747410D01*
X81053899Y-74733289D01*
X81053986Y-74733201D01*
X81053989Y-74733200D01*
X81110091Y-74677096D01*
X81112422Y-74674827D01*
X81170041Y-74620249D01*
X81170042Y-74620247D01*
X81170127Y-74620167D01*
X81184905Y-74602282D01*
X84952190Y-70834996D01*
X84959570Y-70828192D01*
X84999900Y-70793937D01*
X85047914Y-70730774D01*
X85049931Y-70728193D01*
X85099642Y-70666353D01*
X85099644Y-70666347D01*
X85099716Y-70666259D01*
X85111800Y-70646779D01*
X85111851Y-70646666D01*
X85111854Y-70646664D01*
X85145156Y-70574679D01*
X85146595Y-70571677D01*
X85181837Y-70500621D01*
X85181838Y-70500616D01*
X85181895Y-70500502D01*
X85189506Y-70478883D01*
X85206579Y-70401318D01*
X85207346Y-70398045D01*
X85211464Y-70381489D01*
X85226484Y-70321094D01*
X85226484Y-70321092D01*
X85226511Y-70320984D01*
X85229300Y-70298220D01*
X85229300Y-70218827D01*
X85229345Y-70215470D01*
X85231496Y-70136048D01*
X85229300Y-70112950D01*
X85229300Y-58620451D01*
X85238739Y-58572998D01*
X85265619Y-58532770D01*
X86378389Y-57420000D01*
X108820000Y-57420000D01*
X109970000Y-57420000D01*
X109970000Y-56270000D01*
X110470000Y-56270000D01*
X110470000Y-57420000D01*
X111620000Y-57420000D01*
X111620000Y-56722176D01*
X111613597Y-56662624D01*
X111563352Y-56527910D01*
X111477188Y-56412811D01*
X111362089Y-56326647D01*
X111227375Y-56276402D01*
X111167824Y-56270000D01*
X110470000Y-56270000D01*
X109970000Y-56270000D01*
X109272176Y-56270000D01*
X109212624Y-56276402D01*
X109077910Y-56326647D01*
X108962811Y-56412811D01*
X108876647Y-56527910D01*
X108826402Y-56662624D01*
X108820000Y-56722176D01*
X108820000Y-57420000D01*
X86378389Y-57420000D01*
X87895170Y-55903219D01*
X87935398Y-55876339D01*
X87982851Y-55866900D01*
X88366732Y-55866900D01*
X88404240Y-55874872D01*
X88404249Y-55874835D01*
X88602152Y-55916900D01*
X88602154Y-55916900D01*
X88791446Y-55916900D01*
X88791448Y-55916900D01*
X88914883Y-55890662D01*
X88976603Y-55877544D01*
X89149530Y-55800551D01*
X89213686Y-55753939D01*
X89302670Y-55689289D01*
X89429333Y-55548616D01*
X89523979Y-55384684D01*
X89531578Y-55361296D01*
X89582474Y-55204656D01*
X89602260Y-55016400D01*
X89582474Y-54828144D01*
X89523979Y-54648116D01*
X89523979Y-54648115D01*
X89429333Y-54484183D01*
X89302670Y-54343510D01*
X89149530Y-54232248D01*
X88976602Y-54155255D01*
X88791448Y-54115900D01*
X88791446Y-54115900D01*
X88602154Y-54115900D01*
X88602152Y-54115900D01*
X88404249Y-54157965D01*
X88404240Y-54157927D01*
X88366732Y-54165900D01*
X87618806Y-54165900D01*
X87608743Y-54165491D01*
X87593104Y-54164217D01*
X87556033Y-54161199D01*
X87556032Y-54161199D01*
X87477464Y-54171902D01*
X87474136Y-54172310D01*
X87409708Y-54179317D01*
X87395290Y-54180886D01*
X87395289Y-54180886D01*
X87395172Y-54180899D01*
X87372836Y-54186134D01*
X87298275Y-54213525D01*
X87295112Y-54214639D01*
X87219877Y-54239990D01*
X87199173Y-54249910D01*
X87132259Y-54292680D01*
X87129408Y-54294449D01*
X87061365Y-54335389D01*
X87043295Y-54349516D01*
X86987159Y-54405651D01*
X86984756Y-54407989D01*
X86927075Y-54462629D01*
X86912294Y-54480515D01*
X83805410Y-57587399D01*
X83798008Y-57594224D01*
X83757698Y-57628464D01*
X83709722Y-57691573D01*
X83707659Y-57694212D01*
X83657886Y-57756135D01*
X83645798Y-57775624D01*
X83612444Y-57847716D01*
X83610994Y-57850741D01*
X83575708Y-57921890D01*
X83568093Y-57943519D01*
X83551019Y-58021083D01*
X83550253Y-58024349D01*
X83531089Y-58101410D01*
X83528300Y-58124190D01*
X83528300Y-58203573D01*
X83528255Y-58206930D01*
X83526103Y-58286351D01*
X83528300Y-58309450D01*
X83528300Y-69801949D01*
X83518861Y-69849402D01*
X83491981Y-69889630D01*
X80202030Y-73179581D01*
X80161802Y-73206461D01*
X80114349Y-73215900D01*
X58874450Y-73215900D01*
X58826997Y-73206461D01*
X58786769Y-73179581D01*
X57020819Y-71413630D01*
X56993939Y-71373402D01*
X56984500Y-71325949D01*
X56984500Y-70154800D01*
X60213331Y-70154800D01*
X60233164Y-70381489D01*
X60292061Y-70601297D01*
X60388232Y-70807535D01*
X60518753Y-70993940D01*
X60679659Y-71154846D01*
X60866064Y-71285367D01*
X60866065Y-71285367D01*
X60866066Y-71285368D01*
X61072304Y-71381539D01*
X61292108Y-71440435D01*
X61443236Y-71453657D01*
X61518799Y-71460268D01*
X61518799Y-71460267D01*
X61518800Y-71460268D01*
X61745492Y-71440435D01*
X61965296Y-71381539D01*
X62171534Y-71285368D01*
X62357939Y-71154847D01*
X62518847Y-70993939D01*
X62649368Y-70807534D01*
X62745539Y-70601296D01*
X62804435Y-70381492D01*
X62824268Y-70154800D01*
X62804435Y-69928108D01*
X62745539Y-69708304D01*
X62649368Y-69502066D01*
X62591905Y-69420000D01*
X62518846Y-69315659D01*
X62357940Y-69154753D01*
X62171533Y-69024231D01*
X62113525Y-68997182D01*
X62061349Y-68951425D01*
X62041929Y-68884800D01*
X62061349Y-68818175D01*
X62113525Y-68772418D01*
X62171534Y-68745368D01*
X62357939Y-68614847D01*
X62518847Y-68453939D01*
X62649368Y-68267534D01*
X62745539Y-68061296D01*
X62804435Y-67841492D01*
X62824268Y-67614800D01*
X62804435Y-67388108D01*
X62745539Y-67168304D01*
X62649368Y-66962066D01*
X62642201Y-66951831D01*
X62518846Y-66775659D01*
X62357940Y-66614753D01*
X62286799Y-66564940D01*
X62243845Y-66511969D01*
X62235397Y-66444296D01*
X62264011Y-66382391D01*
X62321032Y-66344979D01*
X62408200Y-66317816D01*
X62553675Y-66229874D01*
X62673874Y-66109675D01*
X62761819Y-65964196D01*
X62812390Y-65801906D01*
X62818800Y-65731376D01*
X62818800Y-65324800D01*
X60218801Y-65324800D01*
X60218801Y-65731379D01*
X60225208Y-65801904D01*
X60275781Y-65964197D01*
X60363725Y-66109675D01*
X60483924Y-66229874D01*
X60629399Y-66317816D01*
X60716567Y-66344979D01*
X60773588Y-66382391D01*
X60802202Y-66444296D01*
X60793755Y-66511969D01*
X60750801Y-66564940D01*
X60679657Y-66614755D01*
X60518753Y-66775659D01*
X60388232Y-66962064D01*
X60292061Y-67168302D01*
X60233164Y-67388110D01*
X60213331Y-67614800D01*
X60233164Y-67841489D01*
X60292061Y-68061297D01*
X60388232Y-68267535D01*
X60518753Y-68453940D01*
X60679659Y-68614846D01*
X60747894Y-68662624D01*
X60866066Y-68745368D01*
X60924075Y-68772418D01*
X60976250Y-68818175D01*
X60995669Y-68884800D01*
X60976250Y-68951425D01*
X60924075Y-68997182D01*
X60866063Y-69024233D01*
X60679659Y-69154753D01*
X60518753Y-69315659D01*
X60388232Y-69502064D01*
X60292061Y-69708302D01*
X60233164Y-69928110D01*
X60213331Y-70154800D01*
X56984500Y-70154800D01*
X56984500Y-62534799D01*
X60213331Y-62534799D01*
X60233164Y-62761489D01*
X60292061Y-62981297D01*
X60388232Y-63187535D01*
X60518753Y-63373940D01*
X60679659Y-63534846D01*
X60750800Y-63584659D01*
X60793754Y-63637629D01*
X60802202Y-63705302D01*
X60773588Y-63767207D01*
X60716568Y-63804619D01*
X60629402Y-63831781D01*
X60483924Y-63919725D01*
X60363725Y-64039924D01*
X60275780Y-64185403D01*
X60225209Y-64347693D01*
X60218800Y-64418224D01*
X60218800Y-64824800D01*
X62818799Y-64824800D01*
X62818799Y-64418221D01*
X62812391Y-64347695D01*
X62761818Y-64185402D01*
X62673874Y-64039924D01*
X62553675Y-63919725D01*
X62408197Y-63831781D01*
X62321031Y-63804619D01*
X62264011Y-63767207D01*
X62235397Y-63705302D01*
X62243845Y-63637629D01*
X62286798Y-63584659D01*
X62357939Y-63534847D01*
X62518847Y-63373939D01*
X62649368Y-63187534D01*
X62678622Y-63124800D01*
X63408800Y-63124800D01*
X63408800Y-71524800D01*
X77408800Y-71524800D01*
X77408800Y-70154800D01*
X77993331Y-70154800D01*
X78013164Y-70381489D01*
X78072061Y-70601297D01*
X78168232Y-70807535D01*
X78298753Y-70993940D01*
X78459659Y-71154846D01*
X78646064Y-71285367D01*
X78646065Y-71285367D01*
X78646066Y-71285368D01*
X78852304Y-71381539D01*
X79072108Y-71440435D01*
X79223236Y-71453657D01*
X79298799Y-71460268D01*
X79298799Y-71460267D01*
X79298800Y-71460268D01*
X79525492Y-71440435D01*
X79745296Y-71381539D01*
X79951534Y-71285368D01*
X80137939Y-71154847D01*
X80298847Y-70993939D01*
X80429368Y-70807534D01*
X80525539Y-70601296D01*
X80584435Y-70381492D01*
X80604268Y-70154800D01*
X80584435Y-69928108D01*
X80525539Y-69708304D01*
X80429368Y-69502066D01*
X80371905Y-69420000D01*
X80298846Y-69315659D01*
X80137940Y-69154753D01*
X79951533Y-69024231D01*
X79893525Y-68997182D01*
X79841349Y-68951425D01*
X79821929Y-68884800D01*
X79841349Y-68818175D01*
X79893525Y-68772418D01*
X79951534Y-68745368D01*
X80137939Y-68614847D01*
X80298847Y-68453939D01*
X80429368Y-68267534D01*
X80525539Y-68061296D01*
X80584435Y-67841492D01*
X80604268Y-67614800D01*
X80584435Y-67388108D01*
X80525539Y-67168304D01*
X80429368Y-66962066D01*
X80422201Y-66951831D01*
X80298846Y-66775659D01*
X80137940Y-66614753D01*
X80066799Y-66564940D01*
X80023845Y-66511969D01*
X80015397Y-66444296D01*
X80044011Y-66382391D01*
X80101032Y-66344979D01*
X80188200Y-66317816D01*
X80333675Y-66229874D01*
X80453874Y-66109675D01*
X80541819Y-65964196D01*
X80592390Y-65801906D01*
X80598800Y-65731376D01*
X80598800Y-65324800D01*
X77998801Y-65324800D01*
X77998801Y-65731379D01*
X78005208Y-65801904D01*
X78055781Y-65964197D01*
X78143725Y-66109675D01*
X78263924Y-66229874D01*
X78409399Y-66317816D01*
X78496567Y-66344979D01*
X78553588Y-66382391D01*
X78582202Y-66444296D01*
X78573755Y-66511969D01*
X78530801Y-66564940D01*
X78459657Y-66614755D01*
X78298753Y-66775659D01*
X78168232Y-66962064D01*
X78072061Y-67168302D01*
X78013164Y-67388110D01*
X77993331Y-67614800D01*
X78013164Y-67841489D01*
X78072061Y-68061297D01*
X78168232Y-68267535D01*
X78298753Y-68453940D01*
X78459659Y-68614846D01*
X78527894Y-68662624D01*
X78646066Y-68745368D01*
X78704075Y-68772418D01*
X78756250Y-68818175D01*
X78775669Y-68884800D01*
X78756250Y-68951425D01*
X78704075Y-68997182D01*
X78646063Y-69024233D01*
X78459659Y-69154753D01*
X78298753Y-69315659D01*
X78168232Y-69502064D01*
X78072061Y-69708302D01*
X78013164Y-69928110D01*
X77993331Y-70154800D01*
X77408800Y-70154800D01*
X77408800Y-63124800D01*
X63408800Y-63124800D01*
X62678622Y-63124800D01*
X62745539Y-62981296D01*
X62804435Y-62761492D01*
X62824268Y-62534800D01*
X62824268Y-62534799D01*
X77993331Y-62534799D01*
X78013164Y-62761489D01*
X78072061Y-62981297D01*
X78168232Y-63187535D01*
X78298753Y-63373940D01*
X78459659Y-63534846D01*
X78530800Y-63584659D01*
X78573754Y-63637629D01*
X78582202Y-63705302D01*
X78553588Y-63767207D01*
X78496568Y-63804619D01*
X78409402Y-63831781D01*
X78263924Y-63919725D01*
X78143725Y-64039924D01*
X78055780Y-64185403D01*
X78005209Y-64347693D01*
X77998800Y-64418224D01*
X77998800Y-64824800D01*
X80598799Y-64824800D01*
X80598799Y-64418221D01*
X80592391Y-64347695D01*
X80541818Y-64185402D01*
X80453874Y-64039924D01*
X80333675Y-63919725D01*
X80188197Y-63831781D01*
X80101031Y-63804619D01*
X80044011Y-63767207D01*
X80015397Y-63705302D01*
X80023845Y-63637629D01*
X80066798Y-63584659D01*
X80137939Y-63534847D01*
X80298847Y-63373939D01*
X80429368Y-63187534D01*
X80525539Y-62981296D01*
X80584435Y-62761492D01*
X80604268Y-62534800D01*
X80584435Y-62308108D01*
X80525539Y-62088304D01*
X80429368Y-61882066D01*
X80360220Y-61783312D01*
X80298846Y-61695659D01*
X80137940Y-61534753D01*
X79951533Y-61404231D01*
X79893525Y-61377182D01*
X79841349Y-61331425D01*
X79821929Y-61264800D01*
X79841349Y-61198175D01*
X79893525Y-61152418D01*
X79951534Y-61125368D01*
X80137939Y-60994847D01*
X80298847Y-60833939D01*
X80429368Y-60647534D01*
X80525539Y-60441296D01*
X80584435Y-60221492D01*
X80604268Y-59994800D01*
X80584435Y-59768108D01*
X80525539Y-59548304D01*
X80429368Y-59342066D01*
X80414267Y-59320500D01*
X80298846Y-59155659D01*
X80137940Y-58994753D01*
X79951536Y-58864233D01*
X79951534Y-58864232D01*
X79893522Y-58837180D01*
X79841348Y-58791423D01*
X79821929Y-58724797D01*
X79841349Y-58658172D01*
X79893521Y-58612419D01*
X79951534Y-58585368D01*
X80137939Y-58454847D01*
X80298847Y-58293939D01*
X80429368Y-58107534D01*
X80525539Y-57901296D01*
X80584435Y-57681492D01*
X80604268Y-57454800D01*
X80584435Y-57228108D01*
X80525539Y-57008304D01*
X80429368Y-56802066D01*
X80298847Y-56615661D01*
X80298846Y-56615659D01*
X80137940Y-56454753D01*
X79951533Y-56324231D01*
X79893525Y-56297182D01*
X79841349Y-56251425D01*
X79821929Y-56184800D01*
X79841349Y-56118175D01*
X79893525Y-56072418D01*
X79951534Y-56045368D01*
X80137939Y-55914847D01*
X80298847Y-55753939D01*
X80429368Y-55567534D01*
X80525539Y-55361296D01*
X80584435Y-55141492D01*
X80604268Y-54914800D01*
X80584435Y-54688108D01*
X80525539Y-54468304D01*
X80429368Y-54262066D01*
X80420856Y-54249910D01*
X80298846Y-54075659D01*
X80137940Y-53914753D01*
X80066799Y-53864940D01*
X80023845Y-53811969D01*
X80015397Y-53744296D01*
X80044011Y-53682391D01*
X80101032Y-53644979D01*
X80188200Y-53617816D01*
X80333675Y-53529874D01*
X80348150Y-53515399D01*
X96794540Y-53515399D01*
X96814326Y-53703657D01*
X96872820Y-53883684D01*
X96967466Y-54047616D01*
X97094129Y-54188289D01*
X97247269Y-54299551D01*
X97420197Y-54376544D01*
X97605352Y-54415900D01*
X97605354Y-54415900D01*
X97794646Y-54415900D01*
X97794648Y-54415900D01*
X97918083Y-54389662D01*
X97979803Y-54376544D01*
X98152730Y-54299551D01*
X98305871Y-54188288D01*
X98311598Y-54181926D01*
X98353312Y-54151620D01*
X98403747Y-54140900D01*
X100577653Y-54140900D01*
X100628088Y-54151620D01*
X100669801Y-54181926D01*
X100675529Y-54188288D01*
X100828670Y-54299551D01*
X100828671Y-54299551D01*
X100828672Y-54299552D01*
X101001597Y-54376544D01*
X101186752Y-54415900D01*
X101186754Y-54415900D01*
X101376046Y-54415900D01*
X101376048Y-54415900D01*
X101499483Y-54389662D01*
X101561203Y-54376544D01*
X101734130Y-54299551D01*
X101785727Y-54262064D01*
X101887270Y-54188289D01*
X101892998Y-54181928D01*
X102013933Y-54047616D01*
X102108579Y-53883684D01*
X102167074Y-53703656D01*
X102186860Y-53515400D01*
X102167074Y-53327144D01*
X102108579Y-53147116D01*
X102108579Y-53147115D01*
X102013933Y-52983183D01*
X101887270Y-52842510D01*
X101734130Y-52731248D01*
X101561202Y-52654255D01*
X101376048Y-52614900D01*
X101376046Y-52614900D01*
X101186754Y-52614900D01*
X101186752Y-52614900D01*
X101001597Y-52654255D01*
X100828672Y-52731247D01*
X100726576Y-52805424D01*
X100675529Y-52842512D01*
X100669801Y-52848873D01*
X100628088Y-52879180D01*
X100577653Y-52889900D01*
X98403747Y-52889900D01*
X98353312Y-52879180D01*
X98311598Y-52848873D01*
X98305871Y-52842512D01*
X98152730Y-52731249D01*
X98152729Y-52731248D01*
X98152727Y-52731247D01*
X97979802Y-52654255D01*
X97794648Y-52614900D01*
X97794646Y-52614900D01*
X97605354Y-52614900D01*
X97605352Y-52614900D01*
X97420197Y-52654255D01*
X97247269Y-52731248D01*
X97094129Y-52842510D01*
X96967466Y-52983183D01*
X96872820Y-53147115D01*
X96814326Y-53327142D01*
X96794540Y-53515399D01*
X80348150Y-53515399D01*
X80453874Y-53409675D01*
X80541819Y-53264196D01*
X80592390Y-53101906D01*
X80598800Y-53031376D01*
X80598800Y-52624800D01*
X77998801Y-52624800D01*
X77998801Y-53031379D01*
X78005208Y-53101904D01*
X78055781Y-53264197D01*
X78143725Y-53409675D01*
X78263924Y-53529874D01*
X78409399Y-53617816D01*
X78496567Y-53644979D01*
X78553588Y-53682391D01*
X78582202Y-53744296D01*
X78573755Y-53811969D01*
X78530801Y-53864940D01*
X78459657Y-53914755D01*
X78298753Y-54075659D01*
X78168232Y-54262064D01*
X78072061Y-54468302D01*
X78013164Y-54688110D01*
X77993331Y-54914799D01*
X78013164Y-55141489D01*
X78072061Y-55361297D01*
X78168232Y-55567535D01*
X78298753Y-55753940D01*
X78459659Y-55914846D01*
X78492927Y-55938140D01*
X78646066Y-56045368D01*
X78704073Y-56072417D01*
X78756249Y-56118173D01*
X78775669Y-56184797D01*
X78756251Y-56251422D01*
X78704076Y-56297180D01*
X78646066Y-56324231D01*
X78459659Y-56454753D01*
X78298753Y-56615659D01*
X78168232Y-56802064D01*
X78072061Y-57008302D01*
X78013164Y-57228110D01*
X77993331Y-57454799D01*
X78013164Y-57681489D01*
X78072061Y-57901297D01*
X78168232Y-58107535D01*
X78298753Y-58293940D01*
X78459659Y-58454846D01*
X78646063Y-58585366D01*
X78646066Y-58585368D01*
X78704075Y-58612418D01*
X78756250Y-58658175D01*
X78775669Y-58724800D01*
X78756250Y-58791425D01*
X78704075Y-58837182D01*
X78646063Y-58864233D01*
X78459659Y-58994753D01*
X78298753Y-59155659D01*
X78168232Y-59342064D01*
X78072061Y-59548302D01*
X78013164Y-59768110D01*
X77993331Y-59994799D01*
X78013164Y-60221489D01*
X78072061Y-60441297D01*
X78168232Y-60647535D01*
X78298753Y-60833940D01*
X78459659Y-60994846D01*
X78581884Y-61080428D01*
X78646066Y-61125368D01*
X78704073Y-61152417D01*
X78756249Y-61198173D01*
X78775669Y-61264797D01*
X78756251Y-61331422D01*
X78704076Y-61377180D01*
X78646066Y-61404231D01*
X78459659Y-61534753D01*
X78298753Y-61695659D01*
X78168232Y-61882064D01*
X78072061Y-62088302D01*
X78013164Y-62308110D01*
X77993331Y-62534799D01*
X62824268Y-62534799D01*
X62804435Y-62308108D01*
X62745539Y-62088304D01*
X62649368Y-61882066D01*
X62580220Y-61783312D01*
X62518846Y-61695659D01*
X62357940Y-61534753D01*
X62171533Y-61404231D01*
X62113525Y-61377182D01*
X62061349Y-61331425D01*
X62041929Y-61264800D01*
X62061349Y-61198175D01*
X62113525Y-61152418D01*
X62171534Y-61125368D01*
X62357939Y-60994847D01*
X62518847Y-60833939D01*
X62649368Y-60647534D01*
X62745539Y-60441296D01*
X62804435Y-60221492D01*
X62824268Y-59994800D01*
X62804435Y-59768108D01*
X62745539Y-59548304D01*
X62649368Y-59342066D01*
X62634267Y-59320500D01*
X62518846Y-59155659D01*
X62357940Y-58994753D01*
X62171536Y-58864233D01*
X62171534Y-58864232D01*
X62113522Y-58837180D01*
X62061348Y-58791423D01*
X62041929Y-58724797D01*
X62061349Y-58658172D01*
X62113521Y-58612419D01*
X62171534Y-58585368D01*
X62357939Y-58454847D01*
X62518847Y-58293939D01*
X62649368Y-58107534D01*
X62745539Y-57901296D01*
X62804435Y-57681492D01*
X62824268Y-57454800D01*
X62804435Y-57228108D01*
X62745539Y-57008304D01*
X62649368Y-56802066D01*
X62518847Y-56615661D01*
X62518846Y-56615659D01*
X62357940Y-56454753D01*
X62171533Y-56324231D01*
X62113525Y-56297182D01*
X62061349Y-56251425D01*
X62041929Y-56184800D01*
X62061349Y-56118175D01*
X62113525Y-56072418D01*
X62171534Y-56045368D01*
X62357939Y-55914847D01*
X62518847Y-55753939D01*
X62649368Y-55567534D01*
X62745539Y-55361296D01*
X62804435Y-55141492D01*
X62824268Y-54914800D01*
X62804435Y-54688108D01*
X62745539Y-54468304D01*
X62649368Y-54262066D01*
X62640856Y-54249910D01*
X62518846Y-54075659D01*
X62357940Y-53914753D01*
X62286799Y-53864940D01*
X62243845Y-53811969D01*
X62235397Y-53744296D01*
X62264011Y-53682391D01*
X62321032Y-53644979D01*
X62408200Y-53617816D01*
X62553675Y-53529874D01*
X62673874Y-53409675D01*
X62761819Y-53264196D01*
X62812390Y-53101906D01*
X62818800Y-53031376D01*
X62818800Y-52624800D01*
X60218801Y-52624800D01*
X60218801Y-53031379D01*
X60225208Y-53101904D01*
X60275781Y-53264197D01*
X60363725Y-53409675D01*
X60483924Y-53529874D01*
X60629399Y-53617816D01*
X60716567Y-53644979D01*
X60773588Y-53682391D01*
X60802202Y-53744296D01*
X60793755Y-53811969D01*
X60750801Y-53864940D01*
X60679657Y-53914755D01*
X60518753Y-54075659D01*
X60388232Y-54262064D01*
X60292061Y-54468302D01*
X60233164Y-54688110D01*
X60213331Y-54914800D01*
X60233164Y-55141489D01*
X60292061Y-55361297D01*
X60388232Y-55567535D01*
X60518753Y-55753940D01*
X60679659Y-55914846D01*
X60712927Y-55938140D01*
X60866066Y-56045368D01*
X60924073Y-56072417D01*
X60976249Y-56118173D01*
X60995669Y-56184797D01*
X60976251Y-56251422D01*
X60924076Y-56297180D01*
X60866066Y-56324231D01*
X60679659Y-56454753D01*
X60518753Y-56615659D01*
X60388232Y-56802064D01*
X60292061Y-57008302D01*
X60233164Y-57228110D01*
X60213331Y-57454800D01*
X60233164Y-57681489D01*
X60292061Y-57901297D01*
X60388232Y-58107535D01*
X60518753Y-58293940D01*
X60679659Y-58454846D01*
X60866063Y-58585366D01*
X60866066Y-58585368D01*
X60924075Y-58612418D01*
X60976250Y-58658175D01*
X60995669Y-58724800D01*
X60976250Y-58791425D01*
X60924075Y-58837182D01*
X60866063Y-58864233D01*
X60679659Y-58994753D01*
X60518753Y-59155659D01*
X60388232Y-59342064D01*
X60292061Y-59548302D01*
X60233164Y-59768110D01*
X60213331Y-59994800D01*
X60233164Y-60221489D01*
X60292061Y-60441297D01*
X60388232Y-60647535D01*
X60518753Y-60833940D01*
X60679659Y-60994846D01*
X60801884Y-61080428D01*
X60866066Y-61125368D01*
X60924073Y-61152417D01*
X60976249Y-61198173D01*
X60995669Y-61264797D01*
X60976251Y-61331422D01*
X60924076Y-61377180D01*
X60866066Y-61404231D01*
X60679659Y-61534753D01*
X60518753Y-61695659D01*
X60388232Y-61882064D01*
X60292061Y-62088302D01*
X60233164Y-62308110D01*
X60213331Y-62534799D01*
X56984500Y-62534799D01*
X56984500Y-49834800D01*
X60213331Y-49834800D01*
X60233164Y-50061489D01*
X60292061Y-50281297D01*
X60388232Y-50487535D01*
X60518753Y-50673940D01*
X60679659Y-50834846D01*
X60750800Y-50884659D01*
X60793754Y-50937629D01*
X60802202Y-51005302D01*
X60773588Y-51067207D01*
X60716568Y-51104619D01*
X60629402Y-51131781D01*
X60483924Y-51219725D01*
X60363725Y-51339924D01*
X60275780Y-51485403D01*
X60225209Y-51647693D01*
X60218800Y-51718224D01*
X60218800Y-52124800D01*
X62818799Y-52124800D01*
X62818799Y-51718221D01*
X62812391Y-51647695D01*
X62761818Y-51485402D01*
X62673874Y-51339924D01*
X62553675Y-51219725D01*
X62408197Y-51131781D01*
X62321031Y-51104619D01*
X62264011Y-51067207D01*
X62235397Y-51005302D01*
X62243845Y-50937629D01*
X62286798Y-50884659D01*
X62357939Y-50834847D01*
X62518847Y-50673939D01*
X62649368Y-50487534D01*
X62745539Y-50281296D01*
X62804435Y-50061492D01*
X62824268Y-49834800D01*
X62824268Y-49834799D01*
X77993331Y-49834799D01*
X78013164Y-50061489D01*
X78072061Y-50281297D01*
X78168232Y-50487535D01*
X78298753Y-50673940D01*
X78459659Y-50834846D01*
X78530800Y-50884659D01*
X78573754Y-50937629D01*
X78582202Y-51005302D01*
X78553588Y-51067207D01*
X78496568Y-51104619D01*
X78409402Y-51131781D01*
X78263924Y-51219725D01*
X78143725Y-51339924D01*
X78055780Y-51485403D01*
X78005209Y-51647693D01*
X77998800Y-51718224D01*
X77998800Y-52124800D01*
X80598799Y-52124800D01*
X80598799Y-51718221D01*
X80592391Y-51647695D01*
X80541818Y-51485402D01*
X80453874Y-51339924D01*
X80333675Y-51219725D01*
X80188197Y-51131781D01*
X80101031Y-51104619D01*
X80044011Y-51067207D01*
X80015397Y-51005302D01*
X80023845Y-50937629D01*
X80066798Y-50884659D01*
X80137939Y-50834847D01*
X80298847Y-50673939D01*
X80429368Y-50487534D01*
X80525539Y-50281296D01*
X80584435Y-50061492D01*
X80604268Y-49834800D01*
X80584435Y-49608108D01*
X80525539Y-49388304D01*
X80429368Y-49182066D01*
X80412527Y-49158015D01*
X80298846Y-48995659D01*
X80137940Y-48834753D01*
X79951533Y-48704231D01*
X79893525Y-48677182D01*
X79841349Y-48631425D01*
X79821929Y-48564800D01*
X79841349Y-48498175D01*
X79893525Y-48452418D01*
X79951534Y-48425368D01*
X80137939Y-48294847D01*
X80298847Y-48133939D01*
X80429368Y-47947534D01*
X80525539Y-47741296D01*
X80584435Y-47521492D01*
X80604268Y-47294800D01*
X80602042Y-47269362D01*
X80584435Y-47068110D01*
X80584435Y-47068108D01*
X80525539Y-46848304D01*
X80429368Y-46642066D01*
X80298847Y-46455661D01*
X80298846Y-46455659D01*
X80137940Y-46294753D01*
X79951533Y-46164231D01*
X79893525Y-46137182D01*
X79841349Y-46091425D01*
X79821929Y-46024800D01*
X79841349Y-45958175D01*
X79893525Y-45912418D01*
X79951534Y-45885368D01*
X80137939Y-45754847D01*
X80298847Y-45593939D01*
X80429368Y-45407534D01*
X80525539Y-45201296D01*
X80584435Y-44981492D01*
X80604268Y-44754800D01*
X80584435Y-44528108D01*
X80525539Y-44308304D01*
X80429368Y-44102066D01*
X80298847Y-43915661D01*
X80298846Y-43915659D01*
X80137940Y-43754753D01*
X79951533Y-43624231D01*
X79893525Y-43597182D01*
X79841349Y-43551425D01*
X79821929Y-43484800D01*
X79841349Y-43418175D01*
X79893525Y-43372418D01*
X79951534Y-43345368D01*
X80137939Y-43214847D01*
X80298847Y-43053939D01*
X80429368Y-42867534D01*
X80525539Y-42661296D01*
X80584435Y-42441492D01*
X80604268Y-42214800D01*
X80584435Y-41988108D01*
X80525539Y-41768304D01*
X80429368Y-41562066D01*
X80298847Y-41375661D01*
X80298846Y-41375659D01*
X80137940Y-41214753D01*
X80066799Y-41164940D01*
X80023845Y-41111969D01*
X80015397Y-41044296D01*
X80044011Y-40982391D01*
X80101032Y-40944979D01*
X80188200Y-40917816D01*
X80333675Y-40829874D01*
X80453874Y-40709675D01*
X80541819Y-40564196D01*
X80592390Y-40401906D01*
X80598800Y-40331376D01*
X80598800Y-39924800D01*
X77998801Y-39924800D01*
X77998801Y-40331379D01*
X78005208Y-40401904D01*
X78055781Y-40564197D01*
X78143725Y-40709675D01*
X78263924Y-40829874D01*
X78409399Y-40917816D01*
X78496567Y-40944979D01*
X78553588Y-40982391D01*
X78582202Y-41044296D01*
X78573755Y-41111969D01*
X78530801Y-41164940D01*
X78459657Y-41214755D01*
X78298753Y-41375659D01*
X78168232Y-41562064D01*
X78072061Y-41768302D01*
X78013164Y-41988110D01*
X77993331Y-42214799D01*
X78013164Y-42441489D01*
X78072061Y-42661297D01*
X78168232Y-42867535D01*
X78298753Y-43053940D01*
X78459659Y-43214846D01*
X78646063Y-43345366D01*
X78646066Y-43345368D01*
X78704075Y-43372418D01*
X78756250Y-43418175D01*
X78775669Y-43484800D01*
X78756250Y-43551425D01*
X78704075Y-43597182D01*
X78646063Y-43624233D01*
X78459659Y-43754753D01*
X78298753Y-43915659D01*
X78168232Y-44102064D01*
X78072061Y-44308302D01*
X78013164Y-44528110D01*
X77993331Y-44754799D01*
X78013164Y-44981489D01*
X78072061Y-45201297D01*
X78168232Y-45407535D01*
X78298753Y-45593940D01*
X78459659Y-45754846D01*
X78646063Y-45885366D01*
X78646066Y-45885368D01*
X78704075Y-45912418D01*
X78756250Y-45958175D01*
X78775669Y-46024800D01*
X78756250Y-46091425D01*
X78704075Y-46137182D01*
X78646063Y-46164233D01*
X78459659Y-46294753D01*
X78298753Y-46455659D01*
X78168232Y-46642064D01*
X78072061Y-46848302D01*
X78013164Y-47068110D01*
X77993331Y-47294799D01*
X78013164Y-47521489D01*
X78072061Y-47741297D01*
X78168232Y-47947535D01*
X78298753Y-48133940D01*
X78459659Y-48294846D01*
X78646063Y-48425366D01*
X78646066Y-48425368D01*
X78704075Y-48452418D01*
X78756250Y-48498175D01*
X78775669Y-48564800D01*
X78756250Y-48631425D01*
X78704075Y-48677182D01*
X78646063Y-48704233D01*
X78459659Y-48834753D01*
X78298753Y-48995659D01*
X78168232Y-49182064D01*
X78072061Y-49388302D01*
X78013164Y-49608110D01*
X77993331Y-49834799D01*
X62824268Y-49834799D01*
X62804435Y-49608108D01*
X62745539Y-49388304D01*
X62649368Y-49182066D01*
X62632527Y-49158015D01*
X62518846Y-48995659D01*
X62357940Y-48834753D01*
X62171533Y-48704231D01*
X62113525Y-48677182D01*
X62061349Y-48631425D01*
X62041929Y-48564800D01*
X62061349Y-48498175D01*
X62113525Y-48452418D01*
X62171534Y-48425368D01*
X62357939Y-48294847D01*
X62518847Y-48133939D01*
X62649368Y-47947534D01*
X62745539Y-47741296D01*
X62804435Y-47521492D01*
X62824268Y-47294800D01*
X62804435Y-47068108D01*
X62745539Y-46848304D01*
X62649368Y-46642066D01*
X62518847Y-46455661D01*
X62518846Y-46455659D01*
X62357940Y-46294753D01*
X62171533Y-46164231D01*
X62113525Y-46137182D01*
X62061349Y-46091425D01*
X62041929Y-46024800D01*
X62061349Y-45958175D01*
X62113525Y-45912418D01*
X62171534Y-45885368D01*
X62357939Y-45754847D01*
X62518847Y-45593939D01*
X62649368Y-45407534D01*
X62745539Y-45201296D01*
X62804435Y-44981492D01*
X62824268Y-44754800D01*
X62804435Y-44528108D01*
X62745539Y-44308304D01*
X62649368Y-44102066D01*
X62518847Y-43915661D01*
X62518846Y-43915659D01*
X62357940Y-43754753D01*
X62171533Y-43624231D01*
X62113525Y-43597182D01*
X62061349Y-43551425D01*
X62041929Y-43484800D01*
X62061349Y-43418175D01*
X62113525Y-43372418D01*
X62171534Y-43345368D01*
X62357939Y-43214847D01*
X62518847Y-43053939D01*
X62649368Y-42867534D01*
X62745539Y-42661296D01*
X62804435Y-42441492D01*
X62824268Y-42214800D01*
X62804435Y-41988108D01*
X62745539Y-41768304D01*
X62649368Y-41562066D01*
X62518847Y-41375661D01*
X62518846Y-41375659D01*
X62357940Y-41214753D01*
X62286799Y-41164940D01*
X62243845Y-41111969D01*
X62235397Y-41044296D01*
X62264011Y-40982391D01*
X62321032Y-40944979D01*
X62408200Y-40917816D01*
X62553675Y-40829874D01*
X62673874Y-40709675D01*
X62761819Y-40564196D01*
X62812390Y-40401906D01*
X62818800Y-40331376D01*
X62818800Y-39924800D01*
X60218801Y-39924800D01*
X60218801Y-40331379D01*
X60225208Y-40401904D01*
X60275781Y-40564197D01*
X60363725Y-40709675D01*
X60483924Y-40829874D01*
X60629399Y-40917816D01*
X60716567Y-40944979D01*
X60773588Y-40982391D01*
X60802202Y-41044296D01*
X60793755Y-41111969D01*
X60750801Y-41164940D01*
X60679657Y-41214755D01*
X60518753Y-41375659D01*
X60388232Y-41562064D01*
X60292061Y-41768302D01*
X60233164Y-41988110D01*
X60213331Y-42214800D01*
X60233164Y-42441489D01*
X60292061Y-42661297D01*
X60388232Y-42867535D01*
X60518753Y-43053940D01*
X60679659Y-43214846D01*
X60866063Y-43345366D01*
X60866066Y-43345368D01*
X60924075Y-43372418D01*
X60976250Y-43418175D01*
X60995669Y-43484800D01*
X60976250Y-43551425D01*
X60924075Y-43597182D01*
X60866063Y-43624233D01*
X60679659Y-43754753D01*
X60518753Y-43915659D01*
X60388232Y-44102064D01*
X60292061Y-44308302D01*
X60233164Y-44528110D01*
X60213331Y-44754800D01*
X60233164Y-44981489D01*
X60292061Y-45201297D01*
X60388232Y-45407535D01*
X60518753Y-45593940D01*
X60679659Y-45754846D01*
X60866063Y-45885366D01*
X60866066Y-45885368D01*
X60924075Y-45912418D01*
X60976250Y-45958175D01*
X60995669Y-46024800D01*
X60976250Y-46091425D01*
X60924075Y-46137182D01*
X60866063Y-46164233D01*
X60679659Y-46294753D01*
X60518753Y-46455659D01*
X60388232Y-46642064D01*
X60292061Y-46848302D01*
X60233164Y-47068110D01*
X60213331Y-47294800D01*
X60233164Y-47521489D01*
X60292061Y-47741297D01*
X60388232Y-47947535D01*
X60518753Y-48133940D01*
X60679659Y-48294846D01*
X60866063Y-48425366D01*
X60866066Y-48425368D01*
X60924075Y-48452418D01*
X60976250Y-48498175D01*
X60995669Y-48564800D01*
X60976250Y-48631425D01*
X60924075Y-48677182D01*
X60866063Y-48704233D01*
X60679659Y-48834753D01*
X60518753Y-48995659D01*
X60388232Y-49182064D01*
X60292061Y-49388302D01*
X60233164Y-49608110D01*
X60213331Y-49834800D01*
X56984500Y-49834800D01*
X56984500Y-37134800D01*
X60213331Y-37134800D01*
X60233164Y-37361489D01*
X60292061Y-37581297D01*
X60388232Y-37787535D01*
X60518753Y-37973940D01*
X60679659Y-38134846D01*
X60750800Y-38184659D01*
X60793754Y-38237629D01*
X60802202Y-38305302D01*
X60773588Y-38367207D01*
X60716568Y-38404619D01*
X60629402Y-38431781D01*
X60483924Y-38519725D01*
X60363725Y-38639924D01*
X60275780Y-38785403D01*
X60225209Y-38947693D01*
X60218800Y-39018224D01*
X60218800Y-39424800D01*
X62818799Y-39424800D01*
X62818799Y-39018221D01*
X62812391Y-38947695D01*
X62761818Y-38785402D01*
X62673874Y-38639924D01*
X62553675Y-38519725D01*
X62408197Y-38431781D01*
X62321031Y-38404619D01*
X62264011Y-38367207D01*
X62235397Y-38305302D01*
X62243845Y-38237629D01*
X62286798Y-38184659D01*
X62357939Y-38134847D01*
X62518847Y-37973939D01*
X62649368Y-37787534D01*
X62745539Y-37581296D01*
X62804435Y-37361492D01*
X62824268Y-37134800D01*
X62824268Y-37134799D01*
X77993331Y-37134799D01*
X78013164Y-37361489D01*
X78072061Y-37581297D01*
X78168232Y-37787535D01*
X78298753Y-37973940D01*
X78459659Y-38134846D01*
X78530800Y-38184659D01*
X78573754Y-38237629D01*
X78582202Y-38305302D01*
X78553588Y-38367207D01*
X78496568Y-38404619D01*
X78409402Y-38431781D01*
X78263924Y-38519725D01*
X78143725Y-38639924D01*
X78055780Y-38785403D01*
X78005209Y-38947693D01*
X77998800Y-39018224D01*
X77998800Y-39424800D01*
X80598799Y-39424800D01*
X80598799Y-39018221D01*
X80592391Y-38947695D01*
X80541818Y-38785402D01*
X80453874Y-38639924D01*
X80333675Y-38519725D01*
X80188197Y-38431781D01*
X80101031Y-38404619D01*
X80044011Y-38367207D01*
X80015397Y-38305302D01*
X80023845Y-38237629D01*
X80066798Y-38184659D01*
X80137939Y-38134847D01*
X80298847Y-37973939D01*
X80429368Y-37787534D01*
X80525539Y-37581296D01*
X80584435Y-37361492D01*
X80604268Y-37134800D01*
X80584435Y-36908108D01*
X80525539Y-36688304D01*
X80429368Y-36482066D01*
X80298847Y-36295661D01*
X80298846Y-36295659D01*
X80137940Y-36134753D01*
X79951533Y-36004231D01*
X79893525Y-35977182D01*
X79841349Y-35931425D01*
X79821929Y-35864800D01*
X79841349Y-35798175D01*
X79893525Y-35752418D01*
X79951534Y-35725368D01*
X80137939Y-35594847D01*
X80298847Y-35433939D01*
X80429368Y-35247534D01*
X80525539Y-35041296D01*
X80584435Y-34821492D01*
X80604268Y-34594800D01*
X80584435Y-34368108D01*
X80525539Y-34148304D01*
X80429368Y-33942066D01*
X80298847Y-33755661D01*
X80298846Y-33755659D01*
X80137940Y-33594753D01*
X79951532Y-33464230D01*
X79893524Y-33437180D01*
X79841349Y-33391423D01*
X79821930Y-33324797D01*
X79841350Y-33258173D01*
X79893521Y-33212419D01*
X79951534Y-33185368D01*
X80137939Y-33054847D01*
X80165517Y-33027269D01*
X105581300Y-33027269D01*
X105582058Y-33034318D01*
X105587709Y-33086883D01*
X105638004Y-33221731D01*
X105724254Y-33336946D01*
X105839469Y-33423196D01*
X105974317Y-33473491D01*
X106033927Y-33479900D01*
X110729672Y-33479899D01*
X110789283Y-33473491D01*
X110924131Y-33423196D01*
X111039346Y-33336946D01*
X111125596Y-33221731D01*
X111175891Y-33086883D01*
X111182300Y-33027273D01*
X111182299Y-30931528D01*
X111175891Y-30871917D01*
X111125596Y-30737069D01*
X111039346Y-30621854D01*
X110924131Y-30535604D01*
X110789283Y-30485309D01*
X110729673Y-30478900D01*
X110729669Y-30478900D01*
X106033930Y-30478900D01*
X105974315Y-30485309D01*
X105839469Y-30535604D01*
X105724254Y-30621854D01*
X105638004Y-30737068D01*
X105587709Y-30871915D01*
X105587709Y-30871917D01*
X105581582Y-30928910D01*
X105581300Y-30931530D01*
X105581300Y-33027269D01*
X80165517Y-33027269D01*
X80298847Y-32893939D01*
X80429368Y-32707534D01*
X80525539Y-32501296D01*
X80584435Y-32281492D01*
X80604268Y-32054800D01*
X80584435Y-31828108D01*
X80525539Y-31608304D01*
X80429368Y-31402066D01*
X80406677Y-31369660D01*
X80298846Y-31215659D01*
X80137940Y-31054753D01*
X79951533Y-30924231D01*
X79893525Y-30897182D01*
X79841349Y-30851425D01*
X79821929Y-30784800D01*
X79841349Y-30718175D01*
X79893525Y-30672418D01*
X79951534Y-30645368D01*
X80137939Y-30514847D01*
X80298847Y-30353939D01*
X80377596Y-30241473D01*
X102081300Y-30241473D01*
X102096691Y-30427216D01*
X102096691Y-30427219D01*
X102096692Y-30427221D01*
X102157737Y-30668281D01*
X102159552Y-30672418D01*
X102257625Y-30896004D01*
X102257627Y-30896007D01*
X102393636Y-31104185D01*
X102562056Y-31287138D01*
X102627467Y-31338050D01*
X102758285Y-31439870D01*
X102758287Y-31439871D01*
X102758291Y-31439874D01*
X102976990Y-31558228D01*
X103212186Y-31638971D01*
X103457465Y-31679900D01*
X103706135Y-31679900D01*
X103951414Y-31638971D01*
X104186610Y-31558228D01*
X104405309Y-31439874D01*
X104601544Y-31287138D01*
X104769964Y-31104185D01*
X104905973Y-30896007D01*
X105005863Y-30668281D01*
X105066908Y-30427221D01*
X105073904Y-30342787D01*
X105082300Y-30241473D01*
X105082300Y-27917327D01*
X105066908Y-27731583D01*
X105066908Y-27731579D01*
X105005863Y-27490519D01*
X104905973Y-27262793D01*
X104769964Y-27054615D01*
X104601544Y-26871662D01*
X104579412Y-26854436D01*
X104405314Y-26718929D01*
X104405310Y-26718926D01*
X104405309Y-26718926D01*
X104186610Y-26600572D01*
X104186606Y-26600570D01*
X104186605Y-26600570D01*
X103951415Y-26519829D01*
X103706135Y-26478900D01*
X103457465Y-26478900D01*
X103212184Y-26519829D01*
X102976994Y-26600570D01*
X102758285Y-26718929D01*
X102562059Y-26871659D01*
X102562056Y-26871661D01*
X102562056Y-26871662D01*
X102393637Y-27054614D01*
X102257625Y-27262795D01*
X102184079Y-27430466D01*
X102157737Y-27490519D01*
X102133638Y-27585683D01*
X102096691Y-27731583D01*
X102081300Y-27917327D01*
X102081300Y-30241473D01*
X80377596Y-30241473D01*
X80429368Y-30167534D01*
X80525539Y-29961296D01*
X80584435Y-29741492D01*
X80604268Y-29514800D01*
X80584435Y-29288108D01*
X80525539Y-29068304D01*
X80429368Y-28862066D01*
X80298847Y-28675661D01*
X80298846Y-28675659D01*
X80137940Y-28514753D01*
X80066799Y-28464940D01*
X80023845Y-28411969D01*
X80015397Y-28344296D01*
X80044011Y-28282391D01*
X80101032Y-28244979D01*
X80188200Y-28217816D01*
X80333675Y-28129874D01*
X80453874Y-28009675D01*
X80541819Y-27864196D01*
X80592390Y-27701906D01*
X80598800Y-27631376D01*
X80598800Y-27224800D01*
X77998801Y-27224800D01*
X77998801Y-27631379D01*
X78005208Y-27701904D01*
X78055781Y-27864197D01*
X78143725Y-28009675D01*
X78263924Y-28129874D01*
X78409399Y-28217816D01*
X78496567Y-28244979D01*
X78553588Y-28282391D01*
X78582202Y-28344296D01*
X78573755Y-28411969D01*
X78530801Y-28464940D01*
X78459657Y-28514755D01*
X78298753Y-28675659D01*
X78168232Y-28862064D01*
X78072061Y-29068302D01*
X78013164Y-29288110D01*
X77993331Y-29514800D01*
X78013164Y-29741489D01*
X78072061Y-29961297D01*
X78168232Y-30167535D01*
X78298753Y-30353940D01*
X78459659Y-30514846D01*
X78489305Y-30535604D01*
X78646066Y-30645368D01*
X78704073Y-30672417D01*
X78756249Y-30718173D01*
X78775669Y-30784797D01*
X78756251Y-30851422D01*
X78704076Y-30897180D01*
X78646066Y-30924231D01*
X78459659Y-31054753D01*
X78298753Y-31215659D01*
X78168232Y-31402064D01*
X78072061Y-31608302D01*
X78013164Y-31828110D01*
X77993331Y-32054800D01*
X78013164Y-32281489D01*
X78072061Y-32501297D01*
X78168232Y-32707535D01*
X78298753Y-32893940D01*
X78459659Y-33054846D01*
X78505415Y-33086884D01*
X78646066Y-33185368D01*
X78704073Y-33212417D01*
X78756249Y-33258173D01*
X78775669Y-33324797D01*
X78756251Y-33391422D01*
X78704076Y-33437180D01*
X78646066Y-33464231D01*
X78459659Y-33594753D01*
X78298753Y-33755659D01*
X78168232Y-33942064D01*
X78072061Y-34148302D01*
X78013164Y-34368110D01*
X77993331Y-34594799D01*
X78013164Y-34821489D01*
X78072061Y-35041297D01*
X78168232Y-35247535D01*
X78298753Y-35433940D01*
X78459659Y-35594846D01*
X78646063Y-35725366D01*
X78646066Y-35725368D01*
X78704075Y-35752418D01*
X78756250Y-35798175D01*
X78775669Y-35864800D01*
X78756250Y-35931425D01*
X78704075Y-35977182D01*
X78646063Y-36004233D01*
X78459659Y-36134753D01*
X78298753Y-36295659D01*
X78168232Y-36482064D01*
X78072061Y-36688302D01*
X78013164Y-36908110D01*
X77993331Y-37134799D01*
X62824268Y-37134799D01*
X62804435Y-36908108D01*
X62745539Y-36688304D01*
X62649368Y-36482066D01*
X62518847Y-36295661D01*
X62518846Y-36295659D01*
X62357940Y-36134753D01*
X62171533Y-36004231D01*
X62113525Y-35977182D01*
X62061349Y-35931425D01*
X62041929Y-35864800D01*
X62061349Y-35798175D01*
X62113525Y-35752418D01*
X62171534Y-35725368D01*
X62357939Y-35594847D01*
X62518847Y-35433939D01*
X62649368Y-35247534D01*
X62745539Y-35041296D01*
X62804435Y-34821492D01*
X62824268Y-34594800D01*
X62804435Y-34368108D01*
X62745539Y-34148304D01*
X62649368Y-33942066D01*
X62518847Y-33755661D01*
X62518846Y-33755659D01*
X62357940Y-33594753D01*
X62171532Y-33464230D01*
X62113524Y-33437180D01*
X62061349Y-33391423D01*
X62041930Y-33324797D01*
X62061350Y-33258173D01*
X62113521Y-33212419D01*
X62171534Y-33185368D01*
X62357939Y-33054847D01*
X62518847Y-32893939D01*
X62649368Y-32707534D01*
X62745539Y-32501296D01*
X62804435Y-32281492D01*
X62824268Y-32054800D01*
X62804435Y-31828108D01*
X62745539Y-31608304D01*
X62649368Y-31402066D01*
X62626677Y-31369660D01*
X62518846Y-31215659D01*
X62357940Y-31054753D01*
X62171533Y-30924231D01*
X62113525Y-30897182D01*
X62061349Y-30851425D01*
X62041929Y-30784800D01*
X62061349Y-30718175D01*
X62113525Y-30672418D01*
X62171534Y-30645368D01*
X62357939Y-30514847D01*
X62518847Y-30353939D01*
X62649368Y-30167534D01*
X62745539Y-29961296D01*
X62804435Y-29741492D01*
X62824268Y-29514800D01*
X62804435Y-29288108D01*
X62745539Y-29068304D01*
X62649368Y-28862066D01*
X62518847Y-28675661D01*
X62518846Y-28675659D01*
X62357940Y-28514753D01*
X62286799Y-28464940D01*
X62243845Y-28411969D01*
X62235397Y-28344296D01*
X62264011Y-28282391D01*
X62321032Y-28244979D01*
X62408200Y-28217816D01*
X62553675Y-28129874D01*
X62673874Y-28009675D01*
X62761819Y-27864196D01*
X62812390Y-27701906D01*
X62818800Y-27631376D01*
X62818800Y-27224800D01*
X60218801Y-27224800D01*
X60218801Y-27631379D01*
X60225208Y-27701904D01*
X60275781Y-27864197D01*
X60363725Y-28009675D01*
X60483924Y-28129874D01*
X60629399Y-28217816D01*
X60716567Y-28244979D01*
X60773588Y-28282391D01*
X60802202Y-28344296D01*
X60793755Y-28411969D01*
X60750801Y-28464940D01*
X60679657Y-28514755D01*
X60518753Y-28675659D01*
X60388232Y-28862064D01*
X60292061Y-29068302D01*
X60233164Y-29288110D01*
X60213331Y-29514799D01*
X60233164Y-29741489D01*
X60292061Y-29961297D01*
X60388232Y-30167535D01*
X60518753Y-30353940D01*
X60679659Y-30514846D01*
X60866063Y-30645366D01*
X60866066Y-30645368D01*
X60924075Y-30672418D01*
X60976250Y-30718175D01*
X60995669Y-30784800D01*
X60976250Y-30851425D01*
X60924075Y-30897182D01*
X60866063Y-30924233D01*
X60679659Y-31054753D01*
X60518753Y-31215659D01*
X60388232Y-31402064D01*
X60292061Y-31608302D01*
X60233164Y-31828110D01*
X60213331Y-32054799D01*
X60233164Y-32281489D01*
X60292061Y-32501297D01*
X60388232Y-32707535D01*
X60518753Y-32893940D01*
X60679659Y-33054846D01*
X60725415Y-33086884D01*
X60866066Y-33185368D01*
X60924075Y-33212418D01*
X60976250Y-33258175D01*
X60995669Y-33324800D01*
X60976250Y-33391425D01*
X60924075Y-33437182D01*
X60866063Y-33464233D01*
X60679659Y-33594753D01*
X60518753Y-33755659D01*
X60388232Y-33942064D01*
X60292061Y-34148302D01*
X60233164Y-34368110D01*
X60213331Y-34594800D01*
X60233164Y-34821489D01*
X60292061Y-35041297D01*
X60388232Y-35247535D01*
X60518753Y-35433940D01*
X60679659Y-35594846D01*
X60866063Y-35725366D01*
X60866066Y-35725368D01*
X60924075Y-35752418D01*
X60976250Y-35798175D01*
X60995669Y-35864800D01*
X60976250Y-35931425D01*
X60924075Y-35977182D01*
X60866063Y-36004233D01*
X60679659Y-36134753D01*
X60518753Y-36295659D01*
X60388232Y-36482064D01*
X60292061Y-36688302D01*
X60233164Y-36908110D01*
X60213331Y-37134800D01*
X56984500Y-37134800D01*
X56984500Y-30948549D01*
X56990569Y-30910231D01*
X56994809Y-30897182D01*
X57019674Y-30820656D01*
X57039460Y-30632400D01*
X57019674Y-30444144D01*
X56961179Y-30264116D01*
X56961179Y-30264115D01*
X56866533Y-30100183D01*
X56739870Y-29959510D01*
X56586730Y-29848248D01*
X56413802Y-29771255D01*
X56228648Y-29731900D01*
X56228646Y-29731900D01*
X56039354Y-29731900D01*
X56039352Y-29731900D01*
X55854197Y-29771255D01*
X55681269Y-29848248D01*
X55528129Y-29959510D01*
X55401466Y-30100183D01*
X55306820Y-30264115D01*
X55248326Y-30444142D01*
X55228540Y-30632400D01*
X49947254Y-30632400D01*
X50115139Y-30514847D01*
X50276047Y-30353939D01*
X50406568Y-30167534D01*
X50502739Y-29961296D01*
X50561635Y-29741492D01*
X50581468Y-29514800D01*
X50561635Y-29288108D01*
X50502739Y-29068304D01*
X50406568Y-28862066D01*
X50276047Y-28675661D01*
X50276046Y-28675659D01*
X50115140Y-28514753D01*
X50043999Y-28464940D01*
X50001045Y-28411969D01*
X49992597Y-28344296D01*
X50021211Y-28282391D01*
X50078232Y-28244979D01*
X50165400Y-28217816D01*
X50310875Y-28129874D01*
X50431074Y-28009675D01*
X50519019Y-27864196D01*
X50569590Y-27701906D01*
X50576000Y-27631376D01*
X50576000Y-27224800D01*
X47976001Y-27224800D01*
X47976001Y-27631379D01*
X47982408Y-27701904D01*
X48032981Y-27864197D01*
X48120925Y-28009675D01*
X48241124Y-28129874D01*
X48386599Y-28217816D01*
X48473767Y-28244979D01*
X48530788Y-28282391D01*
X48559402Y-28344296D01*
X48550955Y-28411969D01*
X48508001Y-28464940D01*
X48436857Y-28514755D01*
X48275953Y-28675659D01*
X48145432Y-28862064D01*
X48049261Y-29068302D01*
X47990364Y-29288110D01*
X47970531Y-29514799D01*
X47990364Y-29741489D01*
X48049261Y-29961297D01*
X48145432Y-30167535D01*
X48275953Y-30353940D01*
X48436859Y-30514846D01*
X48623263Y-30645366D01*
X48623266Y-30645368D01*
X48681275Y-30672418D01*
X48733450Y-30718175D01*
X48752869Y-30784800D01*
X48733450Y-30851425D01*
X48681275Y-30897182D01*
X48623263Y-30924233D01*
X48436859Y-31054753D01*
X48275953Y-31215659D01*
X48145432Y-31402064D01*
X48049261Y-31608302D01*
X47990364Y-31828110D01*
X47970531Y-32054799D01*
X47990364Y-32281489D01*
X48049261Y-32501297D01*
X48145432Y-32707535D01*
X48275953Y-32893940D01*
X48436859Y-33054846D01*
X48482615Y-33086884D01*
X48623266Y-33185368D01*
X48681275Y-33212418D01*
X48733450Y-33258175D01*
X48752869Y-33324800D01*
X48733450Y-33391425D01*
X48681275Y-33437182D01*
X48623263Y-33464233D01*
X48436859Y-33594753D01*
X48275953Y-33755659D01*
X48145432Y-33942064D01*
X48049261Y-34148302D01*
X47990364Y-34368110D01*
X47970531Y-34594800D01*
X47990364Y-34821489D01*
X48049261Y-35041297D01*
X48145432Y-35247535D01*
X48275953Y-35433940D01*
X48436859Y-35594846D01*
X48623263Y-35725366D01*
X48623266Y-35725368D01*
X48681275Y-35752418D01*
X48733450Y-35798175D01*
X48752869Y-35864800D01*
X48733450Y-35931425D01*
X48681275Y-35977182D01*
X48623263Y-36004233D01*
X48436859Y-36134753D01*
X48275953Y-36295659D01*
X48145432Y-36482064D01*
X48049261Y-36688302D01*
X47990364Y-36908110D01*
X47970531Y-37134800D01*
X47990364Y-37361489D01*
X48049261Y-37581297D01*
X48145432Y-37787535D01*
X48275953Y-37973940D01*
X48436859Y-38134846D01*
X48508000Y-38184659D01*
X48550954Y-38237629D01*
X48559402Y-38305302D01*
X48530788Y-38367207D01*
X48473768Y-38404619D01*
X48386602Y-38431781D01*
X48241124Y-38519725D01*
X48120925Y-38639924D01*
X48032980Y-38785403D01*
X47982409Y-38947693D01*
X47976000Y-39018224D01*
X47976000Y-39424800D01*
X50575999Y-39424800D01*
X50575999Y-39018221D01*
X50569591Y-38947695D01*
X50519018Y-38785402D01*
X50431074Y-38639924D01*
X50310875Y-38519725D01*
X50165397Y-38431781D01*
X50078231Y-38404619D01*
X50021211Y-38367207D01*
X49992597Y-38305302D01*
X50001045Y-38237629D01*
X50043998Y-38184659D01*
X50115139Y-38134847D01*
X50276047Y-37973939D01*
X50406568Y-37787534D01*
X50502739Y-37581296D01*
X50561635Y-37361492D01*
X50581468Y-37134800D01*
X50561635Y-36908108D01*
X50502739Y-36688304D01*
X50406568Y-36482066D01*
X50276047Y-36295661D01*
X50276046Y-36295659D01*
X50115140Y-36134753D01*
X49928733Y-36004231D01*
X49870725Y-35977182D01*
X49818549Y-35931425D01*
X49799129Y-35864800D01*
X49818549Y-35798175D01*
X49870725Y-35752418D01*
X49928734Y-35725368D01*
X50115139Y-35594847D01*
X50276047Y-35433939D01*
X50406568Y-35247534D01*
X50502739Y-35041296D01*
X50561635Y-34821492D01*
X50581468Y-34594800D01*
X50561635Y-34368108D01*
X50502739Y-34148304D01*
X50406568Y-33942066D01*
X50276047Y-33755661D01*
X50276046Y-33755659D01*
X50115140Y-33594753D01*
X49928732Y-33464230D01*
X49870724Y-33437180D01*
X49818549Y-33391423D01*
X49799130Y-33324797D01*
X49818550Y-33258173D01*
X49870721Y-33212419D01*
X49928734Y-33185368D01*
X50115139Y-33054847D01*
X50276047Y-32893939D01*
X50336098Y-32808177D01*
X50380416Y-32769311D01*
X50437673Y-32755300D01*
X52185681Y-32755300D01*
X52233134Y-32764739D01*
X52273362Y-32791619D01*
X52958781Y-33477038D01*
X52985661Y-33517266D01*
X52995100Y-33564719D01*
X52995100Y-71540481D01*
X52985661Y-71587934D01*
X52958781Y-71628162D01*
X52324162Y-72262781D01*
X52283934Y-72289661D01*
X52236481Y-72299100D01*
X46659321Y-72299100D01*
X46651834Y-72298874D01*
X46591791Y-72295241D01*
X46532626Y-72306083D01*
X46525227Y-72307209D01*
X46465528Y-72314459D01*
X46456048Y-72318054D01*
X46434447Y-72324075D01*
X46424470Y-72325903D01*
X46369619Y-72350589D01*
X46362705Y-72353453D01*
X46306469Y-72374782D01*
X46298125Y-72380541D01*
X46278586Y-72391561D01*
X46269342Y-72395721D01*
X46221997Y-72432813D01*
X46215968Y-72437249D01*
X46166470Y-72471416D01*
X46126583Y-72516438D01*
X46121451Y-72521890D01*
X44488627Y-74154715D01*
X44460114Y-74176007D01*
X44426727Y-74188324D01*
X44271797Y-74221255D01*
X44098869Y-74298248D01*
X43945729Y-74409510D01*
X43819066Y-74550183D01*
X43724420Y-74714115D01*
X43665926Y-74894142D01*
X43646140Y-75082400D01*
X43665926Y-75270657D01*
X43724420Y-75450684D01*
X43819066Y-75614616D01*
X43945728Y-75755287D01*
X43947510Y-75756582D01*
X43986823Y-75804104D01*
X43998379Y-75864686D01*
X43979321Y-75923343D01*
X43934361Y-75965562D01*
X43874624Y-75980900D01*
X33279653Y-75980900D01*
X33232200Y-75971461D01*
X33191972Y-75944581D01*
X29008219Y-71760828D01*
X28981339Y-71720600D01*
X28971900Y-71673147D01*
X28971900Y-70154800D01*
X30190531Y-70154800D01*
X30210364Y-70381489D01*
X30269261Y-70601297D01*
X30365432Y-70807535D01*
X30495953Y-70993940D01*
X30656859Y-71154846D01*
X30843264Y-71285367D01*
X30843265Y-71285367D01*
X30843266Y-71285368D01*
X31049504Y-71381539D01*
X31269308Y-71440435D01*
X31420436Y-71453657D01*
X31495999Y-71460268D01*
X31495999Y-71460267D01*
X31496000Y-71460268D01*
X31722692Y-71440435D01*
X31942496Y-71381539D01*
X32148734Y-71285368D01*
X32335139Y-71154847D01*
X32496047Y-70993939D01*
X32626568Y-70807534D01*
X32722739Y-70601296D01*
X32781635Y-70381492D01*
X32801468Y-70154800D01*
X47970531Y-70154800D01*
X47990364Y-70381489D01*
X48049261Y-70601297D01*
X48145432Y-70807535D01*
X48275953Y-70993940D01*
X48436859Y-71154846D01*
X48623264Y-71285367D01*
X48623265Y-71285367D01*
X48623266Y-71285368D01*
X48829504Y-71381539D01*
X49049308Y-71440435D01*
X49200436Y-71453657D01*
X49275999Y-71460268D01*
X49275999Y-71460267D01*
X49276000Y-71460268D01*
X49502692Y-71440435D01*
X49722496Y-71381539D01*
X49928734Y-71285368D01*
X50115139Y-71154847D01*
X50276047Y-70993939D01*
X50406568Y-70807534D01*
X50502739Y-70601296D01*
X50561635Y-70381492D01*
X50581468Y-70154800D01*
X50561635Y-69928108D01*
X50502739Y-69708304D01*
X50406568Y-69502066D01*
X50349105Y-69420000D01*
X50276046Y-69315659D01*
X50115140Y-69154753D01*
X49928733Y-69024231D01*
X49870725Y-68997182D01*
X49818549Y-68951425D01*
X49799129Y-68884800D01*
X49818549Y-68818175D01*
X49870725Y-68772418D01*
X49928734Y-68745368D01*
X50115139Y-68614847D01*
X50276047Y-68453939D01*
X50406568Y-68267534D01*
X50502739Y-68061296D01*
X50561635Y-67841492D01*
X50581468Y-67614800D01*
X50561635Y-67388108D01*
X50502739Y-67168304D01*
X50406568Y-66962066D01*
X50399401Y-66951831D01*
X50276046Y-66775659D01*
X50115140Y-66614753D01*
X50043999Y-66564940D01*
X50001045Y-66511969D01*
X49992597Y-66444296D01*
X50021211Y-66382391D01*
X50078232Y-66344979D01*
X50165400Y-66317816D01*
X50310875Y-66229874D01*
X50431074Y-66109675D01*
X50519019Y-65964196D01*
X50569590Y-65801906D01*
X50576000Y-65731376D01*
X50576000Y-65324800D01*
X47976001Y-65324800D01*
X47976001Y-65731379D01*
X47982408Y-65801904D01*
X48032981Y-65964197D01*
X48120925Y-66109675D01*
X48241124Y-66229874D01*
X48386599Y-66317816D01*
X48473767Y-66344979D01*
X48530788Y-66382391D01*
X48559402Y-66444296D01*
X48550955Y-66511969D01*
X48508001Y-66564940D01*
X48436857Y-66614755D01*
X48275953Y-66775659D01*
X48145432Y-66962064D01*
X48049261Y-67168302D01*
X47990364Y-67388110D01*
X47970531Y-67614800D01*
X47990364Y-67841489D01*
X48049261Y-68061297D01*
X48145432Y-68267535D01*
X48275953Y-68453940D01*
X48436859Y-68614846D01*
X48505094Y-68662624D01*
X48623266Y-68745368D01*
X48681275Y-68772418D01*
X48733450Y-68818175D01*
X48752869Y-68884800D01*
X48733450Y-68951425D01*
X48681275Y-68997182D01*
X48623263Y-69024233D01*
X48436859Y-69154753D01*
X48275953Y-69315659D01*
X48145432Y-69502064D01*
X48049261Y-69708302D01*
X47990364Y-69928110D01*
X47970531Y-70154800D01*
X32801468Y-70154800D01*
X32781635Y-69928108D01*
X32722739Y-69708304D01*
X32626568Y-69502066D01*
X32569105Y-69420000D01*
X32496046Y-69315659D01*
X32335140Y-69154753D01*
X32148733Y-69024231D01*
X32090725Y-68997182D01*
X32038549Y-68951425D01*
X32019129Y-68884800D01*
X32038549Y-68818175D01*
X32090725Y-68772418D01*
X32148734Y-68745368D01*
X32335139Y-68614847D01*
X32496047Y-68453939D01*
X32626568Y-68267534D01*
X32722739Y-68061296D01*
X32781635Y-67841492D01*
X32801468Y-67614800D01*
X32801280Y-67612656D01*
X32787709Y-67457531D01*
X32781635Y-67388108D01*
X32722739Y-67168304D01*
X32626568Y-66962066D01*
X32619401Y-66951831D01*
X32496046Y-66775659D01*
X32335140Y-66614753D01*
X32263999Y-66564940D01*
X32221045Y-66511969D01*
X32212597Y-66444296D01*
X32241211Y-66382391D01*
X32298232Y-66344979D01*
X32385400Y-66317816D01*
X32530875Y-66229874D01*
X32651074Y-66109675D01*
X32739019Y-65964196D01*
X32789590Y-65801906D01*
X32796000Y-65731376D01*
X32796000Y-65324800D01*
X30196001Y-65324800D01*
X30196001Y-65731379D01*
X30202408Y-65801904D01*
X30252981Y-65964197D01*
X30340925Y-66109675D01*
X30461124Y-66229874D01*
X30606599Y-66317816D01*
X30693767Y-66344979D01*
X30750788Y-66382391D01*
X30779402Y-66444296D01*
X30770955Y-66511969D01*
X30728001Y-66564940D01*
X30656857Y-66614755D01*
X30495953Y-66775659D01*
X30365432Y-66962064D01*
X30269261Y-67168302D01*
X30210364Y-67388110D01*
X30190531Y-67614800D01*
X30210364Y-67841489D01*
X30269261Y-68061297D01*
X30365432Y-68267535D01*
X30495953Y-68453940D01*
X30656859Y-68614846D01*
X30725094Y-68662624D01*
X30843266Y-68745368D01*
X30901275Y-68772418D01*
X30953450Y-68818175D01*
X30972869Y-68884800D01*
X30953450Y-68951425D01*
X30901275Y-68997182D01*
X30843263Y-69024233D01*
X30656859Y-69154753D01*
X30495953Y-69315659D01*
X30365432Y-69502064D01*
X30269261Y-69708302D01*
X30210364Y-69928110D01*
X30190531Y-70154800D01*
X28971900Y-70154800D01*
X28971900Y-62534800D01*
X30190531Y-62534800D01*
X30210364Y-62761489D01*
X30269261Y-62981297D01*
X30365432Y-63187535D01*
X30495953Y-63373940D01*
X30656859Y-63534846D01*
X30728000Y-63584659D01*
X30770954Y-63637629D01*
X30779402Y-63705302D01*
X30750788Y-63767207D01*
X30693768Y-63804619D01*
X30606602Y-63831781D01*
X30461124Y-63919725D01*
X30340925Y-64039924D01*
X30252980Y-64185403D01*
X30202409Y-64347693D01*
X30196000Y-64418224D01*
X30196000Y-64824800D01*
X32795999Y-64824800D01*
X32795999Y-64418221D01*
X32789591Y-64347695D01*
X32739018Y-64185402D01*
X32651074Y-64039924D01*
X32530875Y-63919725D01*
X32385397Y-63831781D01*
X32298231Y-63804619D01*
X32241211Y-63767207D01*
X32212597Y-63705302D01*
X32221045Y-63637629D01*
X32263998Y-63584659D01*
X32335139Y-63534847D01*
X32496047Y-63373939D01*
X32626568Y-63187534D01*
X32722739Y-62981296D01*
X32781635Y-62761492D01*
X32801468Y-62534800D01*
X32801468Y-62534799D01*
X47970531Y-62534799D01*
X47990364Y-62761489D01*
X48049261Y-62981297D01*
X48145432Y-63187535D01*
X48275953Y-63373940D01*
X48436859Y-63534846D01*
X48508000Y-63584659D01*
X48550954Y-63637629D01*
X48559402Y-63705302D01*
X48530788Y-63767207D01*
X48473768Y-63804619D01*
X48386602Y-63831781D01*
X48241124Y-63919725D01*
X48120925Y-64039924D01*
X48032980Y-64185403D01*
X47982409Y-64347693D01*
X47976000Y-64418224D01*
X47976000Y-64824800D01*
X50575999Y-64824800D01*
X50575999Y-64418221D01*
X50569591Y-64347695D01*
X50519018Y-64185402D01*
X50431074Y-64039924D01*
X50310875Y-63919725D01*
X50165397Y-63831781D01*
X50078231Y-63804619D01*
X50021211Y-63767207D01*
X49992597Y-63705302D01*
X50001045Y-63637629D01*
X50043998Y-63584659D01*
X50115139Y-63534847D01*
X50276047Y-63373939D01*
X50406568Y-63187534D01*
X50502739Y-62981296D01*
X50561635Y-62761492D01*
X50581468Y-62534800D01*
X50561635Y-62308108D01*
X50502739Y-62088304D01*
X50406568Y-61882066D01*
X50337420Y-61783312D01*
X50276046Y-61695659D01*
X50115140Y-61534753D01*
X49928733Y-61404231D01*
X49870725Y-61377182D01*
X49818549Y-61331425D01*
X49799129Y-61264800D01*
X49818549Y-61198175D01*
X49870725Y-61152418D01*
X49928734Y-61125368D01*
X50115139Y-60994847D01*
X50276047Y-60833939D01*
X50406568Y-60647534D01*
X50502739Y-60441296D01*
X50561635Y-60221492D01*
X50581468Y-59994800D01*
X50561635Y-59768108D01*
X50502739Y-59548304D01*
X50406568Y-59342066D01*
X50391467Y-59320500D01*
X50276046Y-59155659D01*
X50115140Y-58994753D01*
X49928736Y-58864233D01*
X49928734Y-58864232D01*
X49870722Y-58837180D01*
X49818548Y-58791423D01*
X49799129Y-58724797D01*
X49818549Y-58658172D01*
X49870721Y-58612419D01*
X49928734Y-58585368D01*
X50115139Y-58454847D01*
X50276047Y-58293939D01*
X50406568Y-58107534D01*
X50502739Y-57901296D01*
X50561635Y-57681492D01*
X50581468Y-57454800D01*
X50561635Y-57228108D01*
X50502739Y-57008304D01*
X50406568Y-56802066D01*
X50276047Y-56615661D01*
X50276046Y-56615659D01*
X50115140Y-56454753D01*
X49928733Y-56324231D01*
X49870725Y-56297182D01*
X49818549Y-56251425D01*
X49799129Y-56184800D01*
X49818549Y-56118175D01*
X49870725Y-56072418D01*
X49928734Y-56045368D01*
X50115139Y-55914847D01*
X50276047Y-55753939D01*
X50406568Y-55567534D01*
X50502739Y-55361296D01*
X50561635Y-55141492D01*
X50581468Y-54914800D01*
X50561635Y-54688108D01*
X50502739Y-54468304D01*
X50406568Y-54262066D01*
X50398056Y-54249910D01*
X50276046Y-54075659D01*
X50115140Y-53914753D01*
X50043999Y-53864940D01*
X50001045Y-53811969D01*
X49992597Y-53744296D01*
X50021211Y-53682391D01*
X50078232Y-53644979D01*
X50165400Y-53617816D01*
X50310875Y-53529874D01*
X50431074Y-53409675D01*
X50519019Y-53264196D01*
X50569590Y-53101906D01*
X50576000Y-53031376D01*
X50576000Y-52624800D01*
X47976001Y-52624800D01*
X47976001Y-53031379D01*
X47982408Y-53101904D01*
X48032981Y-53264197D01*
X48120925Y-53409675D01*
X48241124Y-53529874D01*
X48386599Y-53617816D01*
X48473767Y-53644979D01*
X48530788Y-53682391D01*
X48559402Y-53744296D01*
X48550955Y-53811969D01*
X48508001Y-53864940D01*
X48436857Y-53914755D01*
X48275953Y-54075659D01*
X48145432Y-54262064D01*
X48049261Y-54468302D01*
X47990364Y-54688110D01*
X47970531Y-54914800D01*
X47990364Y-55141489D01*
X48049261Y-55361297D01*
X48145432Y-55567535D01*
X48275953Y-55753940D01*
X48436859Y-55914846D01*
X48470127Y-55938140D01*
X48623266Y-56045368D01*
X48681275Y-56072418D01*
X48733450Y-56118175D01*
X48752869Y-56184800D01*
X48733450Y-56251425D01*
X48681275Y-56297182D01*
X48623263Y-56324233D01*
X48436859Y-56454753D01*
X48275953Y-56615659D01*
X48145432Y-56802064D01*
X48049261Y-57008302D01*
X47990364Y-57228110D01*
X47970531Y-57454800D01*
X47990364Y-57681489D01*
X48049261Y-57901297D01*
X48145432Y-58107535D01*
X48275953Y-58293940D01*
X48436859Y-58454846D01*
X48623263Y-58585366D01*
X48623266Y-58585368D01*
X48681275Y-58612418D01*
X48733450Y-58658175D01*
X48752869Y-58724800D01*
X48733450Y-58791425D01*
X48681275Y-58837182D01*
X48623263Y-58864233D01*
X48436859Y-58994753D01*
X48275953Y-59155659D01*
X48145432Y-59342064D01*
X48049261Y-59548302D01*
X47990364Y-59768110D01*
X47970531Y-59994800D01*
X47990364Y-60221489D01*
X48049261Y-60441297D01*
X48145432Y-60647535D01*
X48275953Y-60833940D01*
X48436859Y-60994846D01*
X48559084Y-61080428D01*
X48623266Y-61125368D01*
X48681273Y-61152417D01*
X48733449Y-61198173D01*
X48752869Y-61264797D01*
X48733451Y-61331422D01*
X48681276Y-61377180D01*
X48623266Y-61404231D01*
X48436859Y-61534753D01*
X48275953Y-61695659D01*
X48145432Y-61882064D01*
X48049261Y-62088302D01*
X47990364Y-62308110D01*
X47970531Y-62534799D01*
X32801468Y-62534799D01*
X32781635Y-62308108D01*
X32722739Y-62088304D01*
X32626568Y-61882066D01*
X32557420Y-61783312D01*
X32496046Y-61695659D01*
X32335140Y-61534753D01*
X32148732Y-61404230D01*
X32090724Y-61377180D01*
X32038549Y-61331423D01*
X32019130Y-61264797D01*
X32038550Y-61198173D01*
X32090721Y-61152419D01*
X32148734Y-61125368D01*
X32335139Y-60994847D01*
X32496047Y-60833939D01*
X32626568Y-60647534D01*
X32722739Y-60441296D01*
X32781635Y-60221492D01*
X32801468Y-59994800D01*
X32781635Y-59768108D01*
X32722739Y-59548304D01*
X32626568Y-59342066D01*
X32611467Y-59320500D01*
X32496046Y-59155659D01*
X32335140Y-58994753D01*
X32148736Y-58864233D01*
X32148734Y-58864232D01*
X32090722Y-58837180D01*
X32038548Y-58791423D01*
X32019129Y-58724797D01*
X32038549Y-58658172D01*
X32090721Y-58612419D01*
X32148734Y-58585368D01*
X32335139Y-58454847D01*
X32496047Y-58293939D01*
X32626568Y-58107534D01*
X32722739Y-57901296D01*
X32781635Y-57681492D01*
X32801468Y-57454800D01*
X32781635Y-57228108D01*
X32722739Y-57008304D01*
X32626568Y-56802066D01*
X32496047Y-56615661D01*
X32496046Y-56615659D01*
X32335140Y-56454753D01*
X32148733Y-56324231D01*
X32090725Y-56297182D01*
X32038549Y-56251425D01*
X32019129Y-56184800D01*
X32038549Y-56118175D01*
X32090725Y-56072418D01*
X32148734Y-56045368D01*
X32335139Y-55914847D01*
X32496047Y-55753939D01*
X32626568Y-55567534D01*
X32722739Y-55361296D01*
X32781635Y-55141492D01*
X32801468Y-54914800D01*
X32781635Y-54688108D01*
X32722739Y-54468304D01*
X32626568Y-54262066D01*
X32618056Y-54249910D01*
X32496046Y-54075659D01*
X32335140Y-53914753D01*
X32263999Y-53864940D01*
X32221045Y-53811969D01*
X32212597Y-53744296D01*
X32241211Y-53682391D01*
X32298232Y-53644979D01*
X32385400Y-53617816D01*
X32530875Y-53529874D01*
X32651074Y-53409675D01*
X32739019Y-53264196D01*
X32789590Y-53101906D01*
X32796000Y-53031376D01*
X32796000Y-52624800D01*
X30196001Y-52624800D01*
X30196001Y-53031379D01*
X30202408Y-53101904D01*
X30252981Y-53264197D01*
X30340925Y-53409675D01*
X30461124Y-53529874D01*
X30606599Y-53617816D01*
X30693767Y-53644979D01*
X30750788Y-53682391D01*
X30779402Y-53744296D01*
X30770955Y-53811969D01*
X30728001Y-53864940D01*
X30656857Y-53914755D01*
X30495953Y-54075659D01*
X30365432Y-54262064D01*
X30269261Y-54468302D01*
X30210364Y-54688110D01*
X30190531Y-54914800D01*
X30210364Y-55141489D01*
X30269261Y-55361297D01*
X30365432Y-55567535D01*
X30495953Y-55753940D01*
X30656859Y-55914846D01*
X30690127Y-55938140D01*
X30843266Y-56045368D01*
X30901275Y-56072418D01*
X30953450Y-56118175D01*
X30972869Y-56184800D01*
X30953450Y-56251425D01*
X30901275Y-56297182D01*
X30843263Y-56324233D01*
X30656859Y-56454753D01*
X30495953Y-56615659D01*
X30365432Y-56802064D01*
X30269261Y-57008302D01*
X30210364Y-57228110D01*
X30190531Y-57454800D01*
X30210364Y-57681489D01*
X30269261Y-57901297D01*
X30365432Y-58107535D01*
X30495953Y-58293940D01*
X30656859Y-58454846D01*
X30843263Y-58585366D01*
X30843266Y-58585368D01*
X30901275Y-58612418D01*
X30953450Y-58658175D01*
X30972869Y-58724800D01*
X30953450Y-58791425D01*
X30901275Y-58837182D01*
X30843263Y-58864233D01*
X30656859Y-58994753D01*
X30495953Y-59155659D01*
X30365432Y-59342064D01*
X30269261Y-59548302D01*
X30210364Y-59768110D01*
X30190531Y-59994800D01*
X30210364Y-60221489D01*
X30269261Y-60441297D01*
X30365432Y-60647535D01*
X30495953Y-60833940D01*
X30656859Y-60994846D01*
X30779084Y-61080428D01*
X30843266Y-61125368D01*
X30901273Y-61152417D01*
X30953449Y-61198173D01*
X30972869Y-61264797D01*
X30953451Y-61331422D01*
X30901276Y-61377180D01*
X30843266Y-61404231D01*
X30656859Y-61534753D01*
X30495953Y-61695659D01*
X30365432Y-61882064D01*
X30269261Y-62088302D01*
X30210364Y-62308110D01*
X30190531Y-62534800D01*
X28971900Y-62534800D01*
X28971900Y-49834800D01*
X30190531Y-49834800D01*
X30210364Y-50061489D01*
X30269261Y-50281297D01*
X30365432Y-50487535D01*
X30495953Y-50673940D01*
X30656859Y-50834846D01*
X30728000Y-50884659D01*
X30770954Y-50937629D01*
X30779402Y-51005302D01*
X30750788Y-51067207D01*
X30693768Y-51104619D01*
X30606602Y-51131781D01*
X30461124Y-51219725D01*
X30340925Y-51339924D01*
X30252980Y-51485403D01*
X30202409Y-51647693D01*
X30196000Y-51718224D01*
X30196000Y-52124800D01*
X32795999Y-52124800D01*
X32795999Y-51718221D01*
X32789591Y-51647695D01*
X32739018Y-51485402D01*
X32651074Y-51339924D01*
X32530875Y-51219725D01*
X32385397Y-51131781D01*
X32298231Y-51104619D01*
X32241211Y-51067207D01*
X32212597Y-51005302D01*
X32221045Y-50937629D01*
X32263998Y-50884659D01*
X32335139Y-50834847D01*
X32496047Y-50673939D01*
X32626568Y-50487534D01*
X32722739Y-50281296D01*
X32781635Y-50061492D01*
X32801468Y-49834800D01*
X47970531Y-49834800D01*
X47990364Y-50061489D01*
X48049261Y-50281297D01*
X48145432Y-50487535D01*
X48275953Y-50673940D01*
X48436859Y-50834846D01*
X48508000Y-50884659D01*
X48550954Y-50937629D01*
X48559402Y-51005302D01*
X48530788Y-51067207D01*
X48473768Y-51104619D01*
X48386602Y-51131781D01*
X48241124Y-51219725D01*
X48120925Y-51339924D01*
X48032980Y-51485403D01*
X47982409Y-51647693D01*
X47976000Y-51718224D01*
X47976000Y-52124800D01*
X50575999Y-52124800D01*
X50575999Y-51718221D01*
X50569591Y-51647695D01*
X50519018Y-51485402D01*
X50431074Y-51339924D01*
X50310875Y-51219725D01*
X50165397Y-51131781D01*
X50078231Y-51104619D01*
X50021211Y-51067207D01*
X49992597Y-51005302D01*
X50001045Y-50937629D01*
X50043998Y-50884659D01*
X50115139Y-50834847D01*
X50276047Y-50673939D01*
X50406568Y-50487534D01*
X50502739Y-50281296D01*
X50561635Y-50061492D01*
X50581468Y-49834800D01*
X50561635Y-49608108D01*
X50502739Y-49388304D01*
X50406568Y-49182066D01*
X50389727Y-49158015D01*
X50276046Y-48995659D01*
X50115140Y-48834753D01*
X49928733Y-48704231D01*
X49870725Y-48677182D01*
X49818549Y-48631425D01*
X49799129Y-48564800D01*
X49818549Y-48498175D01*
X49870725Y-48452418D01*
X49928734Y-48425368D01*
X50115139Y-48294847D01*
X50276047Y-48133939D01*
X50406568Y-47947534D01*
X50502739Y-47741296D01*
X50561635Y-47521492D01*
X50581468Y-47294800D01*
X50561635Y-47068108D01*
X50502739Y-46848304D01*
X50406568Y-46642066D01*
X50276047Y-46455661D01*
X50276046Y-46455659D01*
X50115140Y-46294753D01*
X49928733Y-46164231D01*
X49870725Y-46137182D01*
X49818549Y-46091425D01*
X49799129Y-46024800D01*
X49818549Y-45958175D01*
X49870725Y-45912418D01*
X49928734Y-45885368D01*
X50115139Y-45754847D01*
X50276047Y-45593939D01*
X50406568Y-45407534D01*
X50502739Y-45201296D01*
X50561635Y-44981492D01*
X50581468Y-44754800D01*
X50561635Y-44528108D01*
X50502739Y-44308304D01*
X50406568Y-44102066D01*
X50276047Y-43915661D01*
X50276046Y-43915659D01*
X50115140Y-43754753D01*
X49928733Y-43624231D01*
X49870725Y-43597182D01*
X49818549Y-43551425D01*
X49799129Y-43484800D01*
X49818549Y-43418175D01*
X49870725Y-43372418D01*
X49928734Y-43345368D01*
X50115139Y-43214847D01*
X50276047Y-43053939D01*
X50406568Y-42867534D01*
X50502739Y-42661296D01*
X50561635Y-42441492D01*
X50581468Y-42214800D01*
X50561635Y-41988108D01*
X50502739Y-41768304D01*
X50406568Y-41562066D01*
X50276047Y-41375661D01*
X50276046Y-41375659D01*
X50115140Y-41214753D01*
X50043999Y-41164940D01*
X50001045Y-41111969D01*
X49992597Y-41044296D01*
X50021211Y-40982391D01*
X50078232Y-40944979D01*
X50165400Y-40917816D01*
X50310875Y-40829874D01*
X50431074Y-40709675D01*
X50519019Y-40564196D01*
X50569590Y-40401906D01*
X50576000Y-40331376D01*
X50576000Y-39924800D01*
X47976001Y-39924800D01*
X47976001Y-40331379D01*
X47982408Y-40401904D01*
X48032981Y-40564197D01*
X48120925Y-40709675D01*
X48241124Y-40829874D01*
X48386599Y-40917816D01*
X48473767Y-40944979D01*
X48530788Y-40982391D01*
X48559402Y-41044296D01*
X48550955Y-41111969D01*
X48508001Y-41164940D01*
X48436857Y-41214755D01*
X48275953Y-41375659D01*
X48145432Y-41562064D01*
X48049261Y-41768302D01*
X47990364Y-41988110D01*
X47970531Y-42214800D01*
X47990364Y-42441489D01*
X48049261Y-42661297D01*
X48145432Y-42867535D01*
X48275953Y-43053940D01*
X48436859Y-43214846D01*
X48623263Y-43345366D01*
X48623266Y-43345368D01*
X48681275Y-43372418D01*
X48733450Y-43418175D01*
X48752869Y-43484800D01*
X48733450Y-43551425D01*
X48681275Y-43597182D01*
X48623263Y-43624233D01*
X48436859Y-43754753D01*
X48275953Y-43915659D01*
X48145432Y-44102064D01*
X48049261Y-44308302D01*
X47990364Y-44528110D01*
X47970531Y-44754800D01*
X47990364Y-44981489D01*
X48049261Y-45201297D01*
X48145432Y-45407535D01*
X48275953Y-45593940D01*
X48436859Y-45754846D01*
X48623263Y-45885366D01*
X48623266Y-45885368D01*
X48681275Y-45912418D01*
X48733450Y-45958175D01*
X48752869Y-46024800D01*
X48733450Y-46091425D01*
X48681275Y-46137182D01*
X48623263Y-46164233D01*
X48436859Y-46294753D01*
X48275953Y-46455659D01*
X48145432Y-46642064D01*
X48049261Y-46848302D01*
X47990364Y-47068110D01*
X47970531Y-47294800D01*
X47990364Y-47521489D01*
X48049261Y-47741297D01*
X48145432Y-47947535D01*
X48275953Y-48133940D01*
X48436859Y-48294846D01*
X48623263Y-48425366D01*
X48623266Y-48425368D01*
X48681275Y-48452418D01*
X48733450Y-48498175D01*
X48752869Y-48564800D01*
X48733450Y-48631425D01*
X48681275Y-48677182D01*
X48623263Y-48704233D01*
X48436859Y-48834753D01*
X48275953Y-48995659D01*
X48145432Y-49182064D01*
X48049261Y-49388302D01*
X47990364Y-49608110D01*
X47970531Y-49834800D01*
X32801468Y-49834800D01*
X32781635Y-49608108D01*
X32722739Y-49388304D01*
X32626568Y-49182066D01*
X32609727Y-49158015D01*
X32496046Y-48995659D01*
X32335140Y-48834753D01*
X32148733Y-48704231D01*
X32090725Y-48677182D01*
X32038549Y-48631425D01*
X32019129Y-48564800D01*
X32038549Y-48498175D01*
X32090725Y-48452418D01*
X32148734Y-48425368D01*
X32335139Y-48294847D01*
X32496047Y-48133939D01*
X32626568Y-47947534D01*
X32722739Y-47741296D01*
X32781635Y-47521492D01*
X32801468Y-47294800D01*
X32781635Y-47068108D01*
X32722739Y-46848304D01*
X32626568Y-46642066D01*
X32496047Y-46455661D01*
X32496046Y-46455659D01*
X32335140Y-46294753D01*
X32148733Y-46164231D01*
X32090725Y-46137182D01*
X32038549Y-46091425D01*
X32019129Y-46024800D01*
X32038549Y-45958175D01*
X32090725Y-45912418D01*
X32148734Y-45885368D01*
X32335139Y-45754847D01*
X32496047Y-45593939D01*
X32626568Y-45407534D01*
X32722739Y-45201296D01*
X32781635Y-44981492D01*
X32801468Y-44754800D01*
X32781635Y-44528108D01*
X32722739Y-44308304D01*
X32626568Y-44102066D01*
X32496047Y-43915661D01*
X32496046Y-43915659D01*
X32335140Y-43754753D01*
X32148733Y-43624231D01*
X32090725Y-43597182D01*
X32038549Y-43551425D01*
X32019129Y-43484800D01*
X32038549Y-43418175D01*
X32090725Y-43372418D01*
X32148734Y-43345368D01*
X32335139Y-43214847D01*
X32496047Y-43053939D01*
X32626568Y-42867534D01*
X32722739Y-42661296D01*
X32781635Y-42441492D01*
X32801468Y-42214800D01*
X32781635Y-41988108D01*
X32722739Y-41768304D01*
X32626568Y-41562066D01*
X32496047Y-41375661D01*
X32496046Y-41375659D01*
X32335140Y-41214753D01*
X32263999Y-41164940D01*
X32221045Y-41111969D01*
X32212597Y-41044296D01*
X32241211Y-40982391D01*
X32298232Y-40944979D01*
X32385400Y-40917816D01*
X32530875Y-40829874D01*
X32651074Y-40709675D01*
X32739019Y-40564196D01*
X32789590Y-40401906D01*
X32796000Y-40331376D01*
X32796000Y-39924800D01*
X30196001Y-39924800D01*
X30196001Y-40331379D01*
X30202408Y-40401904D01*
X30252981Y-40564197D01*
X30340925Y-40709675D01*
X30461124Y-40829874D01*
X30606599Y-40917816D01*
X30693767Y-40944979D01*
X30750788Y-40982391D01*
X30779402Y-41044296D01*
X30770955Y-41111969D01*
X30728001Y-41164940D01*
X30656857Y-41214755D01*
X30495953Y-41375659D01*
X30365432Y-41562064D01*
X30269261Y-41768302D01*
X30210364Y-41988110D01*
X30190531Y-42214800D01*
X30210364Y-42441489D01*
X30269261Y-42661297D01*
X30365432Y-42867535D01*
X30495953Y-43053940D01*
X30656859Y-43214846D01*
X30843263Y-43345366D01*
X30843266Y-43345368D01*
X30901273Y-43372417D01*
X30953449Y-43418173D01*
X30972869Y-43484797D01*
X30953451Y-43551422D01*
X30901276Y-43597180D01*
X30843266Y-43624231D01*
X30656859Y-43754753D01*
X30495953Y-43915659D01*
X30365432Y-44102064D01*
X30269261Y-44308302D01*
X30210364Y-44528110D01*
X30190531Y-44754800D01*
X30210364Y-44981489D01*
X30269261Y-45201297D01*
X30365432Y-45407535D01*
X30495953Y-45593940D01*
X30656859Y-45754846D01*
X30843263Y-45885366D01*
X30843266Y-45885368D01*
X30901275Y-45912418D01*
X30953450Y-45958175D01*
X30972869Y-46024800D01*
X30953450Y-46091425D01*
X30901275Y-46137182D01*
X30843263Y-46164233D01*
X30656859Y-46294753D01*
X30495953Y-46455659D01*
X30365432Y-46642064D01*
X30269261Y-46848302D01*
X30210364Y-47068110D01*
X30190531Y-47294800D01*
X30210364Y-47521489D01*
X30269261Y-47741297D01*
X30365432Y-47947535D01*
X30495953Y-48133940D01*
X30656859Y-48294846D01*
X30843263Y-48425366D01*
X30843266Y-48425368D01*
X30901275Y-48452418D01*
X30953450Y-48498175D01*
X30972869Y-48564800D01*
X30953450Y-48631425D01*
X30901275Y-48677182D01*
X30843263Y-48704233D01*
X30656859Y-48834753D01*
X30495953Y-48995659D01*
X30365432Y-49182064D01*
X30269261Y-49388302D01*
X30210364Y-49608110D01*
X30190531Y-49834800D01*
X28971900Y-49834800D01*
X28971900Y-37134800D01*
X30190531Y-37134800D01*
X30210364Y-37361489D01*
X30269261Y-37581297D01*
X30365432Y-37787535D01*
X30495953Y-37973940D01*
X30656859Y-38134846D01*
X30728000Y-38184659D01*
X30770954Y-38237629D01*
X30779402Y-38305302D01*
X30750788Y-38367207D01*
X30693768Y-38404619D01*
X30606602Y-38431781D01*
X30461124Y-38519725D01*
X30340925Y-38639924D01*
X30252980Y-38785403D01*
X30202409Y-38947693D01*
X30196000Y-39018224D01*
X30196000Y-39424800D01*
X32795999Y-39424800D01*
X32795999Y-39018221D01*
X32789591Y-38947695D01*
X32739018Y-38785402D01*
X32651074Y-38639924D01*
X32530875Y-38519725D01*
X32385397Y-38431781D01*
X32298231Y-38404619D01*
X32241211Y-38367207D01*
X32212597Y-38305302D01*
X32221045Y-38237629D01*
X32263998Y-38184659D01*
X32335139Y-38134847D01*
X32496047Y-37973939D01*
X32626568Y-37787534D01*
X32722739Y-37581296D01*
X32781635Y-37361492D01*
X32801468Y-37134800D01*
X32781635Y-36908108D01*
X32722739Y-36688304D01*
X32626568Y-36482066D01*
X32496047Y-36295661D01*
X32496046Y-36295659D01*
X32335140Y-36134753D01*
X32148733Y-36004231D01*
X32090725Y-35977182D01*
X32038549Y-35931425D01*
X32019129Y-35864800D01*
X32038549Y-35798175D01*
X32090725Y-35752418D01*
X32148734Y-35725368D01*
X32335139Y-35594847D01*
X32496047Y-35433939D01*
X32626568Y-35247534D01*
X32722739Y-35041296D01*
X32781635Y-34821492D01*
X32801468Y-34594800D01*
X32781635Y-34368108D01*
X32722739Y-34148304D01*
X32626568Y-33942066D01*
X32496047Y-33755661D01*
X32496046Y-33755659D01*
X32335140Y-33594753D01*
X32148732Y-33464230D01*
X32090724Y-33437180D01*
X32038549Y-33391423D01*
X32019130Y-33324797D01*
X32038550Y-33258173D01*
X32090721Y-33212419D01*
X32148734Y-33185368D01*
X32335139Y-33054847D01*
X32496047Y-32893939D01*
X32626568Y-32707534D01*
X32722739Y-32501296D01*
X32781635Y-32281492D01*
X32801468Y-32054800D01*
X32781635Y-31828108D01*
X32722739Y-31608304D01*
X32626568Y-31402066D01*
X32603877Y-31369660D01*
X32496046Y-31215659D01*
X32335140Y-31054753D01*
X32148733Y-30924231D01*
X32090725Y-30897182D01*
X32038549Y-30851425D01*
X32019129Y-30784800D01*
X32038549Y-30718175D01*
X32090725Y-30672418D01*
X32148734Y-30645368D01*
X32335139Y-30514847D01*
X32496047Y-30353939D01*
X32626568Y-30167534D01*
X32722739Y-29961296D01*
X32781635Y-29741492D01*
X32801468Y-29514800D01*
X32781635Y-29288108D01*
X32722739Y-29068304D01*
X32626568Y-28862066D01*
X32496047Y-28675661D01*
X32496046Y-28675659D01*
X32335140Y-28514753D01*
X32263999Y-28464940D01*
X32221045Y-28411969D01*
X32212597Y-28344296D01*
X32241211Y-28282391D01*
X32298232Y-28244979D01*
X32385400Y-28217816D01*
X32530875Y-28129874D01*
X32651074Y-28009675D01*
X32739019Y-27864196D01*
X32789590Y-27701906D01*
X32796000Y-27631376D01*
X32796000Y-27224800D01*
X30196001Y-27224800D01*
X30196001Y-27631379D01*
X30202408Y-27701904D01*
X30252981Y-27864197D01*
X30340925Y-28009675D01*
X30461124Y-28129874D01*
X30606599Y-28217816D01*
X30693767Y-28244979D01*
X30750788Y-28282391D01*
X30779402Y-28344296D01*
X30770955Y-28411969D01*
X30728001Y-28464940D01*
X30656857Y-28514755D01*
X30495953Y-28675659D01*
X30365432Y-28862064D01*
X30269261Y-29068302D01*
X30210364Y-29288110D01*
X30190531Y-29514799D01*
X30210364Y-29741489D01*
X30269261Y-29961297D01*
X30365432Y-30167535D01*
X30495953Y-30353940D01*
X30656859Y-30514846D01*
X30843263Y-30645366D01*
X30843266Y-30645368D01*
X30901275Y-30672418D01*
X30953450Y-30718175D01*
X30972869Y-30784800D01*
X30953450Y-30851425D01*
X30901275Y-30897182D01*
X30843263Y-30924233D01*
X30656859Y-31054753D01*
X30495953Y-31215659D01*
X30365432Y-31402064D01*
X30269261Y-31608302D01*
X30210364Y-31828110D01*
X30190531Y-32054799D01*
X30210364Y-32281489D01*
X30269261Y-32501297D01*
X30365432Y-32707535D01*
X30495953Y-32893940D01*
X30656859Y-33054846D01*
X30702615Y-33086884D01*
X30843266Y-33185368D01*
X30901275Y-33212418D01*
X30953450Y-33258175D01*
X30972869Y-33324800D01*
X30953450Y-33391425D01*
X30901275Y-33437182D01*
X30843263Y-33464233D01*
X30656859Y-33594753D01*
X30495953Y-33755659D01*
X30365432Y-33942064D01*
X30269261Y-34148302D01*
X30210364Y-34368110D01*
X30190531Y-34594800D01*
X30210364Y-34821489D01*
X30269261Y-35041297D01*
X30365432Y-35247535D01*
X30495953Y-35433940D01*
X30656859Y-35594846D01*
X30843263Y-35725366D01*
X30843266Y-35725368D01*
X30901275Y-35752418D01*
X30953450Y-35798175D01*
X30972869Y-35864800D01*
X30953450Y-35931425D01*
X30901275Y-35977182D01*
X30843263Y-36004233D01*
X30656859Y-36134753D01*
X30495953Y-36295659D01*
X30365432Y-36482064D01*
X30269261Y-36688302D01*
X30210364Y-36908110D01*
X30190531Y-37134800D01*
X28971900Y-37134800D01*
X28971900Y-25558052D01*
X28981339Y-25510599D01*
X29008219Y-25470371D01*
X29381971Y-25096619D01*
X29422199Y-25069739D01*
X29469652Y-25060300D01*
X30281812Y-25060300D01*
X30339069Y-25074311D01*
X30383387Y-25113177D01*
X30495953Y-25273940D01*
X30656859Y-25434846D01*
X30728000Y-25484659D01*
X30770954Y-25537629D01*
X30779402Y-25605302D01*
X30750788Y-25667207D01*
X30693768Y-25704619D01*
X30606602Y-25731781D01*
X30461124Y-25819725D01*
X30340925Y-25939924D01*
X30252980Y-26085403D01*
X30202409Y-26247693D01*
X30196000Y-26318224D01*
X30196000Y-26724800D01*
X32795999Y-26724800D01*
X32795999Y-26318221D01*
X32789591Y-26247695D01*
X32739018Y-26085402D01*
X32651074Y-25939924D01*
X32530875Y-25819725D01*
X32385397Y-25731781D01*
X32298231Y-25704619D01*
X32241211Y-25667207D01*
X32212597Y-25605302D01*
X32221045Y-25537629D01*
X32263998Y-25484659D01*
X32335139Y-25434847D01*
X32496047Y-25273939D01*
X32626568Y-25087534D01*
X32722739Y-24881296D01*
X32781635Y-24661492D01*
X32801468Y-24434800D01*
X32801468Y-24434799D01*
X47970531Y-24434799D01*
X47990364Y-24661489D01*
X48049261Y-24881297D01*
X48145432Y-25087535D01*
X48275953Y-25273940D01*
X48436859Y-25434846D01*
X48508000Y-25484659D01*
X48550954Y-25537629D01*
X48559402Y-25605302D01*
X48530788Y-25667207D01*
X48473768Y-25704619D01*
X48386602Y-25731781D01*
X48241124Y-25819725D01*
X48120925Y-25939924D01*
X48032980Y-26085403D01*
X47982409Y-26247693D01*
X47976000Y-26318224D01*
X47976000Y-26724800D01*
X50575999Y-26724800D01*
X50575999Y-26318221D01*
X50569591Y-26247695D01*
X50519018Y-26085402D01*
X50431074Y-25939924D01*
X50310875Y-25819725D01*
X50165397Y-25731781D01*
X50078231Y-25704619D01*
X50021211Y-25667207D01*
X49992597Y-25605302D01*
X50001045Y-25537629D01*
X50043998Y-25484659D01*
X50115139Y-25434847D01*
X50276047Y-25273939D01*
X50406568Y-25087534D01*
X50502739Y-24881296D01*
X50561635Y-24661492D01*
X50581468Y-24434800D01*
X50561635Y-24208108D01*
X50502739Y-23988304D01*
X50406568Y-23782066D01*
X50389846Y-23758185D01*
X50276046Y-23595659D01*
X50115140Y-23434753D01*
X49928733Y-23304231D01*
X49870725Y-23277182D01*
X49818549Y-23231425D01*
X49799129Y-23164800D01*
X49818549Y-23098175D01*
X49870725Y-23052418D01*
X49872252Y-23051706D01*
X49928734Y-23025368D01*
X50115139Y-22894847D01*
X50276047Y-22733939D01*
X50406568Y-22547534D01*
X50502739Y-22341296D01*
X50561635Y-22121492D01*
X50576511Y-21951456D01*
X60211270Y-21951456D01*
X60212478Y-22176974D01*
X60216332Y-22211171D01*
X60216332Y-22211173D01*
X60222699Y-22267686D01*
X60247897Y-22378090D01*
X60278400Y-22451729D01*
X60338646Y-22547608D01*
X60395554Y-22618971D01*
X60794628Y-23018045D01*
X60865991Y-23074953D01*
X60882677Y-23085438D01*
X60927048Y-23133861D01*
X60940463Y-23198155D01*
X60919158Y-23260282D01*
X60874881Y-23297908D01*
X60874952Y-23298010D01*
X60873871Y-23298766D01*
X60869111Y-23302812D01*
X60866065Y-23304232D01*
X60679659Y-23434753D01*
X60518753Y-23595659D01*
X60388232Y-23782064D01*
X60292061Y-23988302D01*
X60233164Y-24208110D01*
X60213331Y-24434799D01*
X60233164Y-24661489D01*
X60292061Y-24881297D01*
X60388232Y-25087535D01*
X60518753Y-25273940D01*
X60679659Y-25434846D01*
X60750800Y-25484659D01*
X60793754Y-25537629D01*
X60802202Y-25605302D01*
X60773588Y-25667207D01*
X60716568Y-25704619D01*
X60629402Y-25731781D01*
X60483924Y-25819725D01*
X60363725Y-25939924D01*
X60275780Y-26085403D01*
X60225209Y-26247693D01*
X60218800Y-26318224D01*
X60218800Y-26724800D01*
X62818799Y-26724800D01*
X62818799Y-26318221D01*
X62812391Y-26247695D01*
X62761818Y-26085402D01*
X62673874Y-25939924D01*
X62553675Y-25819725D01*
X62408197Y-25731781D01*
X62321031Y-25704619D01*
X62264011Y-25667207D01*
X62235397Y-25605302D01*
X62243845Y-25537629D01*
X62286798Y-25484659D01*
X62357939Y-25434847D01*
X62518847Y-25273939D01*
X62649368Y-25087534D01*
X62745539Y-24881296D01*
X62804435Y-24661492D01*
X62824268Y-24434800D01*
X77993331Y-24434800D01*
X78013164Y-24661489D01*
X78072061Y-24881297D01*
X78168232Y-25087535D01*
X78298753Y-25273940D01*
X78459659Y-25434846D01*
X78530800Y-25484659D01*
X78573754Y-25537629D01*
X78582202Y-25605302D01*
X78553588Y-25667207D01*
X78496568Y-25704619D01*
X78409402Y-25731781D01*
X78263924Y-25819725D01*
X78143725Y-25939924D01*
X78055780Y-26085403D01*
X78005209Y-26247693D01*
X77998800Y-26318224D01*
X77998800Y-26724800D01*
X80598799Y-26724800D01*
X80598799Y-26318221D01*
X80592391Y-26247695D01*
X80541818Y-26085402D01*
X80453874Y-25939924D01*
X80443350Y-25929400D01*
X105802777Y-25929400D01*
X105822716Y-26048891D01*
X105903431Y-26284006D01*
X106021746Y-26502633D01*
X106174431Y-26698803D01*
X106357322Y-26867166D01*
X106565434Y-27003133D01*
X106793078Y-27102986D01*
X107034067Y-27164013D01*
X107219751Y-27179400D01*
X108131800Y-27179400D01*
X108131800Y-25929400D01*
X108631800Y-25929400D01*
X108631800Y-27179400D01*
X109543849Y-27179400D01*
X109729532Y-27164013D01*
X109970521Y-27102986D01*
X110198165Y-27003133D01*
X110406277Y-26867166D01*
X110589168Y-26698803D01*
X110741853Y-26502633D01*
X110860168Y-26284006D01*
X110940883Y-26048891D01*
X110949042Y-25999999D01*
X115394551Y-25999999D01*
X115414317Y-26251149D01*
X115473126Y-26496110D01*
X115475828Y-26502633D01*
X115569534Y-26728859D01*
X115701164Y-26943659D01*
X115864776Y-27135224D01*
X116056341Y-27298836D01*
X116271141Y-27430466D01*
X116503889Y-27526873D01*
X116748852Y-27585683D01*
X117000000Y-27605449D01*
X117251148Y-27585683D01*
X117496111Y-27526873D01*
X117728859Y-27430466D01*
X117943659Y-27298836D01*
X118135224Y-27135224D01*
X118298836Y-26943659D01*
X118430466Y-26728859D01*
X118526873Y-26496111D01*
X118585683Y-26251148D01*
X118605449Y-26000000D01*
X118585683Y-25748852D01*
X118526873Y-25503889D01*
X118430466Y-25271141D01*
X118298836Y-25056341D01*
X118135224Y-24864776D01*
X117943659Y-24701164D01*
X117728859Y-24569534D01*
X117592137Y-24512902D01*
X117496110Y-24473126D01*
X117251149Y-24414317D01*
X117000000Y-24394551D01*
X116748850Y-24414317D01*
X116503889Y-24473126D01*
X116305224Y-24555416D01*
X116276115Y-24567474D01*
X116271139Y-24569535D01*
X116056342Y-24701163D01*
X115864776Y-24864776D01*
X115701163Y-25056342D01*
X115569535Y-25271139D01*
X115473126Y-25503889D01*
X115414317Y-25748850D01*
X115394551Y-25999999D01*
X110949042Y-25999999D01*
X110960823Y-25929400D01*
X108631800Y-25929400D01*
X108131800Y-25929400D01*
X105802777Y-25929400D01*
X80443350Y-25929400D01*
X80333675Y-25819725D01*
X80188197Y-25731781D01*
X80101031Y-25704619D01*
X80044011Y-25667207D01*
X80015397Y-25605302D01*
X80023845Y-25537629D01*
X80066798Y-25484659D01*
X80137939Y-25434847D01*
X80298847Y-25273939D01*
X80429368Y-25087534D01*
X80525539Y-24881296D01*
X80562593Y-24743008D01*
X92624100Y-24743008D01*
X92634600Y-24845796D01*
X92689786Y-25012334D01*
X92781888Y-25161657D01*
X92905942Y-25285711D01*
X92905944Y-25285712D01*
X93055266Y-25377814D01*
X93166617Y-25414712D01*
X93221802Y-25432999D01*
X93232303Y-25434071D01*
X93324591Y-25443500D01*
X94624608Y-25443499D01*
X94727397Y-25432999D01*
X94893934Y-25377814D01*
X95043256Y-25285712D01*
X95167312Y-25161656D01*
X95259414Y-25012334D01*
X95259414Y-25012331D01*
X95262778Y-25006879D01*
X95301691Y-24967395D01*
X95353921Y-24948814D01*
X95409028Y-24954849D01*
X95455998Y-24984294D01*
X95603199Y-25131495D01*
X95796770Y-25267035D01*
X96010937Y-25366903D01*
X96239192Y-25428063D01*
X96474600Y-25448659D01*
X96694738Y-25429399D01*
X105802776Y-25429399D01*
X105802778Y-25429400D01*
X108131800Y-25429400D01*
X108131800Y-24179400D01*
X108631800Y-24179400D01*
X108631800Y-25429400D01*
X110960822Y-25429400D01*
X110960823Y-25429399D01*
X110940883Y-25309908D01*
X110860168Y-25074793D01*
X110741853Y-24856166D01*
X110589168Y-24659996D01*
X110406277Y-24491633D01*
X110198165Y-24355666D01*
X109970521Y-24255813D01*
X109729532Y-24194786D01*
X109543849Y-24179400D01*
X108631800Y-24179400D01*
X108131800Y-24179400D01*
X107219751Y-24179400D01*
X107034067Y-24194786D01*
X106793078Y-24255813D01*
X106565434Y-24355666D01*
X106357322Y-24491633D01*
X106174431Y-24659996D01*
X106021746Y-24856166D01*
X105903431Y-25074793D01*
X105822716Y-25309908D01*
X105802776Y-25429399D01*
X96694738Y-25429399D01*
X96710008Y-25428063D01*
X96938263Y-25366903D01*
X97152429Y-25267035D01*
X97346001Y-25131495D01*
X97513095Y-24964401D01*
X97648635Y-24770829D01*
X97748503Y-24556663D01*
X97809663Y-24328408D01*
X97821354Y-24194786D01*
X97825100Y-24151968D01*
X97825100Y-23884032D01*
X97809663Y-23707592D01*
X97780196Y-23597619D01*
X97748503Y-23479337D01*
X97648635Y-23265171D01*
X97513095Y-23071599D01*
X97346001Y-22904505D01*
X97152430Y-22768965D01*
X96938263Y-22669097D01*
X96871481Y-22651203D01*
X96710007Y-22607936D01*
X96474599Y-22587340D01*
X96239192Y-22607936D01*
X96010936Y-22669097D01*
X95796770Y-22768965D01*
X95603201Y-22904503D01*
X95455998Y-23051706D01*
X95409028Y-23081151D01*
X95353921Y-23087185D01*
X95301691Y-23068604D01*
X95262778Y-23029120D01*
X95167311Y-22874342D01*
X95043257Y-22750288D01*
X94893934Y-22658186D01*
X94727397Y-22603000D01*
X94624609Y-22592500D01*
X93324591Y-22592500D01*
X93221803Y-22603000D01*
X93055265Y-22658186D01*
X92905942Y-22750288D01*
X92781888Y-22874342D01*
X92689786Y-23023665D01*
X92634600Y-23190202D01*
X92624100Y-23292990D01*
X92624100Y-24743008D01*
X80562593Y-24743008D01*
X80584435Y-24661492D01*
X80604268Y-24434800D01*
X80584435Y-24208108D01*
X80525539Y-23988304D01*
X80429368Y-23782066D01*
X80412646Y-23758185D01*
X80298846Y-23595659D01*
X80137940Y-23434753D01*
X79951533Y-23304231D01*
X79893525Y-23277182D01*
X79841349Y-23231425D01*
X79821929Y-23164800D01*
X79841349Y-23098175D01*
X79893525Y-23052418D01*
X79895052Y-23051706D01*
X79951534Y-23025368D01*
X80137939Y-22894847D01*
X80298847Y-22733939D01*
X80429368Y-22547534D01*
X80525539Y-22341296D01*
X80584435Y-22121492D01*
X80604268Y-21894800D01*
X80584435Y-21668108D01*
X80525539Y-21448304D01*
X80429368Y-21242066D01*
X80429315Y-21241991D01*
X80298846Y-21055659D01*
X80137940Y-20894753D01*
X79951535Y-20764232D01*
X79745297Y-20668061D01*
X79525489Y-20609164D01*
X79298800Y-20589331D01*
X79072110Y-20609164D01*
X78852302Y-20668061D01*
X78646064Y-20764232D01*
X78459659Y-20894753D01*
X78298753Y-21055659D01*
X78168232Y-21242064D01*
X78072061Y-21448302D01*
X78013164Y-21668110D01*
X77993331Y-21894800D01*
X78013164Y-22121489D01*
X78072061Y-22341297D01*
X78168232Y-22547535D01*
X78298753Y-22733940D01*
X78459659Y-22894846D01*
X78643634Y-23023665D01*
X78646066Y-23025368D01*
X78702548Y-23051706D01*
X78704075Y-23052418D01*
X78756250Y-23098175D01*
X78775669Y-23164800D01*
X78756250Y-23231425D01*
X78704075Y-23277182D01*
X78646063Y-23304233D01*
X78459659Y-23434753D01*
X78298753Y-23595659D01*
X78168232Y-23782064D01*
X78072061Y-23988302D01*
X78013164Y-24208110D01*
X77993331Y-24434800D01*
X62824268Y-24434800D01*
X62804435Y-24208108D01*
X62745539Y-23988304D01*
X62649368Y-23782066D01*
X62632646Y-23758185D01*
X62518846Y-23595659D01*
X62357940Y-23434753D01*
X62171536Y-23304233D01*
X62171532Y-23304231D01*
X62168490Y-23302812D01*
X62163731Y-23298768D01*
X62162648Y-23298010D01*
X62162719Y-23297908D01*
X62118442Y-23260283D01*
X62097136Y-23198155D01*
X62110551Y-23133860D01*
X62154924Y-23085437D01*
X62161745Y-23081151D01*
X62171606Y-23074955D01*
X62242971Y-23018045D01*
X62642045Y-22618971D01*
X62698955Y-22547606D01*
X62759201Y-22451726D01*
X62789701Y-22378094D01*
X62814900Y-22267688D01*
X62821268Y-22211172D01*
X62825121Y-22176976D01*
X62826330Y-21951415D01*
X62826330Y-21838185D01*
X62825121Y-21612624D01*
X62821268Y-21578428D01*
X62814900Y-21521912D01*
X62792422Y-21423426D01*
X62789702Y-21411509D01*
X62783539Y-21396630D01*
X62759201Y-21337874D01*
X62759199Y-21337872D01*
X62759199Y-21337870D01*
X62698953Y-21241991D01*
X62642045Y-21170628D01*
X62242971Y-20771554D01*
X62171608Y-20714646D01*
X62075729Y-20654400D01*
X62002090Y-20623897D01*
X61891686Y-20598699D01*
X61835173Y-20592332D01*
X61835172Y-20592332D01*
X61830828Y-20591842D01*
X61800974Y-20588478D01*
X61575456Y-20587270D01*
X61575415Y-20587270D01*
X61462185Y-20587270D01*
X61462144Y-20587270D01*
X61236625Y-20588478D01*
X61206281Y-20591897D01*
X61202428Y-20592332D01*
X61202427Y-20592332D01*
X61145913Y-20598699D01*
X61035509Y-20623897D01*
X60961870Y-20654400D01*
X60865991Y-20714646D01*
X60794628Y-20771554D01*
X60395554Y-21170628D01*
X60338646Y-21241991D01*
X60278400Y-21337870D01*
X60247897Y-21411509D01*
X60222699Y-21521913D01*
X60216332Y-21578427D01*
X60216332Y-21578429D01*
X60212478Y-21612625D01*
X60211270Y-21838144D01*
X60211270Y-21951456D01*
X50576511Y-21951456D01*
X50581468Y-21894800D01*
X50561635Y-21668108D01*
X50502739Y-21448304D01*
X50406568Y-21242066D01*
X50406515Y-21241991D01*
X50276046Y-21055659D01*
X50115140Y-20894753D01*
X49928735Y-20764232D01*
X49722497Y-20668061D01*
X49502689Y-20609164D01*
X49276000Y-20589331D01*
X49049310Y-20609164D01*
X48829502Y-20668061D01*
X48623264Y-20764232D01*
X48436859Y-20894753D01*
X48275953Y-21055659D01*
X48145432Y-21242064D01*
X48049261Y-21448302D01*
X47990364Y-21668110D01*
X47970531Y-21894799D01*
X47990364Y-22121489D01*
X48049261Y-22341297D01*
X48145432Y-22547535D01*
X48275953Y-22733940D01*
X48436859Y-22894846D01*
X48620834Y-23023665D01*
X48623266Y-23025368D01*
X48679748Y-23051706D01*
X48681275Y-23052418D01*
X48733450Y-23098175D01*
X48752869Y-23164800D01*
X48733450Y-23231425D01*
X48681275Y-23277182D01*
X48623263Y-23304233D01*
X48436859Y-23434753D01*
X48275953Y-23595659D01*
X48145432Y-23782064D01*
X48049261Y-23988302D01*
X47990364Y-24208110D01*
X47970531Y-24434799D01*
X32801468Y-24434799D01*
X32781635Y-24208108D01*
X32722739Y-23988304D01*
X32626568Y-23782066D01*
X32609846Y-23758185D01*
X32496046Y-23595659D01*
X32335140Y-23434753D01*
X32148736Y-23304233D01*
X32148732Y-23304231D01*
X32145690Y-23302812D01*
X32140931Y-23298768D01*
X32139848Y-23298010D01*
X32139919Y-23297908D01*
X32095642Y-23260283D01*
X32074336Y-23198155D01*
X32087751Y-23133860D01*
X32132124Y-23085437D01*
X32138945Y-23081151D01*
X32148806Y-23074955D01*
X32220171Y-23018045D01*
X32619245Y-22618971D01*
X32676155Y-22547606D01*
X32736401Y-22451726D01*
X32766901Y-22378094D01*
X32792100Y-22267688D01*
X32798468Y-22211172D01*
X32802321Y-22176976D01*
X32803530Y-21951415D01*
X32803530Y-21838185D01*
X32802321Y-21612624D01*
X32798468Y-21578428D01*
X32792100Y-21521912D01*
X32769622Y-21423426D01*
X32766902Y-21411509D01*
X32760739Y-21396630D01*
X32736401Y-21337874D01*
X32736399Y-21337872D01*
X32736399Y-21337870D01*
X32676153Y-21241991D01*
X32619245Y-21170628D01*
X32220171Y-20771554D01*
X32148808Y-20714646D01*
X32052929Y-20654400D01*
X31979290Y-20623897D01*
X31868886Y-20598699D01*
X31812373Y-20592332D01*
X31812372Y-20592332D01*
X31808028Y-20591842D01*
X31778174Y-20588478D01*
X31552656Y-20587270D01*
X31552615Y-20587270D01*
X31439385Y-20587270D01*
X31439344Y-20587270D01*
X31213825Y-20588478D01*
X31183481Y-20591897D01*
X31179628Y-20592332D01*
X31179627Y-20592332D01*
X31123113Y-20598699D01*
X31012709Y-20623897D01*
X30939070Y-20654400D01*
X30843191Y-20714646D01*
X30771828Y-20771554D01*
X30372754Y-21170628D01*
X30331301Y-21222611D01*
X30288155Y-21257020D01*
X30244999Y-21266870D01*
X30245183Y-21268324D01*
X30237452Y-21269300D01*
X30237450Y-21269300D01*
X30233471Y-21269802D01*
X30221841Y-21270717D01*
X30178172Y-21272089D01*
X30158928Y-21277680D01*
X30139884Y-21281624D01*
X30120008Y-21284135D01*
X30079400Y-21300213D01*
X30068354Y-21303994D01*
X30026410Y-21316182D01*
X30026407Y-21316183D01*
X30009165Y-21326379D01*
X29991704Y-21334933D01*
X29973067Y-21342312D01*
X29937731Y-21367985D01*
X29927974Y-21374395D01*
X29890380Y-21396629D01*
X29876213Y-21410796D01*
X29861424Y-21423426D01*
X29845213Y-21435204D01*
X29817372Y-21468858D01*
X29809511Y-21477497D01*
X27099008Y-24187999D01*
X27082910Y-24200896D01*
X27034896Y-24252025D01*
X27032191Y-24254817D01*
X27012674Y-24274334D01*
X27010215Y-24277505D01*
X27002642Y-24286372D01*
X26972735Y-24318220D01*
X26963085Y-24335774D01*
X26952409Y-24352028D01*
X26940126Y-24367863D01*
X26922775Y-24407958D01*
X26917638Y-24418444D01*
X26896602Y-24456707D01*
X26891621Y-24476109D01*
X26885320Y-24494511D01*
X26877361Y-24512902D01*
X26870528Y-24556042D01*
X26868160Y-24567474D01*
X26857300Y-24609778D01*
X26857300Y-24629816D01*
X26855773Y-24649215D01*
X26852640Y-24668994D01*
X26856750Y-24712475D01*
X26857300Y-24724144D01*
X26857300Y-46326927D01*
X26839509Y-46390924D01*
X26791241Y-46436557D01*
X26726347Y-46450732D01*
X26663449Y-46429381D01*
X26466634Y-46295195D01*
X26237004Y-46184611D01*
X25993458Y-46109487D01*
X25741435Y-46071500D01*
X25486565Y-46071500D01*
X25234542Y-46109487D01*
X24990996Y-46184611D01*
X24761366Y-46295195D01*
X24714824Y-46326927D01*
X24550781Y-46438769D01*
X24363950Y-46612123D01*
X24205038Y-46811392D01*
X24077608Y-47032108D01*
X23984492Y-47269362D01*
X23927777Y-47517845D01*
X23912694Y-47719113D01*
X23894240Y-47775491D01*
X23851709Y-47816845D01*
X23794836Y-47833711D01*
X23736637Y-47822228D01*
X23577663Y-47748097D01*
X23516501Y-47731709D01*
X23349407Y-47686936D01*
X23114000Y-47666340D01*
X22878592Y-47686936D01*
X22650336Y-47748097D01*
X22436170Y-47847965D01*
X22242598Y-47983505D01*
X22075505Y-48150598D01*
X21939965Y-48344170D01*
X21840097Y-48558336D01*
X21778936Y-48786592D01*
X21758340Y-49022000D01*
X20000500Y-49022000D01*
X20000500Y-27253801D01*
X20003011Y-25999999D01*
X21394551Y-25999999D01*
X21414317Y-26251149D01*
X21473126Y-26496110D01*
X21475828Y-26502633D01*
X21569534Y-26728859D01*
X21701164Y-26943659D01*
X21864776Y-27135224D01*
X22056341Y-27298836D01*
X22271141Y-27430466D01*
X22503889Y-27526873D01*
X22748852Y-27585683D01*
X23000000Y-27605449D01*
X23251148Y-27585683D01*
X23496111Y-27526873D01*
X23728859Y-27430466D01*
X23943659Y-27298836D01*
X24135224Y-27135224D01*
X24298836Y-26943659D01*
X24430466Y-26728859D01*
X24526873Y-26496111D01*
X24585683Y-26251148D01*
X24605449Y-26000000D01*
X24585683Y-25748852D01*
X24526873Y-25503889D01*
X24430466Y-25271141D01*
X24298836Y-25056341D01*
X24135224Y-24864776D01*
X23943659Y-24701164D01*
X23728859Y-24569534D01*
X23592137Y-24512902D01*
X23496110Y-24473126D01*
X23251149Y-24414317D01*
X23000000Y-24394551D01*
X22748850Y-24414317D01*
X22503889Y-24473126D01*
X22305224Y-24555416D01*
X22276115Y-24567474D01*
X22271139Y-24569535D01*
X22056342Y-24701163D01*
X21864776Y-24864776D01*
X21701163Y-25056342D01*
X21569535Y-25271139D01*
X21473126Y-25503889D01*
X21414317Y-25748850D01*
X21394551Y-25999999D01*
X20003011Y-25999999D01*
X20003548Y-25731781D01*
X20014778Y-20124251D01*
X20031474Y-20062357D01*
X20076850Y-20017071D01*
X20138778Y-20000500D01*
X119875500Y-20000500D01*
X119937500Y-20017113D01*
G37*
%TD.AperFunction*%
%TD*%
M02*
