999
FreeCAD v0.20 29603 (Git)
  0
SECTION
  2
HEADER
  9
$ACADVER
  1
AC1014
  9
$ACADMAINTVER
 70
     9
  9
$DWGCODEPAGE
  3
ANSI_1252
  9
$TEXTSTYLE
  7
STANDARD
  9
$DIMSTYLE
  2
STANDARD
  9
$DIMTXSTY
  7
STANDARD
  9
$CMLSTYLE
  2
STANDARD
  9
$LUNITS
 70
2
  9
$INSUNITS
 70
4
  9
$PEXTMAX
 10
50
 20
50
 30
50
  9
$PEXTMIN
 10
0
 20
0
 30
0
  9
$HANDSEED
  5
FFFF
  0
ENDSEC
  0
SECTION
  2
CLASSES
  0
CLASS
  1
ACDBDICTIONARYWDFLT
  2
AcDbDictionaryWithDefault
  3
ObjectDBX Classes
 90
        0
280
     0
281
     0
  0
CLASS
  1
XRECORD
  2
AcDbXrecord
  3
ObjectDBX Classes
 90
        0
280
     0
281
     0
  0
CLASS
  1
LWPOLYLINE
  2
AcDbPolyline
  3
ObjectDBX Classes
 90
        0
280
     0
281
     1
  0
ENDSEC
  0
SECTION
  2
TABLES
  0
TABLE
  2
VPORT
  5
20
330
0
100
AcDbSymbolTable
 70
     1
  0
VPORT
  5
21
330
20
100
AcDbSymbolTableRecord
100
AcDbViewportTableRecord
  2
*ACTIVE
 70
     0
  0
ENDTAB
  0
TABLE
  2
LTYPE
  5
22
330
0
100
AcDbSymbolTable
 70
     1
  0
LTYPE
  5
23
330
21
100
AcDbSymbolTableRecord
100
AcDbLinetypeTableRecord
  2
BYBLOCK
 70
     0
  3

 72
    65
 73
     0
 40
0.0
  0
LTYPE
  5
24
330
21
100
AcDbSymbolTableRecord
100
AcDbLinetypeTableRecord
  2
BYLAYER
 70
     0
  3

 72
    65
 73
     0
 40
0.0
  0
LTYPE
  5
25
330
21
100
AcDbSymbolTableRecord
100
AcDbLinetypeTableRecord
  2
CONTINUOUS
 70
     0
  3
Solid line
 72
    65
 73
     0
 40
0.0
  0
ENDTAB
  0
TABLE
  2
LAYER
  5
BDD
330
0
100
AcDbSymbolTable
 70
7
  0
LAYER
  5
BDE
330
BDD
100
AcDbSymbolTableRecord
100
AcDbLayerTableRecord
  2
0
 70
   0
 62
   7
  6
CONTINUOUS
  0
LAYER
  5
BDF
330
BDD
100
AcDbSymbolTableRecord
100
AcDbLayerTableRecord
  2
View002
 70
    0
 62
    7
  6
CONTINUOUS
  0
LAYER
  5
BE0
330
BDD
100
AcDbSymbolTableRecord
100
AcDbLayerTableRecord
  2
View003
 70
    0
 62
    7
  6
CONTINUOUS
  0
LAYER
  5
BE1
330
BDD
100
AcDbSymbolTableRecord
100
AcDbLayerTableRecord
  2
View004
 70
    0
 62
    7
  6
CONTINUOUS
  0
LAYER
  5
BE2
330
BDD
100
AcDbSymbolTableRecord
100
AcDbLayerTableRecord
  2
View005
 70
    0
 62
    7
  6
CONTINUOUS
  0
LAYER
  5
BE3
330
BDD
100
AcDbSymbolTableRecord
100
AcDbLayerTableRecord
  2
View006
 70
    0
 62
    7
  6
CONTINUOUS
  0
LAYER
  5
BE4
330
BDD
100
AcDbSymbolTableRecord
100
AcDbLayerTableRecord
  2
View007
 70
    0
 62
    7
  6
CONTINUOUS
  0
ENDTAB
  0
TABLE
  2
STYLE
  5
70
330
0
100
AcDbSymbolTable
 70
     2
  0
STYLE
  5
71
330
70
100
AcDbSymbolTableRecord
100
AcDbTextStyleTableRecord
  2
STANDARD
 70
     0
 40
0.0
 41
1.0
 50
0.0
 71
     0
 42
2.5
  3
arial.ttf
  4

  0
STYLE
  5
72
330
70
100
AcDbSymbolTableRecord
100
AcDbTextStyleTableRecord
  2
ANNOTATIVE
 70
     0
 40
0.0
 41
1.0
 50
0.0
 71
     0
 42
2.5
  3
arial.ttf
  4

  0
ENDTAB
  0
TABLE
  2
VIEW
  5
73
330
0
100
AcDbSymbolTable
 70
     0
  0
ENDTAB
  0
TABLE
  2
UCS
  5
74
330
0
100
AcDbSymbolTable
 70
     0
  0
ENDTAB
  0
TABLE
  2
APPID
  5
75
330
0
100
AcDbSymbolTable
 70
     2
  0
APPID
  5
76
330
75
100
AcDbSymbolTableRecord
100
AcDbRegAppTableRecord
  2
ACAD
 70
     0
  0
APPID
  5
77
330
75
100
AcDbSymbolTableRecord
100
AcDbRegAppTableRecord
  2
ACADANNOTATIVE
 70
     0
  0
ENDTAB
  0
TABLE
  2
DIMSTYLE
  5
78
330
0
100
AcDbSymbolTable
 70
     2
  0
DIMSTYLE
105
79
330
78
100
AcDbSymbolTableRecord
100
AcDbDimStyleTableRecord
  2
STANDARD
 70
     0
  3

  4

  5

  6

  7

 40
0.0
 41
2.5
 42
0.625
 43
3.75
 44
1.25
 45
0.0
 46
0.0
 47
0.0
 48
0.0
140
2.5
141
2.5
142
0.0
143
0.03937007874016
144
1.0
145
0.0
146
1.0
147
0.625
 71
     0
 72
     0
 73
     0
 74
     0
 75
     0
 76
     0
 77
     1
 78
     8
170
     0
171
     3
172
     1
173
     0
174
     0
175
     0
176
     0
177
     0
178
     0
270
     2
271
     2
272
     2
273
     2
274
     3
340
71
275
     0
280
     0
281
     0
282
     0
283
     0
284
     8
285
     0
286
     0
287
     3
288
     0
  0
ENDTAB
  0
TABLE
  2
BLOCK_RECORD
  5
A01
330
0
100
AcDbSymbolTable
  70
5
  0
BLOCK_RECORD
  5
A02
330
A01
100
AcDbSymbolTableRecord
100
AcDbBlockTableRecord
  2
*MODEL_SPACE
  0
BLOCK_RECORD
  5
A03
330
A01
100
AcDbSymbolTableRecord
100
AcDbBlockTableRecord
  2
*PAPER_SPACE
  0
ENDTAB
  0
ENDSEC
  0
SECTION
  2
BLOCKS
  0
BLOCK
  5
A04
330
A02
100
AcDbEntity
  8
0
100
AcDbBlockBegin
  2
*MODEL_SPACE
 70
   0
 10
0
 20
0
 30
0
  3
*MODEL_SPACE
  1
 
  0
ENDBLK
  5
A05
330
A02
100
AcDbEntity
  8
0
100
AcDbBlockEnd
  0
BLOCK
  5
A06
330
A03
100
AcDbEntity
 67
1
  8
0
100
AcDbBlockBegin
  2
*PAPER_SPACE
 70
   0
 10
0
 20
0
 30
0
  3
*PAPER_SPACE
  1
 
  0
ENDBLK
  5
A07
330
A03
100
AcDbEntity
 67
    1
  8
0
100
AcDbBlockEnd
  0
ENDSEC
  0
SECTION
  2
ENTITIES
  0
LINE
  5
A08
330
A02
100
AcDbEntity
  8
View002
100
AcDbLine
 10
65.1728
 20
197.436
 30
0
 11
65.9469
 21
175.585
 31
0
  0
ELLIPSE
  5
A09
330
A02
100
AcDbEntity
  8
View002
100
AcDbEllipse
 10
65.5538
 20
197.328
 30
0
 11
0.212421
 21
-0.452634
 31
0
 40
0.699831
 41
-3.14159
 42
-2.11842
  0
ELLIPSE
  5
A0A
330
A02
100
AcDbEntity
  8
View002
100
AcDbEllipse
 10
65.5538
 20
197.328
 30
0
 11
0.212421
 21
-0.452634
 31
0
 40
0.699831
 41
-3.68921
 42
-3.14159
  0
LINE
  5
A0B
330
A02
100
AcDbEntity
  8
View002
100
AcDbLine
 10
69.7451
 20
173.541
 30
0
 11
136.405
 21
154.517
 31
0
  0
LINE
  5
A0C
330
A02
100
AcDbEntity
  8
View002
100
AcDbLine
 10
141.381
 20
153.097
 30
0
 11
148.591
 21
151.039
 31
0
  0
LINE
  5
A0D
330
A02
100
AcDbEntity
  8
View002
100
AcDbLine
 10
147.386
 20
174.433
 30
0
 11
65.5374
 21
197.791
 31
0
  0
LINE
  5
A0E
330
A02
100
AcDbEntity
  8
View002
100
AcDbLine
 10
148.591
 20
151.039
 30
0
 11
147.783
 21
173.86
 31
0
  0
ELLIPSE
  5
A0F
330
A02
100
AcDbEntity
  8
View002
100
AcDbEllipse
 10
147.402
 20
173.969
 30
0
 11
-0.212421
 21
0.452634
 31
0
 40
0.699831
 41
4.16477
 42
5.73556
  0
LINE
  5
A10
330
A02
100
AcDbEntity
  8
View002
100
AcDbLine
 10
81.0441
 20
176.377
 30
0
 11
80.9784
 21
178.233
 31
0
  0
ELLIPSE
  5
A11
330
A02
100
AcDbEntity
  8
View002
100
AcDbEllipse
 10
81.8062
 20
176.16
 30
0
 11
-0.424842
 21
0.905267
 31
0
 40
0.699831
 41
1.02318
 42
2.59397
  0
ELLIPSE
  5
A12
330
A02
100
AcDbEntity
  8
View002
100
AcDbEllipse
 10
81.7405
 20
178.015
 30
0
 11
0.424842
 21
-0.905267
 31
0
 40
0.699831
 41
-3.14159
 42
-2.11842
  0
ELLIPSE
  5
A13
330
A02
100
AcDbEntity
  8
View002
100
AcDbEllipse
 10
81.7405
 20
178.015
 30
0
 11
0.424842
 21
-0.905267
 31
0
 40
0.699831
 41
-3.68921
 42
-3.14159
  0
LINE
  5
A14
330
A02
100
AcDbEntity
  8
View002
100
AcDbLine
 10
87.1737
 20
173.71
 30
0
 11
81.8391
 21
175.232
 31
0
  0
LINE
  5
A15
330
A02
100
AcDbEntity
  8
View002
100
AcDbLine
 10
81.7076
 20
178.943
 30
0
 11
87.0423
 21
177.42
 31
0
  0
ELLIPSE
  5
A16
330
A02
100
AcDbEntity
  8
View002
100
AcDbEllipse
 10
87.1408
 20
174.637
 30
0
 11
-0.424842
 21
0.905267
 31
0
 40
0.699831
 41
2.59397
 42
3.14159
  0
ELLIPSE
  5
A17
330
A02
100
AcDbEntity
  8
View002
100
AcDbEllipse
 10
87.1408
 20
174.637
 30
0
 11
-0.424842
 21
0.905267
 31
0
 40
0.699831
 41
3.14159
 42
4.16477
  0
ELLIPSE
  5
A18
330
A02
100
AcDbEntity
  8
View002
100
AcDbEllipse
 10
87.0751
 20
176.493
 30
0
 11
-0.424842
 21
0.905267
 31
0
 40
0.699831
 41
4.16477
 42
5.73556
  0
LINE
  5
A19
330
A02
100
AcDbEntity
  8
View002
100
AcDbLine
 10
87.8372
 20
176.275
 30
0
 11
87.9029
 21
174.42
 31
0
  0
LINE
  5
A1A
330
A02
100
AcDbEntity
  8
View002
100
AcDbLine
 10
132.753
 20
160.518
 30
0
 11
132.378
 21
171.093
 31
0
  0
LINE
  5
A1B
330
A02
100
AcDbEntity
  8
View002
100
AcDbLine
 10
139.917
 20
158.473
 30
0
 11
132.753
 21
160.518
 31
0
  0
LINE
  5
A1C
330
A02
100
AcDbEntity
  8
View002
100
AcDbLine
 10
139.542
 20
169.049
 30
0
 11
139.917
 21
158.473
 31
0
  0
LINE
  5
A1D
330
A02
100
AcDbEntity
  8
View002
100
AcDbLine
 10
132.378
 20
171.093
 30
0
 11
139.542
 21
169.049
 31
0
  0
LINE
  5
A1E
330
A02
100
AcDbEntity
  8
View002
100
AcDbLine
 10
78.8307
 20
182.427
 30
0
 11
78.5284
 21
190.962
 31
0
  0
LINE
  5
A1F
330
A02
100
AcDbEntity
  8
View002
100
AcDbLine
 10
89.8048
 20
179.295
 30
0
 11
78.8307
 21
182.427
 31
0
  0
LINE
  5
A20
330
A02
100
AcDbEntity
  8
View002
100
AcDbLine
 10
89.5025
 20
187.83
 30
0
 11
89.8048
 21
179.295
 31
0
  0
LINE
  5
A21
330
A02
100
AcDbEntity
  8
View002
100
AcDbLine
 10
78.5284
 20
190.962
 30
0
 11
89.5025
 21
187.83
 31
0
  0
LINE
  5
A22
330
A02
100
AcDbEntity
  8
View002
100
AcDbLine
 10
103.945
 20
169.841
 30
0
 11
103.879
 21
171.697
 31
0
  0
ELLIPSE
  5
A23
330
A02
100
AcDbEntity
  8
View002
100
AcDbEllipse
 10
104.707
 20
169.624
 30
0
 11
-0.424842
 21
0.905267
 31
0
 40
0.699831
 41
1.02318
 42
2.59397
  0
ELLIPSE
  5
A24
330
A02
100
AcDbEntity
  8
View002
100
AcDbEllipse
 10
104.641
 20
171.479
 30
0
 11
0.424842
 21
-0.905267
 31
0
 40
0.699831
 41
-3.14159
 42
-2.11842
  0
ELLIPSE
  5
A25
330
A02
100
AcDbEntity
  8
View002
100
AcDbEllipse
 10
104.641
 20
171.479
 30
0
 11
0.424842
 21
-0.905267
 31
0
 40
0.699831
 41
-3.68921
 42
-3.14159
  0
LINE
  5
A26
330
A02
100
AcDbEntity
  8
View002
100
AcDbLine
 10
110.074
 20
167.174
 30
0
 11
104.74
 21
168.696
 31
0
  0
LINE
  5
A27
330
A02
100
AcDbEntity
  8
View002
100
AcDbLine
 10
104.608
 20
172.407
 30
0
 11
109.943
 21
170.885
 31
0
  0
ELLIPSE
  5
A28
330
A02
100
AcDbEntity
  8
View002
100
AcDbEllipse
 10
110.042
 20
168.102
 30
0
 11
-0.424842
 21
0.905267
 31
0
 40
0.699831
 41
2.59397
 42
3.14159
  0
ELLIPSE
  5
A29
330
A02
100
AcDbEntity
  8
View002
100
AcDbEllipse
 10
110.042
 20
168.102
 30
0
 11
-0.424842
 21
0.905267
 31
0
 40
0.699831
 41
3.14159
 42
4.16477
  0
ELLIPSE
  5
A2A
330
A02
100
AcDbEntity
  8
View002
100
AcDbEllipse
 10
109.976
 20
169.957
 30
0
 11
-0.424842
 21
0.905267
 31
0
 40
0.699831
 41
4.16477
 42
5.73556
  0
LINE
  5
A2B
330
A02
100
AcDbEntity
  8
View002
100
AcDbLine
 10
110.738
 20
169.739
 30
0
 11
110.804
 21
167.884
 31
0
  0
ELLIPSE
  5
A2C
330
A02
100
AcDbEntity
  8
View002
100
AcDbEllipse
 10
66.5238
 20
197.783
 30
0
 11
0.212421
 21
-0.452634
 31
0
 40
0.699831
 41
-3.68921
 42
-3.14159
  0
ELLIPSE
  5
A2D
330
A02
100
AcDbEntity
  8
View002
100
AcDbEllipse
 10
147.945
 20
150.735
 30
0
 11
-0.274435
 21
-0.961606
 31
0
 40
0.609852
 41
0.488473
 42
2.05927
  0
LINE
  5
A2E
330
A02
100
AcDbEntity
  8
View002
100
AcDbLine
 10
69.7954
 20
172.12
 30
0
 11
136.377
 21
153.118
 31
0
  0
LINE
  5
A2F
330
A02
100
AcDbEntity
  8
View002
100
AcDbLine
 10
141.432
 20
151.676
 30
0
 11
146.072
 21
150.351
 31
0
  0
LINE
  5
A30
330
A02
100
AcDbEntity
  8
View002
100
AcDbLine
 10
146.072
 20
150.351
 30
0
 11
147.978
 21
149.808
 31
0
  0
LINE
  5
A31
330
A02
100
AcDbEntity
  8
View002
100
AcDbLine
 10
148.355
 20
174.888
 30
0
 11
66.5074
 21
198.247
 31
0
  0
LINE
  5
A32
330
A02
100
AcDbEntity
  8
View002
100
AcDbLine
 10
148.591
 20
151.039
 30
0
 11
149.561
 21
151.494
 31
0
  0
LINE
  5
A33
330
A02
100
AcDbEntity
  8
View002
100
AcDbLine
 10
149.561
 20
151.494
 30
0
 11
148.753
 21
174.315
 31
0
  0
ELLIPSE
  5
A34
330
A02
100
AcDbEntity
  8
View002
100
AcDbEllipse
 10
148.372
 20
174.424
 30
0
 11
-0.212421
 21
0.452634
 31
0
 40
0.699831
 41
4.16477
 42
5.73556
  0
LINE
  5
A35
330
A02
100
AcDbEntity
  8
View002
100
AcDbLine
 10
82.0141
 20
176.832
 30
0
 11
81.9484
 21
178.688
 31
0
  0
ELLIPSE
  5
A36
330
A02
100
AcDbEntity
  8
View002
100
AcDbEllipse
 10
82.7762
 20
176.615
 30
0
 11
-0.424842
 21
0.905267
 31
0
 40
0.699831
 41
1.02318
 42
2.59397
  0
ELLIPSE
  5
A37
330
A02
100
AcDbEntity
  8
View002
100
AcDbEllipse
 10
82.7105
 20
178.47
 30
0
 11
0.424842
 21
-0.905267
 31
0
 40
0.699831
 41
-2.32269
 42
-2.11842
  0
LINE
  5
A38
330
A02
100
AcDbEntity
  8
View002
100
AcDbLine
 10
87.8938
 20
174.236
 30
0
 11
82.8091
 21
175.687
 31
0
  0
LINE
  5
A39
330
A02
100
AcDbEntity
  8
View002
100
AcDbLine
 10
133.723
 20
160.973
 30
0
 11
132.753
 21
160.518
 31
0
  0
LINE
  5
A3A
330
A02
100
AcDbEntity
  8
View002
100
AcDbLine
 10
133.723
 20
160.973
 30
0
 11
133.375
 21
170.809
 31
0
  0
LINE
  5
A3B
330
A02
100
AcDbEntity
  8
View002
100
AcDbLine
 10
139.89
 20
159.213
 30
0
 11
133.723
 21
160.973
 31
0
  0
LINE
  5
A3C
330
A02
100
AcDbEntity
  8
View002
100
AcDbLine
 10
79.8007
 20
182.882
 30
0
 11
78.8307
 21
182.427
 31
0
  0
LINE
  5
A3D
330
A02
100
AcDbEntity
  8
View002
100
AcDbLine
 10
79.8007
 20
182.882
 30
0
 11
79.5246
 21
190.677
 31
0
  0
LINE
  5
A3E
330
A02
100
AcDbEntity
  8
View002
100
AcDbLine
 10
89.7786
 20
180.034
 30
0
 11
79.8007
 21
182.882
 31
0
  0
LINE
  5
A3F
330
A02
100
AcDbEntity
  8
View002
100
AcDbLine
 10
104.915
 20
170.297
 30
0
 11
104.849
 21
172.152
 31
0
  0
ELLIPSE
  5
A40
330
A02
100
AcDbEntity
  8
View002
100
AcDbEllipse
 10
105.677
 20
170.079
 30
0
 11
-0.424842
 21
0.905267
 31
0
 40
0.699831
 41
1.02318
 42
2.59397
  0
ELLIPSE
  5
A41
330
A02
100
AcDbEntity
  8
View002
100
AcDbEllipse
 10
105.611
 20
171.935
 30
0
 11
0.424842
 21
-0.905267
 31
0
 40
0.699831
 41
-2.32269
 42
-2.11842
  0
LINE
  5
A42
330
A02
100
AcDbEntity
  8
View002
100
AcDbLine
 10
110.794
 20
167.7
 30
0
 11
105.71
 21
169.151
 31
0
  0
ELLIPSE
  5
A43
330
A02
100
AcDbEntity
  8
View002
100
AcDbEllipse
 10
147.945
 20
150.735
 30
0
 11
-0.686089
 21
-2.40401
 31
0
 40
0.609852
 41
0.488473
 42
2.05927
  0
LINE
  5
A44
330
A02
100
AcDbEntity
  8
View002
100
AcDbLine
 10
147.978
 20
149.808
 30
0
 11
148.027
 21
148.416
 31
0
  0
LINE
  5
A45
330
A02
100
AcDbEntity
  8
View002
100
AcDbLine
 10
60.0303
 20
169.441
 30
0
 11
64.8077
 21
171.684
 31
0
  0
LINE
  5
A46
330
A02
100
AcDbEntity
  8
View002
100
AcDbLine
 10
146.072
 20
150.351
 30
0
 11
140.168
 21
147.58
 31
0
  0
LINE
  5
A47
330
A02
100
AcDbEntity
  8
View002
100
AcDbLine
 10
60.7924
 20
169.224
 30
0
 11
60.0303
 21
169.441
 31
0
  0
LINE
  5
A48
330
A02
100
AcDbEntity
  8
View002
100
AcDbLine
 10
60.275
 20
168.981
 30
0
 11
60.7924
 21
169.224
 31
0
  0
LINE
  5
A49
330
A02
100
AcDbEntity
  8
View002
100
AcDbLine
 10
59.513
 20
169.199
 30
0
 11
60.275
 21
168.981
 31
0
  0
LINE
  5
A4A
330
A02
100
AcDbEntity
  8
View002
100
AcDbLine
 10
27.6974
 20
154.268
 30
0
 11
38.1643
 21
159.18
 31
0
  0
LINE
  5
A4B
330
A02
100
AcDbEntity
  8
View002
100
AcDbLine
 10
48.3344
 20
163.953
 30
0
 11
59.513
 21
169.199
 31
0
  0
LINE
  5
A4C
330
A02
100
AcDbEntity
  8
View002
100
AcDbLine
 10
104.442
 20
130.814
 30
0
 11
103.782
 21
130.505
 31
0
  0
LINE
  5
A4D
330
A02
100
AcDbEntity
  8
View002
100
AcDbLine
 10
103.782
 20
130.505
 30
0
 11
103.02
 21
130.722
 31
0
  0
LINE
  5
A4E
330
A02
100
AcDbEntity
  8
View002
100
AcDbLine
 10
103.02
 20
130.722
 30
0
 11
102.503
 21
130.479
 31
0
  0
LINE
  5
A4F
330
A02
100
AcDbEntity
  8
View002
100
AcDbLine
 10
102.503
 20
130.479
 30
0
 11
103.265
 21
130.262
 31
0
  0
LINE
  5
A50
330
A02
100
AcDbEntity
  8
View002
100
AcDbLine
 10
103.265
 20
130.262
 30
0
 11
97.2309
 21
127.43
 31
0
  0
ELLIPSE
  5
A51
330
A02
100
AcDbEntity
  8
View002
100
AcDbEllipse
 10
96.9671
 20
130.009
 30
0
 11
2.49843
 21
0.0885035
 31
0
 40
0.37191
 41
5.56638
 42
0
  0
ELLIPSE
  5
A52
330
A02
100
AcDbEntity
  8
View002
100
AcDbEllipse
 10
96.9671
 20
130.009
 30
0
 11
2.49843
 21
0.0885035
 31
0
 40
0.37191
 41
4.78137
 42
5.56638
  0
ELLIPSE
  5
A53
330
A02
100
AcDbEntity
  8
View002
100
AcDbEllipse
 10
67.3626
 20
170.179
 30
0
 11
2.49843
 21
0.0885035
 31
0
 40
0.37191
 41
5.56638
 42
0
  0
ELLIPSE
  5
A54
330
A02
100
AcDbEntity
  8
View002
100
AcDbEllipse
 10
67.3626
 20
170.179
 30
0
 11
2.49843
 21
0.0885035
 31
0
 40
0.37191
 41
3.14159
 42
5.56638
  0
ELLIPSE
  5
A55
330
A02
100
AcDbEntity
  8
View002
100
AcDbEllipse
 10
138.999
 20
149.735
 30
0
 11
2.49843
 21
0.0885035
 31
0
 40
0.37191
 41
5.56638
 42
0
  0
ELLIPSE
  5
A56
330
A02
100
AcDbEntity
  8
View002
100
AcDbEllipse
 10
138.999
 20
149.735
 30
0
 11
2.49843
 21
0.0885035
 31
0
 40
0.37191
 41
5.16447
 42
5.56638
  0
LINE
  5
A57
330
A02
100
AcDbEntity
  8
View002
100
AcDbLine
 10
148.027
 20
148.416
 30
0
 11
146.122
 21
148.96
 31
0
  0
LINE
  5
A58
330
A02
100
AcDbEntity
  8
View002
100
AcDbLine
 10
146.072
 20
150.351
 30
0
 11
146.122
 21
148.96
 31
0
  0
LINE
  5
A59
330
A02
100
AcDbEntity
  8
View002
100
AcDbLine
 10
60.0303
 20
169.441
 30
0
 11
60.0442
 21
169.047
 31
0
  0
LINE
  5
A5A
330
A02
100
AcDbEntity
  8
View002
100
AcDbLine
 10
140.011
 20
146.092
 30
0
 11
146.122
 21
148.96
 31
0
  0
ELLIPSE
  5
A5B
330
A02
100
AcDbEntity
  8
View002
100
AcDbEllipse
 10
59.4801
 20
170.126
 30
0
 11
0.424842
 21
-0.905267
 31
0
 40
0.699831
 41
-2.11842
 42
-0.547621
  0
LINE
  5
A5C
330
A02
100
AcDbEntity
  8
View002
100
AcDbLine
 10
27.3395
 20
155.618
 30
0
 11
38.1114
 21
160.673
 31
0
  0
LINE
  5
A5D
330
A02
100
AcDbEntity
  8
View002
100
AcDbLine
 10
46.3227
 20
164.527
 30
0
 11
58.718
 21
170.344
 31
0
  0
ELLIPSE
  5
A5E
330
A02
100
AcDbEntity
  8
View002
100
AcDbEllipse
 10
103.749
 20
131.432
 30
0
 11
-0.424842
 21
0.905267
 31
0
 40
0.699831
 41
2.59397
 42
3.14159
  0
ELLIPSE
  5
A5F
330
A02
100
AcDbEntity
  8
View002
100
AcDbEllipse
 10
103.749
 20
131.432
 30
0
 11
-0.424842
 21
0.905267
 31
0
 40
0.699831
 41
3.14159
 42
4.16477
  0
LINE
  5
A60
330
A02
100
AcDbEntity
  8
View002
100
AcDbLine
 10
103.782
 20
130.505
 30
0
 11
103.831
 21
129.113
 31
0
  0
LINE
  5
A61
330
A02
100
AcDbEntity
  8
View002
100
AcDbLine
 10
103.02
 20
130.722
 30
0
 11
103.034
 21
130.328
 31
0
  0
LINE
  5
A62
330
A02
100
AcDbEntity
  8
View002
100
AcDbLine
 10
103.831
 20
129.113
 30
0
 11
103.3
 21
129.265
 31
0
  0
LINE
  5
A63
330
A02
100
AcDbEntity
  8
View002
100
AcDbLine
 10
103.265
 20
130.262
 30
0
 11
103.314
 21
128.87
 31
0
  0
LINE
  5
A64
330
A02
100
AcDbEntity
  8
View002
100
AcDbLine
 10
97.8969
 20
126.328
 30
0
 11
103.314
 21
128.87
 31
0
  0
ELLIPSE
  5
A65
330
A02
100
AcDbEntity
  8
View002
100
AcDbEllipse
 10
97.8948
 20
127.247
 30
0
 11
0.274435
 21
0.961606
 31
0
 40
0.609852
 41
-3.14159
 42
-2.65312
  0
ELLIPSE
  5
A66
330
A02
100
AcDbEntity
  8
View002
100
AcDbEllipse
 10
97.8948
 20
127.247
 30
0
 11
0.274435
 21
0.961606
 31
0
 40
0.609852
 41
-4.22392
 42
-3.14159
  0
LINE
  5
A67
330
A02
100
AcDbEntity
  8
View002
100
AcDbLine
 10
97.9277
 20
126.319
 30
0
 11
97.3773
 21
126.476
 31
0
  0
ELLIPSE
  5
A68
330
A02
100
AcDbEntity
  8
View002
100
AcDbEllipse
 10
25.1666
 20
155.092
 30
0
 11
2.49843
 21
0.0885035
 31
0
 40
0.37191
 41
5.56638
 42
0
  0
ELLIPSE
  5
A69
330
A02
100
AcDbEntity
  8
View002
100
AcDbEllipse
 10
25.1666
 20
155.092
 30
0
 11
2.49843
 21
0.0885035
 31
0
 40
0.37191
 41
0
 42
0.912533
  0
ELLIPSE
  5
A6A
330
A02
100
AcDbEntity
  8
View002
100
AcDbEllipse
 10
25.1666
 20
155.092
 30
0
 11
2.49843
 21
0.0885035
 31
0
 40
0.37191
 41
5.37065
 42
5.56638
  0
ELLIPSE
  5
A6B
330
A02
100
AcDbEntity
  8
View002
100
AcDbEllipse
 10
96.8028
 20
134.648
 30
0
 11
2.49843
 21
0.0885035
 31
0
 40
0.37191
 41
5.56638
 42
0
  0
ELLIPSE
  5
A6C
330
A02
100
AcDbEntity
  8
View002
100
AcDbEllipse
 10
96.8028
 20
134.648
 30
0
 11
2.49843
 21
0.0885035
 31
0
 40
0.37191
 41
0
 42
1.50181
  0
ELLIPSE
  5
A6D
330
A02
100
AcDbEntity
  8
View002
100
AcDbEllipse
 10
96.8028
 20
134.648
 30
0
 11
2.49843
 21
0.0885035
 31
0
 40
0.37191
 41
4.78137
 42
5.56638
  0
ELLIPSE
  5
A6E
330
A02
100
AcDbEntity
  8
View002
100
AcDbEllipse
 10
67.1983
 20
174.818
 30
0
 11
2.49843
 21
0.0885035
 31
0
 40
0.37191
 41
5.56638
 42
0
  0
ELLIPSE
  5
A6F
330
A02
100
AcDbEntity
  8
View002
100
AcDbEllipse
 10
67.1983
 20
174.818
 30
0
 11
2.49843
 21
0.0885035
 31
0
 40
0.37191
 41
0
 42
3.14159
  0
ELLIPSE
  5
A70
330
A02
100
AcDbEntity
  8
View002
100
AcDbEllipse
 10
67.1983
 20
174.818
 30
0
 11
2.49843
 21
0.0885035
 31
0
 40
0.37191
 41
3.14159
 42
5.56638
  0
ELLIPSE
  5
A71
330
A02
100
AcDbEntity
  8
View002
100
AcDbEllipse
 10
138.834
 20
154.373
 30
0
 11
2.49843
 21
0.0885035
 31
0
 40
0.37191
 41
5.56638
 42
0
  0
ELLIPSE
  5
A72
330
A02
100
AcDbEntity
  8
View002
100
AcDbEllipse
 10
138.834
 20
154.373
 30
0
 11
2.49843
 21
0.0885035
 31
0
 40
0.37191
 41
0
 42
3.14159
  0
ELLIPSE
  5
A73
330
A02
100
AcDbEntity
  8
View002
100
AcDbEllipse
 10
138.834
 20
154.373
 30
0
 11
2.49843
 21
0.0885035
 31
0
 40
0.37191
 41
3.14159
 42
5.56638
  0
ELLIPSE
  5
A74
330
A02
100
AcDbEntity
  8
View002
100
AcDbEllipse
 10
138.28
 20
147.637
 30
0
 11
-1.06211
 21
2.26317
 31
0
 40
0.699831
 41
3.14159
 42
4.16477
  0
LINE
  5
A75
330
A02
100
AcDbEntity
  8
View002
100
AcDbLine
 10
58.718
 20
170.344
 30
0
 11
58.5175
 21
176.003
 31
0
  0
LINE
  5
A76
330
A02
100
AcDbEntity
  8
View002
100
AcDbLine
 10
58.5175
 20
176.003
 30
0
 11
38.6998
 21
166.702
 31
0
  0
LINE
  5
A77
330
A02
100
AcDbEntity
  8
View002
100
AcDbLine
 10
32.5584
 20
163.82
 30
0
 11
26.4887
 21
160.972
 31
0
  0
ELLIPSE
  5
A78
330
A02
100
AcDbEntity
  8
View002
100
AcDbEllipse
 10
30.2933
 20
159.928
 30
0
 11
-0.343044
 21
-1.20201
 31
0
 40
0.609852
 41
3.63007
 42
0
  0
ELLIPSE
  5
A79
330
A02
100
AcDbEntity
  8
View002
100
AcDbEllipse
 10
30.2933
 20
159.928
 30
0
 11
-0.343044
 21
-1.20201
 31
0
 40
0.609852
 41
0
 42
3.14159
  0
ELLIPSE
  5
A7A
330
A02
100
AcDbEntity
  8
View002
100
AcDbEllipse
 10
30.2933
 20
159.928
 30
0
 11
-0.343044
 21
-1.20201
 31
0
 40
0.609852
 41
3.14159
 42
3.63007
  0
ELLIPSE
  5
A7B
330
A02
100
AcDbEntity
  8
View002
100
AcDbEllipse
 10
54.0896
 20
171.095
 30
0
 11
-0.343044
 21
-1.20201
 31
0
 40
0.609852
 41
3.63007
 42
0
  0
ELLIPSE
  5
A7C
330
A02
100
AcDbEntity
  8
View002
100
AcDbEllipse
 10
54.0896
 20
171.095
 30
0
 11
-0.343044
 21
-1.20201
 31
0
 40
0.609852
 41
0
 42
3.14159
  0
ELLIPSE
  5
A7D
330
A02
100
AcDbEntity
  8
View002
100
AcDbEllipse
 10
54.0896
 20
171.095
 30
0
 11
-0.343044
 21
-1.20201
 31
0
 40
0.609852
 41
3.14159
 42
3.63007
  0
ELLIPSE
  5
A7E
330
A02
100
AcDbEntity
  8
View002
100
AcDbEllipse
 10
103.749
 20
131.432
 30
0
 11
-1.06211
 21
2.26317
 31
0
 40
0.699831
 41
2.59397
 42
3.14159
  0
ELLIPSE
  5
A7F
330
A02
100
AcDbEntity
  8
View002
100
AcDbEllipse
 10
103.749
 20
131.432
 30
0
 11
-1.06211
 21
2.26317
 31
0
 40
0.699831
 41
3.14159
 42
4.16477
  0
LINE
  5
A80
330
A02
100
AcDbEntity
  8
View002
100
AcDbLine
 10
104.511
 20
131.215
 30
0
 11
105.654
 21
130.889
 31
0
  0
LINE
  5
A81
330
A02
100
AcDbEntity
  8
View002
100
AcDbLine
 10
104.511
 20
131.215
 30
0
 11
104.311
 21
136.874
 31
0
  0
LINE
  5
A82
330
A02
100
AcDbEntity
  8
View002
100
AcDbLine
 10
104.311
 20
136.874
 30
0
 11
138.841
 21
153.079
 31
0
  0
ELLIPSE
  5
A83
330
A02
100
AcDbEntity
  8
View002
100
AcDbEllipse
 10
110.617
 20
137.004
 30
0
 11
0.343044
 21
1.20201
 31
0
 40
0.609852
 41
-2.24739
 42
-0.894205
  0
ELLIPSE
  5
A84
330
A02
100
AcDbEntity
  8
View002
100
AcDbEllipse
 10
134.414
 20
148.172
 30
0
 11
0.343044
 21
1.20201
 31
0
 40
0.609852
 41
-2.24739
 42
-0.894205
  0
LINE
  5
A85
330
A02
100
AcDbEntity
  8
View002
100
AcDbLine
 10
97.977
 20
124.928
 30
0
 11
97.9277
 21
126.319
 31
0
  0
ELLIPSE
  5
A86
330
A02
100
AcDbEntity
  8
View002
100
AcDbEllipse
 10
97.8948
 20
127.247
 30
0
 11
0.686089
 21
2.40401
 31
0
 40
0.609852
 41
-3.14159
 42
-2.65312
  0
ELLIPSE
  5
A87
330
A02
100
AcDbEntity
  8
View002
100
AcDbEllipse
 10
97.8948
 20
127.247
 30
0
 11
0.686089
 21
2.40401
 31
0
 40
0.609852
 41
-4.22392
 42
-3.14159
  0
LINE
  5
A88
330
A02
100
AcDbEntity
  8
View002
100
AcDbLine
 10
96.2782
 20
126.488
 30
0
 11
97.2482
 21
126.943
 31
0
  0
ELLIPSE
  5
A89
330
A02
100
AcDbEntity
  8
View002
100
AcDbEllipse
 10
15.2846
 20
150.823
 30
0
 11
0.686089
 21
2.40401
 31
0
 40
0.609852
 41
-4.22392
 42
-3.14159
  0
LINE
  5
A8A
330
A02
100
AcDbEntity
  8
View002
100
AcDbLine
 10
96.4398
 20
149.765
 30
0
 11
97.2482
 21
126.943
 31
0
  0
ELLIPSE
  5
A8B
330
A02
100
AcDbEntity
  8
View002
100
AcDbEllipse
 10
96.0587
 20
149.873
 30
0
 11
-0.212421
 21
0.452634
 31
0
 40
0.699831
 41
4.16477
 42
5.73556
  0
LINE
  5
A8C
330
A02
100
AcDbEntity
  8
View002
100
AcDbLine
 10
14.1942
 20
173.696
 30
0
 11
96.0423
 21
150.337
 31
0
  0
ELLIPSE
  5
A8D
330
A02
100
AcDbEntity
  8
View002
100
AcDbEllipse
 10
14.2106
 20
173.232
 30
0
 11
0.212421
 21
-0.452634
 31
0
 40
0.699831
 41
-3.68921
 42
-3.14159
  0
LINE
  5
A8E
330
A02
100
AcDbEntity
  8
View002
100
AcDbLine
 10
63.053
 20
143.314
 30
0
 11
62.6816
 21
153.797
 31
0
  0
ELLIPSE
  5
A8F
330
A02
100
AcDbEntity
  8
View002
100
AcDbEllipse
 10
63.8151
 20
143.097
 30
0
 11
-0.424842
 21
0.905267
 31
0
 40
0.699831
 41
1.02318
 42
2.59397
  0
ELLIPSE
  5
A90
330
A02
100
AcDbEntity
  8
View002
100
AcDbEllipse
 10
63.4437
 20
153.58
 30
0
 11
0.424842
 21
-0.905267
 31
0
 40
0.699831
 41
-2.32269
 42
-2.11842
  0
LINE
  5
A91
330
A02
100
AcDbEntity
  8
View002
100
AcDbLine
 10
86.1863
 20
135.794
 30
0
 11
63.8479
 21
142.169
 31
0
  0
LINE
  5
A92
330
A02
100
AcDbEntity
  8
View002
100
AcDbLine
 10
26.7718
 20
152.98
 30
0
 11
26.3248
 21
165.599
 31
0
  0
LINE
  5
A93
330
A02
100
AcDbEntity
  8
View002
100
AcDbLine
 10
38.5025
 20
149.632
 30
0
 11
26.7718
 21
152.98
 31
0
  0
ELLIPSE
  5
A94
330
A02
100
AcDbEntity
  8
View002
100
AcDbEllipse
 10
25.1666
 20
155.092
 30
0
 11
1.69893
 21
0.0601824
 31
0
 40
0.37191
 41
5.83129
 42
0
  0
ELLIPSE
  5
A95
330
A02
100
AcDbEntity
  8
View002
100
AcDbEllipse
 10
25.1666
 20
155.092
 30
0
 11
1.69893
 21
0.0601824
 31
0
 40
0.37191
 41
0
 42
0.451891
  0
ELLIPSE
  5
A96
330
A02
100
AcDbEntity
  8
View002
100
AcDbEllipse
 10
96.8028
 20
134.648
 30
0
 11
1.69893
 21
0.0601824
 31
0
 40
0.37191
 41
5.56638
 42
0
  0
ELLIPSE
  5
A97
330
A02
100
AcDbEntity
  8
View002
100
AcDbEllipse
 10
96.8028
 20
134.648
 30
0
 11
1.69893
 21
0.0601824
 31
0
 40
0.37191
 41
0
 42
1.46926
  0
ELLIPSE
  5
A98
330
A02
100
AcDbEntity
  8
View002
100
AcDbEllipse
 10
96.8028
 20
134.648
 30
0
 11
1.69893
 21
0.0601824
 31
0
 40
0.37191
 41
4.81393
 42
5.56638
  0
ELLIPSE
  5
A99
330
A02
100
AcDbEntity
  8
View002
100
AcDbEllipse
 10
67.1983
 20
174.818
 30
0
 11
1.69893
 21
0.0601824
 31
0
 40
0.37191
 41
5.56638
 42
0
  0
ELLIPSE
  5
A9A
330
A02
100
AcDbEntity
  8
View002
100
AcDbEllipse
 10
67.1983
 20
174.818
 30
0
 11
1.69893
 21
0.0601824
 31
0
 40
0.37191
 41
0
 42
3.14159
  0
ELLIPSE
  5
A9B
330
A02
100
AcDbEntity
  8
View002
100
AcDbEllipse
 10
67.1983
 20
174.818
 30
0
 11
1.69893
 21
0.0601824
 31
0
 40
0.37191
 41
3.14159
 42
5.56638
  0
ELLIPSE
  5
A9C
330
A02
100
AcDbEntity
  8
View002
100
AcDbEllipse
 10
138.834
 20
154.373
 30
0
 11
1.69893
 21
0.0601824
 31
0
 40
0.37191
 41
5.56638
 42
0
  0
ELLIPSE
  5
A9D
330
A02
100
AcDbEntity
  8
View002
100
AcDbEllipse
 10
138.834
 20
154.373
 30
0
 11
1.69893
 21
0.0601824
 31
0
 40
0.37191
 41
0
 42
3.14159
  0
ELLIPSE
  5
A9E
330
A02
100
AcDbEntity
  8
View002
100
AcDbEllipse
 10
138.834
 20
154.373
 30
0
 11
1.69893
 21
0.0601824
 31
0
 40
0.37191
 41
3.14159
 42
5.56638
  0
LINE
  5
A9F
330
A02
100
AcDbEntity
  8
View002
100
AcDbLine
 10
105.654
 20
130.889
 30
0
 11
140.185
 21
147.094
 31
0
  0
LINE
  5
AA0
330
A02
100
AcDbEntity
  8
View002
100
AcDbLine
 10
13.668
 20
150.065
 30
0
 11
96.2782
 21
126.488
 31
0
  0
LINE
  5
AA1
330
A02
100
AcDbEntity
  8
View002
100
AcDbLine
 10
58.5175
 20
176.003
 30
0
 11
57.3744
 21
176.329
 31
0
  0
LINE
  5
AA2
330
A02
100
AcDbEntity
  8
View002
100
AcDbLine
 10
138.841
 20
153.079
 30
0
 11
139.985
 21
152.753
 31
0
  0
LINE
  5
AA3
330
A02
100
AcDbEntity
  8
View002
100
AcDbLine
 10
139.985
 20
152.753
 30
0
 11
140.185
 21
147.094
 31
0
  0
LINE
  5
AA4
330
A02
100
AcDbEntity
  8
View002
100
AcDbLine
 10
57.3744
 20
176.329
 30
0
 11
37.5566
 21
167.028
 31
0
  0
LINE
  5
AA5
330
A02
100
AcDbEntity
  8
View002
100
AcDbLine
 10
31.4153
 20
164.146
 30
0
 11
26.4586
 21
161.82
 31
0
  0
ELLIPSE
  5
AA6
330
A02
100
AcDbEntity
  8
View002
100
AcDbEllipse
 10
29.1502
 20
160.254
 30
0
 11
0.343044
 21
1.20201
 31
0
 40
0.609852
 41
-2.24739
 42
-0.894205
  0
ELLIPSE
  5
AA7
330
A02
100
AcDbEntity
  8
View002
100
AcDbEllipse
 10
52.9465
 20
171.422
 30
0
 11
0.343044
 21
1.20201
 31
0
 40
0.609852
 41
-2.24739
 42
-0.894205
  0
LINE
  5
AA8
330
A02
100
AcDbEntity
  8
View002
100
AcDbLine
 10
104.311
 20
136.874
 30
0
 11
105.454
 21
136.547
 31
0
  0
LINE
  5
AA9
330
A02
100
AcDbEntity
  8
View002
100
AcDbLine
 10
105.654
 20
130.889
 30
0
 11
105.454
 21
136.547
 31
0
  0
LINE
  5
AAA
330
A02
100
AcDbEntity
  8
View002
100
AcDbLine
 10
105.454
 20
136.547
 30
0
 11
139.985
 21
152.753
 31
0
  0
ELLIPSE
  5
AAB
330
A02
100
AcDbEntity
  8
View002
100
AcDbEllipse
 10
111.76
 20
136.678
 30
0
 11
-0.343044
 21
-1.20201
 31
0
 40
0.609852
 41
0.488473
 42
3.14159
  0
ELLIPSE
  5
AAC
330
A02
100
AcDbEntity
  8
View002
100
AcDbEllipse
 10
111.76
 20
136.678
 30
0
 11
-0.343044
 21
-1.20201
 31
0
 40
0.609852
 41
3.14159
 42
0
  0
ELLIPSE
  5
AAD
330
A02
100
AcDbEntity
  8
View002
100
AcDbEllipse
 10
111.76
 20
136.678
 30
0
 11
-0.343044
 21
-1.20201
 31
0
 40
0.609852
 41
0
 42
0.488473
  0
ELLIPSE
  5
AAE
330
A02
100
AcDbEntity
  8
View002
100
AcDbEllipse
 10
135.557
 20
147.845
 30
0
 11
-0.343044
 21
-1.20201
 31
0
 40
0.609852
 41
0.488473
 42
3.14159
  0
ELLIPSE
  5
AAF
330
A02
100
AcDbEntity
  8
View002
100
AcDbEllipse
 10
135.557
 20
147.845
 30
0
 11
-0.343044
 21
-1.20201
 31
0
 40
0.609852
 41
3.14159
 42
0
  0
ELLIPSE
  5
AB0
330
A02
100
AcDbEntity
  8
View002
100
AcDbEllipse
 10
135.557
 20
147.845
 30
0
 11
-0.343044
 21
-1.20201
 31
0
 40
0.609852
 41
0
 42
0.488473
  0
LINE
  5
AB1
330
A02
100
AcDbEntity
  8
View002
100
AcDbLine
 10
95.4698
 20
149.309
 30
0
 11
96.2782
 21
126.488
 31
0
  0
LINE
  5
AB2
330
A02
100
AcDbEntity
  8
View002
100
AcDbLine
 10
13.668
 20
150.065
 30
0
 11
12.8596
 21
172.886
 31
0
  0
ELLIPSE
  5
AB3
330
A02
100
AcDbEntity
  8
View002
100
AcDbEllipse
 10
95.0887
 20
149.418
 30
0
 11
-0.212421
 21
0.452634
 31
0
 40
0.699831
 41
4.16477
 42
5.73556
  0
LINE
  5
AB4
330
A02
100
AcDbEntity
  8
View002
100
AcDbLine
 10
13.2242
 20
173.241
 30
0
 11
95.0723
 21
149.882
 31
0
  0
ELLIPSE
  5
AB5
330
A02
100
AcDbEntity
  8
View002
100
AcDbEllipse
 10
13.2406
 20
172.777
 30
0
 11
0.212421
 21
-0.452634
 31
0
 40
0.699831
 41
-3.14159
 42
-2.11842
  0
ELLIPSE
  5
AB6
330
A02
100
AcDbEntity
  8
View002
100
AcDbEllipse
 10
13.2406
 20
172.777
 30
0
 11
0.212421
 21
-0.452634
 31
0
 40
0.699831
 41
-3.68921
 42
-3.14159
  0
LINE
  5
AB7
330
A02
100
AcDbEntity
  8
View002
100
AcDbLine
 10
62.083
 20
142.859
 30
0
 11
61.7117
 21
153.342
 31
0
  0
ELLIPSE
  5
AB8
330
A02
100
AcDbEntity
  8
View002
100
AcDbEllipse
 10
62.8451
 20
142.642
 30
0
 11
-0.424842
 21
0.905267
 31
0
 40
0.699831
 41
1.02318
 42
2.59397
  0
ELLIPSE
  5
AB9
330
A02
100
AcDbEntity
  8
View002
100
AcDbEllipse
 10
62.4737
 20
153.124
 30
0
 11
0.424842
 21
-0.905267
 31
0
 40
0.699831
 41
-3.14159
 42
-2.11842
  0
ELLIPSE
  5
ABA
330
A02
100
AcDbEntity
  8
View002
100
AcDbEllipse
 10
62.4737
 20
153.124
 30
0
 11
0.424842
 21
-0.905267
 31
0
 40
0.699831
 41
-3.68921
 42
-3.14159
  0
LINE
  5
ABB
330
A02
100
AcDbEntity
  8
View002
100
AcDbLine
 10
85.4662
 20
135.267
 30
0
 11
62.878
 21
141.714
 31
0
  0
LINE
  5
ABC
330
A02
100
AcDbEntity
  8
View002
100
AcDbLine
 10
62.4409
 20
154.052
 30
0
 11
85.0291
 21
147.606
 31
0
  0
ELLIPSE
  5
ABD
330
A02
100
AcDbEntity
  8
View002
100
AcDbEllipse
 10
85.4333
 20
136.195
 30
0
 11
0.424842
 21
-0.905267
 31
0
 40
0.699831
 41
-0
 42
-5.26001
  0
ELLIPSE
  5
ABE
330
A02
100
AcDbEntity
  8
View002
100
AcDbEllipse
 10
85.4333
 20
136.195
 30
0
 11
0.424842
 21
-0.905267
 31
0
 40
0.699831
 41
-0.547621
 42
-4.44089e-16
  0
ELLIPSE
  5
ABF
330
A02
100
AcDbEntity
  8
View002
100
AcDbEllipse
 10
85.062
 20
146.678
 30
0
 11
0.424842
 21
-0.905267
 31
0
 40
0.699831
 41
-5.26001
 42
-3.68921
  0
LINE
  5
AC0
330
A02
100
AcDbEntity
  8
View002
100
AcDbLine
 10
85.8241
 20
146.46
 30
0
 11
86.1954
 21
135.978
 31
0
  0
LINE
  5
AC1
330
A02
100
AcDbEntity
  8
View002
100
AcDbLine
 10
25.8018
 20
152.525
 30
0
 11
25.3286
 21
165.883
 31
0
  0
LINE
  5
AC2
330
A02
100
AcDbEntity
  8
View002
100
AcDbLine
 10
25.8018
 20
152.525
 30
0
 11
26.7718
 21
152.98
 31
0
  0
LINE
  5
AC3
330
A02
100
AcDbEntity
  8
View002
100
AcDbLine
 10
25.3286
 20
165.883
 30
0
 11
38.0555
 21
162.251
 31
0
  0
LINE
  5
AC4
330
A02
100
AcDbEntity
  8
View002
100
AcDbLine
 10
38.0555
 20
162.251
 30
0
 11
38.5287
 21
148.893
 31
0
  0
LINE
  5
AC5
330
A02
100
AcDbEntity
  8
View002
100
AcDbLine
 10
38.5287
 20
148.893
 30
0
 11
25.8018
 21
152.525
 31
0
  0
LINE
  5
AC6
330
A02
100
AcDbEntity
  8
View002
100
AcDbLine
 10
65.3414
 20
197.78
 30
0
 11
66.3114
 21
198.235
 31
0
  0
LINE
  5
AC7
330
A02
100
AcDbEntity
  8
View002
100
AcDbLine
 10
27.6651
 20
155.181
 30
0
 11
27.753
 21
152.7
 31
0
  0
LINE
  5
AC8
330
A02
100
AcDbEntity
  8
View002
100
AcDbLine
 10
99.3012
 20
134.736
 30
0
 11
99.4656
 21
130.098
 31
0
  0
LINE
  5
AC9
330
A02
100
AcDbEntity
  8
View002
100
AcDbLine
 10
64.6998
 20
174.729
 30
0
 11
64.8642
 21
170.091
 31
0
  0
LINE
  5
ACA
330
A02
100
AcDbEntity
  8
View002
100
AcDbLine
 10
69.6967
 20
174.906
 30
0
 11
69.861
 21
170.268
 31
0
  0
LINE
  5
ACB
330
A02
100
AcDbEntity
  8
View002
100
AcDbLine
 10
136.336
 20
154.285
 30
0
 11
136.419
 21
151.942
 31
0
  0
LINE
  5
ACC
330
A02
100
AcDbEntity
  8
View002
100
AcDbLine
 10
141.333
 20
154.462
 30
0
 11
141.497
 21
149.823
 31
0
  0
LINE
  5
ACD
330
A02
100
AcDbEntity
  8
View002
100
AcDbLine
 10
104.811
 20
129.169
 30
0
 11
139.342
 21
145.374
 31
0
  0
LINE
  5
ACE
330
A02
100
AcDbEntity
  8
View002
100
AcDbLine
 10
14.5985
 20
148.419
 30
0
 11
97.2087
 21
124.843
 31
0
  0
LINE
  5
ACF
330
A02
100
AcDbEntity
  8
View002
100
AcDbLine
 10
13.9982
 20
173.685
 30
0
 11
13.0282
 21
173.23
 31
0
  0
LINE
  5
AD0
330
A02
100
AcDbEntity
  8
View002
100
AcDbLine
 10
65.5374
 20
197.791
 30
0
 11
66.5074
 21
198.247
 31
0
  0
LINE
  5
AD1
330
A02
100
AcDbEntity
  8
View002
100
AcDbLine
 10
147.386
 20
174.433
 30
0
 11
148.355
 21
174.888
 31
0
  0
LINE
  5
AD2
330
A02
100
AcDbEntity
  8
View002
100
AcDbLine
 10
147.783
 20
173.86
 30
0
 11
148.753
 21
174.315
 31
0
  0
LINE
  5
AD3
330
A02
100
AcDbEntity
  8
View002
100
AcDbLine
 10
82.0141
 20
176.832
 30
0
 11
81.0441
 21
176.377
 31
0
  0
LINE
  5
AD4
330
A02
100
AcDbEntity
  8
View002
100
AcDbLine
 10
81.9484
 20
178.688
 30
0
 11
80.9784
 21
178.233
 31
0
  0
LINE
  5
AD5
330
A02
100
AcDbEntity
  8
View002
100
AcDbLine
 10
82.8091
 20
175.687
 30
0
 11
81.8391
 21
175.232
 31
0
  0
LINE
  5
AD6
330
A02
100
AcDbEntity
  8
View002
100
AcDbLine
 10
87.8334
 20
174.019
 30
0
 11
87.1737
 21
173.71
 31
0
  0
LINE
  5
AD7
330
A02
100
AcDbEntity
  8
View002
100
AcDbLine
 10
104.915
 20
170.297
 30
0
 11
103.945
 21
169.841
 31
0
  0
LINE
  5
AD8
330
A02
100
AcDbEntity
  8
View002
100
AcDbLine
 10
104.849
 20
172.152
 30
0
 11
103.879
 21
171.697
 31
0
  0
LINE
  5
AD9
330
A02
100
AcDbEntity
  8
View002
100
AcDbLine
 10
105.71
 20
169.151
 30
0
 11
104.74
 21
168.696
 31
0
  0
LINE
  5
ADA
330
A02
100
AcDbEntity
  8
View002
100
AcDbLine
 10
110.734
 20
167.483
 30
0
 11
110.074
 21
167.174
 31
0
  0
LINE
  5
ADB
330
A02
100
AcDbEntity
  8
View002
100
AcDbLine
 10
96.4398
 20
149.765
 30
0
 11
95.4698
 21
149.309
 31
0
  0
LINE
  5
ADC
330
A02
100
AcDbEntity
  8
View002
100
AcDbLine
 10
96.0423
 20
150.337
 30
0
 11
95.0723
 21
149.882
 31
0
  0
LINE
  5
ADD
330
A02
100
AcDbEntity
  8
View002
100
AcDbLine
 10
14.1942
 20
173.696
 30
0
 11
13.2242
 21
173.241
 31
0
  0
LINE
  5
ADE
330
A02
100
AcDbEntity
  8
View002
100
AcDbLine
 10
62.083
 20
142.859
 30
0
 11
63.053
 21
143.314
 31
0
  0
LINE
  5
ADF
330
A02
100
AcDbEntity
  8
View002
100
AcDbLine
 10
61.7117
 20
153.342
 30
0
 11
62.6816
 21
153.797
 31
0
  0
LINE
  5
AE0
330
A02
100
AcDbEntity
  8
View002
100
AcDbLine
 10
62.878
 20
141.714
 30
0
 11
63.8479
 21
142.169
 31
0
  0
LINE
  5
AE1
330
A02
100
AcDbEntity
  8
View002
100
AcDbLine
 10
85.4662
 20
135.267
 30
0
 11
86.1259
 21
135.577
 31
0
  0
LINE
  5
AE2
330
A02
100
AcDbEntity
  8
View002
100
AcDbLine
 10
27.1311
 20
152.877
 30
0
 11
27.0719
 21
154.549
 31
0
  0
LINE
  5
AE3
330
A02
100
AcDbEntity
  8
View002
100
AcDbLine
 10
98.8723
 20
129.466
 30
0
 11
98.708
 21
134.104
 31
0
  0
LINE
  5
AE4
330
A02
100
AcDbEntity
  8
View002
100
AcDbLine
 10
69.2678
 20
169.636
 30
0
 11
69.1035
 21
174.274
 31
0
  0
LINE
  5
AE5
330
A02
100
AcDbEntity
  8
View002
100
AcDbLine
 10
140.904
 20
149.191
 30
0
 11
140.74
 21
153.83
 31
0
  0
LINE
  5
AE6
330
A02
100
AcDbEntity
  8
View002
100
AcDbLine
 10
111.801
 20
135.518
 30
0
 11
111.113
 21
135.714
 31
0
  0
LINE
  5
AE7
330
A02
100
AcDbEntity
  8
View002
100
AcDbLine
 10
135.598
 20
146.686
 30
0
 11
134.91
 21
146.882
 31
0
  0
LINE
  5
AE8
330
A02
100
AcDbEntity
  8
View003
100
AcDbLine
 10
133.529
 20
102.679
 30
0
 11
26.1295
 21
102.679
 31
0
  0
LINE
  5
AE9
330
A02
100
AcDbEntity
  8
View003
100
AcDbLine
 10
134.029
 20
83.6791
 30
0
 11
134.029
 21
102.179
 31
0
  0
LINE
  5
AEA
330
A02
100
AcDbEntity
  8
View003
100
AcDbLine
 10
45.6795
 20
84.1791
 30
0
 11
45.6795
 21
86.1791
 31
0
  0
ARC
  5
AEB
330
A02
100
AcDbEntity
  8
View003
100
AcDbCircle
 10
46.6795
 20
84.1791
 30
0
 40
1
100
AcDbArc
 50
180
 51
-171.373
  0
ARC
  5
AEC
330
A02
100
AcDbEntity
  8
View003
100
AcDbCircle
 10
46.6795
 20
86.1791
 30
0
 40
1
100
AcDbArc
 50
90
 51
180
  0
LINE
  5
AED
330
A02
100
AcDbEntity
  8
View003
100
AcDbLine
 10
46.6795
 20
87.1791
 30
0
 11
53.6795
 21
87.1791
 31
0
  0
ARC
  5
AEE
330
A02
100
AcDbEntity
  8
View003
100
AcDbCircle
 10
53.6795
 20
84.1791
 30
0
 40
1
100
AcDbArc
 50
-8.62693
 51
0
  0
ARC
  5
AEF
330
A02
100
AcDbEntity
  8
View003
100
AcDbCircle
 10
53.6795
 20
86.1791
 30
0
 40
1
100
AcDbArc
 50
0
 51
90
  0
LINE
  5
AF0
330
A02
100
AcDbEntity
  8
View003
100
AcDbLine
 10
54.6795
 20
86.1791
 30
0
 11
54.6795
 21
84.1791
 31
0
  0
LINE
  5
AF1
330
A02
100
AcDbEntity
  8
View003
100
AcDbLine
 10
113.479
 20
83.7791
 30
0
 11
113.479
 21
94.3791
 31
0
  0
LINE
  5
AF2
330
A02
100
AcDbEntity
  8
View003
100
AcDbLine
 10
113.479
 20
94.3791
 30
0
 11
121.109
 21
94.3791
 31
0
  0
LINE
  5
AF3
330
A02
100
AcDbEntity
  8
View003
100
AcDbLine
 10
43.0295
 20
90.0791
 30
0
 11
43.0295
 21
98.4291
 31
0
  0
LINE
  5
AF4
330
A02
100
AcDbEntity
  8
View003
100
AcDbLine
 10
57.4295
 20
90.0791
 30
0
 11
43.0295
 21
90.0791
 31
0
  0
LINE
  5
AF5
330
A02
100
AcDbEntity
  8
View003
100
AcDbLine
 10
57.4295
 20
98.4291
 30
0
 11
57.4295
 21
90.0791
 31
0
  0
LINE
  5
AF6
330
A02
100
AcDbEntity
  8
View003
100
AcDbLine
 10
28.1295
 20
75.0791
 30
0
 11
131.529
 21
75.0791
 31
0
  0
LINE
  5
AF7
330
A02
100
AcDbEntity
  8
View003
100
AcDbLine
 10
25.6295
 20
75.0791
 30
0
 11
28.1295
 21
75.0791
 31
0
  0
LINE
  5
AF8
330
A02
100
AcDbEntity
  8
View003
100
AcDbLine
 10
131.529
 20
75.0791
 30
0
 11
134.029
 21
75.0791
 31
0
  0
SPLINE
  5
AF9
330
A02
100
AcDbEntity
  8
View003
100
AcDbSpline
210
0
220
0
230
1
 70
8
 71
2
 72
30
 73
27
 74
0
 40
0
 40
0
 40
0
 40
0.1122
 40
0.1122
 40
0.224399
 40
0.224399
 40
0.336599
 40
0.336599
 40
0.448799
 40
0.448799
 40
0.560999
 40
0.560999
 40
0.673198
 40
0.673198
 40
0.785398
 40
0.785398
 40
0.897598
 40
0.897598
 40
1.0098
 40
1.0098
 40
1.122
 40
1.122
 40
1.2342
 40
1.2342
 40
1.3464
 40
1.3464
 40
1.5708
 40
1.5708
 40
1.5708
 10
134.029
 20
75.0791
 30
0
 10
134.029
 20
75.087
 30
0
 10
134.029
 20
75.0948
 30
0
 10
134.029
 20
75.1183
 30
0
 10
134.029
 20
75.1418
 30
0
 10
134.029
 20
75.1806
 30
0
 10
134.029
 20
75.2194
 30
0
 10
134.029
 20
75.2731
 30
0
 10
134.029
 20
75.3267
 30
0
 10
134.029
 20
75.3945
 30
0
 10
134.029
 20
75.4623
 30
0
 10
134.029
 20
75.5434
 30
0
 10
134.029
 20
75.6245
 30
0
 10
134.029
 20
75.7179
 30
0
 10
134.029
 20
75.8114
 30
0
 10
134.029
 20
75.9159
 30
0
 10
134.029
 20
76.0204
 30
0
 10
134.029
 20
76.1347
 30
0
 10
134.029
 20
76.249
 30
0
 10
134.029
 20
76.3717
 30
0
 10
134.029
 20
76.4944
 30
0
 10
134.029
 20
76.6239
 30
0
 10
134.029
 20
76.7534
 30
0
 10
134.029
 20
76.8881
 30
0
 10
134.029
 20
77.0228
 30
0
 10
134.029
 20
77.2982
 30
0
 10
134.029
 20
77.5791
 30
0
  0
SPLINE
  5
AFA
330
A02
100
AcDbEntity
  8
View003
100
AcDbSpline
210
0
220
0
230
1
 70
8
 71
2
 72
30
 73
27
 74
0
 40
0
 40
0
 40
0
 40
0.1122
 40
0.1122
 40
0.224399
 40
0.224399
 40
0.336599
 40
0.336599
 40
0.448799
 40
0.448799
 40
0.560999
 40
0.560999
 40
0.673198
 40
0.673198
 40
0.785398
 40
0.785398
 40
0.897598
 40
0.897598
 40
1.0098
 40
1.0098
 40
1.122
 40
1.122
 40
1.2342
 40
1.2342
 40
1.3464
 40
1.3464
 40
1.5708
 40
1.5708
 40
1.5708
 10
25.6295
 20
75.0791
 30
0
 10
25.6295
 20
75.087
 30
0
 10
25.6295
 20
75.0948
 30
0
 10
25.6295
 20
75.1183
 30
0
 10
25.6295
 20
75.1418
 30
0
 10
25.6295
 20
75.1806
 30
0
 10
25.6295
 20
75.2194
 30
0
 10
25.6295
 20
75.2731
 30
0
 10
25.6295
 20
75.3267
 30
0
 10
25.6295
 20
75.3945
 30
0
 10
25.6295
 20
75.4623
 30
0
 10
25.6295
 20
75.5434
 30
0
 10
25.6295
 20
75.6245
 30
0
 10
25.6295
 20
75.7179
 30
0
 10
25.6295
 20
75.8114
 30
0
 10
25.6295
 20
75.9159
 30
0
 10
25.6295
 20
76.0204
 30
0
 10
25.6295
 20
76.1347
 30
0
 10
25.6295
 20
76.249
 30
0
 10
25.6295
 20
76.3717
 30
0
 10
25.6295
 20
76.4944
 30
0
 10
25.6295
 20
76.6239
 30
0
 10
25.6295
 20
76.7534
 30
0
 10
25.6295
 20
76.8881
 30
0
 10
25.6295
 20
77.0228
 30
0
 10
25.6295
 20
77.2982
 30
0
 10
25.6295
 20
77.5791
 30
0
  0
LINE
  5
AFB
330
A02
100
AcDbEntity
  8
View003
100
AcDbLine
 10
25.6295
 20
77.5791
 30
0
 11
134.029
 21
77.5791
 31
0
  0
LINE
  5
AFC
330
A02
100
AcDbEntity
  8
View003
100
AcDbLine
 10
134.029
 20
102.179
 30
0
 11
134.029
 21
77.5791
 31
0
  0
LINE
  5
AFD
330
A02
100
AcDbEntity
  8
View003
100
AcDbLine
 10
25.6295
 20
77.5791
 30
0
 11
25.6295
 21
102.179
 31
0
  0
ARC
  5
AFE
330
A02
100
AcDbEntity
  8
View003
100
AcDbCircle
 10
133.529
 20
102.179
 30
0
 40
0.5
100
AcDbArc
 50
0
 51
90
  0
LINE
  5
AFF
330
A02
100
AcDbEntity
  8
View003
100
AcDbLine
 10
26.1295
 20
102.679
 30
0
 11
133.529
 21
102.679
 31
0
  0
ARC
  5
B00
330
A02
100
AcDbEntity
  8
View003
100
AcDbCircle
 10
26.1295
 20
102.179
 30
0
 40
0.5
100
AcDbArc
 50
90
 51
180
  0
LINE
  5
B01
330
A02
100
AcDbEntity
  8
View003
100
AcDbLine
 10
89.4695
 20
84.7791
 30
0
 11
89.4695
 21
96.0791
 31
0
  0
ARC
  5
B02
330
A02
100
AcDbEntity
  8
View003
100
AcDbCircle
 10
90.4695
 20
84.7791
 30
0
 40
1
100
AcDbArc
 50
180
 51
-90
  0
ARC
  5
B03
330
A02
100
AcDbEntity
  8
View003
100
AcDbCircle
 10
90.4695
 20
96.0791
 30
0
 40
1
100
AcDbArc
 50
90
 51
180
  0
LINE
  5
B04
330
A02
100
AcDbEntity
  8
View003
100
AcDbLine
 10
120.109
 20
83.7791
 30
0
 11
90.4695
 21
83.7791
 31
0
  0
LINE
  5
B05
330
A02
100
AcDbEntity
  8
View003
100
AcDbLine
 10
90.4695
 20
97.0791
 30
0
 11
120.109
 21
97.0791
 31
0
  0
ARC
  5
B06
330
A02
100
AcDbEntity
  8
View003
100
AcDbCircle
 10
120.109
 20
84.7791
 30
0
 40
1
100
AcDbArc
 50
-90
 51
0
  0
ARC
  5
B07
330
A02
100
AcDbEntity
  8
View003
100
AcDbCircle
 10
120.109
 20
96.0791
 30
0
 40
1
100
AcDbArc
 50
0
 51
90
  0
LINE
  5
B08
330
A02
100
AcDbEntity
  8
View003
100
AcDbLine
 10
121.109
 20
96.0791
 30
0
 11
121.109
 21
84.7791
 31
0
  0
LINE
  5
B09
330
A02
100
AcDbEntity
  8
View003
100
AcDbLine
 10
41.8295
 20
84.0291
 30
0
 11
41.8295
 21
98.4291
 31
0
  0
LINE
  5
B0A
330
A02
100
AcDbEntity
  8
View003
100
AcDbLine
 10
41.8295
 20
98.4291
 30
0
 11
58.5295
 21
98.4291
 31
0
  0
LINE
  5
B0B
330
A02
100
AcDbEntity
  8
View003
100
AcDbLine
 10
58.5295
 20
98.4291
 30
0
 11
58.5295
 21
84.0291
 31
0
  0
LINE
  5
B0C
330
A02
100
AcDbEntity
  8
View003
100
AcDbLine
 10
58.5295
 20
84.0291
 30
0
 11
41.8295
 21
84.0291
 31
0
  0
SPLINE
  5
B0D
330
A02
100
AcDbEntity
  8
View004
100
AcDbSpline
210
0
220
0
230
1
 70
8
 71
3
 72
11
 73
7
 74
0
 40
0
 40
0
 40
0
 40
0
 40
0.785398
 40
0.785398
 40
0.785398
 40
1.5708
 40
1.5708
 40
1.5708
 40
1.5708
 10
171.294
 20
203.833
 30
0
 10
171.295
 20
203.833
 30
0
 10
171.348
 20
203.833
 30
0
 10
171.441
 20
203.833
 30
0
 10
171.534
 20
203.833
 30
0
 10
171.663
 20
203.833
 30
0
 10
171.794
 20
203.833
 30
0
  0
LINE
  5
B0E
330
A02
100
AcDbEntity
  8
View004
100
AcDbLine
 10
279.194
 20
203.833
 30
0
 11
171.794
 21
203.833
 31
0
  0
SPLINE
  5
B0F
330
A02
100
AcDbEntity
  8
View004
100
AcDbSpline
210
0
220
0
230
1
 70
8
 71
3
 72
11
 73
7
 74
0
 40
3.14159
 40
3.14159
 40
3.14159
 40
3.14159
 40
3.92699
 40
3.92699
 40
3.92699
 40
4.71239
 40
4.71239
 40
4.71239
 40
4.71239
 10
279.694
 20
203.833
 30
0
 10
279.694
 20
203.833
 30
0
 10
279.64
 20
203.833
 30
0
 10
279.548
 20
203.833
 30
0
 10
279.455
 20
203.833
 30
0
 10
279.325
 20
203.833
 30
0
 10
279.194
 20
203.833
 30
0
  0
LINE
  5
B10
330
A02
100
AcDbEntity
  8
View004
100
AcDbLine
 10
171.294
 20
203.833
 30
0
 11
171.294
 21
205.333
 31
0
  0
SPLINE
  5
B11
330
A02
100
AcDbEntity
  8
View004
100
AcDbSpline
210
0
220
0
230
1
 70
8
 71
3
 72
11
 73
7
 74
0
 40
0
 40
0
 40
0
 40
0
 40
0.785398
 40
0.785398
 40
0.785398
 40
1.5708
 40
1.5708
 40
1.5708
 40
1.5708
 10
171.294
 20
205.333
 30
0
 10
171.295
 20
205.333
 30
0
 10
171.348
 20
205.333
 30
0
 10
171.441
 20
205.333
 30
0
 10
171.534
 20
205.333
 30
0
 10
171.663
 20
205.333
 30
0
 10
171.794
 20
205.333
 30
0
  0
SPLINE
  5
B12
330
A02
100
AcDbEntity
  8
View004
100
AcDbSpline
210
0
220
0
230
1
 70
8
 71
2
 72
24
 73
21
 74
0
 40
0
 40
0
 40
0
 40
0.336599
 40
0.336599
 40
0.560999
 40
0.560999
 40
0.785398
 40
0.785398
 40
0.897598
 40
0.897598
 40
1.0098
 40
1.0098
 40
1.122
 40
1.122
 40
1.2342
 40
1.2342
 40
1.3464
 40
1.3464
 40
1.4586
 40
1.4586
 40
1.5708
 40
1.5708
 40
1.5708
 10
171.294
 20
202.833
 30
0
 10
171.294
 20
203.002
 30
0
 10
171.294
 20
203.163
 30
0
 10
171.294
 20
203.268
 30
0
 10
171.294
 20
203.365
 30
0
 10
171.294
 20
203.459
 30
0
 10
171.294
 20
203.54
 30
0
 10
171.294
 20
203.577
 30
0
 10
171.294
 20
203.615
 30
0
 10
171.294
 20
203.647
 30
0
 10
171.294
 20
203.68
 30
0
 10
171.294
 20
203.707
 30
0
 10
171.294
 20
203.734
 30
0
 10
171.294
 20
203.755
 30
0
 10
171.294
 20
203.777
 30
0
 10
171.294
 20
203.792
 30
0
 10
171.294
 20
203.808
 30
0
 10
171.294
 20
203.817
 30
0
 10
171.294
 20
203.827
 30
0
 10
171.294
 20
203.83
 30
0
 10
171.294
 20
203.833
 30
0
  0
SPLINE
  5
B13
330
A02
100
AcDbEntity
  8
View004
100
AcDbSpline
210
0
220
0
230
1
 70
8
 71
2
 72
24
 73
21
 74
0
 40
0
 40
0
 40
0
 40
0.336599
 40
0.336599
 40
0.560999
 40
0.560999
 40
0.785398
 40
0.785398
 40
0.897598
 40
0.897598
 40
1.0098
 40
1.0098
 40
1.122
 40
1.122
 40
1.2342
 40
1.2342
 40
1.3464
 40
1.3464
 40
1.4586
 40
1.4586
 40
1.5708
 40
1.5708
 40
1.5708
 10
279.694
 20
202.833
 30
0
 10
279.694
 20
203.002
 30
0
 10
279.694
 20
203.163
 30
0
 10
279.694
 20
203.268
 30
0
 10
279.694
 20
203.365
 30
0
 10
279.694
 20
203.459
 30
0
 10
279.694
 20
203.54
 30
0
 10
279.694
 20
203.577
 30
0
 10
279.694
 20
203.615
 30
0
 10
279.694
 20
203.647
 30
0
 10
279.694
 20
203.68
 30
0
 10
279.694
 20
203.707
 30
0
 10
279.694
 20
203.734
 30
0
 10
279.694
 20
203.755
 30
0
 10
279.694
 20
203.777
 30
0
 10
279.694
 20
203.792
 30
0
 10
279.694
 20
203.808
 30
0
 10
279.694
 20
203.817
 30
0
 10
279.694
 20
203.827
 30
0
 10
279.694
 20
203.83
 30
0
 10
279.694
 20
203.833
 30
0
  0
LINE
  5
B14
330
A02
100
AcDbEntity
  8
View004
100
AcDbLine
 10
171.294
 20
202.833
 30
0
 11
173.794
 21
202.833
 31
0
  0
LINE
  5
B15
330
A02
100
AcDbEntity
  8
View004
100
AcDbLine
 10
173.794
 20
202.833
 30
0
 11
277.194
 21
202.833
 31
0
  0
LINE
  5
B16
330
A02
100
AcDbEntity
  8
View004
100
AcDbLine
 10
277.194
 20
202.833
 30
0
 11
279.694
 21
202.833
 31
0
  0
LINE
  5
B17
330
A02
100
AcDbEntity
  8
View004
100
AcDbLine
 10
279.194
 20
205.333
 30
0
 11
171.794
 21
205.333
 31
0
  0
LINE
  5
B18
330
A02
100
AcDbEntity
  8
View004
100
AcDbLine
 10
279.694
 20
203.833
 30
0
 11
279.694
 21
205.333
 31
0
  0
SPLINE
  5
B19
330
A02
100
AcDbEntity
  8
View004
100
AcDbSpline
210
0
220
0
230
1
 70
8
 71
3
 72
11
 73
7
 74
0
 40
3.14159
 40
3.14159
 40
3.14159
 40
3.14159
 40
3.92699
 40
3.92699
 40
3.92699
 40
4.71239
 40
4.71239
 40
4.71239
 40
4.71239
 10
279.694
 20
205.333
 30
0
 10
279.694
 20
205.333
 30
0
 10
279.64
 20
205.333
 30
0
 10
279.548
 20
205.333
 30
0
 10
279.455
 20
205.333
 30
0
 10
279.325
 20
205.333
 30
0
 10
279.194
 20
205.333
 30
0
  0
LINE
  5
B1A
330
A02
100
AcDbEntity
  8
View004
100
AcDbLine
 10
173.794
 20
191.633
 30
0
 11
173.794
 21
202.833
 31
0
  0
LINE
  5
B1B
330
A02
100
AcDbEntity
  8
View004
100
AcDbLine
 10
277.194
 20
202.833
 30
0
 11
277.194
 21
191.633
 31
0
  0
LINE
  5
B1C
330
A02
100
AcDbEntity
  8
View004
100
AcDbLine
 10
174.794
 20
191.633
 30
0
 11
173.794
 21
191.633
 31
0
  0
LINE
  5
B1D
330
A02
100
AcDbEntity
  8
View004
100
AcDbLine
 10
277.194
 20
191.633
 30
0
 11
276.194
 21
191.633
 31
0
  0
LINE
  5
B1E
330
A02
100
AcDbEntity
  8
View004
100
AcDbLine
 10
174.794
 20
190.833
 30
0
 11
174.794
 21
191.633
 31
0
  0
LINE
  5
B1F
330
A02
100
AcDbEntity
  8
View004
100
AcDbLine
 10
276.194
 20
191.633
 30
0
 11
276.194
 21
190.833
 31
0
  0
LINE
  5
B20
330
A02
100
AcDbEntity
  8
View004
100
AcDbLine
 10
173.794
 20
190.833
 30
0
 11
174.794
 21
190.833
 31
0
  0
LINE
  5
B21
330
A02
100
AcDbEntity
  8
View004
100
AcDbLine
 10
276.194
 20
190.833
 30
0
 11
277.194
 21
190.833
 31
0
  0
LINE
  5
B22
330
A02
100
AcDbEntity
  8
View004
100
AcDbLine
 10
173.794
 20
137.433
 30
0
 11
173.794
 21
190.833
 31
0
  0
LINE
  5
B23
330
A02
100
AcDbEntity
  8
View004
100
AcDbLine
 10
277.194
 20
190.833
 30
0
 11
277.194
 21
137.433
 31
0
  0
LINE
  5
B24
330
A02
100
AcDbEntity
  8
View004
100
AcDbLine
 10
174.794
 20
137.433
 30
0
 11
173.794
 21
137.433
 31
0
  0
LINE
  5
B25
330
A02
100
AcDbEntity
  8
View004
100
AcDbLine
 10
277.194
 20
137.433
 30
0
 11
276.194
 21
137.433
 31
0
  0
LINE
  5
B26
330
A02
100
AcDbEntity
  8
View004
100
AcDbLine
 10
174.794
 20
136.633
 30
0
 11
174.794
 21
137.433
 31
0
  0
LINE
  5
B27
330
A02
100
AcDbEntity
  8
View004
100
AcDbLine
 10
276.194
 20
137.433
 30
0
 11
276.194
 21
136.633
 31
0
  0
LINE
  5
B28
330
A02
100
AcDbEntity
  8
View004
100
AcDbLine
 10
173.794
 20
136.633
 30
0
 11
174.794
 21
136.633
 31
0
  0
LINE
  5
B29
330
A02
100
AcDbEntity
  8
View004
100
AcDbLine
 10
276.194
 20
136.633
 30
0
 11
277.194
 21
136.633
 31
0
  0
LINE
  5
B2A
330
A02
100
AcDbEntity
  8
View004
100
AcDbLine
 10
173.794
 20
125.433
 30
0
 11
173.794
 21
136.633
 31
0
  0
LINE
  5
B2B
330
A02
100
AcDbEntity
  8
View004
100
AcDbLine
 10
277.194
 20
136.633
 30
0
 11
277.194
 21
125.433
 31
0
  0
LINE
  5
B2C
330
A02
100
AcDbEntity
  8
View004
100
AcDbLine
 10
277.194
 20
125.433
 30
0
 11
173.794
 21
125.433
 31
0
  0
SPLINE
  5
B2D
330
A02
100
AcDbEntity
  8
View004
100
AcDbSpline
210
0
220
0
230
1
 70
8
 71
2
 72
24
 73
21
 74
0
 40
0
 40
0
 40
0
 40
0.336599
 40
0.336599
 40
0.560999
 40
0.560999
 40
0.785398
 40
0.785398
 40
0.897598
 40
0.897598
 40
1.0098
 40
1.0098
 40
1.122
 40
1.122
 40
1.2342
 40
1.2342
 40
1.3464
 40
1.3464
 40
1.4586
 40
1.4586
 40
1.5708
 40
1.5708
 40
1.5708
 10
173.794
 20
137.433
 30
0
 10
173.625
 20
137.433
 30
0
 10
173.464
 20
137.433
 30
0
 10
173.359
 20
137.433
 30
0
 10
173.262
 20
137.433
 30
0
 10
173.169
 20
137.433
 30
0
 10
173.087
 20
137.433
 30
0
 10
173.05
 20
137.433
 30
0
 10
173.012
 20
137.433
 30
0
 10
172.98
 20
137.433
 30
0
 10
172.947
 20
137.433
 30
0
 10
172.92
 20
137.433
 30
0
 10
172.893
 20
137.433
 30
0
 10
172.872
 20
137.433
 30
0
 10
172.85
 20
137.433
 30
0
 10
172.835
 20
137.433
 30
0
 10
172.819
 20
137.433
 30
0
 10
172.81
 20
137.433
 30
0
 10
172.801
 20
137.433
 30
0
 10
172.797
 20
137.433
 30
0
 10
172.794
 20
137.433
 30
0
  0
SPLINE
  5
B2E
330
A02
100
AcDbEntity
  8
View004
100
AcDbSpline
210
0
220
0
230
1
 70
8
 71
2
 72
24
 73
21
 74
0
 40
0
 40
0
 40
0
 40
0.336599
 40
0.336599
 40
0.560999
 40
0.560999
 40
0.785398
 40
0.785398
 40
0.897598
 40
0.897598
 40
1.0098
 40
1.0098
 40
1.122
 40
1.122
 40
1.2342
 40
1.2342
 40
1.3464
 40
1.3464
 40
1.4586
 40
1.4586
 40
1.5708
 40
1.5708
 40
1.5708
 10
173.794
 20
190.833
 30
0
 10
173.625
 20
190.833
 30
0
 10
173.464
 20
190.833
 30
0
 10
173.359
 20
190.833
 30
0
 10
173.262
 20
190.833
 30
0
 10
173.169
 20
190.833
 30
0
 10
173.087
 20
190.833
 30
0
 10
173.05
 20
190.833
 30
0
 10
173.012
 20
190.833
 30
0
 10
172.98
 20
190.833
 30
0
 10
172.947
 20
190.833
 30
0
 10
172.92
 20
190.833
 30
0
 10
172.893
 20
190.833
 30
0
 10
172.872
 20
190.833
 30
0
 10
172.85
 20
190.833
 30
0
 10
172.835
 20
190.833
 30
0
 10
172.819
 20
190.833
 30
0
 10
172.81
 20
190.833
 30
0
 10
172.801
 20
190.833
 30
0
 10
172.797
 20
190.833
 30
0
 10
172.794
 20
190.833
 30
0
  0
SPLINE
  5
B2F
330
A02
100
AcDbEntity
  8
View004
100
AcDbSpline
210
0
220
0
230
1
 70
8
 71
2
 72
24
 73
21
 74
0
 40
0
 40
0
 40
0
 40
0.336599
 40
0.336599
 40
0.560999
 40
0.560999
 40
0.785398
 40
0.785398
 40
0.897598
 40
0.897598
 40
1.0098
 40
1.0098
 40
1.122
 40
1.122
 40
1.2342
 40
1.2342
 40
1.3464
 40
1.3464
 40
1.4586
 40
1.4586
 40
1.5708
 40
1.5708
 40
1.5708
 10
277.194
 20
190.833
 30
0
 10
277.364
 20
190.833
 30
0
 10
277.524
 20
190.833
 30
0
 10
277.63
 20
190.833
 30
0
 10
277.726
 20
190.833
 30
0
 10
277.82
 20
190.833
 30
0
 10
277.901
 20
190.833
 30
0
 10
277.939
 20
190.833
 30
0
 10
277.976
 20
190.833
 30
0
 10
278.008
 20
190.833
 30
0
 10
278.041
 20
190.833
 30
0
 10
278.068
 20
190.833
 30
0
 10
278.095
 20
190.833
 30
0
 10
278.117
 20
190.833
 30
0
 10
278.138
 20
190.833
 30
0
 10
278.154
 20
190.833
 30
0
 10
278.169
 20
190.833
 30
0
 10
278.179
 20
190.833
 30
0
 10
278.188
 20
190.833
 30
0
 10
278.191
 20
190.833
 30
0
 10
278.194
 20
190.833
 30
0
  0
SPLINE
  5
B30
330
A02
100
AcDbEntity
  8
View004
100
AcDbSpline
210
0
220
0
230
1
 70
8
 71
2
 72
24
 73
21
 74
0
 40
0
 40
0
 40
0
 40
0.336599
 40
0.336599
 40
0.560999
 40
0.560999
 40
0.785398
 40
0.785398
 40
0.897598
 40
0.897598
 40
1.0098
 40
1.0098
 40
1.122
 40
1.122
 40
1.2342
 40
1.2342
 40
1.3464
 40
1.3464
 40
1.4586
 40
1.4586
 40
1.5708
 40
1.5708
 40
1.5708
 10
277.194
 20
137.433
 30
0
 10
277.364
 20
137.433
 30
0
 10
277.524
 20
137.433
 30
0
 10
277.63
 20
137.433
 30
0
 10
277.726
 20
137.433
 30
0
 10
277.82
 20
137.433
 30
0
 10
277.901
 20
137.433
 30
0
 10
277.939
 20
137.433
 30
0
 10
277.976
 20
137.433
 30
0
 10
278.008
 20
137.433
 30
0
 10
278.041
 20
137.433
 30
0
 10
278.068
 20
137.433
 30
0
 10
278.095
 20
137.433
 30
0
 10
278.117
 20
137.433
 30
0
 10
278.138
 20
137.433
 30
0
 10
278.154
 20
137.433
 30
0
 10
278.169
 20
137.433
 30
0
 10
278.179
 20
137.433
 30
0
 10
278.188
 20
137.433
 30
0
 10
278.191
 20
137.433
 30
0
 10
278.194
 20
137.433
 30
0
  0
SPLINE
  5
B31
330
A02
100
AcDbEntity
  8
View004
100
AcDbSpline
210
0
220
0
230
1
 70
8
 71
2
 72
24
 73
21
 74
0
 40
0
 40
0
 40
0
 40
0.336599
 40
0.336599
 40
0.560999
 40
0.560999
 40
0.785398
 40
0.785398
 40
0.897598
 40
0.897598
 40
1.0098
 40
1.0098
 40
1.122
 40
1.122
 40
1.2342
 40
1.2342
 40
1.3464
 40
1.3464
 40
1.4586
 40
1.4586
 40
1.5708
 40
1.5708
 40
1.5708
 10
279.694
 20
125.433
 30
0
 10
279.694
 20
125.264
 30
0
 10
279.694
 20
125.103
 30
0
 10
279.694
 20
124.998
 30
0
 10
279.694
 20
124.901
 30
0
 10
279.694
 20
124.807
 30
0
 10
279.694
 20
124.726
 30
0
 10
279.694
 20
124.688
 30
0
 10
279.694
 20
124.651
 30
0
 10
279.694
 20
124.619
 30
0
 10
279.694
 20
124.586
 30
0
 10
279.694
 20
124.559
 30
0
 10
279.694
 20
124.532
 30
0
 10
279.694
 20
124.511
 30
0
 10
279.694
 20
124.489
 30
0
 10
279.694
 20
124.474
 30
0
 10
279.694
 20
124.458
 30
0
 10
279.694
 20
124.449
 30
0
 10
279.694
 20
124.439
 30
0
 10
279.694
 20
124.436
 30
0
 10
279.694
 20
124.433
 30
0
  0
SPLINE
  5
B32
330
A02
100
AcDbEntity
  8
View004
100
AcDbSpline
210
0
220
0
230
1
 70
8
 71
2
 72
24
 73
21
 74
0
 40
0
 40
0
 40
0
 40
0.336599
 40
0.336599
 40
0.560999
 40
0.560999
 40
0.785398
 40
0.785398
 40
0.897598
 40
0.897598
 40
1.0098
 40
1.0098
 40
1.122
 40
1.122
 40
1.2342
 40
1.2342
 40
1.3464
 40
1.3464
 40
1.4586
 40
1.4586
 40
1.5708
 40
1.5708
 40
1.5708
 10
171.294
 20
125.433
 30
0
 10
171.294
 20
125.264
 30
0
 10
171.294
 20
125.103
 30
0
 10
171.294
 20
124.998
 30
0
 10
171.294
 20
124.901
 30
0
 10
171.294
 20
124.807
 30
0
 10
171.294
 20
124.726
 30
0
 10
171.294
 20
124.688
 30
0
 10
171.294
 20
124.651
 30
0
 10
171.294
 20
124.619
 30
0
 10
171.294
 20
124.586
 30
0
 10
171.294
 20
124.559
 30
0
 10
171.294
 20
124.532
 30
0
 10
171.294
 20
124.511
 30
0
 10
171.294
 20
124.489
 30
0
 10
171.294
 20
124.474
 30
0
 10
171.294
 20
124.458
 30
0
 10
171.294
 20
124.449
 30
0
 10
171.294
 20
124.439
 30
0
 10
171.294
 20
124.436
 30
0
 10
171.294
 20
124.433
 30
0
  0
LINE
  5
B33
330
A02
100
AcDbEntity
  8
View004
100
AcDbLine
 10
279.694
 20
125.433
 30
0
 11
277.194
 21
125.433
 31
0
  0
LINE
  5
B34
330
A02
100
AcDbEntity
  8
View004
100
AcDbLine
 10
173.794
 20
125.433
 30
0
 11
171.294
 21
125.433
 31
0
  0
CIRCLE
  5
B35
330
A02
100
AcDbEntity
  8
View004
100
AcDbCircle
 10
178.494
 20
132.433
 40
2.5
  0
CIRCLE
  5
B36
330
A02
100
AcDbEntity
  8
View004
100
AcDbCircle
 10
272.494
 20
132.433
 40
2.5
  0
CIRCLE
  5
B37
330
A02
100
AcDbEntity
  8
View004
100
AcDbCircle
 10
178.494
 20
197.433
 40
2.5
  0
CIRCLE
  5
B38
330
A02
100
AcDbEntity
  8
View004
100
AcDbCircle
 10
272.494
 20
197.433
 40
2.5
  0
LINE
  5
B39
330
A02
100
AcDbEntity
  8
View004
100
AcDbLine
 10
172.794
 20
190.833
 30
0
 11
172.794
 21
137.433
 31
0
  0
LINE
  5
B3A
330
A02
100
AcDbEntity
  8
View004
100
AcDbLine
 10
278.194
 20
137.433
 30
0
 11
278.194
 21
190.833
 31
0
  0
SPLINE
  5
B3B
330
A02
100
AcDbEntity
  8
View004
100
AcDbSpline
210
0
220
0
230
1
 70
8
 71
3
 72
11
 73
7
 74
0
 40
0
 40
0
 40
0
 40
0
 40
0.785398
 40
0.785398
 40
0.785398
 40
1.5708
 40
1.5708
 40
1.5708
 40
1.5708
 10
279.694
 20
124.433
 30
0
 10
279.694
 20
124.433
 30
0
 10
279.64
 20
124.433
 30
0
 10
279.548
 20
124.433
 30
0
 10
279.455
 20
124.433
 30
0
 10
279.325
 20
124.433
 30
0
 10
279.194
 20
124.433
 30
0
  0
LINE
  5
B3C
330
A02
100
AcDbEntity
  8
View004
100
AcDbLine
 10
171.794
 20
124.433
 30
0
 11
279.194
 21
124.433
 31
0
  0
SPLINE
  5
B3D
330
A02
100
AcDbEntity
  8
View004
100
AcDbSpline
210
0
220
0
230
1
 70
8
 71
3
 72
11
 73
7
 74
0
 40
3.14159
 40
3.14159
 40
3.14159
 40
3.14159
 40
3.92699
 40
3.92699
 40
3.92699
 40
4.71239
 40
4.71239
 40
4.71239
 40
4.71239
 10
171.294
 20
124.433
 30
0
 10
171.295
 20
124.433
 30
0
 10
171.348
 20
124.433
 30
0
 10
171.441
 20
124.433
 30
0
 10
171.534
 20
124.433
 30
0
 10
171.663
 20
124.433
 30
0
 10
171.794
 20
124.433
 30
0
  0
CIRCLE
  5
B3E
330
A02
100
AcDbEntity
  8
View004
100
AcDbCircle
 10
178.494
 20
132.433
 40
1.7
  0
CIRCLE
  5
B3F
330
A02
100
AcDbEntity
  8
View004
100
AcDbCircle
 10
272.494
 20
132.433
 40
1.7
  0
CIRCLE
  5
B40
330
A02
100
AcDbEntity
  8
View004
100
AcDbCircle
 10
178.494
 20
197.433
 40
1.7
  0
CIRCLE
  5
B41
330
A02
100
AcDbEntity
  8
View004
100
AcDbCircle
 10
272.494
 20
197.433
 40
1.7
  0
LINE
  5
B42
330
A02
100
AcDbEntity
  8
View004
100
AcDbLine
 10
172.794
 20
190.833
 30
0
 11
171.294
 21
190.833
 31
0
  0
LINE
  5
B43
330
A02
100
AcDbEntity
  8
View004
100
AcDbLine
 10
278.194
 20
190.833
 30
0
 11
279.694
 21
190.833
 31
0
  0
LINE
  5
B44
330
A02
100
AcDbEntity
  8
View004
100
AcDbLine
 10
172.794
 20
137.433
 30
0
 11
171.294
 21
137.433
 31
0
  0
LINE
  5
B45
330
A02
100
AcDbEntity
  8
View004
100
AcDbLine
 10
171.294
 20
190.833
 30
0
 11
171.294
 21
137.433
 31
0
  0
LINE
  5
B46
330
A02
100
AcDbEntity
  8
View004
100
AcDbLine
 10
278.194
 20
137.433
 30
0
 11
279.694
 21
137.433
 31
0
  0
LINE
  5
B47
330
A02
100
AcDbEntity
  8
View004
100
AcDbLine
 10
279.694
 20
137.433
 30
0
 11
279.694
 21
190.833
 31
0
  0
LINE
  5
B48
330
A02
100
AcDbEntity
  8
View004
100
AcDbLine
 10
279.694
 20
124.433
 30
0
 11
279.694
 21
122.933
 31
0
  0
LINE
  5
B49
330
A02
100
AcDbEntity
  8
View004
100
AcDbLine
 10
171.294
 20
124.433
 30
0
 11
171.294
 21
122.933
 31
0
  0
SPLINE
  5
B4A
330
A02
100
AcDbEntity
  8
View004
100
AcDbSpline
210
0
220
0
230
1
 70
8
 71
3
 72
11
 73
7
 74
0
 40
0
 40
0
 40
0
 40
0
 40
0.785398
 40
0.785398
 40
0.785398
 40
1.5708
 40
1.5708
 40
1.5708
 40
1.5708
 10
279.694
 20
122.933
 30
0
 10
279.694
 20
122.933
 30
0
 10
279.64
 20
122.933
 30
0
 10
279.548
 20
122.933
 30
0
 10
279.455
 20
122.933
 30
0
 10
279.325
 20
122.933
 30
0
 10
279.194
 20
122.933
 30
0
  0
LINE
  5
B4B
330
A02
100
AcDbEntity
  8
View004
100
AcDbLine
 10
171.794
 20
122.933
 30
0
 11
279.194
 21
122.933
 31
0
  0
SPLINE
  5
B4C
330
A02
100
AcDbEntity
  8
View004
100
AcDbSpline
210
0
220
0
230
1
 70
8
 71
3
 72
11
 73
7
 74
0
 40
3.14159
 40
3.14159
 40
3.14159
 40
3.14159
 40
3.92699
 40
3.92699
 40
3.92699
 40
4.71239
 40
4.71239
 40
4.71239
 40
4.71239
 10
171.294
 20
122.933
 30
0
 10
171.295
 20
122.933
 30
0
 10
171.348
 20
122.933
 30
0
 10
171.441
 20
122.933
 30
0
 10
171.534
 20
122.933
 30
0
 10
171.663
 20
122.933
 30
0
 10
171.794
 20
122.933
 30
0
  0
LINE
  5
B4D
330
A02
100
AcDbEntity
  8
View004
100
AcDbLine
 10
171.794
 20
203.833
 30
0
 11
171.794
 21
205.333
 31
0
  0
LINE
  5
B4E
330
A02
100
AcDbEntity
  8
View004
100
AcDbLine
 10
279.194
 20
203.833
 30
0
 11
279.194
 21
205.333
 31
0
  0
LINE
  5
B4F
330
A02
100
AcDbEntity
  8
View004
100
AcDbLine
 10
279.194
 20
124.433
 30
0
 11
279.194
 21
122.933
 31
0
  0
LINE
  5
B50
330
A02
100
AcDbEntity
  8
View004
100
AcDbLine
 10
171.794
 20
124.433
 30
0
 11
171.794
 21
122.933
 31
0
  0
LINE
  5
B51
330
A02
100
AcDbEntity
  8
View004
100
AcDbLine
 10
180.194
 20
132.433
 30
0
 11
178.494
 21
132.433
 31
0
  0
LINE
  5
B52
330
A02
100
AcDbEntity
  8
View004
100
AcDbLine
 10
274.194
 20
132.433
 30
0
 11
272.494
 21
132.433
 31
0
  0
LINE
  5
B53
330
A02
100
AcDbEntity
  8
View004
100
AcDbLine
 10
180.194
 20
197.433
 30
0
 11
178.494
 21
197.433
 31
0
  0
LINE
  5
B54
330
A02
100
AcDbEntity
  8
View004
100
AcDbLine
 10
274.194
 20
197.433
 30
0
 11
272.494
 21
197.433
 31
0
  0
LINE
  5
B55
330
A02
100
AcDbEntity
  8
View005
100
AcDbLine
 10
134.376
 20
52.2369
 30
0
 11
134.376
 21
27.6369
 31
0
  0
ARC
  5
B56
330
A02
100
AcDbEntity
  8
View005
100
AcDbCircle
 10
133.876
 20
52.2369
 30
0
 40
0.5
100
AcDbArc
 50
0
 51
90
  0
LINE
  5
B57
330
A02
100
AcDbEntity
  8
View005
100
AcDbLine
 10
26.4763
 20
52.7369
 30
0
 11
133.876
 21
52.7369
 31
0
  0
LINE
  5
B58
330
A02
100
AcDbEntity
  8
View005
100
AcDbLine
 10
25.9763
 20
27.6369
 30
0
 11
25.9763
 21
52.2369
 31
0
  0
ARC
  5
B59
330
A02
100
AcDbEntity
  8
View005
100
AcDbCircle
 10
26.4763
 20
52.2369
 30
0
 40
0.5
100
AcDbArc
 50
90
 51
180
  0
LINE
  5
B5A
330
A02
100
AcDbEntity
  8
View005
100
AcDbLine
 10
114.326
 20
34.2369
 30
0
 11
114.326
 21
36.2369
 31
0
  0
ARC
  5
B5B
330
A02
100
AcDbEntity
  8
View005
100
AcDbCircle
 10
113.326
 20
34.2369
 30
0
 40
1
100
AcDbArc
 50
-90
 51
0
  0
ARC
  5
B5C
330
A02
100
AcDbEntity
  8
View005
100
AcDbCircle
 10
113.326
 20
36.2369
 30
0
 40
1
100
AcDbArc
 50
0
 51
90
  0
LINE
  5
B5D
330
A02
100
AcDbEntity
  8
View005
100
AcDbLine
 10
106.326
 20
33.2369
 30
0
 11
113.326
 21
33.2369
 31
0
  0
LINE
  5
B5E
330
A02
100
AcDbEntity
  8
View005
100
AcDbLine
 10
113.326
 20
37.2369
 30
0
 11
106.326
 21
37.2369
 31
0
  0
ARC
  5
B5F
330
A02
100
AcDbEntity
  8
View005
100
AcDbCircle
 10
106.326
 20
34.2369
 30
0
 40
1
100
AcDbArc
 50
180
 51
-90
  0
ARC
  5
B60
330
A02
100
AcDbEntity
  8
View005
100
AcDbCircle
 10
106.326
 20
36.2369
 30
0
 40
1
100
AcDbArc
 50
90
 51
180
  0
LINE
  5
B61
330
A02
100
AcDbEntity
  8
View005
100
AcDbLine
 10
105.326
 20
36.2369
 30
0
 11
105.326
 21
34.2369
 31
0
  0
LINE
  5
B62
330
A02
100
AcDbEntity
  8
View005
100
AcDbLine
 10
46.5263
 20
33.0369
 30
0
 11
46.5263
 21
44.4369
 31
0
  0
LINE
  5
B63
330
A02
100
AcDbEntity
  8
View005
100
AcDbLine
 10
37.1263
 20
33.0369
 30
0
 11
46.5263
 21
33.0369
 31
0
  0
LINE
  5
B64
330
A02
100
AcDbEntity
  8
View005
100
AcDbLine
 10
37.1263
 20
44.4369
 30
0
 11
37.1263
 21
33.0369
 31
0
  0
LINE
  5
B65
330
A02
100
AcDbEntity
  8
View005
100
AcDbLine
 10
46.5263
 20
44.4369
 30
0
 11
37.1263
 21
44.4369
 31
0
  0
LINE
  5
B66
330
A02
100
AcDbEntity
  8
View005
100
AcDbLine
 10
116.976
 20
40.1369
 30
0
 11
116.976
 21
49.3369
 31
0
  0
LINE
  5
B67
330
A02
100
AcDbEntity
  8
View005
100
AcDbLine
 10
102.576
 20
40.1369
 30
0
 11
116.976
 21
40.1369
 31
0
  0
LINE
  5
B68
330
A02
100
AcDbEntity
  8
View005
100
AcDbLine
 10
102.576
 20
49.3369
 30
0
 11
102.576
 21
40.1369
 31
0
  0
LINE
  5
B69
330
A02
100
AcDbEntity
  8
View005
100
AcDbLine
 10
116.976
 20
49.3369
 30
0
 11
102.576
 21
49.3369
 31
0
  0
LINE
  5
B6A
330
A02
100
AcDbEntity
  8
View005
100
AcDbLine
 10
84.2763
 20
34.2369
 30
0
 11
84.2763
 21
36.2369
 31
0
  0
ARC
  5
B6B
330
A02
100
AcDbEntity
  8
View005
100
AcDbCircle
 10
83.2763
 20
34.2369
 30
0
 40
1
100
AcDbArc
 50
-90
 51
0
  0
ARC
  5
B6C
330
A02
100
AcDbEntity
  8
View005
100
AcDbCircle
 10
83.2763
 20
36.2369
 30
0
 40
1
100
AcDbArc
 50
0
 51
90
  0
LINE
  5
B6D
330
A02
100
AcDbEntity
  8
View005
100
AcDbLine
 10
76.2763
 20
33.2369
 30
0
 11
83.2763
 21
33.2369
 31
0
  0
LINE
  5
B6E
330
A02
100
AcDbEntity
  8
View005
100
AcDbLine
 10
83.2763
 20
37.2369
 30
0
 11
76.2763
 21
37.2369
 31
0
  0
ARC
  5
B6F
330
A02
100
AcDbEntity
  8
View005
100
AcDbCircle
 10
76.2763
 20
34.2369
 30
0
 40
1
100
AcDbArc
 50
180
 51
-90
  0
ARC
  5
B70
330
A02
100
AcDbEntity
  8
View005
100
AcDbCircle
 10
76.2763
 20
36.2369
 30
0
 40
1
100
AcDbArc
 50
90
 51
180
  0
LINE
  5
B71
330
A02
100
AcDbEntity
  8
View005
100
AcDbLine
 10
75.2763
 20
36.2369
 30
0
 11
75.2763
 21
34.2369
 31
0
  0
SPLINE
  5
B72
330
A02
100
AcDbEntity
  8
View005
100
AcDbSpline
210
0
220
0
230
1
 70
8
 71
2
 72
30
 73
27
 74
0
 40
0
 40
0
 40
0
 40
0.1122
 40
0.1122
 40
0.224399
 40
0.224399
 40
0.336599
 40
0.336599
 40
0.448799
 40
0.448799
 40
0.560999
 40
0.560999
 40
0.673198
 40
0.673198
 40
0.785398
 40
0.785398
 40
0.897598
 40
0.897598
 40
1.0098
 40
1.0098
 40
1.122
 40
1.122
 40
1.2342
 40
1.2342
 40
1.3464
 40
1.3464
 40
1.5708
 40
1.5708
 40
1.5708
 10
134.376
 20
25.1369
 30
0
 10
134.376
 20
25.1448
 30
0
 10
134.376
 20
25.1526
 30
0
 10
134.376
 20
25.1761
 30
0
 10
134.376
 20
25.1996
 30
0
 10
134.376
 20
25.2384
 30
0
 10
134.376
 20
25.2772
 30
0
 10
134.376
 20
25.3309
 30
0
 10
134.376
 20
25.3845
 30
0
 10
134.376
 20
25.4523
 30
0
 10
134.376
 20
25.5201
 30
0
 10
134.376
 20
25.6012
 30
0
 10
134.376
 20
25.6823
 30
0
 10
134.376
 20
25.7758
 30
0
 10
134.376
 20
25.8692
 30
0
 10
134.376
 20
25.9737
 30
0
 10
134.376
 20
26.0782
 30
0
 10
134.376
 20
26.1925
 30
0
 10
134.376
 20
26.3068
 30
0
 10
134.376
 20
26.4295
 30
0
 10
134.376
 20
26.5522
 30
0
 10
134.376
 20
26.6817
 30
0
 10
134.376
 20
26.8112
 30
0
 10
134.376
 20
26.9459
 30
0
 10
134.376
 20
27.0806
 30
0
 10
134.376
 20
27.356
 30
0
 10
134.376
 20
27.6369
 30
0
  0
LINE
  5
B73
330
A02
100
AcDbEntity
  8
View005
100
AcDbLine
 10
25.9763
 20
27.6369
 30
0
 11
134.376
 21
27.6369
 31
0
  0
SPLINE
  5
B74
330
A02
100
AcDbEntity
  8
View005
100
AcDbSpline
210
0
220
0
230
1
 70
8
 71
2
 72
30
 73
27
 74
0
 40
0
 40
0
 40
0
 40
0.1122
 40
0.1122
 40
0.224399
 40
0.224399
 40
0.336599
 40
0.336599
 40
0.448799
 40
0.448799
 40
0.560999
 40
0.560999
 40
0.673198
 40
0.673198
 40
0.785398
 40
0.785398
 40
0.897598
 40
0.897598
 40
1.0098
 40
1.0098
 40
1.122
 40
1.122
 40
1.2342
 40
1.2342
 40
1.3464
 40
1.3464
 40
1.5708
 40
1.5708
 40
1.5708
 10
25.9763
 20
25.1369
 30
0
 10
25.9763
 20
25.1448
 30
0
 10
25.9763
 20
25.1526
 30
0
 10
25.9763
 20
25.1761
 30
0
 10
25.9763
 20
25.1996
 30
0
 10
25.9763
 20
25.2384
 30
0
 10
25.9763
 20
25.2772
 30
0
 10
25.9763
 20
25.3309
 30
0
 10
25.9763
 20
25.3845
 30
0
 10
25.9763
 20
25.4523
 30
0
 10
25.9763
 20
25.5201
 30
0
 10
25.9763
 20
25.6012
 30
0
 10
25.9763
 20
25.6823
 30
0
 10
25.9763
 20
25.7758
 30
0
 10
25.9763
 20
25.8692
 30
0
 10
25.9763
 20
25.9737
 30
0
 10
25.9763
 20
26.0782
 30
0
 10
25.9763
 20
26.1925
 30
0
 10
25.9763
 20
26.3068
 30
0
 10
25.9763
 20
26.4295
 30
0
 10
25.9763
 20
26.5522
 30
0
 10
25.9763
 20
26.6817
 30
0
 10
25.9763
 20
26.8112
 30
0
 10
25.9763
 20
26.9459
 30
0
 10
25.9763
 20
27.0806
 30
0
 10
25.9763
 20
27.356
 30
0
 10
25.9763
 20
27.6369
 30
0
  0
LINE
  5
B75
330
A02
100
AcDbEntity
  8
View005
100
AcDbLine
 10
131.876
 20
25.1369
 30
0
 11
134.376
 21
25.1369
 31
0
  0
LINE
  5
B76
330
A02
100
AcDbEntity
  8
View005
100
AcDbLine
 10
25.9763
 20
25.1369
 30
0
 11
28.4763
 21
25.1369
 31
0
  0
LINE
  5
B77
330
A02
100
AcDbEntity
  8
View005
100
AcDbLine
 10
28.4763
 20
25.1369
 30
0
 11
131.876
 21
25.1369
 31
0
  0
LINE
  5
B78
330
A02
100
AcDbEntity
  8
View005
100
AcDbLine
 10
133.876
 20
52.7369
 30
0
 11
26.4763
 21
52.7369
 31
0
  0
LINE
  5
B79
330
A02
100
AcDbEntity
  8
View005
100
AcDbLine
 10
134.376
 20
33.7369
 30
0
 11
134.376
 21
52.2369
 31
0
  0
LINE
  5
B7A
330
A02
100
AcDbEntity
  8
View005
100
AcDbLine
 10
39.8963
 20
33.8369
 30
0
 11
46.5263
 21
33.8369
 31
0
  0
ARC
  5
B7B
330
A02
100
AcDbEntity
  8
View005
100
AcDbCircle
 10
39.8963
 20
34.8369
 30
0
 40
1
100
AcDbArc
 50
180
 51
-90
  0
LINE
  5
B7C
330
A02
100
AcDbEntity
  8
View005
100
AcDbLine
 10
38.8963
 20
44.4369
 30
0
 11
38.8963
 21
34.8369
 31
0
  0
LINE
  5
B7D
330
A02
100
AcDbEntity
  8
View005
100
AcDbLine
 10
116.976
 20
48.4869
 30
0
 11
102.576
 21
48.4869
 31
0
  0
LINE
  5
B7E
330
A02
100
AcDbEntity
  8
View005
100
AcDbLine
 10
105.338
 20
34.0869
 30
0
 11
114.315
 21
34.0869
 31
0
  0
LINE
  5
B7F
330
A02
100
AcDbEntity
  8
View006
100
AcDbLine
 10
264.674
 20
73.5907
 30
0
 11
264.674
 21
98.1907
 31
0
  0
SPLINE
  5
B80
330
A02
100
AcDbEntity
  8
View006
100
AcDbSpline
210
0
220
0
230
1
 70
8
 71
3
 72
11
 73
7
 74
0
 40
3.14159
 40
3.14159
 40
3.14159
 40
3.14159
 40
3.92699
 40
3.92699
 40
3.92699
 40
4.71239
 40
4.71239
 40
4.71239
 40
4.71239
 10
264.674
 20
98.1907
 30
0
 10
264.674
 20
98.3219
 30
0
 10
264.674
 20
98.4512
 30
0
 10
264.674
 20
98.5442
 30
0
 10
264.674
 20
98.6367
 30
0
 10
264.674
 20
98.6902
 30
0
 10
264.674
 20
98.6907
 30
0
  0
ARC
  5
B81
330
A02
100
AcDbEntity
  8
View006
100
AcDbCircle
 10
263.674
 20
73.5907
 30
0
 40
1
100
AcDbArc
 50
-90
 51
0
  0
LINE
  5
B82
330
A02
100
AcDbEntity
  8
View006
100
AcDbLine
 10
264.674
 20
98.6907
 30
0
 11
266.174
 21
98.6907
 31
0
  0
LINE
  5
B83
330
A02
100
AcDbEntity
  8
View006
100
AcDbLine
 10
264.674
 20
73.5907
 30
0
 11
266.174
 21
73.5907
 31
0
  0
LINE
  5
B84
330
A02
100
AcDbEntity
  8
View006
100
AcDbLine
 10
266.174
 20
73.5907
 30
0
 11
266.174
 21
98.1907
 31
0
  0
SPLINE
  5
B85
330
A02
100
AcDbEntity
  8
View006
100
AcDbSpline
210
0
220
0
230
1
 70
8
 71
3
 72
11
 73
7
 74
0
 40
3.14159
 40
3.14159
 40
3.14159
 40
3.14159
 40
3.92699
 40
3.92699
 40
3.92699
 40
4.71239
 40
4.71239
 40
4.71239
 40
4.71239
 10
266.174
 20
98.1907
 30
0
 10
266.174
 20
98.3219
 30
0
 10
266.174
 20
98.4512
 30
0
 10
266.174
 20
98.5442
 30
0
 10
266.174
 20
98.6367
 30
0
 10
266.174
 20
98.6902
 30
0
 10
266.174
 20
98.6907
 30
0
  0
ARC
  5
B86
330
A02
100
AcDbEntity
  8
View006
100
AcDbCircle
 10
263.674
 20
73.5907
 30
0
 40
2.5
100
AcDbArc
 50
-90
 51
0
  0
LINE
  5
B87
330
A02
100
AcDbEntity
  8
View006
100
AcDbLine
 10
263.674
 20
72.5907
 30
0
 11
263.674
 21
71.0907
 31
0
  0
LINE
  5
B88
330
A02
100
AcDbEntity
  8
View006
100
AcDbLine
 10
263.674
 20
72.5907
 30
0
 11
252.474
 21
72.5907
 31
0
  0
LINE
  5
B89
330
A02
100
AcDbEntity
  8
View006
100
AcDbLine
 10
252.474
 20
72.5907
 30
0
 11
251.674
 21
72.5907
 31
0
  0
LINE
  5
B8A
330
A02
100
AcDbEntity
  8
View006
100
AcDbLine
 10
198.274
 20
72.5907
 30
0
 11
197.474
 21
72.5907
 31
0
  0
LINE
  5
B8B
330
A02
100
AcDbEntity
  8
View006
100
AcDbLine
 10
197.474
 20
72.5907
 30
0
 11
186.274
 21
72.5907
 31
0
  0
LINE
  5
B8C
330
A02
100
AcDbEntity
  8
View006
100
AcDbLine
 10
252.474
 20
71.0907
 30
0
 11
263.674
 21
71.0907
 31
0
  0
LINE
  5
B8D
330
A02
100
AcDbEntity
  8
View006
100
AcDbLine
 10
252.474
 20
72.5907
 30
0
 11
252.474
 21
71.0907
 31
0
  0
LINE
  5
B8E
330
A02
100
AcDbEntity
  8
View006
100
AcDbLine
 10
252.474
 20
71.0907
 30
0
 11
251.674
 21
71.0907
 31
0
  0
LINE
  5
B8F
330
A02
100
AcDbEntity
  8
View006
100
AcDbLine
 10
198.274
 20
71.0907
 30
0
 11
197.474
 21
71.0907
 31
0
  0
LINE
  5
B90
330
A02
100
AcDbEntity
  8
View006
100
AcDbLine
 10
197.474
 20
72.5907
 30
0
 11
197.474
 21
71.0907
 31
0
  0
LINE
  5
B91
330
A02
100
AcDbEntity
  8
View006
100
AcDbLine
 10
186.274
 20
71.0907
 30
0
 11
197.474
 21
71.0907
 31
0
  0
ARC
  5
B92
330
A02
100
AcDbEntity
  8
View006
100
AcDbCircle
 10
186.274
 20
73.5907
 30
0
 40
1
100
AcDbArc
 50
180
 51
-90
  0
SPLINE
  5
B93
330
A02
100
AcDbEntity
  8
View006
100
AcDbSpline
210
0
220
0
230
1
 70
8
 71
2
 72
30
 73
27
 74
0
 40
0
 40
0
 40
0
 40
0.1122
 40
0.1122
 40
0.336599
 40
0.336599
 40
0.448799
 40
0.448799
 40
0.560999
 40
0.560999
 40
0.673198
 40
0.673198
 40
0.785398
 40
0.785398
 40
0.897598
 40
0.897598
 40
1.0098
 40
1.0098
 40
1.122
 40
1.122
 40
1.2342
 40
1.2342
 40
1.3464
 40
1.3464
 40
1.4586
 40
1.4586
 40
1.5708
 40
1.5708
 40
1.5708
 10
193.274
 20
77.5907
 30
0
 10
193.414
 20
77.5907
 30
0
 10
193.554
 20
77.5907
 30
0
 10
193.832
 20
77.5907
 30
0
 10
194.1
 20
77.5907
 30
0
 10
194.229
 20
77.5907
 30
0
 10
194.359
 20
77.5907
 30
0
 10
194.481
 20
77.5907
 30
0
 10
194.604
 20
77.5907
 30
0
 10
194.718
 20
77.5907
 30
0
 10
194.833
 20
77.5907
 30
0
 10
194.937
 20
77.5907
 30
0
 10
195.042
 20
77.5907
 30
0
 10
195.135
 20
77.5907
 30
0
 10
195.229
 20
77.5907
 30
0
 10
195.31
 20
77.5907
 30
0
 10
195.391
 20
77.5907
 30
0
 10
195.459
 20
77.5907
 30
0
 10
195.526
 20
77.5907
 30
0
 10
195.58
 20
77.5907
 30
0
 10
195.634
 20
77.5907
 30
0
 10
195.673
 20
77.5907
 30
0
 10
195.711
 20
77.5907
 30
0
 10
195.735
 20
77.5907
 30
0
 10
195.758
 20
77.5907
 30
0
 10
195.766
 20
77.5907
 30
0
 10
195.774
 20
77.5907
 30
0
  0
SPLINE
  5
B94
330
A02
100
AcDbEntity
  8
View006
100
AcDbSpline
210
0
220
0
230
1
 70
8
 71
2
 72
30
 73
27
 74
0
 40
4.71239
 40
4.71239
 40
4.71239
 40
4.82459
 40
4.82459
 40
4.93679
 40
4.93679
 40
5.04899
 40
5.04899
 40
5.16119
 40
5.16119
 40
5.27339
 40
5.27339
 40
5.38559
 40
5.38559
 40
5.49779
 40
5.49779
 40
5.60999
 40
5.60999
 40
5.72219
 40
5.72219
 40
5.83439
 40
5.83439
 40
5.94659
 40
5.94659
 40
6.05879
 40
6.05879
 40
6.28319
 40
6.28319
 40
6.28319
 10
190.774
 20
77.5907
 30
0
 10
190.782
 20
77.5907
 30
0
 10
190.79
 20
77.5907
 30
0
 10
190.813
 20
77.5907
 30
0
 10
190.837
 20
77.5907
 30
0
 10
190.875
 20
77.5907
 30
0
 10
190.914
 20
77.5907
 30
0
 10
190.968
 20
77.5907
 30
0
 10
191.022
 20
77.5907
 30
0
 10
191.089
 20
77.5907
 30
0
 10
191.157
 20
77.5907
 30
0
 10
191.238
 20
77.5907
 30
0
 10
191.319
 20
77.5907
 30
0
 10
191.413
 20
77.5907
 30
0
 10
191.506
 20
77.5907
 30
0
 10
191.611
 20
77.5907
 30
0
 10
191.715
 20
77.5907
 30
0
 10
191.83
 20
77.5907
 30
0
 10
191.944
 20
77.5907
 30
0
 10
192.067
 20
77.5907
 30
0
 10
192.189
 20
77.5907
 30
0
 10
192.319
 20
77.5907
 30
0
 10
192.448
 20
77.5907
 30
0
 10
192.583
 20
77.5907
 30
0
 10
192.718
 20
77.5907
 30
0
 10
192.993
 20
77.5907
 30
0
 10
193.274
 20
77.5907
 30
0
  0
SPLINE
  5
B95
330
A02
100
AcDbEntity
  8
View006
100
AcDbSpline
210
0
220
0
230
1
 70
8
 71
2
 72
30
 73
27
 74
0
 40
0
 40
0
 40
0
 40
0.1122
 40
0.1122
 40
0.336599
 40
0.336599
 40
0.448799
 40
0.448799
 40
0.560999
 40
0.560999
 40
0.673198
 40
0.673198
 40
0.785398
 40
0.785398
 40
0.897598
 40
0.897598
 40
1.0098
 40
1.0098
 40
1.122
 40
1.122
 40
1.2342
 40
1.2342
 40
1.3464
 40
1.3464
 40
1.4586
 40
1.4586
 40
1.5708
 40
1.5708
 40
1.5708
 10
258.274
 20
77.5907
 30
0
 10
258.414
 20
77.5907
 30
0
 10
258.554
 20
77.5907
 30
0
 10
258.832
 20
77.5907
 30
0
 10
259.1
 20
77.5907
 30
0
 10
259.229
 20
77.5907
 30
0
 10
259.359
 20
77.5907
 30
0
 10
259.481
 20
77.5907
 30
0
 10
259.604
 20
77.5907
 30
0
 10
259.718
 20
77.5907
 30
0
 10
259.833
 20
77.5907
 30
0
 10
259.937
 20
77.5907
 30
0
 10
260.042
 20
77.5907
 30
0
 10
260.135
 20
77.5907
 30
0
 10
260.229
 20
77.5907
 30
0
 10
260.31
 20
77.5907
 30
0
 10
260.391
 20
77.5907
 30
0
 10
260.459
 20
77.5907
 30
0
 10
260.526
 20
77.5907
 30
0
 10
260.58
 20
77.5907
 30
0
 10
260.634
 20
77.5907
 30
0
 10
260.673
 20
77.5907
 30
0
 10
260.711
 20
77.5907
 30
0
 10
260.735
 20
77.5907
 30
0
 10
260.758
 20
77.5907
 30
0
 10
260.766
 20
77.5907
 30
0
 10
260.774
 20
77.5907
 30
0
  0
SPLINE
  5
B96
330
A02
100
AcDbEntity
  8
View006
100
AcDbSpline
210
0
220
0
230
1
 70
8
 71
2
 72
30
 73
27
 74
0
 40
4.71239
 40
4.71239
 40
4.71239
 40
4.82459
 40
4.82459
 40
4.93679
 40
4.93679
 40
5.04899
 40
5.04899
 40
5.16119
 40
5.16119
 40
5.27339
 40
5.27339
 40
5.38559
 40
5.38559
 40
5.49779
 40
5.49779
 40
5.60999
 40
5.60999
 40
5.72219
 40
5.72219
 40
5.83439
 40
5.83439
 40
5.94659
 40
5.94659
 40
6.05879
 40
6.05879
 40
6.28319
 40
6.28319
 40
6.28319
 10
255.774
 20
77.5907
 30
0
 10
255.782
 20
77.5907
 30
0
 10
255.79
 20
77.5907
 30
0
 10
255.813
 20
77.5907
 30
0
 10
255.837
 20
77.5907
 30
0
 10
255.875
 20
77.5907
 30
0
 10
255.914
 20
77.5907
 30
0
 10
255.968
 20
77.5907
 30
0
 10
256.022
 20
77.5907
 30
0
 10
256.089
 20
77.5907
 30
0
 10
256.157
 20
77.5907
 30
0
 10
256.238
 20
77.5907
 30
0
 10
256.319
 20
77.5907
 30
0
 10
256.413
 20
77.5907
 30
0
 10
256.506
 20
77.5907
 30
0
 10
256.611
 20
77.5907
 30
0
 10
256.715
 20
77.5907
 30
0
 10
256.83
 20
77.5907
 30
0
 10
256.944
 20
77.5907
 30
0
 10
257.067
 20
77.5907
 30
0
 10
257.189
 20
77.5907
 30
0
 10
257.319
 20
77.5907
 30
0
 10
257.448
 20
77.5907
 30
0
 10
257.583
 20
77.5907
 30
0
 10
257.718
 20
77.5907
 30
0
 10
257.993
 20
77.5907
 30
0
 10
258.274
 20
77.5907
 30
0
  0
LINE
  5
B97
330
A02
100
AcDbEntity
  8
View006
100
AcDbLine
 10
198.274
 20
71.0907
 30
0
 11
251.674
 21
71.0907
 31
0
  0
SPLINE
  5
B98
330
A02
100
AcDbEntity
  8
View006
100
AcDbSpline
210
0
220
0
230
1
 70
8
 71
2
 72
30
 73
27
 74
0
 40
0
 40
0
 40
0
 40
0.1122
 40
0.1122
 40
0.224399
 40
0.224399
 40
0.336599
 40
0.336599
 40
0.448799
 40
0.448799
 40
0.560999
 40
0.560999
 40
0.673198
 40
0.673198
 40
0.785398
 40
0.785398
 40
0.897598
 40
0.897598
 40
1.0098
 40
1.0098
 40
1.122
 40
1.122
 40
1.2342
 40
1.2342
 40
1.3464
 40
1.3464
 40
1.5708
 40
1.5708
 40
1.5708
 10
251.674
 20
71.0907
 30
0
 10
251.674
 20
71.0985
 30
0
 10
251.674
 20
71.1064
 30
0
 10
251.674
 20
71.1299
 30
0
 10
251.674
 20
71.1534
 30
0
 10
251.674
 20
71.1922
 30
0
 10
251.674
 20
71.231
 30
0
 10
251.674
 20
71.2846
 30
0
 10
251.674
 20
71.3383
 30
0
 10
251.674
 20
71.4061
 30
0
 10
251.674
 20
71.4739
 30
0
 10
251.674
 20
71.555
 30
0
 10
251.674
 20
71.6361
 30
0
 10
251.674
 20
71.7295
 30
0
 10
251.674
 20
71.8229
 30
0
 10
251.674
 20
71.9274
 30
0
 10
251.674
 20
72.032
 30
0
 10
251.674
 20
72.1463
 30
0
 10
251.674
 20
72.2606
 30
0
 10
251.674
 20
72.3833
 30
0
 10
251.674
 20
72.506
 30
0
 10
251.674
 20
72.6355
 30
0
 10
251.674
 20
72.765
 30
0
 10
251.674
 20
72.8997
 30
0
 10
251.674
 20
73.0344
 30
0
 10
251.674
 20
73.3098
 30
0
 10
251.674
 20
73.5907
 30
0
  0
SPLINE
  5
B99
330
A02
100
AcDbEntity
  8
View006
100
AcDbSpline
210
0
220
0
230
1
 70
8
 71
2
 72
30
 73
27
 74
0
 40
0
 40
0
 40
0
 40
0.1122
 40
0.1122
 40
0.224399
 40
0.224399
 40
0.336599
 40
0.336599
 40
0.448799
 40
0.448799
 40
0.560999
 40
0.560999
 40
0.673198
 40
0.673198
 40
0.785398
 40
0.785398
 40
0.897598
 40
0.897598
 40
1.0098
 40
1.0098
 40
1.122
 40
1.122
 40
1.2342
 40
1.2342
 40
1.3464
 40
1.3464
 40
1.5708
 40
1.5708
 40
1.5708
 10
198.274
 20
71.0907
 30
0
 10
198.274
 20
71.0985
 30
0
 10
198.274
 20
71.1064
 30
0
 10
198.274
 20
71.1299
 30
0
 10
198.274
 20
71.1534
 30
0
 10
198.274
 20
71.1922
 30
0
 10
198.274
 20
71.231
 30
0
 10
198.274
 20
71.2846
 30
0
 10
198.274
 20
71.3383
 30
0
 10
198.274
 20
71.4061
 30
0
 10
198.274
 20
71.4739
 30
0
 10
198.274
 20
71.555
 30
0
 10
198.274
 20
71.6361
 30
0
 10
198.274
 20
71.7295
 30
0
 10
198.274
 20
71.8229
 30
0
 10
198.274
 20
71.9274
 30
0
 10
198.274
 20
72.032
 30
0
 10
198.274
 20
72.1463
 30
0
 10
198.274
 20
72.2606
 30
0
 10
198.274
 20
72.3833
 30
0
 10
198.274
 20
72.506
 30
0
 10
198.274
 20
72.6355
 30
0
 10
198.274
 20
72.765
 30
0
 10
198.274
 20
72.8997
 30
0
 10
198.274
 20
73.0344
 30
0
 10
198.274
 20
73.3098
 30
0
 10
198.274
 20
73.5907
 30
0
  0
LINE
  5
B9A
330
A02
100
AcDbEntity
  8
View006
100
AcDbLine
 10
186.274
 20
71.0907
 30
0
 11
186.274
 21
72.5907
 31
0
  0
ARC
  5
B9B
330
A02
100
AcDbEntity
  8
View006
100
AcDbCircle
 10
186.274
 20
73.5907
 30
0
 40
2.5
100
AcDbArc
 50
180
 51
-90
  0
LINE
  5
B9C
330
A02
100
AcDbEntity
  8
View006
100
AcDbLine
 10
183.774
 20
73.5907
 30
0
 11
185.274
 21
73.5907
 31
0
  0
LINE
  5
B9D
330
A02
100
AcDbEntity
  8
View006
100
AcDbLine
 10
185.274
 20
98.1907
 30
0
 11
185.274
 21
73.5907
 31
0
  0
SPLINE
  5
B9E
330
A02
100
AcDbEntity
  8
View006
100
AcDbSpline
210
0
220
0
230
1
 70
8
 71
3
 72
11
 73
7
 74
0
 40
0
 40
0
 40
0
 40
0
 40
0.785398
 40
0.785398
 40
0.785398
 40
1.5708
 40
1.5708
 40
1.5708
 40
1.5708
 10
185.274
 20
98.1907
 30
0
 10
185.274
 20
98.3219
 30
0
 10
185.274
 20
98.4512
 30
0
 10
185.274
 20
98.5442
 30
0
 10
185.274
 20
98.6367
 30
0
 10
185.274
 20
98.6902
 30
0
 10
185.274
 20
98.6907
 30
0
  0
LINE
  5
B9F
330
A02
100
AcDbEntity
  8
View006
100
AcDbLine
 10
198.274
 20
73.5907
 30
0
 11
251.674
 21
73.5907
 31
0
  0
LINE
  5
BA0
330
A02
100
AcDbEntity
  8
View006
100
AcDbLine
 10
251.674
 20
79.6907
 30
0
 11
251.674
 21
73.5907
 31
0
  0
LINE
  5
BA1
330
A02
100
AcDbEntity
  8
View006
100
AcDbLine
 10
198.274
 20
73.5907
 30
0
 11
198.274
 21
79.6907
 31
0
  0
LINE
  5
BA2
330
A02
100
AcDbEntity
  8
View006
100
AcDbLine
 10
198.274
 20
79.6907
 30
0
 11
251.674
 21
79.6907
 31
0
  0
CIRCLE
  5
BA3
330
A02
100
AcDbEntity
  8
View006
100
AcDbCircle
 10
207.874
 20
76.6907
 40
1.25
  0
CIRCLE
  5
BA4
330
A02
100
AcDbEntity
  8
View006
100
AcDbCircle
 10
244.674
 20
76.6907
 40
1.25
  0
LINE
  5
BA5
330
A02
100
AcDbEntity
  8
View006
100
AcDbLine
 10
183.774
 20
98.1907
 30
0
 11
183.774
 21
73.5907
 31
0
  0
LINE
  5
BA6
330
A02
100
AcDbEntity
  8
View006
100
AcDbLine
 10
185.274
 20
98.6907
 30
0
 11
183.774
 21
98.6907
 31
0
  0
SPLINE
  5
BA7
330
A02
100
AcDbEntity
  8
View006
100
AcDbSpline
210
0
220
0
230
1
 70
8
 71
3
 72
11
 73
7
 74
0
 40
0
 40
0
 40
0
 40
0
 40
0.785398
 40
0.785398
 40
0.785398
 40
1.5708
 40
1.5708
 40
1.5708
 40
1.5708
 10
183.774
 20
98.1907
 30
0
 10
183.774
 20
98.3219
 30
0
 10
183.774
 20
98.4512
 30
0
 10
183.774
 20
98.5442
 30
0
 10
183.774
 20
98.6367
 30
0
 10
183.774
 20
98.6902
 30
0
 10
183.774
 20
98.6907
 30
0
  0
LINE
  5
BA8
330
A02
100
AcDbEntity
  8
View006
100
AcDbLine
 10
190.774
 20
77.5907
 30
0
 11
190.774
 21
72.5907
 31
0
  0
LINE
  5
BA9
330
A02
100
AcDbEntity
  8
View006
100
AcDbLine
 10
195.774
 20
77.5907
 30
0
 11
195.774
 21
72.5907
 31
0
  0
LINE
  5
BAA
330
A02
100
AcDbEntity
  8
View006
100
AcDbLine
 10
255.774
 20
77.5907
 30
0
 11
255.774
 21
72.5907
 31
0
  0
LINE
  5
BAB
330
A02
100
AcDbEntity
  8
View006
100
AcDbLine
 10
260.774
 20
77.5907
 30
0
 11
260.774
 21
72.5907
 31
0
  0
LINE
  5
BAC
330
A02
100
AcDbEntity
  8
View006
100
AcDbLine
 10
264.674
 20
98.1907
 30
0
 11
266.174
 21
98.1907
 31
0
  0
LINE
  5
BAD
330
A02
100
AcDbEntity
  8
View006
100
AcDbLine
 10
185.274
 20
98.1907
 30
0
 11
183.774
 21
98.1907
 31
0
  0
LINE
  5
BAE
330
A02
100
AcDbEntity
  8
View006
100
AcDbLine
 10
193.274
 20
72.5907
 30
0
 11
193.274
 21
77.5907
 31
0
  0
LINE
  5
BAF
330
A02
100
AcDbEntity
  8
View006
100
AcDbLine
 10
258.274
 20
72.5907
 30
0
 11
258.274
 21
77.5907
 31
0
  0
LINE
  5
BB0
330
A02
100
AcDbEntity
  8
View007
100
AcDbLine
 10
185.274
 20
50.3294
 30
0
 11
185.274
 21
25.7294
 31
0
  0
SPLINE
  5
BB1
330
A02
100
AcDbEntity
  8
View007
100
AcDbSpline
210
0
220
0
230
1
 70
8
 71
3
 72
11
 73
7
 74
0
 40
0
 40
0
 40
0
 40
0
 40
0.785398
 40
0.785398
 40
0.785398
 40
1.5708
 40
1.5708
 40
1.5708
 40
1.5708
 10
185.274
 20
50.3294
 30
0
 10
185.274
 20
50.4606
 30
0
 10
185.274
 20
50.5899
 30
0
 10
185.274
 20
50.683
 30
0
 10
185.274
 20
50.7754
 30
0
 10
185.274
 20
50.829
 30
0
 10
185.274
 20
50.8294
 30
0
  0
LINE
  5
BB2
330
A02
100
AcDbEntity
  8
View007
100
AcDbLine
 10
183.774
 20
25.7294
 30
0
 11
185.274
 21
25.7294
 31
0
  0
LINE
  5
BB3
330
A02
100
AcDbEntity
  8
View007
100
AcDbLine
 10
183.774
 20
50.3294
 30
0
 11
183.774
 21
25.7294
 31
0
  0
LINE
  5
BB4
330
A02
100
AcDbEntity
  8
View007
100
AcDbLine
 10
185.274
 20
50.8294
 30
0
 11
183.774
 21
50.8294
 31
0
  0
SPLINE
  5
BB5
330
A02
100
AcDbEntity
  8
View007
100
AcDbSpline
210
0
220
0
230
1
 70
8
 71
3
 72
11
 73
7
 74
0
 40
0
 40
0
 40
0
 40
0
 40
0.785398
 40
0.785398
 40
0.785398
 40
1.5708
 40
1.5708
 40
1.5708
 40
1.5708
 10
183.774
 20
50.3294
 30
0
 10
183.774
 20
50.4606
 30
0
 10
183.774
 20
50.5899
 30
0
 10
183.774
 20
50.683
 30
0
 10
183.774
 20
50.7754
 30
0
 10
183.774
 20
50.829
 30
0
 10
183.774
 20
50.8294
 30
0
  0
ARC
  5
BB6
330
A02
100
AcDbEntity
  8
View007
100
AcDbCircle
 10
186.274
 20
25.7294
 30
0
 40
1
100
AcDbArc
 50
180
 51
-90
  0
ARC
  5
BB7
330
A02
100
AcDbEntity
  8
View007
100
AcDbCircle
 10
186.274
 20
25.7294
 30
0
 40
2.5
100
AcDbArc
 50
180
 51
-90
  0
LINE
  5
BB8
330
A02
100
AcDbEntity
  8
View007
100
AcDbLine
 10
186.274
 20
23.2294
 30
0
 11
186.274
 21
24.7294
 31
0
  0
LINE
  5
BB9
330
A02
100
AcDbEntity
  8
View007
100
AcDbLine
 10
197.474
 20
24.7294
 30
0
 11
186.274
 21
24.7294
 31
0
  0
LINE
  5
BBA
330
A02
100
AcDbEntity
  8
View007
100
AcDbLine
 10
198.274
 20
24.7294
 30
0
 11
197.474
 21
24.7294
 31
0
  0
LINE
  5
BBB
330
A02
100
AcDbEntity
  8
View007
100
AcDbLine
 10
252.474
 20
24.7294
 30
0
 11
251.674
 21
24.7294
 31
0
  0
LINE
  5
BBC
330
A02
100
AcDbEntity
  8
View007
100
AcDbLine
 10
263.674
 20
24.7294
 30
0
 11
252.474
 21
24.7294
 31
0
  0
LINE
  5
BBD
330
A02
100
AcDbEntity
  8
View007
100
AcDbLine
 10
197.474
 20
24.7294
 30
0
 11
197.474
 21
23.2294
 31
0
  0
LINE
  5
BBE
330
A02
100
AcDbEntity
  8
View007
100
AcDbLine
 10
186.274
 20
23.2294
 30
0
 11
197.474
 21
23.2294
 31
0
  0
LINE
  5
BBF
330
A02
100
AcDbEntity
  8
View007
100
AcDbLine
 10
198.274
 20
23.2294
 30
0
 11
197.474
 21
23.2294
 31
0
  0
LINE
  5
BC0
330
A02
100
AcDbEntity
  8
View007
100
AcDbLine
 10
252.474
 20
23.2294
 30
0
 11
251.674
 21
23.2294
 31
0
  0
LINE
  5
BC1
330
A02
100
AcDbEntity
  8
View007
100
AcDbLine
 10
252.474
 20
24.7294
 30
0
 11
252.474
 21
23.2294
 31
0
  0
LINE
  5
BC2
330
A02
100
AcDbEntity
  8
View007
100
AcDbLine
 10
252.474
 20
23.2294
 30
0
 11
263.674
 21
23.2294
 31
0
  0
ARC
  5
BC3
330
A02
100
AcDbEntity
  8
View007
100
AcDbCircle
 10
263.674
 20
25.7294
 30
0
 40
1
100
AcDbArc
 50
-90
 51
0
  0
SPLINE
  5
BC4
330
A02
100
AcDbEntity
  8
View007
100
AcDbSpline
210
0
220
0
230
1
 70
8
 71
1
 72
17
 73
15
 74
0
 40
1.5708
 40
1.5708
 40
1.7952
 40
2.0196
 40
2.24399
 40
2.46839
 40
2.69279
 40
2.91719
 40
3.14159
 40
3.36599
 40
3.59039
 40
3.81479
 40
4.03919
 40
4.26359
 40
4.48799
 40
4.71239
 40
4.71239
 10
254.174
 20
29.7294
 30
0
 10
254.237
 20
29.7294
 30
0
 10
254.422
 20
29.7294
 30
0
 10
254.719
 20
29.7294
 30
0
 10
255.115
 20
29.7294
 30
0
 10
255.589
 20
29.7294
 30
0
 10
256.118
 20
29.7294
 30
0
 10
256.674
 20
29.7294
 30
0
 10
257.23
 20
29.7294
 30
0
 10
257.759
 20
29.7294
 30
0
 10
258.233
 20
29.7294
 30
0
 10
258.629
 20
29.7294
 30
0
 10
258.926
 20
29.7294
 30
0
 10
259.111
 20
29.7294
 30
0
 10
259.174
 20
29.7294
 30
0
  0
SPLINE
  5
BC5
330
A02
100
AcDbEntity
  8
View007
100
AcDbSpline
210
0
220
0
230
1
 70
8
 71
1
 72
17
 73
15
 74
0
 40
1.5708
 40
1.5708
 40
1.7952
 40
2.0196
 40
2.24399
 40
2.46839
 40
2.69279
 40
2.91719
 40
3.14159
 40
3.36599
 40
3.59039
 40
3.81479
 40
4.03919
 40
4.26359
 40
4.48799
 40
4.71239
 40
4.71239
 10
189.174
 20
29.7294
 30
0
 10
189.237
 20
29.7294
 30
0
 10
189.422
 20
29.7294
 30
0
 10
189.719
 20
29.7294
 30
0
 10
190.115
 20
29.7294
 30
0
 10
190.589
 20
29.7294
 30
0
 10
191.118
 20
29.7294
 30
0
 10
191.674
 20
29.7294
 30
0
 10
192.23
 20
29.7294
 30
0
 10
192.759
 20
29.7294
 30
0
 10
193.233
 20
29.7294
 30
0
 10
193.629
 20
29.7294
 30
0
 10
193.926
 20
29.7294
 30
0
 10
194.111
 20
29.7294
 30
0
 10
194.174
 20
29.7294
 30
0
  0
LINE
  5
BC6
330
A02
100
AcDbEntity
  8
View007
100
AcDbLine
 10
198.274
 20
23.2294
 30
0
 11
251.674
 21
23.2294
 31
0
  0
SPLINE
  5
BC7
330
A02
100
AcDbEntity
  8
View007
100
AcDbSpline
210
0
220
0
230
1
 70
8
 71
2
 72
30
 73
27
 74
0
 40
0
 40
0
 40
0
 40
0.1122
 40
0.1122
 40
0.224399
 40
0.224399
 40
0.336599
 40
0.336599
 40
0.448799
 40
0.448799
 40
0.560999
 40
0.560999
 40
0.673198
 40
0.673198
 40
0.785398
 40
0.785398
 40
0.897598
 40
0.897598
 40
1.0098
 40
1.0098
 40
1.122
 40
1.122
 40
1.2342
 40
1.2342
 40
1.3464
 40
1.3464
 40
1.5708
 40
1.5708
 40
1.5708
 10
198.274
 20
23.2294
 30
0
 10
198.274
 20
23.2373
 30
0
 10
198.274
 20
23.2451
 30
0
 10
198.274
 20
23.2686
 30
0
 10
198.274
 20
23.2921
 30
0
 10
198.274
 20
23.3309
 30
0
 10
198.274
 20
23.3697
 30
0
 10
198.274
 20
23.4233
 30
0
 10
198.274
 20
23.477
 30
0
 10
198.274
 20
23.5448
 30
0
 10
198.274
 20
23.6126
 30
0
 10
198.274
 20
23.6937
 30
0
 10
198.274
 20
23.7748
 30
0
 10
198.274
 20
23.8682
 30
0
 10
198.274
 20
23.9616
 30
0
 10
198.274
 20
24.0662
 30
0
 10
198.274
 20
24.1707
 30
0
 10
198.274
 20
24.285
 30
0
 10
198.274
 20
24.3993
 30
0
 10
198.274
 20
24.522
 30
0
 10
198.274
 20
24.6447
 30
0
 10
198.274
 20
24.7742
 30
0
 10
198.274
 20
24.9037
 30
0
 10
198.274
 20
25.0384
 30
0
 10
198.274
 20
25.1731
 30
0
 10
198.274
 20
25.4485
 30
0
 10
198.274
 20
25.7294
 30
0
  0
SPLINE
  5
BC8
330
A02
100
AcDbEntity
  8
View007
100
AcDbSpline
210
0
220
0
230
1
 70
8
 71
2
 72
30
 73
27
 74
0
 40
0
 40
0
 40
0
 40
0.1122
 40
0.1122
 40
0.224399
 40
0.224399
 40
0.336599
 40
0.336599
 40
0.448799
 40
0.448799
 40
0.560999
 40
0.560999
 40
0.673198
 40
0.673198
 40
0.785398
 40
0.785398
 40
0.897598
 40
0.897598
 40
1.0098
 40
1.0098
 40
1.122
 40
1.122
 40
1.2342
 40
1.2342
 40
1.3464
 40
1.3464
 40
1.5708
 40
1.5708
 40
1.5708
 10
251.674
 20
23.2294
 30
0
 10
251.674
 20
23.2373
 30
0
 10
251.674
 20
23.2451
 30
0
 10
251.674
 20
23.2686
 30
0
 10
251.674
 20
23.2921
 30
0
 10
251.674
 20
23.3309
 30
0
 10
251.674
 20
23.3697
 30
0
 10
251.674
 20
23.4233
 30
0
 10
251.674
 20
23.477
 30
0
 10
251.674
 20
23.5448
 30
0
 10
251.674
 20
23.6126
 30
0
 10
251.674
 20
23.6937
 30
0
 10
251.674
 20
23.7748
 30
0
 10
251.674
 20
23.8682
 30
0
 10
251.674
 20
23.9616
 30
0
 10
251.674
 20
24.0662
 30
0
 10
251.674
 20
24.1707
 30
0
 10
251.674
 20
24.285
 30
0
 10
251.674
 20
24.3993
 30
0
 10
251.674
 20
24.522
 30
0
 10
251.674
 20
24.6447
 30
0
 10
251.674
 20
24.7742
 30
0
 10
251.674
 20
24.9037
 30
0
 10
251.674
 20
25.0384
 30
0
 10
251.674
 20
25.1731
 30
0
 10
251.674
 20
25.4485
 30
0
 10
251.674
 20
25.7294
 30
0
  0
LINE
  5
BC9
330
A02
100
AcDbEntity
  8
View007
100
AcDbLine
 10
263.674
 20
24.7294
 30
0
 11
263.674
 21
23.2294
 31
0
  0
ARC
  5
BCA
330
A02
100
AcDbEntity
  8
View007
100
AcDbCircle
 10
263.674
 20
25.7294
 30
0
 40
2.5
100
AcDbArc
 50
-90
 51
0
  0
LINE
  5
BCB
330
A02
100
AcDbEntity
  8
View007
100
AcDbLine
 10
264.674
 20
25.7294
 30
0
 11
266.174
 21
25.7294
 31
0
  0
LINE
  5
BCC
330
A02
100
AcDbEntity
  8
View007
100
AcDbLine
 10
264.674
 20
25.7294
 30
0
 11
264.674
 21
50.3294
 31
0
  0
SPLINE
  5
BCD
330
A02
100
AcDbEntity
  8
View007
100
AcDbSpline
210
0
220
0
230
1
 70
8
 71
3
 72
11
 73
7
 74
0
 40
3.14159
 40
3.14159
 40
3.14159
 40
3.14159
 40
3.92699
 40
3.92699
 40
3.92699
 40
4.71239
 40
4.71239
 40
4.71239
 40
4.71239
 10
264.674
 20
50.3294
 30
0
 10
264.674
 20
50.4606
 30
0
 10
264.674
 20
50.5899
 30
0
 10
264.674
 20
50.683
 30
0
 10
264.674
 20
50.7754
 30
0
 10
264.674
 20
50.829
 30
0
 10
264.674
 20
50.8294
 30
0
  0
LINE
  5
BCE
330
A02
100
AcDbEntity
  8
View007
100
AcDbLine
 10
198.274
 20
25.7294
 30
0
 11
251.674
 21
25.7294
 31
0
  0
LINE
  5
BCF
330
A02
100
AcDbEntity
  8
View007
100
AcDbLine
 10
198.274
 20
25.7294
 30
0
 11
198.274
 21
31.8294
 31
0
  0
LINE
  5
BD0
330
A02
100
AcDbEntity
  8
View007
100
AcDbLine
 10
251.674
 20
31.8294
 30
0
 11
251.674
 21
25.7294
 31
0
  0
LINE
  5
BD1
330
A02
100
AcDbEntity
  8
View007
100
AcDbLine
 10
198.274
 20
31.8294
 30
0
 11
251.674
 21
31.8294
 31
0
  0
CIRCLE
  5
BD2
330
A02
100
AcDbEntity
  8
View007
100
AcDbCircle
 10
242.074
 20
28.8294
 40
1.25
  0
CIRCLE
  5
BD3
330
A02
100
AcDbEntity
  8
View007
100
AcDbCircle
 10
205.274
 20
28.8294
 40
1.25
  0
LINE
  5
BD4
330
A02
100
AcDbEntity
  8
View007
100
AcDbLine
 10
266.174
 20
25.7294
 30
0
 11
266.174
 21
50.3294
 31
0
  0
LINE
  5
BD5
330
A02
100
AcDbEntity
  8
View007
100
AcDbLine
 10
264.674
 20
50.8294
 30
0
 11
266.174
 21
50.8294
 31
0
  0
SPLINE
  5
BD6
330
A02
100
AcDbEntity
  8
View007
100
AcDbSpline
210
0
220
0
230
1
 70
8
 71
3
 72
11
 73
7
 74
0
 40
3.14159
 40
3.14159
 40
3.14159
 40
3.14159
 40
3.92699
 40
3.92699
 40
3.92699
 40
4.71239
 40
4.71239
 40
4.71239
 40
4.71239
 10
266.174
 20
50.3294
 30
0
 10
266.174
 20
50.4606
 30
0
 10
266.174
 20
50.5899
 30
0
 10
266.174
 20
50.683
 30
0
 10
266.174
 20
50.7754
 30
0
 10
266.174
 20
50.829
 30
0
 10
266.174
 20
50.8294
 30
0
  0
LINE
  5
BD7
330
A02
100
AcDbEntity
  8
View007
100
AcDbLine
 10
254.174
 20
29.7294
 30
0
 11
254.174
 21
24.7294
 31
0
  0
LINE
  5
BD8
330
A02
100
AcDbEntity
  8
View007
100
AcDbLine
 10
259.174
 20
29.7294
 30
0
 11
259.174
 21
24.7294
 31
0
  0
LINE
  5
BD9
330
A02
100
AcDbEntity
  8
View007
100
AcDbLine
 10
189.174
 20
29.7294
 30
0
 11
189.174
 21
24.7294
 31
0
  0
LINE
  5
BDA
330
A02
100
AcDbEntity
  8
View007
100
AcDbLine
 10
194.174
 20
29.7294
 30
0
 11
194.174
 21
24.7294
 31
0
  0
LINE
  5
BDB
330
A02
100
AcDbEntity
  8
View007
100
AcDbLine
 10
185.274
 20
50.3294
 30
0
 11
183.774
 21
50.3294
 31
0
  0
LINE
  5
BDC
330
A02
100
AcDbEntity
  8
View007
100
AcDbLine
 10
264.674
 20
50.3294
 30
0
 11
266.174
 21
50.3294
 31
0
  0
ENDSEC
  0
SECTION
  2
OBJECTS
  0
DICTIONARY
  5
F000
330
0
100
AcDbDictionary
  3
ACAD_GROUP
350
F001
  0
DICTIONARY
  5
F001
330
F000
100
AcDbDictionary
  0
ENDSEC
  0
EOF