999
FreeCAD v0.21 33110 (Git)
  0
SECTION
  2
HEADER
  9
$ACADVER
  1
AC1014
  9
$ACADMAINTVER
 70
     9
  9
$DWGCODEPAGE
  3
ANSI_1252
  9
$TEXTSTYLE
  7
STANDARD
  9
$DIMSTYLE
  2
STANDARD
  9
$DIMTXSTY
  7
STANDARD
  9
$CMLSTYLE
  2
STANDARD
  9
$LUNITS
 70
2
  9
$INSUNITS
 70
4
  9
$PEXTMAX
 10
50
 20
50
 30
50
  9
$PEXTMIN
 10
0
 20
0
 30
0
  9
$HANDSEED
  5
FFFF
  0
ENDSEC
  0
SECTION
  2
CLASSES
  0
CLASS
  1
ACDBDICTIONARYWDFLT
  2
AcDbDictionaryWithDefault
  3
ObjectDBX Classes
 90
        0
280
     0
281
     0
  0
CLASS
  1
XRECORD
  2
AcDbXrecord
  3
ObjectDBX Classes
 90
        0
280
     0
281
     0
  0
CLASS
  1
LWPOLYLINE
  2
AcDbPolyline
  3
ObjectDBX Classes
 90
        0
280
     0
281
     1
  0
ENDSEC
  0
SECTION
  2
TABLES
  0
TABLE
  2
VPORT
  5
20
330
0
100
AcDbSymbolTable
 70
     1
  0
VPORT
  5
21
330
20
100
AcDbSymbolTableRecord
100
AcDbViewportTableRecord
  2
*ACTIVE
 70
     0
  0
ENDTAB
  0
TABLE
  2
LTYPE
  5
22
330
0
100
AcDbSymbolTable
 70
     1
  0
LTYPE
  5
23
330
21
100
AcDbSymbolTableRecord
100
AcDbLinetypeTableRecord
  2
BYBLOCK
 70
     0
  3

 72
    65
 73
     0
 40
0.0
  0
LTYPE
  5
24
330
21
100
AcDbSymbolTableRecord
100
AcDbLinetypeTableRecord
  2
BYLAYER
 70
     0
  3

 72
    65
 73
     0
 40
0.0
  0
LTYPE
  5
25
330
21
100
AcDbSymbolTableRecord
100
AcDbLinetypeTableRecord
  2
CONTINUOUS
 70
     0
  3
Solid line
 72
    65
 73
     0
 40
0.0
  0
ENDTAB
  0
TABLE
  2
LAYER
  5
B80
330
0
100
AcDbSymbolTable
 70
7
  0
LAYER
  5
B81
330
B80
100
AcDbSymbolTableRecord
100
AcDbLayerTableRecord
  2
0
 70
   0
 62
   7
  6
CONTINUOUS
  0
LAYER
  5
B82
330
B80
100
AcDbSymbolTableRecord
100
AcDbLayerTableRecord
  2
View015
 70
    0
 62
    7
  6
CONTINUOUS
  0
LAYER
  5
B83
330
B80
100
AcDbSymbolTableRecord
100
AcDbLayerTableRecord
  2
View016
 70
    0
 62
    7
  6
CONTINUOUS
  0
LAYER
  5
B84
330
B80
100
AcDbSymbolTableRecord
100
AcDbLayerTableRecord
  2
Dimension
 70
    0
 62
    7
  6
CONTINUOUS
  0
LAYER
  5
B85
330
B80
100
AcDbSymbolTableRecord
100
AcDbLayerTableRecord
  2
Dimension001
 70
    0
 62
    7
  6
CONTINUOUS
  0
LAYER
  5
B86
330
B80
100
AcDbSymbolTableRecord
100
AcDbLayerTableRecord
  2
Dimension002
 70
    0
 62
    7
  6
CONTINUOUS
  0
LAYER
  5
B87
330
B80
100
AcDbSymbolTableRecord
100
AcDbLayerTableRecord
  2
Dimension003
 70
    0
 62
    7
  6
CONTINUOUS
  0
ENDTAB
  0
TABLE
  2
STYLE
  5
70
330
0
100
AcDbSymbolTable
 70
     2
  0
STYLE
  5
71
330
70
100
AcDbSymbolTableRecord
100
AcDbTextStyleTableRecord
  2
STANDARD
 70
     0
 40
0.0
 41
1.0
 50
0.0
 71
     0
 42
2.5
  3
arial.ttf
  4

  0
STYLE
  5
72
330
70
100
AcDbSymbolTableRecord
100
AcDbTextStyleTableRecord
  2
ANNOTATIVE
 70
     0
 40
0.0
 41
1.0
 50
0.0
 71
     0
 42
2.5
  3
arial.ttf
  4

  0
ENDTAB
  0
TABLE
  2
VIEW
  5
73
330
0
100
AcDbSymbolTable
 70
     0
  0
ENDTAB
  0
TABLE
  2
UCS
  5
74
330
0
100
AcDbSymbolTable
 70
     0
  0
ENDTAB
  0
TABLE
  2
APPID
  5
75
330
0
100
AcDbSymbolTable
 70
     2
  0
APPID
  5
76
330
75
100
AcDbSymbolTableRecord
100
AcDbRegAppTableRecord
  2
ACAD
 70
     0
  0
APPID
  5
77
330
75
100
AcDbSymbolTableRecord
100
AcDbRegAppTableRecord
  2
ACADANNOTATIVE
 70
     0
  0
ENDTAB
  0
TABLE
  2
DIMSTYLE
  5
78
330
0
100
AcDbSymbolTable
 70
     2
  0
DIMSTYLE
105
79
330
78
100
AcDbSymbolTableRecord
100
AcDbDimStyleTableRecord
  2
STANDARD
 70
     0
  3

  4

  5

  6

  7

 40
0.0
 41
2.5
 42
0.625
 43
3.75
 44
1.25
 45
0.0
 46
0.0
 47
0.0
 48
0.0
140
2.5
141
2.5
142
0.0
143
0.03937007874016
144
1.0
145
0.0
146
1.0
147
0.625
 71
     0
 72
     0
 73
     0
 74
     0
 75
     0
 76
     0
 77
     1
 78
     8
170
     0
171
     3
172
     1
173
     0
174
     0
175
     0
176
     0
177
     0
178
     0
270
     2
271
     2
272
     2
273
     2
274
     3
340
71
275
     0
280
     0
281
     0
282
     0
283
     0
284
     8
285
     0
286
     0
287
     3
288
     0
  0
ENDTAB
  0
TABLE
  2
BLOCK_RECORD
  5
A01
330
0
100
AcDbSymbolTable
  70
5
  0
BLOCK_RECORD
  5
A02
330
A01
100
AcDbSymbolTableRecord
100
AcDbBlockTableRecord
  2
*MODEL_SPACE
  0
BLOCK_RECORD
  5
A03
330
A01
100
AcDbSymbolTableRecord
100
AcDbBlockTableRecord
  2
*PAPER_SPACE
  0
BLOCK_RECORD
  5
B59
330
A01
100
AcDbSymbolTableRecord
100
AcDbBlockTableRecord
  2
*Dimension
  0
BLOCK_RECORD
  5
B63
330
A01
100
AcDbSymbolTableRecord
100
AcDbBlockTableRecord
  2
*Dimension001
  0
BLOCK_RECORD
  5
B6D
330
A01
100
AcDbSymbolTableRecord
100
AcDbBlockTableRecord
  2
*Dimension002
  0
BLOCK_RECORD
  5
B77
330
A01
100
AcDbSymbolTableRecord
100
AcDbBlockTableRecord
  2
*Dimension003
  0
ENDTAB
  0
ENDSEC
  0
SECTION
  2
BLOCKS
  0
BLOCK
  5
A04
330
A02
100
AcDbEntity
  8
0
100
AcDbBlockBegin
  2
*MODEL_SPACE
 70
   0
 10
0
 20
0
 30
0
  3
*MODEL_SPACE
  1
 
  0
ENDBLK
  5
A05
330
A02
100
AcDbEntity
  8
0
100
AcDbBlockEnd
  0
BLOCK
  5
A06
330
A03
100
AcDbEntity
 67
1
  8
0
100
AcDbBlockBegin
  2
*PAPER_SPACE
 70
   0
 10
0
 20
0
 30
0
  3
*PAPER_SPACE
  1
 
  0
ENDBLK
  5
A07
330
A03
100
AcDbEntity
 67
    1
  8
0
100
AcDbBlockEnd
  0
BLOCK
  5
B5A
330
B59
100
AcDbEntity
  8
Dimension
100
AcDbBlockBegin
  2
*Dimension
 70
   1
 10
0
 20
0
 30
0
  3
*Dimension
  1
 
  0
LINE
  5
B5B
330
B59
100
AcDbEntity
  8
Dimension
100
AcDbLine
 10
68.4573
 20
93.4367
 30
0
 11
68.4573
 21
78.7551
 31
0
  0
LINE
  5
B5C
330
B59
100
AcDbEntity
  8
Dimension
100
AcDbLine
 10
46.9573
 20
89.0867
 30
0
 11
46.9573
 21
78.7551
 31
0
  0
LINE
  5
B5D
330
B59
100
AcDbEntity
  8
Dimension
100
AcDbLine
 10
46.9573
 20
78.7551
 30
0
 11
68.4573
 21
78.7551
 31
0
  0
TEXT
  5
B5E
330
B59
100
AcDbEntity
  8
Dimension
100
AcDbText
 10
57.202
 20
83.6558
 30
0
 40
3.5
  1
21.5
  7
STANDARD
 72
1
 11
56.2105
 21
78.7551
 31
0
100
AcDbText
  0
SOLID
  5
B5F
330
B59
100
AcDbEntity
  8
0
 62
     0
100
AcDbTrace
 10
41.9573
 20
78.3385
 30
0
 11
41.9573
 21
79.1718
 31
0
 12
46.9573
 22
78.7551
 32
0
 13
46.9573
 23
78.7551
 33
0
  0
SOLID
  5
B60
330
B59
100
AcDbEntity
  8
0
 62
     0
100
AcDbTrace
 10
73.4573
 20
78.3385
 30
0
 11
73.4573
 21
79.1718
 31
0
 12
68.4573
 22
78.7551
 32
0
 13
68.4573
 23
78.7551
 33
0
  0
ENDBLK
  5
B61
330
B59
100
AcDbEntity
  8
Dimension
100
AcDbBlockEnd
  0
BLOCK
  5
B64
330
B63
100
AcDbEntity
  8
Dimension001
100
AcDbBlockBegin
  2
*Dimension001
 70
   1
 10
0
 20
0
 30
0
  3
*Dimension001
  1
 
  0
LINE
  5
B65
330
B63
100
AcDbEntity
  8
Dimension001
100
AcDbLine
 10
129.357
 20
89.0866
 30
0
 11
129.357
 21
78.561
 31
0
  0
LINE
  5
B66
330
B63
100
AcDbEntity
  8
Dimension001
100
AcDbLine
 10
105.257
 20
93.4366
 30
0
 11
105.257
 21
78.561
 31
0
  0
LINE
  5
B67
330
B63
100
AcDbEntity
  8
Dimension001
100
AcDbLine
 10
105.257
 20
78.561
 30
0
 11
129.357
 21
78.561
 31
0
  0
TEXT
  5
B68
330
B63
100
AcDbEntity
  8
Dimension001
100
AcDbText
 10
118.87
 20
83.4815
 30
0
 40
3.5
  1
24.1
  7
STANDARD
 72
1
 11
119.758
 21
78.561
 31
0
100
AcDbText
  0
SOLID
  5
B69
330
B63
100
AcDbEntity
  8
0
 62
     0
100
AcDbTrace
 10
100.257
 20
78.1443
 30
0
 11
100.257
 21
78.9776
 31
0
 12
105.257
 22
78.561
 32
0
 13
105.257
 23
78.561
 33
0
  0
SOLID
  5
B6A
330
B63
100
AcDbEntity
  8
0
 62
     0
100
AcDbTrace
 10
134.357
 20
78.1443
 30
0
 11
134.357
 21
78.9776
 31
0
 12
129.357
 22
78.561
 32
0
 13
129.357
 23
78.561
 33
0
  0
ENDBLK
  5
B6B
330
B63
100
AcDbEntity
  8
Dimension001
100
AcDbBlockEnd
  0
BLOCK
  5
B6E
330
B6D
100
AcDbEntity
  8
Dimension002
100
AcDbBlockBegin
  2
*Dimension002
 70
   1
 10
0
 20
0
 30
0
  3
*Dimension002
  1
 
  0
LINE
  5
B6F
330
B6D
100
AcDbEntity
  8
Dimension002
100
AcDbLine
 10
159.523
 20
90.1938
 30
0
 11
159.523
 21
87.9128
 31
0
  0
LINE
  5
B70
330
B6D
100
AcDbEntity
  8
Dimension002
100
AcDbLine
 10
183.623
 20
92.0438
 30
0
 11
183.623
 21
87.9128
 31
0
  0
LINE
  5
B71
330
B6D
100
AcDbEntity
  8
Dimension002
100
AcDbLine
 10
183.623
 20
87.9128
 30
0
 11
159.523
 21
87.9128
 31
0
  0
TEXT
  5
B72
330
B6D
100
AcDbEntity
  8
Dimension002
100
AcDbText
 10
171.409
 20
82.9274
 30
0
 40
3.5
  1
24.1
  7
STANDARD
 72
1
 11
171.791
 21
87.9128
 31
0
100
AcDbText
  0
SOLID
  5
B73
330
B6D
100
AcDbEntity
  8
0
 62
     0
100
AcDbTrace
 10
188.623
 20
87.4961
 30
0
 11
188.623
 21
88.3294
 31
0
 12
183.623
 22
87.9128
 32
0
 13
183.623
 23
87.9128
 33
0
  0
SOLID
  5
B74
330
B6D
100
AcDbEntity
  8
0
 62
     0
100
AcDbTrace
 10
154.523
 20
87.4961
 30
0
 11
154.523
 21
88.3294
 31
0
 12
159.523
 22
87.9128
 32
0
 13
159.523
 23
87.9128
 33
0
  0
ENDBLK
  5
B75
330
B6D
100
AcDbEntity
  8
Dimension002
100
AcDbBlockEnd
  0
BLOCK
  5
B78
330
B77
100
AcDbEntity
  8
Dimension003
100
AcDbBlockBegin
  2
*Dimension003
 70
   1
 10
0
 20
0
 30
0
  3
*Dimension003
  1
 
  0
LINE
  5
B79
330
B77
100
AcDbEntity
  8
Dimension003
100
AcDbLine
 10
241.923
 20
90.1938
 30
0
 11
241.923
 21
79.1795
 31
0
  0
LINE
  5
B7A
330
B77
100
AcDbEntity
  8
Dimension003
100
AcDbLine
 10
220.423
 20
92.0438
 30
0
 11
220.423
 21
79.1795
 31
0
  0
LINE
  5
B7B
330
B77
100
AcDbEntity
  8
Dimension003
100
AcDbLine
 10
220.423
 20
79.1795
 30
0
 11
241.923
 21
79.1795
 31
0
  0
TEXT
  5
B7C
330
B77
100
AcDbEntity
  8
Dimension003
100
AcDbText
 10
230.844
 20
84.1611
 30
0
 40
3.5
  1
21.5
  7
STANDARD
 72
1
 11
231.273
 21
79.1795
 31
0
100
AcDbText
  0
SOLID
  5
B7D
330
B77
100
AcDbEntity
  8
0
 62
     0
100
AcDbTrace
 10
215.423
 20
78.7628
 30
0
 11
215.423
 21
79.5961
 31
0
 12
220.423
 22
79.1795
 32
0
 13
220.423
 23
79.1795
 33
0
  0
SOLID
  5
B7E
330
B77
100
AcDbEntity
  8
0
 62
     0
100
AcDbTrace
 10
246.923
 20
78.7628
 30
0
 11
246.923
 21
79.5961
 31
0
 12
241.923
 22
79.1795
 32
0
 13
241.923
 23
79.1795
 33
0
  0
ENDBLK
  5
B7F
330
B77
100
AcDbEntity
  8
Dimension003
100
AcDbBlockEnd
  0
ENDSEC
  0
SECTION
  2
ENTITIES
  0
ELLIPSE
  5
A08
330
A02
100
AcDbEntity
  8
View015
100
AcDbEllipse
 10
240.423
 20
114.794
 30
0
 11
-1.07194e-14
 21
-0.5
 31
0
 40
5.9605e-08
 41
3.1292
 42
3.14159
  0
LINE
  5
A09
330
A02
100
AcDbEntity
  8
View015
100
AcDbLine
 10
240.423
 20
90.1938
 30
0
 11
240.423
 21
114.794
 31
0
  0
ELLIPSE
  5
A0A
330
A02
100
AcDbEntity
  8
View015
100
AcDbEllipse
 10
240.423
 20
114.794
 30
0
 11
1.07132e-14
 21
0.5
 31
0
 40
5.9605e-08
 41
-6.28318
 42
-4.71239
  0
LINE
  5
A0B
330
A02
100
AcDbEntity
  8
View015
100
AcDbLine
 10
240.423
 20
115.294
 30
0
 11
241.923
 21
115.294
 31
0
  0
ELLIPSE
  5
A0C
330
A02
100
AcDbEntity
  8
View015
100
AcDbEllipse
 10
241.923
 20
114.794
 30
0
 11
-1.07194e-14
 21
-0.5
 31
0
 40
5.9605e-08
 41
1.5708
 42
3.14159
  0
ELLIPSE
  5
A0D
330
A02
100
AcDbEntity
  8
View015
100
AcDbEllipse
 10
239.423
 20
90.1938
 30
0
 11
-0.986394
 21
0.1644
 31
0
 40
1
 41
1.73595
 42
3.30674
  0
LINE
  5
A0E
330
A02
100
AcDbEntity
  8
View015
100
AcDbLine
 10
240.423
 20
90.1938
 30
0
 11
241.923
 21
90.1938
 31
0
  0
LINE
  5
A0F
330
A02
100
AcDbEntity
  8
View015
100
AcDbLine
 10
241.923
 20
90.1938
 30
0
 11
241.923
 21
114.794
 31
0
  0
LINE
  5
A10
330
A02
100
AcDbEntity
  8
View015
100
AcDbLine
 10
240.423
 20
115.294
 30
0
 11
241.923
 21
115.294
 31
0
  0
ELLIPSE
  5
A11
330
A02
100
AcDbEntity
  8
View015
100
AcDbEllipse
 10
241.923
 20
114.794
 30
0
 11
1.07132e-14
 21
0.5
 31
0
 40
5.9605e-08
 41
-6.28318
 42
-4.71239
  0
LINE
  5
A12
330
A02
100
AcDbEntity
  8
View015
100
AcDbLine
 10
241.923
 20
96.7939
 30
0
 11
241.923
 21
98.7939
 31
0
  0
ELLIPSE
  5
A13
330
A02
100
AcDbEntity
  8
View015
100
AcDbEllipse
 10
241.923
 20
96.7939
 30
0
 11
2.10964e-14
 21
1
 31
0
 40
5.9605e-08
 41
-3.14159
 42
-1.5708
  0
LINE
  5
A14
330
A02
100
AcDbEntity
  8
View015
100
AcDbLine
 10
241.923
 20
95.7939
 30
0
 11
241.923
 21
95.7939
 31
0
  0
ELLIPSE
  5
A15
330
A02
100
AcDbEntity
  8
View015
100
AcDbEllipse
 10
241.923
 20
98.7939
 30
0
 11
-2.14387e-14
 21
-1
 31
0
 40
5.9605e-08
 41
1.5708
 42
3.14159
  0
LINE
  5
A16
330
A02
100
AcDbEntity
  8
View015
100
AcDbLine
 10
241.923
 20
99.7939
 30
0
 11
241.923
 21
99.7939
 31
0
  0
ELLIPSE
  5
A17
330
A02
100
AcDbEntity
  8
View015
100
AcDbEllipse
 10
241.923
 20
96.7939
 30
0
 11
2.10964e-14
 21
1
 31
0
 40
5.9605e-08
 41
-4.71239
 42
-3.14159
  0
LINE
  5
A18
330
A02
100
AcDbEntity
  8
View015
100
AcDbLine
 10
241.923
 20
95.7939
 30
0
 11
241.923
 21
95.7939
 31
0
  0
ELLIPSE
  5
A19
330
A02
100
AcDbEntity
  8
View015
100
AcDbEllipse
 10
241.923
 20
98.7939
 30
0
 11
2.10964e-14
 21
1
 31
0
 40
5.9605e-08
 41
-6.28318
 42
-4.71239
  0
LINE
  5
A1A
330
A02
100
AcDbEntity
  8
View015
100
AcDbLine
 10
241.923
 20
99.7939
 30
0
 11
241.923
 21
99.7939
 31
0
  0
LINE
  5
A1B
330
A02
100
AcDbEntity
  8
View015
100
AcDbLine
 10
241.923
 20
95.5938
 30
0
 11
241.923
 21
95.5938
 31
0
  0
LINE
  5
A1C
330
A02
100
AcDbEntity
  8
View015
100
AcDbLine
 10
241.923
 20
106.994
 30
0
 11
241.923
 21
106.994
 31
0
  0
LINE
  5
A1D
330
A02
100
AcDbEntity
  8
View015
100
AcDbLine
 10
241.923
 20
95.5938
 30
0
 11
241.923
 21
106.994
 31
0
  0
LINE
  5
A1E
330
A02
100
AcDbEntity
  8
View015
100
AcDbLine
 10
241.923
 20
102.694
 30
0
 11
241.923
 21
102.694
 31
0
  0
LINE
  5
A1F
330
A02
100
AcDbEntity
  8
View015
100
AcDbLine
 10
241.923
 20
111.894
 30
0
 11
241.923
 21
111.894
 31
0
  0
LINE
  5
A20
330
A02
100
AcDbEntity
  8
View015
100
AcDbLine
 10
241.923
 20
102.694
 30
0
 11
241.923
 21
111.894
 31
0
  0
LINE
  5
A21
330
A02
100
AcDbEntity
  8
View015
100
AcDbLine
 10
241.923
 20
96.7939
 30
0
 11
241.923
 21
98.7939
 31
0
  0
ELLIPSE
  5
A22
330
A02
100
AcDbEntity
  8
View015
100
AcDbEllipse
 10
241.923
 20
96.7939
 30
0
 11
2.10964e-14
 21
1
 31
0
 40
5.9605e-08
 41
-3.14159
 42
-1.5708
  0
LINE
  5
A23
330
A02
100
AcDbEntity
  8
View015
100
AcDbLine
 10
241.923
 20
95.7939
 30
0
 11
241.923
 21
95.7939
 31
0
  0
ELLIPSE
  5
A24
330
A02
100
AcDbEntity
  8
View015
100
AcDbEllipse
 10
241.923
 20
98.7939
 30
0
 11
-2.14387e-14
 21
-1
 31
0
 40
5.9605e-08
 41
1.5708
 42
3.14159
  0
LINE
  5
A25
330
A02
100
AcDbEntity
  8
View015
100
AcDbLine
 10
241.923
 20
99.7939
 30
0
 11
241.923
 21
99.7939
 31
0
  0
ELLIPSE
  5
A26
330
A02
100
AcDbEntity
  8
View015
100
AcDbEllipse
 10
241.923
 20
96.7938
 30
0
 11
2.10964e-14
 21
1
 31
0
 40
5.9605e-08
 41
-4.71239
 42
-3.14159
  0
LINE
  5
A27
330
A02
100
AcDbEntity
  8
View015
100
AcDbLine
 10
241.923
 20
95.7938
 30
0
 11
241.923
 21
95.7938
 31
0
  0
ELLIPSE
  5
A28
330
A02
100
AcDbEntity
  8
View015
100
AcDbEllipse
 10
241.923
 20
98.7938
 30
0
 11
2.10964e-14
 21
1
 31
0
 40
5.9605e-08
 41
-6.28318
 42
-4.71239
  0
LINE
  5
A29
330
A02
100
AcDbEntity
  8
View015
100
AcDbLine
 10
241.923
 20
99.7938
 30
0
 11
241.923
 21
99.7938
 31
0
  0
ELLIPSE
  5
A2A
330
A02
100
AcDbEntity
  8
View015
100
AcDbEllipse
 10
239.423
 20
90.1938
 30
0
 11
-2.46598
 21
0.411
 31
0
 40
1
 41
1.73595
 42
3.30674
  0
LINE
  5
A2B
330
A02
100
AcDbEntity
  8
View015
100
AcDbLine
 10
239.423
 20
89.1938
 30
0
 11
239.423
 21
87.6938
 31
0
  0
LINE
  5
A2C
330
A02
100
AcDbEntity
  8
View015
100
AcDbLine
 10
239.423
 20
89.1938
 30
0
 11
228.223
 21
89.1938
 31
0
  0
LINE
  5
A2D
330
A02
100
AcDbEntity
  8
View015
100
AcDbLine
 10
228.223
 20
89.1938
 30
0
 11
227.423
 21
89.1938
 31
0
  0
LINE
  5
A2E
330
A02
100
AcDbEntity
  8
View015
100
AcDbLine
 10
227.423
 20
89.1939
 30
0
 11
227.423
 21
89.1939
 31
0
  0
LINE
  5
A2F
330
A02
100
AcDbEntity
  8
View015
100
AcDbLine
 10
174.023
 20
89.1938
 30
0
 11
173.223
 21
89.1938
 31
0
  0
LINE
  5
A30
330
A02
100
AcDbEntity
  8
View015
100
AcDbLine
 10
173.223
 20
89.1938
 30
0
 11
162.023
 21
89.1938
 31
0
  0
ELLIPSE
  5
A31
330
A02
100
AcDbEntity
  8
View015
100
AcDbEllipse
 10
169.023
 20
89.1939
 30
0
 11
2.5
 21
1.53081e-16
 31
0
 40
3.57628e-07
 41
6.28107
 42
0
  0
ELLIPSE
  5
A32
330
A02
100
AcDbEntity
  8
View015
100
AcDbEllipse
 10
172.023
 20
89.1938
 30
0
 11
-1.65
 21
1.01033e-16
 31
0
 40
3.57628e-07
 41
-3.14159
 42
-1.5708
  0
ELLIPSE
  5
A33
330
A02
100
AcDbEntity
  8
View015
100
AcDbEllipse
 10
172.023
 20
89.1938
 30
0
 11
-1.65
 21
1.01033e-16
 31
0
 40
3.57628e-07
 41
-5.02026
 42
-3.14159
  0
ELLIPSE
  5
A34
330
A02
100
AcDbEntity
  8
View015
100
AcDbEllipse
 10
172.023
 20
89.1938
 30
0
 11
-1.65
 21
1.01033e-16
 31
0
 40
3.57628e-07
 41
-1.5708
 42
-1.26292
  0
ELLIPSE
  5
A35
330
A02
100
AcDbEntity
  8
View015
100
AcDbEllipse
 10
169.023
 20
89.1938
 30
0
 11
2.5
 21
1.53081e-16
 31
0
 40
3.57628e-07
 41
4.71239
 42
0
  0
ELLIPSE
  5
A36
330
A02
100
AcDbEntity
  8
View015
100
AcDbEllipse
 10
169.023
 20
89.1938
 30
0
 11
2.5
 21
1.53081e-16
 31
0
 40
3.57628e-07
 41
3.14159
 42
4.71239
  0
ELLIPSE
  5
A37
330
A02
100
AcDbEntity
  8
View015
100
AcDbEllipse
 10
234.023
 20
89.1939
 30
0
 11
2.5
 21
1.53081e-16
 31
0
 40
3.57628e-07
 41
6.28107
 42
0
  0
ELLIPSE
  5
A38
330
A02
100
AcDbEntity
  8
View015
100
AcDbEllipse
 10
232.023
 20
89.1938
 30
0
 11
-1.65
 21
1.01033e-16
 31
0
 40
3.57628e-07
 41
-0
 42
-5.02026
  0
ELLIPSE
  5
A39
330
A02
100
AcDbEntity
  8
View015
100
AcDbEllipse
 10
232.023
 20
89.1938
 30
0
 11
-1.65
 21
1.01033e-16
 31
0
 40
3.57628e-07
 41
-1.26292
 42
-0
  0
ELLIPSE
  5
A3A
330
A02
100
AcDbEntity
  8
View015
100
AcDbEllipse
 10
234.023
 20
89.1938
 30
0
 11
2.5
 21
1.53081e-16
 31
0
 40
3.57628e-07
 41
4.71239
 42
0
  0
ELLIPSE
  5
A3B
330
A02
100
AcDbEntity
  8
View015
100
AcDbEllipse
 10
234.023
 20
89.1938
 30
0
 11
2.5
 21
1.53081e-16
 31
0
 40
3.57628e-07
 41
3.14159
 42
4.71239
  0
LINE
  5
A3C
330
A02
100
AcDbEntity
  8
View015
100
AcDbLine
 10
239.423
 20
89.1938
 30
0
 11
239.423
 21
89.1938
 31
0
  0
LINE
  5
A3D
330
A02
100
AcDbEntity
  8
View015
100
AcDbLine
 10
228.223
 20
87.6938
 30
0
 11
239.423
 21
87.6938
 31
0
  0
LINE
  5
A3E
330
A02
100
AcDbEntity
  8
View015
100
AcDbLine
 10
228.223
 20
89.1938
 30
0
 11
228.223
 21
87.6938
 31
0
  0
LINE
  5
A3F
330
A02
100
AcDbEntity
  8
View015
100
AcDbLine
 10
228.223
 20
89.1938
 30
0
 11
228.223
 21
89.1938
 31
0
  0
LINE
  5
A40
330
A02
100
AcDbEntity
  8
View015
100
AcDbLine
 10
227.423
 20
89.1938
 30
0
 11
227.423
 21
87.6938
 31
0
  0
LINE
  5
A41
330
A02
100
AcDbEntity
  8
View015
100
AcDbLine
 10
228.223
 20
87.6938
 30
0
 11
227.423
 21
87.6938
 31
0
  0
ELLIPSE
  5
A42
330
A02
100
AcDbEntity
  8
View015
100
AcDbEllipse
 10
227.423
 20
90.1939
 30
0
 11
-2.14387e-14
 21
-1
 31
0
 40
5.9605e-08
 41
3.57628e-07
 42
1.5708
  0
LINE
  5
A43
330
A02
100
AcDbEntity
  8
View015
100
AcDbLine
 10
227.423
 20
90.1939
 30
0
 11
227.423
 21
90.1939
 31
0
  0
ELLIPSE
  5
A44
330
A02
100
AcDbEntity
  8
View015
100
AcDbEllipse
 10
227.423
 20
90.1938
 30
0
 11
2.13164e-14
 21
1
 31
0
 40
5.9605e-08
 41
-4.71239
 42
-3.14159
  0
LINE
  5
A45
330
A02
100
AcDbEntity
  8
View015
100
AcDbLine
 10
173.223
 20
89.1938
 30
0
 11
173.223
 21
87.6938
 31
0
  0
LINE
  5
A46
330
A02
100
AcDbEntity
  8
View015
100
AcDbLine
 10
174.023
 20
87.6938
 30
0
 11
173.223
 21
87.6938
 31
0
  0
LINE
  5
A47
330
A02
100
AcDbEntity
  8
View015
100
AcDbLine
 10
173.223
 20
89.1938
 30
0
 11
173.223
 21
87.6938
 31
0
  0
LINE
  5
A48
330
A02
100
AcDbEntity
  8
View015
100
AcDbLine
 10
162.023
 20
87.6938
 30
0
 11
173.223
 21
87.6938
 31
0
  0
LINE
  5
A49
330
A02
100
AcDbEntity
  8
View015
100
AcDbLine
 10
162.023
 20
87.6938
 30
0
 11
162.023
 21
89.1938
 31
0
  0
ELLIPSE
  5
A4A
330
A02
100
AcDbEntity
  8
View015
100
AcDbEllipse
 10
162.023
 20
90.1938
 30
0
 11
0.986394
 21
-0.1644
 31
0
 40
1
 41
-2.97644
 42
-1.40565
  0
ELLIPSE
  5
A4B
330
A02
100
AcDbEntity
  8
View015
100
AcDbEllipse
 10
169.023
 20
94.1939
 30
0
 11
2.5
 21
1.53081e-16
 31
0
 40
3.57628e-07
 41
4.71239
 42
0
  0
ELLIPSE
  5
A4C
330
A02
100
AcDbEntity
  8
View015
100
AcDbEllipse
 10
169.023
 20
94.1939
 30
0
 11
2.5
 21
1.53081e-16
 31
0
 40
3.57628e-07
 41
0
 42
3.14159
  0
ELLIPSE
  5
A4D
330
A02
100
AcDbEntity
  8
View015
100
AcDbEllipse
 10
169.023
 20
94.1939
 30
0
 11
2.5
 21
1.53081e-16
 31
0
 40
3.57628e-07
 41
3.14159
 42
4.71239
  0
ELLIPSE
  5
A4E
330
A02
100
AcDbEntity
  8
View015
100
AcDbEllipse
 10
169.023
 20
94.1938
 30
0
 11
2.5
 21
1.53081e-16
 31
0
 40
3.57628e-07
 41
4.71239
 42
0
  0
ELLIPSE
  5
A4F
330
A02
100
AcDbEntity
  8
View015
100
AcDbEllipse
 10
169.023
 20
94.1938
 30
0
 11
2.5
 21
1.53081e-16
 31
0
 40
3.57628e-07
 41
0
 42
3.14159
  0
ELLIPSE
  5
A50
330
A02
100
AcDbEntity
  8
View015
100
AcDbEllipse
 10
169.023
 20
94.1938
 30
0
 11
2.5
 21
1.53081e-16
 31
0
 40
3.57628e-07
 41
3.14159
 42
4.71239
  0
ELLIPSE
  5
A51
330
A02
100
AcDbEntity
  8
View015
100
AcDbEllipse
 10
234.023
 20
94.1939
 30
0
 11
2.5
 21
1.53081e-16
 31
0
 40
3.57628e-07
 41
4.71239
 42
0
  0
ELLIPSE
  5
A52
330
A02
100
AcDbEntity
  8
View015
100
AcDbEllipse
 10
234.023
 20
94.1939
 30
0
 11
2.5
 21
1.53081e-16
 31
0
 40
3.57628e-07
 41
0
 42
3.14159
  0
ELLIPSE
  5
A53
330
A02
100
AcDbEntity
  8
View015
100
AcDbEllipse
 10
234.023
 20
94.1939
 30
0
 11
2.5
 21
1.53081e-16
 31
0
 40
3.57628e-07
 41
3.14159
 42
4.71239
  0
ELLIPSE
  5
A54
330
A02
100
AcDbEntity
  8
View015
100
AcDbEllipse
 10
234.023
 20
94.1938
 30
0
 11
2.5
 21
1.53081e-16
 31
0
 40
3.57628e-07
 41
4.71239
 42
0
  0
ELLIPSE
  5
A55
330
A02
100
AcDbEntity
  8
View015
100
AcDbEllipse
 10
234.023
 20
94.1938
 30
0
 11
2.5
 21
1.53081e-16
 31
0
 40
3.57628e-07
 41
0
 42
3.14159
  0
ELLIPSE
  5
A56
330
A02
100
AcDbEntity
  8
View015
100
AcDbEllipse
 10
234.023
 20
94.1938
 30
0
 11
2.5
 21
1.53081e-16
 31
0
 40
3.57628e-07
 41
3.14159
 42
4.71239
  0
LINE
  5
A57
330
A02
100
AcDbEntity
  8
View015
100
AcDbLine
 10
174.023
 20
87.6938
 30
0
 11
227.423
 21
87.6938
 31
0
  0
ELLIPSE
  5
A58
330
A02
100
AcDbEntity
  8
View015
100
AcDbEllipse
 10
227.423
 20
90.1939
 30
0
 11
-5.35969e-14
 21
-2.5
 31
0
 40
5.9605e-08
 41
1.15926
 42
1.5708
  0
ELLIPSE
  5
A59
330
A02
100
AcDbEntity
  8
View015
100
AcDbEllipse
 10
227.423
 20
90.1938
 30
0
 11
5.3291e-14
 21
2.5
 31
0
 40
5.9605e-08
 41
-4.71239
 42
-3.14159
  0
LINE
  5
A5A
330
A02
100
AcDbEntity
  8
View015
100
AcDbLine
 10
174.023
 20
96.2939
 30
0
 11
174.023
 21
96.2938
 31
0
  0
LINE
  5
A5B
330
A02
100
AcDbEntity
  8
View015
100
AcDbLine
 10
227.423
 20
90.1939
 30
0
 11
227.423
 21
96.2939
 31
0
  0
LINE
  5
A5C
330
A02
100
AcDbEntity
  8
View015
100
AcDbLine
 10
227.423
 20
96.2939
 30
0
 11
174.023
 21
96.2939
 31
0
  0
ELLIPSE
  5
A5D
330
A02
100
AcDbEntity
  8
View015
100
AcDbEllipse
 10
183.623
 20
93.2939
 30
0
 11
-1.23299
 21
0.2055
 31
0
 40
1
 41
1.5503e-05
 42
3.14158
  0
ELLIPSE
  5
A5E
330
A02
100
AcDbEntity
  8
View015
100
AcDbEllipse
 10
220.423
 20
93.2939
 30
0
 11
-1.23299
 21
0.2055
 31
0
 40
1
 41
1.55033e-05
 42
3.14158
  0
ELLIPSE
  5
A5F
330
A02
100
AcDbEntity
  8
View015
100
AcDbEllipse
 10
174.023
 20
90.1938
 30
0
 11
5.3291e-14
 21
2.5
 31
0
 40
5.9605e-08
 41
-4.71239
 42
-3.14159
  0
LINE
  5
A60
330
A02
100
AcDbEntity
  8
View015
100
AcDbLine
 10
162.023
 20
87.6938
 30
0
 11
162.023
 21
89.1938
 31
0
  0
ELLIPSE
  5
A61
330
A02
100
AcDbEntity
  8
View015
100
AcDbEllipse
 10
162.023
 20
90.1938
 30
0
 11
2.46598
 21
-0.411
 31
0
 40
1
 41
-2.97644
 42
-1.40565
  0
LINE
  5
A62
330
A02
100
AcDbEntity
  8
View015
100
AcDbLine
 10
159.523
 20
90.1938
 30
0
 11
161.023
 21
90.1938
 31
0
  0
LINE
  5
A63
330
A02
100
AcDbEntity
  8
View015
100
AcDbLine
 10
161.023
 20
114.794
 30
0
 11
161.023
 21
90.1938
 31
0
  0
ELLIPSE
  5
A64
330
A02
100
AcDbEntity
  8
View015
100
AcDbEllipse
 10
161.023
 20
114.794
 30
0
 11
1.06032e-14
 21
0.5
 31
0
 40
5.9605e-08
 41
-6.28318
 42
-4.71239
  0
ELLIPSE
  5
A65
330
A02
100
AcDbEntity
  8
View015
100
AcDbEllipse
 10
161.023
 20
114.794
 30
0
 11
-1.07194e-14
 21
-0.5
 31
0
 40
5.9605e-08
 41
1.5708
 42
3.14159
  0
LINE
  5
A66
330
A02
100
AcDbEntity
  8
View015
100
AcDbLine
 10
161.023
 20
97.3938
 30
0
 11
161.023
 21
108.694
 31
0
  0
ELLIPSE
  5
A67
330
A02
100
AcDbEntity
  8
View015
100
AcDbEllipse
 10
161.023
 20
97.3938
 30
0
 11
2.10964e-14
 21
1
 31
0
 40
5.9605e-08
 41
-3.14159
 42
-1.5708
  0
ELLIPSE
  5
A68
330
A02
100
AcDbEntity
  8
View015
100
AcDbEllipse
 10
161.023
 20
108.694
 30
0
 11
-2.14387e-14
 21
-1
 31
0
 40
5.9605e-08
 41
1.5708
 42
3.14159
  0
ELLIPSE
  5
A69
330
A02
100
AcDbEntity
  8
View015
100
AcDbEllipse
 10
161.023
 20
97.3938
 30
0
 11
-2.14387e-14
 21
-1
 31
0
 40
5.9605e-08
 41
4.71239
 42
0
  0
ELLIPSE
  5
A6A
330
A02
100
AcDbEntity
  8
View015
100
AcDbEllipse
 10
161.023
 20
108.694
 30
0
 11
-2.14387e-14
 21
-1
 31
0
 40
5.9605e-08
 41
3.14159
 42
4.71239
  0
LINE
  5
A6B
330
A02
100
AcDbEntity
  8
View015
100
AcDbLine
 10
161.023
 20
96.6439
 30
0
 11
161.023
 21
111.044
 31
0
  0
ELLIPSE
  5
A6C
330
A02
100
AcDbEntity
  8
View015
100
AcDbEllipse
 10
169.023
 20
94.1939
 30
0
 11
1.7
 21
1.04095e-16
 31
0
 40
3.57628e-07
 41
4.71239
 42
0
  0
ELLIPSE
  5
A6D
330
A02
100
AcDbEntity
  8
View015
100
AcDbEllipse
 10
169.023
 20
94.1939
 30
0
 11
1.7
 21
1.04095e-16
 31
0
 40
3.57628e-07
 41
0
 42
3.14159
  0
ELLIPSE
  5
A6E
330
A02
100
AcDbEntity
  8
View015
100
AcDbEllipse
 10
169.023
 20
94.1939
 30
0
 11
1.7
 21
1.04095e-16
 31
0
 40
3.57628e-07
 41
3.14159
 42
4.71239
  0
ELLIPSE
  5
A6F
330
A02
100
AcDbEntity
  8
View015
100
AcDbEllipse
 10
169.023
 20
94.1938
 30
0
 11
1.7
 21
1.04095e-16
 31
0
 40
3.57628e-07
 41
4.71239
 42
0
  0
ELLIPSE
  5
A70
330
A02
100
AcDbEntity
  8
View015
100
AcDbEllipse
 10
169.023
 20
94.1938
 30
0
 11
1.7
 21
1.04095e-16
 31
0
 40
3.57628e-07
 41
0
 42
3.14159
  0
ELLIPSE
  5
A71
330
A02
100
AcDbEntity
  8
View015
100
AcDbEllipse
 10
169.023
 20
94.1938
 30
0
 11
1.7
 21
1.04095e-16
 31
0
 40
3.57628e-07
 41
3.14159
 42
4.71239
  0
ELLIPSE
  5
A72
330
A02
100
AcDbEntity
  8
View015
100
AcDbEllipse
 10
234.023
 20
94.1939
 30
0
 11
1.7
 21
1.04095e-16
 31
0
 40
3.57628e-07
 41
4.71239
 42
0
  0
ELLIPSE
  5
A73
330
A02
100
AcDbEntity
  8
View015
100
AcDbEllipse
 10
234.023
 20
94.1939
 30
0
 11
1.7
 21
1.04095e-16
 31
0
 40
3.57628e-07
 41
0
 42
3.14159
  0
ELLIPSE
  5
A74
330
A02
100
AcDbEntity
  8
View015
100
AcDbEllipse
 10
234.023
 20
94.1939
 30
0
 11
1.7
 21
1.04095e-16
 31
0
 40
3.57628e-07
 41
3.14159
 42
4.71239
  0
ELLIPSE
  5
A75
330
A02
100
AcDbEntity
  8
View015
100
AcDbEllipse
 10
234.023
 20
94.1938
 30
0
 11
1.7
 21
1.04095e-16
 31
0
 40
3.57628e-07
 41
4.71239
 42
0
  0
ELLIPSE
  5
A76
330
A02
100
AcDbEntity
  8
View015
100
AcDbEllipse
 10
234.023
 20
94.1938
 30
0
 11
1.7
 21
1.04095e-16
 31
0
 40
3.57628e-07
 41
0
 42
3.14159
  0
ELLIPSE
  5
A77
330
A02
100
AcDbEntity
  8
View015
100
AcDbEllipse
 10
234.023
 20
94.1938
 30
0
 11
1.7
 21
1.04095e-16
 31
0
 40
3.57628e-07
 41
3.14159
 42
4.71239
  0
LINE
  5
A78
330
A02
100
AcDbEntity
  8
View015
100
AcDbLine
 10
174.023
 20
90.1938
 30
0
 11
227.423
 21
90.1938
 31
0
  0
LINE
  5
A79
330
A02
100
AcDbEntity
  8
View015
100
AcDbLine
 10
227.423
 20
96.2938
 30
0
 11
227.423
 21
90.1938
 31
0
  0
LINE
  5
A7A
330
A02
100
AcDbEntity
  8
View015
100
AcDbLine
 10
174.023
 20
90.1938
 30
0
 11
174.023
 21
96.2938
 31
0
  0
LINE
  5
A7B
330
A02
100
AcDbEntity
  8
View015
100
AcDbLine
 10
174.023
 20
96.2938
 30
0
 11
227.423
 21
96.2938
 31
0
  0
ELLIPSE
  5
A7C
330
A02
100
AcDbEntity
  8
View015
100
AcDbEllipse
 10
183.623
 20
93.2938
 30
0
 11
-1.23299
 21
0.2055
 31
0
 40
1
 41
0
 42
6.28318
  0
ELLIPSE
  5
A7D
330
A02
100
AcDbEntity
  8
View015
100
AcDbEllipse
 10
220.423
 20
93.2938
 30
0
 11
-1.23299
 21
0.2055
 31
0
 40
1
 41
0
 42
6.28318
  0
LINE
  5
A7E
330
A02
100
AcDbEntity
  8
View015
100
AcDbLine
 10
159.523
 20
114.794
 30
0
 11
159.523
 21
90.1938
 31
0
  0
LINE
  5
A7F
330
A02
100
AcDbEntity
  8
View015
100
AcDbLine
 10
161.023
 20
115.294
 30
0
 11
159.523
 21
115.294
 31
0
  0
ELLIPSE
  5
A80
330
A02
100
AcDbEntity
  8
View015
100
AcDbEllipse
 10
159.523
 20
114.794
 30
0
 11
1.06032e-14
 21
0.5
 31
0
 40
5.9605e-08
 41
-6.28318
 42
-4.71239
  0
LINE
  5
A81
330
A02
100
AcDbEntity
  8
View015
100
AcDbLine
 10
161.023
 20
115.294
 30
0
 11
159.523
 21
115.294
 31
0
  0
ELLIPSE
  5
A82
330
A02
100
AcDbEntity
  8
View015
100
AcDbEllipse
 10
159.523
 20
114.794
 30
0
 11
-1.07194e-14
 21
-0.5
 31
0
 40
5.9605e-08
 41
3.1292
 42
3.14159
  0
LINE
  5
A83
330
A02
100
AcDbEntity
  8
View015
100
AcDbLine
 10
161.023
 20
96.3938
 30
0
 11
161.023
 21
96.3938
 31
0
  0
LINE
  5
A84
330
A02
100
AcDbEntity
  8
View015
100
AcDbLine
 10
161.023
 20
109.694
 30
0
 11
161.023
 21
109.694
 31
0
  0
LINE
  5
A85
330
A02
100
AcDbEntity
  8
View015
100
AcDbLine
 10
161.023
 20
96.3938
 30
0
 11
161.023
 21
96.3938
 31
0
  0
LINE
  5
A86
330
A02
100
AcDbEntity
  8
View015
100
AcDbLine
 10
161.023
 20
109.694
 30
0
 11
161.023
 21
109.694
 31
0
  0
LINE
  5
A87
330
A02
100
AcDbEntity
  8
View015
100
AcDbLine
 10
161.023
 20
96.6439
 30
0
 11
161.023
 21
96.6439
 31
0
  0
LINE
  5
A88
330
A02
100
AcDbEntity
  8
View015
100
AcDbLine
 10
161.023
 20
111.044
 30
0
 11
161.023
 21
111.044
 31
0
  0
LINE
  5
A89
330
A02
100
AcDbEntity
  8
View015
100
AcDbLine
 10
240.423
 20
115.294
 30
0
 11
241.923
 21
115.294
 31
0
  0
LINE
  5
A8A
330
A02
100
AcDbEntity
  8
View015
100
AcDbLine
 10
241.923
 20
99.7939
 30
0
 11
241.923
 21
99.7939
 31
0
  0
LINE
  5
A8B
330
A02
100
AcDbEntity
  8
View015
100
AcDbLine
 10
241.923
 20
95.7939
 30
0
 11
241.923
 21
95.7939
 31
0
  0
LINE
  5
A8C
330
A02
100
AcDbEntity
  8
View015
100
AcDbLine
 10
241.923
 20
99.7939
 30
0
 11
241.923
 21
99.7939
 31
0
  0
LINE
  5
A8D
330
A02
100
AcDbEntity
  8
View015
100
AcDbLine
 10
241.923
 20
95.7938
 30
0
 11
241.923
 21
95.7938
 31
0
  0
LINE
  5
A8E
330
A02
100
AcDbEntity
  8
View015
100
AcDbLine
 10
171.523
 20
94.1939
 30
0
 11
171.523
 21
89.1939
 31
0
  0
LINE
  5
A8F
330
A02
100
AcDbEntity
  8
View015
100
AcDbLine
 10
173.673
 20
89.1938
 30
0
 11
173.673
 21
89.1938
 31
0
  0
LINE
  5
A90
330
A02
100
AcDbEntity
  8
View015
100
AcDbLine
 10
166.523
 20
94.1938
 30
0
 11
166.523
 21
89.1938
 31
0
  0
LINE
  5
A91
330
A02
100
AcDbEntity
  8
View015
100
AcDbLine
 10
171.523
 20
94.1938
 30
0
 11
171.523
 21
89.1938
 31
0
  0
LINE
  5
A92
330
A02
100
AcDbEntity
  8
View015
100
AcDbLine
 10
236.523
 20
94.1939
 30
0
 11
236.523
 21
89.1939
 31
0
  0
LINE
  5
A93
330
A02
100
AcDbEntity
  8
View015
100
AcDbLine
 10
230.373
 20
89.1938
 30
0
 11
230.373
 21
89.1938
 31
0
  0
LINE
  5
A94
330
A02
100
AcDbEntity
  8
View015
100
AcDbLine
 10
231.523
 20
94.1938
 30
0
 11
231.523
 21
89.1938
 31
0
  0
LINE
  5
A95
330
A02
100
AcDbEntity
  8
View015
100
AcDbLine
 10
236.523
 20
94.1938
 30
0
 11
236.523
 21
89.1938
 31
0
  0
LINE
  5
A96
330
A02
100
AcDbEntity
  8
View015
100
AcDbLine
 10
161.023
 20
115.294
 30
0
 11
159.523
 21
115.294
 31
0
  0
LINE
  5
A97
330
A02
100
AcDbEntity
  8
View015
100
AcDbLine
 10
161.023
 20
109.694
 30
0
 11
161.023
 21
109.694
 31
0
  0
LINE
  5
A98
330
A02
100
AcDbEntity
  8
View015
100
AcDbLine
 10
161.023
 20
96.3938
 30
0
 11
161.023
 21
96.3938
 31
0
  0
LINE
  5
A99
330
A02
100
AcDbEntity
  8
View015
100
AcDbLine
 10
170.723
 20
94.1939
 30
0
 11
170.723
 21
94.1939
 31
0
  0
LINE
  5
A9A
330
A02
100
AcDbEntity
  8
View015
100
AcDbLine
 10
167.323
 20
94.1938
 30
0
 11
167.323
 21
94.1938
 31
0
  0
LINE
  5
A9B
330
A02
100
AcDbEntity
  8
View015
100
AcDbLine
 10
170.723
 20
94.1938
 30
0
 11
170.723
 21
94.1938
 31
0
  0
LINE
  5
A9C
330
A02
100
AcDbEntity
  8
View015
100
AcDbLine
 10
235.723
 20
94.1939
 30
0
 11
235.723
 21
94.1939
 31
0
  0
LINE
  5
A9D
330
A02
100
AcDbEntity
  8
View015
100
AcDbLine
 10
232.323
 20
94.1938
 30
0
 11
232.323
 21
94.1938
 31
0
  0
LINE
  5
A9E
330
A02
100
AcDbEntity
  8
View015
100
AcDbLine
 10
235.723
 20
94.1938
 30
0
 11
235.723
 21
94.1938
 31
0
  0
LINE
  5
A9F
330
A02
100
AcDbEntity
  8
View015
100
AcDbLine
 10
170.723
 20
89.1938
 30
0
 11
170.723
 21
89.1938
 31
0
  0
LINE
  5
AA0
330
A02
100
AcDbEntity
  8
View015
100
AcDbLine
 10
167.323
 20
89.1938
 30
0
 11
167.323
 21
89.1938
 31
0
  0
LINE
  5
AA1
330
A02
100
AcDbEntity
  8
View015
100
AcDbLine
 10
235.723
 20
89.1938
 30
0
 11
235.723
 21
89.1938
 31
0
  0
LINE
  5
AA2
330
A02
100
AcDbEntity
  8
View015
100
AcDbLine
 10
232.323
 20
89.1938
 30
0
 11
232.323
 21
89.1938
 31
0
  0
LINE
  5
AA3
330
A02
100
AcDbEntity
  8
View015
100
AcDbLine
 10
241.923
 20
114.794
 30
0
 11
241.923
 21
114.794
 31
0
  0
LINE
  5
AA4
330
A02
100
AcDbEntity
  8
View015
100
AcDbLine
 10
240.423
 20
115.294
 30
0
 11
241.923
 21
115.294
 31
0
  0
LINE
  5
AA5
330
A02
100
AcDbEntity
  8
View015
100
AcDbLine
 10
240.423
 20
114.794
 30
0
 11
241.923
 21
114.794
 31
0
  0
LINE
  5
AA6
330
A02
100
AcDbEntity
  8
View015
100
AcDbLine
 10
241.923
 20
96.7939
 30
0
 11
241.923
 21
96.7939
 31
0
  0
LINE
  5
AA7
330
A02
100
AcDbEntity
  8
View015
100
AcDbLine
 10
241.923
 20
95.7939
 30
0
 11
241.923
 21
95.7939
 31
0
  0
LINE
  5
AA8
330
A02
100
AcDbEntity
  8
View015
100
AcDbLine
 10
241.923
 20
99.7939
 30
0
 11
241.923
 21
99.7939
 31
0
  0
LINE
  5
AA9
330
A02
100
AcDbEntity
  8
View015
100
AcDbLine
 10
241.923
 20
96.7939
 30
0
 11
241.923
 21
96.7939
 31
0
  0
LINE
  5
AAA
330
A02
100
AcDbEntity
  8
View015
100
AcDbLine
 10
241.923
 20
96.7939
 30
0
 11
241.923
 21
96.7939
 31
0
  0
LINE
  5
AAB
330
A02
100
AcDbEntity
  8
View015
100
AcDbLine
 10
241.923
 20
98.7939
 30
0
 11
241.923
 21
98.7939
 31
0
  0
LINE
  5
AAC
330
A02
100
AcDbEntity
  8
View015
100
AcDbLine
 10
241.923
 20
95.7938
 30
0
 11
241.923
 21
95.7938
 31
0
  0
LINE
  5
AAD
330
A02
100
AcDbEntity
  8
View015
100
AcDbLine
 10
241.923
 20
99.7938
 30
0
 11
241.923
 21
99.7938
 31
0
  0
LINE
  5
AAE
330
A02
100
AcDbEntity
  8
View015
100
AcDbLine
 10
241.923
 20
96.7938
 30
0
 11
241.923
 21
96.7938
 31
0
  0
LINE
  5
AAF
330
A02
100
AcDbEntity
  8
View015
100
AcDbLine
 10
241.923
 20
98.7938
 30
0
 11
241.923
 21
98.7938
 31
0
  0
LINE
  5
AB0
330
A02
100
AcDbEntity
  8
View015
100
AcDbLine
 10
161.023
 20
114.794
 30
0
 11
159.523
 21
114.794
 31
0
  0
LINE
  5
AB1
330
A02
100
AcDbEntity
  8
View015
100
AcDbLine
 10
161.023
 20
114.794
 30
0
 11
161.023
 21
114.794
 31
0
  0
LINE
  5
AB2
330
A02
100
AcDbEntity
  8
View015
100
AcDbLine
 10
161.023
 20
115.294
 30
0
 11
159.523
 21
115.294
 31
0
  0
LINE
  5
AB3
330
A02
100
AcDbEntity
  8
View015
100
AcDbLine
 10
161.023
 20
97.3938
 30
0
 11
161.023
 21
97.3938
 31
0
  0
LINE
  5
AB4
330
A02
100
AcDbEntity
  8
View015
100
AcDbLine
 10
161.023
 20
108.694
 30
0
 11
161.023
 21
108.694
 31
0
  0
LINE
  5
AB5
330
A02
100
AcDbEntity
  8
View015
100
AcDbLine
 10
161.023
 20
96.3938
 30
0
 11
161.023
 21
96.3938
 31
0
  0
LINE
  5
AB6
330
A02
100
AcDbEntity
  8
View015
100
AcDbLine
 10
161.023
 20
109.694
 30
0
 11
161.023
 21
109.694
 31
0
  0
LINE
  5
AB7
330
A02
100
AcDbEntity
  8
View015
100
AcDbLine
 10
161.023
 20
97.3938
 30
0
 11
161.023
 21
97.3938
 31
0
  0
LINE
  5
AB8
330
A02
100
AcDbEntity
  8
View015
100
AcDbLine
 10
161.023
 20
108.694
 30
0
 11
161.023
 21
108.694
 31
0
  0
LINE
  5
AB9
330
A02
100
AcDbEntity
  8
View015
100
AcDbLine
 10
169.023
 20
94.1938
 30
0
 11
169.023
 21
94.1939
 31
0
  0
LINE
  5
ABA
330
A02
100
AcDbEntity
  8
View015
100
AcDbLine
 10
172.023
 20
89.1938
 30
0
 11
172.023
 21
89.1938
 31
0
  0
LINE
  5
ABB
330
A02
100
AcDbEntity
  8
View015
100
AcDbLine
 10
169.023
 20
89.1938
 30
0
 11
169.023
 21
94.1938
 31
0
  0
LINE
  5
ABC
330
A02
100
AcDbEntity
  8
View015
100
AcDbLine
 10
234.023
 20
94.1938
 30
0
 11
234.023
 21
94.1939
 31
0
  0
LINE
  5
ABD
330
A02
100
AcDbEntity
  8
View015
100
AcDbLine
 10
234.023
 20
89.1938
 30
0
 11
234.023
 21
94.1938
 31
0
  0
LINE
  5
ABE
330
A02
100
AcDbEntity
  8
View015
100
AcDbLine
 10
169.023
 20
94.1939
 30
0
 11
169.023
 21
94.1939
 31
0
  0
LINE
  5
ABF
330
A02
100
AcDbEntity
  8
View015
100
AcDbLine
 10
169.023
 20
94.1938
 30
0
 11
169.023
 21
94.1938
 31
0
  0
LINE
  5
AC0
330
A02
100
AcDbEntity
  8
View015
100
AcDbLine
 10
234.023
 20
94.1939
 30
0
 11
234.023
 21
94.1939
 31
0
  0
LINE
  5
AC1
330
A02
100
AcDbEntity
  8
View015
100
AcDbLine
 10
234.023
 20
94.1938
 30
0
 11
234.023
 21
94.1938
 31
0
  0
LINE
  5
AC2
330
A02
100
AcDbEntity
  8
View015
100
AcDbLine
 10
169.023
 20
89.1938
 30
0
 11
169.023
 21
89.1938
 31
0
  0
LINE
  5
AC3
330
A02
100
AcDbEntity
  8
View015
100
AcDbLine
 10
234.023
 20
89.1938
 30
0
 11
234.023
 21
89.1938
 31
0
  0
LINE
  5
AC4
330
A02
100
AcDbEntity
  8
View016
100
AcDbLine
 10
48.4573
 20
113.687
 30
0
 11
48.4573
 21
89.0867
 31
0
  0
ELLIPSE
  5
AC5
330
A02
100
AcDbEntity
  8
View016
100
AcDbEllipse
 10
48.4573
 20
113.687
 30
0
 11
8.9407e-08
 21
0.5
 31
0
 40
1.19209e-07
 41
4.71239
 42
1.78814e-07
  0
LINE
  5
AC6
330
A02
100
AcDbEntity
  8
View016
100
AcDbLine
 10
46.9573
 20
89.0867
 30
0
 11
48.4573
 21
89.0867
 31
0
  0
LINE
  5
AC7
330
A02
100
AcDbEntity
  8
View016
100
AcDbLine
 10
46.9573
 20
113.687
 30
0
 11
46.9573
 21
89.0867
 31
0
  0
LINE
  5
AC8
330
A02
100
AcDbEntity
  8
View016
100
AcDbLine
 10
48.4573
 20
114.187
 30
0
 11
46.9573
 21
114.187
 31
0
  0
ELLIPSE
  5
AC9
330
A02
100
AcDbEntity
  8
View016
100
AcDbEllipse
 10
46.9573
 20
113.687
 30
0
 11
8.9407e-08
 21
0.5
 31
0
 40
1.19209e-07
 41
4.71239
 42
1.78814e-07
  0
ELLIPSE
  5
ACA
330
A02
100
AcDbEntity
  8
View016
100
AcDbEllipse
 10
49.4573
 20
89.0867
 30
0
 11
-0.832051
 21
0.554699
 31
0
 40
1
 41
-5.69518
 42
-4.12439
  0
LINE
  5
ACB
330
A02
100
AcDbEntity
  8
View016
100
AcDbLine
 10
46.9573
 20
114.187
 30
0
 11
46.9573
 21
114.187
 31
0
  0
ELLIPSE
  5
ACC
330
A02
100
AcDbEntity
  8
View016
100
AcDbEllipse
 10
46.9573
 20
113.687
 30
0
 11
-8.9407e-08
 21
-0.5
 31
0
 40
1.19209e-07
 41
-3.14159
 42
-1.5708
  0
ELLIPSE
  5
ACD
330
A02
100
AcDbEntity
  8
View016
100
AcDbEllipse
 10
46.9573
 20
95.6867
 30
0
 11
-1.78814e-07
 21
-1
 31
0
 40
1.19209e-07
 41
-6.28319
 42
-4.71239
  0
LINE
  5
ACE
330
A02
100
AcDbEntity
  8
View016
100
AcDbLine
 10
46.9573
 20
94.6867
 30
0
 11
46.9573
 21
94.6867
 31
0
  0
ELLIPSE
  5
ACF
330
A02
100
AcDbEntity
  8
View016
100
AcDbEllipse
 10
46.9573
 20
97.6867
 30
0
 11
1.78814e-07
 21
1
 31
0
 40
1.19209e-07
 41
4.71239
 42
6.28319
  0
LINE
  5
AD0
330
A02
100
AcDbEntity
  8
View016
100
AcDbLine
 10
46.9573
 20
98.6867
 30
0
 11
46.9573
 21
98.6867
 31
0
  0
ELLIPSE
  5
AD1
330
A02
100
AcDbEntity
  8
View016
100
AcDbEllipse
 10
46.9573
 20
95.6867
 30
0
 11
-1.78814e-07
 21
-1
 31
0
 40
1.19209e-07
 41
-1.5708
 42
-0
  0
LINE
  5
AD2
330
A02
100
AcDbEntity
  8
View016
100
AcDbLine
 10
46.9573
 20
94.6867
 30
0
 11
46.9573
 21
94.6867
 31
0
  0
ELLIPSE
  5
AD3
330
A02
100
AcDbEntity
  8
View016
100
AcDbEllipse
 10
46.9573
 20
97.6867
 30
0
 11
-1.78814e-07
 21
-1
 31
0
 40
1.19209e-07
 41
-3.14159
 42
-1.5708
  0
LINE
  5
AD4
330
A02
100
AcDbEntity
  8
View016
100
AcDbLine
 10
46.9573
 20
98.6867
 30
0
 11
46.9573
 21
98.6867
 31
0
  0
LINE
  5
AD5
330
A02
100
AcDbEntity
  8
View016
100
AcDbLine
 10
46.9573
 20
97.6867
 30
0
 11
46.9573
 21
95.6867
 31
0
  0
LINE
  5
AD6
330
A02
100
AcDbEntity
  8
View016
100
AcDbLine
 10
46.9573
 20
94.4866
 30
0
 11
46.9573
 21
94.4866
 31
0
  0
LINE
  5
AD7
330
A02
100
AcDbEntity
  8
View016
100
AcDbLine
 10
46.9573
 20
105.887
 30
0
 11
46.9573
 21
105.887
 31
0
  0
LINE
  5
AD8
330
A02
100
AcDbEntity
  8
View016
100
AcDbLine
 10
46.9573
 20
105.887
 30
0
 11
46.9573
 21
94.4866
 31
0
  0
LINE
  5
AD9
330
A02
100
AcDbEntity
  8
View016
100
AcDbLine
 10
46.9573
 20
101.587
 30
0
 11
46.9573
 21
101.587
 31
0
  0
LINE
  5
ADA
330
A02
100
AcDbEntity
  8
View016
100
AcDbLine
 10
46.9573
 20
110.787
 30
0
 11
46.9573
 21
110.787
 31
0
  0
LINE
  5
ADB
330
A02
100
AcDbEntity
  8
View016
100
AcDbLine
 10
46.9573
 20
110.787
 30
0
 11
46.9573
 21
101.587
 31
0
  0
ELLIPSE
  5
ADC
330
A02
100
AcDbEntity
  8
View016
100
AcDbEllipse
 10
46.9573
 20
95.6867
 30
0
 11
-1.78814e-07
 21
-1
 31
0
 40
1.19209e-07
 41
-6.28319
 42
-4.71239
  0
LINE
  5
ADD
330
A02
100
AcDbEntity
  8
View016
100
AcDbLine
 10
46.9573
 20
94.6867
 30
0
 11
46.9573
 21
94.6867
 31
0
  0
ELLIPSE
  5
ADE
330
A02
100
AcDbEntity
  8
View016
100
AcDbEllipse
 10
46.9573
 20
97.6867
 30
0
 11
1.78814e-07
 21
1
 31
0
 40
1.19209e-07
 41
4.71239
 42
0
  0
LINE
  5
ADF
330
A02
100
AcDbEntity
  8
View016
100
AcDbLine
 10
46.9573
 20
98.6867
 30
0
 11
46.9573
 21
98.6867
 31
0
  0
ELLIPSE
  5
AE0
330
A02
100
AcDbEntity
  8
View016
100
AcDbEllipse
 10
46.9573
 20
95.6866
 30
0
 11
-1.78814e-07
 21
-1
 31
0
 40
1.19209e-07
 41
-1.5708
 42
-0
  0
LINE
  5
AE1
330
A02
100
AcDbEntity
  8
View016
100
AcDbLine
 10
46.9573
 20
94.6866
 30
0
 11
46.9573
 21
94.6866
 31
0
  0
ELLIPSE
  5
AE2
330
A02
100
AcDbEntity
  8
View016
100
AcDbEllipse
 10
46.9573
 20
97.6866
 30
0
 11
-1.78814e-07
 21
-1
 31
0
 40
1.19209e-07
 41
-3.14159
 42
-1.5708
  0
LINE
  5
AE3
330
A02
100
AcDbEntity
  8
View016
100
AcDbLine
 10
46.9573
 20
98.6866
 30
0
 11
46.9573
 21
98.6866
 31
0
  0
LINE
  5
AE4
330
A02
100
AcDbEntity
  8
View016
100
AcDbLine
 10
46.9573
 20
97.6866
 30
0
 11
46.9573
 21
95.6866
 31
0
  0
ELLIPSE
  5
AE5
330
A02
100
AcDbEntity
  8
View016
100
AcDbEllipse
 10
49.4573
 20
89.0867
 30
0
 11
-2.08013
 21
1.38675
 31
0
 40
1
 41
-5.69518
 42
-4.12439
  0
LINE
  5
AE6
330
A02
100
AcDbEntity
  8
View016
100
AcDbLine
 10
49.4573
 20
86.5867
 30
0
 11
49.4573
 21
88.0867
 31
0
  0
LINE
  5
AE7
330
A02
100
AcDbEntity
  8
View016
100
AcDbLine
 10
49.4573
 20
86.5867
 30
0
 11
49.4573
 21
86.5867
 31
0
  0
LINE
  5
AE8
330
A02
100
AcDbEntity
  8
View016
100
AcDbLine
 10
60.6573
 20
88.0867
 30
0
 11
49.4573
 21
88.0867
 31
0
  0
LINE
  5
AE9
330
A02
100
AcDbEntity
  8
View016
100
AcDbLine
 10
61.4573
 20
88.0867
 30
0
 11
60.6573
 21
88.0867
 31
0
  0
LINE
  5
AEA
330
A02
100
AcDbEntity
  8
View016
100
AcDbLine
 10
61.4573
 20
88.0867
 30
0
 11
61.4573
 21
88.0867
 31
0
  0
LINE
  5
AEB
330
A02
100
AcDbEntity
  8
View016
100
AcDbLine
 10
61.4573
 20
88.0866
 30
0
 11
61.4573
 21
88.0866
 31
0
  0
LINE
  5
AEC
330
A02
100
AcDbEntity
  8
View016
100
AcDbLine
 10
115.657
 20
88.0866
 30
0
 11
114.857
 21
88.0866
 31
0
  0
LINE
  5
AED
330
A02
100
AcDbEntity
  8
View016
100
AcDbLine
 10
126.857
 20
88.0866
 30
0
 11
115.657
 21
88.0866
 31
0
  0
LINE
  5
AEE
330
A02
100
AcDbEntity
  8
View016
100
AcDbLine
 10
60.6573
 20
88.0867
 30
0
 11
60.6573
 21
86.5867
 31
0
  0
LINE
  5
AEF
330
A02
100
AcDbEntity
  8
View016
100
AcDbLine
 10
49.4573
 20
86.5867
 30
0
 11
60.6573
 21
86.5867
 31
0
  0
LINE
  5
AF0
330
A02
100
AcDbEntity
  8
View016
100
AcDbLine
 10
61.4573
 20
88.0867
 30
0
 11
61.4573
 21
86.5867
 31
0
  0
LINE
  5
AF1
330
A02
100
AcDbEntity
  8
View016
100
AcDbLine
 10
61.4573
 20
86.5867
 30
0
 11
60.6573
 21
86.5867
 31
0
  0
ELLIPSE
  5
AF2
330
A02
100
AcDbEntity
  8
View016
100
AcDbEllipse
 10
114.857
 20
89.0866
 30
0
 11
1.78814e-07
 21
1
 31
0
 40
1.19209e-07
 41
3.14159
 42
4.71239
  0
ELLIPSE
  5
AF3
330
A02
100
AcDbEntity
  8
View016
100
AcDbEllipse
 10
61.4573
 20
89.0867
 30
0
 11
1.78814e-07
 21
1
 31
0
 40
1.19209e-07
 41
3.14159
 42
4.71239
  0
ELLIPSE
  5
AF4
330
A02
100
AcDbEntity
  8
View016
100
AcDbEllipse
 10
61.4573
 20
89.0866
 30
0
 11
-1.78814e-07
 21
-1
 31
0
 40
1.19209e-07
 41
-1.5708
 42
-0.00605155
  0
ELLIPSE
  5
AF5
330
A02
100
AcDbEntity
  8
View016
100
AcDbEllipse
 10
114.857
 20
89.0866
 30
0
 11
-1.78814e-07
 21
-1
 31
0
 40
1.19209e-07
 41
-1.5708
 42
-6.28319
  0
LINE
  5
AF6
330
A02
100
AcDbEntity
  8
View016
100
AcDbLine
 10
61.4573
 20
89.0866
 30
0
 11
61.4573
 21
89.0866
 31
0
  0
LINE
  5
AF7
330
A02
100
AcDbEntity
  8
View016
100
AcDbLine
 10
115.657
 20
88.0866
 30
0
 11
115.657
 21
86.5866
 31
0
  0
LINE
  5
AF8
330
A02
100
AcDbEntity
  8
View016
100
AcDbLine
 10
115.657
 20
86.5866
 30
0
 11
114.857
 21
86.5866
 31
0
  0
LINE
  5
AF9
330
A02
100
AcDbEntity
  8
View016
100
AcDbLine
 10
115.657
 20
88.0866
 30
0
 11
115.657
 21
86.5866
 31
0
  0
LINE
  5
AFA
330
A02
100
AcDbEntity
  8
View016
100
AcDbLine
 10
126.857
 20
88.0866
 30
0
 11
126.857
 21
86.5866
 31
0
  0
LINE
  5
AFB
330
A02
100
AcDbEntity
  8
View016
100
AcDbLine
 10
115.657
 20
86.5866
 30
0
 11
126.857
 21
86.5866
 31
0
  0
ELLIPSE
  5
AFC
330
A02
100
AcDbEntity
  8
View016
100
AcDbEllipse
 10
126.857
 20
89.0866
 30
0
 11
0.832051
 21
-0.554699
 31
0
 40
1
 41
5.30039
 42
0.588001
  0
ELLIPSE
  5
AFD
330
A02
100
AcDbEntity
  8
View016
100
AcDbEllipse
 10
119.857
 20
93.0866
 30
0
 11
2.5
 21
-4.47035e-07
 31
0
 40
1.78814e-07
 41
-0
 42
-3.14159
  0
ELLIPSE
  5
AFE
330
A02
100
AcDbEntity
  8
View016
100
AcDbEllipse
 10
116.857
 20
86.5866
 30
0
 11
-1.65
 21
2.95043e-07
 31
0
 40
1.78814e-07
 41
4.71239
 42
0
  0
ELLIPSE
  5
AFF
330
A02
100
AcDbEntity
  8
View016
100
AcDbEllipse
 10
116.857
 20
86.5866
 30
0
 11
-1.65
 21
2.95043e-07
 31
0
 40
1.78814e-07
 41
0
 42
3.14159
  0
ELLIPSE
  5
B00
330
A02
100
AcDbEntity
  8
View016
100
AcDbEllipse
 10
116.857
 20
86.5866
 30
0
 11
-1.65
 21
2.95043e-07
 31
0
 40
1.78814e-07
 41
3.14159
 42
4.71239
  0
ELLIPSE
  5
B01
330
A02
100
AcDbEntity
  8
View016
100
AcDbEllipse
 10
119.857
 20
93.0866
 30
0
 11
2.5
 21
-4.47035e-07
 31
0
 40
1.78814e-07
 41
-3.14459
 42
-3.14159
  0
ELLIPSE
  5
B02
330
A02
100
AcDbEntity
  8
View016
100
AcDbEllipse
 10
54.8573
 20
93.0867
 30
0
 11
2.5
 21
-4.47035e-07
 31
0
 40
1.78814e-07
 41
-0
 42
-3.14159
  0
ELLIPSE
  5
B03
330
A02
100
AcDbEntity
  8
View016
100
AcDbEllipse
 10
56.8573
 20
86.5866
 30
0
 11
-1.65
 21
2.95043e-07
 31
0
 40
1.78814e-07
 41
4.71239
 42
0
  0
ELLIPSE
  5
B04
330
A02
100
AcDbEntity
  8
View016
100
AcDbEllipse
 10
56.8573
 20
86.5866
 30
0
 11
-1.65
 21
2.95043e-07
 31
0
 40
1.78814e-07
 41
0
 42
3.14159
  0
ELLIPSE
  5
B05
330
A02
100
AcDbEntity
  8
View016
100
AcDbEllipse
 10
56.8573
 20
86.5866
 30
0
 11
-1.65
 21
2.95043e-07
 31
0
 40
1.78814e-07
 41
3.14159
 42
4.71239
  0
ELLIPSE
  5
B06
330
A02
100
AcDbEntity
  8
View016
100
AcDbEllipse
 10
54.8573
 20
93.0866
 30
0
 11
2.5
 21
-4.47035e-07
 31
0
 40
1.78814e-07
 41
-3.14459
 42
-3.14159
  0
LINE
  5
B07
330
A02
100
AcDbEntity
  8
View016
100
AcDbLine
 10
114.857
 20
86.5866
 30
0
 11
61.4573
 21
86.5866
 31
0
  0
LINE
  5
B08
330
A02
100
AcDbEntity
  8
View016
100
AcDbLine
 10
61.4573
 20
86.5867
 30
0
 11
114.857
 21
86.5866
 31
0
  0
ELLIPSE
  5
B09
330
A02
100
AcDbEntity
  8
View016
100
AcDbEllipse
 10
61.4573
 20
89.0867
 30
0
 11
4.47035e-07
 21
2.5
 31
0
 40
1.19209e-07
 41
3.14159
 42
4.71239
  0
ELLIPSE
  5
B0A
330
A02
100
AcDbEntity
  8
View016
100
AcDbEllipse
 10
61.4573
 20
89.0866
 30
0
 11
-4.47035e-07
 21
-2.5
 31
0
 40
1.19209e-07
 41
-0.00382733
 42
-6.28319
  0
ELLIPSE
  5
B0B
330
A02
100
AcDbEntity
  8
View016
100
AcDbEllipse
 10
61.4573
 20
89.0866
 30
0
 11
-4.47035e-07
 21
-2.5
 31
0
 40
1.19209e-07
 41
-1.5708
 42
-1.15929
  0
ELLIPSE
  5
B0C
330
A02
100
AcDbEntity
  8
View016
100
AcDbEllipse
 10
114.857
 20
89.0866
 30
0
 11
4.47035e-07
 21
2.5
 31
0
 40
1.19209e-07
 41
3.14159
 42
4.71239
  0
ELLIPSE
  5
B0D
330
A02
100
AcDbEntity
  8
View016
100
AcDbEllipse
 10
114.857
 20
89.0866
 30
0
 11
-4.47035e-07
 21
-2.5
 31
0
 40
1.19209e-07
 41
-0.00384597
 42
-6.28319
  0
LINE
  5
B0E
330
A02
100
AcDbEntity
  8
View016
100
AcDbLine
 10
61.4573
 20
95.1866
 30
0
 11
61.4573
 21
89.0866
 31
0
  0
LINE
  5
B0F
330
A02
100
AcDbEntity
  8
View016
100
AcDbLine
 10
61.4573
 20
95.1866
 30
0
 11
61.4573
 21
95.1866
 31
0
  0
ELLIPSE
  5
B10
330
A02
100
AcDbEntity
  8
View016
100
AcDbEllipse
 10
105.257
 20
92.1866
 30
0
 11
1.04006
 21
-0.693374
 31
0
 40
1
 41
9.1893e-06
 42
3.14158
  0
ELLIPSE
  5
B11
330
A02
100
AcDbEntity
  8
View016
100
AcDbEllipse
 10
68.4573
 20
92.1866
 30
0
 11
1.04006
 21
-0.693374
 31
0
 40
1
 41
9.1895e-06
 42
3.14158
  0
LINE
  5
B12
330
A02
100
AcDbEntity
  8
View016
100
AcDbLine
 10
126.857
 20
88.0866
 30
0
 11
126.857
 21
86.5866
 31
0
  0
ELLIPSE
  5
B13
330
A02
100
AcDbEntity
  8
View016
100
AcDbEllipse
 10
126.857
 20
89.0866
 30
0
 11
2.08013
 21
-1.38675
 31
0
 40
1
 41
5.30039
 42
0.588001
  0
LINE
  5
B14
330
A02
100
AcDbEntity
  8
View016
100
AcDbLine
 10
127.857
 20
89.0866
 30
0
 11
129.357
 21
89.0866
 31
0
  0
ELLIPSE
  5
B15
330
A02
100
AcDbEntity
  8
View016
100
AcDbEllipse
 10
127.857
 20
113.687
 30
0
 11
-8.9407e-08
 21
-0.5
 31
0
 40
1.19209e-07
 41
-3.14159
 42
-1.5708
  0
LINE
  5
B16
330
A02
100
AcDbEntity
  8
View016
100
AcDbLine
 10
127.857
 20
89.0866
 30
0
 11
127.857
 21
113.687
 31
0
  0
ELLIPSE
  5
B17
330
A02
100
AcDbEntity
  8
View016
100
AcDbEllipse
 10
127.857
 20
113.687
 30
0
 11
8.9407e-08
 21
0.5
 31
0
 40
1.19209e-07
 41
4.71239
 42
1.78814e-07
  0
ELLIPSE
  5
B18
330
A02
100
AcDbEntity
  8
View016
100
AcDbEllipse
 10
127.857
 20
96.2866
 30
0
 11
-1.78814e-07
 21
-1
 31
0
 40
1.19209e-07
 41
-6.28319
 42
-4.71239
  0
ELLIPSE
  5
B19
330
A02
100
AcDbEntity
  8
View016
100
AcDbEllipse
 10
127.857
 20
107.587
 30
0
 11
1.78814e-07
 21
1
 31
0
 40
1.19209e-07
 41
4.71239
 42
0
  0
ELLIPSE
  5
B1A
330
A02
100
AcDbEntity
  8
View016
100
AcDbEllipse
 10
127.857
 20
96.2866
 30
0
 11
1.78814e-07
 21
1
 31
0
 40
1.19209e-07
 41
1.5708
 42
3.14159
  0
ELLIPSE
  5
B1B
330
A02
100
AcDbEntity
  8
View016
100
AcDbEllipse
 10
127.857
 20
107.587
 30
0
 11
1.78814e-07
 21
1
 31
0
 40
1.19209e-07
 41
1.78814e-07
 42
1.5708
  0
LINE
  5
B1C
330
A02
100
AcDbEntity
  8
View016
100
AcDbLine
 10
127.857
 20
107.587
 30
0
 11
127.857
 21
96.2866
 31
0
  0
LINE
  5
B1D
330
A02
100
AcDbEntity
  8
View016
100
AcDbLine
 10
127.857
 20
109.937
 30
0
 11
127.857
 21
95.5366
 31
0
  0
LINE
  5
B1E
330
A02
100
AcDbEntity
  8
View016
100
AcDbLine
 10
61.4573
 20
89.0867
 30
0
 11
114.857
 21
89.0866
 31
0
  0
LINE
  5
B1F
330
A02
100
AcDbEntity
  8
View016
100
AcDbLine
 10
61.4573
 20
89.0867
 30
0
 11
61.4573
 21
95.1867
 31
0
  0
LINE
  5
B20
330
A02
100
AcDbEntity
  8
View016
100
AcDbLine
 10
114.857
 20
95.1866
 30
0
 11
114.857
 21
89.0866
 31
0
  0
LINE
  5
B21
330
A02
100
AcDbEntity
  8
View016
100
AcDbLine
 10
61.4573
 20
95.1867
 30
0
 11
114.857
 21
95.1866
 31
0
  0
ELLIPSE
  5
B22
330
A02
100
AcDbEntity
  8
View016
100
AcDbEllipse
 10
105.257
 20
92.1866
 30
0
 11
1.04006
 21
-0.693374
 31
0
 40
1
 41
0
 42
6.28318
  0
ELLIPSE
  5
B23
330
A02
100
AcDbEntity
  8
View016
100
AcDbEllipse
 10
68.4573
 20
92.1867
 30
0
 11
1.04006
 21
-0.693374
 31
0
 40
1
 41
0
 42
6.28318
  0
LINE
  5
B24
330
A02
100
AcDbEntity
  8
View016
100
AcDbLine
 10
129.357
 20
89.0866
 30
0
 11
129.357
 21
113.687
 31
0
  0
LINE
  5
B25
330
A02
100
AcDbEntity
  8
View016
100
AcDbLine
 10
127.857
 20
114.187
 30
0
 11
127.857
 21
114.187
 31
0
  0
LINE
  5
B26
330
A02
100
AcDbEntity
  8
View016
100
AcDbLine
 10
127.857
 20
114.187
 30
0
 11
129.357
 21
114.187
 31
0
  0
ELLIPSE
  5
B27
330
A02
100
AcDbEntity
  8
View016
100
AcDbEllipse
 10
129.357
 20
113.687
 30
0
 11
8.9407e-08
 21
0.5
 31
0
 40
1.19209e-07
 41
4.71239
 42
1.78814e-07
  0
LINE
  5
B28
330
A02
100
AcDbEntity
  8
View016
100
AcDbLine
 10
127.857
 20
95.2866
 30
0
 11
127.857
 21
95.2866
 31
0
  0
LINE
  5
B29
330
A02
100
AcDbEntity
  8
View016
100
AcDbLine
 10
127.857
 20
108.587
 30
0
 11
127.857
 21
108.587
 31
0
  0
LINE
  5
B2A
330
A02
100
AcDbEntity
  8
View016
100
AcDbLine
 10
127.857
 20
95.2866
 30
0
 11
127.857
 21
95.2866
 31
0
  0
LINE
  5
B2B
330
A02
100
AcDbEntity
  8
View016
100
AcDbLine
 10
127.857
 20
108.587
 30
0
 11
127.857
 21
108.587
 31
0
  0
LINE
  5
B2C
330
A02
100
AcDbEntity
  8
View016
100
AcDbLine
 10
127.857
 20
109.937
 30
0
 11
127.857
 21
109.937
 31
0
  0
LINE
  5
B2D
330
A02
100
AcDbEntity
  8
View016
100
AcDbLine
 10
127.857
 20
95.5366
 30
0
 11
127.857
 21
95.5366
 31
0
  0
LINE
  5
B2E
330
A02
100
AcDbEntity
  8
View016
100
AcDbLine
 10
46.9573
 20
98.6867
 30
0
 11
46.9573
 21
98.6867
 31
0
  0
LINE
  5
B2F
330
A02
100
AcDbEntity
  8
View016
100
AcDbLine
 10
46.9573
 20
94.6867
 30
0
 11
46.9573
 21
94.6867
 31
0
  0
LINE
  5
B30
330
A02
100
AcDbEntity
  8
View016
100
AcDbLine
 10
46.9573
 20
98.6867
 30
0
 11
46.9573
 21
98.6867
 31
0
  0
LINE
  5
B31
330
A02
100
AcDbEntity
  8
View016
100
AcDbLine
 10
46.9573
 20
94.6866
 30
0
 11
46.9573
 21
94.6866
 31
0
  0
LINE
  5
B32
330
A02
100
AcDbEntity
  8
View016
100
AcDbLine
 10
117.357
 20
93.0866
 30
0
 11
117.357
 21
88.0866
 31
0
  0
LINE
  5
B33
330
A02
100
AcDbEntity
  8
View016
100
AcDbLine
 10
122.357
 20
93.0866
 30
0
 11
122.357
 21
88.0866
 31
0
  0
LINE
  5
B34
330
A02
100
AcDbEntity
  8
View016
100
AcDbLine
 10
118.507
 20
86.5866
 30
0
 11
118.507
 21
86.5866
 31
0
  0
LINE
  5
B35
330
A02
100
AcDbEntity
  8
View016
100
AcDbLine
 10
115.207
 20
86.5866
 30
0
 11
115.207
 21
86.5866
 31
0
  0
LINE
  5
B36
330
A02
100
AcDbEntity
  8
View016
100
AcDbLine
 10
117.357
 20
93.0866
 30
0
 11
117.357
 21
88.0866
 31
0
  0
LINE
  5
B37
330
A02
100
AcDbEntity
  8
View016
100
AcDbLine
 10
52.3573
 20
93.0867
 30
0
 11
52.3573
 21
88.0867
 31
0
  0
LINE
  5
B38
330
A02
100
AcDbEntity
  8
View016
100
AcDbLine
 10
57.3573
 20
93.0867
 30
0
 11
57.3573
 21
88.0867
 31
0
  0
LINE
  5
B39
330
A02
100
AcDbEntity
  8
View016
100
AcDbLine
 10
58.5073
 20
86.5866
 30
0
 11
58.5073
 21
86.5867
 31
0
  0
LINE
  5
B3A
330
A02
100
AcDbEntity
  8
View016
100
AcDbLine
 10
55.2073
 20
86.5866
 30
0
 11
55.2073
 21
86.5867
 31
0
  0
LINE
  5
B3B
330
A02
100
AcDbEntity
  8
View016
100
AcDbLine
 10
52.3573
 20
93.0866
 30
0
 11
52.3573
 21
88.0867
 31
0
  0
LINE
  5
B3C
330
A02
100
AcDbEntity
  8
View016
100
AcDbLine
 10
127.857
 20
108.587
 30
0
 11
127.857
 21
108.587
 31
0
  0
LINE
  5
B3D
330
A02
100
AcDbEntity
  8
View016
100
AcDbLine
 10
127.857
 20
95.2866
 30
0
 11
127.857
 21
95.2866
 31
0
  0
LINE
  5
B3E
330
A02
100
AcDbEntity
  8
View016
100
AcDbLine
 10
48.4573
 20
113.687
 30
0
 11
46.9573
 21
113.687
 31
0
  0
LINE
  5
B3F
330
A02
100
AcDbEntity
  8
View016
100
AcDbLine
 10
46.9573
 20
114.187
 30
0
 11
46.9573
 21
114.187
 31
0
  0
LINE
  5
B40
330
A02
100
AcDbEntity
  8
View016
100
AcDbLine
 10
46.9573
 20
113.687
 30
0
 11
46.9573
 21
113.687
 31
0
  0
LINE
  5
B41
330
A02
100
AcDbEntity
  8
View016
100
AcDbLine
 10
46.9573
 20
95.6867
 30
0
 11
46.9573
 21
95.6867
 31
0
  0
LINE
  5
B42
330
A02
100
AcDbEntity
  8
View016
100
AcDbLine
 10
46.9573
 20
97.6867
 30
0
 11
46.9573
 21
97.6867
 31
0
  0
LINE
  5
B43
330
A02
100
AcDbEntity
  8
View016
100
AcDbLine
 10
46.9573
 20
94.6867
 30
0
 11
46.9573
 21
94.6867
 31
0
  0
LINE
  5
B44
330
A02
100
AcDbEntity
  8
View016
100
AcDbLine
 10
46.9573
 20
98.6867
 30
0
 11
46.9573
 21
98.6867
 31
0
  0
LINE
  5
B45
330
A02
100
AcDbEntity
  8
View016
100
AcDbLine
 10
46.9573
 20
95.6867
 30
0
 11
46.9573
 21
95.6867
 31
0
  0
LINE
  5
B46
330
A02
100
AcDbEntity
  8
View016
100
AcDbLine
 10
46.9573
 20
97.6867
 30
0
 11
46.9573
 21
97.6867
 31
0
  0
LINE
  5
B47
330
A02
100
AcDbEntity
  8
View016
100
AcDbLine
 10
46.9573
 20
95.6867
 30
0
 11
46.9573
 21
95.6867
 31
0
  0
LINE
  5
B48
330
A02
100
AcDbEntity
  8
View016
100
AcDbLine
 10
46.9573
 20
97.6867
 30
0
 11
46.9573
 21
97.6867
 31
0
  0
LINE
  5
B49
330
A02
100
AcDbEntity
  8
View016
100
AcDbLine
 10
46.9573
 20
94.6866
 30
0
 11
46.9573
 21
94.6866
 31
0
  0
LINE
  5
B4A
330
A02
100
AcDbEntity
  8
View016
100
AcDbLine
 10
46.9573
 20
98.6866
 30
0
 11
46.9573
 21
98.6866
 31
0
  0
LINE
  5
B4B
330
A02
100
AcDbEntity
  8
View016
100
AcDbLine
 10
46.9573
 20
95.6866
 30
0
 11
46.9573
 21
95.6866
 31
0
  0
LINE
  5
B4C
330
A02
100
AcDbEntity
  8
View016
100
AcDbLine
 10
46.9573
 20
97.6866
 30
0
 11
46.9573
 21
97.6866
 31
0
  0
LINE
  5
B4D
330
A02
100
AcDbEntity
  8
View016
100
AcDbLine
 10
127.857
 20
113.687
 30
0
 11
127.857
 21
113.687
 31
0
  0
LINE
  5
B4E
330
A02
100
AcDbEntity
  8
View016
100
AcDbLine
 10
127.857
 20
113.687
 30
0
 11
129.357
 21
113.687
 31
0
  0
LINE
  5
B4F
330
A02
100
AcDbEntity
  8
View016
100
AcDbLine
 10
127.857
 20
114.187
 30
0
 11
129.357
 21
114.187
 31
0
  0
LINE
  5
B50
330
A02
100
AcDbEntity
  8
View016
100
AcDbLine
 10
127.857
 20
96.2866
 30
0
 11
127.857
 21
96.2866
 31
0
  0
LINE
  5
B51
330
A02
100
AcDbEntity
  8
View016
100
AcDbLine
 10
127.857
 20
107.587
 30
0
 11
127.857
 21
107.587
 31
0
  0
LINE
  5
B52
330
A02
100
AcDbEntity
  8
View016
100
AcDbLine
 10
127.857
 20
95.2866
 30
0
 11
127.857
 21
95.2866
 31
0
  0
LINE
  5
B53
330
A02
100
AcDbEntity
  8
View016
100
AcDbLine
 10
127.857
 20
108.587
 30
0
 11
127.857
 21
108.587
 31
0
  0
LINE
  5
B54
330
A02
100
AcDbEntity
  8
View016
100
AcDbLine
 10
127.857
 20
96.2866
 30
0
 11
127.857
 21
96.2866
 31
0
  0
LINE
  5
B55
330
A02
100
AcDbEntity
  8
View016
100
AcDbLine
 10
127.857
 20
107.587
 30
0
 11
127.857
 21
107.587
 31
0
  0
LINE
  5
B56
330
A02
100
AcDbEntity
  8
View016
100
AcDbLine
 10
116.857
 20
86.5866
 30
0
 11
116.857
 21
86.5866
 31
0
  0
LINE
  5
B57
330
A02
100
AcDbEntity
  8
View016
100
AcDbLine
 10
56.8573
 20
86.5866
 30
0
 11
56.8573
 21
86.5867
 31
0
  0
DIMENSION
  5
B58
330
A02
100
AcDbEntity
  8
Dimension
100
AcDbDimension
  2
*Dimension
 10
56.2105
 20
78.7551
 30
0
 11
57.202
 21
83.6558
 31
0
 70
32
  1
21.5
  3
STANDARD
100
AcDbAlignedDimension
 13
46.9573
 23
89.0867
 33
0
 14
68.4573
 24
93.4367
 34
0
100
AcDbRotatedDimension
  0
DIMENSION
  5
B62
330
A02
100
AcDbEntity
  8
Dimension001
100
AcDbDimension
  2
*Dimension001
 10
119.758
 20
78.561
 30
0
 11
118.87
 21
83.4815
 31
0
 70
32
  1
24.1
  3
STANDARD
100
AcDbAlignedDimension
 13
105.257
 23
93.4366
 33
0
 14
129.357
 24
89.0866
 34
0
100
AcDbRotatedDimension
  0
DIMENSION
  5
B6C
330
A02
100
AcDbEntity
  8
Dimension002
100
AcDbDimension
  2
*Dimension002
 10
171.791
 20
87.9128
 30
0
 11
171.409
 21
82.9274
 31
0
 70
32
  1
24.1
  3
STANDARD
100
AcDbAlignedDimension
 13
183.623
 23
92.0438
 33
0
 14
159.523
 24
90.1938
 34
0
100
AcDbRotatedDimension
  0
DIMENSION
  5
B76
330
A02
100
AcDbEntity
  8
Dimension003
100
AcDbDimension
  2
*Dimension003
 10
231.273
 20
79.1795
 30
0
 11
230.844
 21
84.1611
 31
0
 70
32
  1
21.5
  3
STANDARD
100
AcDbAlignedDimension
 13
220.423
 23
92.0438
 33
0
 14
241.923
 24
90.1938
 34
0
100
AcDbRotatedDimension
  0
ENDSEC
  0
SECTION
  2
OBJECTS
  0
DICTIONARY
  5
F000
330
0
100
AcDbDictionary
  3
ACAD_GROUP
350
F001
  0
DICTIONARY
  5
F001
330
F000
100
AcDbDictionary
  0
ENDSEC
  0
EOF