999
FreeCAD v0.20 29603 (Git)
  0
SECTION
  2
HEADER
  9
$ACADVER
  1
AC1014
  9
$ACADMAINTVER
 70
     9
  9
$DWGCODEPAGE
  3
ANSI_1252
  9
$TEXTSTYLE
  7
STANDARD
  9
$DIMSTYLE
  2
STANDARD
  9
$DIMTXSTY
  7
STANDARD
  9
$CMLSTYLE
  2
STANDARD
  9
$LUNITS
 70
2
  9
$INSUNITS
 70
4
  9
$PEXTMAX
 10
50
 20
50
 30
50
  9
$PEXTMIN
 10
0
 20
0
 30
0
  9
$HANDSEED
  5
FFFF
  0
ENDSEC
  0
SECTION
  2
CLASSES
  0
CLASS
  1
ACDBDICTIONARYWDFLT
  2
AcDbDictionaryWithDefault
  3
ObjectDBX Classes
 90
        0
280
     0
281
     0
  0
CLASS
  1
XRECORD
  2
AcDbXrecord
  3
ObjectDBX Classes
 90
        0
280
     0
281
     0
  0
CLASS
  1
LWPOLYLINE
  2
AcDbPolyline
  3
ObjectDBX Classes
 90
        0
280
     0
281
     1
  0
ENDSEC
  0
SECTION
  2
TABLES
  0
TABLE
  2
VPORT
  5
20
330
0
100
AcDbSymbolTable
 70
     1
  0
VPORT
  5
21
330
20
100
AcDbSymbolTableRecord
100
AcDbViewportTableRecord
  2
*ACTIVE
 70
     0
  0
ENDTAB
  0
TABLE
  2
LTYPE
  5
22
330
0
100
AcDbSymbolTable
 70
     1
  0
LTYPE
  5
23
330
21
100
AcDbSymbolTableRecord
100
AcDbLinetypeTableRecord
  2
BYBLOCK
 70
     0
  3

 72
    65
 73
     0
 40
0.0
  0
LTYPE
  5
24
330
21
100
AcDbSymbolTableRecord
100
AcDbLinetypeTableRecord
  2
BYLAYER
 70
     0
  3

 72
    65
 73
     0
 40
0.0
  0
LTYPE
  5
25
330
21
100
AcDbSymbolTableRecord
100
AcDbLinetypeTableRecord
  2
CONTINUOUS
 70
     0
  3
Solid line
 72
    65
 73
     0
 40
0.0
  0
ENDTAB
  0
TABLE
  2
LAYER
  5
A94
330
0
100
AcDbSymbolTable
 70
6
  0
LAYER
  5
A95
330
A94
100
AcDbSymbolTableRecord
100
AcDbLayerTableRecord
  2
0
 70
   0
 62
   7
  6
CONTINUOUS
  0
LAYER
  5
A96
330
A94
100
AcDbSymbolTableRecord
100
AcDbLayerTableRecord
  2
View008
 70
    0
 62
    7
  6
CONTINUOUS
  0
LAYER
  5
A97
330
A94
100
AcDbSymbolTableRecord
100
AcDbLayerTableRecord
  2
View009
 70
    0
 62
    7
  6
CONTINUOUS
  0
LAYER
  5
A98
330
A94
100
AcDbSymbolTableRecord
100
AcDbLayerTableRecord
  2
View010
 70
    0
 62
    7
  6
CONTINUOUS
  0
LAYER
  5
A99
330
A94
100
AcDbSymbolTableRecord
100
AcDbLayerTableRecord
  2
View011
 70
    0
 62
    7
  6
CONTINUOUS
  0
LAYER
  5
A9A
330
A94
100
AcDbSymbolTableRecord
100
AcDbLayerTableRecord
  2
View012
 70
    0
 62
    7
  6
CONTINUOUS
  0
ENDTAB
  0
TABLE
  2
STYLE
  5
70
330
0
100
AcDbSymbolTable
 70
     2
  0
STYLE
  5
71
330
70
100
AcDbSymbolTableRecord
100
AcDbTextStyleTableRecord
  2
STANDARD
 70
     0
 40
0.0
 41
1.0
 50
0.0
 71
     0
 42
2.5
  3
arial.ttf
  4

  0
STYLE
  5
72
330
70
100
AcDbSymbolTableRecord
100
AcDbTextStyleTableRecord
  2
ANNOTATIVE
 70
     0
 40
0.0
 41
1.0
 50
0.0
 71
     0
 42
2.5
  3
arial.ttf
  4

  0
ENDTAB
  0
TABLE
  2
VIEW
  5
73
330
0
100
AcDbSymbolTable
 70
     0
  0
ENDTAB
  0
TABLE
  2
UCS
  5
74
330
0
100
AcDbSymbolTable
 70
     0
  0
ENDTAB
  0
TABLE
  2
APPID
  5
75
330
0
100
AcDbSymbolTable
 70
     2
  0
APPID
  5
76
330
75
100
AcDbSymbolTableRecord
100
AcDbRegAppTableRecord
  2
ACAD
 70
     0
  0
APPID
  5
77
330
75
100
AcDbSymbolTableRecord
100
AcDbRegAppTableRecord
  2
ACADANNOTATIVE
 70
     0
  0
ENDTAB
  0
TABLE
  2
DIMSTYLE
  5
78
330
0
100
AcDbSymbolTable
 70
     2
  0
DIMSTYLE
105
79
330
78
100
AcDbSymbolTableRecord
100
AcDbDimStyleTableRecord
  2
STANDARD
 70
     0
  3

  4

  5

  6

  7

 40
0.0
 41
2.5
 42
0.625
 43
3.75
 44
1.25
 45
0.0
 46
0.0
 47
0.0
 48
0.0
140
2.5
141
2.5
142
0.0
143
0.03937007874016
144
1.0
145
0.0
146
1.0
147
0.625
 71
     0
 72
     0
 73
     0
 74
     0
 75
     0
 76
     0
 77
     1
 78
     8
170
     0
171
     3
172
     1
173
     0
174
     0
175
     0
176
     0
177
     0
178
     0
270
     2
271
     2
272
     2
273
     2
274
     3
340
71
275
     0
280
     0
281
     0
282
     0
283
     0
284
     8
285
     0
286
     0
287
     3
288
     0
  0
ENDTAB
  0
TABLE
  2
BLOCK_RECORD
  5
A01
330
0
100
AcDbSymbolTable
  70
5
  0
BLOCK_RECORD
  5
A02
330
A01
100
AcDbSymbolTableRecord
100
AcDbBlockTableRecord
  2
*MODEL_SPACE
  0
BLOCK_RECORD
  5
A03
330
A01
100
AcDbSymbolTableRecord
100
AcDbBlockTableRecord
  2
*PAPER_SPACE
  0
ENDTAB
  0
ENDSEC
  0
SECTION
  2
BLOCKS
  0
BLOCK
  5
A04
330
A02
100
AcDbEntity
  8
0
100
AcDbBlockBegin
  2
*MODEL_SPACE
 70
   0
 10
0
 20
0
 30
0
  3
*MODEL_SPACE
  1
 
  0
ENDBLK
  5
A05
330
A02
100
AcDbEntity
  8
0
100
AcDbBlockEnd
  0
BLOCK
  5
A06
330
A03
100
AcDbEntity
 67
1
  8
0
100
AcDbBlockBegin
  2
*PAPER_SPACE
 70
   0
 10
0
 20
0
 30
0
  3
*PAPER_SPACE
  1
 
  0
ENDBLK
  5
A07
330
A03
100
AcDbEntity
 67
    1
  8
0
100
AcDbBlockEnd
  0
ENDSEC
  0
SECTION
  2
ENTITIES
  0
LINE
  5
A08
330
A02
100
AcDbEntity
  8
View008
100
AcDbLine
 10
7.516
 20
150.237
 30
0
 11
7.516
 21
169.915
 31
0
  0
ELLIPSE
  5
A09
330
A02
100
AcDbEntity
  8
View008
100
AcDbEllipse
 10
9.28377
 20
151.258
 30
0
 11
1.25
 21
2.16506
 31
0
 40
0.57735
 41
-3.14159
 42
-2.35619
  0
ELLIPSE
  5
A0A
330
A02
100
AcDbEntity
  8
View008
100
AcDbEllipse
 10
9.28377
 20
151.258
 30
0
 11
1.25
 21
2.16506
 31
0
 40
0.57735
 41
-3.92699
 42
-3.14159
  0
LINE
  5
A0B
330
A02
100
AcDbEntity
  8
View008
100
AcDbLine
 10
7.516
 20
169.915
 30
0
 11
8.22311
 21
170.323
 31
0
  0
LINE
  5
A0C
330
A02
100
AcDbEntity
  8
View008
100
AcDbLine
 10
27.0321
 20
159.464
 30
0
 11
9.28377
 21
149.217
 31
0
  0
ELLIPSE
  5
A0D
330
A02
100
AcDbEntity
  8
View008
100
AcDbEllipse
 10
66.4887
 20
203.146
 30
0
 11
-1.25
 21
2.16506
 31
0
 40
0.57735
 41
5.49779
 42
0
  0
LINE
  5
A0E
330
A02
100
AcDbEntity
  8
View008
100
AcDbLine
 10
6.45534
 20
150.85
 30
0
 11
6.45534
 21
170.527
 31
0
  0
ELLIPSE
  5
A0F
330
A02
100
AcDbEntity
  8
View008
100
AcDbEllipse
 10
8.22311
 20
151.87
 30
0
 11
1.25
 21
2.16506
 31
0
 40
0.57735
 41
-3.92699
 42
-3.14159
  0
LINE
  5
A10
330
A02
100
AcDbEntity
  8
View008
100
AcDbLine
 10
6.45534
 20
170.527
 30
0
 11
7.516
 21
169.915
 31
0
  0
ELLIPSE
  5
A11
330
A02
100
AcDbEntity
  8
View008
100
AcDbEllipse
 10
8.22311
 20
169.507
 30
0
 11
-0.5
 21
0.866025
 31
0
 40
0.57735
 41
5.49779
 42
0
  0
ELLIPSE
  5
A12
330
A02
100
AcDbEntity
  8
View008
100
AcDbEllipse
 10
8.22311
 20
169.507
 30
0
 11
-0.5
 21
0.866025
 31
0
 40
0.57735
 41
0
 42
0.785398
  0
ELLIPSE
  5
A13
330
A02
100
AcDbEntity
  8
View008
100
AcDbEllipse
 10
8.22311
 20
169.507
 30
0
 11
-1.25
 21
2.16506
 31
0
 40
0.57735
 41
5.49779
 42
0
  0
ELLIPSE
  5
A14
330
A02
100
AcDbEntity
  8
View008
100
AcDbEllipse
 10
8.22311
 20
169.507
 30
0
 11
-1.25
 21
2.16506
 31
0
 40
0.57735
 41
0
 42
0.785398
  0
LINE
  5
A15
330
A02
100
AcDbEntity
  8
View008
100
AcDbLine
 10
8.22311
 20
171.548
 30
0
 11
66.4887
 21
205.187
 31
0
  0
LINE
  5
A16
330
A02
100
AcDbEntity
  8
View008
100
AcDbLine
 10
66.4887
 20
205.187
 30
0
 11
141.725
 21
161.75
 31
0
  0
LINE
  5
A17
330
A02
100
AcDbEntity
  8
View008
100
AcDbLine
 10
8.22311
 20
170.323
 30
0
 11
8.22311
 21
171.548
 31
0
  0
LINE
  5
A18
330
A02
100
AcDbEntity
  8
View008
100
AcDbLine
 10
83.4593
 20
126.885
 30
0
 11
8.22311
 21
170.323
 31
0
  0
ELLIPSE
  5
A19
330
A02
100
AcDbEntity
  8
View008
100
AcDbEllipse
 10
95.1265
 20
144.236
 30
0
 11
1.6
 21
9.79717e-17
 31
0
 40
0.57735
 41
0.724702
 42
2.41689
  0
ELLIPSE
  5
A1A
330
A02
100
AcDbEntity
  8
View008
100
AcDbEllipse
 10
99.3692
 20
146.685
 30
0
 11
1.6
 21
9.79717e-17
 31
0
 40
0.57735
 41
0.724702
 42
2.41689
  0
ELLIPSE
  5
A1B
330
A02
100
AcDbEntity
  8
View008
100
AcDbEllipse
 10
103.612
 20
149.135
 30
0
 11
1.6
 21
9.79717e-17
 31
0
 40
0.57735
 41
0.724702
 42
2.41689
  0
LINE
  5
A1C
330
A02
100
AcDbEntity
  8
View008
100
AcDbLine
 10
141.725
 20
161.75
 30
0
 11
83.4593
 21
128.11
 31
0
  0
LINE
  5
A1D
330
A02
100
AcDbEntity
  8
View008
100
AcDbLine
 10
83.4593
 20
128.11
 30
0
 11
8.22311
 21
171.548
 31
0
  0
ELLIPSE
  5
A1E
330
A02
100
AcDbEntity
  8
View008
100
AcDbEllipse
 10
95.1265
 20
145.461
 30
0
 11
1.6
 21
9.79717e-17
 31
0
 40
0.57735
 41
5.49779
 42
0
  0
ELLIPSE
  5
A1F
330
A02
100
AcDbEntity
  8
View008
100
AcDbEllipse
 10
95.1265
 20
145.461
 30
0
 11
1.6
 21
9.79717e-17
 31
0
 40
0.57735
 41
1.11022e-16
 42
3.14159
  0
ELLIPSE
  5
A20
330
A02
100
AcDbEntity
  8
View008
100
AcDbEllipse
 10
95.1265
 20
145.461
 30
0
 11
1.6
 21
9.79717e-17
 31
0
 40
0.57735
 41
3.14159
 42
5.49779
  0
ELLIPSE
  5
A21
330
A02
100
AcDbEntity
  8
View008
100
AcDbEllipse
 10
99.3692
 20
147.91
 30
0
 11
1.6
 21
9.79717e-17
 31
0
 40
0.57735
 41
5.49779
 42
0
  0
ELLIPSE
  5
A22
330
A02
100
AcDbEntity
  8
View008
100
AcDbEllipse
 10
99.3692
 20
147.91
 30
0
 11
1.6
 21
9.79717e-17
 31
0
 40
0.57735
 41
1.11022e-16
 42
3.14159
  0
ELLIPSE
  5
A23
330
A02
100
AcDbEntity
  8
View008
100
AcDbEllipse
 10
99.3692
 20
147.91
 30
0
 11
1.6
 21
9.79717e-17
 31
0
 40
0.57735
 41
3.14159
 42
5.49779
  0
ELLIPSE
  5
A24
330
A02
100
AcDbEntity
  8
View008
100
AcDbEllipse
 10
103.612
 20
150.36
 30
0
 11
1.6
 21
9.79717e-17
 31
0
 40
0.57735
 41
5.49779
 42
0
  0
ELLIPSE
  5
A25
330
A02
100
AcDbEntity
  8
View008
100
AcDbEllipse
 10
103.612
 20
150.36
 30
0
 11
1.6
 21
9.79717e-17
 31
0
 40
0.57735
 41
1.11022e-16
 42
3.14159
  0
ELLIPSE
  5
A26
330
A02
100
AcDbEntity
  8
View008
100
AcDbEllipse
 10
103.612
 20
150.36
 30
0
 11
1.6
 21
9.79717e-17
 31
0
 40
0.57735
 41
3.14159
 42
5.49779
  0
ELLIPSE
  5
A27
330
A02
100
AcDbEntity
  8
View008
100
AcDbEllipse
 10
141.725
 20
159.709
 30
0
 11
1.25
 21
-2.16506
 31
0
 40
0.57735
 41
-5.49779
 42
-3.92699
  0
LINE
  5
A28
330
A02
100
AcDbEntity
  8
View008
100
AcDbLine
 10
83.4593
 20
128.11
 30
0
 11
83.4593
 21
126.885
 31
0
  0
ELLIPSE
  5
A29
330
A02
100
AcDbEntity
  8
View008
100
AcDbEllipse
 10
83.4593
 20
126.069
 30
0
 11
0.5
 21
-0.866025
 31
0
 40
0.57735
 41
-5.49779
 42
-3.92699
  0
ELLIPSE
  5
A2A
330
A02
100
AcDbEntity
  8
View008
100
AcDbEllipse
 10
83.4593
 20
126.069
 30
0
 11
1.25
 21
-2.16506
 31
0
 40
0.57735
 41
-5.49779
 42
-3.92699
  0
LINE
  5
A2B
330
A02
100
AcDbEntity
  8
View008
100
AcDbLine
 10
85.227
 20
125.048
 30
0
 11
143.493
 21
158.688
 31
0
  0
LINE
  5
A2C
330
A02
100
AcDbEntity
  8
View008
100
AcDbLine
 10
143.493
 20
139.01
 30
0
 11
143.493
 21
158.688
 31
0
  0
LINE
  5
A2D
330
A02
100
AcDbEntity
  8
View008
100
AcDbLine
 10
84.1664
 20
125.661
 30
0
 11
85.227
 21
125.048
 31
0
  0
LINE
  5
A2E
330
A02
100
AcDbEntity
  8
View008
100
AcDbLine
 10
84.1664
 20
125.661
 30
0
 11
84.1664
 21
105.983
 31
0
  0
ELLIPSE
  5
A2F
330
A02
100
AcDbEntity
  8
View008
100
AcDbEllipse
 10
85.9341
 20
107.004
 30
0
 11
1.25
 21
2.16506
 31
0
 40
0.57735
 41
-3.92699
 42
-3.14159
  0
ELLIPSE
  5
A30
330
A02
100
AcDbEntity
  8
View008
100
AcDbEllipse
 10
101.208
 20
118.353
 30
0
 11
-0.625
 21
-1.08253
 31
0
 40
0.57735
 41
1.0132
 42
2.1284
  0
ELLIPSE
  5
A31
330
A02
100
AcDbEntity
  8
View008
100
AcDbEllipse
 10
127.229
 20
133.377
 30
0
 11
-0.625
 21
-1.08253
 31
0
 40
0.57735
 41
1.0132
 42
2.1284
  0
LINE
  5
A32
330
A02
100
AcDbEntity
  8
View008
100
AcDbLine
 10
85.227
 20
125.048
 30
0
 11
85.227
 21
105.371
 31
0
  0
ELLIPSE
  5
A33
330
A02
100
AcDbEntity
  8
View008
100
AcDbEllipse
 10
86.9948
 20
106.391
 30
0
 11
1.25
 21
2.16506
 31
0
 40
0.57735
 41
-3.14159
 42
-2.35619
  0
ELLIPSE
  5
A34
330
A02
100
AcDbEntity
  8
View008
100
AcDbEllipse
 10
86.9948
 20
106.391
 30
0
 11
1.25
 21
2.16506
 31
0
 40
0.57735
 41
-3.92699
 42
-3.14159
  0
LINE
  5
A35
330
A02
100
AcDbEntity
  8
View008
100
AcDbLine
 10
86.9948
 20
104.35
 30
0
 11
141.725
 21
135.949
 31
0
  0
ELLIPSE
  5
A36
330
A02
100
AcDbEntity
  8
View008
100
AcDbEllipse
 10
141.725
 20
137.99
 30
0
 11
1.25
 21
2.16506
 31
0
 40
0.57735
 41
-2.35619
 42
-0.785398
  0
ELLIPSE
  5
A37
330
A02
100
AcDbEntity
  8
View008
100
AcDbEllipse
 10
102.268
 20
117.741
 30
0
 11
-0.625
 21
-1.08253
 31
0
 40
0.57735
 41
0.785398
 42
3.14159
  0
ELLIPSE
  5
A38
330
A02
100
AcDbEntity
  8
View008
100
AcDbEllipse
 10
102.268
 20
117.741
 30
0
 11
-0.625
 21
-1.08253
 31
0
 40
0.57735
 41
3.14159
 42
0
  0
ELLIPSE
  5
A39
330
A02
100
AcDbEntity
  8
View008
100
AcDbEllipse
 10
102.268
 20
117.741
 30
0
 11
-0.625
 21
-1.08253
 31
0
 40
0.57735
 41
0
 42
0.785398
  0
ELLIPSE
  5
A3A
330
A02
100
AcDbEntity
  8
View008
100
AcDbEllipse
 10
128.29
 20
132.764
 30
0
 11
-0.625
 21
-1.08253
 31
0
 40
0.57735
 41
0.785398
 42
3.14159
  0
ELLIPSE
  5
A3B
330
A02
100
AcDbEntity
  8
View008
100
AcDbEllipse
 10
128.29
 20
132.764
 30
0
 11
-0.625
 21
-1.08253
 31
0
 40
0.57735
 41
3.14159
 42
0
  0
ELLIPSE
  5
A3C
330
A02
100
AcDbEntity
  8
View008
100
AcDbEllipse
 10
128.29
 20
132.764
 30
0
 11
-0.625
 21
-1.08253
 31
0
 40
0.57735
 41
0
 42
0.785398
  0
LINE
  5
A3D
330
A02
100
AcDbEntity
  8
View008
100
AcDbLine
 10
8.03377
 20
149.093
 30
0
 11
6.97311
 21
149.705
 31
0
  0
LINE
  5
A3E
330
A02
100
AcDbEntity
  8
View008
100
AcDbLine
 10
65.2387
 20
205.311
 30
0
 11
6.97311
 21
171.672
 31
0
  0
LINE
  5
A3F
330
A02
100
AcDbEntity
  8
View008
100
AcDbLine
 10
84.6841
 20
104.839
 30
0
 11
85.7448
 21
104.226
 31
0
  0
LINE
  5
A40
330
A02
100
AcDbEntity
  8
View008
100
AcDbLine
 10
7.516
 20
150.237
 30
0
 11
6.45534
 21
150.85
 31
0
  0
LINE
  5
A41
330
A02
100
AcDbEntity
  8
View008
100
AcDbLine
 10
84.1664
 20
105.983
 30
0
 11
85.227
 21
105.371
 31
0
  0
LINE
  5
A42
330
A02
100
AcDbEntity
  8
View008
100
AcDbLine
 10
102.268
 20
116.72
 30
0
 11
101.384
 21
117.23
 31
0
  0
LINE
  5
A43
330
A02
100
AcDbEntity
  8
View008
100
AcDbLine
 10
128.29
 20
131.744
 30
0
 11
127.406
 21
132.254
 31
0
  0
SPLINE
  5
A44
330
A02
100
AcDbEntity
  8
View009
100
AcDbSpline
210
0
220
0
230
1
 70
8
 71
2
 72
30
 73
27
 74
0
 40
0
 40
0
 40
0
 40
0.1122
 40
0.1122
 40
0.336599
 40
0.336599
 40
0.448799
 40
0.448799
 40
0.560999
 40
0.560999
 40
0.673198
 40
0.673198
 40
0.785398
 40
0.785398
 40
0.897598
 40
0.897598
 40
1.0098
 40
1.0098
 40
1.122
 40
1.122
 40
1.2342
 40
1.2342
 40
1.3464
 40
1.3464
 40
1.4586
 40
1.4586
 40
1.5708
 40
1.5708
 40
1.5708
 10
169.173
 20
106.662
 30
0
 10
169.033
 20
106.662
 30
0
 10
168.893
 20
106.662
 30
0
 10
168.615
 20
106.662
 30
0
 10
168.347
 20
106.662
 30
0
 10
168.218
 20
106.662
 30
0
 10
168.088
 20
106.662
 30
0
 10
167.965
 20
106.662
 30
0
 10
167.843
 20
106.662
 30
0
 10
167.728
 20
106.662
 30
0
 10
167.614
 20
106.662
 30
0
 10
167.51
 20
106.662
 30
0
 10
167.405
 20
106.662
 30
0
 10
167.312
 20
106.662
 30
0
 10
167.218
 20
106.662
 30
0
 10
167.137
 20
106.662
 30
0
 10
167.056
 20
106.662
 30
0
 10
166.988
 20
106.662
 30
0
 10
166.92
 20
106.662
 30
0
 10
166.867
 20
106.662
 30
0
 10
166.813
 20
106.662
 30
0
 10
166.774
 20
106.662
 30
0
 10
166.736
 20
106.662
 30
0
 10
166.712
 20
106.662
 30
0
 10
166.689
 20
106.662
 30
0
 10
166.681
 20
106.662
 30
0
 10
166.673
 20
106.662
 30
0
  0
LINE
  5
A45
330
A02
100
AcDbEntity
  8
View009
100
AcDbLine
 10
166.673
 20
106.662
 30
0
 11
166.673
 21
24.2624
 31
0
  0
SPLINE
  5
A46
330
A02
100
AcDbEntity
  8
View009
100
AcDbSpline
210
0
220
0
230
1
 70
8
 71
2
 72
30
 73
27
 74
0
 40
0
 40
0
 40
0
 40
0.1122
 40
0.1122
 40
0.336599
 40
0.336599
 40
0.448799
 40
0.448799
 40
0.560999
 40
0.560999
 40
0.673198
 40
0.673198
 40
0.785398
 40
0.785398
 40
0.897598
 40
0.897598
 40
1.0098
 40
1.0098
 40
1.122
 40
1.122
 40
1.2342
 40
1.2342
 40
1.3464
 40
1.3464
 40
1.4586
 40
1.4586
 40
1.5708
 40
1.5708
 40
1.5708
 10
169.173
 20
24.2624
 30
0
 10
169.033
 20
24.2624
 30
0
 10
168.893
 20
24.2624
 30
0
 10
168.615
 20
24.2624
 30
0
 10
168.347
 20
24.2624
 30
0
 10
168.218
 20
24.2624
 30
0
 10
168.088
 20
24.2624
 30
0
 10
167.965
 20
24.2624
 30
0
 10
167.843
 20
24.2624
 30
0
 10
167.728
 20
24.2624
 30
0
 10
167.614
 20
24.2624
 30
0
 10
167.51
 20
24.2624
 30
0
 10
167.405
 20
24.2624
 30
0
 10
167.312
 20
24.2624
 30
0
 10
167.218
 20
24.2624
 30
0
 10
167.137
 20
24.2624
 30
0
 10
167.056
 20
24.2624
 30
0
 10
166.988
 20
24.2624
 30
0
 10
166.92
 20
24.2624
 30
0
 10
166.867
 20
24.2624
 30
0
 10
166.813
 20
24.2624
 30
0
 10
166.774
 20
24.2624
 30
0
 10
166.736
 20
24.2624
 30
0
 10
166.712
 20
24.2624
 30
0
 10
166.689
 20
24.2624
 30
0
 10
166.681
 20
24.2624
 30
0
 10
166.673
 20
24.2624
 30
0
  0
LINE
  5
A47
330
A02
100
AcDbEntity
  8
View009
100
AcDbLine
 10
169.173
 20
24.2624
 30
0
 11
169.173
 21
106.662
 31
0
  0
LINE
  5
A48
330
A02
100
AcDbEntity
  8
View009
100
AcDbLine
 10
169.173
 20
106.662
 30
0
 11
275.573
 21
106.662
 31
0
  0
LINE
  5
A49
330
A02
100
AcDbEntity
  8
View009
100
AcDbLine
 10
275.573
 20
106.662
 30
0
 11
275.573
 21
24.2624
 31
0
  0
LINE
  5
A4A
330
A02
100
AcDbEntity
  8
View009
100
AcDbLine
 10
275.573
 20
24.2624
 30
0
 11
169.173
 21
24.2624
 31
0
  0
CIRCLE
  5
A4B
330
A02
100
AcDbEntity
  8
View009
100
AcDbCircle
 10
262.573
 20
53.7624
 40
1.6
  0
CIRCLE
  5
A4C
330
A02
100
AcDbEntity
  8
View009
100
AcDbCircle
 10
262.573
 20
59.7624
 40
1.6
  0
CIRCLE
  5
A4D
330
A02
100
AcDbEntity
  8
View009
100
AcDbCircle
 10
262.573
 20
65.7624
 40
1.6
  0
SPLINE
  5
A4E
330
A02
100
AcDbEntity
  8
View009
100
AcDbSpline
210
0
220
0
230
1
 70
8
 71
2
 72
30
 73
27
 74
0
 40
0
 40
0
 40
0
 40
0.1122
 40
0.1122
 40
0.336599
 40
0.336599
 40
0.448799
 40
0.448799
 40
0.560999
 40
0.560999
 40
0.673198
 40
0.673198
 40
0.785398
 40
0.785398
 40
0.897598
 40
0.897598
 40
1.0098
 40
1.0098
 40
1.122
 40
1.122
 40
1.2342
 40
1.2342
 40
1.3464
 40
1.3464
 40
1.4586
 40
1.4586
 40
1.5708
 40
1.5708
 40
1.5708
 10
275.573
 20
106.662
 30
0
 10
275.713
 20
106.662
 30
0
 10
275.853
 20
106.662
 30
0
 10
276.131
 20
106.662
 30
0
 10
276.399
 20
106.662
 30
0
 10
276.528
 20
106.662
 30
0
 10
276.658
 20
106.662
 30
0
 10
276.78
 20
106.662
 30
0
 10
276.903
 20
106.662
 30
0
 10
277.017
 20
106.662
 30
0
 10
277.132
 20
106.662
 30
0
 10
277.236
 20
106.662
 30
0
 10
277.341
 20
106.662
 30
0
 10
277.434
 20
106.662
 30
0
 10
277.527
 20
106.662
 30
0
 10
277.609
 20
106.662
 30
0
 10
277.69
 20
106.662
 30
0
 10
277.757
 20
106.662
 30
0
 10
277.825
 20
106.662
 30
0
 10
277.879
 20
106.662
 30
0
 10
277.933
 20
106.662
 30
0
 10
277.971
 20
106.662
 30
0
 10
278.01
 20
106.662
 30
0
 10
278.034
 20
106.662
 30
0
 10
278.057
 20
106.662
 30
0
 10
278.065
 20
106.662
 30
0
 10
278.073
 20
106.662
 30
0
  0
SPLINE
  5
A4F
330
A02
100
AcDbEntity
  8
View009
100
AcDbSpline
210
0
220
0
230
1
 70
8
 71
2
 72
30
 73
27
 74
0
 40
0
 40
0
 40
0
 40
0.1122
 40
0.1122
 40
0.336599
 40
0.336599
 40
0.448799
 40
0.448799
 40
0.560999
 40
0.560999
 40
0.673198
 40
0.673198
 40
0.785398
 40
0.785398
 40
0.897598
 40
0.897598
 40
1.0098
 40
1.0098
 40
1.122
 40
1.122
 40
1.2342
 40
1.2342
 40
1.3464
 40
1.3464
 40
1.4586
 40
1.4586
 40
1.5708
 40
1.5708
 40
1.5708
 10
275.573
 20
24.2624
 30
0
 10
275.713
 20
24.2624
 30
0
 10
275.853
 20
24.2624
 30
0
 10
276.131
 20
24.2624
 30
0
 10
276.399
 20
24.2624
 30
0
 10
276.528
 20
24.2624
 30
0
 10
276.658
 20
24.2624
 30
0
 10
276.78
 20
24.2624
 30
0
 10
276.903
 20
24.2624
 30
0
 10
277.017
 20
24.2624
 30
0
 10
277.132
 20
24.2624
 30
0
 10
277.236
 20
24.2624
 30
0
 10
277.341
 20
24.2624
 30
0
 10
277.434
 20
24.2624
 30
0
 10
277.527
 20
24.2624
 30
0
 10
277.609
 20
24.2624
 30
0
 10
277.69
 20
24.2624
 30
0
 10
277.757
 20
24.2624
 30
0
 10
277.825
 20
24.2624
 30
0
 10
277.879
 20
24.2624
 30
0
 10
277.933
 20
24.2624
 30
0
 10
277.971
 20
24.2624
 30
0
 10
278.01
 20
24.2624
 30
0
 10
278.034
 20
24.2624
 30
0
 10
278.057
 20
24.2624
 30
0
 10
278.065
 20
24.2624
 30
0
 10
278.073
 20
24.2624
 30
0
  0
LINE
  5
A50
330
A02
100
AcDbEntity
  8
View009
100
AcDbLine
 10
278.073
 20
24.2624
 30
0
 11
278.073
 21
106.662
 31
0
  0
LINE
  5
A51
330
A02
100
AcDbEntity
  8
View010
100
AcDbLine
 10
33.2595
 20
25.1465
 30
0
 11
33.2595
 21
49.2465
 31
0
  0
SPLINE
  5
A52
330
A02
100
AcDbEntity
  8
View010
100
AcDbSpline
210
0
220
0
230
1
 70
8
 71
2
 72
30
 73
27
 74
0
 40
4.71239
 40
4.71239
 40
4.71239
 40
4.82459
 40
4.82459
 40
4.93679
 40
4.93679
 40
5.04899
 40
5.04899
 40
5.16119
 40
5.16119
 40
5.27339
 40
5.27339
 40
5.38559
 40
5.38559
 40
5.49779
 40
5.49779
 40
5.60999
 40
5.60999
 40
5.72219
 40
5.72219
 40
5.83439
 40
5.83439
 40
5.94659
 40
5.94659
 40
6.05879
 40
6.05879
 40
6.28319
 40
6.28319
 40
6.28319
 10
33.2595
 20
22.6465
 30
0
 10
33.2595
 20
22.6544
 30
0
 10
33.2595
 20
22.6623
 30
0
 10
33.2595
 20
22.6857
 30
0
 10
33.2595
 20
22.7092
 30
0
 10
33.2595
 20
22.748
 30
0
 10
33.2595
 20
22.7868
 30
0
 10
33.2595
 20
22.8405
 30
0
 10
33.2595
 20
22.8941
 30
0
 10
33.2595
 20
22.9619
 30
0
 10
33.2595
 20
23.0297
 30
0
 10
33.2595
 20
23.1108
 30
0
 10
33.2595
 20
23.192
 30
0
 10
33.2595
 20
23.2854
 30
0
 10
33.2595
 20
23.3788
 30
0
 10
33.2595
 20
23.4833
 30
0
 10
33.2595
 20
23.5878
 30
0
 10
33.2595
 20
23.7021
 30
0
 10
33.2595
 20
23.8165
 30
0
 10
33.2595
 20
23.9391
 30
0
 10
33.2595
 20
24.0618
 30
0
 10
33.2595
 20
24.1913
 30
0
 10
33.2595
 20
24.3208
 30
0
 10
33.2595
 20
24.4555
 30
0
 10
33.2595
 20
24.5902
 30
0
 10
33.2595
 20
24.8656
 30
0
 10
33.2595
 20
25.1465
 30
0
  0
LINE
  5
A53
330
A02
100
AcDbEntity
  8
View010
100
AcDbLine
 10
31.7595
 20
25.1465
 30
0
 11
31.7595
 21
49.2465
 31
0
  0
SPLINE
  5
A54
330
A02
100
AcDbEntity
  8
View010
100
AcDbSpline
210
0
220
0
230
1
 70
8
 71
2
 72
30
 73
27
 74
0
 40
4.71239
 40
4.71239
 40
4.71239
 40
4.82459
 40
4.82459
 40
4.93679
 40
4.93679
 40
5.04899
 40
5.04899
 40
5.16119
 40
5.16119
 40
5.27339
 40
5.27339
 40
5.38559
 40
5.38559
 40
5.49779
 40
5.49779
 40
5.60999
 40
5.60999
 40
5.72219
 40
5.72219
 40
5.83439
 40
5.83439
 40
5.94659
 40
5.94659
 40
6.05879
 40
6.05879
 40
6.28319
 40
6.28319
 40
6.28319
 10
31.7595
 20
22.6465
 30
0
 10
31.7595
 20
22.6544
 30
0
 10
31.7595
 20
22.6623
 30
0
 10
31.7595
 20
22.6857
 30
0
 10
31.7595
 20
22.7092
 30
0
 10
31.7595
 20
22.748
 30
0
 10
31.7595
 20
22.7868
 30
0
 10
31.7595
 20
22.8405
 30
0
 10
31.7595
 20
22.8941
 30
0
 10
31.7595
 20
22.9619
 30
0
 10
31.7595
 20
23.0297
 30
0
 10
31.7595
 20
23.1108
 30
0
 10
31.7595
 20
23.192
 30
0
 10
31.7595
 20
23.2854
 30
0
 10
31.7595
 20
23.3788
 30
0
 10
31.7595
 20
23.4833
 30
0
 10
31.7595
 20
23.5878
 30
0
 10
31.7595
 20
23.7021
 30
0
 10
31.7595
 20
23.8165
 30
0
 10
31.7595
 20
23.9391
 30
0
 10
31.7595
 20
24.0618
 30
0
 10
31.7595
 20
24.1913
 30
0
 10
31.7595
 20
24.3208
 30
0
 10
31.7595
 20
24.4555
 30
0
 10
31.7595
 20
24.5902
 30
0
 10
31.7595
 20
24.8656
 30
0
 10
31.7595
 20
25.1465
 30
0
  0
LINE
  5
A55
330
A02
100
AcDbEntity
  8
View010
100
AcDbLine
 10
31.7595
 20
49.2465
 30
0
 11
33.2595
 21
49.2465
 31
0
  0
LINE
  5
A56
330
A02
100
AcDbEntity
  8
View010
100
AcDbLine
 10
33.2595
 20
22.6465
 30
0
 11
31.7595
 21
22.6465
 31
0
  0
ARC
  5
A57
330
A02
100
AcDbEntity
  8
View010
100
AcDbCircle
 10
34.2595
 20
49.2465
 30
0
 40
1
100
AcDbArc
 50
90
 51
180
  0
ARC
  5
A58
330
A02
100
AcDbEntity
  8
View010
100
AcDbCircle
 10
34.2595
 20
49.2465
 30
0
 40
2.5
100
AcDbArc
 50
90
 51
180
  0
LINE
  5
A59
330
A02
100
AcDbEntity
  8
View010
100
AcDbLine
 10
34.2595
 20
50.2465
 30
0
 11
34.2595
 21
51.7465
 31
0
  0
LINE
  5
A5A
330
A02
100
AcDbEntity
  8
View010
100
AcDbLine
 10
140.66
 20
50.2465
 30
0
 11
34.2595
 21
50.2465
 31
0
  0
LINE
  5
A5B
330
A02
100
AcDbEntity
  8
View010
100
AcDbLine
 10
140.66
 20
51.7465
 30
0
 11
34.2595
 21
51.7465
 31
0
  0
LINE
  5
A5C
330
A02
100
AcDbEntity
  8
View010
100
AcDbLine
 10
140.66
 20
51.7465
 30
0
 11
140.66
 21
50.2465
 31
0
  0
ARC
  5
A5D
330
A02
100
AcDbEntity
  8
View010
100
AcDbCircle
 10
140.66
 20
49.2465
 30
0
 40
1
100
AcDbArc
 50
0
 51
90
  0
ARC
  5
A5E
330
A02
100
AcDbEntity
  8
View010
100
AcDbCircle
 10
140.66
 20
49.2465
 30
0
 40
2.5
100
AcDbArc
 50
0
 51
90
  0
LINE
  5
A5F
330
A02
100
AcDbEntity
  8
View010
100
AcDbLine
 10
141.66
 20
49.2465
 30
0
 11
143.16
 21
49.2465
 31
0
  0
LINE
  5
A60
330
A02
100
AcDbEntity
  8
View010
100
AcDbLine
 10
141.66
 20
49.2465
 30
0
 11
141.66
 21
25.1465
 31
0
  0
SPLINE
  5
A61
330
A02
100
AcDbEntity
  8
View010
100
AcDbSpline
210
0
220
0
230
1
 70
8
 71
2
 72
30
 73
27
 74
0
 40
1.5708
 40
1.5708
 40
1.5708
 40
1.683
 40
1.683
 40
1.7952
 40
1.7952
 40
1.9074
 40
1.9074
 40
2.0196
 40
2.0196
 40
2.1318
 40
2.1318
 40
2.24399
 40
2.24399
 40
2.35619
 40
2.35619
 40
2.46839
 40
2.46839
 40
2.58059
 40
2.58059
 40
2.69279
 40
2.69279
 40
2.80499
 40
2.80499
 40
2.91719
 40
2.91719
 40
3.14159
 40
3.14159
 40
3.14159
 10
141.66
 20
22.6465
 30
0
 10
141.66
 20
22.6544
 30
0
 10
141.66
 20
22.6623
 30
0
 10
141.66
 20
22.6857
 30
0
 10
141.66
 20
22.7092
 30
0
 10
141.66
 20
22.748
 30
0
 10
141.66
 20
22.7868
 30
0
 10
141.66
 20
22.8405
 30
0
 10
141.66
 20
22.8941
 30
0
 10
141.66
 20
22.9619
 30
0
 10
141.66
 20
23.0297
 30
0
 10
141.66
 20
23.1108
 30
0
 10
141.66
 20
23.192
 30
0
 10
141.66
 20
23.2854
 30
0
 10
141.66
 20
23.3788
 30
0
 10
141.66
 20
23.4833
 30
0
 10
141.66
 20
23.5878
 30
0
 10
141.66
 20
23.7021
 30
0
 10
141.66
 20
23.8165
 30
0
 10
141.66
 20
23.9391
 30
0
 10
141.66
 20
24.0618
 30
0
 10
141.66
 20
24.1913
 30
0
 10
141.66
 20
24.3208
 30
0
 10
141.66
 20
24.4555
 30
0
 10
141.66
 20
24.5902
 30
0
 10
141.66
 20
24.8656
 30
0
 10
141.66
 20
25.1465
 30
0
  0
LINE
  5
A62
330
A02
100
AcDbEntity
  8
View010
100
AcDbLine
 10
143.16
 20
49.2465
 30
0
 11
143.16
 21
25.1465
 31
0
  0
SPLINE
  5
A63
330
A02
100
AcDbEntity
  8
View010
100
AcDbSpline
210
0
220
0
230
1
 70
8
 71
2
 72
30
 73
27
 74
0
 40
1.5708
 40
1.5708
 40
1.5708
 40
1.683
 40
1.683
 40
1.7952
 40
1.7952
 40
1.9074
 40
1.9074
 40
2.0196
 40
2.0196
 40
2.1318
 40
2.1318
 40
2.24399
 40
2.24399
 40
2.35619
 40
2.35619
 40
2.46839
 40
2.46839
 40
2.58059
 40
2.58059
 40
2.69279
 40
2.69279
 40
2.80499
 40
2.80499
 40
2.91719
 40
2.91719
 40
3.14159
 40
3.14159
 40
3.14159
 10
143.16
 20
22.6465
 30
0
 10
143.16
 20
22.6544
 30
0
 10
143.16
 20
22.6623
 30
0
 10
143.16
 20
22.6857
 30
0
 10
143.16
 20
22.7092
 30
0
 10
143.16
 20
22.748
 30
0
 10
143.16
 20
22.7868
 30
0
 10
143.16
 20
22.8405
 30
0
 10
143.16
 20
22.8941
 30
0
 10
143.16
 20
22.9619
 30
0
 10
143.16
 20
23.0297
 30
0
 10
143.16
 20
23.1108
 30
0
 10
143.16
 20
23.192
 30
0
 10
143.16
 20
23.2854
 30
0
 10
143.16
 20
23.3788
 30
0
 10
143.16
 20
23.4833
 30
0
 10
143.16
 20
23.5878
 30
0
 10
143.16
 20
23.7021
 30
0
 10
143.16
 20
23.8165
 30
0
 10
143.16
 20
23.9391
 30
0
 10
143.16
 20
24.0618
 30
0
 10
143.16
 20
24.1913
 30
0
 10
143.16
 20
24.3208
 30
0
 10
143.16
 20
24.4555
 30
0
 10
143.16
 20
24.5902
 30
0
 10
143.16
 20
24.8656
 30
0
 10
143.16
 20
25.1465
 30
0
  0
LINE
  5
A64
330
A02
100
AcDbEntity
  8
View010
100
AcDbLine
 10
141.66
 20
22.6465
 30
0
 11
143.16
 21
22.6465
 31
0
  0
LINE
  5
A65
330
A02
100
AcDbEntity
  8
View010
100
AcDbLine
 10
33.2595
 20
25.1465
 30
0
 11
31.7595
 21
25.1465
 31
0
  0
LINE
  5
A66
330
A02
100
AcDbEntity
  8
View010
100
AcDbLine
 10
141.66
 20
25.1465
 30
0
 11
143.16
 21
25.1465
 31
0
  0
LINE
  5
A67
330
A02
100
AcDbEntity
  8
View011
100
AcDbLine
 10
44.1786
 20
91.0384
 30
0
 11
44.1786
 21
66.9384
 31
0
  0
ARC
  5
A68
330
A02
100
AcDbEntity
  8
View011
100
AcDbCircle
 10
46.6786
 20
66.9384
 30
0
 40
2.5
100
AcDbArc
 50
180
 51
-90
  0
SPLINE
  5
A69
330
A02
100
AcDbEntity
  8
View011
100
AcDbSpline
210
0
220
0
230
1
 70
8
 71
2
 72
30
 73
27
 74
0
 40
0
 40
0
 40
0
 40
0.1122
 40
0.1122
 40
0.224399
 40
0.224399
 40
0.336599
 40
0.336599
 40
0.448799
 40
0.448799
 40
0.560999
 40
0.560999
 40
0.673198
 40
0.673198
 40
0.785398
 40
0.785398
 40
0.897598
 40
0.897598
 40
1.0098
 40
1.0098
 40
1.122
 40
1.122
 40
1.2342
 40
1.2342
 40
1.3464
 40
1.3464
 40
1.5708
 40
1.5708
 40
1.5708
 10
44.1786
 20
93.5384
 30
0
 10
44.1786
 20
93.5306
 30
0
 10
44.1786
 20
93.5227
 30
0
 10
44.1786
 20
93.4992
 30
0
 10
44.1786
 20
93.4758
 30
0
 10
44.1786
 20
93.437
 30
0
 10
44.1786
 20
93.3981
 30
0
 10
44.1786
 20
93.3445
 30
0
 10
44.1786
 20
93.2909
 30
0
 10
44.1786
 20
93.2231
 30
0
 10
44.1786
 20
93.1552
 30
0
 10
44.1786
 20
93.0741
 30
0
 10
44.1786
 20
92.993
 30
0
 10
44.1786
 20
92.8996
 30
0
 10
44.1786
 20
92.8062
 30
0
 10
44.1786
 20
92.7017
 30
0
 10
44.1786
 20
92.5972
 30
0
 10
44.1786
 20
92.4828
 30
0
 10
44.1786
 20
92.3685
 30
0
 10
44.1786
 20
92.2458
 30
0
 10
44.1786
 20
92.1231
 30
0
 10
44.1786
 20
91.9936
 30
0
 10
44.1786
 20
91.8641
 30
0
 10
44.1786
 20
91.7294
 30
0
 10
44.1786
 20
91.5947
 30
0
 10
44.1786
 20
91.3193
 30
0
 10
44.1786
 20
91.0384
 30
0
  0
LINE
  5
A6A
330
A02
100
AcDbEntity
  8
View011
100
AcDbLine
 10
44.1786
 20
91.0384
 30
0
 11
126.579
 21
91.0384
 31
0
  0
LINE
  5
A6B
330
A02
100
AcDbEntity
  8
View011
100
AcDbLine
 10
46.6786
 20
64.4384
 30
0
 11
124.079
 21
64.4384
 31
0
  0
LINE
  5
A6C
330
A02
100
AcDbEntity
  8
View011
100
AcDbLine
 10
126.579
 20
66.9384
 30
0
 11
126.579
 21
91.0384
 31
0
  0
ARC
  5
A6D
330
A02
100
AcDbEntity
  8
View011
100
AcDbCircle
 10
124.079
 20
66.9384
 30
0
 40
2.5
100
AcDbArc
 50
-90
 51
0
  0
CIRCLE
  5
A6E
330
A02
100
AcDbEntity
  8
View011
100
AcDbCircle
 10
102.479
 20
70.0384
 40
1.25
  0
CIRCLE
  5
A6F
330
A02
100
AcDbEntity
  8
View011
100
AcDbCircle
 10
65.6786
 20
70.0384
 40
1.25
  0
SPLINE
  5
A70
330
A02
100
AcDbEntity
  8
View011
100
AcDbSpline
210
0
220
0
230
1
 70
8
 71
2
 72
30
 73
27
 74
0
 40
0
 40
0
 40
0
 40
0.1122
 40
0.1122
 40
0.224399
 40
0.224399
 40
0.336599
 40
0.336599
 40
0.448799
 40
0.448799
 40
0.560999
 40
0.560999
 40
0.673198
 40
0.673198
 40
0.785398
 40
0.785398
 40
0.897598
 40
0.897598
 40
1.0098
 40
1.0098
 40
1.122
 40
1.122
 40
1.2342
 40
1.2342
 40
1.3464
 40
1.3464
 40
1.5708
 40
1.5708
 40
1.5708
 10
126.579
 20
93.5384
 30
0
 10
126.579
 20
93.5306
 30
0
 10
126.579
 20
93.5227
 30
0
 10
126.579
 20
93.4992
 30
0
 10
126.579
 20
93.4758
 30
0
 10
126.579
 20
93.437
 30
0
 10
126.579
 20
93.3981
 30
0
 10
126.579
 20
93.3445
 30
0
 10
126.579
 20
93.2909
 30
0
 10
126.579
 20
93.2231
 30
0
 10
126.579
 20
93.1552
 30
0
 10
126.579
 20
93.0741
 30
0
 10
126.579
 20
92.993
 30
0
 10
126.579
 20
92.8996
 30
0
 10
126.579
 20
92.8062
 30
0
 10
126.579
 20
92.7017
 30
0
 10
126.579
 20
92.5972
 30
0
 10
126.579
 20
92.4828
 30
0
 10
126.579
 20
92.3685
 30
0
 10
126.579
 20
92.2458
 30
0
 10
126.579
 20
92.1231
 30
0
 10
126.579
 20
91.9936
 30
0
 10
126.579
 20
91.8641
 30
0
 10
126.579
 20
91.7294
 30
0
 10
126.579
 20
91.5947
 30
0
 10
126.579
 20
91.3193
 30
0
 10
126.579
 20
91.0384
 30
0
  0
LINE
  5
A71
330
A02
100
AcDbEntity
  8
View011
100
AcDbLine
 10
126.579
 20
93.5384
 30
0
 11
44.1786
 21
93.5384
 31
0
  0
LINE
  5
A72
330
A02
100
AcDbEntity
  8
View011
100
AcDbLine
 10
124.079
 20
64.4384
 30
0
 11
46.6786
 21
64.4384
 31
0
  0
LINE
  5
A73
330
A02
100
AcDbEntity
  8
View011
100
AcDbLine
 10
126.579
 20
91.0384
 30
0
 11
126.579
 21
66.9384
 31
0
  0
LINE
  5
A74
330
A02
100
AcDbEntity
  8
View012
100
AcDbLine
 10
168.346
 20
120.679
 30
0
 11
166.846
 21
120.679
 31
0
  0
SPLINE
  5
A75
330
A02
100
AcDbEntity
  8
View012
100
AcDbSpline
210
0
220
0
230
1
 70
8
 71
2
 72
30
 73
27
 74
0
 40
4.71239
 40
4.71239
 40
4.71239
 40
4.82459
 40
4.82459
 40
5.04899
 40
5.04899
 40
5.16119
 40
5.16119
 40
5.27339
 40
5.27339
 40
5.38559
 40
5.38559
 40
5.49779
 40
5.49779
 40
5.60999
 40
5.60999
 40
5.72219
 40
5.72219
 40
5.83439
 40
5.83439
 40
5.94659
 40
5.94659
 40
6.05879
 40
6.05879
 40
6.17099
 40
6.17099
 40
6.28319
 40
6.28319
 40
6.28319
 10
168.346
 20
200.579
 30
0
 10
168.346
 20
200.719
 30
0
 10
168.346
 20
200.859
 30
0
 10
168.346
 20
201.137
 30
0
 10
168.346
 20
201.404
 30
0
 10
168.346
 20
201.534
 30
0
 10
168.346
 20
201.663
 30
0
 10
168.346
 20
201.786
 30
0
 10
168.346
 20
201.909
 30
0
 10
168.346
 20
202.023
 30
0
 10
168.346
 20
202.137
 30
0
 10
168.346
 20
202.242
 30
0
 10
168.346
 20
202.346
 30
0
 10
168.346
 20
202.44
 30
0
 10
168.346
 20
202.533
 30
0
 10
168.346
 20
202.614
 30
0
 10
168.346
 20
202.695
 30
0
 10
168.346
 20
202.763
 30
0
 10
168.346
 20
202.831
 30
0
 10
168.346
 20
202.885
 30
0
 10
168.346
 20
202.938
 30
0
 10
168.346
 20
202.977
 30
0
 10
168.346
 20
203.016
 30
0
 10
168.346
 20
203.039
 30
0
 10
168.346
 20
203.063
 30
0
 10
168.346
 20
203.071
 30
0
 10
168.346
 20
203.079
 30
0
  0
LINE
  5
A76
330
A02
100
AcDbEntity
  8
View012
100
AcDbLine
 10
168.346
 20
123.179
 30
0
 11
168.346
 21
200.579
 31
0
  0
SPLINE
  5
A77
330
A02
100
AcDbEntity
  8
View012
100
AcDbSpline
210
0
220
0
230
1
 70
8
 71
2
 72
30
 73
27
 74
0
 40
3.14159
 40
3.14159
 40
3.14159
 40
3.25379
 40
3.25379
 40
3.36599
 40
3.36599
 40
3.47819
 40
3.47819
 40
3.59039
 40
3.59039
 40
3.70259
 40
3.70259
 40
3.81479
 40
3.81479
 40
3.92699
 40
3.92699
 40
4.03919
 40
4.03919
 40
4.15139
 40
4.15139
 40
4.26359
 40
4.26359
 40
4.37579
 40
4.37579
 40
4.48799
 40
4.48799
 40
4.71239
 40
4.71239
 40
4.71239
 10
168.346
 20
120.679
 30
0
 10
168.346
 20
120.686
 30
0
 10
168.346
 20
120.694
 30
0
 10
168.346
 20
120.718
 30
0
 10
168.346
 20
120.741
 30
0
 10
168.346
 20
120.78
 30
0
 10
168.346
 20
120.819
 30
0
 10
168.346
 20
120.873
 30
0
 10
168.346
 20
120.926
 30
0
 10
168.346
 20
120.994
 30
0
 10
168.346
 20
121.062
 30
0
 10
168.346
 20
121.143
 30
0
 10
168.346
 20
121.224
 30
0
 10
168.346
 20
121.317
 30
0
 10
168.346
 20
121.411
 30
0
 10
168.346
 20
121.515
 30
0
 10
168.346
 20
121.62
 30
0
 10
168.346
 20
121.734
 30
0
 10
168.346
 20
121.849
 30
0
 10
168.346
 20
121.971
 30
0
 10
168.346
 20
122.094
 30
0
 10
168.346
 20
122.223
 30
0
 10
168.346
 20
122.353
 30
0
 10
168.346
 20
122.488
 30
0
 10
168.346
 20
122.622
 30
0
 10
168.346
 20
122.898
 30
0
 10
168.346
 20
123.179
 30
0
  0
SPLINE
  5
A78
330
A02
100
AcDbEntity
  8
View012
100
AcDbSpline
210
0
220
0
230
1
 70
8
 71
2
 72
30
 73
27
 74
0
 40
3.14159
 40
3.14159
 40
3.14159
 40
3.25379
 40
3.25379
 40
3.36599
 40
3.36599
 40
3.47819
 40
3.47819
 40
3.59039
 40
3.59039
 40
3.70259
 40
3.70259
 40
3.81479
 40
3.81479
 40
3.92699
 40
3.92699
 40
4.03919
 40
4.03919
 40
4.15139
 40
4.15139
 40
4.26359
 40
4.26359
 40
4.37579
 40
4.37579
 40
4.48799
 40
4.48799
 40
4.71239
 40
4.71239
 40
4.71239
 10
166.846
 20
120.679
 30
0
 10
166.846
 20
120.686
 30
0
 10
166.846
 20
120.694
 30
0
 10
166.846
 20
120.718
 30
0
 10
166.846
 20
120.741
 30
0
 10
166.846
 20
120.78
 30
0
 10
166.846
 20
120.819
 30
0
 10
166.846
 20
120.873
 30
0
 10
166.846
 20
120.926
 30
0
 10
166.846
 20
120.994
 30
0
 10
166.846
 20
121.062
 30
0
 10
166.846
 20
121.143
 30
0
 10
166.846
 20
121.224
 30
0
 10
166.846
 20
121.317
 30
0
 10
166.846
 20
121.411
 30
0
 10
166.846
 20
121.515
 30
0
 10
166.846
 20
121.62
 30
0
 10
166.846
 20
121.734
 30
0
 10
166.846
 20
121.849
 30
0
 10
166.846
 20
121.971
 30
0
 10
166.846
 20
122.094
 30
0
 10
166.846
 20
122.223
 30
0
 10
166.846
 20
122.353
 30
0
 10
166.846
 20
122.488
 30
0
 10
166.846
 20
122.622
 30
0
 10
166.846
 20
122.898
 30
0
 10
166.846
 20
123.179
 30
0
  0
SPLINE
  5
A79
330
A02
100
AcDbEntity
  8
View012
100
AcDbSpline
210
0
220
0
230
1
 70
8
 71
2
 72
24
 73
21
 74
0
 40
0
 40
0
 40
0
 40
0.336599
 40
0.336599
 40
0.560999
 40
0.560999
 40
0.785398
 40
0.785398
 40
0.897598
 40
0.897598
 40
1.0098
 40
1.0098
 40
1.122
 40
1.122
 40
1.2342
 40
1.2342
 40
1.3464
 40
1.3464
 40
1.4586
 40
1.4586
 40
1.5708
 40
1.5708
 40
1.5708
 10
169.346
 20
120.679
 30
0
 10
169.177
 20
120.679
 30
0
 10
169.016
 20
120.679
 30
0
 10
168.911
 20
120.679
 30
0
 10
168.814
 20
120.679
 30
0
 10
168.721
 20
120.679
 30
0
 10
168.639
 20
120.679
 30
0
 10
168.602
 20
120.679
 30
0
 10
168.564
 20
120.679
 30
0
 10
168.532
 20
120.679
 30
0
 10
168.5
 20
120.679
 30
0
 10
168.472
 20
120.679
 30
0
 10
168.445
 20
120.679
 30
0
 10
168.424
 20
120.679
 30
0
 10
168.402
 20
120.679
 30
0
 10
168.387
 20
120.679
 30
0
 10
168.371
 20
120.679
 30
0
 10
168.362
 20
120.679
 30
0
 10
168.353
 20
120.679
 30
0
 10
168.349
 20
120.679
 30
0
 10
168.346
 20
120.679
 30
0
  0
SPLINE
  5
A7A
330
A02
100
AcDbEntity
  8
View012
100
AcDbSpline
210
0
220
0
230
1
 70
8
 71
1
 72
17
 73
15
 74
0
 40
0.411517
 40
0.411517
 40
0.494323
 40
0.577128
 40
0.659934
 40
0.74274
 40
0.825545
 40
0.908351
 40
0.991157
 40
1.07396
 40
1.15677
 40
1.23957
 40
1.32238
 40
1.40518
 40
1.48799
 40
1.5708
 40
1.5708
 10
168.346
 20
120.679
 30
0
 10
168.16
 20
120.679
 30
0
 10
167.982
 20
120.679
 30
0
 10
167.814
 20
120.679
 30
0
 10
167.655
 20
120.679
 30
0
 10
167.509
 20
120.679
 30
0
 10
167.375
 20
120.679
 30
0
 10
167.255
 20
120.679
 30
0
 10
167.149
 20
120.679
 30
0
 10
167.057
 20
120.679
 30
0
 10
166.982
 20
120.679
 30
0
 10
166.923
 20
120.679
 30
0
 10
166.88
 20
120.679
 30
0
 10
166.855
 20
120.679
 30
0
 10
166.846
 20
120.679
 30
0
  0
LINE
  5
A7B
330
A02
100
AcDbEntity
  8
View012
100
AcDbLine
 10
166.846
 20
123.179
 30
0
 11
166.846
 21
200.579
 31
0
  0
SPLINE
  5
A7C
330
A02
100
AcDbEntity
  8
View012
100
AcDbSpline
210
0
220
0
230
1
 70
8
 71
2
 72
30
 73
27
 74
0
 40
4.71239
 40
4.71239
 40
4.71239
 40
4.82459
 40
4.82459
 40
5.04899
 40
5.04899
 40
5.16119
 40
5.16119
 40
5.27339
 40
5.27339
 40
5.38559
 40
5.38559
 40
5.49779
 40
5.49779
 40
5.60999
 40
5.60999
 40
5.72219
 40
5.72219
 40
5.83439
 40
5.83439
 40
5.94659
 40
5.94659
 40
6.05879
 40
6.05879
 40
6.17099
 40
6.17099
 40
6.28319
 40
6.28319
 40
6.28319
 10
166.846
 20
200.579
 30
0
 10
166.846
 20
200.719
 30
0
 10
166.846
 20
200.859
 30
0
 10
166.846
 20
201.137
 30
0
 10
166.846
 20
201.404
 30
0
 10
166.846
 20
201.534
 30
0
 10
166.846
 20
201.663
 30
0
 10
166.846
 20
201.786
 30
0
 10
166.846
 20
201.909
 30
0
 10
166.846
 20
202.023
 30
0
 10
166.846
 20
202.137
 30
0
 10
166.846
 20
202.242
 30
0
 10
166.846
 20
202.346
 30
0
 10
166.846
 20
202.44
 30
0
 10
166.846
 20
202.533
 30
0
 10
166.846
 20
202.614
 30
0
 10
166.846
 20
202.695
 30
0
 10
166.846
 20
202.763
 30
0
 10
166.846
 20
202.831
 30
0
 10
166.846
 20
202.885
 30
0
 10
166.846
 20
202.938
 30
0
 10
166.846
 20
202.977
 30
0
 10
166.846
 20
203.016
 30
0
 10
166.846
 20
203.039
 30
0
 10
166.846
 20
203.063
 30
0
 10
166.846
 20
203.071
 30
0
 10
166.846
 20
203.079
 30
0
  0
LINE
  5
A7D
330
A02
100
AcDbEntity
  8
View012
100
AcDbLine
 10
168.346
 20
203.079
 30
0
 11
166.846
 21
203.079
 31
0
  0
SPLINE
  5
A7E
330
A02
100
AcDbEntity
  8
View012
100
AcDbSpline
210
0
220
0
230
1
 70
8
 71
2
 72
24
 73
21
 74
0
 40
0
 40
0
 40
0
 40
0.336599
 40
0.336599
 40
0.560999
 40
0.560999
 40
0.785398
 40
0.785398
 40
0.897598
 40
0.897598
 40
1.0098
 40
1.0098
 40
1.122
 40
1.122
 40
1.2342
 40
1.2342
 40
1.3464
 40
1.3464
 40
1.4586
 40
1.4586
 40
1.5708
 40
1.5708
 40
1.5708
 10
169.346
 20
203.079
 30
0
 10
169.177
 20
203.079
 30
0
 10
169.016
 20
203.079
 30
0
 10
168.911
 20
203.079
 30
0
 10
168.814
 20
203.079
 30
0
 10
168.721
 20
203.079
 30
0
 10
168.639
 20
203.079
 30
0
 10
168.602
 20
203.079
 30
0
 10
168.564
 20
203.079
 30
0
 10
168.532
 20
203.079
 30
0
 10
168.5
 20
203.079
 30
0
 10
168.472
 20
203.079
 30
0
 10
168.445
 20
203.079
 30
0
 10
168.424
 20
203.079
 30
0
 10
168.402
 20
203.079
 30
0
 10
168.387
 20
203.079
 30
0
 10
168.371
 20
203.079
 30
0
 10
168.362
 20
203.079
 30
0
 10
168.353
 20
203.079
 30
0
 10
168.349
 20
203.079
 30
0
 10
168.346
 20
203.079
 30
0
  0
LINE
  5
A7F
330
A02
100
AcDbEntity
  8
View012
100
AcDbLine
 10
169.346
 20
120.679
 30
0
 11
169.346
 21
203.079
 31
0
  0
LINE
  5
A80
330
A02
100
AcDbEntity
  8
View012
100
AcDbLine
 10
169.346
 20
120.679
 30
0
 11
275.746
 21
120.679
 31
0
  0
LINE
  5
A81
330
A02
100
AcDbEntity
  8
View012
100
AcDbLine
 10
275.746
 20
203.079
 30
0
 11
275.746
 21
120.679
 31
0
  0
LINE
  5
A82
330
A02
100
AcDbEntity
  8
View012
100
AcDbLine
 10
275.746
 20
203.079
 30
0
 11
169.346
 21
203.079
 31
0
  0
CIRCLE
  5
A83
330
A02
100
AcDbEntity
  8
View012
100
AcDbCircle
 10
262.746
 20
173.579
 40
1.6
  0
CIRCLE
  5
A84
330
A02
100
AcDbEntity
  8
View012
100
AcDbCircle
 10
262.746
 20
167.579
 40
1.6
  0
CIRCLE
  5
A85
330
A02
100
AcDbEntity
  8
View012
100
AcDbCircle
 10
262.746
 20
161.579
 40
1.6
  0
SPLINE
  5
A86
330
A02
100
AcDbEntity
  8
View012
100
AcDbSpline
210
0
220
0
230
1
 70
8
 71
2
 72
24
 73
21
 74
0
 40
0
 40
0
 40
0
 40
0.336599
 40
0.336599
 40
0.560999
 40
0.560999
 40
0.785398
 40
0.785398
 40
0.897598
 40
0.897598
 40
1.0098
 40
1.0098
 40
1.122
 40
1.122
 40
1.2342
 40
1.2342
 40
1.3464
 40
1.3464
 40
1.4586
 40
1.4586
 40
1.5708
 40
1.5708
 40
1.5708
 10
275.746
 20
120.679
 30
0
 10
275.916
 20
120.679
 30
0
 10
276.077
 20
120.679
 30
0
 10
276.182
 20
120.679
 30
0
 10
276.278
 20
120.679
 30
0
 10
276.372
 20
120.679
 30
0
 10
276.453
 20
120.679
 30
0
 10
276.491
 20
120.679
 30
0
 10
276.528
 20
120.679
 30
0
 10
276.561
 20
120.679
 30
0
 10
276.593
 20
120.679
 30
0
 10
276.62
 20
120.679
 30
0
 10
276.647
 20
120.679
 30
0
 10
276.669
 20
120.679
 30
0
 10
276.69
 20
120.679
 30
0
 10
276.706
 20
120.679
 30
0
 10
276.721
 20
120.679
 30
0
 10
276.731
 20
120.679
 30
0
 10
276.74
 20
120.679
 30
0
 10
276.743
 20
120.679
 30
0
 10
276.746
 20
120.679
 30
0
  0
SPLINE
  5
A87
330
A02
100
AcDbEntity
  8
View012
100
AcDbSpline
210
0
220
0
230
1
 70
8
 71
2
 72
24
 73
21
 74
0
 40
0
 40
0
 40
0
 40
0.336599
 40
0.336599
 40
0.560999
 40
0.560999
 40
0.785398
 40
0.785398
 40
0.897598
 40
0.897598
 40
1.0098
 40
1.0098
 40
1.122
 40
1.122
 40
1.2342
 40
1.2342
 40
1.3464
 40
1.3464
 40
1.4586
 40
1.4586
 40
1.5708
 40
1.5708
 40
1.5708
 10
275.746
 20
203.079
 30
0
 10
275.916
 20
203.079
 30
0
 10
276.077
 20
203.079
 30
0
 10
276.182
 20
203.079
 30
0
 10
276.278
 20
203.079
 30
0
 10
276.372
 20
203.079
 30
0
 10
276.453
 20
203.079
 30
0
 10
276.491
 20
203.079
 30
0
 10
276.528
 20
203.079
 30
0
 10
276.561
 20
203.079
 30
0
 10
276.593
 20
203.079
 30
0
 10
276.62
 20
203.079
 30
0
 10
276.647
 20
203.079
 30
0
 10
276.669
 20
203.079
 30
0
 10
276.69
 20
203.079
 30
0
 10
276.706
 20
203.079
 30
0
 10
276.721
 20
203.079
 30
0
 10
276.731
 20
203.079
 30
0
 10
276.74
 20
203.079
 30
0
 10
276.743
 20
203.079
 30
0
 10
276.746
 20
203.079
 30
0
  0
LINE
  5
A88
330
A02
100
AcDbEntity
  8
View012
100
AcDbLine
 10
276.746
 20
120.679
 30
0
 11
278.246
 21
120.679
 31
0
  0
SPLINE
  5
A89
330
A02
100
AcDbEntity
  8
View012
100
AcDbSpline
210
0
220
0
230
1
 70
8
 71
2
 72
30
 73
27
 74
0
 40
0
 40
0
 40
0
 40
0.1122
 40
0.1122
 40
0.224399
 40
0.224399
 40
0.336599
 40
0.336599
 40
0.448799
 40
0.448799
 40
0.560999
 40
0.560999
 40
0.673198
 40
0.673198
 40
0.785398
 40
0.785398
 40
0.897598
 40
0.897598
 40
1.0098
 40
1.0098
 40
1.122
 40
1.122
 40
1.2342
 40
1.2342
 40
1.3464
 40
1.3464
 40
1.5708
 40
1.5708
 40
1.5708
 10
276.746
 20
120.679
 30
0
 10
276.746
 20
120.686
 30
0
 10
276.746
 20
120.694
 30
0
 10
276.746
 20
120.718
 30
0
 10
276.746
 20
120.741
 30
0
 10
276.746
 20
120.78
 30
0
 10
276.746
 20
120.819
 30
0
 10
276.746
 20
120.873
 30
0
 10
276.746
 20
120.926
 30
0
 10
276.746
 20
120.994
 30
0
 10
276.746
 20
121.062
 30
0
 10
276.746
 20
121.143
 30
0
 10
276.746
 20
121.224
 30
0
 10
276.746
 20
121.317
 30
0
 10
276.746
 20
121.411
 30
0
 10
276.746
 20
121.515
 30
0
 10
276.746
 20
121.62
 30
0
 10
276.746
 20
121.734
 30
0
 10
276.746
 20
121.849
 30
0
 10
276.746
 20
121.971
 30
0
 10
276.746
 20
122.094
 30
0
 10
276.746
 20
122.223
 30
0
 10
276.746
 20
122.353
 30
0
 10
276.746
 20
122.488
 30
0
 10
276.746
 20
122.622
 30
0
 10
276.746
 20
122.898
 30
0
 10
276.746
 20
123.179
 30
0
  0
LINE
  5
A8A
330
A02
100
AcDbEntity
  8
View012
100
AcDbLine
 10
276.746
 20
200.579
 30
0
 11
276.746
 21
123.179
 31
0
  0
SPLINE
  5
A8B
330
A02
100
AcDbEntity
  8
View012
100
AcDbSpline
210
0
220
0
230
1
 70
8
 71
2
 72
30
 73
27
 74
0
 40
1.5708
 40
1.5708
 40
1.5708
 40
1.683
 40
1.683
 40
1.9074
 40
1.9074
 40
2.0196
 40
2.0196
 40
2.1318
 40
2.1318
 40
2.24399
 40
2.24399
 40
2.35619
 40
2.35619
 40
2.46839
 40
2.46839
 40
2.58059
 40
2.58059
 40
2.69279
 40
2.69279
 40
2.80499
 40
2.80499
 40
2.91719
 40
2.91719
 40
3.02939
 40
3.02939
 40
3.14159
 40
3.14159
 40
3.14159
 10
276.746
 20
200.579
 30
0
 10
276.746
 20
200.719
 30
0
 10
276.746
 20
200.859
 30
0
 10
276.746
 20
201.137
 30
0
 10
276.746
 20
201.404
 30
0
 10
276.746
 20
201.534
 30
0
 10
276.746
 20
201.663
 30
0
 10
276.746
 20
201.786
 30
0
 10
276.746
 20
201.909
 30
0
 10
276.746
 20
202.023
 30
0
 10
276.746
 20
202.137
 30
0
 10
276.746
 20
202.242
 30
0
 10
276.746
 20
202.346
 30
0
 10
276.746
 20
202.44
 30
0
 10
276.746
 20
202.533
 30
0
 10
276.746
 20
202.614
 30
0
 10
276.746
 20
202.695
 30
0
 10
276.746
 20
202.763
 30
0
 10
276.746
 20
202.831
 30
0
 10
276.746
 20
202.885
 30
0
 10
276.746
 20
202.938
 30
0
 10
276.746
 20
202.977
 30
0
 10
276.746
 20
203.016
 30
0
 10
276.746
 20
203.039
 30
0
 10
276.746
 20
203.063
 30
0
 10
276.746
 20
203.071
 30
0
 10
276.746
 20
203.079
 30
0
  0
SPLINE
  5
A8C
330
A02
100
AcDbEntity
  8
View012
100
AcDbSpline
210
0
220
0
230
1
 70
8
 71
2
 72
30
 73
27
 74
0
 40
1.5708
 40
1.5708
 40
1.5708
 40
1.683
 40
1.683
 40
1.9074
 40
1.9074
 40
2.0196
 40
2.0196
 40
2.1318
 40
2.1318
 40
2.24399
 40
2.24399
 40
2.35619
 40
2.35619
 40
2.46839
 40
2.46839
 40
2.58059
 40
2.58059
 40
2.69279
 40
2.69279
 40
2.80499
 40
2.80499
 40
2.91719
 40
2.91719
 40
3.02939
 40
3.02939
 40
3.14159
 40
3.14159
 40
3.14159
 10
278.246
 20
200.579
 30
0
 10
278.246
 20
200.719
 30
0
 10
278.246
 20
200.859
 30
0
 10
278.246
 20
201.137
 30
0
 10
278.246
 20
201.404
 30
0
 10
278.246
 20
201.534
 30
0
 10
278.246
 20
201.663
 30
0
 10
278.246
 20
201.786
 30
0
 10
278.246
 20
201.909
 30
0
 10
278.246
 20
202.023
 30
0
 10
278.246
 20
202.137
 30
0
 10
278.246
 20
202.242
 30
0
 10
278.246
 20
202.346
 30
0
 10
278.246
 20
202.44
 30
0
 10
278.246
 20
202.533
 30
0
 10
278.246
 20
202.614
 30
0
 10
278.246
 20
202.695
 30
0
 10
278.246
 20
202.763
 30
0
 10
278.246
 20
202.831
 30
0
 10
278.246
 20
202.885
 30
0
 10
278.246
 20
202.938
 30
0
 10
278.246
 20
202.977
 30
0
 10
278.246
 20
203.016
 30
0
 10
278.246
 20
203.039
 30
0
 10
278.246
 20
203.063
 30
0
 10
278.246
 20
203.071
 30
0
 10
278.246
 20
203.079
 30
0
  0
LINE
  5
A8D
330
A02
100
AcDbEntity
  8
View012
100
AcDbLine
 10
278.246
 20
200.579
 30
0
 11
278.246
 21
123.179
 31
0
  0
SPLINE
  5
A8E
330
A02
100
AcDbEntity
  8
View012
100
AcDbSpline
210
0
220
0
230
1
 70
8
 71
2
 72
30
 73
27
 74
0
 40
0
 40
0
 40
0
 40
0.1122
 40
0.1122
 40
0.224399
 40
0.224399
 40
0.336599
 40
0.336599
 40
0.448799
 40
0.448799
 40
0.560999
 40
0.560999
 40
0.673198
 40
0.673198
 40
0.785398
 40
0.785398
 40
0.897598
 40
0.897598
 40
1.0098
 40
1.0098
 40
1.122
 40
1.122
 40
1.2342
 40
1.2342
 40
1.3464
 40
1.3464
 40
1.5708
 40
1.5708
 40
1.5708
 10
278.246
 20
120.679
 30
0
 10
278.246
 20
120.686
 30
0
 10
278.246
 20
120.694
 30
0
 10
278.246
 20
120.718
 30
0
 10
278.246
 20
120.741
 30
0
 10
278.246
 20
120.78
 30
0
 10
278.246
 20
120.819
 30
0
 10
278.246
 20
120.873
 30
0
 10
278.246
 20
120.926
 30
0
 10
278.246
 20
120.994
 30
0
 10
278.246
 20
121.062
 30
0
 10
278.246
 20
121.143
 30
0
 10
278.246
 20
121.224
 30
0
 10
278.246
 20
121.317
 30
0
 10
278.246
 20
121.411
 30
0
 10
278.246
 20
121.515
 30
0
 10
278.246
 20
121.62
 30
0
 10
278.246
 20
121.734
 30
0
 10
278.246
 20
121.849
 30
0
 10
278.246
 20
121.971
 30
0
 10
278.246
 20
122.094
 30
0
 10
278.246
 20
122.223
 30
0
 10
278.246
 20
122.353
 30
0
 10
278.246
 20
122.488
 30
0
 10
278.246
 20
122.622
 30
0
 10
278.246
 20
122.898
 30
0
 10
278.246
 20
123.179
 30
0
  0
LINE
  5
A8F
330
A02
100
AcDbEntity
  8
View012
100
AcDbLine
 10
276.746
 20
203.079
 30
0
 11
278.246
 21
203.079
 31
0
  0
LINE
  5
A90
330
A02
100
AcDbEntity
  8
View012
100
AcDbLine
 10
168.346
 20
123.179
 30
0
 11
166.846
 21
123.179
 31
0
  0
LINE
  5
A91
330
A02
100
AcDbEntity
  8
View012
100
AcDbLine
 10
168.346
 20
200.579
 30
0
 11
166.846
 21
200.579
 31
0
  0
LINE
  5
A92
330
A02
100
AcDbEntity
  8
View012
100
AcDbLine
 10
276.746
 20
123.179
 30
0
 11
278.246
 21
123.179
 31
0
  0
LINE
  5
A93
330
A02
100
AcDbEntity
  8
View012
100
AcDbLine
 10
276.746
 20
200.579
 30
0
 11
278.246
 21
200.579
 31
0
  0
ENDSEC
  0
SECTION
  2
OBJECTS
  0
DICTIONARY
  5
F000
330
0
100
AcDbDictionary
  3
ACAD_GROUP
350
F001
  0
DICTIONARY
  5
F001
330
F000
100
AcDbDictionary
  0
ENDSEC
  0
EOF