999
FreeCAD v0.21 33110 (Git)
  0
SECTION
  2
HEADER
  9
$ACADVER
  1
AC1014
  9
$ACADMAINTVER
 70
     9
  9
$DWGCODEPAGE
  3
ANSI_1252
  9
$TEXTSTYLE
  7
STANDARD
  9
$DIMSTYLE
  2
STANDARD
  9
$DIMTXSTY
  7
STANDARD
  9
$CMLSTYLE
  2
STANDARD
  9
$LUNITS
 70
2
  9
$INSUNITS
 70
4
  9
$PEXTMAX
 10
50
 20
50
 30
50
  9
$PEXTMIN
 10
0
 20
0
 30
0
  9
$HANDSEED
  5
FFFF
  0
ENDSEC
  0
SECTION
  2
CLASSES
  0
CLASS
  1
ACDBDICTIONARYWDFLT
  2
AcDbDictionaryWithDefault
  3
ObjectDBX Classes
 90
        0
280
     0
281
     0
  0
CLASS
  1
XRECORD
  2
AcDbXrecord
  3
ObjectDBX Classes
 90
        0
280
     0
281
     0
  0
CLASS
  1
LWPOLYLINE
  2
AcDbPolyline
  3
ObjectDBX Classes
 90
        0
280
     0
281
     1
  0
ENDSEC
  0
SECTION
  2
TABLES
  0
TABLE
  2
VPORT
  5
20
330
0
100
AcDbSymbolTable
 70
     1
  0
VPORT
  5
21
330
20
100
AcDbSymbolTableRecord
100
AcDbViewportTableRecord
  2
*ACTIVE
 70
     0
  0
ENDTAB
  0
TABLE
  2
LTYPE
  5
22
330
0
100
AcDbSymbolTable
 70
     1
  0
LTYPE
  5
23
330
21
100
AcDbSymbolTableRecord
100
AcDbLinetypeTableRecord
  2
BYBLOCK
 70
     0
  3

 72
    65
 73
     0
 40
0.0
  0
LTYPE
  5
24
330
21
100
AcDbSymbolTableRecord
100
AcDbLinetypeTableRecord
  2
BYLAYER
 70
     0
  3

 72
    65
 73
     0
 40
0.0
  0
LTYPE
  5
25
330
21
100
AcDbSymbolTableRecord
100
AcDbLinetypeTableRecord
  2
CONTINUOUS
 70
     0
  3
Solid line
 72
    65
 73
     0
 40
0.0
  0
ENDTAB
  0
TABLE
  2
LAYER
  5
A4D
330
0
100
AcDbSymbolTable
 70
2
  0
LAYER
  5
A4E
330
A4D
100
AcDbSymbolTableRecord
100
AcDbLayerTableRecord
  2
0
 70
   0
 62
   7
  6
CONTINUOUS
  0
LAYER
  5
A4F
330
A4D
100
AcDbSymbolTableRecord
100
AcDbLayerTableRecord
  2
View013
 70
    0
 62
    7
  6
CONTINUOUS
  0
ENDTAB
  0
TABLE
  2
STYLE
  5
70
330
0
100
AcDbSymbolTable
 70
     2
  0
STYLE
  5
71
330
70
100
AcDbSymbolTableRecord
100
AcDbTextStyleTableRecord
  2
STANDARD
 70
     0
 40
0.0
 41
1.0
 50
0.0
 71
     0
 42
2.5
  3
arial.ttf
  4

  0
STYLE
  5
72
330
70
100
AcDbSymbolTableRecord
100
AcDbTextStyleTableRecord
  2
ANNOTATIVE
 70
     0
 40
0.0
 41
1.0
 50
0.0
 71
     0
 42
2.5
  3
arial.ttf
  4

  0
ENDTAB
  0
TABLE
  2
VIEW
  5
73
330
0
100
AcDbSymbolTable
 70
     0
  0
ENDTAB
  0
TABLE
  2
UCS
  5
74
330
0
100
AcDbSymbolTable
 70
     0
  0
ENDTAB
  0
TABLE
  2
APPID
  5
75
330
0
100
AcDbSymbolTable
 70
     2
  0
APPID
  5
76
330
75
100
AcDbSymbolTableRecord
100
AcDbRegAppTableRecord
  2
ACAD
 70
     0
  0
APPID
  5
77
330
75
100
AcDbSymbolTableRecord
100
AcDbRegAppTableRecord
  2
ACADANNOTATIVE
 70
     0
  0
ENDTAB
  0
TABLE
  2
DIMSTYLE
  5
78
330
0
100
AcDbSymbolTable
 70
     2
  0
DIMSTYLE
105
79
330
78
100
AcDbSymbolTableRecord
100
AcDbDimStyleTableRecord
  2
STANDARD
 70
     0
  3

  4

  5

  6

  7

 40
0.0
 41
2.5
 42
0.625
 43
3.75
 44
1.25
 45
0.0
 46
0.0
 47
0.0
 48
0.0
140
2.5
141
2.5
142
0.0
143
0.03937007874016
144
1.0
145
0.0
146
1.0
147
0.625
 71
     0
 72
     0
 73
     0
 74
     0
 75
     0
 76
     0
 77
     1
 78
     8
170
     0
171
     3
172
     1
173
     0
174
     0
175
     0
176
     0
177
     0
178
     0
270
     2
271
     2
272
     2
273
     2
274
     3
340
71
275
     0
280
     0
281
     0
282
     0
283
     0
284
     8
285
     0
286
     0
287
     3
288
     0
  0
ENDTAB
  0
TABLE
  2
BLOCK_RECORD
  5
A01
330
0
100
AcDbSymbolTable
  70
5
  0
BLOCK_RECORD
  5
A02
330
A01
100
AcDbSymbolTableRecord
100
AcDbBlockTableRecord
  2
*MODEL_SPACE
  0
BLOCK_RECORD
  5
A03
330
A01
100
AcDbSymbolTableRecord
100
AcDbBlockTableRecord
  2
*PAPER_SPACE
  0
ENDTAB
  0
ENDSEC
  0
SECTION
  2
BLOCKS
  0
BLOCK
  5
A04
330
A02
100
AcDbEntity
  8
0
100
AcDbBlockBegin
  2
*MODEL_SPACE
 70
   0
 10
0
 20
0
 30
0
  3
*MODEL_SPACE
  1
 
  0
ENDBLK
  5
A05
330
A02
100
AcDbEntity
  8
0
100
AcDbBlockEnd
  0
BLOCK
  5
A06
330
A03
100
AcDbEntity
 67
1
  8
0
100
AcDbBlockBegin
  2
*PAPER_SPACE
 70
   0
 10
0
 20
0
 30
0
  3
*PAPER_SPACE
  1
 
  0
ENDBLK
  5
A07
330
A03
100
AcDbEntity
 67
    1
  8
0
100
AcDbBlockEnd
  0
ENDSEC
  0
SECTION
  2
ENTITIES
  0
LINE
  5
A08
330
A02
100
AcDbEntity
  8
View013
100
AcDbLine
 10
80.7905
 20
118.798
 30
0
 11
79.069
 21
95.6906
 31
0
  0
LINE
  5
A09
330
A02
100
AcDbEntity
  8
View013
100
AcDbLine
 10
136.85
 20
75.5591
 30
0
 11
138.572
 21
98.6668
 31
0
  0
ELLIPSE
  5
A0A
330
A02
100
AcDbEntity
  8
View013
100
AcDbEllipse
 10
135.13
 20
76.1763
 30
0
 11
-0.477113
 21
2.45405
 31
0
 40
0.677383
 41
3.14159
 42
4.32945
  0
ELLIPSE
  5
A0B
330
A02
100
AcDbEntity
  8
View013
100
AcDbEllipse
 10
120.489
 20
84.481
 30
0
 11
-0.238556
 21
1.22703
 31
0
 40
0.677383
 41
0.709684
 42
2.43191
  0
ELLIPSE
  5
A0C
330
A02
100
AcDbEntity
  8
View013
100
AcDbEllipse
 10
95.1674
 20
93.5658
 30
0
 11
-0.238556
 21
1.22703
 31
0
 40
0.677383
 41
0.709684
 42
2.43191
  0
ELLIPSE
  5
A0D
330
A02
100
AcDbEntity
  8
View013
100
AcDbEllipse
 10
103.606
 20
96.8386
 30
0
 11
0.343521
 21
-1.76692
 31
0
 40
0.677383
 41
-2.67203
 42
-1.95374
  0
ELLIPSE
  5
A0E
330
A02
100
AcDbEntity
  8
View013
100
AcDbEllipse
 10
103.606
 20
96.8386
 30
0
 11
0.343521
 21
-1.76692
 31
0
 40
0.677383
 41
-1.95374
 42
-0.469562
  0
ELLIPSE
  5
A0F
330
A02
100
AcDbEntity
  8
View013
100
AcDbEllipse
 10
80.7892
 20
95.0734
 30
0
 11
-0.477113
 21
2.45405
 31
0
 40
0.677383
 41
1.18786
 42
2.75865
  0
ELLIPSE
  5
A10
330
A02
100
AcDbEntity
  8
View013
100
AcDbEllipse
 10
82.5958
 20
119.149
 30
0
 11
-0.844259
 21
-2.35313
 31
0
 40
0.682349
 41
3.52707
 42
5.09787
  0
LINE
  5
A11
330
A02
100
AcDbEntity
  8
View013
100
AcDbLine
 10
80.7905
 20
118.798
 30
0
 11
137.488
 21
98.4562
 31
0
  0
LINE
  5
A12
330
A02
100
AcDbEntity
  8
View013
100
AcDbLine
 10
80.6107
 20
92.6764
 30
0
 11
133.868
 21
73.5686
 31
0
  0
LINE
  5
A13
330
A02
100
AcDbEntity
  8
View013
100
AcDbLine
 10
135.767
 20
75.3485
 30
0
 11
137.488
 21
98.4562
 31
0
  0
ELLIPSE
  5
A14
330
A02
100
AcDbEntity
  8
View013
100
AcDbEllipse
 10
134.047
 20
75.9657
 30
0
 11
-0.477113
 21
2.45405
 31
0
 40
0.677383
 41
2.75865
 42
3.14159
  0
ELLIPSE
  5
A15
330
A02
100
AcDbEntity
  8
View013
100
AcDbEllipse
 10
134.047
 20
75.9657
 30
0
 11
-0.477113
 21
2.45405
 31
0
 40
0.677383
 41
3.14159
 42
4.32945
  0
ELLIPSE
  5
A16
330
A02
100
AcDbEntity
  8
View013
100
AcDbEllipse
 10
119.406
 20
84.2704
 30
0
 11
-0.238556
 21
1.22703
 31
0
 40
0.677383
 41
5.90024
 42
0
  0
ELLIPSE
  5
A17
330
A02
100
AcDbEntity
  8
View013
100
AcDbEllipse
 10
119.406
 20
84.2704
 30
0
 11
-0.238556
 21
1.22703
 31
0
 40
0.677383
 41
0
 42
3.14159
  0
ELLIPSE
  5
A18
330
A02
100
AcDbEntity
  8
View013
100
AcDbEllipse
 10
119.406
 20
84.2704
 30
0
 11
-0.238556
 21
1.22703
 31
0
 40
0.677383
 41
3.14159
 42
5.90024
  0
ELLIPSE
  5
A19
330
A02
100
AcDbEntity
  8
View013
100
AcDbEllipse
 10
94.0842
 20
93.3553
 30
0
 11
-0.238556
 21
1.22703
 31
0
 40
0.677383
 41
5.90024
 42
0
  0
ELLIPSE
  5
A1A
330
A02
100
AcDbEntity
  8
View013
100
AcDbEllipse
 10
94.0842
 20
93.3553
 30
0
 11
-0.238556
 21
1.22703
 31
0
 40
0.677383
 41
0
 42
3.14159
  0
ELLIPSE
  5
A1B
330
A02
100
AcDbEntity
  8
View013
100
AcDbEllipse
 10
94.0842
 20
93.3553
 30
0
 11
-0.238556
 21
1.22703
 31
0
 40
0.677383
 41
3.14159
 42
5.90024
  0
ELLIPSE
  5
A1C
330
A02
100
AcDbEntity
  8
View013
100
AcDbEllipse
 10
102.523
 20
96.628
 30
0
 11
0.343521
 21
-1.76692
 31
0
 40
0.677383
 41
-3.14159
 42
-1.95374
  0
ELLIPSE
  5
A1D
330
A02
100
AcDbEntity
  8
View013
100
AcDbEllipse
 10
102.523
 20
96.628
 30
0
 11
0.343521
 21
-1.76692
 31
0
 40
0.677383
 41
-0
 42
-3.14159
  0
ELLIPSE
  5
A1E
330
A02
100
AcDbEntity
  8
View013
100
AcDbEllipse
 10
102.523
 20
96.628
 30
0
 11
0.343521
 21
-1.76692
 31
0
 40
0.677383
 41
-1.95374
 42
-0
  0
LINE
  5
A1F
330
A02
100
AcDbEntity
  8
View013
100
AcDbLine
 10
137.488
 20
98.4562
 30
0
 11
138.572
 21
98.6668
 31
0
  0
ELLIPSE
  5
A20
330
A02
100
AcDbEntity
  8
View013
100
AcDbEllipse
 10
139.294
 20
98.8072
 30
0
 11
-0.337703
 21
-0.941253
 31
0
 40
0.682349
 41
3.52707
 42
5.09787
  0
ELLIPSE
  5
A21
330
A02
100
AcDbEntity
  8
View013
100
AcDbEllipse
 10
139.294
 20
98.8072
 30
0
 11
-0.844259
 21
-2.35313
 31
0
 40
0.682349
 41
3.52707
 42
5.09787
  0
LINE
  5
A22
330
A02
100
AcDbEntity
  8
View013
100
AcDbLine
 10
139.472
 20
101.204
 30
0
 11
82.7743
 21
121.546
 31
0
  0
LINE
  5
A23
330
A02
100
AcDbEntity
  8
View013
100
AcDbLine
 10
82.7743
 20
121.546
 30
0
 11
159.607
 21
136.484
 31
0
  0
LINE
  5
A24
330
A02
100
AcDbEntity
  8
View013
100
AcDbLine
 10
139.365
 20
99.766
 30
0
 11
139.472
 21
101.204
 31
0
  0
LINE
  5
A25
330
A02
100
AcDbEntity
  8
View013
100
AcDbLine
 10
216.198
 20
114.704
 30
0
 11
139.365
 21
99.766
 31
0
  0
LINE
  5
A26
330
A02
100
AcDbEntity
  8
View013
100
AcDbLine
 10
159.607
 20
136.484
 30
0
 11
216.305
 21
116.142
 31
0
  0
LINE
  5
A27
330
A02
100
AcDbEntity
  8
View013
100
AcDbLine
 10
216.305
 20
116.142
 30
0
 11
139.472
 21
101.204
 31
0
  0
ELLIPSE
  5
A28
330
A02
100
AcDbEntity
  8
View013
100
AcDbEllipse
 10
186.619
 20
121.599
 30
0
 11
1.59558
 21
-0.118866
 31
0
 40
0.274868
 41
0.781746
 42
3.14159
  0
ELLIPSE
  5
A29
330
A02
100
AcDbEntity
  8
View013
100
AcDbEllipse
 10
186.619
 20
121.599
 30
0
 11
1.59558
 21
-0.118866
 31
0
 40
0.274868
 41
3.14159
 42
0
  0
ELLIPSE
  5
A2A
330
A02
100
AcDbEntity
  8
View013
100
AcDbEllipse
 10
186.619
 20
121.599
 30
0
 11
1.59558
 21
-0.118866
 31
0
 40
0.274868
 41
0
 42
0.781746
  0
ELLIPSE
  5
A2B
330
A02
100
AcDbEntity
  8
View013
100
AcDbEllipse
 10
182.49
 20
123.081
 30
0
 11
1.59558
 21
-0.118866
 31
0
 40
0.274868
 41
0.781746
 42
3.14159
  0
ELLIPSE
  5
A2C
330
A02
100
AcDbEntity
  8
View013
100
AcDbEllipse
 10
182.49
 20
123.081
 30
0
 11
1.59558
 21
-0.118866
 31
0
 40
0.274868
 41
3.14159
 42
0
  0
ELLIPSE
  5
A2D
330
A02
100
AcDbEntity
  8
View013
100
AcDbEllipse
 10
182.49
 20
123.081
 30
0
 11
1.59558
 21
-0.118866
 31
0
 40
0.274868
 41
0
 42
0.781746
  0
ELLIPSE
  5
A2E
330
A02
100
AcDbEntity
  8
View013
100
AcDbEllipse
 10
178.362
 20
124.562
 30
0
 11
1.59558
 21
-0.118866
 31
0
 40
0.274868
 41
0.781746
 42
3.14159
  0
ELLIPSE
  5
A2F
330
A02
100
AcDbEntity
  8
View013
100
AcDbEllipse
 10
178.362
 20
124.562
 30
0
 11
1.59558
 21
-0.118866
 31
0
 40
0.274868
 41
3.14159
 42
0
  0
ELLIPSE
  5
A30
330
A02
100
AcDbEntity
  8
View013
100
AcDbEllipse
 10
178.362
 20
124.562
 30
0
 11
1.59558
 21
-0.118866
 31
0
 40
0.274868
 41
0
 42
0.781746
  0
ELLIPSE
  5
A31
330
A02
100
AcDbEntity
  8
View013
100
AcDbEllipse
 10
159.428
 20
134.087
 30
0
 11
0.844259
 21
2.35313
 31
0
 40
0.682349
 41
-0
 42
-5.89771
  0
LINE
  5
A32
330
A02
100
AcDbEntity
  8
View013
100
AcDbLine
 10
216.305
 20
116.142
 30
0
 11
216.198
 21
114.704
 31
0
  0
ELLIPSE
  5
A33
330
A02
100
AcDbEntity
  8
View013
100
AcDbEllipse
 10
216.126
 20
113.745
 30
0
 11
0.337703
 21
0.941253
 31
0
 40
0.682349
 41
-0
 42
-5.89771
  0
ELLIPSE
  5
A34
330
A02
100
AcDbEntity
  8
View013
100
AcDbEllipse
 10
216.126
 20
113.745
 30
0
 11
0.337703
 21
0.941253
 31
0
 40
0.682349
 41
-1.18532
 42
-0
  0
LINE
  5
A35
330
A02
100
AcDbEntity
  8
View013
100
AcDbLine
 10
215.14
 20
114.498
 30
0
 11
216.848
 21
113.885
 31
0
  0
ELLIPSE
  5
A36
330
A02
100
AcDbEntity
  8
View013
100
AcDbEllipse
 10
216.126
 20
113.745
 30
0
 11
0.844259
 21
2.35313
 31
0
 40
0.682349
 41
-0
 42
-5.89771
  0
ELLIPSE
  5
A37
330
A02
100
AcDbEntity
  8
View013
100
AcDbEllipse
 10
216.126
 20
113.745
 30
0
 11
0.844259
 21
2.35313
 31
0
 40
0.682349
 41
-1.18532
 42
-0
  0
LINE
  5
A38
330
A02
100
AcDbEntity
  8
View013
100
AcDbLine
 10
216.848
 20
113.885
 30
0
 11
217.931
 21
114.096
 31
0
  0
LINE
  5
A39
330
A02
100
AcDbEntity
  8
View013
100
AcDbLine
 10
213.228
 20
88.9977
 30
0
 11
167.804
 21
105.295
 31
0
  0
LINE
  5
A3A
330
A02
100
AcDbEntity
  8
View013
100
AcDbLine
 10
216.848
 20
113.885
 30
0
 11
215.127
 21
90.7775
 31
0
  0
ELLIPSE
  5
A3B
330
A02
100
AcDbEntity
  8
View013
100
AcDbEllipse
 10
213.407
 20
91.3947
 30
0
 11
-0.477113
 21
2.45405
 31
0
 40
0.677383
 41
2.75865
 42
3.14159
  0
ELLIPSE
  5
A3C
330
A02
100
AcDbEntity
  8
View013
100
AcDbEllipse
 10
213.407
 20
91.3947
 30
0
 11
-0.477113
 21
2.45405
 31
0
 40
0.677383
 41
3.14159
 42
4.32945
  0
ELLIPSE
  5
A3D
330
A02
100
AcDbEntity
  8
View013
100
AcDbEllipse
 10
198.765
 20
99.6995
 30
0
 11
0.238556
 21
-1.22703
 31
0
 40
0.677383
 41
-3.14159
 42
-0.38294
  0
ELLIPSE
  5
A3E
330
A02
100
AcDbEntity
  8
View013
100
AcDbEllipse
 10
198.765
 20
99.6995
 30
0
 11
0.238556
 21
-1.22703
 31
0
 40
0.677383
 41
-0
 42
-3.14159
  0
ELLIPSE
  5
A3F
330
A02
100
AcDbEntity
  8
View013
100
AcDbEllipse
 10
198.765
 20
99.6995
 30
0
 11
0.238556
 21
-1.22703
 31
0
 40
0.677383
 41
-0.38294
 42
-0
  0
LINE
  5
A40
330
A02
100
AcDbEntity
  8
View013
100
AcDbLine
 10
217.931
 20
114.096
 30
0
 11
216.21
 21
90.9881
 31
0
  0
ELLIPSE
  5
A41
330
A02
100
AcDbEntity
  8
View013
100
AcDbEllipse
 10
214.49
 20
91.6053
 30
0
 11
-0.477113
 21
2.45405
 31
0
 40
0.677383
 41
3.14159
 42
4.32945
  0
ELLIPSE
  5
A42
330
A02
100
AcDbEntity
  8
View013
100
AcDbEllipse
 10
199.849
 20
99.9101
 30
0
 11
0.238556
 21
-1.22703
 31
0
 40
0.677383
 41
-2.43191
 42
-0.709684
  0
LINE
  5
A43
330
A02
100
AcDbEntity
  8
View013
100
AcDbLine
 10
135.607
 20
73.7222
 30
0
 11
134.524
 21
73.5116
 31
0
  0
LINE
  5
A44
330
A02
100
AcDbEntity
  8
View013
100
AcDbLine
 10
216.97
 20
116.098
 30
0
 11
160.273
 21
136.44
 31
0
  0
LINE
  5
A45
330
A02
100
AcDbEntity
  8
View013
100
AcDbLine
 10
213.884
 20
88.9407
 30
0
 11
214.967
 21
89.1513
 31
0
  0
LINE
  5
A46
330
A02
100
AcDbEntity
  8
View013
100
AcDbLine
 10
136.85
 20
75.5591
 30
0
 11
135.767
 21
75.3485
 31
0
  0
LINE
  5
A47
330
A02
100
AcDbEntity
  8
View013
100
AcDbLine
 10
215.127
 20
90.7775
 30
0
 11
216.21
 21
90.9881
 31
0
  0
LINE
  5
A48
330
A02
100
AcDbEntity
  8
View013
100
AcDbLine
 10
101.285
 20
97.0724
 30
0
 11
102.368
 21
97.283
 31
0
  0
LINE
  5
A49
330
A02
100
AcDbEntity
  8
View013
100
AcDbLine
 10
187.774
 20
121.824
 30
0
 11
187.728
 21
121.206
 31
0
  0
LINE
  5
A4A
330
A02
100
AcDbEntity
  8
View013
100
AcDbLine
 10
183.646
 20
123.305
 30
0
 11
183.6
 21
122.687
 31
0
  0
LINE
  5
A4B
330
A02
100
AcDbEntity
  8
View013
100
AcDbLine
 10
179.517
 20
124.787
 30
0
 11
179.471
 21
124.169
 31
0
  0
LINE
  5
A4C
330
A02
100
AcDbEntity
  8
View013
100
AcDbLine
 10
199.297
 20
98.6217
 30
0
 11
198.676
 21
98.5009
 31
0
  0
ENDSEC
  0
SECTION
  2
OBJECTS
  0
DICTIONARY
  5
F000
330
0
100
AcDbDictionary
  3
ACAD_GROUP
350
F001
  0
DICTIONARY
  5
F001
330
F000
100
AcDbDictionary
  0
ENDSEC
  0
EOF