  0
SECTION
  2
HEADER
  9
$ACADVER
  1
AC1014
  9
$ACADMAINTVER
 70
     9
  9
$DWGCODEPAGE
  3
ANSI_1252
  9
$INSBASE
 10
0.0
 20
0.0
 30
0.0
  9
$EXTMIN
 10
78.516702
 20
46.19915
 30
0.0
  9
$EXTMAX
 10
220.738684
 20
193.076106
 30
0.0
  9
$LIMMIN
 10
0.0
 20
0.0
  9
$LIMMAX
 10
12.0
 20
9.0
  9
$ORTHOMODE
 70
     0
  9
$REGENMODE
 70
     1
  9
$FILLMODE
 70
     1
  9
$QTEXTMODE
 70
     0
  9
$MIRRTEXT
 70
     1
  9
$DRAGMODE
 70
     2
  9
$LTSCALE
 40
1.0
  9
$OSMODE
 70
    37
  9
$ATTMODE
 70
     1
  9
$TEXTSIZE
 40
2.5
  9
$TRACEWID
 40
0.05
  9
$TEXTSTYLE
  7
STANDARD
  9
$CLAYER
  8
0
  9
$CELTYPE
  6
BYBLOCK
  9
$CECOLOR
 62
   256
  9
$CELTSCALE
 40
1.0
  9
$DELOBJ
 70
     1
  9
$DISPSILH
 70
     0
  9
$DIMSCALE
 40
1.0
  9
$DIMASZ
 40
0.18
  9
$DIMEXO
 40
0.0625
  9
$DIMDLI
 40
0.38
  9
$DIMRND
 40
0.0
  9
$DIMDLE
 40
0.0
  9
$DIMEXE
 40
0.18
  9
$DIMTP
 40
0.0
  9
$DIMTM
 40
0.0
  9
$DIMTXT
 40
0.18
  9
$DIMCEN
 40
0.09
  9
$DIMTSZ
 40
0.0
  9
$DIMTOL
 70
     0
  9
$DIMLIM
 70
     0
  9
$DIMTIH
 70
     1
  9
$DIMTOH
 70
     1
  9
$DIMSE1
 70
     0
  9
$DIMSE2
 70
     0
  9
$DIMTAD
 70
     0
  9
$DIMZIN
 70
     0
  9
$DIMBLK
  1

  9
$DIMASO
 70
     1
  9
$DIMSHO
 70
     1
  9
$DIMPOST
  1

  9
$DIMAPOST
  1

  9
$DIMALT
 70
     0
  9
$DIMALTD
 70
     2
  9
$DIMALTF
 40
25.4
  9
$DIMLFAC
 40
1.0
  9
$DIMTOFL
 70
     0
  9
$DIMTVP
 40
0.0
  9
$DIMTIX
 70
     0
  9
$DIMSOXD
 70
     0
  9
$DIMSAH
 70
     0
  9
$DIMBLK1
  1

  9
$DIMBLK2
  1

  9
$DIMSTYLE
  2
STANDARD
  9
$DIMCLRD
 70
     0
  9
$DIMCLRE
 70
     0
  9
$DIMCLRT
 70
     0
  9
$DIMTFAC
 40
1.0
  9
$DIMGAP
 40
0.09
  9
$DIMJUST
 70
     0
  9
$DIMSD1
 70
     0
  9
$DIMSD2
 70
     0
  9
$DIMTOLJ
 70
     1
  9
$DIMTZIN
 70
     0
  9
$DIMALTZ
 70
     0
  9
$DIMALTTZ
 70
     0
  9
$DIMFIT
 70
     5
  9
$DIMUPT
 70
     0
  9
$DIMUNIT
 70
     2
  9
$DIMDEC
 70
     4
  9
$DIMTDEC
 70
     4
  9
$DIMALTU
 70
     2
  9
$DIMALTTD
 70
     2
  9
$DIMTXSTY
  7
STANDARD
  9
$DIMAUNIT
 70
     0
  9
$LUNITS
 70
     2
  9
$LUPREC
 70
     4
  9
$SKETCHINC
 40
0.1
  9
$FILLETRAD
 40
0.5
  9
$AUNITS
 70
     0
  9
$AUPREC
 70
     0
  9
$MENU
  1
.
  9
$ELEVATION
 40
0.0
  9
$PELEVATION
 40
0.0
  9
$THICKNESS
 40
0.0
  9
$LIMCHECK
 70
     0
  9
$CHAMFERA
 40
0.0
  9
$CHAMFERB
 40
0.0
  9
$CHAMFERC
 40
0.0
  9
$CHAMFERD
 40
0.0
  9
$SKPOLY
 70
     0
  9
$TDCREATE
 40
2447893.375
  9
$TDUPDATE
 40
2460079.030621435
  9
$TDINDWG
 40
0.0
  9
$TDUSRTIMER
 40
0.0
  9
$USRTIMER
 70
     1
  9
$ANGBASE
 50
0.0
  9
$ANGDIR
 70
     0
  9
$PDMODE
 70
     0
  9
$PDSIZE
 40
0.0
  9
$PLINEWID
 40
0.0
  9
$COORDS
 70
     1
  9
$SPLFRAME
 70
     0
  9
$SPLINETYPE
 70
     6
  9
$SPLINESEGS
 70
     8
  9
$ATTDIA
 70
     0
  9
$ATTREQ
 70
     1
  9
$HANDLING
 70
     1
  9
$HANDSEED
  5
100A8
  9
$SURFTAB1
 70
     6
  9
$SURFTAB2
 70
     6
  9
$SURFTYPE
 70
     6
  9
$SURFU
 70
     6
  9
$SURFV
 70
     6
  9
$UCSNAME
  2

  9
$UCSORG
 10
0.0
 20
0.0
 30
0.0
  9
$UCSXDIR
 10
1.0
 20
0.0
 30
0.0
  9
$UCSYDIR
 10
0.0
 20
1.0
 30
0.0
  9
$PUCSNAME
  2

  9
$PUCSORG
 10
0.0
 20
0.0
 30
0.0
  9
$PUCSXDIR
 10
1.0
 20
0.0
 30
0.0
  9
$PUCSYDIR
 10
0.0
 20
1.0
 30
0.0
  9
$USERI1
 70
     0
  9
$USERI2
 70
     0
  9
$USERI3
 70
     0
  9
$USERI4
 70
     0
  9
$USERI5
 70
     0
  9
$USERR1
 40
0.0
  9
$USERR2
 40
0.0
  9
$USERR3
 40
0.0
  9
$USERR4
 40
0.0
  9
$USERR5
 40
0.0
  9
$WORLDVIEW
 70
     1
  9
$SHADEDGE
 70
     3
  9
$SHADEDIF
 70
    70
  9
$TILEMODE
 70
     1
  9
$MAXACTVP
 70
    64
  9
$PINSBASE
 10
0.0
 20
0.0
 30
0.0
  9
$PLIMCHECK
 70
     0
  9
$PEXTMIN
 10
0.0
 20
0.0
 30
0.0
  9
$PEXTMAX
 10
50.0
 20
50.0
 30
50.0
  9
$PLIMMIN
 10
0.0
 20
0.0
  9
$PLIMMAX
 10
12.0
 20
9.0
  9
$UNITMODE
 70
     0
  9
$VISRETAIN
 70
     1
  9
$PLINEGEN
 70
     0
  9
$PSLTSCALE
 70
     0
  9
$TREEDEPTH
 70
  3020
  9
$PICKSTYLE
 70
     1
  9
$CMLSTYLE
  2
STANDARD
  9
$CMLJUST
 70
     0
  9
$CMLSCALE
 40
1.0
  9
$PROXYGRAPHICS
 70
     1
  9
$MEASUREMENT
 70
     0
  0
ENDSEC
  0
SECTION
  2
CLASSES
  0
CLASS
  1
ACDBDICTIONARYWDFLT
  2
AcDbDictionaryWithDefault
  3
ObjectDBX Classes
 90
        0
280
     0
281
     0
  0
CLASS
  1
XRECORD
  2
AcDbXrecord
  3
ObjectDBX Classes
 90
        0
280
     0
281
     0
  0
CLASS
  1
LWPOLYLINE
  2
AcDbPolyline
  3
ObjectDBX Classes
 90
        0
280
     0
281
     1
  0
CLASS
  1
SCALE
  2
AcDbScale
  3
ObjectDBX Classes
 90
     1153
280
     0
281
     0
  0
CLASS
  1
VISUALSTYLE
  2
AcDbVisualStyle
  3
ObjectDBX Classes
 90
     4095
280
     0
281
     0
  0
CLASS
  1
MATERIAL
  2
AcDbMaterial
  3
ObjectDBX Classes
 90
     1153
280
     0
281
     0
  0
CLASS
  1
SUN
  2
AcDbSun
  3
SCENEOE
 90
     1153
280
     0
281
     0
  0
CLASS
  1
TABLESTYLE
  2
AcDbTableStyle
  3
ObjectDBX Classes
 90
     4095
280
     0
281
     0
  0
CLASS
  1
CSACDOCUMENTOPTIONS
  2
CDocDataContainer
  3
"DERU003_CSAPP"
 90
     4095
280
     0
281
     0
  0
CLASS
  1
SORTENTSTABLE
  2
AcDbSortentsTable
  3
ObjectDBX Classes
 90
        0
280
     0
281
     0
  0
CLASS
  1
DICTIONARYVAR
  2
AcDbDictionaryVar
  3
ObjectDBX Classes
 90
        0
280
     0
281
     0
  0
CLASS
  1
HATCH
  2
AcDbHatch
  3
ObjectDBX Classes
 90
        0
280
     0
281
     1
  0
CLASS
  1
ACDBPLACEHOLDER
  2
AcDbPlaceHolder
  3
ObjectDBX Classes
 90
        0
280
     0
281
     0
  0
CLASS
  1
LAYOUT
  2
AcDbLayout
  3
ObjectDBX Classes
 90
        0
280
     0
281
     0
  0
ENDSEC
  0
SECTION
  2
TABLES
  0
TABLE
  2
VPORT
  5
20
102
{ACAD_XDICTIONARY
360
100A0
102
}
330
0
100
AcDbSymbolTable
 70
     1
  0
VPORT
  5
21
330
20
100
AcDbSymbolTableRecord
100
AcDbViewportTableRecord
  2
*ACTIVE
 70
     0
 10
0.0
 20
0.0
 11
1.0
 21
1.0
 12
130.170904
 22
120.064328
 13
0.0
 23
0.0
 14
0.5
 24
0.5
 15
0.5
 25
0.5
 16
0.0
 26
0.0
 36
1.0
 17
0.0
 27
0.0
 37
0.0
 40
337.082615
 41
1.827759
 42
50.0
 43
0.0
 44
0.0
 50
0.0
 51
0.0
 71
    16
 72
   100
 73
     1
 74
     3
 75
     0
 76
     0
 77
     0
 78
     0
  0
ENDTAB
  0
TABLE
  2
LTYPE
  5
22
330
0
100
AcDbSymbolTable
 70
     1
  0
LTYPE
  5
23
330
22
100
AcDbSymbolTableRecord
100
AcDbLinetypeTableRecord
  2
BYBLOCK
 70
     0
  3

 72
    65
 73
     0
 40
0.0
  0
LTYPE
  5
24
330
22
100
AcDbSymbolTableRecord
100
AcDbLinetypeTableRecord
  2
BYLAYER
 70
     0
  3

 72
    65
 73
     0
 40
0.0
  0
LTYPE
  5
25
330
22
100
AcDbSymbolTableRecord
100
AcDbLinetypeTableRecord
  2
CONTINUOUS
 70
     0
  3
Solid line
 72
    65
 73
     0
 40
0.0
  0
ENDTAB
  0
TABLE
  2
LAYER
  5
B29
330
0
100
AcDbSymbolTable
 70
     3
  0
LAYER
  5
B2A
330
B29
100
AcDbSymbolTableRecord
100
AcDbLayerTableRecord
  2
0
 70
     0
 62
     7
  6
CONTINUOUS
  0
LAYER
  5
B2B
330
B29
100
AcDbSymbolTableRecord
100
AcDbLayerTableRecord
  2
VIEW
 70
     0
 62
     7
  6
CONTINUOUS
  0
LAYER
  5
B2C
330
B29
100
AcDbSymbolTableRecord
100
AcDbLayerTableRecord
  2
VIEW001
 70
     0
 62
     7
  6
CONTINUOUS
  0
ENDTAB
  0
TABLE
  2
STYLE
  5
70
330
0
100
AcDbSymbolTable
 70
     2
  0
STYLE
  5
71
330
70
100
AcDbSymbolTableRecord
100
AcDbTextStyleTableRecord
  2
STANDARD
 70
     0
 40
0.0
 41
1.0
 50
0.0
 71
     0
 42
2.5
  3
arial.ttf
  4

  0
STYLE
  5
72
330
70
100
AcDbSymbolTableRecord
100
AcDbTextStyleTableRecord
  2
ANNOTATIVE
 70
     0
 40
0.0
 41
1.0
 50
0.0
 71
     0
 42
2.5
  3
arial.ttf
  4

  0
ENDTAB
  0
TABLE
  2
VIEW
  5
73
330
0
100
AcDbSymbolTable
 70
     0
  0
ENDTAB
  0
TABLE
  2
UCS
  5
74
330
0
100
AcDbSymbolTable
 70
     0
  0
ENDTAB
  0
TABLE
  2
APPID
  5
75
330
0
100
AcDbSymbolTable
 70
     7
  0
APPID
  5
76
330
75
100
AcDbSymbolTableRecord
100
AcDbRegAppTableRecord
  2
ACAD
 70
     0
  0
APPID
  5
77
330
75
100
AcDbSymbolTableRecord
100
AcDbRegAppTableRecord
  2
ACADANNOTATIVE
 70
     0
  0
APPID
  5
10043
330
75
100
AcDbSymbolTableRecord
100
AcDbRegAppTableRecord
  2
MCS_DIM1
 70
     0
  0
APPID
  5
10044
330
75
100
AcDbSymbolTableRecord
100
AcDbRegAppTableRecord
  2
MCSXDATA5
 70
     0
  0
APPID
  5
10047
330
75
100
AcDbSymbolTableRecord
100
AcDbRegAppTableRecord
  2
MCS_DOCUMENT_ID
 70
     0
  0
APPID
  5
1005B
330
75
100
AcDbSymbolTableRecord
100
AcDbRegAppTableRecord
  2
MCS_PARAMS_DATA
 70
     0
  0
APPID
  5
1005D
330
75
100
AcDbSymbolTableRecord
100
AcDbRegAppTableRecord
  2
MC_VERSION_DATA
 70
     0
  0
ENDTAB
  0
TABLE
  2
DIMSTYLE
  5
78
330
0
100
AcDbSymbolTable
 70
     1
  0
DIMSTYLE
105
79
330
78
100
AcDbSymbolTableRecord
100
AcDbDimStyleTableRecord
  2
STANDARD
 70
     0
  3

  4

  5

  6

  7

 40
0.0
 41
2.5
 42
0.625
 43
3.75
 44
1.25
 45
0.0
 46
0.0
 47
0.0
 48
0.0
140
2.5
141
2.5
142
0.0
143
0.03937
144
1.0
145
0.0
146
1.0
147
0.625
 71
     0
 72
     0
 73
     0
 74
     0
 75
     0
 76
     0
 77
     1
 78
     8
170
     0
171
     3
172
     1
173
     0
174
     0
175
     0
176
     0
177
     0
178
     0
270
     2
271
     2
272
     2
273
     2
274
     3
340
71
275
     0
280
     0
281
     0
282
     0
283
     0
284
     8
285
     0
286
     0
287
     3
288
     0
  0
ENDTAB
  0
TABLE
  2
BLOCK_RECORD
  5
A01
330
0
100
AcDbSymbolTable
 70
     0
  0
BLOCK_RECORD
  5
A02
102
{ACAD_XDICTIONARY
360
1004D
102
}
330
A01
100
AcDbSymbolTableRecord
100
AcDbBlockTableRecord
  2
*MODEL_SPACE
  0
BLOCK_RECORD
  5
A03
330
A01
100
AcDbSymbolTableRecord
100
AcDbBlockTableRecord
  2
*PAPER_SPACE
  0
ENDTAB
  0
ENDSEC
  0
SECTION
  2
BLOCKS
  0
BLOCK
  5
A04
330
A02
100
AcDbEntity
  8
0
100
AcDbBlockBegin
  2
*MODEL_SPACE
 70
     0
 10
0.0
 20
0.0
 30
0.0
  3
*MODEL_SPACE
  1

  0
ENDBLK
  5
A05
330
A02
100
AcDbEntity
  8
0
100
AcDbBlockEnd
  0
BLOCK
  5
A06
330
A03
100
AcDbEntity
 67
     1
  8
0
100
AcDbBlockBegin
  2
*PAPER_SPACE
 70
     0
 10
0.0
 20
0.0
 30
0.0
  3
*PAPER_SPACE
  1

  0
ENDBLK
  5
A07
330
A03
100
AcDbEntity
 67
     1
  8
0
100
AcDbBlockEnd
  0
ENDSEC
  0
SECTION
  2
ENTITIES
  0
LINE
  5
A08
330
A02
100
AcDbEntity
  8
VIEW
100
AcDbLine
 10
83.7006
 20
143.549
 30
0.0
 11
82.9086
 21
165.906
 31
0.0
  0
ELLIPSE
  5
A09
330
A02
100
AcDbEntity
  8
VIEW
100
AcDbEllipse
 10
85.3172
 20
144.307
 30
0.0
 11
0.6860889999999999
 21
2.40401
 31
0.0
210
0.0
220
0.0
230
1.0
 40
0.609852
 41
-3.14159
 42
-2.65312
  0
ELLIPSE
  5
A0A
330
A02
100
AcDbEntity
  8
VIEW
100
AcDbEllipse
 10
85.3172
 20
144.307
 30
0.0
 11
0.6860889999999999
 21
2.40401
 31
0.0
210
0.0
220
0.0
230
1.0
 40
0.609852
 41
-4.22392
 42
-3.14159
  0
LINE
  5
A0B
330
A02
100
AcDbEntity
  8
VIEW
100
AcDbLine
 10
82.9086
 20
165.906
 30
0.0
 11
84.1254
 21
166.477
 31
0.0
  0
LINE
  5
A0C
330
A02
100
AcDbEntity
  8
VIEW
100
AcDbLine
 10
117.366
 20
156.99
 30
0.0
 11
85.3993
 21
141.988
 31
0.0
  0
ELLIPSE
  5
A0D
330
A02
100
AcDbEntity
  8
VIEW
100
AcDbEllipse
 10
99.1827
 20
153.738
 30
0.0
 11
0.3430440000000001
 21
1.20201
 31
0.0
210
0.0
220
0.0
230
1.0
 40
0.609852
 41
0.0
 42
0.488475307179586
  0
ELLIPSE
  5
A0E
330
A02
100
AcDbEntity
  8
VIEW
100
AcDbEllipse
 10
99.1827
 20
153.738
 30
0.0
 11
0.3430440000000001
 21
1.20201
 31
0.0
210
0.0
220
0.0
230
1.0
 40
0.609852
 41
-3.14159
 42
0.0
  0
ELLIPSE
  5
A0F
330
A02
100
AcDbEntity
  8
VIEW
100
AcDbEllipse
 10
99.1827
 20
153.738
 30
0.0
 11
0.3430440000000001
 21
1.20201
 31
0.0
210
0.0
220
0.0
230
1.0
 40
0.609852
 41
-5.79471
 42
-3.14159
  0
ELLIPSE
  5
A10
330
A02
100
AcDbEntity
  8
VIEW
100
AcDbEllipse
 10
136.954
 20
190.694
 30
0.0
 11
-1.06211
 21
2.26317
 31
0.0
210
0.0
220
0.0
230
1.0
 40
0.699831
 41
5.73556
 42
6.283185307179586
  0
LINE
  5
A11
330
A02
100
AcDbEntity
  8
VIEW
100
AcDbLine
 10
82.5574
 20
143.875
 30
0.0
 11
81.7655
 21
166.232
 31
0.0
  0
ELLIPSE
  5
A12
330
A02
100
AcDbEntity
  8
VIEW
100
AcDbEllipse
 10
84.174
 20
144.634
 30
0.0
 11
0.6860889999999999
 21
2.40401
 31
0.0
210
0.0
220
0.0
230
1.0
 40
0.609852
 41
-4.22392
 42
-3.14159
  0
ELLIPSE
  5
A13
330
A02
100
AcDbEntity
  8
VIEW
100
AcDbEllipse
 10
98.0396
 20
154.064
 30
0.0
 11
0.3430440000000001
 21
1.20201
 31
0.0
210
0.0
220
0.0
230
1.0
 40
0.609852
 41
-2.24739
 42
-0.8942049999999999
  0
LINE
  5
A14
330
A02
100
AcDbEntity
  8
VIEW
100
AcDbLine
 10
81.7655
 20
166.232
 30
0.0
 11
82.9086
 21
165.906
 31
0.0
  0
ELLIPSE
  5
A15
330
A02
100
AcDbEntity
  8
VIEW
100
AcDbEllipse
 10
83.6707
 20
165.688
 30
0.0
 11
-0.424842
 21
0.905267
 31
0.0
210
0.0
220
0.0
230
1.0
 40
0.699831
 41
5.73556
 42
6.283185307179586
  0
ELLIPSE
  5
A16
330
A02
100
AcDbEntity
  8
VIEW
100
AcDbEllipse
 10
83.6707
 20
165.688
 30
0.0
 11
-0.424842
 21
0.905267
 31
0.0
210
0.0
220
0.0
230
1.0
 40
0.699831
 41
0.0
 42
1.02318
  0
ELLIPSE
  5
A17
330
A02
100
AcDbEntity
  8
VIEW
100
AcDbEllipse
 10
83.6707
 20
165.688
 30
0.0
 11
-1.06211
 21
2.26317
 31
0.0
210
0.0
220
0.0
230
1.0
 40
0.699831
 41
5.73556
 42
6.283185307179586
  0
ELLIPSE
  5
A18
330
A02
100
AcDbEntity
  8
VIEW
100
AcDbEllipse
 10
83.6707
 20
165.688
 30
0.0
 11
-1.06211
 21
2.26317
 31
0.0
210
0.0
220
0.0
230
1.0
 40
0.699831
 41
0.0
 42
1.02318
  0
LINE
  5
A19
330
A02
100
AcDbEntity
  8
VIEW
100
AcDbLine
 10
83.5885
 20
168.008
 30
0.0
 11
136.872
 21
193.014
 31
0.0
  0
LINE
  5
A1A
330
A02
100
AcDbEntity
  8
VIEW
100
AcDbLine
 10
136.872
 20
193.014
 30
0.0
 11
217.958
 21
169.872
 31
0.0
  0
LINE
  5
A1B
330
A02
100
AcDbEntity
  8
VIEW
100
AcDbLine
 10
83.6378
 20
166.616
 30
0.0
 11
83.5885
 21
168.008
 31
0.0
  0
LINE
  5
A1C
330
A02
100
AcDbEntity
  8
VIEW
100
AcDbLine
 10
164.724
 20
143.475
 30
0.0
 11
83.6378
 21
166.616
 31
0.0
  0
LINE
  5
A1D
330
A02
100
AcDbEntity
  8
VIEW
100
AcDbLine
 10
217.958
 20
169.872
 30
0.0
 11
164.675
 21
144.866
 31
0.0
  0
LINE
  5
A1E
330
A02
100
AcDbEntity
  8
VIEW
100
AcDbLine
 10
164.675
 20
144.866
 30
0.0
 11
83.5885
 21
168.008
 31
0.0
  0
ELLIPSE
  5
A1F
330
A02
100
AcDbEntity
  8
VIEW
100
AcDbEllipse
 10
173.843
 20
156.646
 30
0.0
 11
1.599
 21
0.0566422
 31
0.0
210
0.0
220
0.0
230
1.0
 40
0.37191
 41
5.56638
 42
6.283185307179586
  0
ELLIPSE
  5
A20
330
A02
100
AcDbEntity
  8
VIEW
100
AcDbEllipse
 10
173.843
 20
156.646
 30
0.0
 11
1.599
 21
0.0566422
 31
0.0
210
0.0
220
0.0
230
1.0
 40
0.37191
 41
0.0
 42
3.14159
  0
ELLIPSE
  5
A21
330
A02
100
AcDbEntity
  8
VIEW
100
AcDbEllipse
 10
173.843
 20
156.646
 30
0.0
 11
1.599
 21
0.0566422
 31
0.0
210
0.0
220
0.0
230
1.0
 40
0.37191
 41
3.14159
 42
5.56638
  0
ELLIPSE
  5
A22
330
A02
100
AcDbEntity
  8
VIEW
100
AcDbEllipse
 10
177.723
 20
158.467
 30
0.0
 11
1.599
 21
0.0566422
 31
0.0
210
0.0
220
0.0
230
1.0
 40
0.37191
 41
5.56638
 42
6.283185307179586
  0
ELLIPSE
  5
A23
330
A02
100
AcDbEntity
  8
VIEW
100
AcDbEllipse
 10
177.723
 20
158.467
 30
0.0
 11
1.599
 21
0.0566422
 31
0.0
210
0.0
220
0.0
230
1.0
 40
0.37191
 41
0.0
 42
3.14159
  0
ELLIPSE
  5
A24
330
A02
100
AcDbEntity
  8
VIEW
100
AcDbEllipse
 10
177.723
 20
158.467
 30
0.0
 11
1.599
 21
0.0566422
 31
0.0
210
0.0
220
0.0
230
1.0
 40
0.37191
 41
3.14159
 42
5.56638
  0
ELLIPSE
  5
A25
330
A02
100
AcDbEntity
  8
VIEW
100
AcDbEllipse
 10
181.603
 20
160.288
 30
0.0
 11
1.599
 21
0.0566422
 31
0.0
210
0.0
220
0.0
230
1.0
 40
0.37191
 41
5.56638
 42
6.283185307179586
  0
ELLIPSE
  5
A26
330
A02
100
AcDbEntity
  8
VIEW
100
AcDbEllipse
 10
181.603
 20
160.288
 30
0.0
 11
1.599
 21
0.0566422
 31
0.0
210
0.0
220
0.0
230
1.0
 40
0.37191
 41
0.0
 42
3.14159
  0
ELLIPSE
  5
A27
330
A02
100
AcDbEntity
  8
VIEW
100
AcDbEllipse
 10
181.603
 20
160.288
 30
0.0
 11
1.599
 21
0.0566422
 31
0.0
210
0.0
220
0.0
230
1.0
 40
0.37191
 41
3.14159
 42
5.56638
  0
ELLIPSE
  5
A28
330
A02
100
AcDbEntity
  8
VIEW
100
AcDbEllipse
 10
218.04
 20
167.553
 30
0.0
 11
1.06211
 21
-2.26317
 31
0.0
210
0.0
220
0.0
230
1.0
 40
0.699831
 41
-5.26001
 42
-3.68921
  0
LINE
  5
A29
330
A02
100
AcDbEntity
  8
VIEW
100
AcDbLine
 10
164.675
 20
144.866
 30
0.0
 11
164.724
 21
143.475
 31
0.0
  0
ELLIPSE
  5
A2A
330
A02
100
AcDbEntity
  8
VIEW
100
AcDbEllipse
 10
164.757
 20
142.547
 30
0.0
 11
0.424842
 21
-0.905267
 31
0.0
210
0.0
220
0.0
230
1.0
 40
0.699831
 41
-5.26001
 42
-3.68921
  0
ELLIPSE
  5
A2B
330
A02
100
AcDbEntity
  8
VIEW
100
AcDbEllipse
 10
164.757
 20
142.547
 30
0.0
 11
1.06211
 21
-2.26317
 31
0.0
210
0.0
220
0.0
230
1.0
 40
0.699831
 41
-5.26001
 42
-3.68921
  0
LINE
  5
A2C
330
A02
100
AcDbEntity
  8
VIEW
100
AcDbLine
 10
166.662
 20
142.003
 30
0.0
 11
219.945
 21
167.009
 31
0.0
  0
LINE
  5
A2D
330
A02
100
AcDbEntity
  8
VIEW
100
AcDbLine
 10
220.737
 20
144.652
 30
0.0
 11
219.945
 21
167.009
 31
0.0
  0
LINE
  5
A2E
330
A02
100
AcDbEntity
  8
VIEW
100
AcDbLine
 10
165.519
 20
142.33
 30
0.0
 11
166.662
 21
142.003
 31
0.0
  0
LINE
  5
A2F
330
A02
100
AcDbEntity
  8
VIEW
100
AcDbLine
 10
165.519
 20
142.33
 30
0.0
 11
166.311
 21
119.972
 31
0.0
  0
ELLIPSE
  5
A30
330
A02
100
AcDbEntity
  8
VIEW
100
AcDbEllipse
 10
167.927
 20
120.731
 30
0.0
 11
0.6860889999999999
 21
2.40401
 31
0.0
210
0.0
220
0.0
230
1.0
 40
0.609852
 41
-4.22392
 42
-3.14159
  0
ELLIPSE
  5
A31
330
A02
100
AcDbEntity
  8
VIEW
100
AcDbEllipse
 10
181.793
 20
130.162
 30
0.0
 11
-0.3430440000000001
 21
-1.20201
 31
0.0
210
0.0
220
0.0
230
1.0
 40
0.609852
 41
0.894205
 42
2.24739
  0
ELLIPSE
  5
A32
330
A02
100
AcDbEntity
  8
VIEW
100
AcDbEllipse
 10
205.589
 20
141.329
 30
0.0
 11
-0.3430440000000001
 21
-1.20201
 31
0.0
210
0.0
220
0.0
230
1.0
 40
0.609852
 41
0.894205
 42
2.24739
  0
LINE
  5
A33
330
A02
100
AcDbEntity
  8
VIEW
100
AcDbLine
 10
166.662
 20
142.003
 30
0.0
 11
167.454
 21
119.646
 31
0.0
  0
ELLIPSE
  5
A34
330
A02
100
AcDbEntity
  8
VIEW
100
AcDbEllipse
 10
169.071
 20
120.405
 30
0.0
 11
0.6860889999999999
 21
2.40401
 31
0.0
210
0.0
220
0.0
230
1.0
 40
0.609852
 41
-3.14159
 42
-2.65312
  0
ELLIPSE
  5
A35
330
A02
100
AcDbEntity
  8
VIEW
100
AcDbEllipse
 10
169.071
 20
120.405
 30
0.0
 11
0.6860889999999999
 21
2.40401
 31
0.0
210
0.0
220
0.0
230
1.0
 40
0.609852
 41
-4.22392
 42
-3.14159
  0
LINE
  5
A36
330
A02
100
AcDbEntity
  8
VIEW
100
AcDbLine
 10
169.153
 20
118.086
 30
0.0
 11
219.203
 21
141.574
 31
0.0
  0
ELLIPSE
  5
A37
330
A02
100
AcDbEntity
  8
VIEW
100
AcDbEllipse
 10
219.12
 20
143.893
 30
0.0
 11
0.6860889999999999
 21
2.40401
 31
0.0
210
0.0
220
0.0
230
1.0
 40
0.609852
 41
-2.65312
 42
-1.08232
  0
ELLIPSE
  5
A38
330
A02
100
AcDbEntity
  8
VIEW
100
AcDbEllipse
 10
182.936
 20
129.836
 30
0.0
 11
-0.3430440000000001
 21
-1.20201
 31
0.0
210
0.0
220
0.0
230
1.0
 40
0.609852
 41
0.488473
 42
3.14159
  0
ELLIPSE
  5
A39
330
A02
100
AcDbEntity
  8
VIEW
100
AcDbEllipse
 10
182.936
 20
129.836
 30
0.0
 11
-0.3430440000000001
 21
-1.20201
 31
0.0
210
0.0
220
0.0
230
1.0
 40
0.609852
 41
3.14159
 42
6.283185307179586
  0
ELLIPSE
  5
A3A
330
A02
100
AcDbEntity
  8
VIEW
100
AcDbEllipse
 10
182.936
 20
129.836
 30
0.0
 11
-0.3430440000000001
 21
-1.20201
 31
0.0
210
0.0
220
0.0
230
1.0
 40
0.609852
 41
0.0
 42
0.488473
  0
ELLIPSE
  5
A3B
330
A02
100
AcDbEntity
  8
VIEW
100
AcDbEllipse
 10
206.732
 20
141.003
 30
0.0
 11
-0.3430440000000001
 21
-1.20201
 31
0.0
210
0.0
220
0.0
230
1.0
 40
0.609852
 41
0.488473
 42
3.14159
  0
ELLIPSE
  5
A3C
330
A02
100
AcDbEntity
  8
VIEW
100
AcDbEllipse
 10
206.732
 20
141.003
 30
0.0
 11
-0.3430440000000001
 21
-1.20201
 31
0.0
210
0.0
220
0.0
230
1.0
 40
0.609852
 41
3.14159
 42
6.283185307179586
  0
ELLIPSE
  5
A3D
330
A02
100
AcDbEntity
  8
VIEW
100
AcDbEllipse
 10
206.732
 20
141.003
 30
0.0
 11
-0.3430440000000001
 21
-1.20201
 31
0.0
210
0.0
220
0.0
230
1.0
 40
0.609852
 41
0.0
 42
0.488473
  0
LINE
  5
A3E
330
A02
100
AcDbEntity
  8
VIEW
100
AcDbLine
 10
84.6311
 20
141.903
 30
0.0
 11
83.4879
 21
142.23
 31
0.0
  0
LINE
  5
A3F
330
A02
100
AcDbEntity
  8
VIEW
100
AcDbLine
 10
135.892
 20
192.957
 30
0.0
 11
82.6086
 21
167.952
 31
0.0
  0
LINE
  5
A40
330
A02
100
AcDbEntity
  8
VIEW
100
AcDbLine
 10
167.241
 20
118.327
 30
0.0
 11
168.384
 21
118.001
 31
0.0
  0
LINE
  5
A41
330
A02
100
AcDbEntity
  8
VIEW
100
AcDbLine
 10
83.7006
 20
143.549
 30
0.0
 11
82.5574
 21
143.875
 31
0.0
  0
LINE
  5
A42
330
A02
100
AcDbEntity
  8
VIEW
100
AcDbLine
 10
166.311
 20
119.972
 30
0.0
 11
167.454
 21
119.646
 31
0.0
  0
LINE
  5
A43
330
A02
100
AcDbEntity
  8
VIEW
100
AcDbLine
 10
182.977
 20
128.676
 30
0.0
 11
182.289
 21
128.872
 31
0.0
  0
LINE
  5
A44
330
A02
100
AcDbEntity
  8
VIEW
100
AcDbLine
 10
206.774
 20
139.844
 30
0.0
 11
206.086
 21
140.04
 31
0.0
  0
LINE
  5
A45
330
A02
100
AcDbEntity
  8
VIEW001
100
AcDbLine
 10
130.83
 20
118.829
 30
0.0
 11
131.604
 21
96.9772
 31
0.0
  0
ELLIPSE
  5
A46
330
A02
100
AcDbEntity
  8
VIEW001
100
AcDbEllipse
 10
131.211
 20
118.72
 30
0.0
 11
0.212421
 21
-0.452634
 31
0.0
210
0.0
220
0.0
230
1.0
 40
0.699831
 41
-3.14159
 42
-2.11842
  0
ELLIPSE
  5
A47
330
A02
100
AcDbEntity
  8
VIEW001
100
AcDbEllipse
 10
131.211
 20
118.72
 30
0.0
 11
0.212421
 21
-0.452634
 31
0.0
210
0.0
220
0.0
230
1.0
 40
0.699831
 41
-3.68921
 42
-3.14159
  0
LINE
  5
A48
330
A02
100
AcDbEntity
  8
VIEW001
100
AcDbLine
 10
135.403
 20
94.9334
 30
0.0
 11
202.063
 21
75.9091
 31
0.0
  0
LINE
  5
A49
330
A02
100
AcDbEntity
  8
VIEW001
100
AcDbLine
 10
207.039
 20
74.489
 30
0.0
 11
214.249
 21
72.4312
 31
0.0
  0
LINE
  5
A4A
330
A02
100
AcDbEntity
  8
VIEW001
100
AcDbLine
 10
213.043
 20
95.8249
 30
0.0
 11
131.195
 21
119.184
 31
0.0
  0
LINE
  5
A4B
330
A02
100
AcDbEntity
  8
VIEW001
100
AcDbLine
 10
214.249
 20
72.4312
 30
0.0
 11
213.44
 21
95.2523
 31
0.0
  0
ELLIPSE
  5
A4C
330
A02
100
AcDbEntity
  8
VIEW001
100
AcDbEllipse
 10
213.059
 20
95.3611
 30
0.0
 11
-0.212421
 21
0.452634
 31
0.0
210
0.0
220
0.0
230
1.0
 40
0.699831
 41
4.16477
 42
5.73556
  0
LINE
  5
A4D
330
A02
100
AcDbEntity
  8
VIEW001
100
AcDbLine
 10
146.702
 20
97.7696
 30
0.0
 11
146.636
 21
99.625
 31
0.0
  0
ELLIPSE
  5
A4E
330
A02
100
AcDbEntity
  8
VIEW001
100
AcDbEllipse
 10
147.464
 20
97.5521
 30
0.0
 11
-0.424842
 21
0.905267
 31
0.0
210
0.0
220
0.0
230
1.0
 40
0.699831
 41
1.02318
 42
2.59397
  0
ELLIPSE
  5
A4F
330
A02
100
AcDbEntity
  8
VIEW001
100
AcDbEllipse
 10
147.398
 20
99.4075
 30
0.0
 11
0.424842
 21
-0.905267
 31
0.0
210
0.0
220
0.0
230
1.0
 40
0.699831
 41
-3.14159
 42
-2.11842
  0
ELLIPSE
  5
A50
330
A02
100
AcDbEntity
  8
VIEW001
100
AcDbEllipse
 10
147.398
 20
99.4075
 30
0.0
 11
0.424842
 21
-0.905267
 31
0.0
210
0.0
220
0.0
230
1.0
 40
0.699831
 41
-3.68921
 42
-3.14159
  0
LINE
  5
A51
330
A02
100
AcDbEntity
  8
VIEW001
100
AcDbLine
 10
152.831
 20
95.102
 30
0.0
 11
147.497
 21
96.6244
 31
0.0
  0
LINE
  5
A52
330
A02
100
AcDbEntity
  8
VIEW001
100
AcDbLine
 10
147.365
 20
100.335
 30
0.0
 11
152.7
 21
98.8127
 31
0.0
  0
ELLIPSE
  5
A53
330
A02
100
AcDbEntity
  8
VIEW001
100
AcDbEllipse
 10
152.798
 20
96.0296
 30
0.0
 11
-0.424842
 21
0.905267
 31
0.0
210
0.0
220
0.0
230
1.0
 40
0.699831
 41
2.59397
 42
3.14159
  0
ELLIPSE
  5
A54
330
A02
100
AcDbEntity
  8
VIEW001
100
AcDbEllipse
 10
152.798
 20
96.0296
 30
0.0
 11
-0.424842
 21
0.905267
 31
0.0
210
0.0
220
0.0
230
1.0
 40
0.699831
 41
3.14159
 42
4.16477
  0
ELLIPSE
  5
A55
330
A02
100
AcDbEntity
  8
VIEW001
100
AcDbEllipse
 10
152.733
 20
97.885
 30
0.0
 11
-0.424842
 21
0.905267
 31
0.0
210
0.0
220
0.0
230
1.0
 40
0.699831
 41
4.16477
 42
5.73556
  0
LINE
  5
A56
330
A02
100
AcDbEntity
  8
VIEW001
100
AcDbLine
 10
153.495
 20
97.6675
 30
0.0
 11
153.56
 21
95.8121
 31
0.0
  0
LINE
  5
A57
330
A02
100
AcDbEntity
  8
VIEW001
100
AcDbLine
 10
198.411
 20
81.9103
 30
0.0
 11
198.036
 21
92.4859
 31
0.0
  0
LINE
  5
A58
330
A02
100
AcDbEntity
  8
VIEW001
100
AcDbLine
 10
205.574
 20
79.8658
 30
0.0
 11
198.411
 21
81.9103
 31
0.0
  0
LINE
  5
A59
330
A02
100
AcDbEntity
  8
VIEW001
100
AcDbLine
 10
205.2
 20
90.4414
 30
0.0
 11
205.574
 21
79.8658
 31
0.0
  0
LINE
  5
A5A
330
A02
100
AcDbEntity
  8
VIEW001
100
AcDbLine
 10
198.036
 20
92.4859
 30
0.0
 11
205.2
 21
90.4414
 31
0.0
  0
LINE
  5
A5B
330
A02
100
AcDbEntity
  8
VIEW001
100
AcDbLine
 10
144.488
 20
103.819
 30
0.0
 11
144.186
 21
112.354
 31
0.0
  0
LINE
  5
A5C
330
A02
100
AcDbEntity
  8
VIEW001
100
AcDbLine
 10
155.462
 20
100.687
 30
0.0
 11
144.488
 21
103.819
 31
0.0
  0
LINE
  5
A5D
330
A02
100
AcDbEntity
  8
VIEW001
100
AcDbLine
 10
155.16
 20
109.222
 30
0.0
 11
155.462
 21
100.687
 31
0.0
  0
LINE
  5
A5E
330
A02
100
AcDbEntity
  8
VIEW001
100
AcDbLine
 10
144.186
 20
112.354
 30
0.0
 11
155.16
 21
109.222
 31
0.0
  0
LINE
  5
A5F
330
A02
100
AcDbEntity
  8
VIEW001
100
AcDbLine
 10
169.602
 20
91.2339
 30
0.0
 11
169.537
 21
93.0893
 31
0.0
  0
ELLIPSE
  5
A60
330
A02
100
AcDbEntity
  8
VIEW001
100
AcDbEllipse
 10
170.364
 20
91.0164
 30
0.0
 11
-0.424842
 21
0.905267
 31
0.0
210
0.0
220
0.0
230
1.0
 40
0.699831
 41
1.02318
 42
2.59397
  0
ELLIPSE
  5
A61
330
A02
100
AcDbEntity
  8
VIEW001
100
AcDbEllipse
 10
170.299
 20
92.8718
 30
0.0
 11
0.424842
 21
-0.905267
 31
0.0
210
0.0
220
0.0
230
1.0
 40
0.699831
 41
-3.14159
 42
-2.11842
  0
ELLIPSE
  5
A62
330
A02
100
AcDbEntity
  8
VIEW001
100
AcDbEllipse
 10
170.299
 20
92.8718
 30
0.0
 11
0.424842
 21
-0.905267
 31
0.0
210
0.0
220
0.0
230
1.0
 40
0.699831
 41
-3.68921
 42
-3.14159
  0
LINE
  5
A63
330
A02
100
AcDbEntity
  8
VIEW001
100
AcDbLine
 10
175.732
 20
88.5663
 30
0.0
 11
170.397
 21
90.0887
 31
0.0
  0
LINE
  5
A64
330
A02
100
AcDbEntity
  8
VIEW001
100
AcDbLine
 10
170.266
 20
93.7995
 30
0.0
 11
175.6
 21
92.277
 31
0.0
  0
ELLIPSE
  5
A65
330
A02
100
AcDbEntity
  8
VIEW001
100
AcDbEllipse
 10
175.699
 20
89.4939
 30
0.0
 11
-0.424842
 21
0.905267
 31
0.0
210
0.0
220
0.0
230
1.0
 40
0.699831
 41
2.59397
 42
3.14159
  0
ELLIPSE
  5
A66
330
A02
100
AcDbEntity
  8
VIEW001
100
AcDbEllipse
 10
175.699
 20
89.4939
 30
0.0
 11
-0.424842
 21
0.905267
 31
0.0
210
0.0
220
0.0
230
1.0
 40
0.699831
 41
3.14159
 42
4.16477
  0
ELLIPSE
  5
A67
330
A02
100
AcDbEntity
  8
VIEW001
100
AcDbEllipse
 10
175.633
 20
91.3493
 30
0.0
 11
-0.424842
 21
0.905267
 31
0.0
210
0.0
220
0.0
230
1.0
 40
0.699831
 41
4.16477
 42
5.73556
  0
LINE
  5
A68
330
A02
100
AcDbEntity
  8
VIEW001
100
AcDbLine
 10
176.395
 20
91.1318
 30
0.0
 11
176.461
 21
89.2764
 31
0.0
  0
ELLIPSE
  5
A69
330
A02
100
AcDbEntity
  8
VIEW001
100
AcDbEllipse
 10
132.181
 20
119.175
 30
0.0
 11
0.212421
 21
-0.452634
 31
0.0
210
0.0
220
0.0
230
1.0
 40
0.699831
 41
-3.68921
 42
-3.14159
  0
ELLIPSE
  5
A6A
330
A02
100
AcDbEntity
  8
VIEW001
100
AcDbEllipse
 10
213.602
 20
72.1278
 30
0.0
 11
-0.2744349999999999
 21
-0.9616059999999998
 31
0.0
210
0.0
220
0.0
230
1.0
 40
0.609852
 41
0.488473
 42
2.05927
  0
LINE
  5
A6B
330
A02
100
AcDbEntity
  8
VIEW001
100
AcDbLine
 10
135.453
 20
93.5127
 30
0.0
 11
202.035
 21
74.5107
 31
0.0
  0
LINE
  5
A6C
330
A02
100
AcDbEntity
  8
VIEW001
100
AcDbLine
 10
207.089
 20
73.0683
 30
0.0
 11
211.73
 21
71.7438
 31
0.0
  0
LINE
  5
A6D
330
A02
100
AcDbEntity
  8
VIEW001
100
AcDbLine
 10
211.73
 20
71.7438
 30
0.0
 11
213.635
 21
71.2001
 31
0.0
  0
LINE
  5
A6E
330
A02
100
AcDbEntity
  8
VIEW001
100
AcDbLine
 10
214.013
 20
96.2801
 30
0.0
 11
132.165
 21
119.639
 31
0.0
  0
LINE
  5
A6F
330
A02
100
AcDbEntity
  8
VIEW001
100
AcDbLine
 10
214.249
 20
72.4312
 30
0.0
 11
215.219
 21
72.8864
 31
0.0
  0
LINE
  5
A70
330
A02
100
AcDbEntity
  8
VIEW001
100
AcDbLine
 10
215.219
 20
72.8864
 30
0.0
 11
214.41
 21
95.7075
 31
0.0
  0
ELLIPSE
  5
A71
330
A02
100
AcDbEntity
  8
VIEW001
100
AcDbEllipse
 10
214.029
 20
95.8163
 30
0.0
 11
-0.212421
 21
0.452634
 31
0.0
210
0.0
220
0.0
230
1.0
 40
0.699831
 41
4.16477
 42
5.73556
  0
LINE
  5
A72
330
A02
100
AcDbEntity
  8
VIEW001
100
AcDbLine
 10
147.672
 20
98.2248
 30
0.0
 11
147.606
 21
100.08
 31
0.0
  0
ELLIPSE
  5
A73
330
A02
100
AcDbEntity
  8
VIEW001
100
AcDbEllipse
 10
148.434
 20
98.0073
 30
0.0
 11
-0.424842
 21
0.905267
 31
0.0
210
0.0
220
0.0
230
1.0
 40
0.699831
 41
1.02318
 42
2.59397
  0
ELLIPSE
  5
A74
330
A02
100
AcDbEntity
  8
VIEW001
100
AcDbEllipse
 10
148.368
 20
99.8627
 30
0.0
 11
0.424842
 21
-0.905267
 31
0.0
210
0.0
220
0.0
230
1.0
 40
0.699831
 41
-2.32269
 42
-2.11842
  0
LINE
  5
A75
330
A02
100
AcDbEntity
  8
VIEW001
100
AcDbLine
 10
153.551
 20
95.6285
 30
0.0
 11
148.467
 21
97.0796
 31
0.0
  0
LINE
  5
A76
330
A02
100
AcDbEntity
  8
VIEW001
100
AcDbLine
 10
199.381
 20
82.3655
 30
0.0
 11
198.411
 21
81.9103
 31
0.0
  0
LINE
  5
A77
330
A02
100
AcDbEntity
  8
VIEW001
100
AcDbLine
 10
199.381
 20
82.3655
 30
0.0
 11
199.032
 21
92.2016
 31
0.0
  0
LINE
  5
A78
330
A02
100
AcDbEntity
  8
VIEW001
100
AcDbLine
 10
205.548
 20
80.6053
 30
0.0
 11
199.381
 21
82.3655
 31
0.0
  0
LINE
  5
A79
330
A02
100
AcDbEntity
  8
VIEW001
100
AcDbLine
 10
145.458
 20
104.275
 30
0.0
 11
144.488
 21
103.819
 31
0.0
  0
LINE
  5
A7A
330
A02
100
AcDbEntity
  8
VIEW001
100
AcDbLine
 10
145.458
 20
104.275
 30
0.0
 11
145.182
 21
112.07
 31
0.0
  0
LINE
  5
A7B
330
A02
100
AcDbEntity
  8
VIEW001
100
AcDbLine
 10
155.436
 20
101.427
 30
0.0
 11
145.458
 21
104.275
 31
0.0
  0
LINE
  5
A7C
330
A02
100
AcDbEntity
  8
VIEW001
100
AcDbLine
 10
170.572
 20
91.6891
 30
0.0
 11
170.507
 21
93.5445
 31
0.0
  0
ELLIPSE
  5
A7D
330
A02
100
AcDbEntity
  8
VIEW001
100
AcDbEllipse
 10
171.334
 20
91.4716
 30
0.0
 11
-0.424842
 21
0.905267
 31
0.0
210
0.0
220
0.0
230
1.0
 40
0.699831
 41
1.02318
 42
2.59397
  0
ELLIPSE
  5
A7E
330
A02
100
AcDbEntity
  8
VIEW001
100
AcDbEllipse
 10
171.269
 20
93.327
 30
0.0
 11
0.424842
 21
-0.905267
 31
0.0
210
0.0
220
0.0
230
1.0
 40
0.699831
 41
-2.32269
 42
-2.11842
  0
LINE
  5
A7F
330
A02
100
AcDbEntity
  8
VIEW001
100
AcDbLine
 10
176.452
 20
89.0928
 30
0.0
 11
171.367
 21
90.5439
 31
0.0
  0
ELLIPSE
  5
A80
330
A02
100
AcDbEntity
  8
VIEW001
100
AcDbEllipse
 10
213.602
 20
72.1278
 30
0.0
 11
-0.6860889999999999
 21
-2.40401
 31
0.0
210
0.0
220
0.0
230
1.0
 40
0.609852
 41
0.488473
 42
2.05927
  0
LINE
  5
A81
330
A02
100
AcDbEntity
  8
VIEW001
100
AcDbLine
 10
213.635
 20
71.2001
 30
0.0
 11
213.684
 21
69.8086
 31
0.0
  0
LINE
  5
A84
330
A02
100
AcDbEntity
  8
VIEW001
100
AcDbLine
 10
126.45
 20
90.6164
 30
0.0
 11
125.081233
 21
91.007091
 31
0.0
  0
LINE
  5
A85
330
A02
100
AcDbEntity
  8
VIEW001
100
AcDbLine
 10
125.933
 20
90.3736
 30
0.0
 11
126.45
 21
90.6164
 31
0.0
  0
LINE
  5
A86
330
A02
100
AcDbEntity
  8
VIEW001
100
AcDbLine
 10
125.17
 20
90.5911
 30
0.0
 11
125.933
 21
90.3736
 31
0.0
  0
LINE
  5
A87
330
A02
100
AcDbEntity
  8
VIEW001
100
AcDbLine
 10
93.3549
 20
75.6601
 30
0.0
 11
103.822
 21
80.5722
 31
0.0
  0
LINE
  5
A88
330
A02
100
AcDbEntity
  8
VIEW001
100
AcDbLine
 10
113.992
 20
85.345
 30
0.0
 11
125.17
 21
90.5911
 31
0.0
  0
LINE
  5
A89
330
A02
100
AcDbEntity
  8
VIEW001
100
AcDbLine
 10
170.099
 20
52.2066
 30
0.0
 11
169.44
 21
51.897
 31
0.0
  0
LINE
  5
A8A
330
A02
100
AcDbEntity
  8
VIEW001
100
AcDbLine
 10
169.44
 20
51.897
 30
0.0
 11
168.678
 21
52.1145
 31
0.0
  0
LINE
  5
A8B
330
A02
100
AcDbEntity
  8
VIEW001
100
AcDbLine
 10
168.678
 20
52.1145
 30
0.0
 11
168.16
 21
51.8717
 31
0.0
  0
LINE
  5
A8C
330
A02
100
AcDbEntity
  8
VIEW001
100
AcDbLine
 10
168.16
 20
51.8717
 30
0.0
 11
170.434342
 21
51.222527
 31
0.0
  0
ELLIPSE
  5
A8E
330
A02
100
AcDbEntity
  8
VIEW001
100
AcDbEllipse
 10
162.625
 20
51.4019
 30
0.0
 11
2.49843
 21
0.08850350000000001
 31
0.0
210
0.0
220
0.0
230
1.0
 40
0.37191
 41
5.56638
 42
6.283185307179586
  0
ELLIPSE
  5
A8F
330
A02
100
AcDbEntity
  8
VIEW001
100
AcDbEllipse
 10
162.625
 20
51.4019
 30
0.0
 11
2.49843
 21
0.08850350000000001
 31
0.0
210
0.0
220
0.0
230
1.0
 40
0.37191
 41
4.78137
 42
5.56638
  0
ELLIPSE
  5
A90
330
A02
100
AcDbEntity
  8
VIEW001
100
AcDbEllipse
 10
133.02
 20
91.5718
 30
0.0
 11
2.49843
 21
0.08850350000000001
 31
0.0
210
0.0
220
0.0
230
1.0
 40
0.37191
 41
5.56638
 42
6.283185307179586
  0
ELLIPSE
  5
A91
330
A02
100
AcDbEntity
  8
VIEW001
100
AcDbEllipse
 10
133.02
 20
91.5718
 30
0.0
 11
2.49843
 21
0.08850350000000001
 31
0.0
210
0.0
220
0.0
230
1.0
 40
0.37191
 41
3.14159
 42
5.56638
  0
ELLIPSE
  5
A92
330
A02
100
AcDbEntity
  8
VIEW001
100
AcDbEllipse
 10
167.545
 20
80.7426
 30
0.0
 11
-1.64897
 21
-0.05841229999999999
 31
0.0
210
0.0
220
0.0
230
1.0
 40
0.37191
 41
-3.14159
 42
-0.7168039999999998
  0
ELLIPSE
  5
A93
330
A02
100
AcDbEntity
  8
VIEW001
100
AcDbEllipse
 10
167.545
 20
80.7426
 30
0.0
 11
-1.64897
 21
-0.05841229999999999
 31
0.0
210
0.0
220
0.0
230
1.0
 40
0.37191
 41
0.0
 42
3.141595307179586
  0
ELLIPSE
  5
A94
330
A02
100
AcDbEntity
  8
VIEW001
100
AcDbEllipse
 10
167.545
 20
80.7426
 30
0.0
 11
-1.64897
 21
-0.05841229999999999
 31
0.0
210
0.0
220
0.0
230
1.0
 40
0.37191
 41
-0.716804
 42
0.0
  0
ELLIPSE
  5
A95
330
A02
100
AcDbEntity
  8
VIEW001
100
AcDbEllipse
 10
204.656
 20
71.1273
 30
0.0
 11
2.49843
 21
0.08850350000000001
 31
0.0
210
0.0
220
0.0
230
1.0
 40
0.37191
 41
5.56638
 42
6.283185307179586
  0
ELLIPSE
  5
A96
330
A02
100
AcDbEntity
  8
VIEW001
100
AcDbEllipse
 10
204.656
 20
71.1273
 30
0.0
 11
2.49843
 21
0.08850350000000001
 31
0.0
210
0.0
220
0.0
230
1.0
 40
0.37191
 41
5.16447
 42
5.56638
  0
LINE
  5
A99
330
A02
100
AcDbEntity
  8
VIEW001
100
AcDbLine
 10
125.086829
 20
91.009852
 30
0.0
 11
125.100829
 21
90.615452
 31
0.0
  0
ELLIPSE
  5
A9B
330
A02
100
AcDbEntity
  8
VIEW001
100
AcDbEllipse
 10
125.138
 20
91.5188
 30
0.0
 11
0.424842
 21
-0.905267
 31
0.0
210
0.0
220
0.0
230
1.0
 40
0.699831
 41
-2.11842
 42
-0.5476209999999999
  0
LINE
  5
A9C
330
A02
100
AcDbEntity
  8
VIEW001
100
AcDbLine
 10
92.997
 20
77.0103
 30
0.0
 11
103.769
 21
82.0656
 31
0.0
  0
LINE
  5
A9D
330
A02
100
AcDbEntity
  8
VIEW001
100
AcDbLine
 10
111.98
 20
85.9191
 30
0.0
 11
124.375
 21
91.7363
 31
0.0
  0
ELLIPSE
  5
A9E
330
A02
100
AcDbEntity
  8
VIEW001
100
AcDbEllipse
 10
169.407
 20
52.8247
 30
0.0
 11
-0.424842
 21
0.905267
 31
0.0
210
0.0
220
0.0
230
1.0
 40
0.699831
 41
2.59397
 42
3.14159
  0
ELLIPSE
  5
A9F
330
A02
100
AcDbEntity
  8
VIEW001
100
AcDbEllipse
 10
169.407
 20
52.8247
 30
0.0
 11
-0.424842
 21
0.905267
 31
0.0
210
0.0
220
0.0
230
1.0
 40
0.699831
 41
3.14159
 42
4.16477
  0
LINE
  5
AA1
330
A02
100
AcDbEntity
  8
VIEW001
100
AcDbLine
 10
168.678
 20
52.1145
 30
0.0
 11
168.691
 21
51.7201
 31
0.0
  0
ELLIPSE
  5
AA5
330
A02
100
AcDbEntity
  8
VIEW001
100
AcDbEllipse
 10
163.552
 20
48.6393
 30
0.0
 11
0.2744349999999999
 21
0.9616059999999998
 31
0.0
210
0.0
220
0.0
230
1.0
 40
0.609852
 41
-3.14159
 42
-2.65312
  0
ELLIPSE
  5
AA6
330
A02
100
AcDbEntity
  8
VIEW001
100
AcDbEllipse
 10
163.552
 20
48.6393
 30
0.0
 11
0.2744349999999999
 21
0.9616059999999998
 31
0.0
210
0.0
220
0.0
230
1.0
 40
0.609852
 41
-4.22392
 42
-3.14159
  0
LINE
  5
AA7
330
A02
100
AcDbEntity
  8
VIEW001
100
AcDbLine
 10
163.585
 20
47.7116
 30
0.0
 11
163.035
 21
47.8687
 31
0.0
  0
ELLIPSE
  5
AA8
330
A02
100
AcDbEntity
  8
VIEW001
100
AcDbEllipse
 10
90.8241
 20
76.4847
 30
0.0
 11
2.49843
 21
0.08850350000000001
 31
0.0
210
0.0
220
0.0
230
1.0
 40
0.37191
 41
5.56638
 42
6.283185307179586
  0
ELLIPSE
  5
AA9
330
A02
100
AcDbEntity
  8
VIEW001
100
AcDbEllipse
 10
90.8241
 20
76.4847
 30
0.0
 11
2.49843
 21
0.08850350000000001
 31
0.0
210
0.0
220
0.0
230
1.0
 40
0.37191
 41
0.0
 42
0.912533
  0
ELLIPSE
  5
AAA
330
A02
100
AcDbEntity
  8
VIEW001
100
AcDbEllipse
 10
90.8241
 20
76.4847
 30
0.0
 11
2.49843
 21
0.08850350000000001
 31
0.0
210
0.0
220
0.0
230
1.0
 40
0.37191
 41
5.37065
 42
5.56638
  0
ELLIPSE
  5
AAB
330
A02
100
AcDbEntity
  8
VIEW001
100
AcDbEllipse
 10
162.46
 20
56.0403
 30
0.0
 11
2.49843
 21
0.08850350000000001
 31
0.0
210
0.0
220
0.0
230
1.0
 40
0.37191
 41
5.56638
 42
6.283185307179586
  0
ELLIPSE
  5
AAC
330
A02
100
AcDbEntity
  8
VIEW001
100
AcDbEllipse
 10
162.46
 20
56.0403
 30
0.0
 11
2.49843
 21
0.08850350000000001
 31
0.0
210
0.0
220
0.0
230
1.0
 40
0.37191
 41
0.0
 42
1.50181
  0
ELLIPSE
  5
AAD
330
A02
100
AcDbEntity
  8
VIEW001
100
AcDbEllipse
 10
162.46
 20
56.0403
 30
0.0
 11
2.49843
 21
0.08850350000000001
 31
0.0
210
0.0
220
0.0
230
1.0
 40
0.37191
 41
4.78137
 42
5.56638
  0
ELLIPSE
  5
AAE
330
A02
100
AcDbEntity
  8
VIEW001
100
AcDbEllipse
 10
132.856
 20
96.2102
 30
0.0
 11
2.49843
 21
0.08850350000000001
 31
0.0
210
0.0
220
0.0
230
1.0
 40
0.37191
 41
5.56638
 42
6.283185307179586
  0
ELLIPSE
  5
AAF
330
A02
100
AcDbEntity
  8
VIEW001
100
AcDbEllipse
 10
132.856
 20
96.2102
 30
0.0
 11
2.49843
 21
0.08850350000000001
 31
0.0
210
0.0
220
0.0
230
1.0
 40
0.37191
 41
0.0
 42
3.14159
  0
ELLIPSE
  5
AB0
330
A02
100
AcDbEntity
  8
VIEW001
100
AcDbEllipse
 10
132.856
 20
96.2102
 30
0.0
 11
2.49843
 21
0.08850350000000001
 31
0.0
210
0.0
220
0.0
230
1.0
 40
0.37191
 41
3.14159
 42
5.56638
  0
ELLIPSE
  5
AB1
330
A02
100
AcDbEntity
  8
VIEW001
100
AcDbEllipse
 10
204.492
 20
75.7658
 30
0.0
 11
2.49843
 21
0.08850350000000001
 31
0.0
210
0.0
220
0.0
230
1.0
 40
0.37191
 41
5.56638
 42
6.283185307179586
  0
ELLIPSE
  5
AB2
330
A02
100
AcDbEntity
  8
VIEW001
100
AcDbEllipse
 10
204.492
 20
75.7658
 30
0.0
 11
2.49843
 21
0.08850350000000001
 31
0.0
210
0.0
220
0.0
230
1.0
 40
0.37191
 41
0.0
 42
3.14159
  0
ELLIPSE
  5
AB3
330
A02
100
AcDbEntity
  8
VIEW001
100
AcDbEllipse
 10
204.492
 20
75.7658
 30
0.0
 11
2.49843
 21
0.08850350000000001
 31
0.0
210
0.0
220
0.0
230
1.0
 40
0.37191
 41
3.14159
 42
5.56638
  0
ELLIPSE
  5
AB4
330
A02
100
AcDbEntity
  8
VIEW001
100
AcDbEllipse
 10
203.937
 20
69.0299
 30
0.0
 11
-1.06211
 21
2.26317
 31
0.0
210
0.0
220
0.0
230
1.0
 40
0.699831
 41
3.14159
 42
4.16477
  0
LINE
  5
AB5
330
A02
100
AcDbEntity
  8
VIEW001
100
AcDbLine
 10
124.375
 20
91.7363
 30
0.0
 11
124.175
 21
97.3952
 31
0.0
  0
LINE
  5
AB6
330
A02
100
AcDbEntity
  8
VIEW001
100
AcDbLine
 10
124.175
 20
97.3952
 30
0.0
 11
104.357
 21
88.0947
 31
0.0
  0
LINE
  5
AB7
330
A02
100
AcDbEntity
  8
VIEW001
100
AcDbLine
 10
98.2159
 20
85.2125
 30
0.0
 11
92.1462
 21
82.364
 31
0.0
  0
ELLIPSE
  5
AB8
330
A02
100
AcDbEntity
  8
VIEW001
100
AcDbEllipse
 10
95.9508
 20
81.3202
 30
0.0
 11
-0.3430440000000001
 21
-1.20201
 31
0.0
210
0.0
220
0.0
230
1.0
 40
0.609852
 41
3.63007
 42
6.283185307179586
  0
ELLIPSE
  5
AB9
330
A02
100
AcDbEntity
  8
VIEW001
100
AcDbEllipse
 10
95.9508
 20
81.3202
 30
0.0
 11
-0.3430440000000001
 21
-1.20201
 31
0.0
210
0.0
220
0.0
230
1.0
 40
0.609852
 41
0.0
 42
3.14159
  0
ELLIPSE
  5
ABA
330
A02
100
AcDbEntity
  8
VIEW001
100
AcDbEllipse
 10
95.9508
 20
81.3202
 30
0.0
 11
-0.3430440000000001
 21
-1.20201
 31
0.0
210
0.0
220
0.0
230
1.0
 40
0.609852
 41
3.14159
 42
3.63007
  0
ELLIPSE
  5
ABB
330
A02
100
AcDbEntity
  8
VIEW001
100
AcDbEllipse
 10
119.747
 20
92.4878
 30
0.0
 11
-0.3430440000000001
 21
-1.20201
 31
0.0
210
0.0
220
0.0
230
1.0
 40
0.609852
 41
3.63007
 42
6.283185307179586
  0
ELLIPSE
  5
ABC
330
A02
100
AcDbEntity
  8
VIEW001
100
AcDbEllipse
 10
119.747
 20
92.4878
 30
0.0
 11
-0.3430440000000001
 21
-1.20201
 31
0.0
210
0.0
220
0.0
230
1.0
 40
0.609852
 41
0.0
 42
3.14159
  0
ELLIPSE
  5
ABD
330
A02
100
AcDbEntity
  8
VIEW001
100
AcDbEllipse
 10
119.747
 20
92.4878
 30
0.0
 11
-0.3430440000000001
 21
-1.20201
 31
0.0
210
0.0
220
0.0
230
1.0
 40
0.609852
 41
3.14159
 42
3.63007
  0
ELLIPSE
  5
ABF
330
A02
100
AcDbEntity
  8
VIEW001
100
AcDbEllipse
 10
169.407
 20
52.8247
 30
0.0
 11
-1.06211
 21
2.26317
 31
0.0
210
0.0
220
0.0
230
1.0
 40
0.699831
 41
3.14159
 42
4.16477
  0
LINE
  5
AC0
330
A02
100
AcDbEntity
  8
VIEW001
100
AcDbLine
 10
170.169
 20
52.6072
 30
0.0
 11
171.312
 21
52.2809
 31
0.0
  0
LINE
  5
AC1
330
A02
100
AcDbEntity
  8
VIEW001
100
AcDbLine
 10
170.169
 20
52.6072
 30
0.0
 11
169.968
 21
58.2661
 31
0.0
  0
LINE
  5
AC2
330
A02
100
AcDbEntity
  8
VIEW001
100
AcDbLine
 10
169.968
 20
58.2661
 30
0.0
 11
204.499
 21
74.4713
 31
0.0
  0
ELLIPSE
  5
AC3
330
A02
100
AcDbEntity
  8
VIEW001
100
AcDbEllipse
 10
176.275
 20
58.3963
 30
0.0
 11
0.3430440000000001
 21
1.20201
 31
0.0
210
0.0
220
0.0
230
1.0
 40
0.609852
 41
-2.24739
 42
-0.8942049999999999
  0
ELLIPSE
  5
AC4
330
A02
100
AcDbEntity
  8
VIEW001
100
AcDbEllipse
 10
200.071
 20
69.5639
 30
0.0
 11
0.3430440000000001
 21
1.20201
 31
0.0
210
0.0
220
0.0
230
1.0
 40
0.609852
 41
-2.24739
 42
-0.8942049999999999
  0
LINE
  5
AC5
330
A02
100
AcDbEntity
  8
VIEW001
100
AcDbLine
 10
163.634
 20
46.3201
 30
0.0
 11
163.585
 21
47.7116
 31
0.0
  0
ELLIPSE
  5
AC6
330
A02
100
AcDbEntity
  8
VIEW001
100
AcDbEllipse
 10
163.552
 20
48.6393
 30
0.0
 11
0.6860889999999999
 21
2.40401
 31
0.0
210
0.0
220
0.0
230
1.0
 40
0.609852
 41
-3.14159
 42
-2.65312
  0
ELLIPSE
  5
AC7
330
A02
100
AcDbEntity
  8
VIEW001
100
AcDbEllipse
 10
163.552
 20
48.6393
 30
0.0
 11
0.6860889999999999
 21
2.40401
 31
0.0
210
0.0
220
0.0
230
1.0
 40
0.609852
 41
-4.22392
 42
-3.14159
  0
LINE
  5
AC8
330
A02
100
AcDbEntity
  8
VIEW001
100
AcDbLine
 10
161.936
 20
47.8806
 30
0.0
 11
162.906
 21
48.3358
 31
0.0
  0
ELLIPSE
  5
AC9
330
A02
100
AcDbEntity
  8
VIEW001
100
AcDbEllipse
 10
80.9421
 20
72.2157
 30
0.0
 11
0.6860889999999999
 21
2.40401
 31
0.0
210
0.0
220
0.0
230
1.0
 40
0.609852
 41
-4.22392
 42
-3.14159
  0
LINE
  5
ACA
330
A02
100
AcDbEntity
  8
VIEW001
100
AcDbLine
 10
162.097
 20
71.1569
 30
0.0
 11
162.906
 21
48.3358
 31
0.0
  0
ELLIPSE
  5
ACB
330
A02
100
AcDbEntity
  8
VIEW001
100
AcDbEllipse
 10
161.716
 20
71.2657
 30
0.0
 11
-0.212421
 21
0.452634
 31
0.0
210
0.0
220
0.0
230
1.0
 40
0.699831
 41
4.16477
 42
5.73556
  0
LINE
  5
ACC
330
A02
100
AcDbEntity
  8
VIEW001
100
AcDbLine
 10
79.8516
 20
95.0884
 30
0.0
 11
161.7
 21
71.7295
 31
0.0
  0
ELLIPSE
  5
ACD
330
A02
100
AcDbEntity
  8
VIEW001
100
AcDbEllipse
 10
79.8681
 20
94.6246
 30
0.0
 11
0.212421
 21
-0.452634
 31
0.0
210
0.0
220
0.0
230
1.0
 40
0.699831
 41
-3.68921
 42
-3.14159
  0
LINE
  5
ACE
330
A02
100
AcDbEntity
  8
VIEW001
100
AcDbLine
 10
128.71
 20
64.7067
 30
0.0
 11
128.339
 21
75.1896
 31
0.0
  0
ELLIPSE
  5
ACF
330
A02
100
AcDbEntity
  8
VIEW001
100
AcDbEllipse
 10
129.473
 20
64.4892
 30
0.0
 11
-0.424842
 21
0.905267
 31
0.0
210
0.0
220
0.0
230
1.0
 40
0.699831
 41
1.02318
 42
2.59397
  0
ELLIPSE
  5
AD0
330
A02
100
AcDbEntity
  8
VIEW001
100
AcDbEllipse
 10
129.101
 20
74.9721
 30
0.0
 11
0.424842
 21
-0.905267
 31
0.0
210
0.0
220
0.0
230
1.0
 40
0.699831
 41
-2.32269
 42
-2.11842
  0
LINE
  5
AD1
330
A02
100
AcDbEntity
  8
VIEW001
100
AcDbLine
 10
151.844
 20
57.1863
 30
0.0
 11
129.505
 21
63.5615
 31
0.0
  0
LINE
  5
AD2
330
A02
100
AcDbEntity
  8
VIEW001
100
AcDbLine
 10
92.4293
 20
74.3724
 30
0.0
 11
91.9823
 21
86.9916
 31
0.0
  0
LINE
  5
AD3
330
A02
100
AcDbEntity
  8
VIEW001
100
AcDbLine
 10
104.16
 20
71.0245
 30
0.0
 11
92.4293
 21
74.3724
 31
0.0
  0
ELLIPSE
  5
AD4
330
A02
100
AcDbEntity
  8
VIEW001
100
AcDbEllipse
 10
90.8241
 20
76.4847
 30
0.0
 11
1.69893
 21
0.0601824
 31
0.0
210
0.0
220
0.0
230
1.0
 40
0.37191
 41
5.83129
 42
6.283185307179586
  0
ELLIPSE
  5
AD5
330
A02
100
AcDbEntity
  8
VIEW001
100
AcDbEllipse
 10
90.8241
 20
76.4847
 30
0.0
 11
1.69893
 21
0.0601824
 31
0.0
210
0.0
220
0.0
230
1.0
 40
0.37191
 41
0.0
 42
0.451891
  0
ELLIPSE
  5
AD6
330
A02
100
AcDbEntity
  8
VIEW001
100
AcDbEllipse
 10
162.46
 20
56.0403
 30
0.0
 11
1.69893
 21
0.0601824
 31
0.0
210
0.0
220
0.0
230
1.0
 40
0.37191
 41
5.56638
 42
6.283185307179586
  0
ELLIPSE
  5
AD7
330
A02
100
AcDbEntity
  8
VIEW001
100
AcDbEllipse
 10
162.46
 20
56.0403
 30
0.0
 11
1.69893
 21
0.0601824
 31
0.0
210
0.0
220
0.0
230
1.0
 40
0.37191
 41
0.0
 42
1.46926
  0
ELLIPSE
  5
AD8
330
A02
100
AcDbEntity
  8
VIEW001
100
AcDbEllipse
 10
162.46
 20
56.0403
 30
0.0
 11
1.69893
 21
0.0601824
 31
0.0
210
0.0
220
0.0
230
1.0
 40
0.37191
 41
4.81393
 42
5.56638
  0
ELLIPSE
  5
AD9
330
A02
100
AcDbEntity
  8
VIEW001
100
AcDbEllipse
 10
132.856
 20
96.2102
 30
0.0
 11
1.69893
 21
0.0601824
 31
0.0
210
0.0
220
0.0
230
1.0
 40
0.37191
 41
5.56638
 42
6.283185307179586
  0
ELLIPSE
  5
ADA
330
A02
100
AcDbEntity
  8
VIEW001
100
AcDbEllipse
 10
132.856
 20
96.2102
 30
0.0
 11
1.69893
 21
0.0601824
 31
0.0
210
0.0
220
0.0
230
1.0
 40
0.37191
 41
0.0
 42
3.14159
  0
ELLIPSE
  5
ADB
330
A02
100
AcDbEntity
  8
VIEW001
100
AcDbEllipse
 10
132.856
 20
96.2102
 30
0.0
 11
1.69893
 21
0.0601824
 31
0.0
210
0.0
220
0.0
230
1.0
 40
0.37191
 41
3.14159
 42
5.56638
  0
ELLIPSE
  5
ADC
330
A02
100
AcDbEntity
  8
VIEW001
100
AcDbEllipse
 10
204.492
 20
75.7658
 30
0.0
 11
1.69893
 21
0.0601824
 31
0.0
210
0.0
220
0.0
230
1.0
 40
0.37191
 41
5.56638
 42
6.283185307179586
  0
ELLIPSE
  5
ADD
330
A02
100
AcDbEntity
  8
VIEW001
100
AcDbEllipse
 10
204.492
 20
75.7658
 30
0.0
 11
1.69893
 21
0.0601824
 31
0.0
210
0.0
220
0.0
230
1.0
 40
0.37191
 41
0.0
 42
3.14159
  0
ELLIPSE
  5
ADE
330
A02
100
AcDbEntity
  8
VIEW001
100
AcDbEllipse
 10
204.492
 20
75.7658
 30
0.0
 11
1.69893
 21
0.0601824
 31
0.0
210
0.0
220
0.0
230
1.0
 40
0.37191
 41
3.14159
 42
5.56638
  0
LINE
  5
ADF
330
A02
100
AcDbEntity
  8
VIEW001
100
AcDbLine
 10
171.312
 20
52.2809
 30
0.0
 11
205.843
 21
68.4862
 31
0.0
  0
LINE
  5
AE0
330
A02
100
AcDbEntity
  8
VIEW001
100
AcDbLine
 10
79.3255
 20
71.457
 30
0.0
 11
161.936
 21
47.8806
 31
0.0
  0
LINE
  5
AE1
330
A02
100
AcDbEntity
  8
VIEW001
100
AcDbLine
 10
124.175
 20
97.3952
 30
0.0
 11
123.032
 21
97.7214
 31
0.0
  0
LINE
  5
AE2
330
A02
100
AcDbEntity
  8
VIEW001
100
AcDbLine
 10
204.499
 20
74.4713
 30
0.0
 11
205.642
 21
74.145
 31
0.0
  0
LINE
  5
AE3
330
A02
100
AcDbEntity
  8
VIEW001
100
AcDbLine
 10
205.642
 20
74.145
 30
0.0
 11
205.843
 21
68.4862
 31
0.0
  0
LINE
  5
AE4
330
A02
100
AcDbEntity
  8
VIEW001
100
AcDbLine
 10
123.032
 20
97.7214
 30
0.0
 11
103.214
 21
88.4209
 31
0.0
  0
LINE
  5
AE5
330
A02
100
AcDbEntity
  8
VIEW001
100
AcDbLine
 10
97.0728
 20
85.5388
 30
0.0
 11
92.1161
 21
83.2126
 31
0.0
  0
ELLIPSE
  5
AE6
330
A02
100
AcDbEntity
  8
VIEW001
100
AcDbEllipse
 10
94.8076
 20
81.6464
 30
0.0
 11
0.3430440000000001
 21
1.20201
 31
0.0
210
0.0
220
0.0
230
1.0
 40
0.609852
 41
-2.24739
 42
-0.8942049999999999
  0
ELLIPSE
  5
AE7
330
A02
100
AcDbEntity
  8
VIEW001
100
AcDbEllipse
 10
118.604
 20
92.8141
 30
0.0
 11
0.3430440000000001
 21
1.20201
 31
0.0
210
0.0
220
0.0
230
1.0
 40
0.609852
 41
-2.24739
 42
-0.8942049999999999
  0
LINE
  5
AE8
330
A02
100
AcDbEntity
  8
VIEW001
100
AcDbLine
 10
169.968
 20
58.2661
 30
0.0
 11
171.112
 21
57.9398
 31
0.0
  0
LINE
  5
AE9
330
A02
100
AcDbEntity
  8
VIEW001
100
AcDbLine
 10
171.312
 20
52.2809
 30
0.0
 11
171.112
 21
57.9398
 31
0.0
  0
LINE
  5
AEA
330
A02
100
AcDbEntity
  8
VIEW001
100
AcDbLine
 10
171.112
 20
57.9398
 30
0.0
 11
205.642
 21
74.145
 31
0.0
  0
ELLIPSE
  5
AEB
330
A02
100
AcDbEntity
  8
VIEW001
100
AcDbEllipse
 10
177.418
 20
58.0701
 30
0.0
 11
-0.3430440000000001
 21
-1.20201
 31
0.0
210
0.0
220
0.0
230
1.0
 40
0.609852
 41
0.488473
 42
3.14159
  0
ELLIPSE
  5
AEC
330
A02
100
AcDbEntity
  8
VIEW001
100
AcDbEllipse
 10
177.418
 20
58.0701
 30
0.0
 11
-0.3430440000000001
 21
-1.20201
 31
0.0
210
0.0
220
0.0
230
1.0
 40
0.609852
 41
3.14159
 42
6.283185307179586
  0
ELLIPSE
  5
AED
330
A02
100
AcDbEntity
  8
VIEW001
100
AcDbEllipse
 10
177.418
 20
58.0701
 30
0.0
 11
-0.3430440000000001
 21
-1.20201
 31
0.0
210
0.0
220
0.0
230
1.0
 40
0.609852
 41
0.0
 42
0.488473
  0
ELLIPSE
  5
AEE
330
A02
100
AcDbEntity
  8
VIEW001
100
AcDbEllipse
 10
201.214
 20
69.2377
 30
0.0
 11
-0.3430440000000001
 21
-1.20201
 31
0.0
210
0.0
220
0.0
230
1.0
 40
0.609852
 41
0.488473
 42
3.14159
  0
ELLIPSE
  5
AEF
330
A02
100
AcDbEntity
  8
VIEW001
100
AcDbEllipse
 10
201.214
 20
69.2377
 30
0.0
 11
-0.3430440000000001
 21
-1.20201
 31
0.0
210
0.0
220
0.0
230
1.0
 40
0.609852
 41
3.14159
 42
6.283185307179586
  0
ELLIPSE
  5
AF0
330
A02
100
AcDbEntity
  8
VIEW001
100
AcDbEllipse
 10
201.214
 20
69.2377
 30
0.0
 11
-0.3430440000000001
 21
-1.20201
 31
0.0
210
0.0
220
0.0
230
1.0
 40
0.609852
 41
0.0
 42
0.488473
  0
LINE
  5
AF1
330
A02
100
AcDbEntity
  8
VIEW001
100
AcDbLine
 10
161.127
 20
70.7017
 30
0.0
 11
161.936
 21
47.8806
 31
0.0
  0
LINE
  5
AF2
330
A02
100
AcDbEntity
  8
VIEW001
100
AcDbLine
 10
79.3255
 20
71.457
 30
0.0
 11
78.5171
 21
94.2781
 31
0.0
  0
ELLIPSE
  5
AF3
330
A02
100
AcDbEntity
  8
VIEW001
100
AcDbEllipse
 10
160.746
 20
70.8105
 30
0.0
 11
-0.212421
 21
0.452634
 31
0.0
210
0.0
220
0.0
230
1.0
 40
0.699831
 41
4.16477
 42
5.73556
  0
LINE
  5
AF4
330
A02
100
AcDbEntity
  8
VIEW001
100
AcDbLine
 10
78.8817
 20
94.6332
 30
0.0
 11
160.73
 21
71.2743
 31
0.0
  0
ELLIPSE
  5
AF5
330
A02
100
AcDbEntity
  8
VIEW001
100
AcDbEllipse
 10
78.8981
 20
94.1694
 30
0.0
 11
0.212421
 21
-0.452634
 31
0.0
210
0.0
220
0.0
230
1.0
 40
0.699831
 41
-3.14159
 42
-2.11842
  0
ELLIPSE
  5
AF6
330
A02
100
AcDbEntity
  8
VIEW001
100
AcDbEllipse
 10
78.8981
 20
94.1694
 30
0.0
 11
0.212421
 21
-0.452634
 31
0.0
210
0.0
220
0.0
230
1.0
 40
0.699831
 41
-3.68921
 42
-3.14159
  0
LINE
  5
AF7
330
A02
100
AcDbEntity
  8
VIEW001
100
AcDbLine
 10
127.74
 20
64.2515
 30
0.0
 11
127.369
 21
74.7344
 31
0.0
  0
ELLIPSE
  5
AF8
330
A02
100
AcDbEntity
  8
VIEW001
100
AcDbEllipse
 10
128.503
 20
64.034
 30
0.0
 11
-0.424842
 21
0.905267
 31
0.0
210
0.0
220
0.0
230
1.0
 40
0.699831
 41
1.02318
 42
2.59397
  0
ELLIPSE
  5
AF9
330
A02
100
AcDbEntity
  8
VIEW001
100
AcDbEllipse
 10
128.131
 20
74.5169
 30
0.0
 11
0.424842
 21
-0.905267
 31
0.0
210
0.0
220
0.0
230
1.0
 40
0.699831
 41
-3.14159
 42
-2.11842
  0
ELLIPSE
  5
AFA
330
A02
100
AcDbEntity
  8
VIEW001
100
AcDbEllipse
 10
128.131
 20
74.5169
 30
0.0
 11
0.424842
 21
-0.905267
 31
0.0
210
0.0
220
0.0
230
1.0
 40
0.699831
 41
-3.68921
 42
-3.14159
  0
LINE
  5
AFB
330
A02
100
AcDbEntity
  8
VIEW001
100
AcDbLine
 10
151.124
 20
56.6598
 30
0.0
 11
128.535
 21
63.1063
 31
0.0
  0
LINE
  5
AFC
330
A02
100
AcDbEntity
  8
VIEW001
100
AcDbLine
 10
128.098
 20
75.4446
 30
0.0
 11
150.687
 21
68.998
 31
0.0
  0
ELLIPSE
  5
AFD
330
A02
100
AcDbEntity
  8
VIEW001
100
AcDbEllipse
 10
151.091
 20
57.5875
 30
0.0
 11
0.424842
 21
-0.905267
 31
0.0
210
0.0
220
0.0
230
1.0
 40
0.699831
 41
0.0
 42
1.023175307179586
  0
ELLIPSE
  5
AFE
330
A02
100
AcDbEntity
  8
VIEW001
100
AcDbEllipse
 10
151.091
 20
57.5875
 30
0.0
 11
0.424842
 21
-0.905267
 31
0.0
210
0.0
220
0.0
230
1.0
 40
0.699831
 41
-0.547621
 42
-0.0000000000000004
  0
ELLIPSE
  5
AFF
330
A02
100
AcDbEntity
  8
VIEW001
100
AcDbEllipse
 10
150.719
 20
68.0704
 30
0.0
 11
0.424842
 21
-0.905267
 31
0.0
210
0.0
220
0.0
230
1.0
 40
0.699831
 41
-5.26001
 42
-3.68921
  0
LINE
  5
B00
330
A02
100
AcDbEntity
  8
VIEW001
100
AcDbLine
 10
151.482
 20
67.8529
 30
0.0
 11
151.853
 21
57.37
 31
0.0
  0
LINE
  5
B01
330
A02
100
AcDbEntity
  8
VIEW001
100
AcDbLine
 10
91.4593
 20
73.9172
 30
0.0
 11
90.9861
 21
87.2759
 31
0.0
  0
LINE
  5
B02
330
A02
100
AcDbEntity
  8
VIEW001
100
AcDbLine
 10
91.4593
 20
73.9172
 30
0.0
 11
92.4293
 21
74.3724
 31
0.0
  0
LINE
  5
B03
330
A02
100
AcDbEntity
  8
VIEW001
100
AcDbLine
 10
90.9861
 20
87.2759
 30
0.0
 11
103.713
 21
83.6437
 31
0.0
  0
LINE
  5
B04
330
A02
100
AcDbEntity
  8
VIEW001
100
AcDbLine
 10
103.713
 20
83.6437
 30
0.0
 11
104.186
 21
70.285
 31
0.0
  0
LINE
  5
B05
330
A02
100
AcDbEntity
  8
VIEW001
100
AcDbLine
 10
104.186
 20
70.285
 30
0.0
 11
91.4593
 21
73.9172
 31
0.0
  0
LINE
  5
B06
330
A02
100
AcDbEntity
  8
VIEW001
100
AcDbLine
 10
130.999
 20
119.173
 30
0.0
 11
131.969
 21
119.628
 31
0.0
  0
LINE
  5
B07
330
A02
100
AcDbEntity
  8
VIEW001
100
AcDbLine
 10
93.3226
 20
76.5732
 30
0.0
 11
93.4105
 21
74.0924
 31
0.0
  0
LINE
  5
B08
330
A02
100
AcDbEntity
  8
VIEW001
100
AcDbLine
 10
164.959
 20
56.1288
 30
0.0
 11
165.123
 21
51.4904
 31
0.0
  0
LINE
  5
B09
330
A02
100
AcDbEntity
  8
VIEW001
100
AcDbLine
 10
130.357
 20
96.1217
 30
0.0
 11
130.522
 21
91.4833
 31
0.0
  0
LINE
  5
B0A
330
A02
100
AcDbEntity
  8
VIEW001
100
AcDbLine
 10
135.354
 20
96.2987
 30
0.0
 11
135.519
 21
91.6603
 31
0.0
  0
LINE
  5
B0B
330
A02
100
AcDbEntity
  8
VIEW001
100
AcDbLine
 10
201.993
 20
75.6772
 30
0.0
 11
202.076
 21
73.3344
 31
0.0
  0
LINE
  5
B0C
330
A02
100
AcDbEntity
  8
VIEW001
100
AcDbLine
 10
206.99
 20
75.8543
 30
0.0
 11
207.155
 21
71.2158
 31
0.0
  0
LINE
  5
B0D
330
A02
100
AcDbEntity
  8
VIEW001
100
AcDbLine
 10
170.469
 20
50.5615
 30
0.0
 11
204.999
 21
66.7667
 31
0.0
  0
LINE
  5
B0E
330
A02
100
AcDbEntity
  8
VIEW001
100
AcDbLine
 10
80.256
 20
69.8117
 30
0.0
 11
162.866
 21
46.2353
 31
0.0
  0
LINE
  5
B0F
330
A02
100
AcDbEntity
  8
VIEW001
100
AcDbLine
 10
79.6557
 20
95.0772
 30
0.0
 11
78.6857
 21
94.622
 31
0.0
  0
LINE
  5
B10
330
A02
100
AcDbEntity
  8
VIEW001
100
AcDbLine
 10
131.195
 20
119.184
 30
0.0
 11
132.165
 21
119.639
 31
0.0
  0
LINE
  5
B11
330
A02
100
AcDbEntity
  8
VIEW001
100
AcDbLine
 10
213.043
 20
95.8249
 30
0.0
 11
214.013
 21
96.2801
 31
0.0
  0
LINE
  5
B12
330
A02
100
AcDbEntity
  8
VIEW001
100
AcDbLine
 10
213.44
 20
95.2523
 30
0.0
 11
214.41
 21
95.7075
 31
0.0
  0
LINE
  5
B13
330
A02
100
AcDbEntity
  8
VIEW001
100
AcDbLine
 10
147.672
 20
98.2248
 30
0.0
 11
146.702
 21
97.7696
 31
0.0
  0
LINE
  5
B14
330
A02
100
AcDbEntity
  8
VIEW001
100
AcDbLine
 10
147.606
 20
100.08
 30
0.0
 11
146.636
 21
99.625
 31
0.0
  0
LINE
  5
B15
330
A02
100
AcDbEntity
  8
VIEW001
100
AcDbLine
 10
148.467
 20
97.0796
 30
0.0
 11
147.497
 21
96.6244
 31
0.0
  0
LINE
  5
B16
330
A02
100
AcDbEntity
  8
VIEW001
100
AcDbLine
 10
153.491
 20
95.4116
 30
0.0
 11
152.831
 21
95.102
 31
0.0
  0
LINE
  5
B17
330
A02
100
AcDbEntity
  8
VIEW001
100
AcDbLine
 10
170.572
 20
91.6891
 30
0.0
 11
169.602
 21
91.2339
 31
0.0
  0
LINE
  5
B18
330
A02
100
AcDbEntity
  8
VIEW001
100
AcDbLine
 10
170.507
 20
93.5445
 30
0.0
 11
169.537
 21
93.0893
 31
0.0
  0
LINE
  5
B19
330
A02
100
AcDbEntity
  8
VIEW001
100
AcDbLine
 10
171.367
 20
90.5439
 30
0.0
 11
170.397
 21
90.0887
 31
0.0
  0
LINE
  5
B1A
330
A02
100
AcDbEntity
  8
VIEW001
100
AcDbLine
 10
176.392
 20
88.8759
 30
0.0
 11
175.732
 21
88.5663
 31
0.0
  0
LINE
  5
B1B
330
A02
100
AcDbEntity
  8
VIEW001
100
AcDbLine
 10
162.097
 20
71.1569
 30
0.0
 11
161.127
 21
70.7017
 31
0.0
  0
LINE
  5
B1C
330
A02
100
AcDbEntity
  8
VIEW001
100
AcDbLine
 10
161.7
 20
71.7295
 30
0.0
 11
160.73
 21
71.2743
 31
0.0
  0
LINE
  5
B1D
330
A02
100
AcDbEntity
  8
VIEW001
100
AcDbLine
 10
79.8516
 20
95.0884
 30
0.0
 11
78.8817
 21
94.6332
 31
0.0
  0
LINE
  5
B1E
330
A02
100
AcDbEntity
  8
VIEW001
100
AcDbLine
 10
127.74
 20
64.2515
 30
0.0
 11
128.71
 21
64.7067
 31
0.0
  0
LINE
  5
B1F
330
A02
100
AcDbEntity
  8
VIEW001
100
AcDbLine
 10
127.369
 20
74.7344
 30
0.0
 11
128.339
 21
75.1896
 31
0.0
  0
LINE
  5
B20
330
A02
100
AcDbEntity
  8
VIEW001
100
AcDbLine
 10
128.535
 20
63.1063
 30
0.0
 11
129.505
 21
63.5615
 31
0.0
  0
LINE
  5
B21
330
A02
100
AcDbEntity
  8
VIEW001
100
AcDbLine
 10
151.124
 20
56.6598
 30
0.0
 11
151.783
 21
56.9694
 31
0.0
  0
LINE
  5
B22
330
A02
100
AcDbEntity
  8
VIEW001
100
AcDbLine
 10
92.7886
 20
74.2698
 30
0.0
 11
92.7294
 21
75.941
 31
0.0
  0
LINE
  5
B23
330
A02
100
AcDbEntity
  8
VIEW001
100
AcDbLine
 10
164.53
 20
50.8581
 30
0.0
 11
164.366
 21
55.4966
 31
0.0
  0
LINE
  5
B24
330
A02
100
AcDbEntity
  8
VIEW001
100
AcDbLine
 10
134.925
 20
91.028
 30
0.0
 11
134.761
 21
95.6665
 31
0.0
  0
LINE
  5
B25
330
A02
100
AcDbEntity
  8
VIEW001
100
AcDbLine
 10
166.316
 20
80.2957
 30
0.0
 11
166.287
 21
81.1015
 31
0.0
  0
LINE
  5
B26
330
A02
100
AcDbEntity
  8
VIEW001
100
AcDbLine
 10
206.561
 20
70.5836
 30
0.0
 11
206.397
 21
75.222
 31
0.0
  0
LINE
  5
B27
330
A02
100
AcDbEntity
  8
VIEW001
100
AcDbLine
 10
177.459
 20
56.9104
 30
0.0
 11
176.771
 21
57.1068
 31
0.0
  0
LINE
  5
B28
330
A02
100
AcDbEntity
  8
VIEW001
100
AcDbLine
 10
201.255
 20
68.0781
 30
0.0
 11
200.567
 21
68.2744
 31
0.0
  0
LINE
  5
10051
330
A02
100
AcDbEntity
  8
0
  6
BYBLOCK
100
AcDbLine
 10
163.584862
 20
47.711613
 30
0.0
 11
170.434342
 21
51.222527
 31
0.0
  0
LINE
  5
10052
330
A02
100
AcDbEntity
  8
0
  6
BYBLOCK
100
AcDbLine
 10
170.391497
 20
49.998771
 30
0.0
 11
163.634
 21
46.3201
 31
0.0
  0
POINT
  5
10053
330
A02
100
AcDbEntity
  8
0
  6
BYBLOCK
100
AcDbPoint
 10
169.453895
 20
51.50238
 30
0.0
  0
POINT
  5
10057
330
A02
100
AcDbEntity
  8
0
  6
BYBLOCK
100
AcDbPoint
 10
169.453895
 20
51.50238
 30
0.0
  0
LINE
  5
10065
330
A02
100
AcDbEntity
  8
0
  6
BYBLOCK
100
AcDbLine
 10
169.440001
 20
51.896974
 30
0.0
 11
169.453895
 21
51.50238
 31
0.0
  0
LINE
  5
1006A
330
A02
100
AcDbEntity
  8
0
  6
BYBLOCK
100
AcDbLine
 10
213.684183
 20
69.8086
 30
0.0
 11
207.248904
 21
66.894589
 31
0.0
  0
LINE
  5
1006B
330
A02
100
AcDbEntity
  8
0
  6
BYBLOCK
100
AcDbLine
 10
207.248904
 20
66.894589
 30
0.0
 11
207.248904
 21
68.453417
 31
0.0
  0
LINE
  5
1006C
330
A02
100
AcDbEntity
  8
0
  6
BYBLOCK
100
AcDbLine
 10
207.248904
 20
68.453417
 30
0.0
 11
213.635
 21
71.2001
 31
0.0
  0
LINE
  5
1006E
330
A02
100
AcDbEntity
  8
0
  6
BYBLOCK
100
AcDbLine
 10
207.248904
 20
68.453417
 30
0.0
 11
205.825
 21
68.687104
 31
0.0
  0
POINT
  5
10071
330
A02
100
AcDbEntity
  8
0
  6
BYBLOCK
100
AcDbPoint
 10
204.999106
 20
66.766728
 30
0.0
  0
LINE
  5
10072
330
A02
100
AcDbEntity
  8
0
  6
BYBLOCK
100
AcDbLine
 10
207.248904
 20
66.894589
 30
0.0
 11
205.635091
 21
67.26971
 31
0.0
  0
LINE
  5
10074
330
A02
100
AcDbEntity
  8
0
  6
BYBLOCK
100
AcDbLine
 10
130.522
 20
91.4833
 30
0.0
 11
130.200768
 21
91.455184
 31
0.0
  0
POINT
  5
10079
330
A02
100
AcDbEntity
  8
0
  6
BYBLOCK
100
AcDbPoint
 10
130.449887
 20
93.510493
 30
0.0
  0
LINE
  5
1007A
330
A02
100
AcDbEntity
  8
0
  6
BYBLOCK
100
AcDbLine
 10
125.086829
 20
91.009852
 30
0.0
 11
130.449887
 21
93.510493
 31
0.0
  0
LINE
  5
1007B
330
A02
100
AcDbEntity
  8
0
  6
BYBLOCK
100
AcDbLine
 10
170.434342
 20
51.222527
 30
0.0
 11
170.391497
 21
49.998771
 31
0.0
  0
ENDSEC
  0
SECTION
  2
OBJECTS
  0
DICTIONARY
  5
F000
330
0
100
AcDbDictionary
  3
ACAD_GROUP
350
F001
  3
ACAD_IMAGE_DICT
350
1007D
  3
ACAD_LAYOUT
350
10023
  3
ACAD_MATERIAL
350
1003F
  3
ACAD_MLEADERSTYLE
350
10060
  3
ACAD_MLINESTYLE
350
FFFF
  3
ACAD_PLOTSETTINGS
350
1007C
  3
ACAD_SCALELIST
350
10001
  3
ACAD_VISUALSTYLE
350
10026
  3
ACDBHEADERROUNDTRIPXREC
350
1007E
  3
ACDBVARIABLEDICTIONARY
350
1005E
  3
HOST_DOC_SETTINGS
350
1004B
  3
MCS_STREAM_DICT
350
10045
  0
DICTIONARY
  5
100A0
330
20
100
AcDbDictionary
280
     1
  3
ACAD_XREC_ROUNDTRIP
360
100A1
  0
DICTIONARY
  5
1004D
330
A02
100
AcDbDictionary
280
     1
  3
ACAD_SORTENTS
360
1004E
  0
DICTIONARY
  5
F001
330
F000
100
AcDbDictionary
  0
DICTIONARY
  5
1007D
102
{ACAD_REACTORS
330
F000
102
}
330
F000
100
AcDbDictionary
  0
DICTIONARY
  5
10023
102
{ACAD_REACTORS
330
F000
102
}
330
F000
100
AcDbDictionary
  0
DICTIONARY
  5
1003F
102
{ACAD_REACTORS
330
F000
102
}
330
F000
100
AcDbDictionary
  3
BYBLOCK
350
10041
  3
BYLAYER
350
10040
  3
GLOBAL
350
10042
  0
DICTIONARY
  5
10060
102
{ACAD_REACTORS
330
F000
102
}
330
F000
100
AcDbDictionary
  0
DICTIONARY
  5
FFFF
102
{ACAD_REACTORS
330
F000
102
}
330
F000
100
AcDbDictionary
  3
STANDARD
350
10000
  0
DICTIONARY
  5
1007C
102
{ACAD_REACTORS
330
F000
102
}
330
F000
100
AcDbDictionary
  0
DICTIONARY
  5
10001
102
{ACAD_REACTORS
330
F000
102
}
330
F000
100
AcDbDictionary
  3
A0
350
10002
  3
A1
350
10003
  3
A2
350
10004
  3
A3
350
10005
  3
A4
350
10006
  3
A5
350
10007
  3
A6
350
10008
  3
A7
350
10009
  3
A8
350
1000A
  3
A9
350
1000B
  3
B0
350
1000C
  3
B1
350
1000D
  3
B2
350
1000E
  3
B3
350
1000F
  3
B4
350
10010
  3
B5
350
10011
  3
B6
350
10012
  3
B7
350
10013
  3
B8
350
10014
  3
B9
350
10015
  3
C0
350
10016
  3
C1
350
10017
  3
C2
350
10018
  3
C3
350
10019
  3
C4
350
1001A
  3
C5
350
1001B
  3
C6
350
1001C
  3
C7
350
1001D
  3
C8
350
1001E
  3
C9
350
1001F
  3
D0
350
10020
  3
D1
350
10021
  3
D2
350
10022
  0
DICTIONARY
  5
10026
102
{ACAD_REACTORS
330
F000
102
}
330
F000
100
AcDbDictionary
  3
2DWIREFRAME
350
1002B
  3
BASIC
350
1002E
  3
BRIGHTEN
350
10032
  3
COLORCHANGE
350
10036
  3
CONCEPTUAL
350
10030
  3
DIM
350
10031
  3
EDGECOLOROFF
350
10039
  3
FACEPATTERN
350
10035
  3
FLAT
350
10027
  3
FLATWITHEDGES
350
10028
  3
GOURAUD
350
10029
  3
GOURAUDWITHEDGES
350
1002A
  3
HIDDEN
350
1002D
  3
JITTEROFF
350
10037
  3
LINEPATTERN
350
10034
  3
OVERHANGOFF
350
10038
  3
REALISTIC
350
1002F
  3
SHADED
350
1003E
  3
SHADED_WITH_EDGES
350
1003D
  3
SHADES_OF_GRAY
350
1003A
  3
SKETCHY
350
1003B
  3
THICKEN
350
10033
  3
WIREFRAME
350
1002C
  3
X-RAY
350
1003C
  0
DICTIONARY
  5
1007E
102
{ACAD_REACTORS
330
F000
102
}
330
F000
100
AcDbDictionary
  3
CEPSNTYPE
350
10087
  3
DIMSTYLEDATA
350
1009D
  3
FINGERPRINTGUID
350
10088
  3
HYPERLINKBASE
350
10081
  3
INSUNITS
350
10086
  3
LAYOUTDICT
350
10083
  3
LWETCUNION
350
10085
  3
PLOTSETDICT
350
10084
  3
PSVPSCALE
350
1008A
  3
PUCSBASE
350
1008D
  3
PUCSORGBACK
350
10093
  3
PUCSORGBOTTOM
350
1008F
  3
PUCSORGFRONT
350
10092
  3
PUCSORGLEFT
350
10090
  3
PUCSORGRIGHT
350
10091
  3
PUCSORGTOP
350
1008E
  3
PUCSORTHOREF
350
1008B
  3
PUCSORTHOVIEW
350
1008C
  3
STYLESHEET
350
10082
  3
TSTACKALIGN
350
1007F
  3
TSTACKSIZE
350
10080
  3
UCSBASE
350
10096
  3
UCSORGBACK
350
1009C
  3
UCSORGBOTTOM
350
10098
  3
UCSORGFRONT
350
1009B
  3
UCSORGLEFT
350
10099
  3
UCSORGRIGHT
350
1009A
  3
UCSORGTOP
350
10097
  3
UCSORTHOREF
350
10094
  3
UCSORTHOVIEW
350
10095
  3
VERSIONGUID
350
10089
  0
DICTIONARY
  5
1005E
102
{ACAD_REACTORS
330
F000
102
}
330
F000
100
AcDbDictionary
  3
CANNOSCALE
350
1005F
  3
DIMASSOC
350
1009E
  3
HIDETEXT
350
1009F
  3
MSLTSCALE
350
10061
  0
DICTIONARY
  5
1004B
102
{ACAD_REACTORS
330
F000
102
}
330
F000
100
AcDbDictionary
  3
NCDOCPARAMETERS
350
1004C
  0
DICTIONARY
  5
10045
102
{ACAD_REACTORS
330
F000
102
}
330
F000
100
AcDbDictionary
  3
MC_VERSION_DATA
350
1005C
  3
MCS_DOCUMENT_ID
350
10046
  3
MCS_PARAMS_DATA
350
1005A
  0
XRECORD
  5
100A1
102
{ACAD_REACTORS
330
100A0
102
}
330
100A0
100
AcDbXrecord
102
VTR_0.000_0.000_1.000_1.000_GRIDDISPLAY
 70
     3
102
VTR_0.000_0.000_1.000_1.000_GRIDMAJOR
 70
     5
102
VTR_0.000_0.000_1.000_1.000_DEFAULTLIGHTING
280
     1
102
VTR_0.000_0.000_1.000_1.000_DEFAULTLIGHTINGTYPE
 70
     1
102
VTR_0.000_0.000_1.000_1.000_BRIGHTNESS
141
0.0
102
VTR_0.000_0.000_1.000_1.000_CONTRAST
142
0.0
  0
SORTENTSTABLE
  5
1004E
102
{ACAD_REACTORS
330
1004D
102
}
330
1004D
100
AcDbSortentsTable
330
A02
  0
MATERIAL
  5
10041
102
{ACAD_REACTORS
330
1003F
102
}
102
{ACAD_XDICTIONARY
360
100A4
102
}
330
1003F
100
AcDbMaterial
  1
BYBLOCK
  0
MATERIAL
  5
10040
102
{ACAD_REACTORS
330
1003F
102
}
102
{ACAD_XDICTIONARY
360
100A2
102
}
330
1003F
100
AcDbMaterial
  1
BYLAYER
  0
MATERIAL
  5
10042
102
{ACAD_REACTORS
330
1003F
102
}
102
{ACAD_XDICTIONARY
360
100A6
102
}
330
1003F
100
AcDbMaterial
  1
GLOBAL
  0
MLINESTYLE
  5
10000
102
{ACAD_REACTORS
330
FFFF
102
}
330
FFFF
100
AcDbMlineStyle
  2
Standard
 70
     0
  3

 62
   256
 51
90.0
 52
90.0
 71
     2
 49
0.5
 62
   256
  6
BYLAYER
 49
-0.5
 62
   256
  6
BYLAYER
  0
ACAD_PROXY_OBJECT
  5
10002
102
{ACAD_REACTORS
330
10001
102
}
330
10001
100
AcDbProxyObject
 90
      499
 91
      503
 93
       41
310
903313A31580
  0
ACAD_PROXY_OBJECT
  5
10003
102
{ACAD_REACTORS
330
10001
102
}
330
10001
100
AcDbProxyObject
 90
      499
 91
      503
 93
      105
310
903313A324000000000000004000
  0
ACAD_PROXY_OBJECT
  5
10004
102
{ACAD_REACTORS
330
10001
102
}
330
10001
100
AcDbProxyObject
 90
      499
 91
      503
 93
      105
310
903313A344000000000000104000
  0
ACAD_PROXY_OBJECT
  5
10005
102
{ACAD_REACTORS
330
10001
102
}
330
10001
100
AcDbProxyObject
 90
      499
 91
      503
 93
      105
310
903313A354000000000000144000
  0
ACAD_PROXY_OBJECT
  5
10006
102
{ACAD_REACTORS
330
10001
102
}
330
10001
100
AcDbProxyObject
 90
      499
 91
      503
 93
      105
310
903313A384000000000000204000
  0
ACAD_PROXY_OBJECT
  5
10007
102
{ACAD_REACTORS
330
10001
102
}
330
10001
100
AcDbProxyObject
 90
      499
 91
      503
 93
      113
310
904313A31304000000000000244000
  0
ACAD_PROXY_OBJECT
  5
10008
102
{ACAD_REACTORS
330
10001
102
}
330
10001
100
AcDbProxyObject
 90
      499
 91
      503
 93
      113
310
904313A31364000000000000304000
  0
ACAD_PROXY_OBJECT
  5
10009
102
{ACAD_REACTORS
330
10001
102
}
330
10001
100
AcDbProxyObject
 90
      499
 91
      503
 93
      113
310
904313A32304000000000000344000
  0
ACAD_PROXY_OBJECT
  5
1000A
102
{ACAD_REACTORS
330
10001
102
}
330
10001
100
AcDbProxyObject
 90
      499
 91
      503
 93
      113
310
904313A333040000000000003E4000
  0
ACAD_PROXY_OBJECT
  5
1000B
102
{ACAD_REACTORS
330
10001
102
}
330
10001
100
AcDbProxyObject
 90
      499
 91
      503
 93
      113
310
904313A34304000000000000444000
  0
ACAD_PROXY_OBJECT
  5
1000C
102
{ACAD_REACTORS
330
10001
102
}
330
10001
100
AcDbProxyObject
 90
      499
 91
      503
 93
      113
310
904313A35304000000000000494000
  0
ACAD_PROXY_OBJECT
  5
1000D
102
{ACAD_REACTORS
330
10001
102
}
330
10001
100
AcDbProxyObject
 90
      499
 91
      503
 93
      121
310
905313A3130304000000000000594000
  0
ACAD_PROXY_OBJECT
  5
1000E
102
{ACAD_REACTORS
330
10001
102
}
330
10001
100
AcDbProxyObject
 90
      499
 91
      503
 93
      105
310
903323A310000000000000010100
  0
ACAD_PROXY_OBJECT
  5
1000F
102
{ACAD_REACTORS
330
10001
102
}
330
10001
100
AcDbProxyObject
 90
      499
 91
      503
 93
      105
310
903343A310000000000000410100
  0
ACAD_PROXY_OBJECT
  5
10010
102
{ACAD_REACTORS
330
10001
102
}
330
10001
100
AcDbProxyObject
 90
      499
 91
      503
 93
      105
310
903383A310000000000000810100
  0
ACAD_PROXY_OBJECT
  5
10011
102
{ACAD_REACTORS
330
10001
102
}
330
10001
100
AcDbProxyObject
 90
      499
 91
      503
 93
      113
310
90431303A310000000000000910100
  0
ACAD_PROXY_OBJECT
  5
10012
102
{ACAD_REACTORS
330
10001
102
}
330
10001
100
AcDbProxyObject
 90
      499
 91
      503
 93
      121
310
9053130303A310000000000001650100
  0
ACAD_PROXY_OBJECT
  5
10013
102
{ACAD_REACTORS
330
10001
102
}
330
10001
100
AcDbProxyObject
 90
      499
 91
      503
 93
      257
310
90E312F31323822203D2031272D3022000000000000200FC000000000000284000
  0
ACAD_PROXY_OBJECT
  5
10014
102
{ACAD_REACTORS
330
10001
102
}
330
10001
100
AcDbProxyObject
 90
      499
 91
      503
 93
      249
310
90D312F363422203D2031272D3022000000000000240FC000000000000284000
  0
ACAD_PROXY_OBJECT
  5
10015
102
{ACAD_REACTORS
330
10001
102
}
330
10001
100
AcDbProxyObject
 90
      499
 91
      503
 93
      249
310
90D312F333222203D2031272D3022000000000000280FC000000000000284000
  0
ACAD_PROXY_OBJECT
  5
10016
102
{ACAD_REACTORS
330
10001
102
}
330
10001
100
AcDbProxyObject
 90
      499
 91
      503
 93
      249
310
90D312F313622203D2031272D30220000000000002C0FC000000000000284000
  0
ACAD_PROXY_OBJECT
  5
10017
102
{ACAD_REACTORS
330
10001
102
}
330
10001
100
AcDbProxyObject
 90
      499
 91
      503
 93
      249
310
90D332F333222203D2031272D30220000000000002E0FC000000000000284000
  0
ACAD_PROXY_OBJECT
  5
10018
102
{ACAD_REACTORS
330
10001
102
}
330
10001
100
AcDbProxyObject
 90
      499
 91
      503
 93
      241
310
90C312F3822203D2031272D3022000000000000300FC000000000000284000
  0
ACAD_PROXY_OBJECT
  5
10019
102
{ACAD_REACTORS
330
10001
102
}
330
10001
100
AcDbProxyObject
 90
      499
 91
      503
 93
      249
310
90D332F313622203D2031272D3022000000000000320FC000000000000284000
  0
ACAD_PROXY_OBJECT
  5
1001A
102
{ACAD_REACTORS
330
10001
102
}
330
10001
100
AcDbProxyObject
 90
      499
 91
      503
 93
      241
310
90C312F3422203D2031272D3022000000000000340FC000000000000284000
  0
ACAD_PROXY_OBJECT
  5
1001B
102
{ACAD_REACTORS
330
10001
102
}
330
10001
100
AcDbProxyObject
 90
      499
 91
      503
 93
      241
310
90C332F3822203D2031272D3022000000000000360FC000000000000284000
  0
ACAD_PROXY_OBJECT
  5
1001C
102
{ACAD_REACTORS
330
10001
102
}
330
10001
100
AcDbProxyObject
 90
      499
 91
      503
 93
      241
310
90C312F3222203D2031272D3022000000000000380FC000000000000284000
  0
ACAD_PROXY_OBJECT
  5
1001D
102
{ACAD_REACTORS
330
10001
102
}
330
10001
100
AcDbProxyObject
 90
      499
 91
      503
 93
      241
310
90C332F3422203D2031272D30220000000000003A0FC000000000000284000
  0
ACAD_PROXY_OBJECT
  5
1001E
102
{ACAD_REACTORS
330
10001
102
}
330
10001
100
AcDbProxyObject
 90
      499
 91
      503
 93
      161
310
90A3122203D2031272D30224000000000000284000
  0
ACAD_PROXY_OBJECT
  5
1001F
102
{ACAD_REACTORS
330
10001
102
}
330
10001
100
AcDbProxyObject
 90
      499
 91
      503
 93
      257
310
90E312D312F3222203D2031272D30220000000000003E0FC000000000000284000
  0
ACAD_PROXY_OBJECT
  5
10020
102
{ACAD_REACTORS
330
10001
102
}
330
10001
100
AcDbProxyObject
 90
      499
 91
      503
 93
      225
310
90A3322203D2031272D302200000000000002100000000000000284000
  0
ACAD_PROXY_OBJECT
  5
10021
102
{ACAD_REACTORS
330
10001
102
}
330
10001
100
AcDbProxyObject
 90
      499
 91
      503
 93
      225
310
90A3622203D2031272D302200000000000006100000000000000284000
  0
ACAD_PROXY_OBJECT
  5
10022
102
{ACAD_REACTORS
330
10001
102
}
330
10001
100
AcDbProxyObject
 90
      499
 91
      503
 93
      249
310
90D31272D3022203D2031272D30220000000000000A100000000000000284000
  0
ACAD_PROXY_OBJECT
  5
1002B
102
{ACAD_REACTORS
330
10026
102
}
330
10026
100
AcDbProxyObject
 90
      499
 91
      504
 93
      436
310
42CC9915DA5C99599C985B595049028333333333333E33F0000000000000F90107901411070040501600405405064090741402480A0340
1001
ACAD
1000
AcDbSavedByObjectVersion
1070
     0
  0
ACAD_PROXY_OBJECT
  5
1002E
102
{ACAD_REACTORS
330
10026
102
}
330
10026
100
AcDbProxyObject
 90
      499
 91
      504
 93
      388
310
4150985CDA58D07406404333333333333E33F0000000000000F90107A41107004050150841D405064090741402480A0350
1001
ACAD
1000
AcDbSavedByObjectVersion
1070
     0
  0
ACAD_PROXY_OBJECT
  5
10032
102
{ACAD_REACTORS
330
10026
102
}
330
10026
100
AcDbProxyObject
 90
      499
 91
      504
 93
      428
310
42109C9A59DA1D195B90C409028333333333333E33F0000000000000F9010790141107004050150841D405064090741402480A029950
1001
ACAD
1000
AcDbSavedByObjectVersion
1070
     0
  0
ACAD_PROXY_OBJECT
  5
10036
102
{ACAD_REACTORS
330
10026
102
}
330
10026
100
AcDbProxyObject
 90
      499
 91
      504
 93
      452
310
42D0DBDB1BDC90DA185B99D95104090240C333333333333E33F0000000000000F90108901411070040501508421405064090741402480A0350
1001
ACAD
1000
AcDbSavedByObjectVersion
1070
     0
  0
ACAD_PROXY_OBJECT
  5
10030
102
{ACAD_REACTORS
330
10026
102
}
330
10026
100
AcDbProxyObject
 90
      499
 91
      504
 93
      500
310
4290DBDB98D95C1D1D585B10940D028333333333333E33F0000000000000F90107902409070040501000000000018199010841D405064090740C02480A0340
1001
ACAD
1000
AcDbSavedByObjectVersion
1070
     0
  0
ACAD_PROXY_OBJECT
  5
10031
102
{ACAD_REACTORS
330
10026
102
}
330
10026
100
AcDbProxyObject
 90
      499
 91
      504
 93
      412
310
40D11A5B50B409028333333333333E33F0000000000000F9010790141107004050150841D405064090741402480A02677FFFFFD0
1001
ACAD
1000
AcDbSavedByObjectVersion
1070
     0
  0
ACAD_PROXY_OBJECT
  5
10039
102
{ACAD_REACTORS
330
10026
102
}
330
10026
100
AcDbProxyObject
 90
      499
 91
      504
 93
      452
310
43115919D950DBDB1BDC93D999916409028333333333333E33F0000000000000F9010790141107004050150841D405064090741402480A0350
1001
ACAD
1000
AcDbSavedByObjectVersion
1070
     0
  0
ACAD_PROXY_OBJECT
  5
10035
102
{ACAD_REACTORS
330
10026
102
}
330
10026
100
AcDbProxyObject
 90
      499
 91
      504
 93
      444
310
42D19858D95C185D1D195C9B90F409028333333333333E33F0000000000000F9010790141107004050150841D405064090741402480A0350
1001
ACAD
1000
AcDbSavedByObjectVersion
1070
     0
  0
ACAD_PROXY_OBJECT
  5
10027
102
{ACAD_REACTORS
330
10026
102
}
330
10026
100
AcDbProxyObject
 90
      499
 91
      504
 93
      380
310
41119B185D240901404333333333333E33F0000000000000F9010740A907004050150841D405064090741402480A1B50
1001
ACAD
1000
AcDbSavedByObjectVersion
1070
     0
  0
ACAD_PROXY_OBJECT
  5
10028
102
{ACAD_REACTORS
330
10026
102
}
330
10026
100
AcDbProxyObject
 90
      499
 91
      504
 93
      468
310
43519B185D15DA5D1A115919D95CD0140901404333333333333E33F0000000000000F90107409019070040501600405405064090741402480A1B50
1001
ACAD
1000
AcDbSavedByObjectVersion
1070
     0
  0
ACAD_PROXY_OBJECT
  5
10029
102
{ACAD_REACTORS
330
10026
102
}
330
10026
100
AcDbProxyObject
 90
      499
 91
      504
 93
      404
310
41D1DBDD5C985D5910240902404333333333333E33F0000000000000F9010740A9070040501641D405064090741402480A1B50
1001
ACAD
1000
AcDbSavedByObjectVersion
1070
     0
  0
ACAD_PROXY_OBJECT
  5
1002A
102
{ACAD_REACTORS
330
10026
102
}
330
10026
100
AcDbProxyObject
 90
      499
 91
      504
 93
      492
310
4411DBDD5C985D5915DA5D1A115919D95CD0340902404333333333333E33F0000000000000F90107409019070040501600405405064090741402480A1B50
1001
ACAD
1000
AcDbSavedByObjectVersion
1070
     0
  0
ACAD_PROXY_OBJECT
  5
1002D
102
{ACAD_REACTORS
330
10026
102
}
330
10026
100
AcDbProxyObject
 90
      499
 91
      504
 93
      476
310
41921A5919195B90640502408333333333333E33F0000000000000F901079024090700405020000000000001110200405405064090740C02480A0340
1001
ACAD
1000
AcDbSavedByObjectVersion
1070
     0
  0
ACAD_PROXY_OBJECT
  5
10037
102
{ACAD_REACTORS
330
10026
102
}
330
10026
100
AcDbProxyObject
 90
      499
 91
      504
 93
      428
310
42529A5D1D195C93D999914409028333333333333E33F0000000000000F9010790141107004050150A41D405064090741402480A0350
1001
ACAD
1000
AcDbSavedByObjectVersion
1070
     0
  0
ACAD_PROXY_OBJECT
  5
10034
102
{ACAD_REACTORS
330
10026
102
}
330
10026
100
AcDbProxyObject
 90
      499
 91
      504
 93
      444
310
42D31A5B995C185D1D195C9B90E409028333333333333E33F0000000000000F9010790141107004050750841D405064090741402483A0350
1001
ACAD
1000
AcDbSavedByObjectVersion
1070
     0
  0
ACAD_PROXY_OBJECT
  5
10038
102
{ACAD_REACTORS
330
10026
102
}
330
10026
100
AcDbProxyObject
 90
      499
 91
      504
 93
      444
310
42D3DD995C9A185B99D3D999915409028333333333333E33F0000000000000F9010790141107004050150941D405064090741402480A0350
1001
ACAD
1000
AcDbSavedByObjectVersion
1070
     0
  0
ACAD_PROXY_OBJECT
  5
1002F
102
{ACAD_REACTORS
330
10026
102
}
330
10026
100
AcDbProxyObject
 90
      499
 91
      504
 93
      428
310
425499585B1A5CDD1A58D08409038333333333333E33F0000000000000F9010740A907004050150800405405064090740C02480A1B40
1001
ACAD
1000
AcDbSavedByObjectVersion
1070
     0
  0
ACAD_PROXY_OBJECT
  5
1003E
102
{ACAD_REACTORS
330
10026
102
}
330
10026
100
AcDbProxyObject
 90
      499
 91
      504
 93
      420
310
4194DA1859195911B40902404333333333333E33F0000000000000F9010740A41107004050150800405405064090840C02480A0B40
1001
ACAD
1000
AcDbSavedByObjectVersion
1070
     0
  0
ACAD_PROXY_OBJECT
  5
1003D
102
{ACAD_REACTORS
330
10026
102
}
330
10026
100
AcDbProxyObject
 90
      499
 91
      504
 93
      516
310
4454DA18591959081DDA5D1A08195919D95CD1A40902404333333333333E33F0000000000000F901074090142907004050250800405405064090740C02480A0B40
1001
ACAD
1000
AcDbSavedByObjectVersion
1070
     0
  0
ACAD_PROXY_OBJECT
  5
1003A
102
{ACAD_REACTORS
330
10026
102
}
330
10026
100
AcDbProxyObject
 90
      499
 91
      504
 93
      532
310
4394DA1859195CC81BD98811DC985E5174090240C333333333333E33F0000000000000F901079024090741D01000000000000111010841D405064090740C02480A0340
1001
ACAD
1000
AcDbSavedByObjectVersion
1070
     0
  0
ACAD_PROXY_OBJECT
  5
1003B
102
{ACAD_REACTORS
330
10026
102
}
330
10026
100
AcDbProxyObject
 90
      499
 91
      504
 93
      476
310
41D4DAD95D18DA1E51840502408333333333333E33F0000000000000F901079024090741D01000000000000111010B41D405064090741802480A0340
1001
ACAD
1000
AcDbSavedByObjectVersion
1070
     0
  0
ACAD_PROXY_OBJECT
  5
10033
102
{ACAD_REACTORS
330
10026
102
}
330
10026
100
AcDbProxyObject
 90
      499
 91
      504
 93
      412
310
41D51A1A58DAD95B90D409028333333333333E33F0000000000000F9010790141107004050150C41D405064090741402480A0350
1001
ACAD
1000
AcDbSavedByObjectVersion
1070
     0
  0
ACAD_PROXY_OBJECT
  5
1002C
102
{ACAD_REACTORS
330
10026
102
}
330
10026
100
AcDbProxyObject
 90
      499
 91
      504
 93
      420
310
4255DA5C99599C985B595059028333333333333E33F0000000000000F90107901411070040501600405405064090740C02480A0340
1001
ACAD
1000
AcDbSavedByObjectVersion
1070
     0
  0
ACAD_PROXY_OBJECT
  5
1003C
102
{ACAD_REACTORS
330
10026
102
}
330
10026
100
AcDbProxyObject
 90
      499
 91
      504
 93
      404
310
41560B54985E51940902404000000000000E03F0000000000000F9010740501907004050150841D405064090740C02480A1B40
1001
ACAD
1000
AcDbSavedByObjectVersion
1070
     0
  0
XRECORD
  5
10087
102
{ACAD_REACTORS
330
1007E
102
}
330
1007E
100
AcDbXrecord
 90
        0
  0
XRECORD
  5
1009D
102
{ACAD_REACTORS
330
1007E
102
}
330
1007E
100
AcDbXrecord
1000
DSTYLE
1002
{
1070
   279
 70
     2
1070
   340
340
71
1002
}
  0
XRECORD
  5
10088
102
{ACAD_REACTORS
330
1007E
102
}
330
1007E
100
AcDbXrecord
  1
{4F584166-450C-464B-91C0-C0F3FB5716E1}
  0
XRECORD
  5
10081
102
{ACAD_REACTORS
330
1007E
102
}
330
1007E
100
AcDbXrecord
  1

  0
XRECORD
  5
10086
102
{ACAD_REACTORS
330
1007E
102
}
330
1007E
100
AcDbXrecord
 90
        4
  0
XRECORD
  5
10083
102
{ACAD_REACTORS
330
1007E
102
}
330
1007E
100
AcDbXrecord
340
10023
  0
XRECORD
  5
10085
102
{ACAD_REACTORS
330
1007E
102
}
330
1007E
100
AcDbXrecord
 90
    10781
  0
XRECORD
  5
10084
102
{ACAD_REACTORS
330
1007E
102
}
330
1007E
100
AcDbXrecord
340
1007C
  0
XRECORD
  5
1008A
102
{ACAD_REACTORS
330
1007E
102
}
330
1007E
100
AcDbXrecord
 40
0.0
  0
XRECORD
  5
1008D
102
{ACAD_REACTORS
330
1007E
102
}
330
1007E
100
AcDbXrecord
340
0
  0
XRECORD
  5
10093
102
{ACAD_REACTORS
330
1007E
102
}
330
1007E
100
AcDbXrecord
 10
0.0
 20
0.0
 30
0.0
  0
XRECORD
  5
1008F
102
{ACAD_REACTORS
330
1007E
102
}
330
1007E
100
AcDbXrecord
 10
0.0
 20
0.0
 30
0.0
  0
XRECORD
  5
10092
102
{ACAD_REACTORS
330
1007E
102
}
330
1007E
100
AcDbXrecord
 10
0.0
 20
0.0
 30
0.0
  0
XRECORD
  5
10090
102
{ACAD_REACTORS
330
1007E
102
}
330
1007E
100
AcDbXrecord
 10
0.0
 20
0.0
 30
0.0
  0
XRECORD
  5
10091
102
{ACAD_REACTORS
330
1007E
102
}
330
1007E
100
AcDbXrecord
 10
0.0
 20
0.0
 30
0.0
  0
XRECORD
  5
1008E
102
{ACAD_REACTORS
330
1007E
102
}
330
1007E
100
AcDbXrecord
 10
0.0
 20
0.0
 30
0.0
  0
XRECORD
  5
1008B
102
{ACAD_REACTORS
330
1007E
102
}
330
1007E
100
AcDbXrecord
340
0
  0
XRECORD
  5
1008C
102
{ACAD_REACTORS
330
1007E
102
}
330
1007E
100
AcDbXrecord
 70
     0
  0
XRECORD
  5
10082
102
{ACAD_REACTORS
330
1007E
102
}
330
1007E
100
AcDbXrecord
  1

  0
XRECORD
  5
1007F
102
{ACAD_REACTORS
330
1007E
102
}
330
1007E
100
AcDbXrecord
 90
        1
  0
XRECORD
  5
10080
102
{ACAD_REACTORS
330
1007E
102
}
330
1007E
100
AcDbXrecord
 90
       70
  0
XRECORD
  5
10096
102
{ACAD_REACTORS
330
1007E
102
}
330
1007E
100
AcDbXrecord
340
0
  0
XRECORD
  5
1009C
102
{ACAD_REACTORS
330
1007E
102
}
330
1007E
100
AcDbXrecord
 10
0.0
 20
0.0
 30
0.0
  0
XRECORD
  5
10098
102
{ACAD_REACTORS
330
1007E
102
}
330
1007E
100
AcDbXrecord
 10
0.0
 20
0.0
 30
0.0
  0
XRECORD
  5
1009B
102
{ACAD_REACTORS
330
1007E
102
}
330
1007E
100
AcDbXrecord
 10
0.0
 20
0.0
 30
0.0
  0
XRECORD
  5
10099
102
{ACAD_REACTORS
330
1007E
102
}
330
1007E
100
AcDbXrecord
 10
0.0
 20
0.0
 30
0.0
  0
XRECORD
  5
1009A
102
{ACAD_REACTORS
330
1007E
102
}
330
1007E
100
AcDbXrecord
 10
0.0
 20
0.0
 30
0.0
  0
XRECORD
  5
10097
102
{ACAD_REACTORS
330
1007E
102
}
330
1007E
100
AcDbXrecord
 10
0.0
 20
0.0
 30
0.0
  0
XRECORD
  5
10094
102
{ACAD_REACTORS
330
1007E
102
}
330
1007E
100
AcDbXrecord
340
0
  0
XRECORD
  5
10095
102
{ACAD_REACTORS
330
1007E
102
}
330
1007E
100
AcDbXrecord
 70
     0
  0
XRECORD
  5
10089
102
{ACAD_REACTORS
330
1007E
102
}
330
1007E
100
AcDbXrecord
  1
{FAEB1C32-E019-11D5-929B-00C0DF256EC4}
  0
DICTIONARYVAR
  5
1005F
102
{ACAD_REACTORS
330
1005E
102
}
330
1005E
100
DictionaryVariables
280
     0
  1
1:1
  0
DICTIONARYVAR
  5
1009E
102
{ACAD_REACTORS
330
1005E
102
}
330
1005E
100
DictionaryVariables
280
     0
  1
2
  0
DICTIONARYVAR
  5
1009F
102
{ACAD_REACTORS
330
1005E
102
}
330
1005E
100
DictionaryVariables
280
     0
  1
1
  0
DICTIONARYVAR
  5
10061
102
{ACAD_REACTORS
330
1005E
102
}
330
1005E
100
DictionaryVariables
280
     0
  1
0
  0
CSACDOCUMENTOPTIONS
  5
1004C
102
{ACAD_REACTORS
330
1004B
102
}
330
1004B
  0
XRECORD
  5
1005C
102
{ACAD_REACTORS
330
10045
102
}
330
10045
100
AcDbXrecord
300
MC_VERSION_DATA
 90
       95
310
0600000002000000570000001C000000B503000000000000000000007801936764E5D8CFFA9A93818115C460606066E0646662626666706006F218793899F8DE3171E725E6E53B3BBA2878E6951050AF75FEFFFFFF520033540F1657000000
  0
XRECORD
  5
10046
102
{ACAD_REACTORS
330
10045
102
}
330
10045
100
AcDbXrecord
300
MCS_DOCUMENT_ID
 90
       60
310
0600000002000000150000001C000000B503000000000000000000007801E37DC9626D59E715E53CF902A759CF5F46B7FF40000058D70A4215000000
  0
XRECORD
  5
1005A
102
{ACAD_REACTORS
330
10045
102
}
330
10045
100
AcDbXrecord
300
MCS_PARAMS_DATA
 90
     3313
310
0600000002000000F64B00001C000000B503000000000000000000007801C55C5B6C5CC519DE9D595FD6B9DF494B53970A1A6F4A58DF92A6426A1A1210527090E23EF0543976A2BA75E25CAC160A6DA92AF5A55255A96AD556551F4A49A0CF15A03EC0438190865E482021147221409310B6900B3826B1FB7F7366CEFC73E6
310
1CAFBDDE3D9B07D8FF3F73CEF7DFE6FB67E6ECBA757EA3143929F767A4FCCE8636299AA49C90529036BB402C105929F279912F89C6DEAF6FD8BC69AB14A46C51EAC2B9898909BA39945F872C1FCD848A834A91A13B1AD51D6D5266E8A9FAF627E9AABE92BD45CA6F03BD81A3CFC24D59D990C96408C7E066656E0232E13A03
310
14B0AB01724443F05CC3F08780DFC8F19B03FC710A073DC8486413411B49060E3311A05C24C45064703B01D7CCE196A818E5C59C9268B967CBD6DED68ED59DC52EEB78BEF08E09F8223D745649346F1DE9DB35D0B777C089FC5FC3C8EB60BF1A286CF47FE3467F17CC59C5CD990B0CD948C1A77FB9F5CA0E4F479188EA541E
310
3C25A2E22BC99C8892456878B2821857F6B05492C2AD881B41409C21325211340605C9C6DC6006EC49AC088A0CCBB25B1159B72248E415019155047D5453031360047082A7405D92B72AB0F03379693EAB50870260AC609E2C6F6510BB3D081DFE4EF5EFECD71494A7B3590EC7F12C5B25CB32539229914732934ECE22AF1D
310
D259AC8B7B7649E437DE7BDFA69EADF76EE95186E95A7ED74C032DBFA66A9BF1CEF341B19B78E45DDED9EF56FE29189043E4814BF734E1FF34659991678231F23A51010DA578E8294D435524988818E84710A7B2643B4F7C134F5CC6936D1E4176D01398C4D0A83AE0A6BDC86B0BB5C3E1E8299D70A5A945AC12322FE697C4
310
9C8DC3BBBE34D2BA77FBEEA1BEFEED79D15C120DF70F0FEE1A093EF60C8FF47F4BCAB3B0ED666EDB17F5733E2B445B5E2C298985C507BB8BEBBA3A3A3774178B1D777FA5B36B9D327BBE1ED84C030BC74C9EDAB5B64D88BC405AEF1E1CD9D73A34B88F70838775AD5DDBD1B9B6BBABBB73A0ABA37F5D7BE0E757F57D1DB80F
310
037BFBB60D6D6F1DDED1DA3B3CB47D6FDF2EF8A0AD5933506CEF2FF6F7ADD9D6B56D5DFF9A60D6A95222FF670B51F8295953F8455019945B7EE9315C7A8AFEC352DE9D4B4A5050256AA6D1B42D5F0C265BEED4473538E9811F770DEFDCDD3732B86D706870E4A1D69DC303E45F6349C807B6EFCB8B8692103DC352AE816545
310
9E9E798813B5E9A692C86DD9B1A355A5424F8E0BF018466AF90D150136590E2905AA568F782650907D5A7180140B84AD0159F8156902B8F63BDA8BE1A72E29AF48322EA98B5F578631B6F5489B26184C63434803DB221A328E6B58DEAED6DB808FEB6DC068BD0DF8A4DE065CABB7018B3045EB390B3EAD7704C6EA6DC07518
310
10B79C17773A0DB6C361F03BDD064B22C8C7303844629E5064B47323116EB9039777E096BB70247238880C6E39831B9F221C81B3E543C57019D4736C30574EE2DD4AD73B12B9771099772B997713E97A974DF4CECD5D9582B938116EC00926492C777A7F676A8F441E4C882C98032C983211AE26DE8974E196022EC7174366
310
F9AE62C95769E105B5C4B012E2E82ED8CD3516C5E34D519CF0D1F6765A8551C6CC0505130A3E8ABEC46EF81CED54DC1DA04AB7BC4DB0CA082453194AB29B82400C2B438BA6322032B88FE093B3E13470C11297490C8EEF78E88158D51A8AD42283A38F61044E78707A57F8BBDFE2DF2167F36975041D1DA7FCF59430C35792
310
05112533A905D5D3CAAB4759DBB4CA160F3E9309466F934A1794E7E1154C402D3088858048DCDF7EA3E7FECD5B7A7B376D5480CBF43A7E5E49CCBE6BEB37D945B2402FC65F52AB73B67E7F3A58AE93F37A04F6B7011D680556EBCCA2819BC8A21C320F385BBDB4EE56E6E32CE2CB18E358AD7676B4C7C096B1674BAF7B1278
310
1E906198B0DF8681EA696AF34D20563061CAB731C0DB01185B8B0DCA46538BD880EB0E2C6FC3120B40E62289BC162112587895C11513E18290E892090EBF46A9321968C513E0BB89A0AE8F2431B88A7DFC9E07A7BD0A8E668E3AF3CDEA083A3A8ECFB770A00AB53712018F2859D8DB3D93C2E4D422CB77A40BB73A5DB807A7
310
0857A5727AC8838BE45965D0D3D5B29CBEEF99145F4E558AC0C3E9C23D922EDC0FD285FBA107E7958EEDE721E98018A3E3AAC64E7F5C166D7ABA81B65C437BB31D766C74A6ED6E1FBC2766B7AFDAD87156F9771BF44A2A724C461AB43EE729AAFB710D63E2111810BBA3ABC9AE6037E09AB9BF3AB40BE8309F8736AB64CAB2
310
BE7E3364E5AC569CA6976081AF5A311628A8EF68C5B3A4609E3E86AC3AA156E3E83562F4B5A292099A878C61EB3B549CF92354989982613F016CE7AD5A4D09AA1F5126387AAD451EE384D9C035A925859E39C1AA865EE9A9B8DA21CEE289167F7CF1D4C4BC7A125EC5AED5D8BB0B5A9D9144D134CFA71BF85A8D44BE568348
310
F6AA55A2F3CAEACF6982FD29118CC249D3CBF852A586F278BA70FBD3853B90085793EDE51E143F0AD06C6B4CB2242BDDBDD1419166C2865E85F9CE1648F3CBF54B2E655D5432557AB8C599EEE6E763403914E55050D879E2BFFA30F366F009F0CB378371CA9B99D05949929DD07465EA8797A3808B6B06B9536E64AF9C844C
310
903AF2F3709D3783A318A078E4F37AEBBCEC2DD1B228B722F785DC2DB9D64C476675A63353CC74E937B1FA39BFA7DB58A6AFC19E49583A4A9B6110A6BA038D3C80418F79D091B18A763C1D8524AA5361F194EC4CC4B23EDBA3192533E95398E41423EB6DCA1C239B4DBF91D13F6D762A6897D7013D496371DC8BECCAA7D45E
310
0C251095ABC98AA38E1B6540CD3DACF829EF15C38D27C2B92DA64A071D13897001094F16523EC1C9E5A99FF465029665AB5B13C49AF8984D174EA40B273D389D33BB29A272F6749622C2719C22AC925104534E7A8CF33714555C6B3CF3BE4BE0AF28994CA9B8353E0F28878DD26D8D2F007FBAAD11BD305CEB4EAB35BE08B8
310
B8D678FEB81BD9134AB6ADF10A644BBEF9C2334A81E4EAA6772450D87DD2AF49C178F020A0EBD3055FF292CC5B8AB3FC4114C86BA708ACDB15F49C43C04EBBE7FCBD0CA8A1CB2AF59CC3897035E1E39713E16AD873FE91085A131FFF19C04DBEDBF8D75406FD3B3A2842E56C8ABE82A171BC3BF89ECB0E0F287926BC7B0450
310
75E4DDA3C09F2EEF56BE2579157071BCBBE7881BD93E255BDE7D04B225A07C61BD5230DE1DBA8C1158736B225E412358525F03747D78F79897E472BCCBAF5BAF2BA0DDE3804E9B765F2F035A65DA3D910857134A7A2311AE52DA8D6E0E9C1341735A873DD47F12A16BE2E99BE9C275792B70532835F1AEDB838B7404B509F7
310
74C449519D9AA19EB28205FF5B08785CE3F9307262735AC933693C270155C7C6730AF8E9359ED3808B6B3CA387DDC6734EC9B6F1C897238DE72006D89713F9C2E58B91C6F3388D608DE70CA0A7DA7866D30F8008DC16BEAA2D26A2AAB848F4108A0CF46D0F54D7A73989E2C56D75B6B8431D2F6EAB64C5CD94644C04869974
310
1626C5B6A280378D1BEE62BCE2C3917700E714386FAA719B1D7E7D464DF7DD444F8317374E8CAA75BEF65E19D0F8F0523EC21D7470DCC60B8CAEF29753FC38EF4760CFDBF99B4673F680D0869F6742513F06849341B61DF57EE3400A02734628D75C0DBC8B68A868B98655ECA330208EA3C6F1B52E3DF1E8849E2433679564
310
431A886148B568E62C4406F75F64308EFD2F9D7039EA6D259B5B2BF91AD8396F72B01004EFC5CD6C88F911E8CCDF849C077E5C64E9488747967101058B73015D99FA9B900B808B63FFB117DCC85E50324556799F2F34BC086EC70CD18A4318C0D9FF2AB6807CDB718046B0A4BE0FE8B4D9FFA207EA504E3D7E65FA014C7226
310
B329B0E8D703AAFEBAA304E869379E693123CD68457958A4FF2F11AE86ECFF6119D078F6E7138AD87FF2370F86D6E1E34789702D76FED2134932CCA824CB8C811832A3160D33426421BD940847AF6F0C11D33DEECB1CFE9B7175D1F926045DE5BD8DBFBDBE9C081764D0049324E6DDB40A8607F34A225C4D16463974B5B836
310
F3B3A32E193EACE499B49986C93A780A6DA631A981D7A6CD34012EAECDFCF23937B23F51B26D337F80CCDBCC36A5C0ECD07DE7E7A7236D663D8D6033A419D0536D33E07F56B8C4CA7C0D48229F9610695A461A0883CE7B494E8DD95B004DF38E8247AB09FE45AC1A52EDAC32A0861DD8DA85D8A76276989D08579353913989
310
700119397510D9BB4CAB9DF096393711B4263ECE4B176E7EBA700B3C389DB3F0B5335AA6A7234288EA142D784A9083AFB414616018456CF64C3293C4CD2F49D3E5A5F0410CEE3E0F2E6A6FEA11580893E29AEE529C2FC11C4DF48D4AA628982DB44A422820F8563073C8F989CF2240392BED74F7768B819FDEDE6E09E0E29A
310
EE0AFA030B3CB273954C91D5916E83CC9BEE074FAB1E6B73B11CFB6CBEB73B4C23589D2D05F4CC9AAE2E4C768646F0614DBB4BD40606BDCC4B726A4DF72640A7DD749797013521AB4ED3C5971C1BF2225712D922FD192CAA82F186C253F467B664EED8B163100EA1787299890C1D4314EEF90B040C236113FD72905624B8F0
310
99FF03A92412CEF64B0000
  0
DICTIONARY
  5
100A4
330
10041
100
AcDbDictionary
280
     1
  3
ACAD_XREC_ROUNDTRIP
360
100A5
  0
DICTIONARY
  5
100A2
330
10040
100
AcDbDictionary
280
     1
  3
ACAD_XREC_ROUNDTRIP
360
100A3
  0
DICTIONARY
  5
100A6
330
10042
100
AcDbDictionary
280
     1
  3
ACAD_XREC_ROUNDTRIP
360
100A7
  0
XRECORD
  5
100A5
102
{ACAD_REACTORS
330
100A4
102
}
330
100A4
100
AcDbXrecord
102
MATERIAL
148
0.0
149
0.0
149
0.0
 93
        0
 94
      127
282
     0
 72
     1
 77
     1
171
     1
175
     1
179
     1
273
     0
  0
XRECORD
  5
100A3
102
{ACAD_REACTORS
330
100A2
102
}
330
100A2
100
AcDbXrecord
102
MATERIAL
148
0.0
149
0.0
149
0.0
 93
        0
 94
      127
282
     0
 72
     1
 77
     1
171
     1
175
     1
179
     1
273
     0
  0
XRECORD
  5
100A7
102
{ACAD_REACTORS
330
100A6
102
}
330
100A6
100
AcDbXrecord
102
MATERIAL
148
0.0
149
0.0
149
0.0
 93
        0
 94
      127
282
     0
 72
     1
 77
     1
171
     1
175
     1
179
     1
273
     0
  0
ENDSEC
  0
EOF
