999
FreeCAD v0.20 29603 (Git)
  0
SECTION
  2
HEADER
  9
$ACADVER
  1
AC1014
  9
$ACADMAINTVER
 70
     9
  9
$DWGCODEPAGE
  3
ANSI_1252
  9
$TEXTSTYLE
  7
STANDARD
  9
$DIMSTYLE
  2
STANDARD
  9
$DIMTXSTY
  7
STANDARD
  9
$CMLSTYLE
  2
STANDARD
  9
$LUNITS
 70
2
  9
$INSUNITS
 70
4
  9
$PEXTMAX
 10
50
 20
50
 30
50
  9
$PEXTMIN
 10
0
 20
0
 30
0
  9
$HANDSEED
  5
FFFF
  0
ENDSEC
  0
SECTION
  2
CLASSES
  0
CLASS
  1
ACDBDICTIONARYWDFLT
  2
AcDbDictionaryWithDefault
  3
ObjectDBX Classes
 90
        0
280
     0
281
     0
  0
CLASS
  1
XRECORD
  2
AcDbXrecord
  3
ObjectDBX Classes
 90
        0
280
     0
281
     0
  0
CLASS
  1
LWPOLYLINE
  2
AcDbPolyline
  3
ObjectDBX Classes
 90
        0
280
     0
281
     1
  0
ENDSEC
  0
SECTION
  2
TABLES
  0
TABLE
  2
VPORT
  5
20
330
0
100
AcDbSymbolTable
 70
     1
  0
VPORT
  5
21
330
20
100
AcDbSymbolTableRecord
100
AcDbViewportTableRecord
  2
*ACTIVE
 70
     0
  0
ENDTAB
  0
TABLE
  2
LTYPE
  5
22
330
0
100
AcDbSymbolTable
 70
     1
  0
LTYPE
  5
23
330
21
100
AcDbSymbolTableRecord
100
AcDbLinetypeTableRecord
  2
BYBLOCK
 70
     0
  3

 72
    65
 73
     0
 40
0.0
  0
LTYPE
  5
24
330
21
100
AcDbSymbolTableRecord
100
AcDbLinetypeTableRecord
  2
BYLAYER
 70
     0
  3

 72
    65
 73
     0
 40
0.0
  0
LTYPE
  5
25
330
21
100
AcDbSymbolTableRecord
100
AcDbLinetypeTableRecord
  2
CONTINUOUS
 70
     0
  3
Solid line
 72
    65
 73
     0
 40
0.0
  0
ENDTAB
  0
TABLE
  2
LAYER
  5
B29
330
0
100
AcDbSymbolTable
 70
3
  0
LAYER
  5
B2A
330
B29
100
AcDbSymbolTableRecord
100
AcDbLayerTableRecord
  2
0
 70
   0
 62
   7
  6
CONTINUOUS
  0
LAYER
  5
B2B
330
B29
100
AcDbSymbolTableRecord
100
AcDbLayerTableRecord
  2
View
 70
    0
 62
    7
  6
CONTINUOUS
  0
LAYER
  5
B2C
330
B29
100
AcDbSymbolTableRecord
100
AcDbLayerTableRecord
  2
View001
 70
    0
 62
    7
  6
CONTINUOUS
  0
ENDTAB
  0
TABLE
  2
STYLE
  5
70
330
0
100
AcDbSymbolTable
 70
     2
  0
STYLE
  5
71
330
70
100
AcDbSymbolTableRecord
100
AcDbTextStyleTableRecord
  2
STANDARD
 70
     0
 40
0.0
 41
1.0
 50
0.0
 71
     0
 42
2.5
  3
arial.ttf
  4

  0
STYLE
  5
72
330
70
100
AcDbSymbolTableRecord
100
AcDbTextStyleTableRecord
  2
ANNOTATIVE
 70
     0
 40
0.0
 41
1.0
 50
0.0
 71
     0
 42
2.5
  3
arial.ttf
  4

  0
ENDTAB
  0
TABLE
  2
VIEW
  5
73
330
0
100
AcDbSymbolTable
 70
     0
  0
ENDTAB
  0
TABLE
  2
UCS
  5
74
330
0
100
AcDbSymbolTable
 70
     0
  0
ENDTAB
  0
TABLE
  2
APPID
  5
75
330
0
100
AcDbSymbolTable
 70
     2
  0
APPID
  5
76
330
75
100
AcDbSymbolTableRecord
100
AcDbRegAppTableRecord
  2
ACAD
 70
     0
  0
APPID
  5
77
330
75
100
AcDbSymbolTableRecord
100
AcDbRegAppTableRecord
  2
ACADANNOTATIVE
 70
     0
  0
ENDTAB
  0
TABLE
  2
DIMSTYLE
  5
78
330
0
100
AcDbSymbolTable
 70
     2
  0
DIMSTYLE
105
79
330
78
100
AcDbSymbolTableRecord
100
AcDbDimStyleTableRecord
  2
STANDARD
 70
     0
  3

  4

  5

  6

  7

 40
0.0
 41
2.5
 42
0.625
 43
3.75
 44
1.25
 45
0.0
 46
0.0
 47
0.0
 48
0.0
140
2.5
141
2.5
142
0.0
143
0.03937007874016
144
1.0
145
0.0
146
1.0
147
0.625
 71
     0
 72
     0
 73
     0
 74
     0
 75
     0
 76
     0
 77
     1
 78
     8
170
     0
171
     3
172
     1
173
     0
174
     0
175
     0
176
     0
177
     0
178
     0
270
     2
271
     2
272
     2
273
     2
274
     3
340
71
275
     0
280
     0
281
     0
282
     0
283
     0
284
     8
285
     0
286
     0
287
     3
288
     0
  0
ENDTAB
  0
TABLE
  2
BLOCK_RECORD
  5
A01
330
0
100
AcDbSymbolTable
  70
5
  0
BLOCK_RECORD
  5
A02
330
A01
100
AcDbSymbolTableRecord
100
AcDbBlockTableRecord
  2
*MODEL_SPACE
  0
BLOCK_RECORD
  5
A03
330
A01
100
AcDbSymbolTableRecord
100
AcDbBlockTableRecord
  2
*PAPER_SPACE
  0
ENDTAB
  0
ENDSEC
  0
SECTION
  2
BLOCKS
  0
BLOCK
  5
A04
330
A02
100
AcDbEntity
  8
0
100
AcDbBlockBegin
  2
*MODEL_SPACE
 70
   0
 10
0
 20
0
 30
0
  3
*MODEL_SPACE
  1
 
  0
ENDBLK
  5
A05
330
A02
100
AcDbEntity
  8
0
100
AcDbBlockEnd
  0
BLOCK
  5
A06
330
A03
100
AcDbEntity
 67
1
  8
0
100
AcDbBlockBegin
  2
*PAPER_SPACE
 70
   0
 10
0
 20
0
 30
0
  3
*PAPER_SPACE
  1
 
  0
ENDBLK
  5
A07
330
A03
100
AcDbEntity
 67
    1
  8
0
100
AcDbBlockEnd
  0
ENDSEC
  0
SECTION
  2
ENTITIES
  0
LINE
  5
A08
330
A02
100
AcDbEntity
  8
View
100
AcDbLine
 10
83.7006
 20
143.549
 30
0
 11
82.9086
 21
165.906
 31
0
  0
ELLIPSE
  5
A09
330
A02
100
AcDbEntity
  8
View
100
AcDbEllipse
 10
85.3172
 20
144.307
 30
0
 11
0.686089
 21
2.40401
 31
0
 40
0.609852
 41
-3.14159
 42
-2.65312
  0
ELLIPSE
  5
A0A
330
A02
100
AcDbEntity
  8
View
100
AcDbEllipse
 10
85.3172
 20
144.307
 30
0
 11
0.686089
 21
2.40401
 31
0
 40
0.609852
 41
-4.22392
 42
-3.14159
  0
LINE
  5
A0B
330
A02
100
AcDbEntity
  8
View
100
AcDbLine
 10
82.9086
 20
165.906
 30
0
 11
84.1254
 21
166.477
 31
0
  0
LINE
  5
A0C
330
A02
100
AcDbEntity
  8
View
100
AcDbLine
 10
117.366
 20
156.99
 30
0
 11
85.3993
 21
141.988
 31
0
  0
ELLIPSE
  5
A0D
330
A02
100
AcDbEntity
  8
View
100
AcDbEllipse
 10
99.1827
 20
153.738
 30
0
 11
0.343044
 21
1.20201
 31
0
 40
0.609852
 41
-0
 42
-5.79471
  0
ELLIPSE
  5
A0E
330
A02
100
AcDbEntity
  8
View
100
AcDbEllipse
 10
99.1827
 20
153.738
 30
0
 11
0.343044
 21
1.20201
 31
0
 40
0.609852
 41
-3.14159
 42
-0
  0
ELLIPSE
  5
A0F
330
A02
100
AcDbEntity
  8
View
100
AcDbEllipse
 10
99.1827
 20
153.738
 30
0
 11
0.343044
 21
1.20201
 31
0
 40
0.609852
 41
-5.79471
 42
-3.14159
  0
ELLIPSE
  5
A10
330
A02
100
AcDbEntity
  8
View
100
AcDbEllipse
 10
136.954
 20
190.694
 30
0
 11
-1.06211
 21
2.26317
 31
0
 40
0.699831
 41
5.73556
 42
0
  0
LINE
  5
A11
330
A02
100
AcDbEntity
  8
View
100
AcDbLine
 10
82.5574
 20
143.875
 30
0
 11
81.7655
 21
166.232
 31
0
  0
ELLIPSE
  5
A12
330
A02
100
AcDbEntity
  8
View
100
AcDbEllipse
 10
84.174
 20
144.634
 30
0
 11
0.686089
 21
2.40401
 31
0
 40
0.609852
 41
-4.22392
 42
-3.14159
  0
ELLIPSE
  5
A13
330
A02
100
AcDbEntity
  8
View
100
AcDbEllipse
 10
98.0396
 20
154.064
 30
0
 11
0.343044
 21
1.20201
 31
0
 40
0.609852
 41
-2.24739
 42
-0.894205
  0
LINE
  5
A14
330
A02
100
AcDbEntity
  8
View
100
AcDbLine
 10
81.7655
 20
166.232
 30
0
 11
82.9086
 21
165.906
 31
0
  0
ELLIPSE
  5
A15
330
A02
100
AcDbEntity
  8
View
100
AcDbEllipse
 10
83.6707
 20
165.688
 30
0
 11
-0.424842
 21
0.905267
 31
0
 40
0.699831
 41
5.73556
 42
0
  0
ELLIPSE
  5
A16
330
A02
100
AcDbEntity
  8
View
100
AcDbEllipse
 10
83.6707
 20
165.688
 30
0
 11
-0.424842
 21
0.905267
 31
0
 40
0.699831
 41
0
 42
1.02318
  0
ELLIPSE
  5
A17
330
A02
100
AcDbEntity
  8
View
100
AcDbEllipse
 10
83.6707
 20
165.688
 30
0
 11
-1.06211
 21
2.26317
 31
0
 40
0.699831
 41
5.73556
 42
0
  0
ELLIPSE
  5
A18
330
A02
100
AcDbEntity
  8
View
100
AcDbEllipse
 10
83.6707
 20
165.688
 30
0
 11
-1.06211
 21
2.26317
 31
0
 40
0.699831
 41
0
 42
1.02318
  0
LINE
  5
A19
330
A02
100
AcDbEntity
  8
View
100
AcDbLine
 10
83.5885
 20
168.008
 30
0
 11
136.872
 21
193.014
 31
0
  0
LINE
  5
A1A
330
A02
100
AcDbEntity
  8
View
100
AcDbLine
 10
136.872
 20
193.014
 30
0
 11
217.958
 21
169.872
 31
0
  0
LINE
  5
A1B
330
A02
100
AcDbEntity
  8
View
100
AcDbLine
 10
83.6378
 20
166.616
 30
0
 11
83.5885
 21
168.008
 31
0
  0
LINE
  5
A1C
330
A02
100
AcDbEntity
  8
View
100
AcDbLine
 10
164.724
 20
143.475
 30
0
 11
83.6378
 21
166.616
 31
0
  0
LINE
  5
A1D
330
A02
100
AcDbEntity
  8
View
100
AcDbLine
 10
217.958
 20
169.872
 30
0
 11
164.675
 21
144.866
 31
0
  0
LINE
  5
A1E
330
A02
100
AcDbEntity
  8
View
100
AcDbLine
 10
164.675
 20
144.866
 30
0
 11
83.5885
 21
168.008
 31
0
  0
ELLIPSE
  5
A1F
330
A02
100
AcDbEntity
  8
View
100
AcDbEllipse
 10
173.843
 20
156.646
 30
0
 11
1.599
 21
0.0566422
 31
0
 40
0.37191
 41
5.56638
 42
0
  0
ELLIPSE
  5
A20
330
A02
100
AcDbEntity
  8
View
100
AcDbEllipse
 10
173.843
 20
156.646
 30
0
 11
1.599
 21
0.0566422
 31
0
 40
0.37191
 41
0
 42
3.14159
  0
ELLIPSE
  5
A21
330
A02
100
AcDbEntity
  8
View
100
AcDbEllipse
 10
173.843
 20
156.646
 30
0
 11
1.599
 21
0.0566422
 31
0
 40
0.37191
 41
3.14159
 42
5.56638
  0
ELLIPSE
  5
A22
330
A02
100
AcDbEntity
  8
View
100
AcDbEllipse
 10
177.723
 20
158.467
 30
0
 11
1.599
 21
0.0566422
 31
0
 40
0.37191
 41
5.56638
 42
0
  0
ELLIPSE
  5
A23
330
A02
100
AcDbEntity
  8
View
100
AcDbEllipse
 10
177.723
 20
158.467
 30
0
 11
1.599
 21
0.0566422
 31
0
 40
0.37191
 41
0
 42
3.14159
  0
ELLIPSE
  5
A24
330
A02
100
AcDbEntity
  8
View
100
AcDbEllipse
 10
177.723
 20
158.467
 30
0
 11
1.599
 21
0.0566422
 31
0
 40
0.37191
 41
3.14159
 42
5.56638
  0
ELLIPSE
  5
A25
330
A02
100
AcDbEntity
  8
View
100
AcDbEllipse
 10
181.603
 20
160.288
 30
0
 11
1.599
 21
0.0566422
 31
0
 40
0.37191
 41
5.56638
 42
0
  0
ELLIPSE
  5
A26
330
A02
100
AcDbEntity
  8
View
100
AcDbEllipse
 10
181.603
 20
160.288
 30
0
 11
1.599
 21
0.0566422
 31
0
 40
0.37191
 41
0
 42
3.14159
  0
ELLIPSE
  5
A27
330
A02
100
AcDbEntity
  8
View
100
AcDbEllipse
 10
181.603
 20
160.288
 30
0
 11
1.599
 21
0.0566422
 31
0
 40
0.37191
 41
3.14159
 42
5.56638
  0
ELLIPSE
  5
A28
330
A02
100
AcDbEntity
  8
View
100
AcDbEllipse
 10
218.04
 20
167.553
 30
0
 11
1.06211
 21
-2.26317
 31
0
 40
0.699831
 41
-5.26001
 42
-3.68921
  0
LINE
  5
A29
330
A02
100
AcDbEntity
  8
View
100
AcDbLine
 10
164.675
 20
144.866
 30
0
 11
164.724
 21
143.475
 31
0
  0
ELLIPSE
  5
A2A
330
A02
100
AcDbEntity
  8
View
100
AcDbEllipse
 10
164.757
 20
142.547
 30
0
 11
0.424842
 21
-0.905267
 31
0
 40
0.699831
 41
-5.26001
 42
-3.68921
  0
ELLIPSE
  5
A2B
330
A02
100
AcDbEntity
  8
View
100
AcDbEllipse
 10
164.757
 20
142.547
 30
0
 11
1.06211
 21
-2.26317
 31
0
 40
0.699831
 41
-5.26001
 42
-3.68921
  0
LINE
  5
A2C
330
A02
100
AcDbEntity
  8
View
100
AcDbLine
 10
166.662
 20
142.003
 30
0
 11
219.945
 21
167.009
 31
0
  0
LINE
  5
A2D
330
A02
100
AcDbEntity
  8
View
100
AcDbLine
 10
220.737
 20
144.652
 30
0
 11
219.945
 21
167.009
 31
0
  0
LINE
  5
A2E
330
A02
100
AcDbEntity
  8
View
100
AcDbLine
 10
165.519
 20
142.33
 30
0
 11
166.662
 21
142.003
 31
0
  0
LINE
  5
A2F
330
A02
100
AcDbEntity
  8
View
100
AcDbLine
 10
165.519
 20
142.33
 30
0
 11
166.311
 21
119.972
 31
0
  0
ELLIPSE
  5
A30
330
A02
100
AcDbEntity
  8
View
100
AcDbEllipse
 10
167.927
 20
120.731
 30
0
 11
0.686089
 21
2.40401
 31
0
 40
0.609852
 41
-4.22392
 42
-3.14159
  0
ELLIPSE
  5
A31
330
A02
100
AcDbEntity
  8
View
100
AcDbEllipse
 10
181.793
 20
130.162
 30
0
 11
-0.343044
 21
-1.20201
 31
0
 40
0.609852
 41
0.894205
 42
2.24739
  0
ELLIPSE
  5
A32
330
A02
100
AcDbEntity
  8
View
100
AcDbEllipse
 10
205.589
 20
141.329
 30
0
 11
-0.343044
 21
-1.20201
 31
0
 40
0.609852
 41
0.894205
 42
2.24739
  0
LINE
  5
A33
330
A02
100
AcDbEntity
  8
View
100
AcDbLine
 10
166.662
 20
142.003
 30
0
 11
167.454
 21
119.646
 31
0
  0
ELLIPSE
  5
A34
330
A02
100
AcDbEntity
  8
View
100
AcDbEllipse
 10
169.071
 20
120.405
 30
0
 11
0.686089
 21
2.40401
 31
0
 40
0.609852
 41
-3.14159
 42
-2.65312
  0
ELLIPSE
  5
A35
330
A02
100
AcDbEntity
  8
View
100
AcDbEllipse
 10
169.071
 20
120.405
 30
0
 11
0.686089
 21
2.40401
 31
0
 40
0.609852
 41
-4.22392
 42
-3.14159
  0
LINE
  5
A36
330
A02
100
AcDbEntity
  8
View
100
AcDbLine
 10
169.153
 20
118.086
 30
0
 11
219.203
 21
141.574
 31
0
  0
ELLIPSE
  5
A37
330
A02
100
AcDbEntity
  8
View
100
AcDbEllipse
 10
219.12
 20
143.893
 30
0
 11
0.686089
 21
2.40401
 31
0
 40
0.609852
 41
-2.65312
 42
-1.08232
  0
ELLIPSE
  5
A38
330
A02
100
AcDbEntity
  8
View
100
AcDbEllipse
 10
182.936
 20
129.836
 30
0
 11
-0.343044
 21
-1.20201
 31
0
 40
0.609852
 41
0.488473
 42
3.14159
  0
ELLIPSE
  5
A39
330
A02
100
AcDbEntity
  8
View
100
AcDbEllipse
 10
182.936
 20
129.836
 30
0
 11
-0.343044
 21
-1.20201
 31
0
 40
0.609852
 41
3.14159
 42
0
  0
ELLIPSE
  5
A3A
330
A02
100
AcDbEntity
  8
View
100
AcDbEllipse
 10
182.936
 20
129.836
 30
0
 11
-0.343044
 21
-1.20201
 31
0
 40
0.609852
 41
0
 42
0.488473
  0
ELLIPSE
  5
A3B
330
A02
100
AcDbEntity
  8
View
100
AcDbEllipse
 10
206.732
 20
141.003
 30
0
 11
-0.343044
 21
-1.20201
 31
0
 40
0.609852
 41
0.488473
 42
3.14159
  0
ELLIPSE
  5
A3C
330
A02
100
AcDbEntity
  8
View
100
AcDbEllipse
 10
206.732
 20
141.003
 30
0
 11
-0.343044
 21
-1.20201
 31
0
 40
0.609852
 41
3.14159
 42
0
  0
ELLIPSE
  5
A3D
330
A02
100
AcDbEntity
  8
View
100
AcDbEllipse
 10
206.732
 20
141.003
 30
0
 11
-0.343044
 21
-1.20201
 31
0
 40
0.609852
 41
0
 42
0.488473
  0
LINE
  5
A3E
330
A02
100
AcDbEntity
  8
View
100
AcDbLine
 10
84.6311
 20
141.903
 30
0
 11
83.4879
 21
142.23
 31
0
  0
LINE
  5
A3F
330
A02
100
AcDbEntity
  8
View
100
AcDbLine
 10
135.892
 20
192.957
 30
0
 11
82.6086
 21
167.952
 31
0
  0
LINE
  5
A40
330
A02
100
AcDbEntity
  8
View
100
AcDbLine
 10
167.241
 20
118.327
 30
0
 11
168.384
 21
118.001
 31
0
  0
LINE
  5
A41
330
A02
100
AcDbEntity
  8
View
100
AcDbLine
 10
83.7006
 20
143.549
 30
0
 11
82.5574
 21
143.875
 31
0
  0
LINE
  5
A42
330
A02
100
AcDbEntity
  8
View
100
AcDbLine
 10
166.311
 20
119.972
 30
0
 11
167.454
 21
119.646
 31
0
  0
LINE
  5
A43
330
A02
100
AcDbEntity
  8
View
100
AcDbLine
 10
182.977
 20
128.676
 30
0
 11
182.289
 21
128.872
 31
0
  0
LINE
  5
A44
330
A02
100
AcDbEntity
  8
View
100
AcDbLine
 10
206.774
 20
139.844
 30
0
 11
206.086
 21
140.04
 31
0
  0
LINE
  5
A45
330
A02
100
AcDbEntity
  8
View001
100
AcDbLine
 10
130.83
 20
118.829
 30
0
 11
131.604
 21
96.9772
 31
0
  0
ELLIPSE
  5
A46
330
A02
100
AcDbEntity
  8
View001
100
AcDbEllipse
 10
131.211
 20
118.72
 30
0
 11
0.212421
 21
-0.452634
 31
0
 40
0.699831
 41
-3.14159
 42
-2.11842
  0
ELLIPSE
  5
A47
330
A02
100
AcDbEntity
  8
View001
100
AcDbEllipse
 10
131.211
 20
118.72
 30
0
 11
0.212421
 21
-0.452634
 31
0
 40
0.699831
 41
-3.68921
 42
-3.14159
  0
LINE
  5
A48
330
A02
100
AcDbEntity
  8
View001
100
AcDbLine
 10
135.403
 20
94.9334
 30
0
 11
202.063
 21
75.9091
 31
0
  0
LINE
  5
A49
330
A02
100
AcDbEntity
  8
View001
100
AcDbLine
 10
207.039
 20
74.489
 30
0
 11
214.249
 21
72.4312
 31
0
  0
LINE
  5
A4A
330
A02
100
AcDbEntity
  8
View001
100
AcDbLine
 10
213.043
 20
95.8249
 30
0
 11
131.195
 21
119.184
 31
0
  0
LINE
  5
A4B
330
A02
100
AcDbEntity
  8
View001
100
AcDbLine
 10
214.249
 20
72.4312
 30
0
 11
213.44
 21
95.2523
 31
0
  0
ELLIPSE
  5
A4C
330
A02
100
AcDbEntity
  8
View001
100
AcDbEllipse
 10
213.059
 20
95.3611
 30
0
 11
-0.212421
 21
0.452634
 31
0
 40
0.699831
 41
4.16477
 42
5.73556
  0
LINE
  5
A4D
330
A02
100
AcDbEntity
  8
View001
100
AcDbLine
 10
146.702
 20
97.7696
 30
0
 11
146.636
 21
99.625
 31
0
  0
ELLIPSE
  5
A4E
330
A02
100
AcDbEntity
  8
View001
100
AcDbEllipse
 10
147.464
 20
97.5521
 30
0
 11
-0.424842
 21
0.905267
 31
0
 40
0.699831
 41
1.02318
 42
2.59397
  0
ELLIPSE
  5
A4F
330
A02
100
AcDbEntity
  8
View001
100
AcDbEllipse
 10
147.398
 20
99.4075
 30
0
 11
0.424842
 21
-0.905267
 31
0
 40
0.699831
 41
-3.14159
 42
-2.11842
  0
ELLIPSE
  5
A50
330
A02
100
AcDbEntity
  8
View001
100
AcDbEllipse
 10
147.398
 20
99.4075
 30
0
 11
0.424842
 21
-0.905267
 31
0
 40
0.699831
 41
-3.68921
 42
-3.14159
  0
LINE
  5
A51
330
A02
100
AcDbEntity
  8
View001
100
AcDbLine
 10
152.831
 20
95.102
 30
0
 11
147.497
 21
96.6244
 31
0
  0
LINE
  5
A52
330
A02
100
AcDbEntity
  8
View001
100
AcDbLine
 10
147.365
 20
100.335
 30
0
 11
152.7
 21
98.8127
 31
0
  0
ELLIPSE
  5
A53
330
A02
100
AcDbEntity
  8
View001
100
AcDbEllipse
 10
152.798
 20
96.0296
 30
0
 11
-0.424842
 21
0.905267
 31
0
 40
0.699831
 41
2.59397
 42
3.14159
  0
ELLIPSE
  5
A54
330
A02
100
AcDbEntity
  8
View001
100
AcDbEllipse
 10
152.798
 20
96.0296
 30
0
 11
-0.424842
 21
0.905267
 31
0
 40
0.699831
 41
3.14159
 42
4.16477
  0
ELLIPSE
  5
A55
330
A02
100
AcDbEntity
  8
View001
100
AcDbEllipse
 10
152.733
 20
97.885
 30
0
 11
-0.424842
 21
0.905267
 31
0
 40
0.699831
 41
4.16477
 42
5.73556
  0
LINE
  5
A56
330
A02
100
AcDbEntity
  8
View001
100
AcDbLine
 10
153.495
 20
97.6675
 30
0
 11
153.56
 21
95.8121
 31
0
  0
LINE
  5
A57
330
A02
100
AcDbEntity
  8
View001
100
AcDbLine
 10
198.411
 20
81.9103
 30
0
 11
198.036
 21
92.4859
 31
0
  0
LINE
  5
A58
330
A02
100
AcDbEntity
  8
View001
100
AcDbLine
 10
205.574
 20
79.8658
 30
0
 11
198.411
 21
81.9103
 31
0
  0
LINE
  5
A59
330
A02
100
AcDbEntity
  8
View001
100
AcDbLine
 10
205.2
 20
90.4414
 30
0
 11
205.574
 21
79.8658
 31
0
  0
LINE
  5
A5A
330
A02
100
AcDbEntity
  8
View001
100
AcDbLine
 10
198.036
 20
92.4859
 30
0
 11
205.2
 21
90.4414
 31
0
  0
LINE
  5
A5B
330
A02
100
AcDbEntity
  8
View001
100
AcDbLine
 10
144.488
 20
103.819
 30
0
 11
144.186
 21
112.354
 31
0
  0
LINE
  5
A5C
330
A02
100
AcDbEntity
  8
View001
100
AcDbLine
 10
155.462
 20
100.687
 30
0
 11
144.488
 21
103.819
 31
0
  0
LINE
  5
A5D
330
A02
100
AcDbEntity
  8
View001
100
AcDbLine
 10
155.16
 20
109.222
 30
0
 11
155.462
 21
100.687
 31
0
  0
LINE
  5
A5E
330
A02
100
AcDbEntity
  8
View001
100
AcDbLine
 10
144.186
 20
112.354
 30
0
 11
155.16
 21
109.222
 31
0
  0
LINE
  5
A5F
330
A02
100
AcDbEntity
  8
View001
100
AcDbLine
 10
169.602
 20
91.2339
 30
0
 11
169.537
 21
93.0893
 31
0
  0
ELLIPSE
  5
A60
330
A02
100
AcDbEntity
  8
View001
100
AcDbEllipse
 10
170.364
 20
91.0164
 30
0
 11
-0.424842
 21
0.905267
 31
0
 40
0.699831
 41
1.02318
 42
2.59397
  0
ELLIPSE
  5
A61
330
A02
100
AcDbEntity
  8
View001
100
AcDbEllipse
 10
170.299
 20
92.8718
 30
0
 11
0.424842
 21
-0.905267
 31
0
 40
0.699831
 41
-3.14159
 42
-2.11842
  0
ELLIPSE
  5
A62
330
A02
100
AcDbEntity
  8
View001
100
AcDbEllipse
 10
170.299
 20
92.8718
 30
0
 11
0.424842
 21
-0.905267
 31
0
 40
0.699831
 41
-3.68921
 42
-3.14159
  0
LINE
  5
A63
330
A02
100
AcDbEntity
  8
View001
100
AcDbLine
 10
175.732
 20
88.5663
 30
0
 11
170.397
 21
90.0887
 31
0
  0
LINE
  5
A64
330
A02
100
AcDbEntity
  8
View001
100
AcDbLine
 10
170.266
 20
93.7995
 30
0
 11
175.6
 21
92.277
 31
0
  0
ELLIPSE
  5
A65
330
A02
100
AcDbEntity
  8
View001
100
AcDbEllipse
 10
175.699
 20
89.4939
 30
0
 11
-0.424842
 21
0.905267
 31
0
 40
0.699831
 41
2.59397
 42
3.14159
  0
ELLIPSE
  5
A66
330
A02
100
AcDbEntity
  8
View001
100
AcDbEllipse
 10
175.699
 20
89.4939
 30
0
 11
-0.424842
 21
0.905267
 31
0
 40
0.699831
 41
3.14159
 42
4.16477
  0
ELLIPSE
  5
A67
330
A02
100
AcDbEntity
  8
View001
100
AcDbEllipse
 10
175.633
 20
91.3493
 30
0
 11
-0.424842
 21
0.905267
 31
0
 40
0.699831
 41
4.16477
 42
5.73556
  0
LINE
  5
A68
330
A02
100
AcDbEntity
  8
View001
100
AcDbLine
 10
176.395
 20
91.1318
 30
0
 11
176.461
 21
89.2764
 31
0
  0
ELLIPSE
  5
A69
330
A02
100
AcDbEntity
  8
View001
100
AcDbEllipse
 10
132.181
 20
119.175
 30
0
 11
0.212421
 21
-0.452634
 31
0
 40
0.699831
 41
-3.68921
 42
-3.14159
  0
ELLIPSE
  5
A6A
330
A02
100
AcDbEntity
  8
View001
100
AcDbEllipse
 10
213.602
 20
72.1278
 30
0
 11
-0.274435
 21
-0.961606
 31
0
 40
0.609852
 41
0.488473
 42
2.05927
  0
LINE
  5
A6B
330
A02
100
AcDbEntity
  8
View001
100
AcDbLine
 10
135.453
 20
93.5127
 30
0
 11
202.035
 21
74.5107
 31
0
  0
LINE
  5
A6C
330
A02
100
AcDbEntity
  8
View001
100
AcDbLine
 10
207.089
 20
73.0683
 30
0
 11
211.73
 21
71.7438
 31
0
  0
LINE
  5
A6D
330
A02
100
AcDbEntity
  8
View001
100
AcDbLine
 10
211.73
 20
71.7438
 30
0
 11
213.635
 21
71.2001
 31
0
  0
LINE
  5
A6E
330
A02
100
AcDbEntity
  8
View001
100
AcDbLine
 10
214.013
 20
96.2801
 30
0
 11
132.165
 21
119.639
 31
0
  0
LINE
  5
A6F
330
A02
100
AcDbEntity
  8
View001
100
AcDbLine
 10
214.249
 20
72.4312
 30
0
 11
215.219
 21
72.8864
 31
0
  0
LINE
  5
A70
330
A02
100
AcDbEntity
  8
View001
100
AcDbLine
 10
215.219
 20
72.8864
 30
0
 11
214.41
 21
95.7075
 31
0
  0
ELLIPSE
  5
A71
330
A02
100
AcDbEntity
  8
View001
100
AcDbEllipse
 10
214.029
 20
95.8163
 30
0
 11
-0.212421
 21
0.452634
 31
0
 40
0.699831
 41
4.16477
 42
5.73556
  0
LINE
  5
A72
330
A02
100
AcDbEntity
  8
View001
100
AcDbLine
 10
147.672
 20
98.2248
 30
0
 11
147.606
 21
100.08
 31
0
  0
ELLIPSE
  5
A73
330
A02
100
AcDbEntity
  8
View001
100
AcDbEllipse
 10
148.434
 20
98.0073
 30
0
 11
-0.424842
 21
0.905267
 31
0
 40
0.699831
 41
1.02318
 42
2.59397
  0
ELLIPSE
  5
A74
330
A02
100
AcDbEntity
  8
View001
100
AcDbEllipse
 10
148.368
 20
99.8627
 30
0
 11
0.424842
 21
-0.905267
 31
0
 40
0.699831
 41
-2.32269
 42
-2.11842
  0
LINE
  5
A75
330
A02
100
AcDbEntity
  8
View001
100
AcDbLine
 10
153.551
 20
95.6285
 30
0
 11
148.467
 21
97.0796
 31
0
  0
LINE
  5
A76
330
A02
100
AcDbEntity
  8
View001
100
AcDbLine
 10
199.381
 20
82.3655
 30
0
 11
198.411
 21
81.9103
 31
0
  0
LINE
  5
A77
330
A02
100
AcDbEntity
  8
View001
100
AcDbLine
 10
199.381
 20
82.3655
 30
0
 11
199.032
 21
92.2016
 31
0
  0
LINE
  5
A78
330
A02
100
AcDbEntity
  8
View001
100
AcDbLine
 10
205.548
 20
80.6053
 30
0
 11
199.381
 21
82.3655
 31
0
  0
LINE
  5
A79
330
A02
100
AcDbEntity
  8
View001
100
AcDbLine
 10
145.458
 20
104.275
 30
0
 11
144.488
 21
103.819
 31
0
  0
LINE
  5
A7A
330
A02
100
AcDbEntity
  8
View001
100
AcDbLine
 10
145.458
 20
104.275
 30
0
 11
145.182
 21
112.07
 31
0
  0
LINE
  5
A7B
330
A02
100
AcDbEntity
  8
View001
100
AcDbLine
 10
155.436
 20
101.427
 30
0
 11
145.458
 21
104.275
 31
0
  0
LINE
  5
A7C
330
A02
100
AcDbEntity
  8
View001
100
AcDbLine
 10
170.572
 20
91.6891
 30
0
 11
170.507
 21
93.5445
 31
0
  0
ELLIPSE
  5
A7D
330
A02
100
AcDbEntity
  8
View001
100
AcDbEllipse
 10
171.334
 20
91.4716
 30
0
 11
-0.424842
 21
0.905267
 31
0
 40
0.699831
 41
1.02318
 42
2.59397
  0
ELLIPSE
  5
A7E
330
A02
100
AcDbEntity
  8
View001
100
AcDbEllipse
 10
171.269
 20
93.327
 30
0
 11
0.424842
 21
-0.905267
 31
0
 40
0.699831
 41
-2.32269
 42
-2.11842
  0
LINE
  5
A7F
330
A02
100
AcDbEntity
  8
View001
100
AcDbLine
 10
176.452
 20
89.0928
 30
0
 11
171.367
 21
90.5439
 31
0
  0
ELLIPSE
  5
A80
330
A02
100
AcDbEntity
  8
View001
100
AcDbEllipse
 10
213.602
 20
72.1278
 30
0
 11
-0.686089
 21
-2.40401
 31
0
 40
0.609852
 41
0.488473
 42
2.05927
  0
LINE
  5
A81
330
A02
100
AcDbEntity
  8
View001
100
AcDbLine
 10
213.635
 20
71.2001
 30
0
 11
213.684
 21
69.8086
 31
0
  0
LINE
  5
A82
330
A02
100
AcDbEntity
  8
View001
100
AcDbLine
 10
125.688
 20
90.8339
 30
0
 11
130.465
 21
93.0759
 31
0
  0
LINE
  5
A83
330
A02
100
AcDbEntity
  8
View001
100
AcDbLine
 10
211.73
 20
71.7438
 30
0
 11
205.825
 21
68.9728
 31
0
  0
LINE
  5
A84
330
A02
100
AcDbEntity
  8
View001
100
AcDbLine
 10
126.45
 20
90.6164
 30
0
 11
125.688
 21
90.8339
 31
0
  0
LINE
  5
A85
330
A02
100
AcDbEntity
  8
View001
100
AcDbLine
 10
125.933
 20
90.3736
 30
0
 11
126.45
 21
90.6164
 31
0
  0
LINE
  5
A86
330
A02
100
AcDbEntity
  8
View001
100
AcDbLine
 10
125.17
 20
90.5911
 30
0
 11
125.933
 21
90.3736
 31
0
  0
LINE
  5
A87
330
A02
100
AcDbEntity
  8
View001
100
AcDbLine
 10
93.3549
 20
75.6601
 30
0
 11
103.822
 21
80.5722
 31
0
  0
LINE
  5
A88
330
A02
100
AcDbEntity
  8
View001
100
AcDbLine
 10
113.992
 20
85.345
 30
0
 11
125.17
 21
90.5911
 31
0
  0
LINE
  5
A89
330
A02
100
AcDbEntity
  8
View001
100
AcDbLine
 10
170.099
 20
52.2066
 30
0
 11
169.44
 21
51.897
 31
0
  0
LINE
  5
A8A
330
A02
100
AcDbEntity
  8
View001
100
AcDbLine
 10
169.44
 20
51.897
 30
0
 11
168.678
 21
52.1145
 31
0
  0
LINE
  5
A8B
330
A02
100
AcDbEntity
  8
View001
100
AcDbLine
 10
168.678
 20
52.1145
 30
0
 11
168.16
 21
51.8717
 31
0
  0
LINE
  5
A8C
330
A02
100
AcDbEntity
  8
View001
100
AcDbLine
 10
168.16
 20
51.8717
 30
0
 11
168.922
 21
51.6542
 31
0
  0
LINE
  5
A8D
330
A02
100
AcDbEntity
  8
View001
100
AcDbLine
 10
168.922
 20
51.6542
 30
0
 11
162.888
 21
48.8225
 31
0
  0
ELLIPSE
  5
A8E
330
A02
100
AcDbEntity
  8
View001
100
AcDbEllipse
 10
162.625
 20
51.4019
 30
0
 11
2.49843
 21
0.0885035
 31
0
 40
0.37191
 41
5.56638
 42
0
  0
ELLIPSE
  5
A8F
330
A02
100
AcDbEntity
  8
View001
100
AcDbEllipse
 10
162.625
 20
51.4019
 30
0
 11
2.49843
 21
0.0885035
 31
0
 40
0.37191
 41
4.78137
 42
5.56638
  0
ELLIPSE
  5
A90
330
A02
100
AcDbEntity
  8
View001
100
AcDbEllipse
 10
133.02
 20
91.5718
 30
0
 11
2.49843
 21
0.0885035
 31
0
 40
0.37191
 41
5.56638
 42
0
  0
ELLIPSE
  5
A91
330
A02
100
AcDbEntity
  8
View001
100
AcDbEllipse
 10
133.02
 20
91.5718
 30
0
 11
2.49843
 21
0.0885035
 31
0
 40
0.37191
 41
3.14159
 42
5.56638
  0
ELLIPSE
  5
A92
330
A02
100
AcDbEntity
  8
View001
100
AcDbEllipse
 10
167.545
 20
80.7426
 30
0
 11
-1.64897
 21
-0.0584123
 31
0
 40
0.37191
 41
-3.14159
 42
-0.716804
  0
ELLIPSE
  5
A93
330
A02
100
AcDbEntity
  8
View001
100
AcDbEllipse
 10
167.545
 20
80.7426
 30
0
 11
-1.64897
 21
-0.0584123
 31
0
 40
0.37191
 41
-0
 42
-3.14159
  0
ELLIPSE
  5
A94
330
A02
100
AcDbEntity
  8
View001
100
AcDbEllipse
 10
167.545
 20
80.7426
 30
0
 11
-1.64897
 21
-0.0584123
 31
0
 40
0.37191
 41
-0.716804
 42
-0
  0
ELLIPSE
  5
A95
330
A02
100
AcDbEntity
  8
View001
100
AcDbEllipse
 10
204.656
 20
71.1273
 30
0
 11
2.49843
 21
0.0885035
 31
0
 40
0.37191
 41
5.56638
 42
0
  0
ELLIPSE
  5
A96
330
A02
100
AcDbEntity
  8
View001
100
AcDbEllipse
 10
204.656
 20
71.1273
 30
0
 11
2.49843
 21
0.0885035
 31
0
 40
0.37191
 41
5.16447
 42
5.56638
  0
LINE
  5
A97
330
A02
100
AcDbEntity
  8
View001
100
AcDbLine
 10
213.684
 20
69.8086
 30
0
 11
211.779
 21
70.3523
 31
0
  0
LINE
  5
A98
330
A02
100
AcDbEntity
  8
View001
100
AcDbLine
 10
211.73
 20
71.7438
 30
0
 11
211.779
 21
70.3523
 31
0
  0
LINE
  5
A99
330
A02
100
AcDbEntity
  8
View001
100
AcDbLine
 10
125.688
 20
90.8339
 30
0
 11
125.702
 21
90.4395
 31
0
  0
LINE
  5
A9A
330
A02
100
AcDbEntity
  8
View001
100
AcDbLine
 10
205.669
 20
67.4847
 30
0
 11
211.779
 21
70.3523
 31
0
  0
ELLIPSE
  5
A9B
330
A02
100
AcDbEntity
  8
View001
100
AcDbEllipse
 10
125.138
 20
91.5188
 30
0
 11
0.424842
 21
-0.905267
 31
0
 40
0.699831
 41
-2.11842
 42
-0.547621
  0
LINE
  5
A9C
330
A02
100
AcDbEntity
  8
View001
100
AcDbLine
 10
92.997
 20
77.0103
 30
0
 11
103.769
 21
82.0656
 31
0
  0
LINE
  5
A9D
330
A02
100
AcDbEntity
  8
View001
100
AcDbLine
 10
111.98
 20
85.9191
 30
0
 11
124.375
 21
91.7363
 31
0
  0
ELLIPSE
  5
A9E
330
A02
100
AcDbEntity
  8
View001
100
AcDbEllipse
 10
169.407
 20
52.8247
 30
0
 11
-0.424842
 21
0.905267
 31
0
 40
0.699831
 41
2.59397
 42
3.14159
  0
ELLIPSE
  5
A9F
330
A02
100
AcDbEntity
  8
View001
100
AcDbEllipse
 10
169.407
 20
52.8247
 30
0
 11
-0.424842
 21
0.905267
 31
0
 40
0.699831
 41
3.14159
 42
4.16477
  0
LINE
  5
AA0
330
A02
100
AcDbEntity
  8
View001
100
AcDbLine
 10
169.44
 20
51.897
 30
0
 11
169.489
 21
50.5054
 31
0
  0
LINE
  5
AA1
330
A02
100
AcDbEntity
  8
View001
100
AcDbLine
 10
168.678
 20
52.1145
 30
0
 11
168.691
 21
51.7201
 31
0
  0
LINE
  5
AA2
330
A02
100
AcDbEntity
  8
View001
100
AcDbLine
 10
169.489
 20
50.5054
 30
0
 11
168.958
 21
50.6571
 31
0
  0
LINE
  5
AA3
330
A02
100
AcDbEntity
  8
View001
100
AcDbLine
 10
168.922
 20
51.6542
 30
0
 11
168.972
 21
50.2627
 31
0
  0
LINE
  5
AA4
330
A02
100
AcDbEntity
  8
View001
100
AcDbLine
 10
163.554
 20
47.7204
 30
0
 11
168.972
 21
50.2627
 31
0
  0
ELLIPSE
  5
AA5
330
A02
100
AcDbEntity
  8
View001
100
AcDbEllipse
 10
163.552
 20
48.6393
 30
0
 11
0.274435
 21
0.961606
 31
0
 40
0.609852
 41
-3.14159
 42
-2.65312
  0
ELLIPSE
  5
AA6
330
A02
100
AcDbEntity
  8
View001
100
AcDbEllipse
 10
163.552
 20
48.6393
 30
0
 11
0.274435
 21
0.961606
 31
0
 40
0.609852
 41
-4.22392
 42
-3.14159
  0
LINE
  5
AA7
330
A02
100
AcDbEntity
  8
View001
100
AcDbLine
 10
163.585
 20
47.7116
 30
0
 11
163.035
 21
47.8687
 31
0
  0
ELLIPSE
  5
AA8
330
A02
100
AcDbEntity
  8
View001
100
AcDbEllipse
 10
90.8241
 20
76.4847
 30
0
 11
2.49843
 21
0.0885035
 31
0
 40
0.37191
 41
5.56638
 42
0
  0
ELLIPSE
  5
AA9
330
A02
100
AcDbEntity
  8
View001
100
AcDbEllipse
 10
90.8241
 20
76.4847
 30
0
 11
2.49843
 21
0.0885035
 31
0
 40
0.37191
 41
0
 42
0.912533
  0
ELLIPSE
  5
AAA
330
A02
100
AcDbEntity
  8
View001
100
AcDbEllipse
 10
90.8241
 20
76.4847
 30
0
 11
2.49843
 21
0.0885035
 31
0
 40
0.37191
 41
5.37065
 42
5.56638
  0
ELLIPSE
  5
AAB
330
A02
100
AcDbEntity
  8
View001
100
AcDbEllipse
 10
162.46
 20
56.0403
 30
0
 11
2.49843
 21
0.0885035
 31
0
 40
0.37191
 41
5.56638
 42
0
  0
ELLIPSE
  5
AAC
330
A02
100
AcDbEntity
  8
View001
100
AcDbEllipse
 10
162.46
 20
56.0403
 30
0
 11
2.49843
 21
0.0885035
 31
0
 40
0.37191
 41
0
 42
1.50181
  0
ELLIPSE
  5
AAD
330
A02
100
AcDbEntity
  8
View001
100
AcDbEllipse
 10
162.46
 20
56.0403
 30
0
 11
2.49843
 21
0.0885035
 31
0
 40
0.37191
 41
4.78137
 42
5.56638
  0
ELLIPSE
  5
AAE
330
A02
100
AcDbEntity
  8
View001
100
AcDbEllipse
 10
132.856
 20
96.2102
 30
0
 11
2.49843
 21
0.0885035
 31
0
 40
0.37191
 41
5.56638
 42
0
  0
ELLIPSE
  5
AAF
330
A02
100
AcDbEntity
  8
View001
100
AcDbEllipse
 10
132.856
 20
96.2102
 30
0
 11
2.49843
 21
0.0885035
 31
0
 40
0.37191
 41
0
 42
3.14159
  0
ELLIPSE
  5
AB0
330
A02
100
AcDbEntity
  8
View001
100
AcDbEllipse
 10
132.856
 20
96.2102
 30
0
 11
2.49843
 21
0.0885035
 31
0
 40
0.37191
 41
3.14159
 42
5.56638
  0
ELLIPSE
  5
AB1
330
A02
100
AcDbEntity
  8
View001
100
AcDbEllipse
 10
204.492
 20
75.7658
 30
0
 11
2.49843
 21
0.0885035
 31
0
 40
0.37191
 41
5.56638
 42
0
  0
ELLIPSE
  5
AB2
330
A02
100
AcDbEntity
  8
View001
100
AcDbEllipse
 10
204.492
 20
75.7658
 30
0
 11
2.49843
 21
0.0885035
 31
0
 40
0.37191
 41
0
 42
3.14159
  0
ELLIPSE
  5
AB3
330
A02
100
AcDbEntity
  8
View001
100
AcDbEllipse
 10
204.492
 20
75.7658
 30
0
 11
2.49843
 21
0.0885035
 31
0
 40
0.37191
 41
3.14159
 42
5.56638
  0
ELLIPSE
  5
AB4
330
A02
100
AcDbEntity
  8
View001
100
AcDbEllipse
 10
203.937
 20
69.0299
 30
0
 11
-1.06211
 21
2.26317
 31
0
 40
0.699831
 41
3.14159
 42
4.16477
  0
LINE
  5
AB5
330
A02
100
AcDbEntity
  8
View001
100
AcDbLine
 10
124.375
 20
91.7363
 30
0
 11
124.175
 21
97.3952
 31
0
  0
LINE
  5
AB6
330
A02
100
AcDbEntity
  8
View001
100
AcDbLine
 10
124.175
 20
97.3952
 30
0
 11
104.357
 21
88.0947
 31
0
  0
LINE
  5
AB7
330
A02
100
AcDbEntity
  8
View001
100
AcDbLine
 10
98.2159
 20
85.2125
 30
0
 11
92.1462
 21
82.364
 31
0
  0
ELLIPSE
  5
AB8
330
A02
100
AcDbEntity
  8
View001
100
AcDbEllipse
 10
95.9508
 20
81.3202
 30
0
 11
-0.343044
 21
-1.20201
 31
0
 40
0.609852
 41
3.63007
 42
0
  0
ELLIPSE
  5
AB9
330
A02
100
AcDbEntity
  8
View001
100
AcDbEllipse
 10
95.9508
 20
81.3202
 30
0
 11
-0.343044
 21
-1.20201
 31
0
 40
0.609852
 41
0
 42
3.14159
  0
ELLIPSE
  5
ABA
330
A02
100
AcDbEntity
  8
View001
100
AcDbEllipse
 10
95.9508
 20
81.3202
 30
0
 11
-0.343044
 21
-1.20201
 31
0
 40
0.609852
 41
3.14159
 42
3.63007
  0
ELLIPSE
  5
ABB
330
A02
100
AcDbEntity
  8
View001
100
AcDbEllipse
 10
119.747
 20
92.4878
 30
0
 11
-0.343044
 21
-1.20201
 31
0
 40
0.609852
 41
3.63007
 42
0
  0
ELLIPSE
  5
ABC
330
A02
100
AcDbEntity
  8
View001
100
AcDbEllipse
 10
119.747
 20
92.4878
 30
0
 11
-0.343044
 21
-1.20201
 31
0
 40
0.609852
 41
0
 42
3.14159
  0
ELLIPSE
  5
ABD
330
A02
100
AcDbEntity
  8
View001
100
AcDbEllipse
 10
119.747
 20
92.4878
 30
0
 11
-0.343044
 21
-1.20201
 31
0
 40
0.609852
 41
3.14159
 42
3.63007
  0
ELLIPSE
  5
ABE
330
A02
100
AcDbEntity
  8
View001
100
AcDbEllipse
 10
169.407
 20
52.8247
 30
0
 11
-1.06211
 21
2.26317
 31
0
 40
0.699831
 41
2.59397
 42
3.14159
  0
ELLIPSE
  5
ABF
330
A02
100
AcDbEntity
  8
View001
100
AcDbEllipse
 10
169.407
 20
52.8247
 30
0
 11
-1.06211
 21
2.26317
 31
0
 40
0.699831
 41
3.14159
 42
4.16477
  0
LINE
  5
AC0
330
A02
100
AcDbEntity
  8
View001
100
AcDbLine
 10
170.169
 20
52.6072
 30
0
 11
171.312
 21
52.2809
 31
0
  0
LINE
  5
AC1
330
A02
100
AcDbEntity
  8
View001
100
AcDbLine
 10
170.169
 20
52.6072
 30
0
 11
169.968
 21
58.2661
 31
0
  0
LINE
  5
AC2
330
A02
100
AcDbEntity
  8
View001
100
AcDbLine
 10
169.968
 20
58.2661
 30
0
 11
204.499
 21
74.4713
 31
0
  0
ELLIPSE
  5
AC3
330
A02
100
AcDbEntity
  8
View001
100
AcDbEllipse
 10
176.275
 20
58.3963
 30
0
 11
0.343044
 21
1.20201
 31
0
 40
0.609852
 41
-2.24739
 42
-0.894205
  0
ELLIPSE
  5
AC4
330
A02
100
AcDbEntity
  8
View001
100
AcDbEllipse
 10
200.071
 20
69.5639
 30
0
 11
0.343044
 21
1.20201
 31
0
 40
0.609852
 41
-2.24739
 42
-0.894205
  0
LINE
  5
AC5
330
A02
100
AcDbEntity
  8
View001
100
AcDbLine
 10
163.634
 20
46.3201
 30
0
 11
163.585
 21
47.7116
 31
0
  0
ELLIPSE
  5
AC6
330
A02
100
AcDbEntity
  8
View001
100
AcDbEllipse
 10
163.552
 20
48.6393
 30
0
 11
0.686089
 21
2.40401
 31
0
 40
0.609852
 41
-3.14159
 42
-2.65312
  0
ELLIPSE
  5
AC7
330
A02
100
AcDbEntity
  8
View001
100
AcDbEllipse
 10
163.552
 20
48.6393
 30
0
 11
0.686089
 21
2.40401
 31
0
 40
0.609852
 41
-4.22392
 42
-3.14159
  0
LINE
  5
AC8
330
A02
100
AcDbEntity
  8
View001
100
AcDbLine
 10
161.936
 20
47.8806
 30
0
 11
162.906
 21
48.3358
 31
0
  0
ELLIPSE
  5
AC9
330
A02
100
AcDbEntity
  8
View001
100
AcDbEllipse
 10
80.9421
 20
72.2157
 30
0
 11
0.686089
 21
2.40401
 31
0
 40
0.609852
 41
-4.22392
 42
-3.14159
  0
LINE
  5
ACA
330
A02
100
AcDbEntity
  8
View001
100
AcDbLine
 10
162.097
 20
71.1569
 30
0
 11
162.906
 21
48.3358
 31
0
  0
ELLIPSE
  5
ACB
330
A02
100
AcDbEntity
  8
View001
100
AcDbEllipse
 10
161.716
 20
71.2657
 30
0
 11
-0.212421
 21
0.452634
 31
0
 40
0.699831
 41
4.16477
 42
5.73556
  0
LINE
  5
ACC
330
A02
100
AcDbEntity
  8
View001
100
AcDbLine
 10
79.8516
 20
95.0884
 30
0
 11
161.7
 21
71.7295
 31
0
  0
ELLIPSE
  5
ACD
330
A02
100
AcDbEntity
  8
View001
100
AcDbEllipse
 10
79.8681
 20
94.6246
 30
0
 11
0.212421
 21
-0.452634
 31
0
 40
0.699831
 41
-3.68921
 42
-3.14159
  0
LINE
  5
ACE
330
A02
100
AcDbEntity
  8
View001
100
AcDbLine
 10
128.71
 20
64.7067
 30
0
 11
128.339
 21
75.1896
 31
0
  0
ELLIPSE
  5
ACF
330
A02
100
AcDbEntity
  8
View001
100
AcDbEllipse
 10
129.473
 20
64.4892
 30
0
 11
-0.424842
 21
0.905267
 31
0
 40
0.699831
 41
1.02318
 42
2.59397
  0
ELLIPSE
  5
AD0
330
A02
100
AcDbEntity
  8
View001
100
AcDbEllipse
 10
129.101
 20
74.9721
 30
0
 11
0.424842
 21
-0.905267
 31
0
 40
0.699831
 41
-2.32269
 42
-2.11842
  0
LINE
  5
AD1
330
A02
100
AcDbEntity
  8
View001
100
AcDbLine
 10
151.844
 20
57.1863
 30
0
 11
129.505
 21
63.5615
 31
0
  0
LINE
  5
AD2
330
A02
100
AcDbEntity
  8
View001
100
AcDbLine
 10
92.4293
 20
74.3724
 30
0
 11
91.9823
 21
86.9916
 31
0
  0
LINE
  5
AD3
330
A02
100
AcDbEntity
  8
View001
100
AcDbLine
 10
104.16
 20
71.0245
 30
0
 11
92.4293
 21
74.3724
 31
0
  0
ELLIPSE
  5
AD4
330
A02
100
AcDbEntity
  8
View001
100
AcDbEllipse
 10
90.8241
 20
76.4847
 30
0
 11
1.69893
 21
0.0601824
 31
0
 40
0.37191
 41
5.83129
 42
0
  0
ELLIPSE
  5
AD5
330
A02
100
AcDbEntity
  8
View001
100
AcDbEllipse
 10
90.8241
 20
76.4847
 30
0
 11
1.69893
 21
0.0601824
 31
0
 40
0.37191
 41
0
 42
0.451891
  0
ELLIPSE
  5
AD6
330
A02
100
AcDbEntity
  8
View001
100
AcDbEllipse
 10
162.46
 20
56.0403
 30
0
 11
1.69893
 21
0.0601824
 31
0
 40
0.37191
 41
5.56638
 42
0
  0
ELLIPSE
  5
AD7
330
A02
100
AcDbEntity
  8
View001
100
AcDbEllipse
 10
162.46
 20
56.0403
 30
0
 11
1.69893
 21
0.0601824
 31
0
 40
0.37191
 41
0
 42
1.46926
  0
ELLIPSE
  5
AD8
330
A02
100
AcDbEntity
  8
View001
100
AcDbEllipse
 10
162.46
 20
56.0403
 30
0
 11
1.69893
 21
0.0601824
 31
0
 40
0.37191
 41
4.81393
 42
5.56638
  0
ELLIPSE
  5
AD9
330
A02
100
AcDbEntity
  8
View001
100
AcDbEllipse
 10
132.856
 20
96.2102
 30
0
 11
1.69893
 21
0.0601824
 31
0
 40
0.37191
 41
5.56638
 42
0
  0
ELLIPSE
  5
ADA
330
A02
100
AcDbEntity
  8
View001
100
AcDbEllipse
 10
132.856
 20
96.2102
 30
0
 11
1.69893
 21
0.0601824
 31
0
 40
0.37191
 41
0
 42
3.14159
  0
ELLIPSE
  5
ADB
330
A02
100
AcDbEntity
  8
View001
100
AcDbEllipse
 10
132.856
 20
96.2102
 30
0
 11
1.69893
 21
0.0601824
 31
0
 40
0.37191
 41
3.14159
 42
5.56638
  0
ELLIPSE
  5
ADC
330
A02
100
AcDbEntity
  8
View001
100
AcDbEllipse
 10
204.492
 20
75.7658
 30
0
 11
1.69893
 21
0.0601824
 31
0
 40
0.37191
 41
5.56638
 42
0
  0
ELLIPSE
  5
ADD
330
A02
100
AcDbEntity
  8
View001
100
AcDbEllipse
 10
204.492
 20
75.7658
 30
0
 11
1.69893
 21
0.0601824
 31
0
 40
0.37191
 41
0
 42
3.14159
  0
ELLIPSE
  5
ADE
330
A02
100
AcDbEntity
  8
View001
100
AcDbEllipse
 10
204.492
 20
75.7658
 30
0
 11
1.69893
 21
0.0601824
 31
0
 40
0.37191
 41
3.14159
 42
5.56638
  0
LINE
  5
ADF
330
A02
100
AcDbEntity
  8
View001
100
AcDbLine
 10
171.312
 20
52.2809
 30
0
 11
205.843
 21
68.4862
 31
0
  0
LINE
  5
AE0
330
A02
100
AcDbEntity
  8
View001
100
AcDbLine
 10
79.3255
 20
71.457
 30
0
 11
161.936
 21
47.8806
 31
0
  0
LINE
  5
AE1
330
A02
100
AcDbEntity
  8
View001
100
AcDbLine
 10
124.175
 20
97.3952
 30
0
 11
123.032
 21
97.7214
 31
0
  0
LINE
  5
AE2
330
A02
100
AcDbEntity
  8
View001
100
AcDbLine
 10
204.499
 20
74.4713
 30
0
 11
205.642
 21
74.145
 31
0
  0
LINE
  5
AE3
330
A02
100
AcDbEntity
  8
View001
100
AcDbLine
 10
205.642
 20
74.145
 30
0
 11
205.843
 21
68.4862
 31
0
  0
LINE
  5
AE4
330
A02
100
AcDbEntity
  8
View001
100
AcDbLine
 10
123.032
 20
97.7214
 30
0
 11
103.214
 21
88.4209
 31
0
  0
LINE
  5
AE5
330
A02
100
AcDbEntity
  8
View001
100
AcDbLine
 10
97.0728
 20
85.5388
 30
0
 11
92.1161
 21
83.2126
 31
0
  0
ELLIPSE
  5
AE6
330
A02
100
AcDbEntity
  8
View001
100
AcDbEllipse
 10
94.8076
 20
81.6464
 30
0
 11
0.343044
 21
1.20201
 31
0
 40
0.609852
 41
-2.24739
 42
-0.894205
  0
ELLIPSE
  5
AE7
330
A02
100
AcDbEntity
  8
View001
100
AcDbEllipse
 10
118.604
 20
92.8141
 30
0
 11
0.343044
 21
1.20201
 31
0
 40
0.609852
 41
-2.24739
 42
-0.894205
  0
LINE
  5
AE8
330
A02
100
AcDbEntity
  8
View001
100
AcDbLine
 10
169.968
 20
58.2661
 30
0
 11
171.112
 21
57.9398
 31
0
  0
LINE
  5
AE9
330
A02
100
AcDbEntity
  8
View001
100
AcDbLine
 10
171.312
 20
52.2809
 30
0
 11
171.112
 21
57.9398
 31
0
  0
LINE
  5
AEA
330
A02
100
AcDbEntity
  8
View001
100
AcDbLine
 10
171.112
 20
57.9398
 30
0
 11
205.642
 21
74.145
 31
0
  0
ELLIPSE
  5
AEB
330
A02
100
AcDbEntity
  8
View001
100
AcDbEllipse
 10
177.418
 20
58.0701
 30
0
 11
-0.343044
 21
-1.20201
 31
0
 40
0.609852
 41
0.488473
 42
3.14159
  0
ELLIPSE
  5
AEC
330
A02
100
AcDbEntity
  8
View001
100
AcDbEllipse
 10
177.418
 20
58.0701
 30
0
 11
-0.343044
 21
-1.20201
 31
0
 40
0.609852
 41
3.14159
 42
0
  0
ELLIPSE
  5
AED
330
A02
100
AcDbEntity
  8
View001
100
AcDbEllipse
 10
177.418
 20
58.0701
 30
0
 11
-0.343044
 21
-1.20201
 31
0
 40
0.609852
 41
0
 42
0.488473
  0
ELLIPSE
  5
AEE
330
A02
100
AcDbEntity
  8
View001
100
AcDbEllipse
 10
201.214
 20
69.2377
 30
0
 11
-0.343044
 21
-1.20201
 31
0
 40
0.609852
 41
0.488473
 42
3.14159
  0
ELLIPSE
  5
AEF
330
A02
100
AcDbEntity
  8
View001
100
AcDbEllipse
 10
201.214
 20
69.2377
 30
0
 11
-0.343044
 21
-1.20201
 31
0
 40
0.609852
 41
3.14159
 42
0
  0
ELLIPSE
  5
AF0
330
A02
100
AcDbEntity
  8
View001
100
AcDbEllipse
 10
201.214
 20
69.2377
 30
0
 11
-0.343044
 21
-1.20201
 31
0
 40
0.609852
 41
0
 42
0.488473
  0
LINE
  5
AF1
330
A02
100
AcDbEntity
  8
View001
100
AcDbLine
 10
161.127
 20
70.7017
 30
0
 11
161.936
 21
47.8806
 31
0
  0
LINE
  5
AF2
330
A02
100
AcDbEntity
  8
View001
100
AcDbLine
 10
79.3255
 20
71.457
 30
0
 11
78.5171
 21
94.2781
 31
0
  0
ELLIPSE
  5
AF3
330
A02
100
AcDbEntity
  8
View001
100
AcDbEllipse
 10
160.746
 20
70.8105
 30
0
 11
-0.212421
 21
0.452634
 31
0
 40
0.699831
 41
4.16477
 42
5.73556
  0
LINE
  5
AF4
330
A02
100
AcDbEntity
  8
View001
100
AcDbLine
 10
78.8817
 20
94.6332
 30
0
 11
160.73
 21
71.2743
 31
0
  0
ELLIPSE
  5
AF5
330
A02
100
AcDbEntity
  8
View001
100
AcDbEllipse
 10
78.8981
 20
94.1694
 30
0
 11
0.212421
 21
-0.452634
 31
0
 40
0.699831
 41
-3.14159
 42
-2.11842
  0
ELLIPSE
  5
AF6
330
A02
100
AcDbEntity
  8
View001
100
AcDbEllipse
 10
78.8981
 20
94.1694
 30
0
 11
0.212421
 21
-0.452634
 31
0
 40
0.699831
 41
-3.68921
 42
-3.14159
  0
LINE
  5
AF7
330
A02
100
AcDbEntity
  8
View001
100
AcDbLine
 10
127.74
 20
64.2515
 30
0
 11
127.369
 21
74.7344
 31
0
  0
ELLIPSE
  5
AF8
330
A02
100
AcDbEntity
  8
View001
100
AcDbEllipse
 10
128.503
 20
64.034
 30
0
 11
-0.424842
 21
0.905267
 31
0
 40
0.699831
 41
1.02318
 42
2.59397
  0
ELLIPSE
  5
AF9
330
A02
100
AcDbEntity
  8
View001
100
AcDbEllipse
 10
128.131
 20
74.5169
 30
0
 11
0.424842
 21
-0.905267
 31
0
 40
0.699831
 41
-3.14159
 42
-2.11842
  0
ELLIPSE
  5
AFA
330
A02
100
AcDbEntity
  8
View001
100
AcDbEllipse
 10
128.131
 20
74.5169
 30
0
 11
0.424842
 21
-0.905267
 31
0
 40
0.699831
 41
-3.68921
 42
-3.14159
  0
LINE
  5
AFB
330
A02
100
AcDbEntity
  8
View001
100
AcDbLine
 10
151.124
 20
56.6598
 30
0
 11
128.535
 21
63.1063
 31
0
  0
LINE
  5
AFC
330
A02
100
AcDbEntity
  8
View001
100
AcDbLine
 10
128.098
 20
75.4446
 30
0
 11
150.687
 21
68.998
 31
0
  0
ELLIPSE
  5
AFD
330
A02
100
AcDbEntity
  8
View001
100
AcDbEllipse
 10
151.091
 20
57.5875
 30
0
 11
0.424842
 21
-0.905267
 31
0
 40
0.699831
 41
-0
 42
-5.26001
  0
ELLIPSE
  5
AFE
330
A02
100
AcDbEntity
  8
View001
100
AcDbEllipse
 10
151.091
 20
57.5875
 30
0
 11
0.424842
 21
-0.905267
 31
0
 40
0.699831
 41
-0.547621
 42
-4.44089e-16
  0
ELLIPSE
  5
AFF
330
A02
100
AcDbEntity
  8
View001
100
AcDbEllipse
 10
150.719
 20
68.0704
 30
0
 11
0.424842
 21
-0.905267
 31
0
 40
0.699831
 41
-5.26001
 42
-3.68921
  0
LINE
  5
B00
330
A02
100
AcDbEntity
  8
View001
100
AcDbLine
 10
151.482
 20
67.8529
 30
0
 11
151.853
 21
57.37
 31
0
  0
LINE
  5
B01
330
A02
100
AcDbEntity
  8
View001
100
AcDbLine
 10
91.4593
 20
73.9172
 30
0
 11
90.9861
 21
87.2759
 31
0
  0
LINE
  5
B02
330
A02
100
AcDbEntity
  8
View001
100
AcDbLine
 10
91.4593
 20
73.9172
 30
0
 11
92.4293
 21
74.3724
 31
0
  0
LINE
  5
B03
330
A02
100
AcDbEntity
  8
View001
100
AcDbLine
 10
90.9861
 20
87.2759
 30
0
 11
103.713
 21
83.6437
 31
0
  0
LINE
  5
B04
330
A02
100
AcDbEntity
  8
View001
100
AcDbLine
 10
103.713
 20
83.6437
 30
0
 11
104.186
 21
70.285
 31
0
  0
LINE
  5
B05
330
A02
100
AcDbEntity
  8
View001
100
AcDbLine
 10
104.186
 20
70.285
 30
0
 11
91.4593
 21
73.9172
 31
0
  0
LINE
  5
B06
330
A02
100
AcDbEntity
  8
View001
100
AcDbLine
 10
130.999
 20
119.173
 30
0
 11
131.969
 21
119.628
 31
0
  0
LINE
  5
B07
330
A02
100
AcDbEntity
  8
View001
100
AcDbLine
 10
93.3226
 20
76.5732
 30
0
 11
93.4105
 21
74.0924
 31
0
  0
LINE
  5
B08
330
A02
100
AcDbEntity
  8
View001
100
AcDbLine
 10
164.959
 20
56.1288
 30
0
 11
165.123
 21
51.4904
 31
0
  0
LINE
  5
B09
330
A02
100
AcDbEntity
  8
View001
100
AcDbLine
 10
130.357
 20
96.1217
 30
0
 11
130.522
 21
91.4833
 31
0
  0
LINE
  5
B0A
330
A02
100
AcDbEntity
  8
View001
100
AcDbLine
 10
135.354
 20
96.2987
 30
0
 11
135.519
 21
91.6603
 31
0
  0
LINE
  5
B0B
330
A02
100
AcDbEntity
  8
View001
100
AcDbLine
 10
201.993
 20
75.6772
 30
0
 11
202.076
 21
73.3344
 31
0
  0
LINE
  5
B0C
330
A02
100
AcDbEntity
  8
View001
100
AcDbLine
 10
206.99
 20
75.8543
 30
0
 11
207.155
 21
71.2158
 31
0
  0
LINE
  5
B0D
330
A02
100
AcDbEntity
  8
View001
100
AcDbLine
 10
170.469
 20
50.5615
 30
0
 11
204.999
 21
66.7667
 31
0
  0
LINE
  5
B0E
330
A02
100
AcDbEntity
  8
View001
100
AcDbLine
 10
80.256
 20
69.8117
 30
0
 11
162.866
 21
46.2353
 31
0
  0
LINE
  5
B0F
330
A02
100
AcDbEntity
  8
View001
100
AcDbLine
 10
79.6557
 20
95.0772
 30
0
 11
78.6857
 21
94.622
 31
0
  0
LINE
  5
B10
330
A02
100
AcDbEntity
  8
View001
100
AcDbLine
 10
131.195
 20
119.184
 30
0
 11
132.165
 21
119.639
 31
0
  0
LINE
  5
B11
330
A02
100
AcDbEntity
  8
View001
100
AcDbLine
 10
213.043
 20
95.8249
 30
0
 11
214.013
 21
96.2801
 31
0
  0
LINE
  5
B12
330
A02
100
AcDbEntity
  8
View001
100
AcDbLine
 10
213.44
 20
95.2523
 30
0
 11
214.41
 21
95.7075
 31
0
  0
LINE
  5
B13
330
A02
100
AcDbEntity
  8
View001
100
AcDbLine
 10
147.672
 20
98.2248
 30
0
 11
146.702
 21
97.7696
 31
0
  0
LINE
  5
B14
330
A02
100
AcDbEntity
  8
View001
100
AcDbLine
 10
147.606
 20
100.08
 30
0
 11
146.636
 21
99.625
 31
0
  0
LINE
  5
B15
330
A02
100
AcDbEntity
  8
View001
100
AcDbLine
 10
148.467
 20
97.0796
 30
0
 11
147.497
 21
96.6244
 31
0
  0
LINE
  5
B16
330
A02
100
AcDbEntity
  8
View001
100
AcDbLine
 10
153.491
 20
95.4116
 30
0
 11
152.831
 21
95.102
 31
0
  0
LINE
  5
B17
330
A02
100
AcDbEntity
  8
View001
100
AcDbLine
 10
170.572
 20
91.6891
 30
0
 11
169.602
 21
91.2339
 31
0
  0
LINE
  5
B18
330
A02
100
AcDbEntity
  8
View001
100
AcDbLine
 10
170.507
 20
93.5445
 30
0
 11
169.537
 21
93.0893
 31
0
  0
LINE
  5
B19
330
A02
100
AcDbEntity
  8
View001
100
AcDbLine
 10
171.367
 20
90.5439
 30
0
 11
170.397
 21
90.0887
 31
0
  0
LINE
  5
B1A
330
A02
100
AcDbEntity
  8
View001
100
AcDbLine
 10
176.392
 20
88.8759
 30
0
 11
175.732
 21
88.5663
 31
0
  0
LINE
  5
B1B
330
A02
100
AcDbEntity
  8
View001
100
AcDbLine
 10
162.097
 20
71.1569
 30
0
 11
161.127
 21
70.7017
 31
0
  0
LINE
  5
B1C
330
A02
100
AcDbEntity
  8
View001
100
AcDbLine
 10
161.7
 20
71.7295
 30
0
 11
160.73
 21
71.2743
 31
0
  0
LINE
  5
B1D
330
A02
100
AcDbEntity
  8
View001
100
AcDbLine
 10
79.8516
 20
95.0884
 30
0
 11
78.8817
 21
94.6332
 31
0
  0
LINE
  5
B1E
330
A02
100
AcDbEntity
  8
View001
100
AcDbLine
 10
127.74
 20
64.2515
 30
0
 11
128.71
 21
64.7067
 31
0
  0
LINE
  5
B1F
330
A02
100
AcDbEntity
  8
View001
100
AcDbLine
 10
127.369
 20
74.7344
 30
0
 11
128.339
 21
75.1896
 31
0
  0
LINE
  5
B20
330
A02
100
AcDbEntity
  8
View001
100
AcDbLine
 10
128.535
 20
63.1063
 30
0
 11
129.505
 21
63.5615
 31
0
  0
LINE
  5
B21
330
A02
100
AcDbEntity
  8
View001
100
AcDbLine
 10
151.124
 20
56.6598
 30
0
 11
151.783
 21
56.9694
 31
0
  0
LINE
  5
B22
330
A02
100
AcDbEntity
  8
View001
100
AcDbLine
 10
92.7886
 20
74.2698
 30
0
 11
92.7294
 21
75.941
 31
0
  0
LINE
  5
B23
330
A02
100
AcDbEntity
  8
View001
100
AcDbLine
 10
164.53
 20
50.8581
 30
0
 11
164.366
 21
55.4966
 31
0
  0
LINE
  5
B24
330
A02
100
AcDbEntity
  8
View001
100
AcDbLine
 10
134.925
 20
91.028
 30
0
 11
134.761
 21
95.6665
 31
0
  0
LINE
  5
B25
330
A02
100
AcDbEntity
  8
View001
100
AcDbLine
 10
166.316
 20
80.2957
 30
0
 11
166.287
 21
81.1015
 31
0
  0
LINE
  5
B26
330
A02
100
AcDbEntity
  8
View001
100
AcDbLine
 10
206.561
 20
70.5836
 30
0
 11
206.397
 21
75.222
 31
0
  0
LINE
  5
B27
330
A02
100
AcDbEntity
  8
View001
100
AcDbLine
 10
177.459
 20
56.9104
 30
0
 11
176.771
 21
57.1068
 31
0
  0
LINE
  5
B28
330
A02
100
AcDbEntity
  8
View001
100
AcDbLine
 10
201.255
 20
68.0781
 30
0
 11
200.567
 21
68.2744
 31
0
  0
ENDSEC
  0
SECTION
  2
OBJECTS
  0
DICTIONARY
  5
F000
330
0
100
AcDbDictionary
  3
ACAD_GROUP
350
F001
  0
DICTIONARY
  5
F001
330
F000
100
AcDbDictionary
  0
ENDSEC
  0
EOF